<svg xmlns="http://www.w3.org/2000/svg" viewBox="0 0 26.86 15.89"><defs><style>.cls-1{fill:#ed1c24;}.cls-2{fill:#fd0;}.cls-3{fill:#034ea2;}.cls-4{fill:#c66219;}.cls-10,.cls-4,.cls-5,.cls-6,.cls-7,.cls-8,.cls-9{fill-rule:evenodd;}.cls-5{fill:#dbd2c6;}.cls-6{fill:#033886;}.cls-7{fill:#c21927;}.cls-8{fill:#1c2417;}.cls-9{fill:#4f8e54;}.cls-10{fill:#f2ca26;}</style></defs><title>flag_218</title><g id="レイヤー_2" data-name="レイヤー 2"><g id="flag"><rect class="cls-1" width="26.86" height="15.89"/><rect class="cls-2" width="26.86" height="7.36"/><rect class="cls-3" y="7.27" width="26.86" height="4.18"/><path class="cls-4" d="M12.77,2.9s.12,0,.13,0Z"/><path class="cls-4" d="M15.33,2.9a.13.13,0,0,1,.13,0Z"/><path class="cls-5" d="M14.06,4.17c-.18-.15-.46,0-.65-.09a.28.28,0,0,0,0-.11c.06-.1.11-.18.28-.17S14.34,4.05,14.06,4.17ZM13.48,4a.11.11,0,0,0,.11,0A.06.06,0,1,0,13.48,4Z"/><path class="cls-5" d="M13.37,4.07s-.1,0-.11.07S13.38,3.88,13.37,4.07Z"/><path class="cls-6" d="M16.64,4.33a1.16,1.16,0,0,0,.07.2c-.06,0-.07-.12-.11-.17s-.06.06-.11.07A.13.13,0,0,1,16.64,4.33Z"/><path class="cls-7" d="M11.75,4.58s0,0-.07,0a.08.08,0,0,0,0-.13c-.07,0-.1.09-.2.09C11.57,4.5,11.74,4.33,11.75,4.58Z"/><path class="cls-7" d="M16.71,4.55c-.07,0-.13-.06-.19-.08s-.06.11,0,.12-.05,0-.07,0C16.47,4.34,16.6,4.5,16.71,4.55Z"/><path class="cls-4" d="M10.93,4.48s.13,0,.19,0S11,4.48,10.93,4.48Z"/><path class="cls-5" d="M16.92,4.58c-.07,0-.09.1-.17.12s.07-.14.11-.2S16.91,4.53,16.92,4.58Z"/><path class="cls-4" d="M11.57,4.56s.06,0,.08,0S11.45,4.59,11.57,4.56Z"/><path class="cls-4" d="M14.35,4.58s.09,0,.13,0S14.39,4.57,14.35,4.58Z"/><path class="cls-4" d="M16.63,4.56c.11,0-.07,0-.09,0S16.62,4.59,16.63,4.56Z"/><path class="cls-5" d="M14.58,4.82a.33.33,0,0,0-.16.28,1.89,1.89,0,0,0-.62,0c0-.13,0-.23-.16-.26A1.84,1.84,0,0,1,14.58,4.82Z"/><path class="cls-6" d="M11.47,4.83s0,.08,0,.11S11.47,4.86,11.47,4.83Z"/><path class="cls-6" d="M17.25,4.82c0,.05,0,.15.08.19s-.06-.13-.12-.16,0,.06-.09.07S17.17,4.82,17.25,4.82Z"/><path class="cls-5" d="M13.57,4.84a.21.21,0,0,1,.15.12l-.16-.07S13.57,4.86,13.57,4.84Z"/><path class="cls-5" d="M14.66,4.84c0,.1-.11.08-.16.12A.21.21,0,0,1,14.66,4.84Z"/><path class="cls-6" d="M16.72,4.9s0,.1,0,.13S16.72,4.93,16.72,4.9Z"/><path class="cls-6" d="M11.84,4.91a2.91,2.91,0,0,1,.4.33s-.05,0-.07,0A1.56,1.56,0,0,0,11.84,5Z"/><path class="cls-6" d="M16.35,5c0,.06,0,.09,0,.15s-.12-.17,0-.19Z"/><path class="cls-7" d="M17.1,4.94c.11,0,.13.08.21.1-.07,0-.11-.05-.17-.07a.06.06,0,0,0,0,.11s0,0-.07,0S17.1,5,17.1,4.94Z"/><path class="cls-5" d="M12.51,6.73a2.35,2.35,0,0,1,.63-1.49c.14-.13.41-.42.57-.2a1.82,1.82,0,0,0-1.1,1.71s0,.1,0,.15V7s0,.12,0,.14a2.13,2.13,0,0,0,.48,1.27,1.73,1.73,0,0,0,.2.2,1.08,1.08,0,0,0,.44.24c0,.22-.24.07-.37,0a2.21,2.21,0,0,1-.85-1.68s0-.12,0-.14V6.88S12.5,6.78,12.51,6.73Z"/><path class="cls-5" d="M15.57,6.76A1.86,1.86,0,0,0,14.5,5c.14-.2.34,0,.48.12a1,1,0,0,0,.14.15,2.43,2.43,0,0,1,.56,1.44s0,.12,0,.15V7s0,.09,0,.13a2.18,2.18,0,0,1-.93,1.76c-.1.06-.24.13-.28,0a1.17,1.17,0,0,0,.42-.24,1.66,1.66,0,0,0,.2-.2,2.13,2.13,0,0,0,.48-1.3s0-.09,0-.13V6.89S15.6,6.78,15.57,6.76Z"/><path class="cls-4" d="M16.69,5a.34.34,0,0,1,0,.21Z"/><path class="cls-6" d="M13.73,5.08s0,0,0,.05a1.68,1.68,0,0,1,.66,0s0,0,0,0a1.57,1.57,0,0,1,.77.67,2.33,2.33,0,0,0-.68-.26v0a.8.8,0,0,1-.18,0c0-.07.06-.09.08-.16s-.12.06-.17.09,0-.12,0-.2-.07.13-.15.15,0-.15-.05-.18a.56.56,0,0,0,0,.18c-.07,0-.08-.1-.13-.15s0,.13,0,.2-.12-.08-.19-.11.07.1.08.17a.55.55,0,0,1-.17,0s0,0,0,0a1.71,1.71,0,0,0-.69.29A1.41,1.41,0,0,1,13.73,5.08Z"/><path class="cls-4" d="M17.26,5.17s0,0,0,0a5.14,5.14,0,0,1,0,.93A4.42,4.42,0,0,0,17.26,5.17Z"/><path class="cls-6" d="M11.84,5.17s0,.06.08.08-.06,0-.08,0Z"/><path class="cls-7" d="M12.59,5.2s0,0-.07,0S12.57,5.17,12.59,5.2Z"/><path class="cls-7" d="M12.49,5.23c.06,0,0,.08,0,0S12.48,5.24,12.49,5.23Z"/><path class="cls-4" d="M16.8,5.23s0,.09,0,.13S16.81,5.27,16.8,5.23Z"/><path class="cls-7" d="M16.76,5.24s0,.05,0,.08S16.77,5.27,16.76,5.24Z"/><path class="cls-6" d="M17.33,5.29s0,.09,0,.12S17.33,5.32,17.33,5.29Z"/><path class="cls-7" d="M12.3,5.46V5.38s0,0,0-.05,0,0,.07,0A.18.18,0,0,1,12.3,5.46Z"/><path class="cls-7" d="M11.42,5.33s0,.09,0,.07S11.43,5.37,11.42,5.33Z"/><path class="cls-6" d="M12.3,5.38v.08c0,.08-.08.12-.09.2a.37.37,0,0,1,0-.19h0S12.27,5.28,12.3,5.38Z"/><path class="cls-6" d="M10.85,5.38s0,.1,0,.13S10.85,5.42,10.85,5.38Z"/><path class="cls-7" d="M15.78,5.37a.42.42,0,0,1,.11.24c-.06-.05-.09-.13-.14-.19S15.78,5.4,15.78,5.37Z"/><path class="cls-6" d="M16.71,5.38s0,.05,0,.08S16.71,5.41,16.71,5.38Z"/><path class="cls-6" d="M11.83,5.4a1.43,1.43,0,0,0,.38.07c-.07.13,0,.46-.15.47s-.13-.17-.24-.17V5.4Z"/><path class="cls-7" d="M11.4,5.42h0s0,.07,0,.07S11.41,5.45,11.4,5.42Z"/><path class="cls-7" d="M16.76,5.42s0,.09,0,.07Z"/><path class="cls-7" d="M15.9,5.85c0-.06-.42-.35-.2-.38A3.29,3.29,0,0,1,15.9,5.85Z"/><path class="cls-8" d="M14.23,5.54s-.08,0-.07,0,0,0,.07,0-.08,0-.08.08,0-.08,0-.12S14.2,5.54,14.23,5.54Z"/><path class="cls-4" d="M11.83,5.6v.17s0,0,0,0S11.79,5.62,11.83,5.6Z"/><path class="cls-7" d="M12.29,6.24V6s0,0,0-.05a2,2,0,0,0,.38-.32c.1.07,0,.25-.08.36a1.85,1.85,0,0,0-.11.42C12.43,6.41,12.35,6.3,12.29,6.24Z"/><path class="cls-8" d="M11.67,6.52a5,5,0,0,1-.54-.86,6,6,0,0,0,.54.81c0,.1.16.14.21.24S11.74,6.58,11.67,6.52Z"/><path class="cls-8" d="M16.52,6.48c.22-.24.36-.55.56-.81a7.69,7.69,0,0,1-.56.86l-.19.17C16.34,6.63,16.48,6.57,16.52,6.48Z"/><path class="cls-7" d="M10.79,5.73s0,.05,0,.08S10.8,5.76,10.79,5.73Z"/><path class="cls-6" d="M14.87,7.24c-.2-.06-.32-.25-.53-.33a1.83,1.83,0,0,0-.24,0,.53.53,0,0,1-.33-.25c-.25-.06-.37-.25-.6-.34-.22.1-.31.33-.5.46a2.28,2.28,0,0,1,.09-.53,2.31,2.31,0,0,1,.94-.43s-.06,0-.05.07a1.5,1.5,0,0,1,.2,0c0,.07-.07.1-.09.16s.12-.07.19-.08,0,.11,0,.19S14,6,14,5.94s0,.14.07.2,0-.14.07-.2.08.12.13.16a1.25,1.25,0,0,0,0-.2c.07,0,.11.08.19.09s-.08-.1-.09-.17a.76.76,0,0,1,.18,0s0-.06,0-.05a1.81,1.81,0,0,1,.91.41,2.76,2.76,0,0,1,.09,1C15.29,7,15.07,7.18,14.87,7.24Z"/><path class="cls-5" d="M15.05,5.78s0,0,0,.05h0S15,5.8,15.05,5.78Z"/><path class="cls-7" d="M17.37,5.83s0,0,0,.05S17.36,5.87,17.37,5.83Z"/><path class="cls-6" d="M10.85,5.87s0,.05,0,.08S10.85,5.9,10.85,5.87Z"/><path class="cls-7" d="M10.79,5.91s0,.09,0,.07Z"/><path class="cls-7" d="M17.37,5.91h0s0,.07,0,.07S17.37,5.94,17.37,5.91Z"/><path class="cls-7" d="M12.14,5.93s0,0-.05,0S12.11,5.92,12.14,5.93Z"/><path class="cls-6" d="M12.29,6v.24a1.43,1.43,0,0,0-.15-.11V6A.36.36,0,0,0,12.27,6S12.29,6,12.29,6Z"/><path class="cls-6" d="M17.31,6s0,0,0,.07S17.29,6.05,17.31,6Z"/><path class="cls-7" d="M10.78,6.06s.06,0,.05,0S10.77,6.1,10.78,6.06Z"/><path class="cls-6" d="M10.86,6.11h0a1.66,1.66,0,0,1,.07.24s-.06.07-.12,0A.94.94,0,0,1,10.86,6.11Z"/><path class="cls-6" d="M17.3,6.11c.07,0,0,.18.05.28C17.18,6.44,17.25,6.2,17.3,6.11Z"/><path class="cls-7" d="M10.83,6.12c0,.07,0,.2,0,.26s-.06,0-.09,0S10.72,6.14,10.83,6.12Z"/><path class="cls-7" d="M17.37,6.12h0c.06,0,.05.16.09.23s0,0-.09,0A1,1,0,0,1,17.37,6.12Z"/><path class="cls-4" d="M11.68,6.14s0,.12,0,.15S11.65,6.16,11.68,6.14Z"/><path class="cls-8" d="M16.52,6.83A3.2,3.2,0,0,0,17,6.15c-.07.27-.32.48-.45.74-.14.09-.2.26-.38.3A1.33,1.33,0,0,0,16.52,6.83Z"/><path class="cls-8" d="M11.65,6.87c-.16-.23-.31-.45-.46-.69.05,0,.09.08.12.13a3.35,3.35,0,0,0,.34.5A1.77,1.77,0,0,0,12,7.2C11.86,7.14,11.78,7,11.65,6.87Z"/><path class="cls-7" d="M12.21,6.23a1.13,1.13,0,0,1,.28.26,2.41,2.41,0,0,0,.85,2.35c.07,0,.2.06.21.17a4.66,4.66,0,0,1-.73,0c-.07,0,0,.08-.08.07s0,0,0,0,0,0,0-.05.13-.1.25-.09a.39.39,0,0,0-.48-.29,3.64,3.64,0,0,1-.24-1.19s0-.12,0-.15v0s0-.09,0-.13Z"/><path class="cls-4" d="M16.51,6.23s0,.09,0,.13S16.52,6.27,16.51,6.23Z"/><path class="cls-8" d="M16,6.31c0,.06,0,.16,0,.2S15.95,6.35,16,6.31Z"/><path class="cls-4" d="M17.37,6.4V7A3,3,0,0,1,17.37,6.4Z"/><path class="cls-4" d="M11.67,6.59c0,.05,0,.14,0,.17S11.64,6.62,11.67,6.59Z"/><path class="cls-4" d="M16,6.72c0,.05,0,.16,0,.24S16,6.8,16,6.72Z"/><path class="cls-4" d="M12.51,6.73s0,.12,0,.15S12.48,6.76,12.51,6.73Z"/><path class="cls-4" d="M12.62,6.75s0,.12,0,.15S12.59,6.77,12.62,6.75Z"/><path class="cls-4" d="M15.67,6.75s0,.1,0,.15S15.68,6.79,15.67,6.75Z"/><path class="cls-4" d="M15.57,6.76s0,.09,0,.13S15.58,6.8,15.57,6.76Z"/><path class="cls-4" d="M15.58,6.94s0,.11,0,.13S15.55,7,15.58,6.94Z"/><path class="cls-4" d="M12.5,7s0,.1,0,.14S12.51,7,12.5,7Z"/><path class="cls-4" d="M12.61,7s0,.1,0,.14S12.61,7,12.61,7Z"/><path class="cls-4" d="M15.69,7s0,.11,0,.13S15.66,7,15.69,7Z"/><path class="cls-8" d="M12.21,7.15s0,.11,0,.13S12.18,7.16,12.21,7.15Z"/><path class="cls-9" d="M15.15,7.17c.13,0,.21,0,.32,0h0a1.13,1.13,0,0,1-.08.42c-.31-.06-.59-.16-.91-.21C14.67,7.28,15,7.27,15.15,7.17Z"/><path class="cls-8" d="M12.2,7.32s0,.1,0,.15S12.2,7.36,12.2,7.32Z"/><path class="cls-8" d="M11.36,7.9a4.47,4.47,0,0,1-.29-.45c.19.24.33.54.61.69-.06,0-.13-.07-.19-.11A.61.61,0,0,0,11.36,7.9Z"/><path class="cls-8" d="M17.1,7.45s0,0,0,0c-.17.25-.31.55-.61.68A1.89,1.89,0,0,0,17.1,7.45Z"/><path class="cls-5" d="M14,7.47s.07,0,.07,0H14S14.05,7.52,14,7.47Z"/><path class="cls-5" d="M13.39,7.67l.13-.05s0,0,0,0A.2.2,0,0,1,13.39,7.67Z"/><path class="cls-6" d="M14.43,8c0,.06,0,.16,0,.22s0-.09-.08-.08,0,0,.05,0S14.42,8,14.43,8Z"/><path class="cls-6" d="M14.6,8.14h.05S14.58,8.2,14.6,8.14Z"/><path class="cls-5" d="M14.23,8.16s-.05.07-.08,0v0Z"/><path class="cls-5" d="M13.74,9c-.07,0,.08-.12.07-.23a1.68,1.68,0,0,0,.59,0c0,.1,0,.2.13.21s-.12,0-.16,0h-.64Z"/><path class="cls-5" d="M14.47,8.9s.07.08.16.08S14.48,9,14.47,8.9Z"/><path class="cls-5" d="M13.72,8.92s-.13.15-.15.07A.14.14,0,0,0,13.72,8.92Z"/><path class="cls-4" d="M13.74,9h.17A.24.24,0,0,1,13.74,9Z"/><path class="cls-4" d="M14,9h.36A1,1,0,0,1,14,9Z"/><path class="cls-5" d="M14,9.06v.51c-.09,0-.05-.14-.05-.24V9.06H14Z"/><path class="cls-4" d="M14,9.06a2,2,0,0,1,0,.51Z"/><path class="cls-4" d="M12.8,9.07H13S12.81,9.12,12.8,9.07Z"/><path class="cls-4" d="M13.19,9.09s-.1,0-.14,0S13.16,9.07,13.19,9.09Z"/><path class="cls-4" d="M13.29,9.09a1.54,1.54,0,0,1,.32,0C13.56,9.13,13.37,9.1,13.29,9.09Z"/><path class="cls-4" d="M13.91,9.1h-.2S13.9,9.06,13.91,9.1Z"/><path class="cls-4" d="M14,9.07s.13,0,.13,0S14,9.13,14,9.07Z"/><path class="cls-4" d="M14.4,9.09s-.08,0-.12,0S14.39,9.08,14.4,9.09Z"/><path class="cls-4" d="M14.51,9.09a1.54,1.54,0,0,1,.32,0C14.77,9.13,14.59,9.1,14.51,9.09Z"/><path class="cls-4" d="M15.09,9.1h-.16S15.09,9.06,15.09,9.1Z"/><path class="cls-4" d="M15.18,9.07s.13,0,.13,0S15.18,9.13,15.18,9.07Z"/><path class="cls-6" d="M12.24,9.2a.39.39,0,0,1-.09-.11c.07.06.23,0,.23.16S12.28,9.21,12.24,9.2Z"/><path class="cls-4" d="M12.78,9.13s.15,0,.16,0h-.16Z"/><path class="cls-4" d="M13.24,9.14s-.14,0-.21,0S13.2,9.13,13.24,9.14Z"/><path class="cls-4" d="M13.35,9.14s.14,0,.2,0S13.38,9.15,13.35,9.14Z"/><path class="cls-4" d="M13.91,9.15h-.24S13.89,9.11,13.91,9.15Z"/><path class="cls-4" d="M14,9.13s.13,0,.13,0S14,9.18,14,9.13Z"/><path class="cls-4" d="M14.44,9.14s-.11,0-.16,0S14.42,9.13,14.44,9.14Z"/><path class="cls-4" d="M14.58,9.13h.2S14.59,9.17,14.58,9.13Z"/><path class="cls-4" d="M15.12,9.14c-.05,0-.16,0-.24,0S15.07,9.13,15.12,9.14Z"/><path class="cls-4" d="M15.2,9.13s.14,0,.15,0S15.2,9.18,15.2,9.13Z"/><path class="cls-4" d="M12.75,9.2h.19S12.76,9.24,12.75,9.2Z"/><path class="cls-4" d="M13.31,9.21a1.1,1.1,0,0,1-.29,0S13.24,9.19,13.31,9.21Z"/><path class="cls-4" d="M13.49,9.2s0,0-.08,0S13.47,9.2,13.49,9.2Z"/><path class="cls-4" d="M13.91,9.2c-.05.06-.21,0-.3,0S13.82,9.21,13.91,9.2Z"/><path class="cls-4" d="M14,9.2s.13,0,.13,0S14,9.25,14,9.2Z"/><path class="cls-4" d="M14.51,9.21s-.15,0-.22,0S14.47,9.2,14.51,9.21Z"/><path class="cls-4" d="M14.63,9.21s.1,0,.08,0A.11.11,0,0,1,14.63,9.21Z"/><path class="cls-4" d="M15.12,9.2c-.05.06-.21,0-.3,0S15,9.21,15.12,9.2Z"/><path class="cls-4" d="M15.21,9.2s.15,0,.16,0h-.16Z"/><path class="cls-4" d="M12.72,9.25h.2c0,.06-.14,0-.2,0Z"/><path class="cls-4" d="M13,9.25a1.81,1.81,0,0,1,.34,0C13.28,9.27,13.07,9.3,13,9.25Z"/><path class="cls-4" d="M13.91,9.25c-.06.06-.24,0-.34,0C13.64,9.21,13.81,9.26,13.91,9.25Z"/><path class="cls-4" d="M14,9.25s.13,0,.13,0S14,9.3,14,9.25Z"/><path class="cls-4" d="M14.55,9.26c-.06,0-.18,0-.26,0S14.49,9.25,14.55,9.26Z"/><path class="cls-4" d="M14.77,9.25h.36v0C15,9.26,14.84,9.31,14.77,9.25Z"/><path class="cls-4" d="M15.22,9.25h.17v0h-.17Z"/><path class="cls-5" d="M12.65,9.27h.05s0,.07,0,.08S12.65,9.3,12.65,9.27Z"/><path class="cls-5" d="M15.42,9.29a1.82,1.82,0,0,1,.6,0c0,.09-.17.05-.27.05h-.32S15.45,9.29,15.42,9.29Z"/><path class="cls-4" d="M12.92,9.31c0,.06-.15,0-.21,0S12.86,9.33,12.92,9.31Z"/><path class="cls-4" d="M13.37,9.31c-.07.06-.24,0-.36,0C13.08,9.28,13.26,9.33,13.37,9.31Z"/><path class="cls-4" d="M13.52,9.33a.79.79,0,0,1,.4,0A2.42,2.42,0,0,1,13.52,9.33Z"/><path class="cls-4" d="M14,9.31s.13,0,.13,0S14,9.37,14,9.31Z"/><path class="cls-4" d="M14.6,9.31c-.06.06-.22,0-.32,0C14.34,9.28,14.5,9.33,14.6,9.31Z"/><path class="cls-4" d="M14.75,9.33a.76.76,0,0,1,.38,0A2.07,2.07,0,0,1,14.75,9.33Z"/><path class="cls-4" d="M15.41,9.31v0h-.19C15.24,9.28,15.35,9.33,15.41,9.31Z"/><path class="cls-4" d="M12.72,9.37h.2c0,.06-.14,0-.2,0Z"/><path class="cls-4" d="M13.32,9.37c-.05.06-.21,0-.31,0S13.23,9.38,13.32,9.37Z"/><path class="cls-4" d="M13.57,9.38c.08,0,.29,0,.34,0A1.67,1.67,0,0,1,13.57,9.38Z"/><path class="cls-4" d="M14,9.37s.13,0,.13,0S14,9.42,14,9.37Z"/><path class="cls-4" d="M14.29,9.37h.26A.29.29,0,0,1,14.29,9.37Z"/><path class="cls-4" d="M14.8,9.38c.08,0,.28,0,.33,0A1.54,1.54,0,0,1,14.8,9.38Z"/><path class="cls-4" d="M15.22,9.37h.17v0h-.17Z"/><path class="cls-6" d="M15.54,9.43a1,1,0,0,1-.15,0c0-.06,0,0,0-.09A1,1,0,0,0,15.54,9.43Z"/><path class="cls-6" d="M15.64,9.38s0,0,0,0-.06,0-.11,0S15.59,9.39,15.64,9.38Z"/><path class="cls-6" d="M12.65,9.43s.08,0,.08,0v0A.1.1,0,0,1,12.65,9.43Z"/><path class="cls-4" d="M12.75,9.45s.12,0,.17,0S12.78,9.46,12.75,9.45Z"/><path class="cls-4" d="M13,9.43h.25S13,9.48,13,9.43Z"/><path class="cls-4" d="M13.52,9.46H13.4S13.52,9.41,13.52,9.46Z"/><path class="cls-4" d="M13.64,9.45c.06,0,.24,0,.28,0A1.08,1.08,0,0,1,13.64,9.45Z"/><path class="cls-4" d="M14,9.43s.13,0,.13,0S14,9.49,14,9.43Z"/><path class="cls-4" d="M14.29,9.43h.21S14.3,9.48,14.29,9.43Z"/><path class="cls-4" d="M14.72,9.45s-.08,0-.12,0S14.71,9.43,14.72,9.45Z"/><path class="cls-4" d="M15.13,9.43c0,.07-.32,0-.24,0Z"/><path class="cls-4" d="M15.22,9.43s.14,0,.15,0S15.23,9.49,15.22,9.43Z"/><path class="cls-4" d="M12.78,9.48s.15,0,.16,0h-.16Z"/><path class="cls-4" d="M13,9.48h.19S13,9.53,13,9.48Z"/><path class="cls-4" d="M13.57,9.5s-.14,0-.21,0S13.53,9.49,13.57,9.5Z"/><path class="cls-4" d="M13.68,9.5c.05,0,.16,0,.24,0S13.73,9.51,13.68,9.5Z"/><path class="cls-4" d="M14,9.48s.13,0,.13,0S14,9.54,14,9.48Z"/><path class="cls-4" d="M14.29,9.48h.16S14.29,9.53,14.29,9.48Z"/><path class="cls-4" d="M14.76,9.5s-.14,0-.21,0S14.72,9.49,14.76,9.5Z"/><path class="cls-4" d="M14.91,9.5s.15,0,.21,0S14.95,9.51,14.91,9.5Z"/><path class="cls-4" d="M15.21,9.48s.13,0,.13,0S15.21,9.54,15.21,9.48Z"/><path class="cls-4" d="M12.8,9.54s.14,0,.15,0S12.81,9.59,12.8,9.54Z"/><path class="cls-4" d="M13,9.54h.12S13,9.59,13,9.54Z"/><path class="cls-4" d="M13.62,9.55a1.41,1.41,0,0,1-.32,0C13.36,9.51,13.55,9.54,13.62,9.55Z"/><path class="cls-4" d="M13.73,9.55s.13,0,.18,0S13.76,9.56,13.73,9.55Z"/><path class="cls-4" d="M14,9.54s.13,0,.13,0S14,9.59,14,9.54Z"/><path class="cls-4" d="M14.39,9.54s-.07,0-.11,0S14.36,9.55,14.39,9.54Z"/><path class="cls-4" d="M14.81,9.55a1.4,1.4,0,0,1-.32,0C14.55,9.51,14.74,9.54,14.81,9.55Z"/><path class="cls-4" d="M15,9.55s.1,0,.15,0S15,9.56,15,9.55Z"/><path class="cls-4" d="M15.32,9.56H15.2S15.33,9.52,15.32,9.56Z"/><path class="cls-4" d="M13.27,9.6a.8.8,0,0,1,.33,0Z"/><path class="cls-6" d="M13.62,9.6a.43.43,0,0,0,.22,0,5.56,5.56,0,0,1-.12,1.22.46.46,0,0,0-.25-.05c-.11,0-.18.15-.29.16,0-.17.06-.31.07-.46a1,1,0,0,1,.24-.11A1.78,1.78,0,0,0,13.62,9.6Z"/><path class="cls-7" d="M14.06,9.6v1.53a.67.67,0,0,1-.61,0c.44-.21.4-.89.42-1.52C13.88,9.57,14,9.62,14.06,9.6Z"/><path class="cls-7" d="M14.27,9.6c.05.6,0,1.35.42,1.55a.61.61,0,0,1-.61,0V9.6Z"/><path class="cls-6" d="M14.31,9.6c.08,0,.11,0,.21,0,0,.38,0,.81.37.85,0,.16.11.3.07.48-.13-.06-.35-.26-.52-.09A4.53,4.53,0,0,1,14.31,9.6Z"/><path class="cls-6" d="M13.69,10.85c-.06.13-.12.25-.28.28C13.44,11,13.49,10.69,13.69,10.85Z"/><path class="cls-6" d="M14.64,10.8a1.61,1.61,0,0,1,.09.33c-.16,0-.2-.16-.28-.25A.18.18,0,0,1,14.64,10.8Z"/><path class="cls-6" d="M14.32,11.26h-.5a.57.57,0,0,1,.5,0Z"/><path class="cls-8" d="M14.35,4.58c0,.17.19.17.32.22s0,.09,0,.12a2.18,2.18,0,0,1,.74.73c.07,0,0-.1,0-.14s.06.09.12.05-.07-.11-.08-.17.11.17.17.08-.1-.2-.13-.3c.08.06.14.21.22.22,0-.16-.16-.3-.2-.46.12.11.19.26.3.37a3.2,3.2,0,0,0-.28-.62c.09.11.17.24.26.36-.07-.18-.17-.33-.24-.5a5.6,5.6,0,0,1,.41.62,7.7,7.7,0,0,0-.3-.81c.07.11.16.23.23.36s.11.3.2.36c.07-.13-.1-.31-.08-.44a2.65,2.65,0,0,0,.17.37c.06-.09-.08-.24,0-.34,0,.11.08.17.09.28a2.4,2.4,0,0,0,.36-.28c-.08,0-.17,0-.2-.07s0-.26.2-.28.05.21.15.25,0-.14,0-.23.13-.15.17-.19,0,.17,0,.23a.71.71,0,0,1,.62-.42.75.75,0,0,1-.52.54c.07,0,.19,0,.22,0a.27.27,0,0,1-.37.07c-.24.09-.15.36-.13.65,0,0,0,.11,0,.13s0,.11,0,.12.29-.22.42-.34c-.08,0-.17,0-.2-.07s0-.26.19-.28.07.2.15.25.11-.06.11-.16-.13,0-.13-.08.15-.16.27-.2,0,.15,0,.18.1-.16.19-.22a1.83,1.83,0,0,1,.49-.17c-.11.15-.14.36-.32.45s-.18,0-.21.12.19,0,.32,0c.14.25-.25.54-.46.4,0-.09.1-.19,0-.28s-.27.08-.3.2a2.57,2.57,0,0,0,0,.45,2.59,2.59,0,0,0,.08.66c-.05,0-.07,0-.13,0a3,3,0,0,0,0,.62,5.83,5.83,0,0,1-.25,2.34,6.15,6.15,0,0,1,1.2,1.14,6,6,0,0,1-1.27-1,1.3,1.3,0,0,1-.42.43,6.32,6.32,0,0,1,1.3,1.2A7.87,7.87,0,0,1,16.49,10,1.65,1.65,0,0,1,15,9.7c0,.23.22.4.2.66-.09.05-.19-.07-.26,0a.17.17,0,0,1,0,.13s-.12,0-.07,0,.13.34,0,.46-.17-.12-.29-.15a1.49,1.49,0,0,1,.09.34.72.72,0,0,1-.25.11h-.2a.57.57,0,0,0-.5,0h-.2c-.09,0-.2,0-.25-.12a2.55,2.55,0,0,1,.09-.32c-.1,0-.17.17-.3.12a.85.85,0,0,1,.07-.45c-.1,0-.08-.11,0-.19s-.18.11-.26,0c0-.23.14-.39.19-.61a1.66,1.66,0,0,1-1.4.26,6.64,6.64,0,0,1-1.38,1.1,7.13,7.13,0,0,1,1.24-1.17,1.52,1.52,0,0,1-.44-.42,4.47,4.47,0,0,1-1.2.93,5.07,5.07,0,0,1,.74-.75c.09,0,.16-.09.22-.15s.16-.09.17-.16A6,6,0,0,1,10.83,7V6.42s-.13,0-.15-.05a6.05,6.05,0,0,0,.13-1.09c-.09-.07-.16-.18-.32-.19s0,.17,0,.29c-.18.18-.66-.29-.45-.41s.25.11.32,0-.18-.06-.27-.12-.18-.3-.25-.42a.84.84,0,0,1,.65.4s0-.18.05-.19a.61.61,0,0,1,.25.21c0,.07-.14,0-.13.08a.17.17,0,0,0,.13.13c.05-.07,0-.21.13-.25s.15.14.19.29-.14,0-.2.07c.15.11.28.23.44.33a7.23,7.23,0,0,1,.05-.79c0-.06,0-.07,0-.11s0,0,0,0,.06-.23.16-.26.15.16.19.28-.14,0-.2.08c.25.18.48.4.74.57.18-.2-.06-.64.09-.89a1.3,1.3,0,0,0,.05.27.59.59,0,0,1,.16-.33c0,.12,0,.28-.05.4s.14-.12.19-.11c-.08.29-.33.42-.42.69.11-.07.24-.24.41-.29s0-.09,0-.12.17-.21.32-.2a.49.49,0,0,1,.13-.36s0,.09,0,.12.06-.11.13-.13-.08.11-.05.16c.06-.12.21-.2.25-.29s-.15,0-.22,0,0,.07-.05.08-.11-.08-.12-.16c-.17.09-.17-.12-.34-.11s-.15.16-.24.13S12.51,4,12.5,3.9a.21.21,0,0,1-.17,0s0-.11,0-.15-.16,0-.16-.05a.11.11,0,0,1-.19-.05.22.22,0,0,1-.17.11c-.05,0,0-.06-.07-.09s-.26.08-.36.15-.08-.07-.19,0-.11-.06-.13-.09,0-.07,0-.08-.22.17-.34.08A3,3,0,0,1,13,2.79a1.55,1.55,0,0,1,.56.08c.26.13.13.44.16.67a1.25,1.25,0,0,1,.85,0c.08-.11,0-.21,0-.3,0-.4.42-.43.75-.45h.25a2.79,2.79,0,0,1,2,1c-.15.06-.24-.1-.34-.09s-.12.09-.15.17-.09,0-.19,0-.27-.07-.36-.15c0,.18-.19,0-.24,0,0,.11-.14.11-.19.05,0,.11-.12.09-.16.05a.16.16,0,0,1,0,.15.27.27,0,0,1-.17,0,.13.13,0,0,1-.07.17c-.12,0-.13-.14-.24-.15s-.18.17-.33.11c0,0,0,.07,0,.07s-.11,0-.16,0,0,.12-.12.11a.42.42,0,0,1-.28.4S14.37,4.55,14.35,4.58Zm2.5-.08c0,.06-.13.08-.11.2s.1-.1.17-.12S16.88,4.52,16.85,4.5Zm-4-1.6c.11,0,.16,0,.29,0s.16.09.22.15,0,.11.08.11c0-.2-.2-.29-.38-.3a3,3,0,0,0-1.69.38,3.1,3.1,0,0,1,1.35-.33Zm2.57,0a2.63,2.63,0,0,1,1.06.21.86.86,0,0,0,.29.11A3.08,3.08,0,0,0,15,2.86c-.07,0-.1.08-.17.11s-.1.12-.07.18.06-.07.09-.11a.54.54,0,0,1,.5-.15ZM14,3.69s0,.11,0,.11,0-.07,0-.07-.09,0-.08.08.37.11.32.32c-.09,0-.13.1-.21.15s.05,0,0-.08-.22-.06-.3,0,0,.17.11.2.16,0,.28.05S14,4.34,14,4.33h.11s0,0,0,.07a.21.21,0,0,0,.12,0c0-.05-.13-.07-.08-.15,0,.12.16.15.25.08s0,0,0-.05.11-.14.15-.28-.05.06-.08,0,0,0,.05,0,0-.06,0-.08-.08,0-.13,0,0,0,.08,0c0-.18-.27,0-.3,0s.1,0,.08-.13-.05,0-.08,0S14.05,3.69,14,3.69Zm-.34.11c-.17,0-.22.07-.28.17a.28.28,0,0,1,0,.11c.19.14.47-.05.65.09C14.34,4.05,13.88,3.81,13.65,3.8Zm-.38.34c0-.05.07,0,.11-.07C13.38,3.88,13.16,4.05,13.27,4.14Zm-1.77.38c.06,0,.05-.13.11-.17s.05.05.09.07-.06-.09-.13-.09A1.31,1.31,0,0,0,11.49,4.52Zm5-.11s0-.07.11-.07,0,.14.11.17a1.16,1.16,0,0,1-.07-.2A.13.13,0,0,0,16.49,4.42Zm-4.89,0s-.06.1,0,.12.07-.06.09-.09S11.64,4.37,11.6,4.38Zm5,.09s0-.06,0-.09,0,0-.05,0S16.58,4.48,16.63,4.47Zm-6.71,0c.08.12.1.27.21.36s.25,0,.29.16-.27,0-.37.07a.39.39,0,0,0,.45.36c0-.14-.13-.28,0-.32s.22.18.32.15-.16-.18-.16-.33.12,0,.13-.08-.14-.12-.23-.17,0,.18-.07.2A.73.73,0,0,0,9.92,4.44Zm1.56.12c.1,0,.13-.07.2-.09a.08.08,0,0,1,0,.13s0,0,.07,0C11.74,4.33,11.57,4.5,11.48,4.56Zm5,0s0,.06.07,0,0-.11,0-.12.11.12.19.08C16.6,4.5,16.47,4.34,16.44,4.56Zm1.64.21c.1-.09.11-.23.2-.34-.19.07-.38.07-.49.21s0,.16-.15.17,0-.14,0-.19a.92.92,0,0,0-.24.19s.12,0,.13.05-.08.14-.12.18,0,.07,0,.05,0,.07,0,.12.19-.2.3-.17,0,.19,0,.3c.19.1.58-.2.4-.38-.08,0-.31.1-.3-.05S18,4.85,18.08,4.78Zm-6.43-.2h0a.09.09,0,0,0,0-.07c-.05,0-.06.06-.11.07S11.62,4.61,11.65,4.58Zm5,0c-.05,0-.06-.06-.12-.07s0,.07,0,.08S16.73,4.59,16.63,4.56Zm-2.35,0c0,.06,0,.14,0,.17s.18,0,.22,0-.18-.06-.16-.19Zm0,0c0,.07-.15.07-.23,0a.2.2,0,0,0,.27.07S14.27,4.61,14.23,4.59Zm-.41.09c.06,0,.07,0,.07-.08A.07.07,0,0,0,13.82,4.68Zm-.07.07a2,2,0,0,0,.33,0,.21.21,0,0,1-.11,0c0-.07,0-.09-.08-.08s0,.1,0,.09S13.7,4.69,13.76,4.75Zm-1.92.16a3,3,0,0,0-.33-.26c0,.42-.14,1.07.29,1.11,0,0,0,0,0,0s.17.18.24.17.07-.34.15-.47a1.43,1.43,0,0,1-.38-.07.74.74,0,0,1-.26-.17,2.49,2.49,0,0,1,.28,0s.07,0,.08,0-.05-.05-.08-.08-.08-.11-.09-.19,0,0,.09,0a1.56,1.56,0,0,1,.33.25s0,0,.07,0A2.91,2.91,0,0,0,11.84,4.91Zm.86.17c.11-.18.46-.18.45-.44A1.44,1.44,0,0,0,12.7,5.08Zm4-.09c0-.12,0-.26,0-.34-.12.07-.22.17-.33.25.05.18.11.36.17.53A2.48,2.48,0,0,1,16.48,5a6.16,6.16,0,0,0,.17.61,1.47,1.47,0,0,0,0-.41A.34.34,0,0,0,16.69,5Zm-3.06-.16c.11,0,.15.14.16.26a1.89,1.89,0,0,1,.62,0,.33.33,0,0,1,.16-.28A1.84,1.84,0,0,0,13.64,4.83ZM10.87,5c.06,0,.06-.13.11-.17s0,.06.11.05a.13.13,0,0,0-.15-.09C10.93,4.89,10.87,5,10.87,5Zm.61-.09s0-.14,0-.11S11.46,5,11.48,4.94Zm5.64,0s0-.06.09-.07.06.18.12.16,0-.13-.08-.19S17.13,4.84,17.12,4.91Zm-3.56,0,.16.07a.21.21,0,0,0-.15-.12S13.55,4.87,13.56,4.9ZM14.5,5s.17,0,.16-.12A.21.21,0,0,0,14.5,5ZM11,5s.05,0,.07-.08,0,0-.05,0S10.93,4.95,11,5Zm6.2-.09c0,.06.08.1.09.09s0-.09-.07-.11ZM16.73,5s0-.16,0-.13S16.71,5.06,16.73,5Zm-5.86,0C11,5.06,11,5,11.08,5s0,.1,0,.12,0-.16,0-.17S10.89,5,10.87,5.07Zm2.21.13c0-.07,0-.18,0-.28v0c-.09.07-.17.17-.28.24s-.25.09-.32.19a.32.32,0,0,0,.17.16c.05,0,.09-.07.16-.08s-.09.09-.11.16,0,0,.07,0C12.8,5.48,13,5.34,13.08,5.2Zm3.28-.09v.05s.13.4.09.18A3.94,3.94,0,0,0,16.35,5v0C16.25,4.94,16.34,5.06,16.36,5.11ZM12.62,6.75A1.82,1.82,0,0,1,13.72,5c-.16-.22-.43.07-.57.2a2.35,2.35,0,0,0-.63,1.49s0,.1,0,.15V7s0,.12,0,.14a2.21,2.21,0,0,0,.85,1.68c.13.09.33.25.37,0a1.08,1.08,0,0,1-.44-.24,1.59,1.59,0,0,0-.2-.2,2.13,2.13,0,0,1-.48-1.27s0-.12,0-.14V6.89S12.61,6.79,12.62,6.75Zm4.45-1.68s.05,0,.07,0a.06.06,0,0,1,0-.11c.06,0,.11.1.17.07-.09,0-.1-.11-.21-.1S17.06,5,17.06,5.07ZM15,5.16c-.13-.08-.34-.33-.48-.12a1.86,1.86,0,0,1,1.07,1.72s0,.11,0,.13v.05s0,.09,0,.13a2.13,2.13,0,0,1-.48,1.3,1.65,1.65,0,0,0-.2.2,1.17,1.17,0,0,1-.42.24c0,.17.18.1.28,0a2.18,2.18,0,0,0,.93-1.76s0-.09,0-.13V6.89s0-.12,0-.15a2.43,2.43,0,0,0-.56-1.44A.88.88,0,0,0,15,5.16ZM11,5s-.09.06-.13.09a.38.38,0,0,0,.16,0S11.08,5,11,5Zm6.23.08c-.07,0-.09-.06-.15-.08S17.22,5.11,17.28,5.07Zm-1,.09s0-.14-.07-.16A.25.25,0,0,0,16.3,5.16Zm0,.41a2,2,0,0,0-.17-.5C16.13,5.21,16.28,5.41,16.32,5.57ZM13,5.79a1.71,1.71,0,0,1,.69-.29s0,0,0,0a.55.55,0,0,0,.17,0c0-.07-.07-.09-.08-.17s.12.08.19.11-.05-.14,0-.2.06.12.13.15a.56.56,0,0,1,0-.18s0,.12.05.18.08-.12.15-.15,0,.15,0,.2.13-.1.17-.09-.07.09-.08.16a.8.8,0,0,0,.18,0v0a2.33,2.33,0,0,1,.68.26,1.57,1.57,0,0,0-.77-.67s0,.06,0,0a1.68,1.68,0,0,0-.66,0s0-.07,0-.05A1.41,1.41,0,0,0,13,5.79Zm-2-.61h0l-.05,0a4.23,4.23,0,0,0,0,.86c0,.16.12.26,0,.38h0s0,0-.05,0a5,5,0,0,0,0,.86c0,.35,0,.7,0,.91,0,1,.36,1.79,1.19,1.85a1.61,1.61,0,0,0,1.1-.41h0s0,0,0,0a2.37,2.37,0,0,1-.33,0c0-.07,0-.09-.05-.13v0s-.08,0-.08,0-.05.1-.08.15,0,.08-.08.11a.75.75,0,0,0-.07-.09s0-.06,0-.11H12.1l-.15,0h0a1.38,1.38,0,0,1-.37-.2s0,0,0,0a1.65,1.65,0,0,1-.31-.45c.17.24.31.51.62.61a.88.88,0,0,0,.5,0s0,0,0-.07-.08,0-.09.05-.2-.07-.28-.13a.76.76,0,0,0,.25-.11s0,.07.13.05-.15-.1-.23-.16a2.78,2.78,0,0,1-.89-.71,1.44,1.44,0,0,0,.19.19,3.48,3.48,0,0,0,.62.46c.1,0,.2.12.3.11s-.2-.19-.33-.25a.4.4,0,0,1,.41-.23.39.39,0,0,1,.48.29c-.12,0-.23,0-.25.09a.22.22,0,0,0-.05.17s0,0,.05,0-.06,0-.05,0h.08c0-.06.08-.11,0-.16s0,0,0,0,0-.09.08-.07a4.66,4.66,0,0,0,.73,0c0-.11-.15-.13-.21-.17a2.41,2.41,0,0,1-.85-2.35,1.13,1.13,0,0,0-.28-.26c-.18-.15-.34-.31-.53-.45A6.73,6.73,0,0,0,11,5.19Zm6.31,0a7.07,7.07,0,0,0-.77.62c-.18.14-.35.29-.52.45a1.1,1.1,0,0,0-.28.25,2.38,2.38,0,0,1-.86,2.35c-.06,0-.19.07-.19.19.21,0,.43,0,.67,0a.34.34,0,0,1,0,.11h0s0,0,0,.05.33,0,.49,0,.13,0,.16,0,0,.1,0,.12h-.4s-.12,0-.15,0,.06,0,.11,0a1.13,1.13,0,0,0,.77,0,.21.21,0,0,0,.12-.07s0,0,.05,0c.19-.11.28-.34.42-.5a1.16,1.16,0,0,1-.7.66,1.75,1.75,0,0,1-.71,0,1,1,0,0,1-.12-.05c0,.05,0,0,0,.09s0,0,0,0,0,0,0,.11a1.61,1.61,0,0,1-.29,0h0a1,1,0,0,0,.34.26,1.37,1.37,0,0,0,.77.19c1.45-.12,1.22-2.11,1.18-3.63h0c-.11-.07,0-.2,0-.32a5.14,5.14,0,0,0,0-.93S17.27,5.14,17.26,5.17Zm-4.74.07s.05,0,.07,0S12.53,5.2,12.53,5.24Zm-.07,0s.08,0,0,0S12.46,5.25,12.46,5.27ZM14,5.41l-.11-.15c0,.07,0,.12,0,.19s-.12-.1-.17-.08a.32.32,0,0,1,.09.14c-.06,0-.14,0-.17,0a.74.74,0,0,1,.15.11c-.06,0-.14,0-.19.05s.15,0,.19.05a.54.54,0,0,0-.15.09c.07,0,.13,0,.17,0a.87.87,0,0,0-.08.13c.07,0,.09-.06.16-.08s0,.13,0,.17a.74.74,0,0,1,.11-.15.58.58,0,0,0,.05.18c0-.06,0-.14.05-.18a.56.56,0,0,0,.11.15c0-.06,0-.13,0-.17s.1.09.14.07a.64.64,0,0,1-.08-.13c.07,0,.15,0,.19,0l-.16-.11c.06,0,.14,0,.19-.05s-.14,0-.19-.05l.16-.11c-.06,0-.14,0-.19,0l.09-.15c-.06,0-.13.1-.17.08s0-.13,0-.17a.37.37,0,0,1-.11.15.65.65,0,0,0-.05-.17C14.08,5.29,14.09,5.38,14,5.41Zm2.74-.09s0-.09,0-.08S16.74,5.33,16.79,5.32Zm-4.34-.05s-.06,0-.07.05S12.44,5.31,12.45,5.27Zm4.89.15s0-.15,0-.12S17.32,5.44,17.34,5.41ZM16,5.44s0-.08-.07-.11S15.93,5.46,16,5.44ZM12.3,5.38c0-.1,0,.06,0,.08h0a.37.37,0,0,0,0,.19c0-.08.07-.12.09-.2a.18.18,0,0,0,.08-.12s0,0-.07,0S12.32,5.38,12.3,5.38Zm-.9,0c.06,0,0-.07,0-.07S11.4,5.37,11.4,5.4Zm-.54.12s0-.16,0-.13S10.83,5.54,10.86,5.52Zm4.88-.09c.05.06.09.13.14.19a.42.42,0,0,0-.11-.24S15.75,5.4,15.74,5.42Zm1,0s0-.09,0-.08S16.69,5.48,16.73,5.46Zm-4.39.3a1,1,0,0,1,.25-.21.84.84,0,0,0-.15-.15C12.43,5.54,12.35,5.68,12.34,5.77Zm-.91-.28s0,0,0-.07h0S11.38,5.5,11.43,5.49Zm5.33,0s0-.09,0-.07Zm-1.06,0c-.23,0,.21.32.2.38A3.29,3.29,0,0,0,15.7,5.46Zm-2.08.07c-.36.07-.83.29-.82.64a2.19,2.19,0,0,1,.86-.41s.11,0,.13-.05-.16,0-.18-.05.16,0,.2-.07A.24.24,0,0,0,13.62,5.53Zm1.65.32s-.17-.12-.11,0a1.26,1.26,0,0,0-.66-.29l-.11.08c.05,0,.17,0,.2.07a.69.69,0,0,1-.19,0c.08.08.22.06.33.09a2.34,2.34,0,0,1,.65.36C15.34,6,15.34,5.92,15.28,5.85Zm.46-.05a2.41,2.41,0,0,0-.16-.24s0,0,0,0S15.73,5.77,15.74,5.79ZM16,5.73c.05,0,0-.1-.05-.13S15.95,5.67,16,5.73ZM12.29,6s0,0,0,0a.36.36,0,0,1-.13.07v.11a1.43,1.43,0,0,1,.15.11c.06.06.14.16.21.17A1.85,1.85,0,0,1,12.61,6c0-.11.18-.28.08-.36A2,2,0,0,1,12.3,6S12.31,6,12.29,6Zm3.58.15s0-.07-.05-.11-.22-.29-.29-.42a.1.1,0,0,0-.08.08,2.12,2.12,0,0,1,.24.73c.08,0,.12-.1.19-.15-.1-.17-.23-.31-.34-.46A3,3,0,0,1,15.87,6.15Zm-5.05-.34s0-.09,0-.08S10.77,5.82,10.82,5.81Zm4.64,1.36a.3.3,0,0,0-.32,0c-.19.1-.48.11-.65.22.32.06.6.15.91.21a1.13,1.13,0,0,0,.08-.42Zm.05,0a2.76,2.76,0,0,0-.09-1,1.81,1.81,0,0,0-.91-.41s.07,0,0,.05a.76.76,0,0,0-.18,0c0,.07.08.1.09.17s-.11-.07-.19-.09a1.25,1.25,0,0,1,0,.2c-.06,0-.08-.11-.13-.16s0,.16-.07.2,0-.16-.07-.2-.08.15-.12.15,0-.11,0-.19-.13.1-.19.08.07-.09.09-.16a1.5,1.5,0,0,0-.2,0s0,0,.05-.07a2.31,2.31,0,0,0-.94.43,2.28,2.28,0,0,0-.09.53c.19-.13.28-.37.5-.46.22.09.34.28.6.34a.53.53,0,0,0,.33.25,1.83,1.83,0,0,1,.24,0c.21.08.33.27.53.33S15.29,7,15.52,7.16Zm1.89-1.27s0-.06,0-.05S17.36,5.9,17.41,5.89ZM10.87,6s0-.09,0-.08S10.83,6,10.87,6Zm-.08,0s0-.09,0-.07Zm6.6,0s0,0,0-.07h0S17.35,6,17.39,6Zm-5.3,0s.06,0,.05,0S12.09,5.93,12.09,6Zm0,.11s0,0,0,0S12,6,12,6,12.09,6.12,12.12,6.07Zm5.23,0s0-.06,0-.07S17.29,6.11,17.34,6.1Zm-6.51,0s0,0-.05,0S10.8,6.1,10.83,6.1Zm0,.29c.06,0,.08,0,.12,0a1.66,1.66,0,0,0-.07-.24h0A.94.94,0,0,0,10.85,6.39Zm6.51,0c0-.1,0-.24-.05-.28S17.18,6.44,17.35,6.39Zm-6.64,0s.05,0,.09,0,0-.2,0-.26S10.75,6.29,10.71,6.38Zm6.68,0s.08,0,.09,0,0-.18-.09-.23h0A1,1,0,0,0,17.39,6.39ZM14.5,7c-.2-.18-.65-.11-.74-.4-.27,0-.36-.27-.61-.33-.09,0-.14.14-.21.2s-.14.21-.27.26a2.64,2.64,0,0,0,.15,1c.16,0,.24-.06.4-.09s.1,0,.17,0a.2.2,0,0,0,.12,0h0c0-.11.14,0,.24-.07s.12,0,.2-.05,0,0,0,0h.11s0,0-.07,0l-.09-.05a1.63,1.63,0,0,1-.26-.25s0,0,0,0,.07.15.2.13a5.83,5.83,0,0,0,.71,0l.22-.05a.11.11,0,0,0-.08-.07l-.07,0a1.57,1.57,0,0,1-.15-.11A0,0,0,0,0,14.5,7Zm-.4.46c0,.06-.09,0-.14,0a.74.74,0,0,1-.38.08c-.07.13-.27,0-.44.08s-.2.1-.3.08a1.51,1.51,0,0,0,.93,1,1.38,1.38,0,0,0,1.65-1.14c-.37,0-.69-.2-1-.21,0,0,.07,0,.09-.07a2,2,0,0,0-.64,0C13.91,7.39,14,7.44,14.1,7.5Zm-2,1.38c.5,0,.18.55.41.77.25-.17-.07-.76.4-.73C12.81,8.58,12.19,8.59,12.08,8.88Zm2.3.16s.12,0,.16,0-.12-.11-.13-.21a1.68,1.68,0,0,1-.59,0c0,.1-.14.19-.07.23a.24.24,0,0,0,.17,0H14A1,1,0,0,0,14.38,9ZM13.57,9c0,.09.18,0,.15-.07A.14.14,0,0,1,13.57,9Zm1.06,0c-.08,0-.11,0-.16-.08S14.61,9.06,14.63,9Zm-.93.08a.45.45,0,0,0-.23.22C13.56,9.27,13.64,9.14,13.7,9.06Zm.71,0c.08.06.14.2.22.21S14.48,9.05,14.42,9.07Zm.38.12s.12-.09.09-.15c-.17.19-.35.36-.52.56A2.6,2.6,0,0,0,14.8,9.2ZM13,9.58a3.4,3.4,0,0,1,0-.5A.58.58,0,0,0,13,9.58Zm.21-.51c.07.1.16.2.25.29a.79.79,0,0,0,.28.24C13.55,9.43,13.42,9.21,13.21,9.06Zm.78.51a2,2,0,0,0,0-.51h-.05v.28C13.94,9.44,13.91,9.58,14,9.58Zm.25-.51h0a1.35,1.35,0,0,0,0,.51C14.3,9.48,14.25,9.2,14.25,9.06Zm.89,0a3.8,3.8,0,0,1,0,.5A.6.6,0,0,0,15.13,9.07ZM13,9.07H12.8S13,9.11,13,9.07Zm.08,0s.12,0,.14,0S13,9.06,13,9.1Zm.57,0a1.54,1.54,0,0,0-.32,0C13.37,9.1,13.56,9.13,13.61,9.07Zm.11,0h.2S13.73,9.06,13.72,9.1Zm.45,0c0-.06-.09,0-.13,0S14.13,9.09,14.17,9.1Zm.12,0s.11,0,.12,0S14.28,9.05,14.29,9.1Zm.54,0a1.54,1.54,0,0,0-.32,0C14.59,9.1,14.77,9.13,14.83,9.07Zm.11,0h.16S14.94,9.06,14.93,9.1Zm.38,0c0-.06-.09,0-.13,0S15.28,9.09,15.32,9.1Zm-2.54.05h.16c0-.06-.11,0-.16,0Zm.25,0c.07,0,.17,0,.21,0S13.05,9.11,13,9.15Zm.52,0c-.06,0-.16,0-.2,0S13.53,9.18,13.54,9.13Zm.13,0h.24S13.7,9.11,13.68,9.15Zm.49,0c0-.05-.09,0-.13,0S14.13,9.14,14.17,9.15Zm.12,0s.13,0,.16,0S14.29,9.1,14.29,9.15Zm.49,0h-.2S14.76,9.17,14.77,9.13Zm.11,0c.08,0,.19,0,.24,0S14.91,9.11,14.88,9.15Zm.46,0c0-.06-.1,0-.15,0S15.3,9.14,15.34,9.15Zm-2.41,0h-.19S12.93,9.23,12.94,9.2Zm.08,0a1.1,1.1,0,0,0,.29,0C13.24,9.19,13.06,9.17,13,9.22Zm.4,0s.08,0,.08,0S13.4,9.17,13.41,9.22Zm.2,0c.09,0,.25,0,.3,0S13.66,9.16,13.61,9.22Zm.56,0c0-.05-.09,0-.13,0S14.13,9.21,14.17,9.22Zm.12,0c.07,0,.18,0,.22,0S14.31,9.17,14.29,9.22Zm.42,0s-.08,0-.08,0A.11.11,0,0,0,14.71,9.22Zm.11,0c.09,0,.25,0,.3,0S14.87,9.16,14.81,9.22Zm.4,0h.16c0-.06-.11,0-.16,0Zm-2.86.13s0,0,0-.08-.12,0-.15-.05-.12.06-.17.09A.44.44,0,0,0,12.35,9.35Zm.37-.08c.06,0,.18,0,.2,0h-.2Zm.64,0a1.81,1.81,0,0,0-.34,0C13.07,9.3,13.28,9.27,13.36,9.26Zm.21,0c.11,0,.28,0,.34,0C13.81,9.26,13.64,9.21,13.57,9.27Zm.6,0c0-.05-.09,0-.13,0S14.13,9.26,14.17,9.27Zm.12,0c.08,0,.2,0,.26,0S14.32,9.22,14.29,9.27Zm.85,0v0h-.36C14.84,9.31,15,9.26,15.13,9.27Zm.09,0h.17v0h-.17Zm-2.55.08s0-.07,0-.08h-.05S12.62,9.37,12.67,9.35Zm2.76,0h.32c.09,0,.25,0,.27-.05a1.82,1.82,0,0,0-.6,0S15.43,9.33,15.44,9.35Zm-2.72,0c.06,0,.19,0,.21,0S12.73,9.28,12.71,9.34Zm.3,0c.11,0,.29,0,.36,0C13.26,9.33,13.08,9.28,13,9.34Zm.9,0a.79.79,0,0,0-.4,0A2.42,2.42,0,0,0,13.91,9.34Zm.25,0c0-.05-.09,0-.13,0S14.13,9.33,14.17,9.34Zm.12,0c.1,0,.26,0,.32,0C14.5,9.33,14.34,9.28,14.29,9.34Zm.85,0a.76.76,0,0,0-.38,0A2.07,2.07,0,0,0,15.13,9.34Zm.09,0h.19v0C15.35,9.33,15.24,9.28,15.22,9.34Zm-2.08.27h.08c.06-.1.2-.16.2-.28A2,2,0,0,0,13.15,9.6Zm1.55-.28c0,.11.14.18.2.28s.08,0,.08,0S14.81,9.39,14.7,9.33Zm-2,.07c.06,0,.18,0,.2,0h-.2Zm.29,0c.1,0,.25,0,.31,0S13.07,9.33,13,9.39Zm.9,0c-.06-.05-.26,0-.34,0A1.67,1.67,0,0,0,13.91,9.39Zm.25,0c0-.05-.09,0-.13,0S14.13,9.38,14.17,9.39Zm.38,0h-.26A.29.29,0,0,0,14.55,9.37Zm.58,0c-.05-.05-.26,0-.33,0A1.54,1.54,0,0,0,15.13,9.39Zm.09,0h.17v0h-.17Zm-2.3,0c-.05,0-.14,0-.17,0S12.92,9.48,12.92,9.43Zm.34,0H13S13.23,9.47,13.27,9.43Zm.13,0h.12S13.4,9.42,13.4,9.46Zm.77,0c0-.05-.09,0-.13,0S14.13,9.45,14.17,9.46Zm.33,0h-.21S14.47,9.47,14.5,9.43Zm.11,0s.1,0,.12,0S14.6,9.41,14.6,9.46Zm.29,0c-.08,0,.2.07.24,0Zm.48,0c0-.05-.1,0-.15,0S15.33,9.45,15.37,9.46Zm-2.59.05h.16c0-.06-.11,0-.16,0Zm.44,0H13S13.2,9.52,13.21,9.48Zm.15,0c.07,0,.17,0,.21,0S13.38,9.46,13.36,9.51Zm.56,0c-.07,0-.18,0-.24,0S13.89,9.54,13.91,9.48Zm.25,0c0-.05-.09,0-.13,0S14.13,9.5,14.17,9.51Zm.28,0h-.16S14.44,9.52,14.44,9.48Zm.11,0c.07,0,.17,0,.21,0S14.57,9.46,14.55,9.51Zm.57,0c-.07,0-.17,0-.21,0S15.1,9.54,15.12,9.48Zm.22,0c0-.05-.09,0-.13,0S15.3,9.5,15.34,9.51Zm-2.39.05c0-.06-.1,0-.15,0S12.91,9.55,12.95,9.56Zm.21,0H13S13.17,9.57,13.16,9.54Zm.15,0a1.41,1.41,0,0,0,.32,0C13.55,9.54,13.36,9.51,13.31,9.56Zm.61,0c-.06,0-.15,0-.18,0S13.9,9.59,13.91,9.54Zm.25,0c0-.05-.09,0-.13,0S14.13,9.55,14.17,9.56Zm.12,0s.1,0,.11,0S14.28,9.51,14.29,9.56Zm.21,0a1.4,1.4,0,0,0,.32,0C14.74,9.54,14.55,9.51,14.5,9.56Zm.61,0s-.12,0-.15,0S15.11,9.59,15.11,9.54Zm.09,0h.12S15.19,9.52,15.2,9.56Zm-1.93,0-.11.07c-.05.23-.21.43-.21.66.14,0,.4-.11.54,0a2.53,2.53,0,0,0,.11-.7A.8.8,0,0,0,13.27,9.6Zm1.59,0c-.06,0-.35-.06-.29.05a1.53,1.53,0,0,0,.12.66c.14-.11.37,0,.52,0,0-.27-.18-.45-.21-.72A.18.18,0,0,1,14.85,9.6Zm-1.36.75a1,1,0,0,0-.24.11c0,.16-.11.3-.07.46.11,0,.18-.14.29-.16a.46.46,0,0,1,.25.05,5.56,5.56,0,0,0,.12-1.22.43.43,0,0,1-.22,0A1.78,1.78,0,0,1,13.49,10.36Zm.38-.71c0,.63,0,1.31-.42,1.52a.67.67,0,0,0,.61,0V9.6C14,9.62,13.88,9.57,13.88,9.64Zm.21,0v1.53a.61.61,0,0,0,.61,0c-.46-.2-.37-.94-.42-1.55Zm.36,1.23c.17-.17.38,0,.52.09,0-.18-.05-.32-.07-.48-.36,0-.34-.47-.37-.85-.1,0-.13,0-.21,0A4.53,4.53,0,0,0,14.44,10.83ZM10,10.37a3.61,3.61,0,0,0,.7-.53c-.07,0-.06-.06-.09-.09A2.89,2.89,0,0,0,10,10.37Zm7.53-.59s-.07,0-.08.11a3.11,3.11,0,0,0,.74.53A3.36,3.36,0,0,0,17.57,9.78Zm-4.38.66a.59.59,0,0,0,.25-.11C13.35,10.26,13.15,10.27,13.19,10.44Zm1.52-.09a1.08,1.08,0,0,0,.26.09C15,10.28,14.78,10.25,14.71,10.35ZM10.44,11a5.15,5.15,0,0,0,.66-.47s-.08,0-.07-.12A2.22,2.22,0,0,0,10.44,11Zm6.68-.49a2.93,2.93,0,0,0,.73.51,3.87,3.87,0,0,0-.65-.62C17.19,10.48,17.15,10.5,17.12,10.53Zm-3.7.6c.16,0,.22-.15.28-.28C13.49,10.69,13.44,11,13.41,11.13Zm1-.25c.08.1.12.23.28.25a1.61,1.61,0,0,0-.09-.33A.18.18,0,0,0,14.46,10.87Zm2.66-6.7c-.06.07-.06.2-.17.22a.75.75,0,0,1,0-.2c-.31.12.09.62.32.32-.08,0-.21,0-.24,0s.24-.08.33-.16.11-.25.2-.36A.83.83,0,0,0,17.12,4.17Z"/><path class="cls-5" d="M14.11,3.73s.05-.06.08,0-.06.08-.08.13.28-.17.3,0c0,0-.07,0-.08,0s.07,0,.13,0,0,.07,0,.08-.06,0-.05,0,0-.06.08,0,0,.25-.15.28,0,0,0,.05-.24,0-.25-.08c-.05.08.06.09.08.15a.21.21,0,0,1-.12,0s0,0,0-.07H14c.05,0,.14,0,.11.09s-.16-.12-.28-.05-.1-.11-.11-.2.26-.07.3,0,0,0,0,.08.12-.11.21-.15c0-.21-.22-.21-.32-.32s.06,0,.08-.08,0,0,0,.07,0-.09,0-.11S14.1,3.69,14.11,3.73Zm-.32.48s.07.12.11.11A.31.31,0,0,0,13.8,4.21ZM14.35,4a.12.12,0,0,1,.08.05S14.38,4,14.35,4Zm.07.11s-.06.07-.09,0,0,.07,0,.08S14.46,4.17,14.42,4.13Z"/><path class="cls-6" d="M11.56,4.33c.08,0,.13,0,.13.09s0-.07-.09-.07,0,.14-.11.17A1.31,1.31,0,0,1,11.56,4.33Z"/><path class="cls-10" d="M11.65,4.41s-.07,0-.09.09,0-.09,0-.12S11.63,4.41,11.65,4.41Z"/><path class="cls-10" d="M16.55,4.42s0,0,.05,0,0,.06,0,.09S16.58,4.43,16.55,4.42Z"/><path class="cls-10" d="M11.57,4.56s.05-.06.11-.07a.09.09,0,0,1,0,.07h0S11.58,4.59,11.57,4.56Z"/><path class="cls-10" d="M16.53,4.58c-.05,0,0,0,0-.08s.07.06.12.07S16.56,4.57,16.53,4.58Z"/><path class="cls-10" d="M13.89,4.61c0,.06,0,.09-.07.08A.07.07,0,0,1,13.89,4.61Z"/><path class="cls-4" d="M13.76,4.75c-.05-.06.07-.06.12-.05s-.13,0-.12,0Z"/><path class="cls-10" d="M11.8,5.76c-.43,0-.28-.69-.29-1.11a3,3,0,0,1,.33.26V5s0,0-.09,0,.07.12.09.19v.08a2.49,2.49,0,0,0-.28,0,.74.74,0,0,0,.26.17v.2S11.84,5.73,11.8,5.76Z"/><path class="cls-10" d="M13.15,4.64c0,.25-.34.26-.45.44A1.44,1.44,0,0,1,13.15,4.64Z"/><path class="cls-10" d="M16.69,5.2a1.47,1.47,0,0,1,0,.41A6.16,6.16,0,0,1,16.48,5a2.48,2.48,0,0,0,.05.42c-.06-.17-.12-.35-.17-.53.11-.08.21-.18.33-.25,0,.09,0,.22,0,.34Z"/><path class="cls-6" d="M10.94,4.82a.13.13,0,0,1,.15.09c-.06,0,0-.07-.11-.05s0,.13-.11.17S10.93,4.89,10.94,4.82Z"/><path class="cls-10" d="M11,4.87s0,0,.05,0S11,4.94,11,5,11,4.91,11,4.87Z"/><path class="cls-7" d="M11,4.92c.07,0,.14.16,0,.17s0-.08,0-.12-.12.08-.21.09S11,5,11,4.92Z"/><path class="cls-4" d="M13.1,8.37a1.59,1.59,0,0,1,.2.2A1.73,1.73,0,0,1,13.1,8.37Z"/><path class="cls-4" d="M14.89,8.57a1.65,1.65,0,0,1,.2-.2A1.66,1.66,0,0,1,14.89,8.57Z"/><path class="cls-4" d="M15,5.16a.88.88,0,0,1,.14.15A1,1,0,0,1,15,5.16Z"/><path class="cls-10" d="M17.13,5c.05,0,.08.07.15.08S17.06,5.07,17.13,5Z"/><path class="cls-6" d="M16.23,5c.06,0,0,.11.07.16A.25.25,0,0,1,16.23,5Z"/><path class="cls-6" d="M16.15,5.07a2,2,0,0,1,.17.5C16.28,5.41,16.13,5.21,16.15,5.07Z"/><path class="cls-4" d="M12.1,9.48a.05.05,0,0,1-.05,0s0,0,0,0-.09,0-.12,0Z"/><path class="cls-4" d="M11,6.39a7.83,7.83,0,0,0,.29,2.28.81.81,0,0,1,.11.23c.14.16.29.41.52.51-.31-.1-.45-.37-.62-.61a1.65,1.65,0,0,0,.31.45s.09.09.13.13-.09-.07-.12-.12a1.38,1.38,0,0,0,.37.2.05.05,0,0,0,.05,0s0,0,0,0,0,0,.05,0,0,0,0,0,.1,0,.16,0,0,0-.05,0,0,0,.09,0,0,0,.07,0h0s.09,0,.07,0,0,0,.08,0,.06,0,.05,0a.75.75,0,0,1,.07.09s0-.09.08-.11l0,.05a1.42,1.42,0,0,0,.42,0c0-.07-.16,0-.18,0a2.37,2.37,0,0,0,.33,0s0,0,0,0a1.22,1.22,0,0,1-.44.15s0,0,0,0a2.69,2.69,0,0,1-.37.09s-.14,0-.17,0a1.29,1.29,0,0,1-1-.78s0,0,0,0,0,0,0-.05,0,0,0,0,0,0,0-.09a0,0,0,0,0,0,0s0-.05,0-.08l0,0s0,0,0-.07,0,0,0,0,0,0,0-.08,0,0,0-.07,0,0,0,0,0,0,0-.08,0,0,0,0a15.74,15.74,0,0,1-.13-2.25s0,0,.05,0Zm.65,2.84c-.08-.11-.17-.21-.24-.33A1.05,1.05,0,0,0,11.6,9.23Z"/><path class="cls-4" d="M11.26,8.37a1.49,1.49,0,0,1,.19.19A1.44,1.44,0,0,1,11.26,8.37Z"/><path class="cls-4" d="M11,5.19s0,0,0,0,0,.62,0,.83a4.23,4.23,0,0,1,0-.86l.05,0Z"/><path class="cls-4" d="M16.53,9.3a1.92,1.92,0,0,0,.32-.41s0-.05,0,0,0,0,0-.07,0,0,0-.05,0,0,0-.07,0-.05,0,0,0,0,0-.05,0,0,0-.08,0-.07,0,0a10.51,10.51,0,0,0,.25-2.1h0a16,16,0,0,1-.09,2.06s0,.11,0,.07,0,.1,0,.07,0,.08,0,.05,0,.06,0,.05,0,.1,0,.08-.06,0,0,0,0,0,0,0,0,0,0,.08a0,0,0,0,1,0,0s0,.11,0,0,0,0,0,.09h0a.06.06,0,0,1,0,0s0,0,0,0a1.33,1.33,0,0,1-.94.81s-.08,0-.13,0,0,0,0,0a1.74,1.74,0,0,1-.52-.07s0,0,0,0A1.43,1.43,0,0,1,15,9.62s0,0,0,0a1.61,1.61,0,0,0,.29,0s-.11,0-.16,0c.14.08.43,0,.6,0-.06,0,0,0,.07,0s0,0,.07,0,0,0,0,0,0,0,.08,0,.07,0,.11-.07,0,0,0,0,0,0,0,0,0,0,0,0,0,0,.05,0,0,0,.07-.05a.06.06,0,0,1-.05,0s0,0,.08,0l0,0A1.16,1.16,0,0,0,17,8.8C16.81,9,16.73,9.19,16.53,9.3Zm.11,0-.05.05Zm-.36.26s.19-.1.17-.11S16.25,9.5,16.28,9.52Z"/><path class="cls-10" d="M10.91,6c.06-.21-.1-.71,0-.83s0,0,0,0a6.73,6.73,0,0,1,.73.6c0,.12,0,.46,0,.5v.19a6,6,0,0,1-.54-.81c.14.33.54.91.54.93s0,.12,0,.17a3,3,0,0,1-.34-.45s-.07-.12-.12-.13c.15.24.31.46.46.69A3.7,3.7,0,0,0,12.06,9a3.48,3.48,0,0,1-.62-.46,1.49,1.49,0,0,0-.19-.19,2.78,2.78,0,0,0,.89.71.39.39,0,0,0,.09.11A.76.76,0,0,1,12,9.3c.08.06.22.05.28.13s0-.07.09-.05,0,.07,0,.07a.88.88,0,0,1-.5,0c-.23-.11-.38-.36-.52-.51a.81.81,0,0,0-.11-.23A7.83,7.83,0,0,1,11,6.39C11,6.26,10.89,6.16,10.91,6Z"/><path class="cls-10" d="M16.49,5.79a7.07,7.07,0,0,1,.77-.62,4.42,4.42,0,0,1,0,.91c0,.12-.13.24,0,.32a14.61,14.61,0,0,1-.16,2,2,2,0,0,1-.14.31c-.06,0-.07.14-.09.13s0,0,0,.07-.21.32-.33.44,0,0-.05,0A1.5,1.5,0,0,0,16.73,9a1.7,1.7,0,0,1-.37.34,1.13,1.13,0,0,1-.77,0s0,0,0,0H16s0-.08,0-.12-.11,0-.16,0S16,9.16,16,9.1a3.28,3.28,0,0,0,.91-.71,3.79,3.79,0,0,1-.83.64,3.55,3.55,0,0,0,.42-2.13c.13-.26.17-.26,0-.07V6.53c.2-.27.22-.29,0-.05V6.36s0-.11,0-.13A3.1,3.1,0,0,0,16.49,5.79Z"/><path class="cls-4" d="M16.36,9.39A1.7,1.7,0,0,0,16.73,9a1.5,1.5,0,0,1-.25.28A.21.21,0,0,1,16.36,9.39Z"/><path class="cls-10" d="M14.1,5.24a.65.65,0,0,1,.05.17.37.37,0,0,0,.11-.15s0,.12,0,.17.11-.07.17-.08l-.09.15s.13,0,.19,0l-.16.11s.13,0,.19.05-.13,0-.19.05l.16.11s-.12,0-.19,0a.64.64,0,0,0,.08.13s-.1,0-.14-.07,0,.11,0,.17a.56.56,0,0,1-.11-.15s0,.12-.05.18a.58.58,0,0,1-.05-.18A.74.74,0,0,0,14,6s0-.11,0-.17-.09.07-.16.08a.87.87,0,0,1,.08-.13s-.11,0-.17,0a.54.54,0,0,1,.15-.09s-.12,0-.19-.05.12,0,.19-.05a.74.74,0,0,0-.15-.11s.11,0,.17,0a.32.32,0,0,0-.09-.14c.05,0,.11.06.17.08s0-.12,0-.19l.11.15S14.08,5.29,14.1,5.24ZM14,5.61s0,0,0,0,0-.05,0-.07,0,0,0,0S14,5.58,14,5.61Zm.16-.05s0,.11,0,.12,0,0,.08-.08-.07,0-.07,0,.11,0,.07,0S14.16,5.54,14.14,5.56Zm-.08.15s0,0,0,0,.08,0,.15,0S14.08,5.73,14.06,5.7Zm0,.09s0,0,.08,0,0,0,0,0S14,5.75,14,5.79Z"/><path class="cls-10" d="M12.38,5.32s0,0,.07-.05S12.42,5.35,12.38,5.32Z"/><path class="cls-6" d="M15.89,5.33s0,.08.07.11S15.89,5.38,15.89,5.33Z"/><path class="cls-7" d="M12.45,5.41a.84.84,0,0,1,.15.15,1,1,0,0,0-.25.21C12.35,5.68,12.43,5.54,12.45,5.41Z"/><path class="cls-5" d="M15.4,6.15a2.34,2.34,0,0,0-.65-.36c-.11,0-.25,0-.33-.09a.69.69,0,0,0,.19,0c0-.06-.15,0-.2-.07l.11-.08a1.26,1.26,0,0,1,.66.29c-.07-.08.08,0,.11,0S15.34,6,15.4,6.15ZM15,5.78a.08.08,0,0,0,0,.07h.05s0,0,0-.07.08,0,0,0S15.07,5.79,15,5.78Zm-.26-.11c0-.07,0,0,.05,0s0,0,0-.07-.13,0-.11,0S14.73,5.71,14.76,5.68Zm0,0s0,0,0,.05.09,0,.11,0,0-.07,0,0S14.75,5.71,14.74,5.7Zm.38.21s.08,0,0-.07-.06,0-.05,0,0,0,0,0S15.1,5.91,15.12,5.91Z"/><path class="cls-10" d="M15.11,5.76s0,0,0,0,0,0,0,.07H15a.08.08,0,0,1,0-.07S15.06,5.74,15.11,5.76ZM15,5.83h0s0,0,0-.05S15,5.81,15,5.83Z"/><path class="cls-4" d="M14.07,5.57s0,0,0,0,0,0,0,.07,0,0,0,0S14,5.58,14.07,5.57Z"/><path class="cls-7" d="M15.54,5.58s0,0,0,0a2.41,2.41,0,0,1,.16.24S15.59,5.65,15.54,5.58Z"/><path class="cls-6" d="M15.9,5.6s.1.16.05.13S15.89,5.67,15.9,5.6Z"/><path class="cls-10" d="M14.75,5.62s.08,0,.11,0-.05,0,0,.07,0-.1-.05,0S14.77,5.63,14.75,5.62Z"/><path class="cls-7" d="M15.53,5.82c.11.16.24.29.34.46-.06,0-.11.11-.19.15a2.12,2.12,0,0,0-.24-.73.1.1,0,0,1,.08-.08c.07.13.2.28.29.42s.09.11.05.11A3,3,0,0,0,15.53,5.82Z"/><path class="cls-10" d="M13.49,5.66s0,0,0,.08.06,0,0,0S13.48,5.69,13.49,5.66Z"/><path class="cls-5" d="M13.81,5.58c0,.05-.15,0-.2.07s.13,0,.18.05-.09,0-.13.05a2.19,2.19,0,0,0-.86.41c0-.34.46-.56.82-.64A.24.24,0,0,1,13.81,5.58Zm-.36.17c.06,0,0-.07,0,0s.08-.09,0-.08S13.41,5.71,13.45,5.76Zm-.29.16s-.1-.11-.08-.09A.18.18,0,0,0,13.16,5.91Z"/><path class="cls-4" d="M14.18,5.73c-.07,0-.08,0-.15,0s0,0,0,0S14.16,5.7,14.18,5.73Z"/><path class="cls-10" d="M14.79,5.73s0,0,0,0-.06,0-.11,0,.05,0,0-.05S14.76,5.78,14.79,5.73Z"/><path class="cls-4" d="M14.17,5.78s0,0,0,0-.05,0-.08,0S14.15,5.77,14.17,5.78Z"/><path class="cls-10" d="M13.08,5.82s.07.06.08.09A.18.18,0,0,1,13.08,5.82Z"/><path class="cls-10" d="M15.13,5.9s0,0,0,0,.07,0,.05,0,0,.06,0,.07S15.12,5.9,15.13,5.9Z"/><path class="cls-6" d="M12,6s0,0,.07,0,0,0,0,0S12.06,6.05,12,6Z"/><path class="cls-9" d="M12.94,6.51h0s0,.06,0,.07.06-.07.12-.07a.49.49,0,0,1-.16.2s.06,0,.07,0-.11.09-.12.16a.42.42,0,0,0,.22-.13c.06.08,0,.17-.12.2a.81.81,0,0,1-.29.36c.27,0,.26-.4.57-.41,0,0-.05,0-.07.08a.09.09,0,0,0,.11,0c0,.07-.11.1-.16.14s0,.16,0,.25,0,0,0,.05,0-.14,0-.22.17,0,.17-.16a.16.16,0,0,0,.16-.08s0,0,0,0-.33.19-.3.4a2.68,2.68,0,0,0,.27.08c0-.07-.13-.08-.18-.11s.13-.07.12-.19.13,0,.16,0l0-.05s0,.07.08.07,0,0,0,0-.05,0,0,0-.1.11-.17.15.08.07.07.16,0-.12,0-.16h.05s-.05,0,0,.08a.07.07,0,0,0,.07-.05s0,0,0,.05.16,0,.19.07a0,0,0,0,0,0-.05s.06,0,.07,0l.09.05s0,0,0,0,0,0,0,0-.15,0-.2.05-.2,0-.24.07h0s0,0,0,0l-.13.05c-.07,0-.13,0-.17,0a.94.94,0,0,0-.4.09,2.64,2.64,0,0,1-.15-1C12.8,6.72,12.84,6.59,12.94,6.51Z"/><path class="cls-5" d="M13.76,7.58s.15-.07.2-.05S13.83,7.57,13.76,7.58Z"/><path class="cls-5" d="M14.74,7.18a.11.11,0,0,1,.08.07l-.22.05s.13,0,.2-.07S14.75,7.21,14.74,7.18Z"/><path class="cls-9" d="M13.88,7.29s-.1,0-.09-.08,0,0,.09.05,0-.06,0-.08-.1,0-.09-.08.16,0,.26,0-.09,0-.12.08.16,0,.19-.11,0,.06,0,.08,0,0,.09,0,0,0,0-.09,0,.07.08.08,0,0,0-.05,0,0,.05,0-.09.07-.12.13,0,0,0,.07.1,0,.15-.07,0,0,0-.08.06,0,.05-.08,0,0,.05,0a0,0,0,0,1,0,0,.15.15,0,0,0,0,.24s.05-.07.13-.05,0,0,0-.08l.07,0s0,0,.05.05-.16,0-.2.07A5.83,5.83,0,0,1,13.88,7.29Z"/><path class="cls-8" d="M13.52,6.94c-.07-.08-.17-.12-.21-.24a1.44,1.44,0,0,1,.34.42c-.05,0,0-.06-.08-.07a.43.43,0,0,0,0-.09S13.53,7,13.52,6.94Z"/><path class="cls-5" d="M12.94,6.51c.08-.06.12-.15.21-.2.25.06.34.29.61.33.09.29.54.22.74.4,0,0,0,0-.05,0s0,.08-.05.08,0,0,0,.08-.05.09-.15.07,0,0,0-.07.13,0,.12-.13,0,0-.05,0,0,.06,0,.05,0-.07-.08-.08,0,0,0,.09-.07,0-.09,0,0-.08,0-.08-.12.17-.19.11.09,0,.12-.08-.14.08-.26,0,.06.05.09.08,0,.08,0,.08,0,0-.09-.05.06.06.09.08c-.13,0-.14-.08-.2-.13s0,0,0,0a1.44,1.44,0,0,0-.34-.42c0,.11.14.16.21.24a.16.16,0,0,1-.16.08c0,.11-.1.12-.17.16s0,.16,0,.22,0,0,0-.05,0-.16,0-.25.18-.08.16-.14a.09.09,0,0,1-.11,0s.05,0,.07-.08c-.3,0-.3.41-.57.41A.81.81,0,0,0,13,6.94c.07,0,.18-.11.12-.2a.42.42,0,0,1-.22.13c0-.07.14-.1.12-.16s-.07,0-.07,0a.49.49,0,0,0,.16-.2c-.06,0-.08,0-.12.07s0-.06,0-.07Z"/><path class="cls-7" d="M17.14,8.8a.55.55,0,0,1,0-.13s0,0,0-.05,0,0,0-.07,0-.07,0-.07a16,16,0,0,0,.09-2.06c0,1.52.27,3.51-1.18,3.63a1.37,1.37,0,0,1-.77-.19A1,1,0,0,1,15,9.59h0s0,0,0,0a1.43,1.43,0,0,0,.46.16s0,0,0,0,0,0,0,.05.35.1.57,0-.21,0-.29,0a1,1,0,0,0,.34,0h0A1.3,1.3,0,0,0,17.14,8.8Z"/><path class="cls-10" d="M15.4,9.47a1,1,0,0,0,.15,0,1.75,1.75,0,0,0,.71,0l0,0s-.06.05-.08,0a.06.06,0,0,0,.05,0s-.12,0-.07.05,0,0-.05,0,0,0,0,0,0,0,0,0-.09.07,0,0-.16,0-.11.07-.05,0-.08,0,0,0,0,0-.12,0-.07,0-.13,0-.07,0c-.16,0-.45,0-.6,0,0,0,.13,0,.16,0s0,0,0-.11S15.39,9.48,15.4,9.47Z"/><path class="cls-10" d="M16.59,9.31l.05-.05Z"/><path class="cls-4" d="M12.22,9.86s0,0-.07,0h.23c-.08,0-.49,0-.24,0a2.31,2.31,0,0,1-.38-.09s.1,0,.16,0a1.42,1.42,0,0,1-.68-.5s0,0,0,0a.09.09,0,0,0-.07-.08s0,.07,0,0,0-.08,0-.08,0,0,0,0,0,0,0,.07,0,0,0,0l.05.07a1.45,1.45,0,0,0,.13.17s0,0-.05-.08a2.79,2.79,0,0,0,.34.29l-.05,0a.21.21,0,0,0,.12.07.69.69,0,0,0,.2.07s0,0,0,0,.15.06.21,0Z"/><path class="cls-4" d="M11.22,9.35s0,0,0,0,0,0,.05,0a1,1,0,0,0,.42.37h0a1,1,0,0,1-.48-.38,1,1,0,0,0,.7.48c.06,0,.06,0,0,0-.33,0-.54-.29-.71-.39s.09,0,.08,0-.1-.06-.13-.09a0,0,0,0,0,0,0s0,0-.05,0,0,0,.07,0a0,0,0,0,0,0,0s0,0,0,0,0,0-.07-.05,0,0,0,0S11.22,9.35,11.22,9.35Z"/><path class="cls-4" d="M11.31,9.55a1.41,1.41,0,0,0,1.06.38s-.13,0-.18,0a1.1,1.1,0,0,1-.82-.37S11.32,9.57,11.31,9.55Z"/><path class="cls-4" d="M11.36,9.63a.89.89,0,0,0,.53.32s0,0,0,0a1.05,1.05,0,0,1-.62-.38,1.87,1.87,0,0,0,.62.34s0,0,0,0A1.1,1.1,0,0,1,11.36,9.63Z"/><path class="cls-4" d="M11.3,9.6a1,1,0,0,0,.7.4c.12,0,.09,0,0,0a1,1,0,0,1-.73-.41S11.28,9.6,11.3,9.6Z"/><path class="cls-10" d="M11.36,8.9c.07.12.16.22.24.33A1.05,1.05,0,0,1,11.36,8.9Z"/><path class="cls-10" d="M11.55,9.25s0,0,0,0,.09.06.12.12S11.54,9.29,11.55,9.25Z"/><path class="cls-10" d="M11.93,9.46h0s.09,0,.12,0,0,0,0,0a.05.05,0,0,0,.05,0h.28s0,.06,0,.11-.12,0-.05,0-.09,0-.08,0,0,0-.07,0h0s-.1,0-.07,0-.07,0-.09,0,0,0,.05,0-.11,0-.16,0,0,0,0,0,0,0-.05,0,0,0,0,0A.05.05,0,0,1,11.93,9.46Z"/><path class="cls-7" d="M12.16,9.83s.13,0,.17,0S12.22,9.83,12.16,9.83Z"/><path class="cls-4" d="M16.93,9.3s0,0,0-.05,0,0,.05,0a.09.09,0,0,0,0,.08s0,0-.05,0,0,0,0-.07a1.2,1.2,0,0,1-.82.57,2,2,0,0,0,.22-.08s.13,0,.12-.07a.34.34,0,0,1,.12-.08.22.22,0,0,1-.09.07c.11,0,.19-.18.3-.28s0,0,0,0A.56.56,0,0,0,16.93,9.3Zm-.17.21-.05.05Z"/><path class="cls-8" d="M17.06,9h0s0-.08.05-.08-.13.19-.12.28-.05,0-.05,0,0,0,0,.05-.06.07-.09.11-.19.24-.3.28a.22.22,0,0,0,.09-.07.34.34,0,0,0-.12.08.54.54,0,0,0-.12.07,2,2,0,0,1-.22.08H16.1c-.22.07-.45,0-.57,0s0,0,0-.05a1.74,1.74,0,0,0,.52.07s0,0,0,0,.1,0,.13,0A1.33,1.33,0,0,0,17.05,9S17.06,9,17.06,9Z"/><path class="cls-5" d="M13.65,7.17a1.63,1.63,0,0,0,.26.25s-.06,0-.07,0a0,0,0,0,1,0,.05c0-.06-.16,0-.19-.07s.05,0,0-.05a.07.07,0,0,1-.07.05s0,0,0-.08h-.05s0,.12,0,.16-.06-.09-.07-.16S13.57,7.2,13.65,7.17Z"/><path class="cls-8" d="M14.71,8a.45.45,0,0,1-.21.33c-.26.07-.51,0-.77,0l-.2-.16c.05,0,.13,0,.21,0s0,0,0-.05h.09v.05h.05c0-.09,0-.27,0-.36s0,.24,0,.34.11,0,.12,0,0,0,0,0,0-.24,0-.4,0,0-.05-.07,0,0,0,0,0,0-.05,0,.11,0,.09-.12a.17.17,0,0,0,.17.05.14.14,0,0,1-.09.07l0,0c-.1.11,0,.24-.05.41,0,0,0-.07,0-.13a1,1,0,0,0,.11.08s-.06,0-.08,0,.07,0,.05,0,0-.07,0-.13,0,0,.05,0,0-.09.08-.12-.06,0,0,0,0,0,.08,0,0,0,0,0,0,.15,0,.24.09,0,.16,0,0-.05,0-.09S14.68,8,14.71,8Zm-.42.16a3.91,3.91,0,0,1-.7,0l.16.12c.31,0,.79.16.91-.16-.13,0-.25.05-.36,0s.09,0,.08,0-.08,0-.11,0S14.27,8.2,14.29,8.2Zm-.13-.54s-.09,0-.12,0S14.12,7.66,14.15,7.66Zm.25.44s0,0-.05,0,0,.08.08.08,0-.16,0-.22S14.35,8.05,14.4,8.1Zm.25,0H14.6C14.58,8.2,14.67,8.18,14.66,8.14Zm-.5,0v0s.07,0,.08,0Z"/><path class="cls-6" d="M13.82,7.33a2,2,0,0,1,.64,0s-.08,0-.09.07c.36,0,.68.17,1,.21a1.38,1.38,0,0,1-1.65,1.14,1.51,1.51,0,0,1-.93-1c.11,0,.23-.07.3-.08s.37,0,.44-.08A.74.74,0,0,0,14,7.54c.06,0,.14,0,.14,0S13.91,7.39,13.82,7.33Zm.85.69s0,.08,0,.09-.09,0-.16,0,0-.21,0-.24,0,0,0,0,0,.07-.08,0,0,0,0,0,0,.1-.08.12,0,0-.05,0,0,.12,0,.13-.06,0-.05,0,.08,0,.08,0A1,1,0,0,1,14.18,8c0,.06,0,.12,0,.13,0-.17,0-.3.05-.41l0,0a.14.14,0,0,0,.09-.07.17.17,0,0,1-.17-.05c0,.09-.1,0-.09.12s0,0,.05,0,0,0,0,0,0,0,.05.07,0,.26,0,.4,0,0,0,0-.11,0-.12,0,0-.28,0-.34,0,.27,0,.36h-.05V8.16h-.09s0,0,0,.05-.16,0-.21,0l.2.16c.26,0,.5.08.77,0A.45.45,0,0,0,14.71,8S14.68,8,14.67,8Zm0,0c0,.05.07,0,.11.05S14.72,8,14.68,8Z"/><path class="cls-10" d="M14.3,8.2c.11,0,.23,0,.36,0-.12.31-.6.13-.91.16l-.16-.12a3.91,3.91,0,0,0,.7,0Z"/><path class="cls-7" d="M11.28,9.33s.06.06.08.09.08.06.05.08A1.45,1.45,0,0,1,11.28,9.33Z"/><path class="cls-7" d="M16.84,9.41s0-.08.09-.11a.56.56,0,0,1-.12.15S16.83,9.42,16.84,9.41Z"/><path class="cls-7" d="M16.39,9.76a.54.54,0,0,1,.12-.07S16.43,9.75,16.39,9.76Z"/><path class="cls-5" d="M13.43,9.33c0,.11-.14.18-.2.28h-.08A2,2,0,0,1,13.43,9.33Z"/><path class="cls-5" d="M15,9.59s-.06,0-.08,0-.2-.16-.2-.28C14.81,9.39,14.87,9.51,15,9.59Z"/><path class="cls-10" d="M16.45,9.42s-.13.07-.17.11S16.41,9.45,16.45,9.42Z"/><path class="cls-7" d="M11.77,9.75a.21.21,0,0,1-.12-.07l.05,0S11.75,9.73,11.77,9.75Z"/><path class="cls-7" d="M12,9.82s.1,0,.17,0-.16,0-.21,0S12,9.83,12,9.82Z"/><path class="cls-7" d="M11.22,9.22s0,0,0,0,0,.1,0,.08,0,0,0,0a.09.09,0,0,1,.07.08s-.06-.08,0,0a1.42,1.42,0,0,0,.68.5c-.06,0-.11-.06-.16,0a2.31,2.31,0,0,0,.38.09c-.26,0,.16,0,.24,0h-.23s.07,0,.07,0,.24,0,.32,0,.14,0,.14-.07a1.22,1.22,0,0,0,.44-.15h0a1.61,1.61,0,0,1-1.1.41c-.83-.07-1.14-.82-1.19-1.85,0-.21,0-.56,0-.91a5,5,0,0,1,0-.86A15.74,15.74,0,0,0,11,8.66s0,0,0,0,0,.07,0,.08,0,0,0,0,0,.06,0,.07-.05.06,0,.08,0-.06,0,0,0,.07,0,.07l0,0s0,.07,0,.08a0,0,0,0,1,0,0c0,.07,0,0,0,.09s0,0,0,0,0,0,0,.05,0-.06-.05-.07A1,1,0,0,0,11.22,9.22Z"/><path class="cls-7" d="M16.71,9.56l.05-.05Z"/><path class="cls-4" d="M14.56,9.66c-.06-.11.23-.06.29-.05h-.29Z"/><path class="cls-5" d="M10.65,9.75s0,.11.09.09a3.61,3.61,0,0,1-.7.53A2.89,2.89,0,0,1,10.65,9.75Z"/><path class="cls-5" d="M18.23,10.41a3.11,3.11,0,0,1-.74-.53c0-.06.06-.06.08-.11A3.36,3.36,0,0,1,18.23,10.41Z"/><path class="cls-10" d="M15,10.44a1.08,1.08,0,0,1-.26-.09C14.78,10.25,15,10.28,15,10.44Z"/><path class="cls-5" d="M11,10.42c0,.07.05.07.07.12a5.15,5.15,0,0,1-.66.47A2.22,2.22,0,0,1,11,10.42Z"/><path class="cls-5" d="M17.2,10.42a3.87,3.87,0,0,1,.65.62,2.93,2.93,0,0,1-.73-.51S17.19,10.48,17.2,10.42Z"/><path class="cls-8" d="M13.58,4a.11.11,0,0,1-.11,0A.06.06,0,1,1,13.58,4Z"/><path class="cls-5" d="M17.57,4c-.09.11-.1.27-.2.36s-.25.06-.33.16.16,0,.24,0c-.23.3-.63-.2-.32-.32a.75.75,0,0,0,0,.2c.11,0,.11-.15.17-.22A.83.83,0,0,1,17.57,4Z"/><path class="cls-5" d="M11.23,4.39c.06-.06,0-.13,0-.22.31.15,0,.59-.3.36,0-.07.16,0,.22,0s-.21-.1-.3-.17-.12-.23-.21-.34A.66.66,0,0,1,11.23,4.39Z"/><path class="cls-8" d="M14.43,4.07A.12.12,0,0,0,14.35,4S14.46,4,14.43,4.07Z"/><path class="cls-8" d="M13.9,4.31s-.09-.06-.11-.11A.31.31,0,0,1,13.9,4.31Z"/><path class="cls-5" d="M10.52,4.83c.1,0,0-.14.07-.2s.14.13.23.17-.12,0-.13.08.21.17.16.33-.19-.18-.32-.15,0,.18,0,.32A.39.39,0,0,1,10.05,5c.1-.1.29.09.37-.07s-.2-.09-.29-.16-.13-.24-.21-.36A.73.73,0,0,1,10.52,4.83Z"/><path class="cls-5" d="M11.34,4.48s.07.05.09.08,0,0,0,0,.06,0,0,.11-.08,0-.11-.08,0,0-.05,0S11.32,4.51,11.34,4.48Z"/><path class="cls-8" d="M11.34,4.48s0,0-.05.08,0,0,.05,0,0,0-.08,0-.33,0-.36-.08h0c.05,0,.2,0,.19,0a.71.71,0,0,1-.5-.54.76.76,0,0,1,.62.42c0-.08,0-.16,0-.22A.25.25,0,0,1,11.34,4.48Zm-.7-.5c.09.11.1.26.21.34s.25,0,.3.17-.19,0-.22,0c.26.24.61-.21.3-.36,0,.09.06.16,0,.22A.66.66,0,0,0,10.64,4Z"/><path class="cls-5" d="M17.78,4.92c0,.16.23.08.3.05.18.19-.21.48-.4.38,0-.12.11-.27,0-.3s-.2.15-.3.17,0-.07,0-.12,0,0,0-.05.14-.07.12-.18-.11,0-.13-.05a.92.92,0,0,1,.24-.19s0,.14,0,.19.1-.11.15-.17.3-.15.49-.21c-.08.11-.1.25-.2.34S17.86,4.83,17.78,4.92Z"/><path class="cls-10" d="M14.27,4.7A.2.2,0,0,1,14,4.63c.08,0,.19,0,.23,0S14.27,4.65,14.27,4.7Z"/><path class="cls-7" d="M16,6.24v.07s0,.14,0,.2v.21c0,.08,0,.19,0,.24a2.87,2.87,0,0,1-.6,2.2h0a.34.34,0,0,0,0-.11c-.25,0-.46,0-.67,0,0-.11.12-.14.19-.19A2.38,2.38,0,0,0,15.7,6.5,1.1,1.1,0,0,1,16,6.24Z"/><path class="cls-6" d="M16.51,6.23s0,.11,0,.13v.12c0,.08-.18.15-.19.23l.19-.17v.29a1.33,1.33,0,0,1-.37.37c.19,0,.24-.22.38-.3A3.55,3.55,0,0,1,16.11,9a1.5,1.5,0,0,1-.58.2A1.14,1.14,0,0,0,16,9.1c0,.06-.11.08-.15.15s-.4,0-.49,0,0,0,0-.05A2.87,2.87,0,0,0,16,7c0-.08,0-.19,0-.24V6.51s0-.14,0-.2V6.24c.17-.16.33-.31.52-.45A3.1,3.1,0,0,1,16.51,6.23Z"/><path class="cls-5" d="M13.54,7a.43.43,0,0,1,0,.09l0,.05s-.11,0-.16,0-.11.09-.12.19.22,0,.18.11a2.68,2.68,0,0,1-.27-.08C13.22,7.16,13.46,7.11,13.54,7Z"/><path class="cls-5" d="M14.52,7.05a1.57,1.57,0,0,0,.15.11s0,0,0,.08-.09,0-.13.05A.15.15,0,0,1,14.52,7.05Z"/><path class="cls-6" d="M12.21,7.46a3.64,3.64,0,0,0,.24,1.19.4.4,0,0,0-.41.23c.13.06.3.09.33.25s-.21-.07-.3-.11a3.7,3.7,0,0,1-.41-2.16c.13.11.21.27.38.33a1.77,1.77,0,0,1-.38-.38V6.76s0-.12,0-.17V6.52c.07.06.12.15.21.19s-.17-.14-.21-.24V6.28s0-.1,0-.15V5.78c.19.14.35.3.53.45v.91s0,.09,0,.13v0S12.18,7.44,12.21,7.46Z"/><path class="cls-5" d="M13.21,7.67c-.16,0-.24.07-.4.09A.94.94,0,0,1,13.21,7.67Z"/><path class="cls-10" d="M14.79,8s-.11,0-.11-.05S14.79,8,14.79,8Z"/><path class="cls-8" d="M16,9.1a1.14,1.14,0,0,1-.5.12,1.5,1.5,0,0,0,.58-.2,3.79,3.79,0,0,0,.83-.64A3.28,3.28,0,0,1,16,9.1Z"/><path class="cls-6" d="M12.67,9s0,0,0,.05,0,.1,0,.16h-.08s.06,0,.05,0,0,0-.05,0A.22.22,0,0,1,12.67,9Z"/><path class="cls-5" d="M13.48,9.29a.45.45,0,0,1,.23-.22C13.64,9.14,13.56,9.27,13.48,9.29Z"/><path class="cls-5" d="M14.64,9.29c-.09,0-.14-.16-.22-.21S14.63,9.22,14.64,9.29Z"/><path class="cls-5" d="M13.74,9.59a.79.79,0,0,1-.28-.24c-.09-.1-.18-.2-.25-.29C13.42,9.21,13.55,9.43,13.74,9.59Z"/><path class="cls-5" d="M12.05,9.31c.05,0,.13,0,.17-.09s.07.07.15.05,0,0,0,.08A.44.44,0,0,1,12.05,9.31Z"/><path class="cls-5" d="M15.16,9.58a3.8,3.8,0,0,0,0-.5A.6.6,0,0,1,15.16,9.58Z"/><path class="cls-10" d="M14.85,9.6a.18.18,0,0,0,.13,0c0,.27.22.45.21.72-.14,0-.37-.14-.52,0a1.53,1.53,0,0,1-.12-.66V9.6Z"/><path class="cls-10" d="M13.6,9.6a2.53,2.53,0,0,1-.11.7c-.14-.08-.41,0-.54,0,0-.24.16-.43.21-.66l.11-.07Z"/><path class="cls-8" d="M12.16,9.83c.07,0,.1,0,.17,0a2.69,2.69,0,0,0,.37-.09s0,0,0,0-.14,0-.14.07-.17,0-.32,0h-.08c-.07,0-.14,0-.17,0a.69.69,0,0,1-.2-.07s0,0-.07,0a2.79,2.79,0,0,1-.34-.29s0-.07-.08-.09l-.05-.07s0,0,0,0,0,0,0-.07a1,1,0,0,1-.15-.28s0,.06.05.07,0,0,0,0A1.29,1.29,0,0,0,12.16,9.83Z"/><path class="cls-10" d="M14.32,4.56c0,.13.07.16.16.19s-.15,0-.22,0,0-.11,0-.17Z"/><path class="cls-10" d="M13.88,4.7c.05,0,0-.06,0-.09s.09,0,.08.08a.21.21,0,0,0,.11,0,2,2,0,0,1-.33,0h0C13.75,4.67,13.87,4.74,13.88,4.7Z"/><path class="cls-10" d="M17.2,4.87s0,.09.07.11-.1,0-.09-.09Z"/><path class="cls-10" d="M12.77,5.65s0,0-.07,0,.09-.09.11-.16-.11.05-.16.08a.32.32,0,0,1-.17-.16c.06-.1.21-.11.32-.19s.19-.17.28-.24v0c0,.1,0,.2,0,.28S12.8,5.48,12.77,5.65Z"/><path class="cls-10" d="M16.35,5a3.94,3.94,0,0,1,.11.38c0,.22-.06-.14-.09-.18V5.11C16.36,5.05,16.34,5,16.35,5Z"/><path class="cls-10" d="M11.07,5.07a.38.38,0,0,1-.16,0S11,5,11,5,11.07,5,11.07,5.07Z"/><path class="cls-10" d="M12.57,9.58s0-.12.08-.15a.1.1,0,0,0,.08,0s.06.07.05.13.18,0,.18,0a1.42,1.42,0,0,1-.42,0Z"/><path class="cls-10" d="M13.44,10.33a.59.59,0,0,1-.25.11C13.15,10.27,13.35,10.26,13.44,10.33Z"/><path class="cls-5" d="M12.77,2.9a3.1,3.1,0,0,0-1.35.33,3,3,0,0,1,1.69-.38c.19,0,.38.1.38.3-.06,0-.05-.07-.08-.11s-.16-.09-.22-.15-.18,0-.29,0S12.78,2.87,12.77,2.9Z"/><path class="cls-5" d="M15.33,2.9a.54.54,0,0,0-.5.15s0,.1-.09.11S14.79,3,14.8,3s.1-.09.17-.11a3.08,3.08,0,0,1,1.84.36.86.86,0,0,1-.29-.11,2.63,2.63,0,0,0-1.06-.21A.13.13,0,0,0,15.33,2.9Z"/><path class="cls-5" d="M15.15,7.17a.3.3,0,0,1,.32,0C15.35,7.17,15.28,7.22,15.15,7.17Z"/><path class="cls-5" d="M14,7.65s.15,0,.12,0S14,7.67,14,7.65Z"/><path class="cls-5" d="M14.29,8.2s0,0,0,0,.1,0,.11,0-.05,0-.08,0Z"/><path class="cls-5" d="M12.88,8.92c-.47,0-.14.56-.4.73-.23-.22.09-.73-.41-.77C12.19,8.59,12.81,8.58,12.88,8.92Z"/><path class="cls-5" d="M14.38,9.6c.16-.19.35-.37.52-.56,0,.05-.06.11-.09.15A2.6,2.6,0,0,1,14.38,9.6Z"/><path class="cls-5" d="M13,9.07a3.4,3.4,0,0,0,0,.5A.58.58,0,0,1,13,9.07Z"/><path class="cls-5" d="M14.22,9.58a1.35,1.35,0,0,1,0-.51h0C14.25,9.2,14.3,9.48,14.22,9.58Z"/><path class="cls-8" d="M14.37,4.23s0,0,0-.08.06,0,.09,0S14.35,4.18,14.37,4.23Z"/></g></g></svg>