<svg xmlns="http://www.w3.org/2000/svg" viewBox="0 0 26.55 15.79"><defs><style>.cls-1{fill:#fdfefd;stroke:#ccc;stroke-width:0.2px;}.cls-2{fill:#17489d;}.cls-3{fill:#f2ca26;}.cls-3,.cls-4,.cls-5,.cls-6{fill-rule:evenodd;}.cls-4{fill:#5b73a3;}.cls-5{fill:#adbbd8;}.cls-6{fill:#090704;}</style></defs><title>flag_858</title><g id="レイヤー_2" data-name="レイヤー 2"><g id="flag"><rect class="cls-1" x="0.1" y="0.1" width="26.35" height="15.59"/><rect class="cls-2" x="9.94" y="1.79" width="16.47" height="1.57"/><rect class="cls-2" x="9.94" y="5.22" width="16.45" height="1.63"/><rect class="cls-2" x="0.18" y="8.53" width="26.25" height="1.63"/><rect class="cls-2" x="0.12" y="12.03" width="26.33" height="1.63"/><path class="cls-3" d="M4.87,1.67c0,.55,0,1.14,0,1.71a1.43,1.43,0,0,0-.33.05C4.66,2.85,4.77,2.27,4.87,1.67Z"/><path class="cls-3" d="M4.94,1.67c.12.58.22,1.17.32,1.77a1.42,1.42,0,0,0-.32-.05Z"/><path class="cls-3" d="M4.51,3.37a3.43,3.43,0,0,0-.34-.77,4,4,0,0,1-.44-.66.46.46,0,0,1,0-.12c.07.28.36.37.54.58a1.79,1.79,0,0,1,.18.27.92.92,0,0,1,.14.3C4.59,3.1,4.51,3.22,4.51,3.37Z"/><path class="cls-3" d="M3.64,1.84c.22.57.69.9.82,1.58-.16-.09-.29-.2-.44-.3a1.51,1.51,0,0,0-.14-.63A1.23,1.23,0,0,1,3.64,1.84Z"/><path class="cls-4" d="M5.94,2.45a.14.14,0,0,1,0,.11Z"/><path class="cls-3" d="M7.52,3.19a2.88,2.88,0,0,0-.75.45A2.57,2.57,0,0,1,5.94,4c.09-.15.2-.29.3-.44a1.53,1.53,0,0,0,.62-.14C7.07,3.34,7.22,3.17,7.52,3.19Z"/><path class="cls-3" d="M7.55,3.26c-.28.08-.38.35-.59.54A1.92,1.92,0,0,1,6.7,4a.94.94,0,0,1-.3.14c-.14,0-.25-.07-.41-.06a3.28,3.28,0,0,0,1.13-.6A.91.91,0,0,1,7.55,3.26Z"/><path class="cls-4" d="M2.86,3.42s.08,0,.09,0Z"/><path class="cls-3" d="M2.2,3.46c.06,0,.12,0,.18.05s.38,0,.6,0a1.78,1.78,0,0,1,.33.06,1.1,1.1,0,0,1,.3.1c.11.08.12.24.23.33a3.63,3.63,0,0,0-.78-.29A3,3,0,0,1,2.2,3.46Z"/><path class="cls-3" d="M2.17,3.5h0a2.81,2.81,0,0,0,.89.22A3.28,3.28,0,0,1,3.86,4l-.25.05a1,1,0,0,1-.26,0C3.29,4.13,3.2,4,3.12,4a1.61,1.61,0,0,0-.25-.14C2.6,3.72,2.3,3.72,2.17,3.5Z"/><path class="cls-3" d="M3.87,4.11h0a1.33,1.33,0,0,0-.05.32H2.12Z"/><path class="cls-3" d="M5.93,4.11l1.77.32c-.55,0-1.15,0-1.71,0A1.15,1.15,0,0,0,5.93,4.11Z"/><path class="cls-4" d="M3.9,4.41v.1A.12.12,0,0,1,3.9,4.41Z"/><path class="cls-3" d="M2.13,4.49c.55,0,1.14,0,1.7,0a1.27,1.27,0,0,0,.05.32Z"/><path class="cls-3" d="M7.69,4.49c-.58.12-1.17.22-1.77.32A1.17,1.17,0,0,0,6,4.49Z"/><path class="cls-3" d="M3.81,4.86A3.81,3.81,0,0,0,3,5.23a1.86,1.86,0,0,1-.76.43c.28,0,.38-.32.56-.5a1.89,1.89,0,0,1,.59-.37C3.5,4.76,3.66,4.87,3.81,4.86Z"/><path class="cls-3" d="M3.87,4.91a3.91,3.91,0,0,1-.31.44,1.62,1.62,0,0,0-.6.14,1.27,1.27,0,0,1-.69.24A2.52,2.52,0,0,0,3,5.29,2.8,2.8,0,0,1,3.87,4.91Z"/><path class="cls-3" d="M5.2,5a.85.85,0,0,1-.58,0A1.7,1.7,0,0,1,5.2,5Z"/><path class="cls-4" d="M6.86,5.44H7A.12.12,0,0,1,6.86,5.44Z"/><path class="cls-3" d="M4.88,5.53V7.24c-.12-.58-.22-1.18-.33-1.77A1.13,1.13,0,0,0,4.88,5.53Z"/><path class="cls-3" d="M4.94,7.24c0-.55,0-1.15,0-1.71a.89.89,0,0,0,.32-.05C5.18,6.06,5,6.65,4.94,7.24Z"/><path class="cls-3" d="M6.18,7h0v0s0-.06,0-.09a3.23,3.23,0,0,0-.42-.64,2.93,2.93,0,0,1-.37-.84c.15.09.29.2.44.3,0,.52.27.75.38,1.15Z"/><path class="cls-3" d="M5.3,5.56h0a3.27,3.27,0,0,0,.53,1,1,1,0,0,1,.26.49c-.09-.28-.36-.38-.55-.6a1.43,1.43,0,0,1-.18-.25.91.91,0,0,1-.14-.29C5.23,5.82,5.31,5.71,5.3,5.56Z"/><path class="cls-4" d="M3.87,6.52a.21.21,0,0,1,0-.14Z"/><path class="cls-4" d="M6.18,6.95a.1.1,0,0,1,0,.09Z"/><path class="cls-5" d="M5.53,6.56l.1.1Z"/><path class="cls-5" d="M7,3.84l.11-.11Z"/><path class="cls-6" d="M5.94,2.56a1.91,1.91,0,0,1-.14.56c.48-.32.95-.65,1.41-1-.28.44-.63.91-.93,1.36a1.3,1.3,0,0,0,.58-.14,2,2,0,0,1,.49-.23,1.06,1.06,0,0,1,.55.14,1.27,1.27,0,0,0-.48.11c-.14.09-.21.24-.32.36L7,3.84a2.07,2.07,0,0,1-.5.3c.54.12,1.12.2,1.68.32-.53.11-1.07.2-1.61.3a1.15,1.15,0,0,0,.44.3,3.09,3.09,0,0,1,.56.19c.17.12.21.29.3.49-.14-.07-.24-.25-.47-.26a.18.18,0,0,0-.12,0,1.73,1.73,0,0,1-1-.11c.29.46.64.95,1,1.41-.45-.28-.91-.63-1.36-.93a1.28,1.28,0,0,0,.15.6A1.37,1.37,0,0,1,6.24,7a1.25,1.25,0,0,1-.14.48.83.83,0,0,0-.47-.8l-.1-.1A2.2,2.2,0,0,1,5.22,6c-.08.4-.16.83-.23,1.25a1.54,1.54,0,0,1-.09.4c-.1-.52-.19-1.05-.29-1.57a1.11,1.11,0,0,0-.29.44c-.09.22-.11.49-.26.64a1.32,1.32,0,0,1-.42.22c.07-.13.24-.24.26-.44a.26.26,0,0,0,0-.15c0-.11,0-.19,0-.3V6.39A1.83,1.83,0,0,1,4,5.81c-.46.29-.93.65-1.41,1,.31-.45.63-.89.93-1.35a1.32,1.32,0,0,0-.6.15,1.35,1.35,0,0,1-.52.23,1.24,1.24,0,0,1-.49-.14,1,1,0,0,0,.54-.14c.14-.12.23-.3.37-.43a2,2,0,0,1,.5-.3L1.64,4.47c.52-.12,1.07-.2,1.61-.3A.6.6,0,0,0,3,4a1.43,1.43,0,0,0-.26-.13,2.36,2.36,0,0,1-.57-.21A1,1,0,0,1,2,3.19c.13.08.24.24.44.27s.29,0,.46,0H3a1.75,1.75,0,0,1,.6.13c-.28-.46-.64-.92-.95-1.4.46.3.89.62,1.34.92a1.39,1.39,0,0,0-.13-.59c-.09-.2-.24-.33-.24-.56a1.39,1.39,0,0,1,.14-.47A1.05,1.05,0,0,0,3.87,2a1.87,1.87,0,0,0,.23.17,1.68,1.68,0,0,1,.5.68c.11-.54.21-1.11.31-1.67.13.51.2,1.07.31,1.6a1.12,1.12,0,0,0,.3-.44c.1-.24.11-.52.29-.67a1.54,1.54,0,0,1,.38-.18s0,.05,0,.07a.72.72,0,0,0-.22.4c0,.15,0,.29,0,.47Zm-1.39.88a1.43,1.43,0,0,1,.33-.05c0-.57,0-1.16,0-1.71C4.77,2.27,4.66,2.85,4.56,3.44Zm.38-.05a1.42,1.42,0,0,1,.32.05c-.11-.59-.21-1.19-.32-1.77Zm.49-.75c-.05.08-.19.19-.2.26a1.07,1.07,0,0,0,0,.26c0,.09,0,.17.05.25a2.91,2.91,0,0,0,.32-.8,2.73,2.73,0,0,1,.23-.89s0,0,0,0C5.61,1.92,5.61,2.36,5.42,2.64Zm.28,0a3.68,3.68,0,0,1-.3.79l.32-.23a1.93,1.93,0,0,0,.16-.84c0-.23-.07-.47,0-.6A2.36,2.36,0,0,0,5.7,2.61ZM4.57,3a.92.92,0,0,0-.14-.3,1.79,1.79,0,0,0-.18-.27c-.18-.21-.47-.3-.54-.58a.46.46,0,0,0,0,.12,4,4,0,0,0,.44.66,3.43,3.43,0,0,1,.34.77C4.51,3.22,4.59,3.1,4.57,3Zm-.7-.48A1.51,1.51,0,0,1,4,3.12c.15.1.29.21.44.3-.13-.68-.6-1-.82-1.58A1.23,1.23,0,0,0,3.87,2.49ZM3,2.47c.41.39.8.81,1.22,1.2a1.64,1.64,0,0,1,.26-.19C3.94,3.16,3.44,2.78,3,2.47Zm2.42,1a1,1,0,0,1,.26.18c.41-.39.84-.81,1.21-1.21C6.36,2.81,5.86,3.14,5.38,3.49Zm-2.46-1c.35.48.68,1,1,1.47a1.57,1.57,0,0,1,.18-.27C3.73,3.32,3.31,2.89,2.92,2.52ZM5.69,3.73A1.53,1.53,0,0,1,5.88,4c.33-.49.7-1,1-1.48C6.5,2.92,6.08,3.31,5.69,3.73Zm1.17-.3a1.53,1.53,0,0,1-.62.14c-.1.15-.21.29-.3.44a2.57,2.57,0,0,0,.83-.37,2.88,2.88,0,0,1,.75-.45C7.22,3.17,7.07,3.34,6.86,3.43Zm.26,0A3.28,3.28,0,0,1,6,4.06c.15,0,.26.08.41.06A.94.94,0,0,0,6.7,4,1.92,1.92,0,0,0,7,3.8c.21-.19.3-.47.59-.54A.91.91,0,0,0,7.13,3.46Zm-4.06.22A3.63,3.63,0,0,1,3.85,4c-.12-.09-.12-.24-.23-.33a1.1,1.1,0,0,0-.3-.1A1.78,1.78,0,0,0,3,3.47c-.22,0-.41.06-.6,0s-.12-.05-.18-.05A3,3,0,0,0,3.07,3.67Zm.83.84a1,1,0,0,0,1,1,1,1,0,0,0,.1-2,1,1,0,0,0-1.12,1A.12.12,0,0,0,3.9,4.51Zm-1-.68A1.61,1.61,0,0,1,3.12,4c.08.05.17.16.23.17a1,1,0,0,0,.26,0L3.86,4a3.28,3.28,0,0,0-.79-.32,2.81,2.81,0,0,1-.89-.22h0C2.3,3.72,2.6,3.72,2.87,3.84Zm-.75.59H3.83a1.33,1.33,0,0,1,.05-.32h0ZM6,4.43c.57,0,1.16,0,1.71,0L5.93,4.11A1.15,1.15,0,0,1,6,4.43Zm-2.09.38a1.27,1.27,0,0,1-.05-.32c-.57,0-1.15,0-1.7,0ZM6,4.49a1.17,1.17,0,0,1-.05.32c.59-.11,1.19-.2,1.77-.32Zm1,.6A1.73,1.73,0,0,1,6.7,5c-.06,0-.2-.19-.23-.18s-.35.08-.5.09a2.27,2.27,0,0,0,.8.33,3,3,0,0,1,.89.23C7.53,5.21,7.23,5.2,7,5.09ZM3.39,4.8a1.89,1.89,0,0,0-.59.37c-.18.17-.28.45-.56.5A1.86,1.86,0,0,0,3,5.23a3.81,3.81,0,0,1,.81-.38C3.66,4.87,3.5,4.76,3.39,4.8ZM3,5.29a2.52,2.52,0,0,1-.75.44A1.27,1.27,0,0,0,3,5.49a1.62,1.62,0,0,1,.6-.14,3.91,3.91,0,0,0,.31-.44A2.8,2.8,0,0,0,3,5.29Zm.9-.36c-.33.5-.7,1-1,1.48.39-.41.81-.8,1.2-1.22A1.45,1.45,0,0,1,3.93,4.93Zm1.76.28C6.1,5.59,6.5,6,6.9,6.4c-.35-.48-.68-1-1-1.47A1.51,1.51,0,0,1,5.69,5.21ZM7,5.44a1.13,1.13,0,0,1,.67,0,2.43,2.43,0,0,0-.88-.23A3.69,3.69,0,0,1,6,5a3.11,3.11,0,0,1,.22.32,2,2,0,0,0,.68.16A.12.12,0,0,0,7,5.44Zm-2.8-.2c-.39.41-.83.81-1.19,1.21.49-.35,1-.68,1.47-1A1.43,1.43,0,0,1,4.16,5.24Zm2.7,1.2-1.2-1.2a3.07,3.07,0,0,1-.28.19C5.87,5.76,6.37,6.13,6.86,6.44Zm-2.3-1c.11.59.21,1.19.33,1.77V5.53A1.13,1.13,0,0,1,4.56,5.48Zm.7,0a.89.89,0,0,1-.32.05c0,.57,0,1.16,0,1.71C5,6.65,5.18,6.06,5.25,5.48Zm.93,1.47c-.11-.4-.39-.63-.38-1.15-.15-.1-.29-.21-.44-.3a2.93,2.93,0,0,0,.37.84A3.23,3.23,0,0,1,6.15,7s0,.13,0,.09V7h0A.1.1,0,0,0,6.18,6.95Zm-2-.61A3.33,3.33,0,0,1,4,7.21c.2-.15.2-.43.32-.7a1.59,1.59,0,0,1,.14-.26c.05-.07.16-.17.17-.22a4.82,4.82,0,0,0-.1-.51A2.69,2.69,0,0,0,4.18,6.33Zm-.09-.59a1.9,1.9,0,0,0-.16.82c0,.25.07.5,0,.63a2.21,2.21,0,0,0,.24-.88,2.83,2.83,0,0,1,.31-.8C4.3,5.59,4.2,5.67,4.09,5.75Zm1.15.2a.91.91,0,0,0,.14.29,1.43,1.43,0,0,0,.18.25c.19.23.46.32.55.6a1,1,0,0,0-.26-.49,3.27,3.27,0,0,1-.53-1h0C5.31,5.71,5.23,5.82,5.24,5.94Z"/><path class="cls-3" d="M5.86,1.71s0,0,0,0a2.73,2.73,0,0,0-.23.89,2.91,2.91,0,0,1-.32.8c0-.08,0-.16-.05-.25a1.07,1.07,0,0,1,0-.26c0-.07.15-.19.2-.26C5.61,2.36,5.61,1.92,5.86,1.71Z"/><path class="cls-3" d="M5.93,1.73c-.11.14-.05.37,0,.6a1.93,1.93,0,0,1-.16.84L5.4,3.4a3.68,3.68,0,0,0,.3-.79A2.36,2.36,0,0,1,5.93,1.73Z"/><path class="cls-3" d="M4.44,3.49a1.64,1.64,0,0,0-.26.19c-.42-.39-.8-.81-1.22-1.2C3.44,2.78,3.94,3.16,4.44,3.49Z"/><path class="cls-3" d="M6.85,2.46c-.37.4-.8.82-1.21,1.21a1,1,0,0,0-.26-.18C5.86,3.14,6.36,2.81,6.85,2.46Z"/><path class="cls-3" d="M4.12,3.72A1.57,1.57,0,0,0,3.94,4c-.35-.48-.68-1-1-1.47C3.31,2.89,3.73,3.32,4.12,3.72Z"/><path class="cls-3" d="M6.89,2.51c-.31.48-.68,1-1,1.48a1.53,1.53,0,0,0-.19-.26C6.08,3.31,6.5,2.92,6.89,2.51Z"/><path class="cls-6" d="M4.31,4.24s0-.06,0-.07-.07,0-.12.05.48-.24.52,0c0,0-.06-.05-.1-.07a.23.23,0,0,1-.1.15c.07,0,.1-.09.17-.06-.07.18-.4.08-.42,0S4.29,4.24,4.31,4.24Zm.11,0c-.05,0,0-.12,0-.14S4.33,4.31,4.42,4.28Z"/><path class="cls-6" d="M5.54,4.22c-.07.12-.34.16-.42,0l0,0c.06,0,.09.06.14.07s-.09-.07-.08-.15-.06.06-.11.07c0-.23.47-.14.52,0a.23.23,0,0,1-.1-.05s0,0,0,.07S5.51,4.22,5.54,4.22Zm-.13-.08s0,.12,0,.14l.09,0a.29.29,0,0,0,0-.09S5.42,4.13,5.41,4.14Z"/><path class="cls-3" d="M3.9,4.41A1,1,0,0,1,5,3.45a1,1,0,0,1-.1,2,1,1,0,0,1-1-1Zm.64-.52a.51.51,0,0,0-.4.16c.13,0,.26-.08.41-.06s.16.08.24.11A.49.49,0,0,0,4.54,3.89Zm.81,0A.42.42,0,0,0,5,4.1.63.63,0,0,1,5.42,4c.09,0,.17.09.25.06A.53.53,0,0,0,5.35,3.89Zm-1.07.33c0,.08.36.19.42,0-.07,0-.1.06-.17.06a.23.23,0,0,0,.1-.15s.06.06.1.07c0-.23-.46-.13-.52,0s.07,0,.12-.05,0,0,0,.07S4.3,4.22,4.28,4.22Zm1.23,0s0,0,0-.07a.23.23,0,0,0,.1.05c-.06-.14-.48-.24-.52,0,0,0,.06-.06.11-.07s.08.12.08.15-.08-.06-.14-.07l0,0c.08.14.35.1.42,0S5.52,4.24,5.5,4.24Zm-.75.29c-.08,0-.06.11-.12.14s-.12,0-.11.09a.35.35,0,0,1,.26-.06c.05,0,.08,0,.13,0s.07,0,.12,0a.39.39,0,0,1,.26.06c0-.07-.07-.08-.14-.1s0-.13-.1-.14,0,0,0,.1a.07.07,0,0,1-.1,0c0,.09-.09.06-.15.07s0,0,0-.05S4.7,4.59,4.76,4.53ZM4.37,5s0-.06.05-.06a1.44,1.44,0,0,0,.41.17,1.06,1.06,0,0,0,.57-.17s0,.05.05.06,0-.12-.09-.12,0,0,0,0S5.17,4.85,5,4.85a1.59,1.59,0,0,1-.19,0l-.09,0c-.12,0-.22.1-.35.07s0,0,0-.06S4.35,4.94,4.37,5Zm.46.22A.39.39,0,0,0,5,5.2S4.85,5.17,4.83,5.21Z"/><path class="cls-3" d="M4.39,4.13s0,.13,0,.14S4.29,4.15,4.39,4.13Z"/><path class="cls-3" d="M5.48,4.16a.29.29,0,0,1,0,.09l-.09,0s.06-.11,0-.14S5.46,4.15,5.48,4.16Z"/><path class="cls-3" d="M7.66,5.41a3,3,0,0,0-.89-.23A2.27,2.27,0,0,1,6,4.86c.15,0,.35-.06.5-.09s.17.14.23.18A1.73,1.73,0,0,0,7,5.09C7.23,5.2,7.53,5.21,7.66,5.41Z"/><path class="cls-6" d="M4.44,4.86s0,0,0,.06.23-.07.35-.07l.09,0a1.59,1.59,0,0,0,.19,0c.12,0,.22.09.35.07s0,0,0,0,.08.06.09.12,0-.05-.05-.06a1.06,1.06,0,0,1-.57.17,1.44,1.44,0,0,1-.41-.17s0,0-.05.06S4.41,4.89,4.44,4.86ZM4.62,5A.85.85,0,0,0,5.2,5,1.7,1.7,0,0,0,4.62,5Z"/><path class="cls-3" d="M4.12,5.19c-.39.42-.81.8-1.2,1.22.31-.48.68-1,1-1.48A1.45,1.45,0,0,0,4.12,5.19Z"/><path class="cls-3" d="M5.87,4.93c.35.48.68,1,1,1.47-.4-.36-.8-.8-1.21-1.19A1.51,1.51,0,0,0,5.87,4.93Z"/><path class="cls-3" d="M6.86,5.44a2,2,0,0,1-.68-.16A3.11,3.11,0,0,0,6,5a3.69,3.69,0,0,0,.79.3,2.43,2.43,0,0,1,.88.23,1.13,1.13,0,0,0-.67,0Z"/><path class="cls-3" d="M4.44,5.42c-.48.35-1,.68-1.47,1,.36-.4.8-.8,1.19-1.21A1.43,1.43,0,0,0,4.44,5.42Z"/><path class="cls-3" d="M5.38,5.43a3.07,3.07,0,0,0,.28-.19l1.2,1.2C6.37,6.13,5.87,5.76,5.38,5.43Z"/><path class="cls-3" d="M4.49,5.51a4.82,4.82,0,0,1,.1.51c0,.05-.12.15-.17.22a1.59,1.59,0,0,0-.14.26c-.12.27-.12.56-.32.7a3.33,3.33,0,0,0,.22-.88A2.69,2.69,0,0,1,4.49,5.51Z"/><path class="cls-3" d="M4.42,5.52a2.83,2.83,0,0,0-.31.8,2.21,2.21,0,0,1-.24.88c.12-.14.06-.38,0-.63a1.9,1.9,0,0,1,.16-.82C4.2,5.67,4.3,5.59,4.42,5.52Z"/><path class="cls-6" d="M4.82,4.63s0,0,0,.05S5,4.71,5,4.62a.07.07,0,0,0,.1,0c0-.05,0-.06,0-.1s.06.09.1.14.12,0,.14.1A.39.39,0,0,0,5,4.7s-.08,0-.12,0-.08,0-.13,0a.35.35,0,0,0-.26.06s.06-.08.11-.09,0-.14.12-.14S4.72,4.68,4.82,4.63Z"/><path class="cls-5" d="M3.9,6.82A.26.26,0,0,1,3.9,7Z"/><path class="cls-4" d="M7.28,5.47a.18.18,0,0,1,.12,0Z"/><path class="cls-6" d="M4.8,4.1c-.09,0-.14-.1-.24-.11s-.29.07-.41.06a.51.51,0,0,1,.4-.16A.49.49,0,0,1,4.8,4.1Z"/><path class="cls-6" d="M5.67,4.05c-.09,0-.16-.05-.25-.06A.63.63,0,0,0,5,4.1a.42.42,0,0,1,.33-.21A.53.53,0,0,1,5.67,4.05Z"/><path class="cls-6" d="M5,5.2a.39.39,0,0,1-.16,0S4.95,5.18,5,5.2Z"/></g></g></svg>