<svg xmlns="http://www.w3.org/2000/svg" viewBox="0 0 26.93 15.9"><defs><style>.cls-1{fill:#060;}.cls-2{fill:#060203;}.cls-3,.cls-6{fill:#fdfefd;}.cls-4{fill:#b00;}.cls-5{fill:#fff;}.cls-5,.cls-6{stroke:#221e1f;stroke-width:0.1px;}</style></defs><title>flag_404
</title><g id="レイヤー_2" data-name="レイヤー 2"><g id="flag"><rect class="cls-1" x="0.04" width="26.89" height="15.9"/><rect class="cls-2" y="0.02" width="26.87" height="4.61"/><rect class="cls-3" x="0.06" y="4.45" width="26.81" height="6.89"/><rect class="cls-4" y="5.55" width="26.87" height="4.55"/><path class="cls-4" d="M13.39,3a6.35,6.35,0,0,0-2.45,5,6.57,6.57,0,0,0,2.43,5.26.52.52,0,0,0,.24,0A6.59,6.59,0,0,0,16,8.09a5.66,5.66,0,0,0-2.38-5A.62.62,0,0,0,13.39,3Z"/><ellipse class="cls-3" cx="13.53" cy="8.12" rx="0.4" ry="0.66"/><path class="cls-3" d="M13.39,3.14l0,4.22A4.34,4.34,0,0,1,13,5.31,4.85,4.85,0,0,1,13.39,3.14Z"/><path class="cls-3" d="M13.37,8.85l0,4.22A4.38,4.38,0,0,1,12.95,11,4.88,4.88,0,0,1,13.37,8.85Z"/><path class="cls-3" d="M13.6,3.23l0,4.22A4.34,4.34,0,0,0,14,5.4,4.8,4.8,0,0,0,13.6,3.23Z"/><path class="cls-3" d="M13.61,8.94l0,4.22A4.35,4.35,0,0,0,14,11.11,4.8,4.8,0,0,0,13.61,8.94Z"/><path class="cls-2" d="M11.47,5.52s1.18,2.83,0,5.12A6.17,6.17,0,0,1,11.47,5.52Z"/><path class="cls-2" d="M15.53,5.44s1.18,2.83,0,5.12A6.17,6.17,0,0,1,15.53,5.44Z"/><path class="cls-5" d="M15.28,4.81l.14-.23s-.32-.64,1.49-2.41c0,0-.5,2.21-1.27,2.46l-.23.42S15.41,5,15.28,4.81Z"/><path class="cls-6" d="M11.8,4.9l-.14-.23S12,4,10.17,2.26c0,0,.5,2.21,1.27,2.46l.23.43S11.67,5.1,11.8,4.9Z"/><polygon class="cls-5" points="11.62 11.11 10.42 13.15 10.63 13.31 11.8 11.36 11.62 11.11"/><polygon class="cls-6" points="15.32 11.02 16.52 13.06 16.31 13.22 15.14 11.27 15.32 11.02"/></g></g></svg>