<svg xmlns="http://www.w3.org/2000/svg" viewBox="0 0 26.98 15.95"><defs><style>.cls-1{fill:#ffd520;}.cls-2{fill:none;}.cls-3{fill:#fff;}.cls-3,.cls-4,.cls-5,.cls-6{fill-rule:evenodd;}.cls-4{fill:#ff4e12;}.cls-5{fill:#e71e18;}</style></defs><title>flag_064</title><g id="レイヤー_2" data-name="レイヤー 2"><g id="flag"><rect class="cls-1" x="0.01" width="26.89" height="15.9"/><polygon class="cls-2" points="21.68 3.3 0.08 15.93 26.97 15.93 26.97 0.02 21.68 3.3"/><path class="cls-3" d="M20.9,4A.56.56,0,0,0,20.75,4c.11-.12,0-.31.12-.48s.29-.21.36-.37,0-.28.1-.36.41-.2.45-.39c.06.26-.33.35-.39.63s0,.25,0,.36-.11.14-.15.22-.07.2-.1.26S20.93,4,20.9,4Z"/><path class="cls-3" d="M16.17,3a.46.46,0,0,1,.42.1s0,0,0,0A1.19,1.19,0,0,0,16.17,3Z"/><path class="cls-3" d="M16.72,3.54c-.07,0-.2,0-.25.07-.28-.19-.67-.65-1.16-.44.3-.31.91,0,1.18.15A.39.39,0,0,1,17.08,3C16.74,3,16.58,3.25,16.72,3.54Z"/><path class="cls-3" d="M18.14,3.55c-.16-.1-.33,0-.49,0a1.83,1.83,0,0,1-.44-.2,1.76,1.76,0,0,1-.37-.26c.08,0,.2,0,.29-.06a1.88,1.88,0,0,0,.39.23C17.76,3.33,18.08,3.34,18.14,3.55Z"/><path class="cls-3" d="M16.76,3.13a2.26,2.26,0,0,1,.57.44s-.15,0-.22,0a1.28,1.28,0,0,0-.41-.35A.92.92,0,0,1,16.76,3.13Z"/><path class="cls-3" d="M16.7,3.26a1.13,1.13,0,0,1,.35.29c-.07,0-.21,0-.32,0A.91.91,0,0,1,16.7,3.26Z"/><path class="cls-3" d="M15.37,3.51a1.38,1.38,0,0,0-.39,0c.07-.08.29-.07.42,0S15.36,3.47,15.37,3.51Z"/><path class="cls-3" d="M16.28,3.68c-.17,0-.35-.15-.56-.17C15.93,3.36,16.15,3.59,16.28,3.68Z"/><path class="cls-3" d="M18.17,3.56a.76.76,0,0,1,.82.06.46.46,0,0,0,0,.26C18.56,3.89,18.42,3.68,18.17,3.56Z"/><path class="cls-3" d="M16.13,3.81l-.25-.13c-.08,0-.19-.06-.24-.13.21-.06.41.12.62.16C16.23,3.75,16.2,3.8,16.13,3.81Z"/><path class="cls-3" d="M22.26,3.55c0,.26-.44.22-.66.35s-.23.23-.36.28-.19,0-.27,0,0-.12-.08-.15,0,0,0,0,.23-.18.34-.26.11-.16.25-.19S22.12,3.7,22.26,3.55Z"/><path class="cls-3" d="M15.64,3.61a1.11,1.11,0,0,1,.42.22c-.07,0-.09,0-.15.06S15.67,3.76,15.64,3.61Z"/><path class="cls-3" d="M23,4.06c.07,0-.06.07-.12.09-.24.08-.69,0-1,.09s-.28.14-.44.19a2.05,2.05,0,0,1-.68.12h0c.07-.09.16-.25.29-.31s.34,0,.54-.06.3-.17.56-.17S22.66,4.15,23,4.06Z"/><path class="cls-3" d="M14.67,4c.12.24.64.13.93.23a1,1,0,0,1-.89,0A.33.33,0,0,1,14.67,4Z"/><path class="cls-3" d="M18.81,4.51a.23.23,0,0,0-.08.07c-.36,0-.29-.59.15-.5,0,0,0,0,0,0C18.69,4.16,18.7,4.4,18.81,4.51Z"/><path class="cls-3" d="M19,4.13c-.06,0-.13.19,0,.26s-.08,0-.09.1S18.7,4.09,19,4.13Z"/><path class="cls-3" d="M15.34,4.35c.07,0-.05.08-.07.12-.45,0-.82.16-1.3.06a1.1,1.1,0,0,1,.76-.25A1.83,1.83,0,0,0,15.34,4.35Z"/><path class="cls-3" d="M20.11,4.79a2.7,2.7,0,0,0,.08-.32C20.45,4.49,20.33,4.81,20.11,4.79Z"/><path class="cls-3" d="M20.83,4.56c0,.09-.07.07-.14.06S20.76,4.55,20.83,4.56Z"/><path class="cls-3" d="M18.39,5.15c-.2,0-.27-.3-.47-.26s-.1.07-.12.18-.12.1-.1.17.18.07.22.15c-.45.05-.74-.28-.61-.58S18.69,4.58,18.39,5.15Zm-.32-.44c-.06-.11-.33-.07-.34,0C17.81,4.63,18,4.68,18.07,4.72Zm-.54.23c-.05,0,0-.12-.07-.12s0,.1.05.13.2,0,.17-.07S17.61,5,17.53,4.95Zm0,.19c0,.1,0-.12,0,0Z"/><path class="cls-3" d="M20.68,4.63s.11,0,.1.1a.31.31,0,0,1-.12,0C20.65,4.69,20.68,4.68,20.68,4.63Z"/><path class="cls-3" d="M14.46,5c-.09,0,0-.19,0-.25a1.08,1.08,0,0,1,.19,0A1,1,0,0,0,14.46,5Z"/><path class="cls-3" d="M14.65,4.7H15c.12.35-.41.47-.49.25S14.61,4.8,14.65,4.7Z"/><path class="cls-3" d="M15.36,5A.38.38,0,0,1,15,4.92a.65.65,0,0,0,0-.22l.44,0c.06,0-.06.09-.08.12S15.34,4.91,15.36,5Z"/><path class="cls-3" d="M17.13,5a2.35,2.35,0,0,1-1.18-.2l.56-.09C16.74,4.79,16.84,5,17.13,5Z"/><path class="cls-3" d="M15.68,4.77a4.09,4.09,0,0,0-.27.32C15.31,4.94,15.47,4.67,15.68,4.77Z"/><path class="cls-3" d="M20.65,4.76c.05,0,.09,0,.08.09h-.07S20.65,4.8,20.65,4.76Z"/><path class="cls-3" d="M19.25,4.82a3.42,3.42,0,0,1-.46.29A.46.46,0,0,1,19.25,4.82Z"/><path class="cls-3" d="M19.27,4.83c.07,0,.18,0,.25,0s-.15.13-.2.2S19.33,4.87,19.27,4.83Z"/><path class="cls-3" d="M20.46,5.2c0,.15-.22.23-.25.42s0,.48-.13.6c0-.06,0-.1,0-.15,0-.21-.12-.45-.07-.64s.21-.17.19-.32a.42.42,0,0,0,.42-.25c.31.26-.11.55-.07.89C20.4,5.67,20.41,5.39,20.46,5.2Z"/><path class="cls-3" d="M18.05,5.39s-.09,0-.08,0a2.36,2.36,0,0,0-.25-.16c0-.12.13-.19.15-.32a.28.28,0,0,1,.2,0c0,.06-.07.11-.08.19A.45.45,0,0,0,18.05,5.39Z"/><path class="cls-3" d="M14.41,4.92s0,0,0,.06a1.48,1.48,0,0,0-.1.34C14.17,5.26,14.25,4.93,14.41,4.92Z"/><path class="cls-3" d="M14.89,5.05c.07.28-.27.4-.47.26a.4.4,0,0,1,.1-.38C14.54,5.06,14.74,5.11,14.89,5.05Z"/><path class="cls-3" d="M15.12,5.33a.87.87,0,0,1-.22-.13c0-.15,0-.19.1-.26a.39.39,0,0,0,.35.06C15.41,5.19,15.24,5.25,15.12,5.33Z"/><path class="cls-3" d="M20,5.08a1,1,0,0,1-.3,0s.11-.11.07-.17A.48.48,0,0,1,20,5.08Z"/><path class="cls-3" d="M18.22,5.33c-.07,0-.08,0-.15,0a.32.32,0,0,1,0-.38c.07,0,.1.08.15.12A.36.36,0,0,0,18.22,5.33Z"/><path class="cls-3" d="M16.13,5s0,.06,0,.12a.53.53,0,0,1-.34,0A.31.31,0,0,1,16.13,5Z"/><path class="cls-3" d="M16.47,5.14c0,.07-.09.12-.08.22a.65.65,0,0,0-.29.15A1.68,1.68,0,0,1,16.17,5C16.27,5.06,16.35,5.12,16.47,5.14Z"/><path class="cls-3" d="M18.37,5.17a.19.19,0,0,1-.13.13s0-.13,0-.18S18.3,5.18,18.37,5.17Z"/><path class="cls-3" d="M18.68,5.27a.58.58,0,0,0,.07-.13,6.6,6.6,0,0,1,1,.26c0,.05-.09.07-.15.09A7.9,7.9,0,0,0,18.68,5.27Z"/><path class="cls-3" d="M16.49,5.18c0-.06.07,0,.1,0a1.87,1.87,0,0,0,.35,0C16.81,5.37,16.51,5.29,16.49,5.18Z"/><path class="cls-3" d="M15.64,5.39c0-.09.08-.14.12-.2a.67.67,0,0,0,.33,0,.49.49,0,0,1,0,.23A.58.58,0,0,1,15.64,5.39Z"/><path class="cls-3" d="M21.74,5.5c.32.05.78.12.64.47-.15-.6-1.2-.13-1.79-.17,0,0,0-.05,0-.1.31,0,.66-.23.3-.39a.27.27,0,0,1,.39.31c.12,0,.23-.1.24-.2s-.1-.15-.13-.2A.31.31,0,0,1,21.74,5.5Z"/><path class="cls-3" d="M14.89,5.21a.92.92,0,0,0,.24.13.38.38,0,0,1-.25.12A.25.25,0,0,1,14.89,5.21Z"/><path class="cls-3" d="M16.62,5.31c-.05,0-.16,0-.22,0a.31.31,0,0,1,.05-.15C16.52,5.23,16.56,5.29,16.62,5.31Z"/><path class="cls-3" d="M14.8,5.33s0,.09.05.13c-.15,0-.36,0-.51,0s0-.13,0-.22C14.4,5.4,14.7,5.43,14.8,5.33Z"/><path class="cls-3" d="M14.35,5.33a.46.46,0,0,0,0,.16.26.26,0,0,0-.12,0,.22.22,0,0,1,0-.23C14.31,5.28,14.29,5.34,14.35,5.33Z"/><path class="cls-3" d="M19.4,5.66s0,0,0,.06c-.35,0-.48-.24-.76-.32,0-.06,0-.06,0-.12.24,0,.26.19.49.19C19.22,5.55,19.33,5.59,19.4,5.66Z"/><path class="cls-3" d="M16.08,5.42a.66.66,0,0,0,0,.19c-.19.11-.48.05-.44-.2A.62.62,0,0,0,16.08,5.42Z"/><path class="cls-3" d="M16.38,5.5c.23-.06.24.19.37.26a.19.19,0,0,1-.13.07C16.58,5.69,16.36,5.7,16.38,5.5Z"/><path class="cls-3" d="M17,5.71c0,.06-.14,0-.2.06a3.11,3.11,0,0,0-.22-.26C16.77,5.45,16.86,5.62,17,5.71Z"/><path class="cls-3" d="M16.82,5.53c.14,0,.32,0,.47,0-.07.11-.13.25-.27.23S16.91,5.59,16.82,5.53Z"/><path class="cls-3" d="M20,5.5l0,0v.12a1.61,1.61,0,0,0-.22-.09A.27.27,0,0,1,20,5.5Z"/><path class="cls-3" d="M15.71,5.63s0,0,0,.06,0-.06,0-.09Z"/><path class="cls-3" d="M16.1,5.87c-.21.15-.59,0-.37-.22.1.07.23,0,.34,0A2.14,2.14,0,0,1,16.1,5.87Z"/><path class="cls-3" d="M20.58,5.78a1.22,1.22,0,0,1-.35,0v-.1A.53.53,0,0,1,20.58,5.78Z"/><path class="cls-3" d="M16.6,5.85a1,1,0,0,1-.15,0,.54.54,0,0,1-.07-.23A.47.47,0,0,1,16.6,5.85Z"/><path class="cls-3" d="M17.8,5.66a3.67,3.67,0,0,1-.4.25l-.2-.06A.59.59,0,0,1,17.8,5.66Z"/><path class="cls-3" d="M15.49,6.07A.39.39,0,0,1,15,5.8C15.26,5.71,15.38,5.92,15.49,6.07Z"/><path class="cls-3" d="M15.86,6c0,.1-.13.12-.18.12a.32.32,0,0,1-.3-.22.26.26,0,0,0,.25-.09C15.66,5.88,15.7,6,15.86,6Z"/><path class="cls-3" d="M15,5.87c-.11.14-.51.1-.54-.07a3.57,3.57,0,0,0,.52,0S15,5.83,15,5.87Z"/><path class="cls-3" d="M16.1,5.87a1.45,1.45,0,0,1,.1.26.36.36,0,0,1-.27,0A.25.25,0,0,1,15.88,6,.36.36,0,0,0,16.1,5.87Z"/><path class="cls-3" d="M17.88,6.38c-.21.06-.33-.13-.47-.23A1.53,1.53,0,0,0,17,6s.1,0,.12-.09C17.56,5.89,17.58,6.26,17.88,6.38Z"/><path class="cls-3" d="M15,5.9a.61.61,0,0,1,.12.15c-.11.13-.66.23-.51-.09C14.7,6,14.89,6,15,5.9Z"/><path class="cls-3" d="M16.47,5.9c.08,0,.11,0,.2,0s.19.19.19.28C16.58,6.25,16.52,6.07,16.47,5.9Z"/><path class="cls-3" d="M21.23,6.92a.43.43,0,0,0-.51-.28s.07,0,.08.07A1.72,1.72,0,0,0,20.9,7a.35.35,0,0,1-.34,0l-.15-.06a.56.56,0,0,1,.27-1,.66.66,0,0,1,.81.5c-.07,0-.1,0-.17,0C21.54,6.54,21.43,6.86,21.23,6.92Zm-.17-.66c.05-.05-.07,0-.13,0l-.1-.07a.22.22,0,0,0,.25.2c-.11,0-.2-.05-.22-.14A.4.4,0,0,0,21.07,6.26Zm0,.2H21a.52.52,0,0,1-.34-.16A.38.38,0,0,0,21.08,6.47Z"/><path class="cls-3" d="M15.26,6.12a.23.23,0,0,0,.12.2c-.11.1-.31.25-.47.16s-.1-.17-.14-.29c.15,0,.25-.13.34-.13S15.2,6.1,15.26,6.12Z"/><path class="cls-3" d="M15.27,6.12c.22-.05.38,0,.57-.06C16.06,6.36,15.24,6.51,15.27,6.12Z"/><path class="cls-3" d="M19.33,6.19a.39.39,0,0,1-.49.2c.13-.06.18-.19.3-.26A1.17,1.17,0,0,0,19.33,6.19Z"/><path class="cls-3" d="M16.23,6.15c0,.08.1.12.13.2s-.53.23-.62,0,.15-.11.17-.22C16,6.22,16.13,6.17,16.23,6.15Z"/><path class="cls-3" d="M19.57,6.22c.08,0,.18,0,.22-.07s.13.4,0,.44C19.76,6.39,19.54,6.41,19.57,6.22Z"/><path class="cls-3" d="M19.4,6.6c-.18,0-.16-.31-.05-.39s.12,0,.2,0C19.62,6.41,19.33,6.42,19.4,6.6Z"/><path class="cls-3" d="M17,6.57A.75.75,0,0,0,17,6.29a1.5,1.5,0,0,0,.35.1C17.32,6.52,17.2,6.58,17,6.57Z"/><path class="cls-3" d="M15.73,6.35c0,.05,0,.07.07.1-.06.22-.53.23-.6,0a.46.46,0,0,0,.17-.12A.64.64,0,0,0,15.73,6.35Z"/><path class="cls-3" d="M16.37,6.35a.86.86,0,0,1,.2.26c-.08.2-.66.34-.57-.09A.39.39,0,0,0,16.37,6.35Z"/><path class="cls-3" d="M17.38,6.41a2.8,2.8,0,0,1,.3.09c0,.22-.2.23-.4.2,0,0,0-.1-.05-.13S17.36,6.49,17.38,6.41Z"/><path class="cls-3" d="M21.45,6.55s-.1-.08-.07-.1a.37.37,0,0,1,.37.13.63.63,0,0,1,.08.23.2.2,0,0,1-.24.1C21.46,6.88,21.5,6.7,21.45,6.55Z"/><path class="cls-3" d="M15.39,6.64a.39.39,0,0,0,.42-.18c.05,0,.08.06.17.06s0,.15,0,.17C15.88,6.85,15.38,7,15.39,6.64Z"/><path class="cls-3" d="M17.6,6.7c.06,0,.12-.07.1-.17a.75.75,0,0,1,.34.2C18,6.94,17.66,6.77,17.6,6.7Z"/><path class="cls-3" d="M17.09,6.87c0-.12-.15-.17-.17-.29a1.1,1.1,0,0,0,.29,0C17.28,6.67,17.24,6.87,17.09,6.87Z"/><path class="cls-3" d="M16.79,7c-.16.18-.65.16-.61-.16a.47.47,0,0,0,.39-.2A2.14,2.14,0,0,1,16.79,7Z"/><path class="cls-3" d="M20.93,7c-.07-.09-.08-.3-.14-.35C21.09,6.56,21.43,7.11,20.93,7Z"/><path class="cls-3" d="M17.77,6.82c0,.1-.13.12-.27.12a.41.41,0,0,0,0-.22C17.62,6.68,17.66,6.8,17.77,6.82Z"/><path class="cls-3" d="M17.21,7a.43.43,0,0,1-.08-.14.18.18,0,0,0,.14-.18,1.25,1.25,0,0,1,.24,0C17.53,6.95,17.42,7,17.21,7Z"/><path class="cls-3" d="M16,6.73c.05,0,.08.11.19.1.12.33-.6.4-.57.06A.59.59,0,0,0,16,6.73Z"/><path class="cls-3" d="M18,6.86s.1,0,.08-.13a3.19,3.19,0,0,0,.39.1C18.43,7,18.05,6.92,18,6.86Z"/><path class="cls-3" d="M15.58,6.89c0,.07,0,.08,0,.13a.38.38,0,0,1-.17.09c-.1,0-.11-.15-.18-.2s.12,0,.15-.1S15.5,6.88,15.58,6.89Z"/><path class="cls-3" d="M11.21,6.82c.13.18.64.09.73.36,0,.06-.05.08,0,.16s-.27,0-.37,0,0-.21-.08-.29S11.21,7,11.21,6.82Z"/><path class="cls-3" d="M18.15,6.95c0,.23-.58.1-.37-.12C18,6.82,18,6.94,18.15,6.95Z"/><path class="cls-3" d="M18.35,7c.06,0,.12,0,.1-.13a1.86,1.86,0,0,0,.35,0C18.94,7.15,18.42,7.1,18.35,7Z"/><path class="cls-3" d="M18.78,7.11c0-.06.15-.13.05-.22.07,0,.21,0,.29,0C19.24,7,19,7.17,18.78,7.11Z"/><path class="cls-3" d="M13.61,7.62c-.18,0-.31-.09-.49-.12a.59.59,0,0,0,0-.34c0-.1-.18-.17-.1-.28a.69.69,0,0,0,.3.19.51.51,0,0,0,.29.38A.26.26,0,0,1,13.61,7.62Z"/><path class="cls-3" d="M18,7.09a.36.36,0,0,1-.44.18A.38.38,0,0,0,17.46,7c.06,0,.2,0,.24,0A.26.26,0,0,0,18,7.09Z"/><path class="cls-3" d="M18.47,7.09c-.06.11-.34.09-.4,0s.09-.07.1-.13A.28.28,0,0,1,18.47,7.09Z"/><path class="cls-3" d="M15.31,7a1.46,1.46,0,0,1,.13.22.89.89,0,0,0-.2.26c-.38.09-.47-.17-.79-.17.14-.15.37,0,.51-.1S15.08,7,15.31,7Z"/><path class="cls-3" d="M16.22,7c0,.06.07.09.12.12a.16.16,0,0,0,0,.16c-.11.2-.66.21-.59-.13C16,7.18,16.08,7.06,16.22,7Z"/><path class="cls-3" d="M17.36,7.41a.78.78,0,0,0-.15-.35c.07,0,.19,0,.22-.07A.24.24,0,0,1,17.36,7.41Z"/><path class="cls-3" d="M19.9,7c.16.19-.14.37-.32.23,0-.06.07-.08,0-.16S19.86,7.06,19.9,7Z"/><path class="cls-3" d="M19.62,7c0,.19-.18.25-.39.2,0-.06,0-.08.05-.12s.24,0,.25-.12S19.57,7.06,19.62,7Z"/><path class="cls-3" d="M15.64,7c0,.06.07.06.1.09a.28.28,0,0,0,.17.31c0,.09-.22.1-.33.07a1.43,1.43,0,0,0-.15-.38C15.54,7.13,15.56,7.05,15.64,7Z"/><path class="cls-3" d="M18.25,7.18a.31.31,0,0,1-.15.2.42.42,0,0,0-.3,0c0-.05,0-.05,0-.1.17,0,.2-.14.3-.2A.23.23,0,0,0,18.25,7.18Z"/><path class="cls-3" d="M19.25,7.15c0,.17-.4.22-.49.07s.08,0,.08-.09C19,7.14,19.13,7,19.25,7.15Z"/><path class="cls-3" d="M12.33,7.22c0,.06,0,.07,0,.13s-.23,0-.37,0C11.89,7.12,12.22,7.09,12.33,7.22Z"/><path class="cls-3" d="M12.73,7.27c0,.06-.06.07,0,.15s-.25,0-.37-.06C12.3,7.16,12.63,7.13,12.73,7.27Z"/><path class="cls-3" d="M11.52,7.37a2.82,2.82,0,0,0-.54.19C10.81,7.27,11.41,7.09,11.52,7.37Z"/><path class="cls-3" d="M19,7.32a.34.34,0,0,1,0,.23l-.19.06c0-.07-.09-.09-.15-.12a.13.13,0,0,0,0-.25C18.77,7.16,18.78,7.34,19,7.32Z"/><path class="cls-3" d="M13.1,7.49c-.14,0-.26-.06-.4-.07C12.69,7.13,13.27,7.24,13.1,7.49Z"/><path class="cls-3" d="M15.44,7.24a.66.66,0,0,1,.09.67A.36.36,0,0,1,15.44,7.24Z"/><path class="cls-3" d="M19.74,7.3a.34.34,0,0,1,0,.15l-.19.12a.18.18,0,0,0-.17-.1.55.55,0,0,0,0-.17A.36.36,0,0,1,19.74,7.3Z"/><path class="cls-3" d="M19.4,7.28a.35.35,0,0,1,0,.16c-.16,0-.28,0-.3.13s-.08,0-.15,0a.24.24,0,0,0,0-.22.33.33,0,0,0,.22-.09A.45.45,0,0,0,19.4,7.28Z"/><path class="cls-3" d="M17.41,7.67a.59.59,0,0,0,0-.22c0-.07.14-.08.15-.17.25-.05.32.19.19.31S17.5,7.69,17.41,7.67Z"/><path class="cls-3" d="M11.79,7.38a2.19,2.19,0,0,1,.49,0C12.45,7.76,11.59,7.73,11.79,7.38Z"/><path class="cls-3" d="M11.53,7.75a.21.21,0,0,1-.22-.28,1.08,1.08,0,0,1,.45-.1c0,.06-.05.12,0,.18A.51.51,0,0,0,11.53,7.75Z"/><path class="cls-3" d="M12.33,7.46s0-.06,0-.09.07,0,.12,0Z"/><path class="cls-3" d="M18.15,7.66a.82.82,0,0,0-.39-.09.86.86,0,0,0,0-.17C18,7.29,18.32,7.48,18.15,7.66Z"/><path class="cls-3" d="M12.6,7.41c-.07.16.15.2,0,.35s-.34.07-.39-.06A.25.25,0,0,1,12.6,7.41Z"/><path class="cls-3" d="M12.92,7.65c-.21,0-.33,0-.3-.23l.34.06C12.95,7.54,12.9,7.57,12.92,7.65Z"/><path class="cls-3" d="M17,7.78c-.29.06-.63-.11-.49-.32a.89.89,0,0,0,.4,0C17,7.54,17,7.67,17,7.78Z"/><path class="cls-3" d="M19.53,7.54a.65.65,0,0,1-.3.19c0-.1,0-.14-.13-.14C19.11,7.42,19.47,7.42,19.53,7.54Z"/><path class="cls-3" d="M18.24,7.47a.56.56,0,0,1,.49.16c-.05.24-.39.1-.57,0C18.23,7.63,18.23,7.54,18.24,7.47Z"/><path class="cls-3" d="M13.35,7.57a.29.29,0,0,0,0,.26c-.28.07-.51-.14-.35-.35Z"/><path class="cls-3" d="M10.52,7.84c-.18-.2.19-.41.4-.28a1.81,1.81,0,0,1-.2.15A1.77,1.77,0,0,1,10.52,7.84Z"/><path class="cls-3" d="M13.61,7.63c.07-.22.53-.08.44.13C13.89,7.73,13.76,7.67,13.61,7.63Z"/><path class="cls-3" d="M16,7.84a.55.55,0,0,1-.39,0,.62.62,0,0,0,0-.28.44.44,0,0,0,.24,0A.29.29,0,0,1,16,7.84Z"/><path class="cls-3" d="M12,7.67a.3.3,0,0,0,0,.22c-.07,0-.15.08-.15.18a.26.26,0,0,1,0-.51A.32.32,0,0,0,12,7.67Z"/><path class="cls-3" d="M16.45,7.57l.15.16c0,.06-.08.15,0,.22-.23.18-.65.06-.57-.28C16.16,7.74,16.4,7.7,16.45,7.57Z"/><path class="cls-3" d="M18.62,7.79c0-.06.12-.09.14-.17s.48-.05.45.09S18.82,7.78,18.62,7.79Z"/><path class="cls-3" d="M13.37,7.59a3.38,3.38,0,0,1,.37.1c0,.05-.07.2,0,.25C13.5,8,13.23,7.81,13.37,7.59Z"/><path class="cls-3" d="M12.33,7.79a.27.27,0,0,0,0,.19c-.26,0-.37-.13-.29-.31a.29.29,0,0,0,.24-.06C12.26,7.68,12.25,7.77,12.33,7.79Z"/><path class="cls-3" d="M13,7.85s0,.05,0,.07c-.25,0-.38-.1-.29-.28a.69.69,0,0,0,.22,0C12.91,7.76,13,7.77,13,7.85Z"/><path class="cls-3" d="M18.73,7.81c0,.2.22.35.13.57-.08-.13-.15-.28-.32-.33,0,.14-.16.26-.08.44-.26,0-.29-.42-.17-.61-.11.07-.21.21-.41.15a.3.3,0,0,0,.19-.35A2,2,0,0,0,18.73,7.81Z"/><path class="cls-3" d="M15.51,7.92c-.08.11-.25.14-.47.13,0-.21-.38-.13-.37-.36a.94.94,0,0,0,.24.1c.1,0,.21,0,.3,0S15.39,7.89,15.51,7.92Z"/><path class="cls-3" d="M10.31,8.08c-.16,0-.27-.08-.39-.1S9.84,8,9.8,8s-.2-.06-.32,0,.16-.09.29-.13.31-.2.54-.13a.56.56,0,0,1,.22.13S10.33,8,10.31,8.08Z"/><path class="cls-3" d="M14.06,7.78c.19-.12.6,0,.59.19Z"/><path class="cls-3" d="M17,7.79c0,.07,0,.11,0,.16s-.22.16-.34.13-.16-.2-.08-.34A.67.67,0,0,0,17,7.79Z"/><path class="cls-3" d="M11.52,8.14c-.17,0-.28-.1-.25-.29.12,0,.15-.1.29-.09a.25.25,0,0,0,.08.23C11.61,8.06,11.54,8.08,11.52,8.14Z"/><path class="cls-3" d="M12.73,7.89c0,.06-.08.1-.07.2s-.15,0-.22.06a.23.23,0,0,1-.1-.35.36.36,0,0,0,.29,0S12.67,7.88,12.73,7.89Z"/><path class="cls-3" d="M11.13,8.14c-.12,0-.24,0-.24-.17s.13-.07.15-.15a.54.54,0,0,0,.2,0s0,.13,0,.16A.72.72,0,0,0,11.13,8.14Z"/><path class="cls-3" d="M13.44,7.92c0,.07-.1.11-.1.2a.31.31,0,0,0-.19.06.22.22,0,0,1-.1-.35C13.18,7.89,13.37,7.81,13.44,7.92Z"/><path class="cls-3" d="M15.78,8.17c-.2,0-.32,0-.34-.17a.23.23,0,0,0,.14-.16c.07,0,.07,0,.13,0C15.73,8,15.85,8,15.78,8.17Z"/><path class="cls-3" d="M14.52,7.94a.31.31,0,0,0-.07.32c-.39.18-.5-.29-.22-.41C14.33,7.87,14.41,7.92,14.52,7.94Z"/><path class="cls-3" d="M16,7.85c0,.13.18.11.17.26-.27,0-.41-.07-.44-.25C15.81,7.9,15.9,7.85,16,7.85Z"/><path class="cls-3" d="M11.84,8.27A.26.26,0,0,1,12,7.91c.13,0,0,.2,0,.31C11.95,8.23,11.9,8.26,11.84,8.27Z"/><path class="cls-3" d="M13,7.94a.22.22,0,0,0,.13.25c0,.09-.16.09-.29.1a.24.24,0,0,1-.08-.38A.48.48,0,0,0,13,7.94Z"/><path class="cls-3" d="M15,8c-.08,0-.2,0-.29,0C14.78,7.89,14.93,8,15,8Z"/><path class="cls-3" d="M11.13,8.16v.12c-.14,0-.17.1-.25.15a.24.24,0,0,1-.25-.16A.64.64,0,0,0,10.84,8C10.91,8,11,8.16,11.13,8.16Z"/><path class="cls-3" d="M14.52,8a3.07,3.07,0,0,0,.4.09.32.32,0,0,0-.1.35A.27.27,0,0,1,14.52,8Z"/><path class="cls-3" d="M12.44,8.17s0,0,0,.06-.29-.05-.34,0A.23.23,0,0,1,12,8a.51.51,0,0,0,.24,0A.32.32,0,0,0,12.44,8.17Z"/><path class="cls-3" d="M16.18,8.05A.65.65,0,0,0,16.55,8l.15.13C16.75,8.4,16.09,8.45,16.18,8.05Z"/><path class="cls-3" d="M16.72,8.1c.16,0,.23-.06.34-.1v.42C16.86,8.38,16.74,8.29,16.72,8.1Z"/><path class="cls-3" d="M15.41,8s.05.12.12.15-.07.15,0,.2c-.2.21-.53-.08-.35-.28C15.24,8.05,15.37,8.07,15.41,8Z"/><path class="cls-3" d="M11.79,8.08c0,.11.06.18,0,.25a.35.35,0,0,0-.25,0A.21.21,0,0,1,11.64,8C11.69,8,11.72,8.09,11.79,8.08Z"/><path class="cls-3" d="M11.5,8.16c0,.11,0,.16.05.23-.31.15-.54-.2-.3-.35A.56.56,0,0,0,11.5,8.16Z"/><path class="cls-3" d="M10.29,8.1c-.07.14-.17.25-.24.39-.2,0-.12-.3,0-.42l0,0A.58.58,0,0,0,10.29,8.1Z"/><path class="cls-3" d="M15.17,8.4c-.24.28-.51-.21-.24-.35l.22,0A.31.31,0,0,0,15.17,8.4Z"/><path class="cls-3" d="M14,8.07c0,.06,0,.17.1.19S14,8.4,14,8.53a.36.36,0,0,0-.14,0,.3.3,0,0,1,0-.48C13.93,8,14,8.11,14,8.07Z"/><path class="cls-3" d="M16.17,8.13c.07.16-.06.18-.09.32-.26,0-.32-.18-.27-.38A.68.68,0,0,0,16.17,8.13Z"/><path class="cls-3" d="M10.51,8.26a.24.24,0,0,1-.37.16,1.08,1.08,0,0,1,.19-.32A.27.27,0,0,0,10.51,8.26Z"/><path class="cls-3" d="M12.68,8.11c0,.12.14.13.15.19s-.13.1-.08.2l-.3,0C12.39,8.28,12.44,8.08,12.68,8.11Z"/><path class="cls-3" d="M13.34,8.14a.26.26,0,0,0,.17.2s-.05,0-.05.09-.14,0-.2,0-.1-.14-.2-.16A.37.37,0,0,1,13.34,8.14Z"/><path class="cls-3" d="M15.54,8.17a.83.83,0,0,0,.24,0c0,.07.07.19.05.23C15.61,8.48,15.44,8.35,15.54,8.17Z"/><path class="cls-3" d="M12.06,8.26c0,.08-.06.13,0,.19a1,1,0,0,1-.22,0C11.76,8.33,11.95,8.19,12.06,8.26Z"/><path class="cls-3" d="M12.39,8.24c0,.05,0,.15,0,.22-.12,0-.24,0-.34,0C12,8.3,12.2,8.18,12.39,8.24Z"/><path class="cls-3" d="M16.94,8.4c-.05.06-.13.11-.13.22a.28.28,0,0,1-.3-.26c.1,0,.15-.1.24-.13A.31.31,0,0,0,16.94,8.4Z"/><path class="cls-3" d="M10.84,8.43a.29.29,0,0,1-.4.19.17.17,0,0,0,0-.18.37.37,0,0,0,.1-.19s.07,0,.07,0A.27.27,0,0,0,10.84,8.43Z"/><path class="cls-3" d="M14.57,8.37a.44.44,0,0,0,0,.25.31.31,0,0,0-.22.06c-.1,0-.14-.12-.27-.13a.29.29,0,0,1,.1-.26.46.46,0,0,0,.32,0A.31.31,0,0,0,14.57,8.37Z"/><path class="cls-3" d="M16.2,8.27a.3.3,0,0,0,.29.09c0,.08,0,.12.05.17C16.3,8.74,15.92,8.5,16.2,8.27Z"/><path class="cls-3" d="M11.35,8.43c0,.12-.18.16-.29.23-.26,0-.17-.37,0-.38S11.21,8.43,11.35,8.43Z"/><path class="cls-3" d="M13.22,8.43c0,.06-.08.09-.08.16l-.37-.09C12.73,8.22,13.15,8.25,13.22,8.43Z"/><path class="cls-3" d="M13.88,8.55a.22.22,0,0,0-.12.2c-.33,0-.43-.47,0-.47A.27.27,0,0,0,13.88,8.55Z"/><path class="cls-3" d="M11.8,8.35a.48.48,0,0,0,0,.15c-.11,0-.19.07-.27,0S11.67,8.31,11.8,8.35Z"/><path class="cls-3" d="M15,8.51v.2c-.1,0-.15.05-.22,0s-.23-.2-.15-.36C14.73,8.42,14.88,8.39,15,8.51Z"/><path class="cls-3" d="M15.75,8.45a.3.3,0,0,0,0,.22.39.39,0,0,0-.25.16.23.23,0,0,1-.15-.38c.11,0,.19-.06.24,0A.49.49,0,0,0,15.75,8.45Z"/><path class="cls-3" d="M10.1,8.42c.07.09.24.05.32,0,.13.26-.33.4-.41.22S10.1,8.53,10.1,8.42Z"/><path class="cls-3" d="M11.52,8.42a.12.12,0,0,0,0,.13s-.15,0-.19.1S11.34,8.39,11.52,8.42Z"/><path class="cls-3" d="M16.08,8.46c.08.14-.15.19-.07.33a.22.22,0,0,1-.24-.36C15.9,8.4,15.93,8.48,16.08,8.46Z"/><path class="cls-3" d="M17.06,8.43a1.29,1.29,0,0,1-.07.39C16.75,8.79,16.79,8.37,17.06,8.43Z"/><path class="cls-3" d="M10,8.51a5.15,5.15,0,0,0-.2.55c-.3-.07-.22-.64.12-.61C10,8.48,10,8.48,10,8.51Z"/><path class="cls-3" d="M13.54,8.68c-.11,0-.24-.07-.37-.07s.11-.17.27-.16A.25.25,0,0,0,13.54,8.68Z"/><path class="cls-3" d="M12.26,8.77c-.23.12-.56,0-.52-.25a1.63,1.63,0,0,1,.49,0C12.18,8.58,12.24,8.68,12.26,8.77Z"/><path class="cls-3" d="M12.75,8.84c-.33.08-.59-.09-.51-.36.14,0,.23,0,.35,0C12.57,8.66,12.72,8.77,12.75,8.84Z"/><path class="cls-3" d="M13,8.58c-.07.15.09.28.12.35a.45.45,0,0,1-.49-.42A1.72,1.72,0,0,1,13,8.58Z"/><path class="cls-3" d="M11.84,8.77c-.08.21-.49.16-.54,0s.26-.14.41-.2C11.73,8.61,11.74,8.73,11.84,8.77Z"/><path class="cls-3" d="M14.28,8.68c0,.06-.07.09-.07.17-.15,0-.27-.07-.42-.09C13.75,8.45,14.16,8.56,14.28,8.68Z"/><path class="cls-3" d="M16.81,8.64c0,.06,0,.08.05.13-.1.21-.57.11-.44-.16S16.62,8.64,16.81,8.64Z"/><path class="cls-3" d="M11.33,8.65c-.05.06-.14.09-.18.16C11,8.7,11.29,8.45,11.33,8.65Z"/><path class="cls-3" d="M16.38,8.61a.45.45,0,0,0,0,.23c-.2.25-.61-.1-.32-.28A.27.27,0,0,0,16.38,8.61Z"/><path class="cls-3" d="M13.42,8.68a.36.36,0,0,0,.13.36c-.3,0-.59-.13-.56-.47Z"/><path class="cls-3" d="M14.72,8.77a.21.21,0,0,0,0,.19c-.17,0-.3-.07-.47-.09,0-.16.13-.23.32-.23A.24.24,0,0,0,14.72,8.77Z"/><path class="cls-3" d="M10.66,8.65c0,.1.12.14.17.22s-.08.06-.1.12c-.2,0-.39-.11-.37-.23S10.5,8.67,10.66,8.65Z"/><path class="cls-3" d="M10.32,8.74c.2.23-.29.47-.44.23a2.92,2.92,0,0,1,.1-.31A.24.24,0,0,0,10.32,8.74Z"/><path class="cls-3" d="M11,9c-.26,0-.07-.3.07-.31S11.08,8.91,11,9Z"/><path class="cls-3" d="M16,8.83c0,.19-.31.39-.51.26s0-.37.22-.41A.31.31,0,0,0,16,8.83Z"/><path class="cls-3" d="M14.13,8.86a.29.29,0,0,0,0,.31c-.38,0-.74-.08-.71-.47C13.68,8.74,13.88,8.82,14.13,8.86Z"/><path class="cls-3" d="M15.43,8.83a.27.27,0,0,0,0,.23c-.12,0-.2,0-.32,0s.09-.21.17-.28S15.35,8.83,15.43,8.83Z"/><path class="cls-3" d="M17,8.86c0,.11-.07.2-.1.31s-.28-.11-.22-.26c.11,0,.12-.09.22-.12S17,8.83,17,8.86Z"/><path class="cls-3" d="M16.35,8.93V9.1c-.16.05-.38,0-.44-.09s.08-.11.09-.19A.35.35,0,0,0,16.35,8.93Z"/><path class="cls-3" d="M16.43,8.84a.32.32,0,0,0,.22.06s0,.15,0,.18a1.57,1.57,0,0,1-.2.13A.24.24,0,0,1,16.43,8.84Z"/><path class="cls-3" d="M14.13,8.87c.21,0,.36.09.57.1,0,.16.08.25.08.32C14.42,9.29,14,9.24,14.13,8.87Z"/><path class="cls-3" d="M10.71,9c0,.1-.15.1-.13.23a.21.21,0,0,1-.19-.36A.46.46,0,0,0,10.71,9Z"/><path class="cls-3" d="M10.81,8.93c.07,0,0,.09.15.07a1.42,1.42,0,0,1-.1.26A.18.18,0,0,1,10.81,8.93Z"/><path class="cls-3" d="M9.82,9.09a2.33,2.33,0,0,0-.07.29c-.38,0-.75.18-1,0,.47,0,.59-.34,1-.44C9.7,9,9.76,9.06,9.82,9.09Z"/><path class="cls-3" d="M9.8,9.29A1.61,1.61,0,0,1,9.87,9c0,.09.21.11.3.1S10,9.42,9.8,9.29Z"/><path class="cls-3" d="M15.19,9.34c-.28,0-.51-.07-.47-.35A3,3,0,0,0,15,9C15,9.19,15.11,9.26,15.19,9.34Z"/><path class="cls-3" d="M10.29,9c0,.12,0,.24.2.25,0,.15-.34.15-.4,0S10.19,9.07,10.29,9Z"/><path class="cls-3" d="M15.91,9c0,.08.12.11.24.12a.28.28,0,0,1-.37.16.19.19,0,0,0,0-.22S15.86,9,15.91,9Z"/><path class="cls-3" d="M10.68,9.09a.26.26,0,0,0,.18.19c0,.09,0,.15-.1.16S10.53,9.18,10.68,9.09Z"/><path class="cls-3" d="M16.87,9.18a1.59,1.59,0,0,1-.27.41.26.26,0,0,1,.05-.48C16.74,9.12,16.77,9.18,16.87,9.18Z"/><path class="cls-3" d="M16.47,9.25s0,.1,0,.16c-.17,0-.3,0-.35-.1s.08-.09.09-.16C16.33,9.1,16.42,9.13,16.47,9.25Z"/><path class="cls-3" d="M10.56,9.61c-.15,0-.3,0-.27-.22.12,0,.17-.09.25-.13C10.66,9.37,10.58,9.46,10.56,9.61Z"/><path class="cls-3" d="M10.27,9.39c0,.07,0,.11,0,.19-.21,0-.39,0-.37-.23.07,0,.09,0,.15-.06A.26.26,0,0,0,10.27,9.39Z"/><path class="cls-3" d="M10.88,9.29a.36.36,0,0,0,.19,0,.26.26,0,0,1,0,.25.38.38,0,0,1-.19,0A1.23,1.23,0,0,1,10.88,9.29Z"/><path class="cls-3" d="M16,9.29c.18.09-.11.29-.27.2s0-.09-.07-.13S16,9.39,16,9.29Z"/><path class="cls-3" d="M9.92,9.36c0,.16.09.24.25.25a.26.26,0,0,1-.44-.07c0-.08,0-.14,0-.23A.44.44,0,0,0,9.92,9.36Z"/><path class="cls-3" d="M16.32,9.44c-.07,0-.08.14-.08.19s-.18,0-.2-.12.1-.05.08-.13A.78.78,0,0,0,16.32,9.44Z"/><path class="cls-3" d="M15.71,9.39a.19.19,0,0,1-.17.31c-.13,0-.12-.22,0-.31A.37.37,0,0,0,15.71,9.39Z"/><path class="cls-3" d="M9.58,9.89c-.08,0-.15,0-.2,0a.43.43,0,0,1,.1-.48c.07,0,.15,0,.25,0C9.7,9.58,9.63,9.72,9.58,9.89Z"/><path class="cls-3" d="M10.83,9.44c0,.09,0,.21,0,.28-.24,0-.27-.16-.19-.28S10.76,9.48,10.83,9.44Z"/><path class="cls-3" d="M16.59,9.6s0,.14-.07.2c-.29.06-.36-.4-.07-.38A.25.25,0,0,0,16.59,9.6Z"/><path class="cls-3" d="M16.13,9.61c0,.15-.33.11-.4,0s0-.07,0-.13a.42.42,0,0,0,.22,0C16,9.53,16,9.62,16.13,9.61Z"/><path class="cls-3" d="M9.7,9.57c.08,0,.11.15.25.15s-.2.19-.32.12S9.69,9.67,9.7,9.57Z"/><path class="cls-3" d="M10.84,9.58a.41.41,0,0,0,.19,0c0,.17-.08.24-.08.39A1,1,0,0,1,10.84,9.58Z"/><path class="cls-3" d="M12.07,9.83c0,.12-.15.17-.25.22s0,0,.08,0a.22.22,0,0,1-.07.22c.11,0,.17-.1.32-.1a.58.58,0,0,1,.32-.06c-.06.12,0,.19.08.26a.61.61,0,0,1-.49.09s.09,0,.15,0a.5.5,0,0,1-.3.19s.1,0,.12,0,0,.19,0,.25-.26-.14-.35,0,0,.06,0,.09-.15.13-.12.19a.64.64,0,0,1-.33-.06,1.11,1.11,0,0,0-.05-.74.53.53,0,0,1,.44.26c0-.1-.14-.2-.27-.23a.18.18,0,0,1,.17-.09.32.32,0,0,1,.14-.38.3.3,0,0,1,.27-.28C11.8,9.75,11.94,9.82,12.07,9.83Z"/><path class="cls-3" d="M11.86,9.66a.58.58,0,0,1,.57.12C12.24,9.82,11.87,9.87,11.86,9.66Z"/><path class="cls-3" d="M16.32,9.89c-.27,0-.33-.29-.07-.25A.44.44,0,0,1,16.32,9.89Z"/><path class="cls-3" d="M19.65,9.71c-.2,0-.28.13-.4.2s-.29,0-.29-.13S19.51,9.58,19.65,9.71Z"/><path class="cls-3" d="M15.59,10.18c-.07.1-.09.23-.25.25.07-.1,0-.22,0-.33-.28,0-.36.31-.62.16.25-.07.23-.39.56-.39a1.82,1.82,0,0,1-.47-.19c.1-.08.25,0,.32,0s.22-.1.34,0a.79.79,0,0,1,0,.16A3.7,3.7,0,0,0,15.59,10.18Z"/><path class="cls-3" d="M16,9.73c0,.15-.19.2-.32.15,0-.07,0-.15,0-.22S15.85,9.77,16,9.73Z"/><path class="cls-3" d="M15.48,9.93c0-.08,0-.14,0-.23a.16.16,0,0,0,.19,0C15.79,9.78,15.64,10,15.48,9.93Z"/><path class="cls-3" d="M19.13,9.93c.06.19-.15.24-.27.32.07,0,.11,0,.17-.06s.27-.06.41,0c0,0-.11,0-.14.09s.39-.16.46,0a.17.17,0,0,0-.08.28.4.4,0,0,1-.27,0c0-.06.07-.06.08-.1a.49.49,0,0,1-.54.1.49.49,0,0,1-.39.28c0,.17-.1.31-.19.42.11,0,.13.23.07.33s-.23,0-.22.12a.34.34,0,0,1-.22-.57c-.05,0-.11.1-.12.18-.26-.21,0-.49.29-.54-.14,0-.28.19-.47,0,0,0,0,0,0-.07a.2.2,0,0,0,.22-.28c.1-.11.1-.3.35-.28a.59.59,0,0,0,.08.29c0-.14-.18-.54.2-.5.06,0,0,.05.08.06A.25.25,0,0,1,19,9.7.15.15,0,0,0,19.13,9.93Z"/><path class="cls-3" d="M10.62,9.71c.07,0,.16.06.2,0a.55.55,0,0,1,0,.2.22.22,0,0,1-.27,0A.65.65,0,0,1,10.62,9.71Z"/><path class="cls-3" d="M16.28,9.91c0,.09-.11.13-.27.12a.14.14,0,0,0,0-.16s0,0,0-.07A.3.3,0,0,0,16.28,9.91Z"/><path class="cls-3" d="M16.52,9.82s0,.05,0,.1-.23,0-.2-.13A.4.4,0,0,0,16.52,9.82Z"/><path class="cls-3" d="M10,10.17c-.14.06-.38,0-.44-.07s.06-.16.08-.25a.3.3,0,0,0,.19,0A.28.28,0,0,0,10,10,.52.52,0,0,0,10,10.17Z"/><path class="cls-3" d="M10.66,10.1c-.18.13-.57-.05-.37-.21a.58.58,0,0,0,.3,0A.86.86,0,0,1,10.66,10.1Z"/><path class="cls-3" d="M9.38,10.28a.72.72,0,0,0-.24,0,.38.38,0,0,1,.42-.35C9.52,10,9.44,10.15,9.38,10.28Z"/><path class="cls-3" d="M15.68,9.91c.11,0,.14.21,0,.26s-.2-.06-.19-.19S15.67,10,15.68,9.91Z"/><path class="cls-3" d="M16.49,10a.23.23,0,0,1-.29.16s0-.09,0-.09a.49.49,0,0,0,.14-.13C16.39,9.91,16.39,10,16.49,10Z"/><path class="cls-3" d="M10.88,9.92s.06.12.1.18-.36.06-.32-.13C10.73,10,10.86,10,10.88,9.92Z"/><path class="cls-3" d="M16.5,9.95a.32.32,0,0,1,.39.13C16.82,10.25,16.44,10.16,16.5,9.95Z"/><path class="cls-3" d="M10.34,10.12v.13c-.2.07-.39,0-.37-.23a.31.31,0,0,0,.22,0A.51.51,0,0,0,10.34,10.12Z"/><path class="cls-3" d="M16.11,10.25c-.06,0-.07-.12-.15-.14s0,0,0-.07a.41.41,0,0,0,.17,0C16.19,10.09,16.21,10.26,16.11,10.25Z"/><path class="cls-3" d="M16.79,10.18c0,.11-.14.14-.29.13.07-.11-.12-.2,0-.28A.32.32,0,0,0,16.79,10.18Z"/><path class="cls-3" d="M17.18,10.3c0-.06.07-.12,0-.17.06.18-.28.22-.37.09s.24-.2.37-.1a.4.4,0,0,1,.44.12C17.63,10.44,17.28,10.4,17.18,10.3Z"/><path class="cls-3" d="M9.5,10.08a.32.32,0,0,0,.24.13.32.32,0,0,1-.42.2A1.34,1.34,0,0,0,9.5,10.08Z"/><path class="cls-3" d="M12.48,10.14a.33.33,0,0,1,.51.26C12.79,10.33,12.45,10.4,12.48,10.14Z"/><path class="cls-3" d="M16,10.34c-.16.06-.36,0-.37-.16.08,0,.12,0,.12-.1C15.95,10.1,16.12,10.18,16,10.34Z"/><path class="cls-3" d="M10.79,10.36c-.19.1-.47,0-.44-.22.17.06.32-.08.4,0A.35.35,0,0,0,10.79,10.36Z"/><path class="cls-3" d="M16.43,10.11a.25.25,0,0,1,0,.28c-.1,0-.15-.13-.29-.13a.15.15,0,0,0,0-.12C16.29,10.18,16.35,10.12,16.43,10.11Z"/><path class="cls-3" d="M11.11,10.4c-.14.14-.38,0-.34-.23a.19.19,0,0,0,.2,0A1.2,1.2,0,0,1,11.11,10.4Z"/><path class="cls-3" d="M10.14,10.28c0,.19-.35.22-.46.07s.06-.08.07-.13a.32.32,0,0,0,.2,0C10,10.19,10,10.28,10.14,10.28Z"/><path class="cls-3" d="M17.56,10.39c0-.06.1-.08.08-.17a.46.46,0,0,1,.35.12C18,10.54,17.66,10.47,17.56,10.39Z"/><path class="cls-3" d="M17.18,10.3c0,.09-.14.16-.27.18a.19.19,0,0,0-.13-.19s0,0,0,0A.58.58,0,0,0,17.18,10.3Z"/><path class="cls-3" d="M9.13,10.63a.81.81,0,0,1-.52-.13c.28,0,.41-.32.76-.2A2.41,2.41,0,0,1,9.13,10.63Z"/><path class="cls-3" d="M10.52,10.41c0,.23-.44.22-.45,0s.13-.16.29-.17S10.47,10.36,10.52,10.41Z"/><path class="cls-3" d="M16.43,10.49c-.08.11-.39,0-.4-.09s.07-.06,0-.13C16.29,10.26,16.41,10.33,16.43,10.49Z"/><path class="cls-3" d="M16.89,10.52c-.12,0-.21-.17-.44-.1,0,0,0,0,0-.09C16.73,10.3,16.91,10.28,16.89,10.52Z"/><path class="cls-3" d="M20,10.78c-.06,0-.05-.07-.09-.1s-.32-.22-.15-.35A.34.34,0,0,1,20,10.78Z"/><path class="cls-3" d="M17.46,10.4a.19.19,0,0,1-.18.12c0-.08-.1-.08-.1-.16S17.33,10.42,17.46,10.4Z"/><path class="cls-3" d="M12,10.9c0-.05.11-.17.07-.25a.76.76,0,0,0,.19-.17c.17,0,.24-.07.35-.12a.72.72,0,0,1,.54.22.58.58,0,0,1-.64.86.59.59,0,0,1-.39-.2C12.06,11.13,12.09,11,12,10.9Z"/><path class="cls-3" d="M9.83,10.49c0,.25-.46.19-.42,0,.09,0,.18,0,.22-.09A.81.81,0,0,1,9.83,10.49Z"/><path class="cls-3" d="M11,10.46c0,.06,0,.08,0,.13-.17,0-.3-.07-.29-.15S10.86,10.42,11,10.46Z"/><path class="cls-3" d="M17.62,10.56c-.07,0-.09-.09-.15-.12s0,0,0-.06.13.08.24.09A.23.23,0,0,1,17.62,10.56Z"/><path class="cls-3" d="M17.26,10.59c-.12,0-.16-.12-.36-.07,0-.06.19,0,.22-.12h.05C17.22,10.45,17.27,10.49,17.26,10.59Z"/><path class="cls-3" d="M10.83,10.59c0,.19-.36.16-.37,0s.07-.08.08-.17h.12A.2.2,0,0,0,10.83,10.59Z"/><path class="cls-3" d="M16.86,10.6s0,0,0,0a.41.41,0,0,1-.42-.07s.07-.05,0-.13C16.64,10.39,16.85,10.44,16.86,10.6Z"/><path class="cls-3" d="M9.4,10.46c0,.08,0,.12.08.16s-.23.08-.32,0,.11-.13.13-.22Z"/><path class="cls-3" d="M11.18,10.69a.22.22,0,0,1-.2-.2s.12-.06.15,0A.72.72,0,0,1,11.18,10.69Z"/><path class="cls-3" d="M17.58,10.6a.63.63,0,0,1-.3,0c0-.08.13,0,.17-.1A.15.15,0,0,1,17.58,10.6Z"/><path class="cls-3" d="M17.73,10.74c0-.11-.09-.1-.13-.15s.13-.05.15-.12.11,0,.19,0A.19.19,0,0,1,17.73,10.74Z"/><path class="cls-3" d="M17.14,10.76c-.19,0-.29-.09-.29-.22C17.05,10.47,17.3,10.63,17.14,10.76Z"/><path class="cls-3" d="M10.42,10.56c0,.06.06.11.08.16s-.07.11-.07.2a.25.25,0,0,1-.27-.09.36.36,0,0,0,0-.28C10.19,10.61,10.38,10.63,10.42,10.56Z"/><path class="cls-3" d="M11,10.6c0,.16,0,.26,0,.35s-.26-.05-.25-.2.13-.06.12-.15Z"/><path class="cls-3" d="M17.14,10.78s.1-.1,0-.15a.31.31,0,0,1,.24,0C17.5,10.76,17.31,10.79,17.14,10.78Z"/><path class="cls-3" d="M18.76,10.78c.49-.37,1.36-.1,1.36.52a.85.85,0,0,1-1.38.52.67.67,0,0,1-.19-.82A.84.84,0,0,1,18.76,10.78Zm.62.85c0-.25.15-.35.42-.36h-.18a.43.43,0,0,0-.27.32.26.26,0,0,1,.27-.42A.26.26,0,0,0,19.38,11.62Zm.37,0s.08-.07,0-.09,0,.07-.08.07-.09,0-.1,0,.05-.09.08-.13C19.52,11.43,19.55,11.65,19.75,11.61Z"/><path class="cls-3" d="M17.68,10.79a.48.48,0,0,0-.25,0s.07-.08,0-.1C17.58,10.58,17.8,10.67,17.68,10.79Z"/><path class="cls-3" d="M9.68,10.68s-.06.13,0,.16c-.17.06-.28,0-.27-.12S9.56,10.66,9.68,10.68Z"/><path class="cls-3" d="M8.77,11a.24.24,0,0,1-.19-.2c.24,0,.26-.21.51-.13A2.61,2.61,0,0,1,8.77,11Z"/><path class="cls-3" d="M9.13,10.65a.32.32,0,0,0,.27,0c0,.07,0,.1,0,.15C9.29,11,9,10.8,9.13,10.65Z"/><path class="cls-3" d="M11.18,10.71v.18c-.13,0-.16-.1-.15-.23C11.08,10.67,11.11,10.71,11.18,10.71Z"/><path class="cls-3" d="M10.69,11.09a.22.22,0,0,1-.17-.37.51.51,0,0,0,.17,0C10.74,10.9,10.67,10.94,10.69,11.09Z"/><path class="cls-3" d="M9,10.75a1.11,1.11,0,0,0,.14.15.16.16,0,1,1-.3.09C8.86,10.86,9,10.85,9,10.75Z"/><path class="cls-3" d="M7.24,12.82c.08-.18.24-.18.4-.26.32-.17.46-.52.76-.73s.44-.18.64-.29A4.3,4.3,0,0,0,9.72,11c.1-.08.19-.22.37-.2s0,0,0,.07c0,.28-.35.45-.62.58a1.39,1.39,0,0,0-.44.26c-.06.07-.07.16-.13.22a3.76,3.76,0,0,1-.47.28c-.13.09-.21.25-.33.34S7.46,12.64,7.24,12.82Z"/><path class="cls-3" d="M9.51,10.87s0,0-.08,0,0,0,0-.07S9.47,10.88,9.51,10.87Z"/><path class="cls-3" d="M10.31,11.27a.47.47,0,0,1-.24,0c.15-.13,0-.29.07-.44A.63.63,0,0,1,10.31,11.27Z"/><path class="cls-3" d="M11,10.85c.06,0,.07.06.15,0a1.21,1.21,0,0,1,0,.19A.14.14,0,0,1,11,10.85Z"/><path class="cls-3" d="M9.38,10.88c.08.05,0,.16,0,.25a.16.16,0,0,1-.22,0c0-.07.07-.12,0-.18S9.35,10.93,9.38,10.88Z"/><path class="cls-3" d="M11,11c0,.06-.12.09-.1.2-.15,0-.23-.16-.13-.26A.3.3,0,0,0,11,11Z"/><path class="cls-3" d="M8.84,11a.25.25,0,0,0,.12.16c0,.08,0,.1-.07.15C8.57,11.28,8.69,11,8.84,11Z"/><path class="cls-3" d="M8.34,11.29A.41.41,0,0,1,8.18,11c.18,0,.34,0,.56,0A1.26,1.26,0,0,1,8.34,11.29Z"/><path class="cls-3" d="M11.15,11.1a1.37,1.37,0,0,0,0,.2A.17.17,0,0,1,11,11C11,11,11,11.1,11.15,11.1Z"/><path class="cls-3" d="M9.87,11.27c.05-.09.17-.14.2-.25C10.2,11.13,10.08,11.32,9.87,11.27Z"/><path class="cls-3" d="M9.24,11.27c-.06.07-.25.09-.3,0s.05-.08,0-.16.13,0,.15,0A.24.24,0,0,1,9.24,11.27Z"/><path class="cls-3" d="M10.89,11.2c0,.07-.11.12-.05.2a.18.18,0,0,1-.17-.31A1.2,1.2,0,0,0,10.89,11.2Z"/><path class="cls-3" d="M8.74,11.29c-.21.11-.3-.11-.1-.18A1.1,1.1,0,0,0,8.74,11.29Z"/><path class="cls-3" d="M9.5,11.17c0,.09-.26.19-.25,0C9.38,11.18,9.41,11.09,9.5,11.17Z"/><path class="cls-3" d="M10.34,11.38c-.12-.26.3-.28.27-.09S10.45,11.37,10.34,11.38Z"/><path class="cls-3" d="M8.61,11.33a.13.13,0,0,1-.22,0c0-.05.07-.13.12-.1S8.54,11.33,8.61,11.33Z"/><path class="cls-3" d="M10.89,11.25a.31.31,0,0,0,.2.07.4.4,0,0,0,0,.17C10.86,11.52,10.8,11.35,10.89,11.25Z"/><path class="cls-3" d="M9,11.32c0,.1-.2.13-.29.06S8.92,11.24,9,11.32Z"/><path class="cls-3" d="M9.35,11.3a.7.7,0,0,1-.24.16A.22.22,0,0,1,9,11.38c.05-.05.21,0,.24-.1S9.29,11.32,9.35,11.3Z"/><path class="cls-3" d="M8.47,11.42c0,.07-.15.07-.2,0s.06-.15.1-.13S8.42,11.4,8.47,11.42Z"/><path class="cls-3" d="M9.09,11.49c-.09,0-.1.09-.22.07s-.08,0-.07-.12A.33.33,0,0,0,9,11.33.48.48,0,0,0,9.09,11.49Z"/><path class="cls-3" d="M10.64,11.33s0,0,0,0,0,.14,0,.17,0-.12-.12-.13A.11.11,0,0,1,10.64,11.33Z"/><path class="cls-3" d="M8.81,11.44c0,.08-.26.1-.29,0s.06-.06.12-.07S8.71,11.44,8.81,11.44Z"/><path class="cls-3" d="M8.25,11.38s0,.11.08.12a.12.12,0,0,1-.22,0A.16.16,0,0,1,8.25,11.38Z"/><path class="cls-3" d="M10.59,11.52c0,.06-.12,0-.12.12a.34.34,0,0,0-.19,0c0-.06,0-.16.07-.22S10.57,11.43,10.59,11.52Z"/><path class="cls-3" d="M10.84,11.61c-.12.05-.24-.13-.15-.22s.08,0,.15,0S10.79,11.57,10.84,11.61Z"/><path class="cls-3" d="M8.61,11.51s0,.07,0,.1-.19,0-.2-.12a.1.1,0,0,0,.1-.07S8.53,11.51,8.61,11.51Z"/><path class="cls-3" d="M8,11.55a.2.2,0,0,1,.15-.1s0,.11.07.12S8,11.64,8,11.55Z"/><path class="cls-3" d="M8.77,11.48s0,.1.12.1-.29.09-.29,0S8.75,11.53,8.77,11.48Z"/><path class="cls-3" d="M8.34,11.51c.09,0,.11.08.08.19s-.21,0-.22-.12S8.33,11.56,8.34,11.51Z"/><path class="cls-3" d="M8,11.64c0,.07-.2.08-.22,0s.08-.08.15-.1S8,11.62,8,11.64Z"/><path class="cls-3" d="M10.68,11.55a.2.2,0,0,1,0,.2s0,0,0,0-.09-.09-.2-.07S10.55,11.55,10.68,11.55Z"/><path class="cls-3" d="M8.22,11.65s-.07,0,0,.09-.11,0-.12-.1a.16.16,0,0,0,.12,0S8.19,11.65,8.22,11.65Z"/><path class="cls-3" d="M10.51,12c-.17,0-.15.24-.29.31,0-.13-.08-.17-.08-.28a.57.57,0,0,1-.46.1c0-.05.13-.07.17-.12s0-.1.07-.15.16,0,.2-.07-.11-.15-.25-.15c0-.11.28-.07.39,0C10.17,11.81,10.43,11.9,10.51,12Z"/><path class="cls-3" d="M18.52,11.62c.1.13.16.28.35.32-.31,0-.61,0-.64-.28C18.26,11.59,18.43,11.61,18.52,11.62Z"/><path class="cls-3" d="M10.46,11.73a.41.41,0,0,0-.17.07.11.11,0,0,1,0-.18C10.39,11.62,10.48,11.62,10.46,11.73Z"/><path class="cls-3" d="M7.66,11.76c0,.11-.2.1-.24,0s.12-.05.15-.1S7.63,11.73,7.66,11.76Z"/><path class="cls-3" d="M8,11.67c.09.06-.07.06-.05.15s-.12,0-.13-.07S8,11.73,8,11.67Z"/><path class="cls-3" d="M10.89,11.67a.33.33,0,0,0,.17,0,.75.75,0,0,0,0,.19C10.93,11.88,10.85,11.77,10.89,11.67Z"/><path class="cls-3" d="M10.66,11.92a.24.24,0,0,0-.14,0s0-.1-.07-.12S10.73,11.81,10.66,11.92Z"/><path class="cls-3" d="M7.39,11.74c0,.07.11.08.07.16s-.23.05-.24,0S7.35,11.79,7.39,11.74Z"/><path class="cls-3" d="M10.93,11.92c-.12,0-.12.09-.22.1s0-.12,0-.2.09-.07.17-.07S10.94,11.82,10.93,11.92Z"/><path class="cls-3" d="M10.51,11.89s-.06,0,0,0-.07-.09-.13-.1S10.55,11.74,10.51,11.89Z"/><path class="cls-3" d="M7.71,11.87s-.05,0-.08,0,0-.09.1-.07S7.71,11.83,7.71,11.87Z"/><path class="cls-3" d="M7.17,11.83c.06,0,0,.08,0,.1S7.1,12,7,12,7.13,11.88,7.17,11.83Z"/><path class="cls-3" d="M10.94,11.87a.55.55,0,0,1,.32.07C11.21,12.08,10.92,12,10.94,11.87Z"/><path class="cls-3" d="M11.11,12.08a.21.21,0,0,0-.22.09c0-.08-.07-.11-.1-.17s.06,0,.1-.06S11,12,11.11,12.08Z"/><path class="cls-3" d="M11.23,12.24a.14.14,0,0,1-.1-.19c.07,0,.11,0,.17-.06a.25.25,0,0,1,0,.19C11.28,12.17,11.28,12.22,11.23,12.24Z"/><path class="cls-3" d="M6.85,12c0,.08-.12.08-.24.07A.18.18,0,0,1,6.85,12Z"/><path class="cls-3" d="M10.86,12.16a.14.14,0,0,0-.17.07s-.09-.07-.08-.12S10.89,12,10.86,12.16Z"/><path class="cls-3" d="M10.93,12.25c0-.11,0-.16.17-.16s0,.11.07.13S11,12.26,10.93,12.25Z"/><path class="cls-3" d="M6.48,12.22c0-.09.09-.11.19-.09S6.59,12.23,6.48,12.22Z"/><path class="cls-3" d="M6.87,12.15a.36.36,0,0,1-.2.07C6.65,12.12,6.82,12.1,6.87,12.15Z"/><path class="cls-3" d="M10.91,12.21c0,.1-.09.15-.14.13S10.8,12.1,10.91,12.21Z"/><path class="cls-3" d="M11.28,12.21c.32-.13.28.43,0,.22C11.25,12.37,11.22,12.26,11.28,12.21Z"/><path class="cls-3" d="M6.33,12.37c0-.09.08-.1.12-.16s-.09.08,0,.13A.16.16,0,0,1,6.33,12.37Z"/><path class="cls-3" d="M6.43,12.32c0-.11.19-.09.25-.09S6.51,12.35,6.43,12.32Z"/><path class="cls-3" d="M11.3,12.44a.14.14,0,0,1-.24-.13s.07-.07.17-.06S11.24,12.41,11.3,12.44Z"/><path class="cls-3" d="M10.74,12.37c-.09,0-.13-.06-.08-.1S10.72,12.33,10.74,12.37Z"/><path class="cls-3" d="M11,12.46c-.1.06-.29.07-.27-.09.13,0,.1-.12.24-.1S11,12.38,11,12.46Z"/><path class="cls-3" d="M10.74,12.4c.07,0,0,.09,0,.13S10.7,12.42,10.74,12.4Z"/><path class="cls-3" d="M12,12.59a.32.32,0,0,1,.52.25c-.11-.1-.24,0-.29.09a.24.24,0,0,1-.24-.12c-.11.14-.27,0-.42,0s-.2.28-.12.42c0-.11-.07-.38.12-.41a.34.34,0,0,1,.35.35c0,.05-.09-.07-.17-.07a.18.18,0,0,0-.2.19.79.79,0,0,1-.49-.16,1.52,1.52,0,0,0-.37.07.38.38,0,0,1,0-.22c-.07,0-.07.13-.07.22s-.14.08-.17.16a.3.3,0,0,1-.13-.2c0,.07,0,.16.1.2s-.15.2-.15.36c-.11-.11-.32-.41,0-.47-.07,0-.15,0-.17.1-.14-.41.29-.65.74-.6a.23.23,0,0,0-.2,0s0-.1,0-.15.07.05.13,0,.4,0,.44-.19c.15.07.37-.09.49.06a.3.3,0,0,0,0,.13.28.28,0,0,1,.44-.16S12.07,12.54,12,12.59Z"/><path class="cls-3" d="M11,12.46c.05,0,.11.1.19,0s-.11.12-.19.09S11,12.52,11,12.46Z"/><path class="cls-3" d="M10.78,12.5a.42.42,0,0,0,.25,0C11.09,12.68,10.68,12.67,10.78,12.5Z"/><path class="cls-3" d="M12.55,13.46c0-.13,0-.18,0-.28s-.2-.14-.2-.23a.15.15,0,0,1,.13-.15C12.67,12.8,12.69,13.33,12.55,13.46Z"/><path class="cls-3" d="M11.6,13.75a.28.28,0,0,0,.14-.22c0-.07-.18-.21-.1-.35s.46,0,.37.32c0,.06-.07.15-.12.22A.32.32,0,0,1,11.6,13.75Z"/><path class="cls-3" d="M11.62,13.31a.21.21,0,0,0,.1.19.38.38,0,0,1-.15.26.43.43,0,0,0,.29,0,.67.67,0,0,1-.73.66.68.68,0,0,1-.74-.74.73.73,0,0,1,.71-.54A1,1,0,0,0,11.62,13.31Zm-.64.57c0-.15.29-.19.47-.18C11.26,13.64,11,13.74,11,13.88Zm.3.12c0,.06,0,.06,0,.07s0,0,0,0,0-.24.14-.17c-.11-.11-.34,0-.35.12s0,0,0,0a.27.27,0,0,1,.24-.13A.28.28,0,0,0,11.28,14Z"/><path class="cls-4" d="M0,15.94c1.34-.74,2.63-1.53,4-2.27,0-.06-.14,0-.13-.1.47,0,.7-.34,1-.57a1.51,1.51,0,0,1,.54-.25c.19,0,.44-.07.51-.25a.68.68,0,0,1-.3.12c-.13,0-.26,0-.4,0-.3.06-.59.42-.89.2.3,0,.42-.27.67-.37s.35,0,.51-.1.21-.16.34-.2.63,0,.79-.28c-.21-.06-.38.1-.59.12s-.41-.08-.61,0c.08-.27.47-.16.81-.25.1,0,.18-.09.27-.12A2.4,2.4,0,0,1,7,11.59a2,2,0,0,0-.67-.2c-.09,0-.18,0-.27,0s-.29-.16-.44-.17a1,1,0,0,0-.2,0c0-.15.2-.18.35-.17s.19.07.3.09.28,0,.4,0,.34.16.49.19a1.88,1.88,0,0,0,.46,0,1.33,1.33,0,0,0,.24,0c-.06,0-.19,0-.27-.06.1-.19.58-.15.81-.09a.38.38,0,0,1,0-.22,1.5,1.5,0,0,0,.47,0c0-.07-.08-.11-.08-.2a.36.36,0,0,0,.34-.13c-.15,0-.32-.09-.32-.18.29,0,.32-.18.56-.2,0-.19.13-.27.25-.35-.09-.08-.07-.24,0-.35s.12-.14.07-.15c-.24,0-.69.19-.74,0,.48,0,.62-.32,1-.42a.35.35,0,0,1,.27-.52C9.8,8.3,10,8.12,10,8s-.14,0-.22,0A1.57,1.57,0,0,0,9.6,8c-.07,0-.12,0-.17,0s.22-.12.37-.18.21-.13.32-.15a.51.51,0,0,1,.34.09c0-.24.28-.34.47-.23,0-.23.16-.38.42-.32.05,0,.1.07.1,0,0-.24-.34-.2-.24-.45.07.18.35.12.52.19s.15.15.24.22c.08-.11.33,0,.39,0,.09-.13.33,0,.4,0,.06-.09.26,0,.34,0,0-.18-.23-.27-.07-.44,0,.15.21.16.3.25s0,.15.08.22.22.1.22.23a.32.32,0,0,1,.46.2,1.52,1.52,0,0,0,.67-.32.6.6,0,0,0-.37-.09c0-.22.6,0,.62-.25a.3.3,0,0,1-.22-.42.32.32,0,0,1-.34-.39c-.37,0-.55.15-.62.41a.56.56,0,0,1-.07-.25c0-.12.15-.19.22-.31s0-.18.1-.28a1.37,1.37,0,0,0-.56.25,1,1,0,0,1,.64-.57.23.23,0,0,1,.07-.26.29.29,0,0,1,.15-.36s0-.1,0-.16c-.29,0-.65-.07-1,0a1.46,1.46,0,0,0-.51.16c.09-.32.53-.33,1-.32a1.11,1.11,0,0,1,.74-.26c0-.06-.11-.23,0-.31,0,.23.36.19.66.22.14,0,.24.07.34,0a4.43,4.43,0,0,0-1.26-.33,1,1,0,0,0-.22,0c-.29,0-.23.33.08.31a.3.3,0,0,1-.49-.29c.16-.44,1.11-.25,1.52-.12a.62.62,0,0,1,0-.26,1.06,1.06,0,0,0-.44,0,.36.36,0,0,1,.3-.13c.13,0,.28.06.32-.06a1.26,1.26,0,0,0-.88-.06c0-.19.4-.23.64-.16a.83.83,0,0,1,.79,0c.16.06.29.15.41.18s0-.09,0-.15S16.25,3,16.08,3a.62.62,0,0,1,.19,0c.14,0,.29.12.37.07a1.72,1.72,0,0,0-.79-.2A1.59,1.59,0,0,1,17.18,3a1.82,1.82,0,0,0,.24.16c.28.13.61.09.76.34a.82.82,0,0,1,.82.09.39.39,0,0,1,.61.26.82.82,0,0,1,.52.15A.68.68,0,0,1,20.36,4c.11.08.18,0,.35,0s0-.3.1-.44.25-.22.34-.35,0-.26.1-.36.48-.27.54-.51c.13.28-.26.37-.35.6s0,.28-.05.42-.22.26-.22.41c1.92-1.12,3.9-2.5,5.81-3.62,0,3.82,0,9.29,0,15.83C18,15.94,8.95,16,0,15.94ZM21.1,3.84c0-.06,0-.17.1-.26s.12-.15.15-.22,0-.23,0-.36.44-.36.39-.63c0,.19-.33.24-.45.39s0,.25-.1.36-.28.22-.36.37,0,.37-.12.48A.56.56,0,0,1,20.9,4C20.93,4,21.05,3.92,21.1,3.84ZM19,3.92a4.08,4.08,0,0,1-.42-.07c-.25-.1-.35-.31-.69-.32-.14,0-.29.06-.46.07s-.53-.05-.77,0a.72.72,0,0,0-.47.25c.06,0,.16,0,.19.09-.14-.11-.47-.09-.49.1s.28.09.37.17a.61.61,0,0,0,.07.16A4.35,4.35,0,0,0,17,4.4s0-.07,0-.12a.19.19,0,0,1,.22,0c-.07,0-.18,0-.18,0s0,.06,0,.1a.9.9,0,0,1,.42.26.68.68,0,0,1,.39-.09.22.22,0,0,1,.2-.26.28.28,0,0,1,.1-.22s.1,0,.15,0l0,0a.32.32,0,0,1,.34.07.4.4,0,0,1,.51.23c-.2.05-.3.2-.47.28s-.2-.09-.22-.19a.35.35,0,0,1,.17-.34A.48.48,0,0,0,18.37,4s0,0-.08.06-.11,0-.14,0a.25.25,0,0,0-.1.19c.1,0,.22,0,.25.09-.16-.12-.52-.06-.45.19.39,0,.6.19.6.42s-.33.47-.71.42-.58-.31-.45-.61c-.37,0-.57-.23-.91-.23a1.85,1.85,0,0,0-.42.07c-.14,0-.29.1-.4,0,.35,0,.58-.15.87-.13s.5.26.81.22a.88.88,0,0,0-.34-.2c-.28-.09-.66,0-.69-.31,0,0,0,0,.07,0s0-.06,0-.1c-.32,0-1,.07-.94.32s.18.15.29.23,0,0,0,0,.67,0,.86,0,.36.26.57.29c.06,0,.1,0,.17,0-.55.23-1.11-.24-1.57-.19a3.86,3.86,0,0,1-.57.58c-.23.16-.64.06-.94.15a.94.94,0,0,0-.56.5,1.25,1.25,0,0,1,.72-.25c.44,0,.85.06,1.11-.18S15.7,5,16,5a.84.84,0,0,1,.39.09,2.56,2.56,0,0,0,.61.15c-.22.15-.72.06-.88.28.4-.1.91.05,1.3-.07-.15.07-.15.23-.32.29s-.39,0-.52.16c.13,0,.26.08.44,0s.17-.14.27-.2a.64.64,0,0,1,.18-.09c.25-.07.39.07.71,0,.58-.08.44-.89,1.11-.89.39,0,.63.31.94.31s.37-.21.44-.44a.56.56,0,0,1,.07-.16c.08-.12.21-.19.22-.25,0-.23-.25-.32-.47-.22.09.24-.2.27-.27.42.3.07.1.43-.22.35a.23.23,0,0,1-.08-.35c-.06.13,0,.34.15.33s0-.19.12-.33.47-.28.24-.47c-.26,0-.37.15-.56.13A.54.54,0,0,0,20.09,4c-.16-.16-.65-.22-.74,0,0,0,.12,0,.17.07C19.33,4.13,19.2,4,19,3.92ZM19.2,4s.1.08.14,0,.12-.19.24-.22c-.08-.3-.67-.39-.61.07l.22.09a.21.21,0,0,1,.35-.15C19.37,3.73,19.19,3.81,19.2,4ZM7.75,11.42s0,0,0,0c-.24-.1-.4,0-.64,0s-.33-.15-.52-.19a3.7,3.7,0,0,0-.46,0c-.17,0-.52-.21-.64,0,.22-.11.39.12.59.15s.28,0,.4,0c.32,0,.53.26.84.28-.13,0-.25,0-.37,0a2,2,0,0,0-.72.19c-.28.08-.63,0-.79.2.21-.08.44,0,.62,0s.35-.18.59-.1c-.15.28-.58.21-.88.32-.12,0-.21.16-.33.2s-.36,0-.51.1-.25.22-.4.29-.11,0-.17.07a.68.68,0,0,0,.52-.13,1.52,1.52,0,0,1,.24-.1,2.72,2.72,0,0,1,.34,0,2.86,2.86,0,0,0,.51-.16c-.11.22-.39.25-.66.34a1.28,1.28,0,0,0-.44.2c-.33.25-.52.53-1,.58a1.11,1.11,0,0,0,.71-.15,1.8,1.8,0,0,1,.52-.16,1.22,1.22,0,0,0,.51-.1c.17-.09.26-.28.42-.32s.14,0,.2,0c.23,0,.35-.29.56-.34.05,0,.1,0,.15,0s.23-.34.49-.32c-.25.13-.32.43-.59.54a.72.72,0,0,0,.51-.22,1.18,1.18,0,0,1,.56-.19,2.9,2.9,0,0,1,.59-.55c-.38.1-.79.16-1.16.26a5.45,5.45,0,0,0-.76.29c-.07,0-.17.11-.25,0a.82.82,0,0,1,.4-.34c.51-.26,1.13-.42,1.6-.7-.11-.19-.71-.19-.87,0a.35.35,0,0,1,.27.09s.06,0,.05.06Zm.35,1.14c.12-.08.2-.24.33-.34a3.76,3.76,0,0,0,.47-.28c.06-.06.07-.15.13-.22a1.39,1.39,0,0,1,.44-.26c.27-.14.58-.3.62-.58,0,0,0,0,0-.07s-.28.12-.37.2a4.3,4.3,0,0,1-.67.52c-.2.11-.46.17-.64.29s-.44.56-.76.73c-.16.09-.33.08-.4.26C7.46,12.64,7.86,12.72,8.1,12.56Zm2-1.53c0,.11-.15.15-.2.25C10.08,11.32,10.2,11.13,10.07,11Zm.07-.19c-.11.15.08.31-.07.44a.47.47,0,0,0,.24,0A.63.63,0,0,0,10.14,10.84Zm.2.35a.23.23,0,0,1,.27,0c0-.05.05-.05.05-.1a.22.22,0,0,1-.2-.15c-.08,0-.2,0-.24,0S10.28,11.12,10.34,11.19Zm.27.1c0-.2-.39-.17-.27.09C10.45,11.37,10.59,11.39,10.61,11.29Zm-.25.1c0,.06,0,.15-.07.22a.34.34,0,0,1,.19,0c0-.07.1-.05.12-.12S10.51,11.37,10.36,11.39Zm-.07.23a.11.11,0,0,0,0,.18.41.41,0,0,1,.17-.07C10.48,11.62,10.39,11.62,10.29,11.62Zm0,0c-.11,0-.35-.07-.39,0,.14,0,.23,0,.25.15s-.13.05-.2.07,0,.11-.07.15-.12.07-.17.12a.57.57,0,0,0,.46-.1c0,.11.1.15.08.28.14-.06.11-.28.29-.31C10.43,11.9,10.17,11.81,10.26,11.64Zm.2.32c0,.05.1.08.12.14s0,0-.07,0a.11.11,0,0,0,.15.13.33.33,0,0,1-.08-.12c0-.05.1-.06.1-.13S10.47,11.86,10.46,12Zm.15.16s.05.07.08.12a.14.14,0,0,1,.17-.07C10.89,12,10.62,12,10.61,12.12Zm.17.22s.16,0,.14-.13S10.61,12.28,10.78,12.34Zm-.12-.07s0,.12.08.1S10.71,12.28,10.66,12.26Zm.35,0c-.13,0-.11.11-.24.1,0,.15.17.14.27.09S11.07,12.31,11,12.26Zm0,.32c.08,0,.23,0,.19-.09s-.13,0-.19,0S11.08,12.54,11,12.59Zm1.13-.1a.28.28,0,0,0-.44.16.3.3,0,0,1,0-.13c-.12-.15-.34,0-.49-.06,0,.19-.25.14-.44.19s-.08-.08-.13,0,0,.11,0,.15a.23.23,0,0,1,.2,0c-.45-.05-.88.19-.74.6,0-.06.09-.14.17-.1-.31.06-.09.36,0,.47,0-.17.09-.25.15-.36s-.13-.14-.1-.2a.3.3,0,0,0,.13.2c0-.08.14-.09.17-.16s0-.18.07-.22a.38.38,0,0,0,0,.22,1.52,1.52,0,0,1,.37-.07.79.79,0,0,0,.49.16.18.18,0,0,1,.2-.19c.08,0,.15.13.17.07a.34.34,0,0,0-.35-.35c-.19,0-.15.3-.12.41-.09-.15-.07-.4.12-.42s.31.14.42,0a.24.24,0,0,0,.24.12c0-.09.18-.18.29-.09a.32.32,0,0,0-.52-.25C12.07,12.54,12.13,12.52,12.18,12.48Zm-1.15,0a.42.42,0,0,1-.25,0C10.68,12.67,11.09,12.68,11,12.48Zm.07.66a.73.73,0,0,0-.71.54.68.68,0,0,0,.74.74.67.67,0,0,0,.73-.66.43.43,0,0,1-.29,0,.38.38,0,0,0,.15-.26.21.21,0,0,1-.1-.19A1,1,0,0,1,11.1,13.14Zm.79.58c0-.07.07-.16.12-.22.09-.34-.27-.5-.37-.32s.1.28.1.35a.28.28,0,0,1-.14.22A.32.32,0,0,0,11.89,13.72Zm.56-.92a.15.15,0,0,0-.13.15c0,.1.16.12.2.23s0,.15,0,.28C12.69,13.33,12.67,12.8,12.44,12.81Zm-1.16-.38c.28.21.32-.35,0-.22C11.22,12.26,11.25,12.37,11.28,12.43Zm.07-.25a.25.25,0,0,0,0-.19c-.06,0-.09.05-.17.06a.14.14,0,0,0,.1.19S11.28,12.17,11.35,12.18Zm-.12.07c-.09,0-.12,0-.17.06a.14.14,0,0,0,.24.13C11.24,12.41,11.22,12.34,11.23,12.25Zm-.07,0c-.05,0,0-.08-.07-.13s-.21,0-.17.16S11.09,12.29,11.16,12.22Zm-.27-.29s-.06,0-.1.06.09.1.1.17a.21.21,0,0,1,.22-.09C11,12,11,12,10.89,11.93Zm.37,0a.55.55,0,0,0-.32-.07C10.92,12,11.21,12.08,11.27,11.95Zm-.42-.2c-.07,0-.14,0-.17.07s0,.12,0,.2.09-.11.22-.1S10.87,11.8,10.84,11.74Zm.24.12a.75.75,0,0,1,0-.19.33.33,0,0,1-.17,0C10.85,11.77,10.93,11.88,11.08,11.86Zm-.22-.41c-.06.06,0,.14,0,.19h-.12s0,0,0,.09.06,0,.12,0a.11.11,0,0,1,0-.09.22.22,0,0,0,.15,0,.43.43,0,0,1,0-.15A.24.24,0,0,1,10.86,11.45Zm.2,0a.4.4,0,0,1,0-.17.31.31,0,0,1-.2-.07C10.8,11.35,10.86,11.52,11.06,11.49Zm-.39-.39a.18.18,0,0,0,.17.31c-.05-.09,0-.13.05-.2A1.2,1.2,0,0,1,10.68,11.1ZM11,11a.17.17,0,0,0,.14.29,1.37,1.37,0,0,1,0-.2C11,11.1,11,11,11,11Zm.19.07a1.21,1.21,0,0,0,0-.19c-.08,0-.09,0-.15,0A.14.14,0,0,0,11.15,11.09Zm-.32-.48c0,.09-.09.09-.12.15s.08.21.25.2,0-.19,0-.35Zm.2,0c0,.13,0,.23.15.23v-.18C11.11,10.71,11.08,10.67,11,10.65Zm.1-.19s-.11,0-.15,0a.22.22,0,0,0,.2.2A.72.72,0,0,0,11.13,10.46Zm.73-.83a.3.3,0,0,0-.27.28.32.32,0,0,0-.14.38.18.18,0,0,0-.17.09c.13,0,.28.13.27.23a.53.53,0,0,0-.44-.26,1.11,1.11,0,0,1,.05.74.64.64,0,0,0,.33.06c0-.06.08-.12.12-.19s0-.07,0-.09.25,0,.35,0,.12-.19,0-.25-.11,0-.12,0a.5.5,0,0,0,.3-.19c-.06,0-.13,0-.15,0a.61.61,0,0,0,.49-.09c0-.07-.15-.15-.08-.26a.58.58,0,0,0-.32.06c-.15,0-.21.07-.32.1a.22.22,0,0,0,.07-.22s-.07.05-.08,0,.23-.1.25-.22C11.94,9.82,11.8,9.75,11.86,9.63Zm.29,1.65c-.09-.11-.06-.26-.14-.35s-.26-.13-.33-.07-.12.17-.15.28.25.18.41.25c0-.08.12-.18.18-.1a.12.12,0,0,0-.17.1c.07.12.38.12.54.07C12.32,11.39,12.24,11.39,12.14,11.27Zm0,0a.59.59,0,0,0,.39.2.58.58,0,0,0,.64-.86.72.72,0,0,0-.54-.22c-.11,0-.18.12-.35.12a.76.76,0,0,1-.19.17c0,.08,0,.19-.07.25S12.06,11.13,12.12,11.23ZM13,10.4a.33.33,0,0,0-.51-.26C12.45,10.4,12.79,10.33,13,10.4Zm-.56-.63a.58.58,0,0,0-.57-.12C11.87,9.87,12.24,9.82,12.43,9.77ZM11,10.12a.19.19,0,0,1-.2,0c0,.2.2.37.34.23A1.2,1.2,0,0,0,11,10.12ZM10.66,10c0,.19.24.26.32.13s-.05-.13-.1-.18S10.73,10,10.66,10Zm-.05-.06a.22.22,0,0,0,.27,0,.55.55,0,0,0,0-.2c0,.06-.13,0-.2,0A.65.65,0,0,0,10.61,9.91Zm0-.47c-.08.12,0,.31.19.28,0-.07,0-.19,0-.28S10.66,9.42,10.62,9.44Zm.13,0c.08,0,.09-.07.1-.16a.26.26,0,0,1-.18-.19C10.53,9.18,10.58,9.47,10.76,9.44Zm.1-.18A1.42,1.42,0,0,0,11,9c-.1,0-.08-.06-.15-.07A.18.18,0,0,0,10.86,9.26Zm.41-.54a1.06,1.06,0,0,0-.39.55c.17.05.31,0,.32-.16S11,9.08,11,9c.12.15.42.11.42-.1C11.36,8.86,11.33,8.78,11.27,8.72Zm.44-.2c-.14.06-.32.09-.41.2s.46.26.54,0C11.74,8.73,11.73,8.61,11.7,8.52Zm.4.32a.68.68,0,0,1-.25,0,.37.37,0,0,1-.41.12.22.22,0,0,1-.24.2c0,.11-.09.14-.13.2s0,.22,0,.25c.31-.19.65-.38,1-.55a1.37,1.37,0,0,0,.3-.21C12.27,8.75,12.19,8.83,12.11,8.84Zm.12-.36a1.63,1.63,0,0,0-.49,0c0,.26.29.36.52.25C12.24,8.68,12.18,8.58,12.23,8.48Zm.37,0c-.13,0-.22,0-.35,0-.08.28.17.45.51.36C12.72,8.77,12.57,8.66,12.6,8.49Zm0,0a.45.45,0,0,0,.49.42c0-.07-.19-.2-.12-.35A1.72,1.72,0,0,0,12.61,8.51Zm.39.07c0,.33.25.47.56.47a.36.36,0,0,1-.13-.36Zm.44.12c0,.39.33.48.71.47a.29.29,0,0,1,0-.31C13.88,8.82,13.68,8.74,13.44,8.7Zm1.35.6c0-.07-.13-.16-.08-.32-.21,0-.36-.09-.57-.1C14,9.24,14.42,9.29,14.78,9.29ZM15,9a3,3,0,0,1-.32,0c0,.28.19.39.47.35C15.11,9.26,15,9.19,15,9Zm.42.06a.32.32,0,0,0,0,.28c-.09,0-.07-.2-.05-.29-.14,0-.27-.05-.39,0a.31.31,0,0,0,.19.28,1.07,1.07,0,0,0,.29,0l0,0c.19,0,.29-.18.22-.29A.36.36,0,0,1,15.46,9.09Zm.05.31c-.09.09-.1.28,0,.31a.19.19,0,0,0,.17-.31A.37.37,0,0,1,15.51,9.39Zm.2,0s0,.11.07.13.45-.11.27-.2C16,9.39,15.76,9.28,15.71,9.36Zm.4,0c0,.08-.08.07-.08.13s.12.09.2.12,0-.16.08-.19A.78.78,0,0,1,16.11,9.38ZM16,9.51a.42.42,0,0,1-.22,0c0,.07,0,.08,0,.13s.38.12.4,0C16,9.62,16,9.53,16,9.51Zm-.29.15c0,.06.06.15,0,.22.13.06.33,0,.32-.15C15.85,9.77,15.77,9.66,15.69,9.66Zm0,0a.16.16,0,0,1-.19,0c0,.1,0,.16,0,.23S15.79,9.78,15.66,9.69Zm-.24.16a.79.79,0,0,0,0-.16c-.11-.07-.22,0-.34,0s-.22-.12-.32,0a1.82,1.82,0,0,0,.47.19c-.33,0-.3.32-.56.39.27.15.34-.18.62-.16,0,.12.07.24,0,.33.16,0,.18-.15.25-.25A3.7,3.7,0,0,1,15.43,9.85Zm.12.13c0,.13,0,.21.19.19s.06-.25,0-.26S15.62,10,15.54,10Zm.25.1c0,.07,0,.1-.12.1,0,.15.2.22.37.16S15.95,10.1,15.79,10.08Zm.29.19c0,.07-.06.07,0,.13s.32.2.4.09S16.29,10.26,16.08,10.27Zm.37.16c0,.08-.07.09,0,.13a.41.41,0,0,0,.42.07s0,0,0,0C16.85,10.44,16.64,10.39,16.45,10.43Zm0-.1s0,.06,0,.09c.23-.07.32.06.44.1C16.91,10.28,16.73,10.3,16.5,10.33Zm.3-.09s0,0,0,0a.19.19,0,0,1,.13.19c.13,0,.29-.08.27-.18A.58.58,0,0,1,16.81,10.24Zm.37.16h-.05c0,.08-.18.05-.22.12.2,0,.24.1.36.07S17.22,10.45,17.18,10.4Zm-.32.15c0,.13.1.22.29.22S17.05,10.47,16.86,10.55Zm.57.07a.31.31,0,0,0-.24,0c.05,0,0,.12,0,.15C17.31,10.79,17.5,10.76,17.43,10.62Zm0,0s0,.08,0,.1a.48.48,0,0,1,.25,0C17.8,10.67,17.58,10.58,17.46,10.65Zm.47-.17c-.07,0-.12,0-.19,0s-.09.08-.15.12.15,0,.13.15A.19.19,0,0,0,17.93,10.47Zm1-.77a.25.25,0,0,0-.3.35s0-.07-.08-.06c-.38,0-.25.36-.2.5a.59.59,0,0,1-.08-.29c-.25,0-.26.17-.35.28a.2.2,0,0,1-.22.28s0,0,0,.07c.19.15.34,0,.47,0-.24,0-.55.33-.29.54,0-.08.07-.19.12-.18a.34.34,0,0,0,.22.57c0-.12.11-.14.22-.12s0-.29-.07-.33c.08-.12.22-.25.19-.42a.49.49,0,0,0,.39-.28.49.49,0,0,0,.54-.1s-.08,0-.08.1a.4.4,0,0,0,.27,0,.17.17,0,0,1,.08-.28c-.07-.17-.39-.08-.46,0s.09-.06.14-.09c-.14-.06-.26,0-.41,0s-.1,0-.17.06c.12-.08.33-.13.27-.32A.15.15,0,0,1,19,9.7Zm-.74,2c0,.24.33.32.64.28-.19,0-.26-.2-.35-.32S18.26,11.59,18.24,11.67Zm.32-.66a.67.67,0,0,0,.19.82.85.85,0,0,0,1.38-.52c0-.62-.87-.89-1.36-.52A.84.84,0,0,0,18.56,11Zm1.16-.69c-.16.13,0,.31.15.35s0,.09.09.1A.34.34,0,0,0,19.72,10.33ZM19,9.79c0,.1.1.15.29.13s.2-.19.4-.2C19.51,9.58,19,9.59,19,9.79Zm-1,.54a.46.46,0,0,0-.35-.12c0,.1-.05.12-.08.17S18,10.54,18,10.33Zm-.37-.1a.4.4,0,0,0-.44-.12c-.13-.1-.38,0-.37.1s.43.09.37-.09c.06.05,0,.12,0,.17S17.63,10.44,17.63,10.22Zm-.74-.15a.32.32,0,0,0-.39-.13C16.44,10.16,16.82,10.25,16.89,10.08Zm-.56-.29c0,.14.1.18.2.13s0-.07,0-.1A.4.4,0,0,1,16.33,9.79Zm.12-.36c-.29,0-.22.44.07.38,0-.07,0-.16.07-.2A.25.25,0,0,1,16.45,9.42Zm.2-.32a.26.26,0,0,0-.05.48,1.59,1.59,0,0,0,.27-.41C16.77,9.18,16.74,9.12,16.65,9.1Zm.24-.32c-.09,0-.1.12-.22.12-.06.16,0,.26.22.26S17,9,17,8.86,16.91,8.82,16.89,8.78ZM16.35,5.5a2.54,2.54,0,0,0-.27,0c0,.55.39.8.61,1.2a3.32,3.32,0,0,1,.39,1.82,5.18,5.18,0,0,1-.17.64c.14-.24.39-.46.41-.76,0,.07-.1.11-.19.13a.48.48,0,0,0,.27-.52c-.07.08-.16.13-.22.22,0-.13.16-.17.24-.26a1.3,1.3,0,0,0-.05-.5c0,.11-.15.17-.18.29,0-.15.13-.2.18-.31a1,1,0,0,0-.15-.41.31.31,0,0,1-.07.13.44.44,0,0,1-.1.12c0-.11.15-.16.15-.26S17,6.82,17,6.71c0,.08,0,.13-.07.2,0-.09.06-.14,0-.22s-.17-.2-.2-.32a1,1,0,0,1,.15.2c.14,0,.16-.34,0-.39a.54.54,0,0,1-.27,0c0,.07.08.1.1.16s0,.16-.08.2c.1-.21,0-.36-.15-.5,0,0-.06.09-.07.06.15-.09,0-.21,0-.34s-.08.08-.12,0C16.45,5.8,16.33,5.65,16.35,5.5ZM17.43,7c0,.06-.15,0-.22.07a.78.78,0,0,1,.15.35A.24.24,0,0,0,17.43,7Zm.29.6c.14-.11.07-.36-.19-.31,0,.09-.12.1-.15.17a.59.59,0,0,1,0,.22C17.5,7.69,17.57,7.58,17.71,7.59Zm.34-.51c-.11.06-.13.2-.3.2,0,0,.06.05,0,.1a.42.42,0,0,1,.3,0,.31.31,0,0,0,.15-.2A.23.23,0,0,1,18.05,7.08Zm-.24.32a.86.86,0,0,1,0,.17.82.82,0,0,1,.39.09C18.32,7.48,18,7.29,17.82,7.4Zm.34.28c.18.05.52.2.57,0a.56.56,0,0,0-.49-.16C18.23,7.54,18.23,7.63,18.15,7.67Zm-.08,0a.3.3,0,0,1-.19.35c.2.06.3-.08.41-.15-.12.19-.09.58.17.61-.08-.18.12-.3.08-.44.17.06.24.2.32.33.09-.21-.11-.36-.13-.57A2,2,0,0,1,18.07,7.66Zm1.14,0c0-.14-.3-.15-.45-.09s-.09.11-.14.17C18.82,7.78,19.19,7.85,19.21,7.7Zm-.12-.12c.09,0,.15,0,.13.14a.65.65,0,0,0,.3-.19C19.47,7.42,19.11,7.42,19.1,7.59Zm.32-.31a.55.55,0,0,1,0,.17.18.18,0,0,1,.17.1l.19-.12a.34.34,0,0,0,0-.15A.36.36,0,0,0,19.42,7.28ZM19.53,7c0,.1-.16.14-.25.12s-.06.06-.05.12c.21.05.4,0,.39-.2C19.57,7.06,19.58,7,19.53,7Zm.1,0c0,.08,0,.1,0,.16.18.14.48,0,.32-.23C19.86,7.06,19.76,7.07,19.63,7.06Zm.62-.16c0-.18-.11-.28-.12-.47a2.48,2.48,0,0,0-.24.34.12.12,0,0,1,.08.1c-.07.09,0,.16,0,.28s-.09.14-.22.13a.25.25,0,0,1,0,.16c.18,0,.29-.16.22-.28.08.06,0,.17,0,.23a.66.66,0,0,0,.69.2s-.15,0-.2.06c.23.1.66.1.78-.09-.06,0-.17-.07-.15-.1a.45.45,0,0,0,.69-.23c-.06,0-.15,0-.17,0,.37.13.49-.28.25-.41,0,.19-.23.1-.37.12s-.21.28-.35.35c.08-.06.17-.23.09-.34A.22.22,0,0,1,21,7c-.06,0-.13,0-.19,0s-.18.12-.24.28c0-.09,0-.13.05-.19a.69.69,0,0,0-.54-.19A.33.33,0,0,1,20.26,6.9Zm1.35,0a.2.2,0,0,0,.24-.1.63.63,0,0,0-.08-.23.37.37,0,0,0-.37-.13s.07.06.07.1S21.46,6.88,21.61,6.92Zm-.29-.48c.07,0,.1,0,.17,0a.66.66,0,0,0-.81-.5.56.56,0,0,0-.27,1l.15.06a.35.35,0,0,0,.34,0,1.72,1.72,0,0,1-.08-.29s-.08,0-.08-.07a.43.43,0,0,1,.51.28C21.43,6.86,21.54,6.54,21.32,6.44ZM20,6.82c-.22-.16-.58,0-.83,0a.22.22,0,0,1,0,.23c.16.09.4.05.4-.1s-.11-.12-.12-.18a.24.24,0,0,1,.13.2C19.71,7.1,20,7,20,6.82Zm-.84,0c-.07,0-.22,0-.29,0,.1.09-.07.16-.05.22C19,7.17,19.24,7,19.11,6.86Zm-.3,0a1.86,1.86,0,0,1-.35,0c0,.09,0,.11-.1.13S18.94,7.15,18.81,6.87Zm-.37,0a3.19,3.19,0,0,1-.39-.1c0,.08,0,.1-.08.13S18.43,7,18.44,6.83ZM18,6.73a.75.75,0,0,0-.34-.2c0,.1,0,.14-.1.17S18,6.94,18,6.73Zm-.81-.16s0,.09.05.13c.2,0,.43,0,.4-.2a2.8,2.8,0,0,0-.3-.09C17.36,6.49,17.29,6.52,17.23,6.57Zm.15-.17a1.5,1.5,0,0,1-.35-.1.75.75,0,0,1-.05.28C17.2,6.58,17.32,6.52,17.38,6.39Zm-.17.17a1.1,1.1,0,0,1-.29,0c0,.13.14.17.17.29S17.28,6.67,17.21,6.57Zm-.35-.38c0-.09-.14-.18-.19-.28s-.12,0-.2,0C16.52,6.07,16.58,6.25,16.86,6.19Zm-.47-.54a.54.54,0,0,0,.07.23,1,1,0,0,0,.15,0A.47.47,0,0,0,16.38,5.65Zm.24.19a.19.19,0,0,0,.13-.07c-.13-.08-.15-.32-.37-.26C16.36,5.7,16.58,5.69,16.62,5.84ZM15.88,6a.25.25,0,0,0,.05.19.36.36,0,0,0,.27,0,1.45,1.45,0,0,0-.1-.26A.36.36,0,0,1,15.88,6Zm.19-.32c-.11,0-.24.08-.34,0-.22.26.16.37.37.22A2.14,2.14,0,0,0,16.06,5.63Zm-.44-.23c0,.26.25.31.44.2a.66.66,0,0,1,0-.19A.62.62,0,0,1,15.63,5.4Zm.44,0a.49.49,0,0,0,0-.23.67.67,0,0,1-.33,0c0,.07-.1.12-.12.2A.58.58,0,0,0,16.06,5.4Zm-.27-.23a.53.53,0,0,0,.34,0c0-.05,0-.09,0-.12A.31.31,0,0,0,15.79,5.17ZM16.17,5a1.68,1.68,0,0,0-.07.47.65.65,0,0,1,.29-.15c0-.1.05-.15.08-.22S16.27,5.06,16.17,5Zm.86.68c.14,0,.2-.12.27-.23-.16,0-.34,0-.47,0C16.91,5.59,16.92,5.71,17,5.72Zm-.47-.22a3.11,3.11,0,0,1,.22.26c.07,0,.18,0,.2-.06S16.77,5.45,16.55,5.5Zm.59.36s-.08.06-.12.09a1.53,1.53,0,0,1,.39.19c.14.1.26.29.47.23C17.58,6.26,17.56,5.89,17.14,5.87Zm2.26,0c0,.06,0,.15,0,.18s0-.12-.07-.16a.32.32,0,0,1,0-.15c-.34,0-.47-.24-.76-.32a1.79,1.79,0,0,1-.24.22,1,1,0,0,1,.44.15c.13.09.21.24.34.32s.77.18.72-.15c0,0-.06-.06-.1-.12s0-.05,0-.07a.35.35,0,0,0-.19-.07.17.17,0,0,0-.08.1c.12,0,.22,0,.29,0A.41.41,0,0,0,19.4,5.87Zm-.25.26c-.12.07-.17.2-.3.26a.39.39,0,0,0,.49-.2A1.17,1.17,0,0,1,19.15,6.13Zm.4.09c-.08,0-.12,0-.2,0s-.13.36.05.39C19.33,6.42,19.62,6.41,19.55,6.22Zm.19.36c.18,0,.2-.36,0-.44s-.14.05-.22.07C19.54,6.41,19.76,6.39,19.74,6.58Zm-.29-.79s0,0,0,0A2,2,0,0,1,20,5.43c0-.12.18-.16.18-.32,0,0,0,0-.08,0s-.11.2-.22.26-.57.2-.52.52C19.37,5.83,19.44,5.8,19.45,5.8Zm1.11,0c0-.34.38-.63.07-.89a.42.42,0,0,1-.42.25c0,.15-.15.2-.19.32s.09.44.07.64c0,0,0,.09,0,.15.16-.12.1-.39.13-.6s.21-.27.25-.42C20.41,5.39,20.4,5.67,20.56,5.75Zm-.34-.12v.1a1.22,1.22,0,0,0,.35,0A.53.53,0,0,0,20.22,5.63ZM22.11,4c-.26,0-.35.13-.56.17s-.38,0-.54.06-.21.21-.29.31h0a2.05,2.05,0,0,0,.68-.12c.16-.05.29-.15.44-.19s.73,0,1-.09c.06,0,.19,0,.12-.09C22.66,4.15,22.36,4,22.11,4Zm-.6-.39c-.14,0-.17.13-.25.19s-.29.13-.34.26,0,0,0,0,.06.1.08.15.18,0,.27,0,.23-.2.36-.28.65-.1.66-.35C22.12,3.7,21.71,3.57,21.5,3.61Zm-.81,1c.06,0,.15,0,.14-.06S20.69,4.55,20.69,4.61Zm0,.13a.31.31,0,0,0,.12,0c0-.07-.05-.08-.1-.1S20.65,4.69,20.66,4.75Zm0,.12h.07c0-.06,0-.08-.08-.09S20.64,4.84,20.66,4.86Zm.71.34c0,.05.14.1.13.2s-.11.18-.24.2a.27.27,0,0,0-.39-.31c.35.17,0,.44-.3.39,0,.05,0,.06,0,.1.58,0,1.64-.42,1.79.17.14-.35-.32-.41-.64-.47A.31.31,0,0,0,21.37,5.2Zm-1.58.36a1.61,1.61,0,0,1,.22.09V5.53l0,0A.27.27,0,0,0,19.79,5.56Zm-2.59.29.2.06a3.67,3.67,0,0,0,.4-.25A.59.59,0,0,0,17.19,5.85Zm-.25.32A1.83,1.83,0,0,0,17.18,6a1.33,1.33,0,0,0-.47-.09C16.8,6,16.82,6.13,16.94,6.17Zm-6.1,3.4a.38.38,0,0,0,.19,0,.26.26,0,0,0,0-.25.36.36,0,0,1-.19,0A1.23,1.23,0,0,0,10.84,9.57Zm.1.41c0-.15.11-.22.08-.39a.41.41,0,0,1-.19,0A1,1,0,0,0,10.94,10Zm-.19,2.55s.05-.12,0-.13S10.7,12.52,10.76,12.53Zm6.75-9.28A1.88,1.88,0,0,1,17.13,3c-.08,0-.2,0-.29.06a1.76,1.76,0,0,0,.37.26,1.83,1.83,0,0,0,.44.2c.16,0,.32-.08.49,0C18.08,3.34,17.76,3.33,17.51,3.24Zm1.43.64a.46.46,0,0,1,0-.26.76.76,0,0,0-.82-.06C18.42,3.68,18.56,3.89,18.95,3.89Zm-3.67-.74c-.19-.06-.55,0-.56.12a.72.72,0,0,1,.42,0c.15,0,.31.12.42.13s.3-.06.42,0c-.39-.14-.7.07-.67.42a2.7,2.7,0,0,0-1-.16c-.27,0-.52.18-.47.41s.29.28.44.13c-.36,0-.3-.29,0-.32a3.55,3.55,0,0,1,1.53.35c.14,0,.32,0,.47-.07-.09,0-.23,0-.29-.12s0-.08,0-.13-.33-.17-.3-.32.25-.14.42-.19c0,0-.1,0-.1.06.18,0,.26.16.4.23s.08,0,.08-.07c-.21-.26-.7-.28-1-.44-.06,0-.09.07-.12,0S15.34,3.14,15.27,3.14ZM17.08,3a.39.39,0,0,0-.59.32c-.26-.16-.88-.46-1.18-.15.49-.21.88.25,1.16.44.05-.05.18,0,.25-.07C16.58,3.25,16.74,3,17.08,3Zm-.37.23a1.28,1.28,0,0,1,.41.35c.07,0,.18,0,.22,0a2.26,2.26,0,0,0-.57-.44A.92.92,0,0,0,16.7,3.23Zm-1.3.22c-.13,0-.36,0-.42,0a1.38,1.38,0,0,1,.39,0S15.41,3.48,15.41,3.45ZM16.67,3a.34.34,0,0,1,.27,0s0,0,0,0a1.44,1.44,0,0,0-1-.15A1.48,1.48,0,0,1,16.67,3Zm-.12.13s0,0,0,0a.46.46,0,0,0-.42-.1A1.19,1.19,0,0,1,16.55,3.1Zm.81.48c.07,0,.18,0,.24,0A3.6,3.6,0,0,1,17,3.22c-.06,0-.1-.12-.18-.1A2.34,2.34,0,0,1,17.36,3.58Zm-.62,0c.11,0,.25,0,.32,0a1.13,1.13,0,0,0-.35-.29A.91.91,0,0,0,16.74,3.55Zm0,1a1.15,1.15,0,0,1,.54.29c0-.07.07-.09.1-.15-.13-.32-.85-.21-1.16-.33C16.31,4.5,16.57,4.47,16.77,4.51ZM14.7,4.22a1,1,0,0,0,.89,0c-.28-.1-.81,0-.93-.23A.33.33,0,0,0,14.7,4.22Zm0,.06a1.1,1.1,0,0,0-.76.25c.48.1.85-.1,1.3-.06,0,0,.13-.11.07-.12A1.83,1.83,0,0,1,14.73,4.28Zm.54.2a3.68,3.68,0,0,0-.83.09c-.3,0-.59,0-.84,0s-.59.1-.61.28c.3-.28.85-.06,1.36-.1a7.83,7.83,0,0,1,1.11,0C15.37,4.66,15.29,4.6,15.27,4.48Zm.13.61a4.09,4.09,0,0,1,.27-.32C15.47,4.67,15.31,4.94,15.41,5.1Zm0-.25s.15-.11.08-.12L15,4.7a.65.65,0,0,1,0,.22.38.38,0,0,0,.34.06C15.34,4.91,15.4,4.91,15.39,4.85Zm0,.15A.39.39,0,0,1,15,4.93c-.05.07-.13.12-.1.26a.87.87,0,0,0,.22.13C15.24,5.25,15.41,5.19,15.36,5Zm-.82,0c.08.22.6.1.49-.25h-.37C14.61,4.8,14.5,4.85,14.53,4.95Zm.1-.25a1.08,1.08,0,0,0-.19,0c0,.06-.07.21,0,.25A1,1,0,0,1,14.63,4.7Zm-.29.61a1.48,1.48,0,0,1,.1-.34s0,0,0-.06C14.25,4.93,14.17,5.26,14.35,5.31Zm-.1,0a.22.22,0,0,0,0,.23.26.26,0,0,1,.12,0,.46.46,0,0,1,0-.16C14.29,5.34,14.31,5.28,14.25,5.29Zm.27-.35a.4.4,0,0,0-.1.38c.2.14.54,0,.47-.26C14.74,5.11,14.54,5.06,14.52,4.93Zm-.15.34c0,.09,0,.13,0,.22s.36,0,.51,0c0,0,0-.1-.05-.13S14.4,5.4,14.37,5.27Zm.5.19a.38.38,0,0,0,.25-.12.92.92,0,0,1-.24-.13A.25.25,0,0,0,14.87,5.46Zm.74,0s0,0,0,0a.79.79,0,0,1-.4.34.4.4,0,0,0,.27.09c.11,0,.15-.09.2-.1s0-.22-.08-.28S15.61,5.5,15.61,5.46ZM15,5.8a.39.39,0,0,0,.54.28C15.38,5.92,15.26,5.71,15,5.8Zm0,0a3.57,3.57,0,0,1-.52,0c0,.18.43.21.54.07S14.92,5.84,14.94,5.8Zm-.49.1s.09.09,0,.13-.07-.15-.1-.23-.18,0-.25,0,0,.17-.08.26-.37.28-.18.52a.4.4,0,0,1,.22-.29c.15-.07.38,0,.49-.15,0-.09-.08-.14,0-.23S14.5,5.9,14.45,5.9Zm.47.66a1.36,1.36,0,0,1-.32-.36,2.13,2.13,0,0,1,.19.22c.06.06.14.19.24.12-.21,0-.23-.19-.29-.34C14.21,6.11,14.62,6.88,14.92,6.55Zm.24-.07c-.1,0-.13.11-.27.1a.29.29,0,0,0,.13.48.63.63,0,0,1,.27-.1c-.1-.14-.23-.25-.34-.38.13.08.18.22.32.29a.31.31,0,0,0,.13-.1s0-.09,0-.15S15.23,6.53,15.16,6.48Zm-.2.71c-.14.09-.36-.05-.51.1.32,0,.42.27.79.17a.89.89,0,0,1,.2-.26A1.46,1.46,0,0,0,15.31,7C15.08,7,15.05,7.13,15,7.19Zm.57.71a.66.66,0,0,0-.09-.67A.36.36,0,0,0,15.53,7.91Zm-.32-.13c-.1,0-.2,0-.3,0a.94.94,0,0,1-.24-.1c0,.23.35.16.37.36.22,0,.39,0,.47-.13C15.39,7.89,15.37,7.79,15.21,7.78Zm0,.31c-.17.2.15.48.35.28-.07-.05,0-.14,0-.2s-.07-.1-.12-.15S15.24,8.05,15.17,8.08Zm0,0-.22,0c-.28.14,0,.62.24.35A.31.31,0,0,1,15.16,8.07Zm-.34.32a.32.32,0,0,1,.1-.35,3.07,3.07,0,0,1-.4-.09A.27.27,0,0,0,14.82,8.39Zm-.59-.54c-.28.12-.17.59.22.41a.31.31,0,0,1,.07-.32C14.41,7.92,14.33,7.87,14.23,7.85Zm.42.12c0-.23-.4-.31-.59-.19Zm-.89-.26c-.11.13,0,.29.08.34s-.25,0-.39-.09a.22.22,0,0,0,.05.38c.07,0,.11-.07.22-.06A.35.35,0,0,1,13.88,8a.29.29,0,0,0,.17,0,.4.4,0,0,1,.17-.22C14,7.8,13.93,7.73,13.76,7.7Zm.29.06c.09-.21-.37-.35-.44-.13C13.76,7.67,13.89,7.73,14,7.76Zm-.44-.31a.51.51,0,0,1-.29-.38.69.69,0,0,1-.3-.19c-.08.1.07.18.1.28a.59.59,0,0,1,0,.34c.18,0,.31.09.49.12A.26.26,0,0,0,13.61,7.46ZM14.7,8c.09,0,.21.07.29,0S14.78,7.89,14.7,8ZM13,7.49c-.16.21.08.42.35.35a.29.29,0,0,1,0-.26Zm0,0-.34-.06c0,.19.09.25.3.23C12.9,7.57,12.95,7.54,12.95,7.47Zm-.69.23c0,.13.25.12.39.06s-.12-.19,0-.35A.25.25,0,0,0,12.26,7.7Zm.17-.32s-.1,0-.12,0,0,.09,0,.09Zm-.2.23a.29.29,0,0,1-.24.06c-.08.18,0,.34.29.31a.27.27,0,0,1,0-.19C12.25,7.77,12.26,7.68,12.23,7.62Zm.05-.25a2.19,2.19,0,0,0-.49,0C11.59,7.73,12.45,7.76,12.28,7.37Zm-.52.18c0-.06,0-.12,0-.18a1.08,1.08,0,0,0-.45.1.21.21,0,0,0,.22.28A.51.51,0,0,1,11.75,7.54Zm-.78,0a2.82,2.82,0,0,1,.54-.19C11.41,7.09,10.81,7.27,11,7.56Zm.47-.47c0,.08,0,.23.08.29s.26,0,.37,0,0-.1,0-.16c-.08-.27-.6-.18-.73-.36C11.21,7,11.37,7,11.45,7.09Zm.47.25c.14,0,.24,0,.37,0s0-.07,0-.13S11.89,7.12,11.92,7.34Zm.39,0c.12,0,.27,0,.37.06s0-.09,0-.15S12.3,7.16,12.31,7.35Zm.39.06c.15,0,.26.05.4.07C13.27,7.24,12.69,7.13,12.7,7.41ZM11,7.59c-.1.24.33.32.47.16-.16,0-.18-.22-.15-.31A1.55,1.55,0,0,0,11,7.59Zm-.35.26c0,.14.35.1.4,0A.27.27,0,0,1,11,7.57C10.88,7.67,10.6,7.71,10.62,7.85Zm.1-.15a1.81,1.81,0,0,0,.2-.15c-.21-.14-.58.07-.4.28A1.77,1.77,0,0,0,10.73,7.7Zm-.37.41c0,.09.12.14.2.13s.22-.17.25-.28-.2,0-.2-.15,0,0,0,0S10.34,8,10.36,8.11Zm.17-.26a.56.56,0,0,0-.22-.13c-.23-.07-.36.07-.54.13s-.3.06-.29.13S9.7,8,9.8,8s.08,0,.12,0,.22.14.39.1S10.53,7.9,10.52,7.85Zm-.49.2,0,0c-.07.12-.15.37,0,.42.07-.14.16-.26.24-.39A.58.58,0,0,1,10,8.05ZM10,8.45c-.34,0-.42.54-.12.61a5.15,5.15,0,0,1,.2-.55S10,8.48,10,8.45ZM9.68,9c-.38.09-.5.42-1,.44.29.15.66-.07,1,0a2.33,2.33,0,0,1,.07-.29C9.76,9.06,9.7,9,9.68,9Zm.3-.31a2.92,2.92,0,0,0-.1.31c.15.23.64,0,.44-.23A.24.24,0,0,1,10,8.67Zm.1.61c.06.12.38.12.4,0-.15,0-.18-.13-.2-.25C10.19,9.07,10.16,9.19,10.09,9.28Zm.08-.19c-.09,0-.27,0-.3-.1a1.61,1.61,0,0,0-.07.31C10,9.42,10.14,9.22,10.17,9.09Zm-.39.22c0,.09-.07.16,0,.23a.26.26,0,0,0,.44.07c-.16,0-.26-.08-.25-.25A.44.44,0,0,1,9.78,9.31Zm-.15.52c.12.07.32,0,.32-.12s-.17-.1-.25-.15C9.69,9.67,9.64,9.73,9.63,9.83Zm.1-.42c-.11,0-.18,0-.25,0a.43.43,0,0,0-.1.48c.06,0,.12,0,.2,0C9.63,9.72,9.7,9.58,9.73,9.41Zm.72.23c-.17-.14-.27.06-.47.07a.34.34,0,0,1-.17.18.28.28,0,0,0,.46,0c-.07,0-.2-.09-.15-.17,0,.16.28.21.46.15a.58.58,0,0,1,0-.16s0,0-.07-.06S10.49,9.63,10.46,9.64ZM10,10a.28.28,0,0,1-.15-.13.3.3,0,0,1-.19,0c0,.09-.09.13-.08.25s.3.13.44.07A.52.52,0,0,1,10,10Zm-.39-.1a.38.38,0,0,0-.42.35.72.72,0,0,1,.24,0C9.44,10.15,9.52,10,9.56,9.91Zm-.25.51a.32.32,0,0,0,.42-.2.32.32,0,0,1-.24-.13A1.34,1.34,0,0,1,9.31,10.41Zm0-.12c-.35-.12-.48.17-.76.2a.81.81,0,0,0,.52.13A2.41,2.41,0,0,0,9.36,10.3Zm-.07.13c0,.09-.11.13-.13.22s.27.06.32,0-.09-.08-.08-.16Zm.34-.06c0,.06-.12.08-.22.09,0,.22.45.28.42,0A.81.81,0,0,0,9.63,10.37Zm-.22.35c0,.09.1.17.27.12-.06,0,0-.13,0-.16C9.56,10.66,9.43,10.6,9.41,10.72Zm0,.12s0,0,0,.07.06,0,.08,0S9.48,10.84,9.45,10.84Zm.18,0c-.2,0-.29.16-.18.26h.07a.91.91,0,0,0,.2-.2s-.09-.05,0-.07.06.09.1.06-.07,0-.09-.09S9.65,10.87,9.63,10.88Zm-.44,0c.06.05,0,.11,0,.18a.16.16,0,0,0,.22,0c-.07-.09.07-.2,0-.25S9.22,10.89,9.19,10.91Zm.24-.07s0-.07,0-.15a.32.32,0,0,1-.27,0C9,10.8,9.29,11,9.43,10.84ZM8.87,11a.16.16,0,1,0,.3-.09A1.11,1.11,0,0,1,9,10.75C9,10.85,8.86,10.86,8.87,11Zm.22-.32c-.25-.08-.27.15-.51.13a.24.24,0,0,0,.19.2A2.61,2.61,0,0,0,9.09,10.66Zm-.2.6S9,11.2,9,11.11A.25.25,0,0,1,8.84,11C8.69,11,8.57,11.28,8.89,11.26ZM8.74,11c-.21,0-.38.06-.56,0a.41.41,0,0,0,.15.28A1.26,1.26,0,0,0,8.74,11Zm-.1.12c-.2.07-.11.29.1.18A1.1,1.1,0,0,1,8.64,11.11Zm-.13.13s-.11,0-.12.1a.13.13,0,0,0,.22,0C8.54,11.33,8.51,11.3,8.5,11.25Zm-.14.07s-.13,0-.1.13.19,0,.2,0S8.38,11.38,8.37,11.32Zm1.77-.76a.36.36,0,0,1,0,.28.25.25,0,0,0,.27.09c0-.09,0-.17.07-.2s-.06-.1-.08-.16S10.19,10.61,10.14,10.56Zm.39.85c.08,0,.06.11.12.13s0-.13,0-.17,0,0,0,0A.11.11,0,0,0,10.52,11.41Zm0,.31c.11,0,.15,0,.2.07s0,0,0,0a.2.2,0,0,0,0-.2C10.55,11.55,10.48,11.6,10.47,11.71Zm0,0s.11.07.07.12a.24.24,0,0,1,.14,0C10.73,11.81,10.56,11.67,10.46,11.76Zm-.13.07c.07,0,.06.1.13.1s0,0,0,0S10.34,11.73,10.32,11.83Zm.52-.41c-.07,0-.09,0-.15,0s0,.27.15.22C10.79,11.57,10.82,11.47,10.84,11.42Zm-.1-.51c-.1.1,0,.25.13.26,0-.11.06-.15.1-.2A.3.3,0,0,1,10.74,10.91Zm-.08-.5h-.12c0,.09-.09.1-.08.17s.33.19.37,0A.2.2,0,0,1,10.66,10.41Zm0,0c0,.08.12.16.29.15,0,0,0-.07,0-.13S10.72,10.31,10.69,10.44Zm.07-.28c-.08-.11-.24,0-.4,0,0,.22.25.32.44.22A.35.35,0,0,1,10.76,10.17Zm-.4.1c-.15,0-.29.07-.29.17s.44.2.45,0C10.47,10.36,10.38,10.34,10.36,10.27Zm-.4-.09a.32.32,0,0,1-.2,0c0,.05-.05.08-.07.13s.43.12.46-.07C10,10.28,10,10.19,10,10.18Zm.24-.2A.31.31,0,0,1,10,10c0,.2.17.3.37.23v-.13A.51.51,0,0,1,10.19,10Zm.4-.12a.58.58,0,0,1-.3,0c-.2.15.2.33.37.21A.86.86,0,0,0,10.59,9.86Zm-.05-.6c-.08,0-.13.12-.25.13,0,.17.12.25.27.22S10.66,9.37,10.54,9.26Zm5.71.38c-.26,0-.2.29.07.25A.44.44,0,0,0,16.25,9.64Zm-.46.42.15,0A.26.26,0,0,0,16,9.87a.83.83,0,0,1-.25,0A.15.15,0,0,1,15.79,10.07Zm.37,0A.41.41,0,0,1,16,10s0,0,0,.07.09.11.15.14S16.19,10.09,16.17,10Zm0,.1a.15.15,0,0,1,0,.12c.14,0,.19.09.29.13a.25.25,0,0,0,0-.28C16.35,10.12,16.29,10.18,16.2,10.14Zm.27-.1c-.09.08.11.17,0,.28.15,0,.32,0,.29-.13A.32.32,0,0,1,16.47,10Zm.71.32c0,.08.09.08.1.16a.19.19,0,0,0,.18-.12C17.33,10.42,17.26,10.33,17.18,10.36Zm.27.12c0,.05-.16,0-.17.1a.63.63,0,0,0,.3,0A.15.15,0,0,0,17.44,10.47Zm.29,0c-.11,0-.14-.07-.24-.09s0,0,0,.06.09.09.15.12A.23.23,0,0,0,17.73,10.47Zm-1.41-.57a.49.49,0,0,1-.14.13s0,.06,0,.09a.23.23,0,0,0,.29-.16C16.39,10,16.39,9.91,16.32,9.91ZM16,9.79s0,0,0,.07A.14.14,0,0,1,16,10c.16,0,.24,0,.27-.12A.3.3,0,0,1,16,9.79Zm.42-.58a1.57,1.57,0,0,0,.2-.13c-.05,0,0-.13,0-.18a.32.32,0,0,1-.22-.06A.24.24,0,0,0,16.47,9.21Zm-.3-.06c0,.07-.08.09-.09.16s.18.12.35.1c0-.06,0-.13,0-.16S16.33,9.1,16.17,9.15ZM16,8.83c0,.08-.07.12-.09.19s.28.14.44.09V8.93A.35.35,0,0,1,16,8.83Zm.12-.26c-.29.18.12.53.32.28a.45.45,0,0,1,0-.23A.27.27,0,0,1,16.11,8.56Zm.88.26a1.29,1.29,0,0,0,.07-.39C16.79,8.37,16.75,8.79,17,8.83Zm-.25-.6c-.09,0-.14.11-.24.13a.28.28,0,0,0,.3.26c0-.11.08-.16.13-.22A.31.31,0,0,1,16.74,8.23Zm.32.19V8c-.11,0-.17.11-.34.1C16.74,8.29,16.86,8.38,17.06,8.42Zm-.44-.67c-.07.13-.08.3.08.34S17,8,17,8s0-.09,0-.16A.67.67,0,0,1,16.62,7.75Zm.32-.31a.89.89,0,0,1-.4,0c-.14.22.2.38.49.32C17,7.67,17,7.54,16.94,7.44Zm.76-.52c0,.05-.18,0-.24,0a.38.38,0,0,1,.09.31A.36.36,0,0,0,18,7.09.26.26,0,0,1,17.7,6.92Zm.81.16c-.06,0-.08.12-.22.1a.64.64,0,0,1-.17.22c.05.09.14,0,.3.06s.25,0,.25-.09-.19-.1-.24-.22c.07.1.36.1.39,0A1.4,1.4,0,0,0,18.51,7.08Zm.69.18a.33.33,0,0,1-.22.09.24.24,0,0,1,0,.22c.07,0,.09,0,.15,0s.14-.14.3-.13a.35.35,0,0,0,0-.16A.45.45,0,0,1,19.2,7.25Zm-.59,0a.13.13,0,0,1,0,.25c.06,0,.13,0,.15.12l.19-.06a.34.34,0,0,0,0-.23C18.78,7.34,18.77,7.16,18.61,7.25Zm-.82-.42c-.21.22.32.35.37.12C18,6.94,18,6.82,17.78,6.83Zm-.27-.12a.41.41,0,0,1,0,.22c.14,0,.25,0,.27-.12S17.62,6.68,17.51,6.71Zm0,0a1.25,1.25,0,0,0-.24,0,.18.18,0,0,1-.14.18.43.43,0,0,0,.08.14C17.42,7,17.53,6.95,17.5,6.74Zm-1.58-.6c0,.11-.12.14-.17.22s.53.16.62,0-.1-.13-.13-.2S16,6.22,15.91,6.15Zm.25-2.75a1,1,0,0,0-.74-.23A4.72,4.72,0,0,0,16.17,3.39Zm.1.32c-.21,0-.41-.22-.62-.16,0,.07.15.09.24.13l.25.13C16.2,3.8,16.23,3.75,16.27,3.71Zm-.54-.2c.21,0,.38.16.56.17C16.15,3.59,15.93,3.36,15.73,3.51Zm.18.38c.06,0,.08-.06.15-.06a1.11,1.11,0,0,0-.42-.22C15.67,3.76,15.82,3.8,15.91,3.89Zm4.28.58a2.7,2.7,0,0,1-.08.32C20.33,4.81,20.45,4.49,20.19,4.47Zm-.44.48c0,.07,0,.13-.07.17a1,1,0,0,0,.3,0A.48.48,0,0,0,19.75,4.95Zm-.2.54c.06,0,.13,0,.15-.09a6.6,6.6,0,0,0-1-.26.58.58,0,0,1-.07.13A7.9,7.9,0,0,1,19.55,5.49Zm-.4,0c-.23,0-.25-.19-.49-.19,0,.05-.06.05,0,.12.28.08.41.3.76.32,0,0,0,0,0-.06S19.22,5.55,19.15,5.47Zm-.35-.36a3.42,3.42,0,0,0,.46-.29A.46.46,0,0,0,18.79,5.11Zm.52-.06c.06-.08.16-.12.2-.2s-.18-.06-.25,0S19.27,5,19.31,5.05Zm-2.86.16a.31.31,0,0,0-.05.15c.07,0,.17,0,.22,0S16.52,5.23,16.45,5.21Zm.49,0a1.87,1.87,0,0,1-.35,0s-.09-.08-.1,0S16.81,5.37,16.94,5.24Zm-1.28.36s0,.07,0,.09,0,0,0-.06Zm0,.18a.26.26,0,0,1-.25.09.32.32,0,0,0,.3.22c.05,0,.21,0,.18-.12S15.66,5.88,15.63,5.78Zm.88-1.06-.56.09a2.35,2.35,0,0,0,1.18.2C16.84,5,16.74,4.79,16.5,4.72Zm.81.09c-.14.3.16.63.61.58,0-.08-.2-.06-.22-.15s.06-.1.1-.17,0-.16.12-.18.27.27.47.26C18.69,4.58,17.5,4.38,17.31,4.8Zm.91.31c-.05,0-.08-.14-.15-.12a.32.32,0,0,0,0,.38c.07,0,.09,0,.15,0A.36.36,0,0,1,18.22,5.11Zm-.24,0c0-.08.1-.13.08-.19a.28.28,0,0,0-.2,0c0,.13-.12.2-.15.32A2.36,2.36,0,0,1,18,5.4s.06,0,.08,0A.45.45,0,0,1,18,5.12Zm.25,0s0,.14,0,.18a.19.19,0,0,0,.13-.13C18.3,5.18,18.3,5.13,18.24,5.12Zm.6-.63c0-.05.09,0,.09-.1s0-.22,0-.26C18.7,4.09,18.7,4.41,18.84,4.5Zm0-.38s0,0,0,0c-.44-.1-.51.47-.15.5a.23.23,0,0,1,.08-.07C18.7,4.4,18.69,4.16,18.88,4.12ZM14.57,6c-.16.32.4.22.51.09A.61.61,0,0,0,15,5.9C14.89,6,14.7,6,14.57,6Zm1.28.1c-.19.07-.35,0-.57.06C15.24,6.51,16.06,6.36,15.84,6.06Zm.51,1a.32.32,0,0,0,0,.19.56.56,0,0,1-.42.13s-.07,0-.07.09c.11.27.61.18.66-.07-.07,0-.15-.07-.17-.15a.52.52,0,0,0,.57.13A1.29,1.29,0,0,0,16.77,7,.48.48,0,0,1,16.35,7.11Zm.22-.48a.47.47,0,0,1-.39.2c0,.32.45.34.61.16A2.14,2.14,0,0,0,16.57,6.63ZM16,6.52c-.09.43.49.29.57.09a.86.86,0,0,0-.2-.26A.39.39,0,0,1,16,6.52Zm-.89-.47c-.09,0-.19.13-.34.13,0,.13,0,.24.14.29s.36-.06.47-.16a.23.23,0,0,1-.12-.2C15.2,6.1,15.16,6.07,15.1,6.06Zm5.69.6c.05.05.07.26.14.35C21.43,7.11,21.09,6.56,20.8,6.66Zm-5.44-.31a.46.46,0,0,1-.17.12c.08.21.54.2.6,0,0,0-.07,0-.07-.1A.64.64,0,0,1,15.36,6.35Zm.24.54c0,.34.69.27.57-.06-.11,0-.13-.06-.19-.1A.59.59,0,0,1,15.59,6.89ZM16,6.7s0-.12,0-.17-.12,0-.17-.06a.39.39,0,0,1-.42.18C15.38,7,15.88,6.85,16,6.7Zm-.59.1c0,.05-.1.07-.15.1s.09.17.18.2A.38.38,0,0,0,15.61,7s0-.06,0-.13S15.46,6.83,15.41,6.8Zm.35.34c-.07.35.48.33.59.13a.16.16,0,0,1,0-.16c-.05,0-.11-.05-.12-.12S16,7.18,15.76,7.14Zm-.34,0a1.43,1.43,0,0,1,.15.38c.12,0,.31,0,.33-.07a.28.28,0,0,1-.17-.31s-.1,0-.1-.09S15.54,7.13,15.43,7.12ZM18.17,7c0,.06-.09.07-.1.13s.34.11.4,0A.28.28,0,0,0,18.17,7Zm-5.25.7a.69.69,0,0,1-.22,0c-.09.17,0,.31.29.28,0,0,0-.06,0-.07S12.91,7.76,12.92,7.66Zm-.29.12a.36.36,0,0,1-.29,0,.23.23,0,0,0,.1.35c.07,0,.11-.07.22-.06s0-.14.07-.2S12.67,7.81,12.63,7.78ZM12.28,8A.51.51,0,0,1,12,8a.23.23,0,0,0,.05.31c0-.1.27,0,.34,0s0,0,0-.06A.32.32,0,0,1,12.28,8Zm-.44.48a1,1,0,0,0,.22,0c-.06-.06,0-.11,0-.19S11.76,8.33,11.84,8.48ZM12,8.21c-.1-.11.08-.26,0-.31a.26.26,0,0,0-.12.36C11.9,8.26,11.95,8.23,12,8.21Zm-.25-.66a.26.26,0,0,0,0,.51c0-.1.08-.14.15-.18a.3.3,0,0,1,0-.22A.32.32,0,0,1,11.75,7.56Zm7.09-.42s-.07,0-.08.09.47.1.49-.07S19,7.14,18.84,7.14ZM13.05,8.29c.11,0,.14.1.2.16s.11,0,.2,0,0-.06.05-.09a.26.26,0,0,1-.17-.2A.37.37,0,0,0,13.05,8.29Zm0-.45a.22.22,0,0,0,.1.35.31.31,0,0,1,.19-.06c0-.09.07-.13.1-.2S13.18,7.89,13.05,7.84Zm.69.1c-.07,0,0-.2,0-.25a3.38,3.38,0,0,0-.37-.1C13.23,7.81,13.5,8,13.74,7.94Zm2.09-.42a.44.44,0,0,1-.24,0,.62.62,0,0,1,0,.28.55.55,0,0,0,.39,0A.29.29,0,0,0,15.83,7.51Zm-.1.35c0,.18.17.27.44.25C16.18,8,16,8,16,7.85S15.81,7.9,15.73,7.86Zm0,0c-.07,0-.07,0-.13,0a.23.23,0,0,1-.14.16c0,.14.14.19.34.17S15.73,8,15.71,7.86ZM11.64,8a.25.25,0,0,1-.08-.23c-.14,0-.16.08-.29.09,0,.19.08.27.25.29S11.61,8.06,11.64,8Zm-.39,0c-.24.15,0,.5.3.35,0-.08-.07-.12-.05-.23A.56.56,0,0,1,11.25,8Zm0,0s0-.11,0-.16a.54.54,0,0,1-.2,0c0,.07-.12.08-.15.15s.11.15.24.17A.72.72,0,0,1,11.27,8ZM10,8.68c.07.19.54,0,.41-.22-.08,0-.25,0-.32,0C10.1,8.53,10,8.57,10,8.68Zm.07.61c-.06,0-.08.06-.15.06,0,.2.16.28.37.23,0-.07-.08-.12,0-.19A.26.26,0,0,1,10.09,9.29Zm-.84,1.88c0,.19.22.09.25,0S9.38,11.18,9.24,11.17Zm-.12-.1s-.08,0-.15,0,0,.1,0,.16.24.07.3,0A.24.24,0,0,0,9.13,11.07Zm-.44.31c.09.07.26,0,.29-.06S8.7,11.25,8.69,11.38Zm-.57.12a.12.12,0,0,0,.22,0c-.06,0-.12-.07-.08-.12A.16.16,0,0,0,8.12,11.49ZM16,7.67c-.07.34.34.45.57.28-.05-.07,0-.16,0-.22l-.15-.16C16.4,7.7,16.16,7.74,16,7.67Zm.42.93c-.13.27.34.37.44.16,0,0-.06-.07-.05-.13C16.62,8.64,16.56,8.49,16.42,8.61Zm-4.33-.15c.1,0,.22,0,.34,0,0-.07,0-.16,0-.22C12.2,8.18,12,8.3,12.09,8.46Zm.35,0,.3,0c0-.1.09-.17.08-.2s-.17-.06-.15-.19C12.44,8.08,12.39,8.28,12.44,8.46Zm.3-.55a.24.24,0,0,0,.08.38c.12,0,.25,0,.29-.1A.22.22,0,0,1,13,7.94.48.48,0,0,1,12.75,7.91Zm0,.6.37.09c0-.07.06-.1.08-.16S12.73,8.22,12.76,8.51Zm-1.21,0c.08,0,.16-.06.27,0a.48.48,0,0,1,0-.15C11.67,8.31,11.47,8.38,11.55,8.53ZM11.64,8a.21.21,0,0,0-.07.32.35.35,0,0,1,.25,0c0-.07-.06-.14,0-.25S11.69,8,11.64,8Zm5.07.07L16.55,8a.65.65,0,0,1-.37.07C16.09,8.45,16.75,8.4,16.7,8.11Zm-.17.42c0-.06-.06-.1-.05-.17a.3.3,0,0,1-.29-.09C15.92,8.5,16.3,8.74,16.54,8.53Zm-.73-.47c-.06.2,0,.41.27.38,0-.14.16-.16.09-.32A.68.68,0,0,1,15.81,8.07Zm-5-.12a.64.64,0,0,1-.22.31.24.24,0,0,0,.25.16c.08-.05.12-.14.25-.15V8.16C11,8.16,10.91,8,10.84,8Zm-.52.15a1.08,1.08,0,0,0-.19.32.24.24,0,0,0,.37-.16A.27.27,0,0,1,10.32,8.1Zm3.54,0a.3.3,0,0,0,0,.48.36.36,0,0,1,.14,0c0-.13.07-.19.12-.28s-.07-.13-.1-.19S13.93,8,13.86,8.07Zm-3.27.17s0,0-.07,0a.37.37,0,0,1-.1.19.17.17,0,0,1,0,.18.29.29,0,0,0,.4-.19A.27.27,0,0,1,10.59,8.24Zm.52,0c-.22,0-.31.35,0,.38.11-.07.24-.11.29-.23C11.21,8.43,11.19,8.33,11.11,8.29Zm4.66.15A.22.22,0,0,0,16,8.8c-.08-.14.15-.19.07-.33C15.93,8.48,15.9,8.4,15.78,8.43Zm-.08.25c-.17,0-.4.29-.22.41S16,9,16,8.83A.31.31,0,0,1,15.69,8.68Zm-.15-.28s-.12.07-.24,0a.23.23,0,0,0,.15.38.39.39,0,0,1,.25-.16.3.3,0,0,1,0-.22A.49.49,0,0,1,15.54,8.4Zm.29,0s-.1-.16-.05-.23a.83.83,0,0,1-.24,0C15.44,8.35,15.61,8.48,15.83,8.42Zm-1.36-.15a.46.46,0,0,1-.32,0,.29.29,0,0,0-.1.26c.13,0,.17.1.27.13a.31.31,0,0,1,.22-.06.44.44,0,0,1,0-.25A.31.31,0,0,1,14.46,8.27Zm-.67.5c.15,0,.27.07.42.09,0-.08,0-.11.07-.17S13.75,8.45,13.79,8.77Zm-.07-.48c-.39,0-.29.48,0,.47a.22.22,0,0,1,.12-.2A.27.27,0,0,1,13.72,8.29Zm-3,.37c0,.07.08.15.17.18s.11-.11.17-.16c-.11,0-.14-.16-.13-.23A.38.38,0,0,1,10.68,8.65Zm3.91-.26c-.08.16,0,.35.15.36s.12-.06.22,0v-.2C14.88,8.39,14.73,8.42,14.58,8.39Zm0,.25c-.19,0-.31.07-.32.23.17,0,.3.07.47.09a.21.21,0,0,1,0-.19A.24.24,0,0,1,14.55,8.64ZM15,8.52a.38.38,0,0,0,.12.34c-.08,0-.07-.12-.17-.13a.18.18,0,0,0-.2.25,2.84,2.84,0,0,1,.35.06.25.25,0,0,1,.2-.28c0-.05,0-.06-.05-.12s.07-.16.05-.2S15.11,8.52,15,8.52Zm.3.23c-.08.07-.22.14-.17.28s.2,0,.32,0a.27.27,0,0,1,0-.23C15.35,8.83,15.35,8.76,15.27,8.75Zm-3.91-.1c0-.06.14-.06.19-.1a.12.12,0,0,1,0-.13C11.34,8.39,11.23,8.58,11.37,8.65Zm2.07-.2c-.16,0-.29,0-.27.16s.27.09.37.07A.25.25,0,0,1,13.44,8.45Zm-3.08.31c0,.13.17.25.37.23,0-.05.11,0,.1-.12s-.14-.12-.17-.22S10.38,8.63,10.36,8.75Zm.79.06c0-.07.13-.1.18-.16S11,8.7,11.15,8.81ZM11,8.68c-.14,0-.33.29-.07.31C11.08,8.91,11.16,8.79,11,8.68Zm-.66.2a.21.21,0,0,0,.19.36c0-.13.11-.13.13-.23A.46.46,0,0,1,10.39,8.88Zm5.41.2a.19.19,0,0,1,0,.22.28.28,0,0,0,.37-.16c-.11,0-.21,0-.24-.12S15.84,9.07,15.79,9.09ZM9.7,10.66a.15.15,0,0,0,.12.23c.08-.06.21-.16.34-.09,0-.11,0-.17,0-.22s0-.16-.09-.15.1.05,0,.07a.23.23,0,0,0-.22,0s0,.09,0,.1a.4.4,0,0,1,.27,0A.55.55,0,0,0,9.7,10.66Zm1,.07a.51.51,0,0,1-.17,0,.22.22,0,0,0,.17.37C10.67,10.94,10.74,10.9,10.69,10.74ZM8,11.84a.21.21,0,0,1-.17-.09s0,0,0,0,0,.11,0,.12a.5.5,0,0,0-.25,0c0,.05.06.07,0,.09s-.24,0-.24.06c.33,0,.61-.14.94-.19,0-.07-.11-.06-.17-.09S8,11.81,8,11.84Zm.49-.12c-.05,0-.16,0-.25,0s0,0,0,.09a1,1,0,0,0,.52-.12c-.09,0-.15,0-.27,0S8.49,11.71,8.45,11.73ZM9,11.33a.33.33,0,0,1-.19.12c0,.07,0,.09.07.12s.13-.06.22-.07A.48.48,0,0,1,9,11.33Zm-.39.2c0,.13.22.12.29,0s-.08-.07-.12-.1S8.65,11.51,8.61,11.54Zm.66-.26c0,.08-.18,0-.24.1a.22.22,0,0,0,.08.09.7.7,0,0,0,.24-.16C9.29,11.32,9.29,11.28,9.26,11.27Zm-.62.07c-.06,0-.06.07-.12.07s.24.1.29,0S8.71,11.37,8.64,11.35Zm-.44.23c0,.1.11.14.22.12s0-.15-.08-.19S8.27,11.58,8.2,11.58Zm0,0a.16.16,0,0,1-.12,0c0,.06,0,.11.12.1s0-.05,0-.09S8.21,11.61,8.17,11.61Zm0,0c-.06,0-.11-.07-.07-.12a.2.2,0,0,0-.15.1C8,11.64,8.15,11.65,8.18,11.57Zm-.22,0c-.07,0-.14,0-.15.1s.18.08.22,0S7.93,11.57,8,11.52Zm-.33.16c0,.09.17.09.22,0s-.07,0-.05-.12,0,0,0,0S7.64,11.61,7.63,11.68Zm-.05,0c0,.05-.15,0-.15.1s.22.09.24,0S7.62,11.69,7.58,11.67Zm-.35.19c0,.09.16.08.24,0s0-.09-.07-.16S7.23,11.78,7.22,11.86Zm-.56.36a.36.36,0,0,0,.2-.07S6.65,12.12,6.67,12.22Zm.18-.16v.07c.1,0,.11,0,.2,0S7,12,7,12s0,.07.07.06.07,0,.13,0,0-.1,0-.1S7.1,12,7,12s0,0,0-.09-.18,0-.2.12S7,12,7,12A.79.79,0,0,1,6.85,12.06ZM7,12c.08,0,.13,0,.2,0s0-.11,0-.1S7,11.86,7,12Zm-.4.16c.11,0,.22,0,.24-.07A.18.18,0,0,0,6.62,12.12Zm.05,0c-.1,0-.18,0-.19.09S6.66,12.21,6.67,12.13Zm0,.1c-.07,0-.27,0-.25.09S6.61,12.27,6.69,12.24Zm-.25.1c-.07,0,.07-.1,0-.13s-.12.07-.12.16A.16.16,0,0,0,6.43,12.34Zm2.06-.92a.1.1,0,0,1-.1.07c0,.09.1.11.2.12s0-.06,0-.1S8.52,11.45,8.49,11.42Zm-.66.32c0,.05.05.08.13.07s.14-.09.05-.15S7.87,11.69,7.83,11.74Zm-.1,0c-.07,0-.07,0-.1.07s0,0,.08,0S7.71,11.79,7.73,11.77Z"/><path class="cls-3" d="M10.68,12c0,.07-.07.08-.1.13a.33.33,0,0,0,.08.12.11.11,0,0,1-.15-.13s0,0,.07,0-.08-.09-.12-.14S10.67,11.9,10.68,12Z"/><path class="cls-3" d="M11.06,11.51a.43.43,0,0,0,0,.15.22.22,0,0,1-.15,0,.11.11,0,0,0,0,.09c-.06,0-.09,0-.12,0s0-.05,0-.09h.12c0-.05-.08-.13,0-.19A.24.24,0,0,0,11.06,11.51Z"/><path class="cls-3" d="M15.78,9.1c.07.11,0,.34-.22.29l0,0a1.07,1.07,0,0,1-.29,0,.31.31,0,0,1-.19-.28c.11,0,.25,0,.39,0,0,.09,0,.26.05.29a.32.32,0,0,1,0-.28A.36.36,0,0,0,15.78,9.1Z"/><path class="cls-3" d="M16.28,5.84s.07-.05.12,0,.18.25,0,.34c0,0,.07,0,.07-.06.12.13.25.28.15.5.06,0,0-.16.08-.2s-.09-.09-.1-.16a.54.54,0,0,0,.27,0c.14.05.13.34,0,.39a1,1,0,0,0-.15-.2c0,.12.19.2.2.32s-.08.13,0,.22c0-.07.05-.13.07-.2.06.1.24.23.24.36s-.12.15-.15.26a.44.44,0,0,0,.1-.12.31.31,0,0,0,.07-.13,1,1,0,0,1,.15.41c-.06.11-.18.16-.18.31,0-.12.13-.18.18-.29a1.3,1.3,0,0,1,.05.5c-.07.09-.2.13-.24.26.05-.09.15-.14.22-.22a.48.48,0,0,1-.27.52c.08,0,.16-.06.19-.13,0,.3-.27.52-.41.76a5.18,5.18,0,0,0,.17-.64,3.32,3.32,0,0,0-.39-1.82c-.21-.39-.63-.64-.61-1.2a2.54,2.54,0,0,1,.27,0C16.33,5.65,16.45,5.8,16.28,5.84Z"/><path class="cls-3" d="M19.55,7a.24.24,0,0,0-.13-.2c0,.06.12.1.12.18s-.25.19-.4.1a.22.22,0,0,0,0-.23c.25,0,.61-.19.83,0C20,7,19.71,7.1,19.55,7Z"/><path class="cls-3" d="M19.75,5.82c-.07-.07-.17,0-.29,0a.17.17,0,0,1,.08-.1.35.35,0,0,1,.19.07s0,0,0,.07.09.07.1.12c0,.32-.53.27-.72.15s-.21-.23-.34-.32a1,1,0,0,0-.44-.15,1.79,1.79,0,0,0,.24-.22c.29.08.42.29.76.32a.32.32,0,0,0,0,.15c.06,0,0,.07.07.16s0-.11,0-.18A.41.41,0,0,1,19.75,5.82Zm-.62,0c-.16,0-.24-.18-.4-.15C18.9,5.65,19,5.82,19.13,5.8Zm.56.22V5.9s0,.08,0,.12S19.67,6,19.68,6Z"/><path class="cls-3" d="M19.53,3.83a.21.21,0,0,0-.35.15L19,3.89c-.06-.46.52-.37.61-.07-.11,0-.3.08-.24.22s-.09,0-.14,0C19.19,3.81,19.37,3.73,19.53,3.83Z"/><path class="cls-3" d="M15.27,3.2s.06,0,.12,0c.33.16.81.18,1,.44,0,0-.07,0-.08.07s-.22-.2-.4-.23c0,0,.1,0,.1-.06-.17,0-.4.06-.42.19s.18.23.3.32-.05.08,0,.13.19.08.29.12c-.15,0-.33,0-.47.07a3.55,3.55,0,0,0-1.53-.35c-.25,0-.31.33,0,.32-.15.15-.41,0-.44-.13s.2-.38.47-.41a2.7,2.7,0,0,1,1,.16c0-.35.29-.56.67-.42-.12-.1-.27,0-.42,0s-.27-.11-.42-.13a.72.72,0,0,0-.42,0c0-.14.37-.17.56-.12S15.27,3.18,15.27,3.2Z"/><path class="cls-3" d="M15.91,2.78a1.44,1.44,0,0,1,1,.15s0,0,0,0a.34.34,0,0,0-.27,0A1.48,1.48,0,0,0,15.91,2.78Z"/><path class="cls-3" d="M16.79,3.11c.08,0,.13.07.18.1a3.6,3.6,0,0,0,.62.32c-.06,0-.16,0-.24,0A2.34,2.34,0,0,0,16.79,3.11Z"/><path class="cls-3" d="M15.43,3.16a1,1,0,0,1,.74.23A4.72,4.72,0,0,1,15.43,3.16Z"/><path class="cls-3" d="M19.52,4.13s-.13,0-.17-.07c.1-.25.58-.18.74,0a.54.54,0,0,1-.24.09c.19,0,.29-.17.56-.13.24.19-.14.28-.24.47s0,.23-.12.33-.21-.2-.15-.33A.23.23,0,0,0,20,4.8c.32.08.51-.28.22-.35.07-.15.36-.18.27-.42.23-.1.51,0,.47.22,0,.05-.14.13-.22.25a.56.56,0,0,0-.07.16c-.07.22-.12.43-.44.44s-.55-.31-.94-.31c-.67,0-.54.81-1.11.89-.32,0-.46-.1-.71,0a.64.64,0,0,0-.18.09c-.1.06-.15.18-.27.2s-.31-.07-.44,0c.13-.13.35-.1.52-.16s.17-.23.32-.29c-.39.13-.9,0-1.3.07.15-.21.65-.12.88-.28a2.56,2.56,0,0,1-.61-.15A.84.84,0,0,0,16,5c-.29,0-.35.42-.56.6s-.67.15-1.11.18a1.25,1.25,0,0,0-.72.25.94.94,0,0,1,.56-.5c.3-.09.71,0,.94-.15a3.86,3.86,0,0,0,.57-.58c.45,0,1,.42,1.57.19-.07,0-.11,0-.17,0-.21,0-.37-.27-.57-.29s-.65.17-.86,0,0,0,0,0-.28-.09-.29-.23.62-.35.94-.32c0,0,0,.06,0,.1s0,0-.07,0c0,.27.41.21.69.31a.88.88,0,0,1,.34.2c-.31,0-.51-.2-.81-.22s-.53.14-.87.13c.11.05.27,0,.4,0a1.85,1.85,0,0,1,.42-.07c.34,0,.54.27.91.23-.12.31.17.58.45.61s.71-.16.71-.42-.22-.41-.6-.42c-.07-.25.29-.31.45-.19,0-.07-.16-.07-.25-.09a.25.25,0,0,1,.1-.19s.09,0,.14,0,.05-.05.08-.06a.48.48,0,0,1,.27.06.35.35,0,0,0-.17.34c0,.1.13.15.22.19s.27-.22.47-.28a.4.4,0,0,0-.51-.23A.32.32,0,0,0,18.32,4l0,0s-.13,0-.15,0a.28.28,0,0,0-.1.22.22.22,0,0,0-.2.26.68.68,0,0,0-.39.09A.9.9,0,0,0,17,4.4s-.05-.08,0-.1.11,0,.18,0a.19.19,0,0,0-.22,0s0,.1,0,.12a4.35,4.35,0,0,1-.69-.06.61.61,0,0,1-.07-.16c-.09-.09-.3-.07-.37-.17s.35-.21.49-.1c0-.06-.12-.06-.19-.09a.72.72,0,0,1,.47-.25c.24,0,.53.05.77,0s.31-.08.46-.07c.34,0,.44.22.69.32a4.08,4.08,0,0,0,.42.07C19.2,4,19.33,4.13,19.52,4.13ZM17,3.74V3.8c0,.05.11.07.18.09s-.16,0-.17-.12.07-.07.15-.06S17,3.73,17,3.74Zm.74-.06a.5.5,0,0,0-.22,0s0,0,0,0,.07.11.1.07-.07,0-.07-.09S17.7,3.71,17.75,3.68Zm0,.23s.12,0,.14,0h-.17s0,0-.05,0,.09.16.15.13-.14,0-.15-.1S17.78,3.94,17.8,3.92Zm-1,.29c-.06,0-.15,0-.14-.15s.07,0,.1-.06a.13.13,0,0,0-.12,0A.14.14,0,0,0,16.77,4.21Zm.64.33s-.06,0-.05-.1.15-.06.24-.09C17.42,4.28,17.24,4.52,17.41,4.54Zm2.29-.09c-.18-.08-.25.24,0,.2-.06,0-.13,0-.14-.12A.21.21,0,0,1,19.7,4.45Zm-.59.16c-.15,0-.31.12-.32.22.08-.12.3-.27.47-.15-.06-.07,0-.19,0-.23s0,.17,0,.19S19.14,4.63,19.11,4.61Z"/><path class="cls-5" d="M17.18,3.71c-.08,0-.13,0-.15.06s.12.07.17.12S17,3.85,17,3.8V3.74S17.16,3.65,17.18,3.71Z"/><path class="cls-5" d="M17.55,3.73c0,.05,0,.09.07.09s-.11,0-.1-.07,0,0,0,0a.5.5,0,0,1,.22,0S17.59,3.69,17.55,3.73Z"/><path class="cls-3" d="M16.25,4.32c.31.12,1,0,1.16.33,0,.06-.09.08-.1.15a1.15,1.15,0,0,0-.54-.29C16.57,4.47,16.31,4.5,16.25,4.32Z"/><path class="cls-3" d="M15.48,4.7a7.83,7.83,0,0,0-1.11,0c-.51,0-1.07-.18-1.36.1,0-.18.31-.26.61-.28s.54,0,.84,0a3.68,3.68,0,0,1,.83-.09C15.29,4.6,15.37,4.66,15.48,4.7Z"/><path class="cls-5" d="M17.71,4c0,.06.08.08.15.1s-.22-.05-.15-.13,0,0,.05,0h.17s-.1,0-.14,0S17.72,3.92,17.71,4Z"/><path class="cls-5" d="M16.62,4a.13.13,0,0,1,.12,0s-.1,0-.1.06.07.11.14.15A.14.14,0,0,1,16.62,4Z"/><path class="cls-5" d="M17.6,4.35c-.08,0-.22,0-.24.09s0,.09.05.1C17.24,4.52,17.42,4.28,17.6,4.35Z"/><path class="cls-5" d="M19.53,4.54c0,.07.07.09.14.12-.22,0-.15-.28,0-.2A.21.21,0,0,0,19.53,4.54Z"/><path class="cls-5" d="M19.21,4.64s0-.16,0-.19,0,.17,0,.23c-.17-.12-.39,0-.47.15,0-.1.17-.19.32-.22S19.2,4.62,19.21,4.64Z"/><path class="cls-5" d="M17.73,4.73c0-.08.28-.12.34,0S17.81,4.63,17.73,4.73Z"/><path class="cls-5" d="M17.68,4.89S17.6,5,17.51,5s0-.09-.05-.13,0,.11.07.12S17.66,4.93,17.68,4.89Z"/><path class="cls-6" d="M17.53,5.14c0-.12,0,.1,0,0Z"/><path class="cls-3" d="M19.36,5.88c-.05-.32.29-.39.52-.52s.12-.16.22-.26,0,0,.08,0c0,.16-.14.2-.18.32a2,2,0,0,0-.56.32s0,.05,0,0S19.37,5.83,19.36,5.88Z"/><path class="cls-3" d="M15.58,5.47c.06.06.06.18.08.28s-.09.09-.2.1a.4.4,0,0,1-.27-.09.79.79,0,0,0,.4-.34s0,0,0,0S15.6,5.48,15.58,5.47Z"/><path class="cls-5" d="M18.73,5.65c.16,0,.25.13.4.15C19,5.82,18.9,5.65,18.73,5.65Z"/><path class="cls-3" d="M14.55,5.94c-.07.09,0,.14,0,.23-.11.12-.34.08-.49.15a.4.4,0,0,0-.22.29c-.19-.25.09-.35.18-.52s0-.18.08-.26.17,0,.25,0,.07.15.1.23,0-.08,0-.13S14.5,5.94,14.55,5.94Z"/><path class="cls-6" d="M19.67,6s0-.11,0-.12V6S19.64,6,19.67,6Z"/><path class="cls-3" d="M16.7,5.94a1.33,1.33,0,0,1,.47.09,1.83,1.83,0,0,1-.24.15C16.82,6.13,16.8,6,16.7,5.94Z"/><path class="cls-3" d="M14.73,6.19c.06.14.08.32.29.34-.1.08-.18-.06-.24-.12a2.13,2.13,0,0,0-.19-.22,1.36,1.36,0,0,0,.32.36C14.62,6.88,14.21,6.11,14.73,6.19Z"/><path class="cls-5" d="M20.86,6.23c0,.09.11.13.22.14a.22.22,0,0,1-.25-.2l.1.07c.06,0,.19,0,.13,0A.4.4,0,0,1,20.86,6.23Z"/><path class="cls-5" d="M20.63,6.32a.52.52,0,0,0,.34.16h.12A.38.38,0,0,1,20.63,6.32Z"/><path class="cls-3" d="M20.14,6.92a.69.69,0,0,1,.54.19c0,.06-.07.1-.05.19.06-.15.09-.26.24-.28s.12,0,.19,0a.22.22,0,0,0,.17-.12c.08.1,0,.28-.09.34.15-.07.12-.31.35-.35s.36.07.37-.12c.24.13.11.54-.25.41,0,0,.1,0,.17,0a.45.45,0,0,1-.69.23s.09.09.15.1c-.11.19-.54.19-.78.09.06,0,.16,0,.2-.06A.66.66,0,0,1,20,7.4c.05-.06.1-.18,0-.23.07.12,0,.28-.22.28a.25.25,0,0,0,0-.16c.13,0,.17-.07.22-.13s-.06-.19,0-.28a.12.12,0,0,0-.08-.1,2.48,2.48,0,0,1,.24-.34c0,.19.11.28.12.47A.33.33,0,0,0,20.14,6.92Zm.54.55c-.27.12-.38-.17-.56-.17C20.29,7.35,20.44,7.61,20.68,7.47Z"/><path class="cls-3" d="M15.37,6.63c0,.06,0,.12,0,.15a.31.31,0,0,1-.13.1c-.14-.07-.19-.21-.32-.29.11.13.24.24.34.38a.63.63,0,0,0-.27.1.29.29,0,0,1-.13-.48c.14,0,.17-.08.27-.1S15.27,6.6,15.37,6.63Z"/><path class="cls-3" d="M16.77,7a1.29,1.29,0,0,1,.17.41.52.52,0,0,1-.57-.13c0,.08.1.11.17.15,0,.25-.55.35-.66.07,0-.05.06,0,.07-.09a.56.56,0,0,0,.42-.13.32.32,0,0,1,0-.19A.48.48,0,0,0,16.77,7Z"/><path class="cls-3" d="M11,7.57a.27.27,0,0,0,.07.25c-.06.13-.38.17-.4,0S10.88,7.67,11,7.57Z"/><path class="cls-3" d="M10.61,7.81s0,0,0,0,.1.13.2.15-.11.27-.25.28-.19,0-.2-.13S10.55,7.92,10.61,7.81Z"/><path class="cls-3" d="M7.76,11.42s-.06-.07-.05-.06a.35.35,0,0,0-.27-.09c.16-.15.77-.15.87,0-.47.28-1.09.44-1.6.7a.82.82,0,0,0-.4.34c.09.07.18,0,.25,0A5.45,5.45,0,0,1,7.33,12c.38-.1.78-.16,1.16-.26a2.9,2.9,0,0,0-.59.55,1.18,1.18,0,0,0-.56.19.72.72,0,0,1-.51.22c.27-.11.34-.41.59-.54-.26,0-.29.25-.49.32s-.1,0-.15,0c-.21,0-.33.29-.56.34-.06,0-.13,0-.2,0s-.25.23-.42.32a1.22,1.22,0,0,1-.51.1,1.8,1.8,0,0,0-.52.16,1.11,1.11,0,0,1-.71.15c.46,0,.65-.33,1-.58a1.28,1.28,0,0,1,.44-.2c.26-.08.54-.12.66-.34a2.86,2.86,0,0,1-.51.16,2.72,2.72,0,0,0-.34,0,1.52,1.52,0,0,0-.24.1.68.68,0,0,1-.52.13c.06-.05.11,0,.17-.07s.24-.22.4-.29.34,0,.51-.1.21-.16.33-.2c.29-.11.73,0,.88-.32-.24-.08-.4.07-.59.1s-.42-.06-.62,0c.16-.21.51-.12.79-.2a2,2,0,0,1,.72-.19c.12,0,.24,0,.37,0-.31,0-.52-.24-.84-.28-.13,0-.26,0-.4,0s-.37-.26-.59-.15c.11-.24.47,0,.64,0a3.7,3.7,0,0,1,.46,0c.19,0,.32.18.52.19s.4-.1.64,0c0,0,0,0,0,0Z"/><path class="cls-3" d="M18.83,7.12c0,.13-.32.13-.39,0,0,.12.24.08.24.22s-.12.1-.25.09-.25,0-.3-.06a.64.64,0,0,0,.17-.22c.13,0,.16-.06.22-.1A1.4,1.4,0,0,1,18.83,7.12Z"/><path class="cls-5" d="M20.12,7.3c.18,0,.29.29.56.17C20.44,7.61,20.29,7.35,20.12,7.3Z"/><path class="cls-3" d="M11.3,7.44c0,.09,0,.3.15.31-.14.16-.57.08-.47-.16A1.55,1.55,0,0,1,11.3,7.44Z"/><path class="cls-3" d="M14.21,7.84a.4.4,0,0,0-.17.22.29.29,0,0,1-.17,0,.35.35,0,0,0-.15.23c-.11,0-.15,0-.22.06A.22.22,0,0,1,13.45,8c.14.05.32,0,.39.09s-.19-.21-.08-.34C13.93,7.73,14,7.8,14.21,7.84Z"/><path class="cls-3" d="M15.27,8.43s-.08.1-.05.2,0,.06.05.12a.25.25,0,0,0-.2.28A2.84,2.84,0,0,0,14.72,9a.18.18,0,0,1,.2-.25c.09,0,.08.11.17.13A.38.38,0,0,1,15,8.52C15.11,8.52,15.16,8.37,15.27,8.43Z"/><path class="cls-3" d="M10.88,8.43c0,.07,0,.22.13.23-.06.05-.15.07-.17.16s-.12-.11-.17-.18A.38.38,0,0,0,10.88,8.43Z"/><path class="cls-3" d="M11.43,8.9c0,.21-.3.25-.42.1,0,.07.11.09.19.12s-.15.21-.32.16a1.06,1.06,0,0,1,.39-.55C11.33,8.78,11.36,8.86,11.43,8.9Z"/><path class="cls-3" d="M10.56,9.63s0,.05.07.06a.58.58,0,0,0,0,.16c-.18.07-.44,0-.46-.15,0,.09.09.14.15.17a.28.28,0,0,1-.46,0A.34.34,0,0,0,10,9.71c.2,0,.3-.21.47-.07S10.56,9.66,10.56,9.63Z"/><path class="cls-3" d="M15.75,9.92a.83.83,0,0,0,.25,0,.26.26,0,0,1-.05.22l-.15,0A.15.15,0,0,0,15.75,9.92Z"/><path class="cls-3" d="M10.1,10.59a.4.4,0,0,0-.27,0s0-.09,0-.1a.23.23,0,0,1,.22,0c.06,0-.1,0,0-.07s.07.11.09.15.1.11,0,.22c-.12-.07-.26,0-.34.09a.15.15,0,0,1-.12-.23A.55.55,0,0,1,10.1,10.59Z"/><path class="cls-3" d="M12.48,11.45c-.16.05-.47,0-.54-.07a.12.12,0,0,1,.17-.1c-.07-.08-.19,0-.18.1-.15-.07-.34-.1-.41-.25s.13-.16.15-.28.27,0,.33.07,0,.24.14.35S12.32,11.39,12.48,11.45Z"/><path class="cls-3" d="M9.68,10.85s.13,0,.09.09,0-.05-.1-.06.06,0,0,.07a.91.91,0,0,1-.2.2H9.45c-.11-.1,0-.3.18-.26C9.65,10.87,9.68,10.87,9.68,10.85Z"/><path class="cls-3" d="M10.22,10.92s.16.06.24,0a.22.22,0,0,0,.2.15s-.06,0-.05.1a.23.23,0,0,0-.27,0C10.28,11.12,10.29,11,10.22,10.92Z"/><path class="cls-5" d="M19.62,11.16a.26.26,0,0,0-.27.42.43.43,0,0,1,.27-.32h.18c-.27,0-.43.12-.42.36A.26.26,0,0,1,19.62,11.16Z"/><path class="cls-5" d="M19.68,11.42s-.11,0-.08.13,0,0,.1,0,.06,0,.08-.07,0,.06,0,.09C19.55,11.65,19.52,11.43,19.68,11.42Z"/><path class="cls-3" d="M7.8,11.58s0,0,0,0,.05.06.05.12-.21.06-.22,0S7.76,11.63,7.8,11.58Z"/><path class="cls-3" d="M8.44,11.61c.12,0,.18,0,.27,0a1,1,0,0,1-.52.12s0-.05,0-.09.2,0,.25,0S8.41,11.67,8.44,11.61Z"/><path class="cls-3" d="M8,11.73c.06,0,.16,0,.17.09-.33,0-.61.14-.94.19,0-.09.21-.09.24-.06s0,0,0-.09a.5.5,0,0,1,.25,0s0-.09,0-.12,0,0,0,0a.21.21,0,0,0,.17.09S8,11.75,8,11.73Z"/><path class="cls-3" d="M7,12s-.11.06-.22,0,.13-.09.2-.12S7,12,7,12s.16,0,.2-.07,0,.06,0,.1-.08,0-.13,0,0,0-.07-.06,0,.05,0,.09-.1.06-.2,0v-.07A.79.79,0,0,0,7,12Z"/><path class="cls-5" d="M11.45,13.71c-.18,0-.43,0-.47.18C11,13.74,11.26,13.64,11.45,13.71Z"/><path class="cls-5" d="M11.37,13.85a.27.27,0,0,0-.24.13s0,0,0,0,.25-.23.35-.12c-.16-.06-.17.11-.14.17s0,0,0,0,0,0,0-.07A.28.28,0,0,1,11.37,13.85Z"/></g></g></svg>