<svg xmlns="http://www.w3.org/2000/svg" viewBox="0 0 26.99 15.86"><defs><style>.cls-1{fill:#cf142b;}.cls-2{fill:#fc0;}.cls-3{fill:#00247d;}.cls-4{fill:#5b73a3;}.cls-10,.cls-11,.cls-12,.cls-13,.cls-4,.cls-5,.cls-6,.cls-7,.cls-8,.cls-9{fill-rule:evenodd;}.cls-5{fill:#631b16;}.cls-6{fill:#a4a59f;}.cls-7{fill:#0b7039;}.cls-8{fill:#f2ca26;}.cls-9{fill:#013a95;}.cls-10{fill:#fff;}.cls-11{fill:#15923b;}.cls-12{fill:#e71e18;}.cls-13{fill:#efea3a;}</style></defs><title>flag_862</title><g id="レイヤー_2" data-name="レイヤー 2"><g id="flag"><rect class="cls-1" x="0.04" width="26.93" height="15.86"/><rect class="cls-2" y="0.02" width="26.99" height="5.04"/><rect class="cls-3" x="0.02" y="5.02" width="26.95" height="5.66"/><path class="cls-4" d="M4.38,3.5h0Z"/><path class="cls-5" d="M3.41.69h0s0,0,0,0,0,0,0-.08,0,0,.05,0Z"/><path class="cls-5" d="M3.39.79s0,0,0-.05,0,0,0,0S3.42.81,3.39.79Z"/><path class="cls-6" d="M4.19.9s.05,0,.06,0a.05.05,0,0,0,0,0s0,0,0,0h0Z"/><path class="cls-7" d="M3,1H3A0,0,0,0,0,3,1S3,1,3,1,3,1,3,1Z"/><path class="cls-7" d="M2.85,1s0,0,0,0h0s0,0,0,0,0,0,0,.05h0s0,0,0,0Z"/><path class="cls-5" d="M3.07,1s0-.09,0,0,0,0,0,0Z"/><path class="cls-6" d="M3.37,1s0,0,0,0h0s0,0-.05,0,0,0,0,0,0,0,0,0Z"/><path class="cls-5" d="M3.44,1s0,0,0,0h0s0,0,0,0S3.45,1,3.44,1Z"/><path class="cls-6" d="M4,1.1s0,0,0-.07,0,.07,0,.07Z"/><path class="cls-5" d="M2.8,1h0s0,0,0,0a.16.16,0,0,1-.1,0s0,0,.06,0h0S2.79,1.05,2.8,1Z"/><path class="cls-6" d="M3.09,1.05s0,0,0,0,0,0,0,0h0Z"/><path class="cls-5" d="M4.41,1s0,0,0,0,0,0,0,0S4.41,1.06,4.41,1Z"/><path class="cls-6" d="M4,1.07s0,0,0,0S3.95,1.07,4,1.07Z"/><path class="cls-7" d="M2.86,1.08s0,0,0,0S2.84,1.07,2.86,1.08Z"/><path class="cls-7" d="M3.51,1.09s0,0,0,0,0,0,0,0h0v0h0Z"/><path class="cls-5" d="M3.1,1.1h0s0,0,0,0h0S3.11,1.12,3.1,1.1Z"/><path class="cls-5" d="M3.81,1.12l0,0s0,0,0,0h0S3.82,1.13,3.81,1.12Z"/><path class="cls-6" d="M3.83,1.21s.08,0,.1-.07a.12.12,0,0,1-.06.11s0,0,0,0Z"/><path class="cls-6" d="M4.32,1.14s0,0,0,0h0Z"/><path class="cls-6" d="M3.71,1.18s0,0,0,0,0,0,0,.05,0,0,0,0Z"/><path class="cls-5" d="M4.38,1.18s0,0,0,0,0,0,0,0S4.38,1.2,4.38,1.18Z"/><path class="cls-5" d="M3.62,1.18s0,0,0,0h0s0,0,0,0Z"/><path class="cls-8" d="M4,1.18l0,0v0S4,1.2,4,1.18Z"/><path class="cls-8" d="M4,1.18H4s0,0,0,0,0,0,0,0S4,1.2,4,1.18Z"/><path class="cls-8" d="M4.11,1.21h0s0,0,0,0S4.09,1.21,4.11,1.21Z"/><path class="cls-8" d="M3.64,1.22a.1.1,0,0,1,.06,0,.06.06,0,0,1-.06.08,0,0,0,0,1,0,0Z"/><path class="cls-8" d="M4,1.25s-.05,0-.06-.05S4,1.22,4,1.25Z"/><path class="cls-8" d="M4.19,1.2a.09.09,0,0,1,0,0s0,0,0,0,0,0,0,0,0,0,0,0Z"/><path class="cls-6" d="M4.63,1.21s0,0-.08,0h.08Z"/><path class="cls-8" d="M3.44,1.26s0,0-.06,0S3.44,1.24,3.44,1.26Z"/><path class="cls-6" d="M3.61,1.21s0,0-.07.05S3.6,1.24,3.61,1.21Z"/><path class="cls-6" d="M4.38,1.22s0,0,0,0S4.38,1.21,4.38,1.22Z"/><path class="cls-8" d="M4.07,1.22s0,0-.05,0S4,1.21,4.07,1.22Z"/><path class="cls-5" d="M2.84,1.26s0,0,0,0,0,0,0,0,0,0,0,0Z"/><path class="cls-8" d="M3.91,1.22l.06,0S3.87,1.26,3.91,1.22Z"/><path class="cls-6" d="M3.78,1.23a0,0,0,0,1,0,.08h0S3.75,1.23,3.78,1.23Z"/><path class="cls-8" d="M3.28,1.3s0,0,0,0,0,0,0,0h0S3.28,1.3,3.28,1.3Z"/><path class="cls-6" d="M3.7,1.31h0s0,0,.06,0,0,.06,0,.05Z"/><path class="cls-6" d="M3.87,1.27s0,0,0,0h0S3.85,1.26,3.87,1.27Z"/><path class="cls-8" d="M3.36,1.31h0s0,0,0,0h0A.12.12,0,0,1,3.36,1.31Z"/><path class="cls-6" d="M3.6,1.27h0s0,0,0,0,0,0,0,0,0,0,0,0Z"/><path class="cls-8" d="M4,1.27s0,0-.05,0S4,1.29,4,1.27Z"/><path class="cls-6" d="M4.36,1.31l0,0S4.35,1.29,4.36,1.31Z"/><path class="cls-5" d="M2.64,1.3a.06.06,0,0,0,.05,0s0,0,0,0l-.08,0S2.63,1.31,2.64,1.3Z"/><path class="cls-8" d="M4,1.3s0,0,.07,0-.07,0-.13,0,0,0,0,0S4,1.28,4,1.3Z"/><path class="cls-8" d="M3,1.3s-.05,0,0,0Z"/><path class="cls-8" d="M3,1.31s.09,0,.08,0Z"/><path class="cls-6" d="M3.64,1.34v.6C3.63,1.76,3.63,1.53,3.64,1.34Z"/><path class="cls-6" d="M2.84,1.39h0s0,0,0,0S2.82,1.4,2.84,1.39Z"/><path class="cls-5" d="M2.79,1.42v0s0,0,0,0v0s0,0,0,0S2.79,1.43,2.79,1.42Z"/><path class="cls-6" d="M4.37,1.49a.09.09,0,0,1,0-.05S4.37,1.47,4.37,1.49Z"/><path class="cls-8" d="M3.85,1.46s0,.08,0,.07Z"/><path class="cls-5" d="M4.38,1.47s0,0,0,0h0v0a0,0,0,0,1,0,0h0S4.37,1.47,4.38,1.47Z"/><path class="cls-6" d="M4.32,1.48s0,.09,0,.11S4.31,1.5,4.32,1.48Z"/><path class="cls-8" d="M3.84,1.48s0,0,0,0S3.84,1.5,3.84,1.48Z"/><path class="cls-8" d="M4,1.49s0,0,0,.07S4,1.51,4,1.49Z"/><path class="cls-7" d="M4.45,1.55a.1.1,0,0,0,0,0s0,0,0-.07,0,0,0,0S4.44,1.55,4.45,1.55Z"/><path class="cls-9" d="M4,1.62s0-.06,0-.08S4,1.59,4,1.62Z"/><path class="cls-5" d="M4.4,1.54a.14.14,0,0,1,0,.05s0,0,0,0a0,0,0,0,0,0,0Z"/><path class="cls-9" d="M4.14,1.87s0,0,0,0l0,0a.32.32,0,0,1,.06-.27A1.24,1.24,0,0,1,4.14,1.87Z"/><path class="cls-7" d="M2.45,1.69s0,0,0,0,0,0,0,.06S2.46,1.69,2.45,1.69Z"/><path class="cls-5" d="M2.82,1.61s0,.06,0,.1a0,0,0,0,1,0,0S2.81,1.64,2.82,1.61Z"/><path class="cls-9" d="M3.89,1.86H3.82V1.62A.22.22,0,0,1,3.89,1.86Z"/><path class="cls-8" d="M3.95,1.66s0,0,0,0,0,0,0,0,0,.07,0,.11L4,1.7S3.95,1.68,3.95,1.66Z"/><path class="cls-7" d="M2.49,1.71a.09.09,0,0,1,.07,0S2.52,1.71,2.49,1.71Z"/><path class="cls-5" d="M2.24,1.78s0,0,0,0,0,0,0,0Z"/><path class="cls-7" d="M2.46,1.79h0v.05s0,.06,0,.07V2c0,.1,0,0,0-.06S2.46,1.85,2.46,1.79Z"/><path class="cls-5" d="M2.47,1.84v.07S2.46,1.85,2.47,1.84Z"/><path class="cls-5" d="M2.45,1.93V2s0-.08-.05-.09,0,0,0-.05,0,.06,0,.07S2.44,1.93,2.45,1.93Z"/><path class="cls-6" d="M4,1.89s0,0,0,.07S4,1.91,4,1.89Z"/><path class="cls-8" d="M3.4,1.9s.06,0,.08.09S3.4,2,3.4,1.9Z"/><path class="cls-9" d="M4,2s0,.1,0,.11A.9.9,0,0,0,4,2Z"/><path class="cls-9" d="M4,2s0,.13,0,.18S4,2,4,2Z"/><path class="cls-7" d="M2.7,2s0,0-.06,0S2.67,2,2.7,2Z"/><path class="cls-5" d="M4.72,2a.16.16,0,0,1,0,.1S4.71,2,4.72,2Z"/><path class="cls-6" d="M2.43,2.12h0v.06s0-.07,0-.06Z"/><path class="cls-7" d="M2.45,2.13s0,0,0,0a.58.58,0,0,0,0,.15s0,.09,0,.11h0s0-.06,0-.05V2.13Z"/><path class="cls-5" d="M2.14,2.22s0,0,0-.05h0S2.15,2.2,2.14,2.22Z"/><path class="cls-7" d="M4.33,2.17v.17h0A.75.75,0,0,1,4.33,2.17Z"/><path class="cls-5" d="M2.5,2.23s0,0,0,0A.05.05,0,0,1,2.5,2.23Z"/><path class="cls-5" d="M2.11,2.29s0,0,0,0,0,0,0,0Z"/><path class="cls-5" d="M4.75,2.27c0,.07,0,.18,0,.26A2,2,0,0,1,4.75,2.27Z"/><path class="cls-6" d="M4.32,2.34h0c0,.1,0,.22,0,.31Z"/><path class="cls-5" d="M3.61,2.49s-.06,0-.11,0,0,0,.05,0Z"/><path class="cls-5" d="M3.61,2.54l-.06,0c-.07,0,0,0,0,0l0,0Z"/><path class="cls-5" d="M3.58,2.62H3.52s0,0,0,0,0,0,0,0A0,0,0,0,0,3.58,2.62Z"/><path class="cls-9" d="M3.21,2.7a.68.68,0,0,1,.05-.12s0,.06,0,.09,0,0,0,0,0,0,0,0h0s0,0,0,0Z"/><path class="cls-5" d="M3.72,2.61h-.1A.11.11,0,0,1,3.72,2.61Z"/><path class="cls-7" d="M5,2.75a.51.51,0,0,1,.17-.09s-.08,0-.1.07,0,0-.08,0Z"/><path class="cls-7" d="M4.54,2.76a.18.18,0,0,1,0,.11Z"/><path class="cls-5" d="M4.62,2.78v.05s0,.06,0,.1A.36.36,0,0,1,4.62,2.78Z"/><path class="cls-7" d="M2.78,2.82s0,0,0,0h0S2.78,2.83,2.78,2.82Z"/><path class="cls-7" d="M4.32,2.83V2.9h0S4.31,2.84,4.32,2.83Z"/><path class="cls-6" d="M4.32,2.9h0s0,.08,0,.1Z"/><path class="cls-9" d="M3.85,3s0,0,0,0A.06.06,0,0,1,3.9,3s0,0,0,0S3.86,3,3.85,3Z"/><path class="cls-7" d="M2.66,3a1.68,1.68,0,0,0,.15.2A.39.39,0,0,1,2.66,3Z"/><path class="cls-5" d="M2.85,3.18a.56.56,0,0,0,0-.14l0,0s0,.08,0,.12Z"/><path class="cls-5" d="M2.36,3.09s0,0,0,0h0s0,0,0,0Z"/><path class="cls-7" d="M4.37,3.07a.18.18,0,0,1,0,.12s0,0-.05,0A.42.42,0,0,0,4.37,3.07Z"/><path class="cls-6" d="M4.81,3.23s.06,0,.06,0Z"/><path class="cls-7" d="M2.69,3.26s-.09,0-.1,0,.05,0,.1,0Z"/><path class="cls-6" d="M5,3.24a.09.09,0,0,1,.08,0Z"/><path class="cls-8" d="M2.29,3.24s0,0,0,0H2.22v0Z"/><path class="cls-8" d="M5.06,3.28s0,0-.08.06,0-.08,0-.07Z"/><path class="cls-8" d="M2.91,3.3H3s0,0,0,0,0,0,0,0,0,0,0,0H2.92S2.93,3.31,2.91,3.3Z"/><path class="cls-8" d="M3,3.3s0,0,0,0,0,0,0,0H3S3,3.3,3,3.3Z"/><path class="cls-8" d="M3.12,3.3h0s0,0,0,.05h0s0,0,0,0S3.12,3.31,3.12,3.3Z"/><path class="cls-8" d="M4.17,3.3h.05v0H4.16s0,0,0-.05Zm0,.05a0,0,0,0,0,0,0S4.17,3.32,4.18,3.35Z"/><path class="cls-8" d="M4.23,3.3s0,0,0,0,0,0,0,0,0,0,0,0,0,0,0,0h0s0,0,0,0,0,0,0,0S4.23,3.31,4.23,3.3Z"/><path class="cls-10" d="M3.24,1a.64.64,0,0,1,.2-.15S3.33.69,3.37.63s.09-.16.16-.16.11,0,.06,0-.13,0-.13.07,0,.16.09.17.2,0,.23,0,.08-.15,0-.19-.09,0-.09,0S3.6.46,3.72.45a.18.18,0,0,1,.2.1.31.31,0,0,1-.09.31L4,.95l.1.06-.41.26S3.47.94,3.24,1Z"/><path class="cls-8" d="M4.09,3.32h0a.08.08,0,0,1,0,.06s0,0,0,0a0,0,0,0,0,0,0s0,0,0,0,0,0,0,0h0A.12.12,0,0,1,4.09,3.32Z"/><path class="cls-8" d="M4.37,3.32h0s0,0,0,0,0,0,0,0h0s0,0,0,0S4.37,3.33,4.37,3.32Z"/><path class="cls-8" d="M2.72,3.33h0s0,0,0,0,0,0,0,0h0S2.73,3.34,2.72,3.33Z"/><path class="cls-9" d="M2.23,3.36v0s0,0-.05-.07,0,0,0,0S2.23,3.34,2.23,3.36Z"/><path class="cls-6" d="M4.89,3.33H5S4.9,3.35,4.89,3.33Z"/><path class="cls-8" d="M2.42,3.37h0s0,0,0,0,0,0,0,0,0,0,0,0h0s0,0,0,0S2.4,3.37,2.42,3.37Z"/><path class="cls-9" d="M5.06,3.42s0,0,0,0,0,0,0,0,0,0,0,0,0,0,0,0Z"/><path class="cls-8" d="M4.87,3.41v0s0,0,0,0,0,0,0,.05h0S4.87,3.43,4.87,3.41Z"/><path class="cls-7" d="M4.18,3.42s0,0,0,0,0,.09-.11.08,0-.07.08-.09Z"/><path class="cls-7" d="M4.29,3.42s-.07.08-.11.08,0-.06.08-.08v0S4.28,3.4,4.29,3.42Z"/><path class="cls-7" d="M4.33,3.43a.13.13,0,0,1-.12.07s.07,0,.09-.08S4.29,3.43,4.33,3.43Z"/><path class="cls-7" d="M3.17,3.51s0,0,0,0v0S3.17,3.49,3.17,3.51Z"/><path class="cls-7" d="M4.55,3.5h0s-.1.05-.15,0h0A.24.24,0,0,1,4.55,3.5Z"/><path class="cls-6" d="M2.34,3.5h.1A.14.14,0,0,1,2.34,3.5Z"/><path class="cls-6" d="M3.09,3.51a.08.08,0,0,1,.07,0Z"/><path class="cls-7" d="M3.53,3.51s0,.07,0,.08S3.52,3.54,3.53,3.51Z"/><path class="cls-9" d="M2.62,3.59l-.1,0a.51.51,0,0,1,.19-.06s-.07,0-.08,0Z"/><path class="cls-8" d="M3.14,3.56s0,0,0,0,0,0,0,0V3.6s0,0,0,0,0,0,0,0,0,0,0,0Z"/><path class="cls-9" d="M3.37,3.62v0c.1,0,.11.08.17.11s-.11-.05-.17-.07Z"/><path class="cls-8" d="M4.5,3.65s0,0,0,0h0a.11.11,0,0,0,0,.05h0S4.51,3.66,4.5,3.65Z"/><path class="cls-9" d="M3.6,3.69h0s0,0,0,.08S3.58,3.69,3.6,3.69Z"/><path class="cls-7" d="M4,3.89c-.08,0-.15-.08-.23-.1S3.89,3.87,4,3.89Z"/><path class="cls-6" d="M3.86,3.78h0Z"/><path class="cls-7" d="M3.41,3.9s0,0,0,0l.16-.08C3.51,3.85,3.45,3.85,3.41,3.9Z"/><path class="cls-6" d="M3.57,3.83h0Z"/><path class="cls-9" d="M2.79,4s0,0,0-.07,0,0,0,0Z"/><path class="cls-9" d="M4.47,4s0,0,0,0,0,0,0,0h0s0,0,0,0Z"/><path class="cls-5" d="M3.24,4h0a.13.13,0,0,1,.1,0Z"/><path class="cls-8" d="M2.84,4h0s0,0,0,0,0,0,0,0,0,0,0,0S2.85,4,2.84,4Z"/><path class="cls-9" d="M3,4.09s0,0,0-.05,0,0,0,0H3s0,0,0,0H3Z"/><path class="cls-8" d="M4.23,4.06s0,0,0,0a.13.13,0,0,0,0,0h0s0,0,0,0a.08.08,0,0,0,0,0h0Z"/><path class="cls-8" d="M3,4.12s0,0,0-.05,0,0,0,0,0,.05,0,0,0,0,0,0Z"/><path class="cls-9" d="M3.06,4.08s0,0,0,0v0h0S3.06,4.1,3.06,4.08Z"/><path class="cls-8" d="M3.09,4.09h0s0,0,0,.05,0,0,0,0Z"/><path class="cls-8" d="M4.16,4.09h0s0,0,0,.05h0s0,0,0,0,0,0,0,0,0,0,0,0v0s0,0,0,0Z"/><path class="cls-7" d="M3.59,4.09h0Z"/><path class="cls-8" d="M3.12,4.11s0,0,0,0,0,0,0,0,0,.05,0,0,0,0,0,0,0,0,0,0Z"/><path class="cls-8" d="M4.08,4.16s0-.08,0-.05,0,0,0,0,0,0,0,0Z"/><path class="cls-8" d="M4,4.13s0,0,0,0,0,0,0,0,0,0,0,0,0,0,0,0,0,0,0,0A0,0,0,0,0,4,4.13Z"/><path class="cls-8" d="M3.31,4.19h0s0,0,0,0,0,0,0,0h0S3.32,4.17,3.31,4.19Z"/><path class="cls-9" d="M3.4,4.16h0v0h0Z"/><path class="cls-8" d="M3.73,4.17s0,0,0,0,0,0,0,0,0,0,0,.05,0,0,0,0,0,0,0,0S3.75,4.17,3.73,4.17Z"/><path class="cls-8" d="M3.64,4.18h0v0h0S3.65,4.18,3.64,4.18Z"/><path class="cls-8" d="M3.67,4.22s0,0,0-.05h0s0,0,0,.06Z"/><path class="cls-6" d="M3.68.74s.08,0,.1,0h0s0,0,0,0h0s0,0,0,0-.06,0-.06,0,0,0-.07,0h0S3.7.74,3.68.74Z"/><path class="cls-6" d="M3.57.75H3.45A.13.13,0,0,1,3.57.75Z"/><path class="cls-6" d="M3.51.52h0s0,0,0-.06a.1.1,0,0,1,.11,0h0s0,0,0,0,0,0,0,0,0,0,0,0v0s0,0,0,.05Z"/><path class="cls-6" d="M3.39.79s0,0,0,0,0,0,0,0,0,0,0,0h0Z"/><path class="cls-6" d="M3.42.82s0,0,0,0h0s0,0,0,0,0,0,0,0h0s0,0,0,0h0S3.44.84,3.42.82Z"/><path class="cls-6" d="M3.12.94s0,.06,0,0h0S3.13,1,3.12.94Z"/><path class="cls-6" d="M3.14,1h0s0,0,0,0,0,0,0-.06Z"/><path class="cls-6" d="M3,1S3,1,3,1,3,1,3,1s0,0,0,0H3L3,1H3S3,1,3,1,3,1,3,1H3Z"/><path class="cls-6" d="M3,1A.07.07,0,0,1,3,.91,0,0,0,0,1,3,1Z"/><path class="cls-6" d="M2.85,1h0l0,0a0,0,0,0,1,0,0h0s0,0,0,.06,0-.07,0-.06-.05,0-.07,0,0,0,0,0,0,0,0,0A0,0,0,0,0,2.85,1Zm0,.09s0,0,0,0S2.83,1.1,2.84,1.11Z"/><path class="cls-6" d="M2.71,1s0,0,0,0,0,0-.06,0,0,0,0,0S2.69,1,2.71,1Z"/><path class="cls-6" d="M2.92,1.24s0,0,.05,0H3a.11.11,0,0,1-.06,0h0Z"/><path class="cls-7" d="M2.87,1.2l0,0h0s0,0,0,0-.05.06-.08.08,0,0,0-.05h0s0,0-.06-.06h0S2.85,1.2,2.87,1.2Z"/><path class="cls-6" d="M2.82,1.19s.05,0,.06,0h0s0,0-.06,0Z"/><path class="cls-6" d="M2.68,1.25s0,0,.05,0,0,0,0,0S2.68,1.23,2.68,1.25Z"/><path class="cls-6" d="M2.69,1.27s0,0-.05,0,0,0,0,0S2.64,1.26,2.69,1.27Z"/><path class="cls-6" d="M2.83,1.33s0,0,0,0h0l0,0s0,0,0,0Z"/><path class="cls-6" d="M2.75,1.4s0,0,.05-.06h0S2.77,1.4,2.75,1.4Z"/><path class="cls-6" d="M2.79,1.42s0,0,0,0a.12.12,0,0,0,0,.05h0s0,0,0,0,0,0,0,0,0,0,0,0,.06-.07,0-.12Z"/><path class="cls-6" d="M2.47,2.15h0a.61.61,0,0,0,0,.15A.58.58,0,0,1,2.47,2.15Z"/><path class="cls-7" d="M2.7,1.54s0,0,0,0h0s0,0,0,0a0,0,0,0,1,0,0s0,0,0,0a.35.35,0,0,1-.16.1v0a.12.12,0,0,1-.08,0s0,0,.06,0,0,0,0,0,0,0,0,0,0,0,0,0,0,0,0,0a.42.42,0,0,1,.09,0s0,0-.05,0,0,0,.05-.06,0,0-.07.05v0a.36.36,0,0,1-.05.08s0,0,0,0,0,.06,0,.08,0,0,0,0,0-.09,0-.13.06-.06.11-.08v0s.07,0,.1,0,0,0,0,0,0,0,0,.06h0Z"/><path class="cls-5" d="M2.51,1.28s0,.07,0,.11A.39.39,0,0,1,2.51,1.28Z"/><path class="cls-11" d="M2.15,2.24s0,0,0,0a.32.32,0,0,1,.14,0s0,0,0,0-.06,0-.08,0,0,0,0,0,0,0,0,0h0s0,0,0,0,0,0,.06,0v0s.08,0,.06,0,.15.09.17.17,0,0,0,0,0,0-.06-.07,0,0,0,0,0-.05-.08-.07,0,0,0,0-.05,0-.06,0,0,0,0,0l-.1,0a.41.41,0,0,0,.14,0h0s.08,0,.1,0,0,0-.05,0,.07,0,.08,0h0s.08,0,.09.05-.1,0-.15,0-.06,0-.08,0-.1-.05-.13-.1h0s0,0,0,0S2.17,2.26,2.15,2.24Zm.26.08s0,0,0,0a.86.86,0,0,0-.06-.1s0,0,0,0,0-.06-.06-.05,0,0,0,0,0,0,0,0A.39.39,0,0,0,2.42,2.32Z"/><path class="cls-6" d="M2.39,2.69v0l.06.06h0S2.41,2.69,2.39,2.69Z"/><path class="cls-6" d="M4.2,3.76s.06,0,.07,0Z"/><path class="cls-6" d="M4.59,3.5a0,0,0,1,1,0,0s0,0,.06,0l-.06,0h0Z"/><path class="cls-6" d="M4.9,2.64,5,2.55Z"/><path class="cls-6" d="M5.12,2.12,5.19,2Z"/><path class="cls-11" d="M4.81,2.21a1.31,1.31,0,0,1,.29-.57S5,1.73,5,1.77a1.8,1.8,0,0,0-.18.57c0,.15-.07.3-.12.43,0-.09,0-.18,0-.29a2.13,2.13,0,0,0,0,.22c0-.11,0-.25,0-.38s0,0,0,0,0-.06,0-.08,0,0,0,0c0-.29-.07-.58-.27-.71A.42.42,0,0,1,4.7,2s0,0,0,0a2.07,2.07,0,0,0-.08-.56,2.18,2.18,0,0,1,.12.35,2.18,2.18,0,0,1,0,.67A1,1,0,0,0,4.81,2.21Zm-.08-.09a.16.16,0,0,0,0-.1S4.72,2.09,4.73,2.12Zm0,.41c0-.08,0-.18,0-.26A2,2,0,0,0,4.75,2.52Zm0,.11v0s0,0,0,0,0,0,0,0S4.72,2.61,4.74,2.64Z"/><path class="cls-6" d="M4.7,1.94s0,0,0,.07,0,0,0,0h0Z"/><path class="cls-6" d="M4.38,1.94,4.46,2Z"/><path class="cls-6" d="M4.4,2.25s-.05,0,0,0l0,0S4.41,2.25,4.4,2.25Z"/><path class="cls-6" d="M4.22,3.24s0,0,.06,0h0v0Z"/><path class="cls-6" d="M3.36,3.32s0,0,0,.05,0,0,0,0S3.33,3.32,3.36,3.32Z"/><path class="cls-6" d="M4.43,1.5s0,0,0,.05,0,0,0,0,0,0,0,0,0-.06,0-.11h0S4.4,1.49,4.43,1.5Z"/><path class="cls-6" d="M4.47,1.32s0,0,.06.05S4.51,1.33,4.47,1.32Z"/><path class="cls-6" d="M4.46,1.32h0a.12.12,0,0,1,0,.06s0,0,0,0,0,0,0,0,0,0,0,0,0,0,0,0l0,0Z"/><path class="cls-6" d="M4.58,1.14s-.05,0-.06-.06h0A.14.14,0,0,1,4.58,1.14Z"/><path class="cls-6" d="M4.52,1s0,0-.07,0h0s0,0,0,0l0,0s0,0,0,0,0,0,0,0S4.49,1,4.52,1Z"/><path class="cls-6" d="M4.37,1s0,0,0,0,0,0,0,.06S4.37,1.07,4.37,1Z"/><path class="cls-6" d="M4.37,1.05s0,0,0,0h0s0,0,0,0-.07,0-.1,0A.71.71,0,0,1,4.37,1.05Z"/><path class="cls-5" d="M3.89.9s0,0,0,0h0Z"/><path class="cls-6" d="M3.74.51s0,0,0,0,0,0,0,0,0,0,0,0S3.75.51,3.74.51Z"/><path class="cls-10" d="M3.55.48s0,0,0,0h0s0,0,0-.05Z"/><path class="cls-6" d="M3.59.5h0s0,0,0,0v0h0Z"/><path class="cls-5" d="M3.55.48s0,0,0,0,0,0,0,0h0v0s0,0,0,0h0s0,0,0,0h0a0,0,0,0,1,0,.05.08.08,0,0,0-.1,0s0,0,0,0,0,0,0,0h0S3.54.48,3.55.48Z"/><path class="cls-6" d="M3.41.69s0,0,0,0,0,0,0-.07,0,0,0,0,0,0,0,0l0,0s0,0,0,0,0,0,0,0a.13.13,0,0,0,0,.14H3.41Z"/><path class="cls-5" d="M3.81.58s-.06,0-.08-.07,0,0,0,0,0,0,0-.05,0,0,0,0,0,0,0,0,0,0,0,0,0,0,0,0,0,0,0,0,0,0,0,0,0,0,0,0a0,0,0,0,0,0,0Z"/><path class="cls-6" d="M3.89.54s0,0,0,0,0,0,0,0,0,0,0,0,0,0,0,0S3.89.56,3.89.54Z"/><path class="cls-6" d="M3.78.44h0c.05,0,0,.07,0,.09s0,0,0,0,0,0,0,.05,0,0,0,0,0,0,0,0,0,0,0,0h0a0,0,0,0,1,0,0s0,0,0,0a.79.79,0,0,0,0-.08s0,0,0,0a0,0,0,0,1,0,0Z"/><path class="cls-5" d="M3.81.59h0s0,0,0,0,0,0,0,0S3.82.61,3.81.59Z"/><path class="cls-5" d="M3.78.69l0,0s0,0,0,0,0,0,0,0,0,0,0,0Z"/><path class="cls-5" d="M3.69.76h0l0,0s0,0,0,0Z"/><path class="cls-5" d="M3.86.77a0,0,0,0,0,.05,0s0,0,0,0S3.86.78,3.86.77Z"/><path class="cls-5" d="M3.57.76s0,0,0,0S3.55.78,3.57.76Z"/><path class="cls-5" d="M3.63.76s0,0,0,0,0,0,0,0S3.62.77,3.63.76Z"/><path class="cls-6" d="M3.73.85h0s0,0,0,0,0,0,0,0S3.73.87,3.73.85Z"/><path class="cls-6" d="M3.77.87l0,0s0,0-.06,0,0,0,0,0S3.77.88,3.77.87Z"/><path class="cls-6" d="M3.71.93v0s0,0,0,0h0s0,0,0,0,0,0,.06,0h0S3.72.92,3.71.93Z"/><path class="cls-6" d="M3.48.84h0s0,0,.06,0,0,0-.05,0Z"/><path class="cls-5" d="M3.41.79c.05,0,.11,0,.15,0h0s-.08,0-.06,0h0l.07,0a.29.29,0,0,0-.1,0h0s0,0,0,0h0S3.4.8,3.41.79Z"/><path class="cls-6" d="M3.9.78s0,0,0,0,0,0,0,0-.09,0,0,0S3.89.77,3.9.78Z"/><path class="cls-5" d="M3.77.87s0,0,0,0h0s0,0,.06-.06l0,.06h.07s0,0,0,0,0,0,0,0,0,0,0,0Z"/><path class="cls-6" d="M3.59,1s0,0,0,0,0,0,0,0,.05,0,0,0Z"/><path class="cls-6" d="M3.87.91s0,0,0,0v0s0,0,0,0h0Z"/><path class="cls-5" d="M3.36.85h0s0,0,0,0h0s0,0,0,0,0,0-.06,0,0,0,0,0,0,0,0,0,0,0,0,0l.05,0s0,0,0,.06l.06,0H3.32s0,0,0,0,0,0,0,0h0s0,0,0,0v0C3.28.88,3.34.89,3.36.85Z"/><path class="cls-5" d="M3.17.9h0a0,0,0,0,0,0,0s0,0,0,0,0,0,0,0h.06s0,0,0,0h0s0,0,0,0,0,0,0,0a.12.12,0,0,0,0,0v0s0,0,0,0S3.17.89,3.17.9Z"/><path class="cls-5" d="M3.72.9s0,0,0,0,0,0,0,0,0,0,0,0,0,0,0,0,0,0,0,0L3.62,1s0,0,0,0,0,0,0,0l0,0h0s0,0,.06,0a.08.08,0,0,1-.06,0s.06,0,.08,0S3.73.91,3.72.9Z"/><path class="cls-6" d="M3.88.91h0s0,0,0,0,0,0-.06,0,0,0,0,0h0Z"/><path class="cls-5" d="M3.82,1,3.9,1l0,.05s0,0,0,0Z"/><path class="cls-6" d="M3.82,1h0s0,0,0,0V1h0s.05,0,0,.08,0-.05,0,0,0,0,0,0,0,0,0,0Z"/><path class="cls-7" d="M4.2.9h0s0,0,0,0a.05.05,0,0,1,0,0h0s0,0-.05,0A0,0,0,0,1,4.2.9Z"/><path class="cls-8" d="M3.21.93H3.15s0,0,0,0,0,0,0,0a0,0,0,0,1,0,0h0s0,0,0,0S3.21.92,3.21.93Z"/><path class="cls-5" d="M4.2.9a0,0,0,0,0,0,0s0,0,.05,0,0,0-.06,0h0v0h0Z"/><path class="cls-6" d="M4.2,1h0s0,0,0,0,0,.05,0,.06-.05-.07,0-.08,0,0,0,0S4.2,1,4.2,1Z"/><path class="cls-7" d="M3.27.95s0,0,0,0h0s0,0,0,0v0s0,0,0,0,0,0,.06-.06h0s0,0,0,0,0,0,0,0,0,0,.05,0h0s0,0,0,0h0s0,0,0,0,0,0-.06,0h0s0,0,0,0-.06,0-.06,0,0,0,0,0a0,0,0,0,1,0,0s0,0,0,0a.26.26,0,0,1,0-.08s0,0,0,.06h0s0,0,0,0,0,0,0,0,0,0,0,0,0,0,0,0h0s0,0,0,0h0s0,0,0,0h0s0,0,0,0,0,0,0,0h0s0,0,0,0,0,0,0,0,0,0,0,0l0,0V1h0s0,0,0,0,0,0,0,0V1s0,.05,0,.06,0,0,0,0h0s0,0,0,0,0,0,0,0,0,.05,0,0,0-.09.07-.07,0,0,0,0,0,0,0,0,0,0,0,0S3.27,1,3.27.95Zm0,0s0,.06,0,0S3.24,1,3.23,1Z"/><path class="cls-7" d="M4.19.94s0,0,0,0,0,.08,0,.08,0-.06,0-.06,0,0,0,0h0s0,0,0,0,0,0,0,0,0,0,0,0,0,0,0,.05-.05,0,0,0l0,0h0l0,.06s0,0,0,0h0s0,0-.06,0,0,0,0,0,0,0,0,0,0,0,0,0,0-.07,0-.09,0,0,0,.07,0,0,0,0H4s0,0,0-.07,0,0,0,.07,0,0,0,0S4,1,4,1H4s0,0,0,0,0,0,0-.05V1s0-.06,0-.08l0,0s0,0,0,.07V1h0s0,0,0,0a0,0,0,0,1,0,0,.06.06,0,0,0,0-.06s0,0,.05,0,0,0,0-.06l0,0v0h0ZM4.12,1s0,0,0,0a0,0,0,0,0,0,0s0,.06,0,.09S4.16,1,4.12,1Z"/><path class="cls-5" d="M3.24.95s0,0,0,0,0,0,0,0,0,0,0,0,0,0,0,0S3.23,1,3.24.95Z"/><path class="cls-5" d="M4.11,1a.06.06,0,0,1,0,.06,0,0,0,0,0,0,0s0,0,0,0h0V1Z"/><path class="cls-6" d="M4.09,1.08s0,0,0-.09a0,0,0,0,1,0,0s0,0,0,0S4.11,1.05,4.09,1.08Z"/><path class="cls-5" d="M4.05.94s0,.07,0,.08V1S4,1,4.05.94Z"/><path class="cls-5" d="M4.16,1s0,0,0,0,0,0,0,0,0,0,0,0h0s0,0,0,0Z"/><path class="cls-6" d="M3.48,1s0,0,0,0,0,0,.06,0h0s0,0,0,0,0,0,0,0h0S3.5,1,3.48,1Z"/><path class="cls-6" d="M4,1S4,.94,3.93,1,4,.93,4,1Z"/><path class="cls-7" d="M2.95,1a.11.11,0,0,1,0-.08.2.2,0,0,1,0,.11S3,1,2.95,1Z"/><path class="cls-7" d="M3.17,1s0,0,0,0,0,0,0,0h0s0,0,0,0Z"/><path class="cls-6" d="M4,1c-.05,0,0,0-.05,0Z"/><path class="cls-5" d="M3,1H3S3,1,3,1H3S3,1,3,1A0,0,0,0,1,3,1Z"/><path class="cls-7" d="M4.26,1s0,0,0,0,0,0,0,0Z"/><path class="cls-7" d="M4.28,1s0,0,0,0a.52.52,0,0,0-.1.11s0,0,0,0,0,0,0,0a0,0,0,0,0,0,0s0,0,0,0,0,0,0,.08,0,0,0-.07,0,0,0,0S4.26,1,4.28,1Z"/><path class="cls-6" d="M4.2,1l0,0s0,0,0,0,0,0,0,0h0s0,.07-.07.07,0,0,0,0,0,.06,0,.07,0-.06,0-.08Z"/><path class="cls-7" d="M4.3,1s0,0,0,0,0,0,0,0h0s0,0,0,0S4.3,1,4.3,1Z"/><path class="cls-5" d="M2.88,1.05l0,0s0,0,0,0h0S2.9,1.06,2.88,1.05Z"/><path class="cls-12" d="M3.37,1.14a.28.28,0,0,0-.1,0s0,0,0,0,0,0,0,0h0s0,0,0,0,0,0,0,0l0,0s0,0,0,0Zm.33.17h0s0,0,0,0,0,0,0,0l-.07.05s0,0,.08,0Zm0,0h0a0,0,0,0,0,0-.08S3.73,1.26,3.74,1.3Zm.17-.11A.06.06,0,0,0,4,1.25S3.94,1.19,3.91,1.2Zm.08,0s0,0,0,0,0,0,0,0H4S4,1.23,4,1.25Zm.1-.07s0,0,0,0h0S4.12,1.19,4.1,1.18Zm-.87,0h0s0,0,0,0S3.23,1.15,3.23,1.17Zm.22.07s0-.08,0,0S3.43,1.25,3.45,1.24Zm0,0s0-.08,0-.07S3.45,1.23,3.46,1.25Zm.53,0v0l0,0S4,1.23,4,1.25Zm-.66,0a0,0,0,0,0,0,0h0a0,0,0,0,0,0,0S3.34,1.19,3.33,1.2Zm.82,0s0,0,0,0,0,0,0,0,0,0,0,0a.09.09,0,0,0,0,0Zm-.77,0s0,0,.06,0S3.4,1.19,3.38,1.22Zm.63,0s.05,0,.05,0S4,1.25,4,1.26Zm-.7,0s0,0,0,0l0,0s-.06,0,0,.05,0,0,0,0,0,0,0,0,0,0,0,0h0s0,0,0,0,0,0,0,0Zm.65,0a.15.15,0,0,1-.06,0S3.93,1.29,4,1.26Zm.18,0c.05-.1-.12-.09-.06,0a0,0,0,0,0,0,0,0,0,0,0,0,0,0s0,0,0,0S4.12,1.3,4.14,1.3ZM4,1.28s.07,0,.05,0S4,1.26,4,1.28Zm-.62-.05s0,0,.05.05h0S3.37,1.25,3.37,1.23Zm.52.05s0,0,0,0,.09,0,.13,0,0,0-.06,0S3.89,1.27,3.88,1.28Zm-.24.06a5.78,5.78,0,0,0,0,.6v.21a1.69,1.69,0,0,1,.67.15c0-.22,0-.47,0-.71,0,0,0-.08,0-.11a.28.28,0,0,1,0-.14H4a.25.25,0,0,1,0,.14s0,.18,0,.26,0,0,0,0a.12.12,0,0,1,0-.05s0,0,0,.05a1.5,1.5,0,0,1,.14-.21,2.46,2.46,0,0,0,0,.31s0,0,0-.07,0,0,0,0,0,0,0,0,0,0,0,0,0,0,0,0,0,0,0,0a1.45,1.45,0,0,0,0-.35v0s0-.11.08-.11a.13.13,0,0,0,0,.06s0,0,0,0a1,1,0,0,1-.08.61s.07.07.06.11a.33.33,0,0,1-.08-.11s0,0,0,0S4,2.07,4,2a.22.22,0,0,1,0,.15.15.15,0,0,0,0-.05s0,.06,0,.06,0,0,0,0,0,0,0,0,0-.15-.05-.12,0,0,0,0a.06.06,0,0,1,0,0s0,0,0,0H3.83s0,.08-.07.07,0,0,0-.08-.07-.09-.06-.14.13,0,.15,0-.12,0-.16,0,0,0,0,0,0-.1,0-.1,0,.07,0,0,0,0,0,0,0,.06,0,0,0,0,0,0,0,.06,0,.08,0,0,0,0,0,.06,0,0,0,0,0,0,0,0,0,0c0-.15,0-.32-.08-.38a1.18,1.18,0,0,1,0,.23,1.57,1.57,0,0,0,0-.25s-.06,0,0-.08l0,0a2,2,0,0,0,.21.33c0-.07,0-.12,0-.19h0s0-.08,0-.12,0,0,0,0,0,.09.06.12h0s0,.12,0,.18,0,0,0,0l0,.07s0-.08,0-.11,0,0,0,0,0,0,0,0,0,0,0,0,0,0,0,0a0,0,0,0,1,0,0,1.55,1.55,0,0,0,0-.3H3.64Zm.33.2s0,0,0,.08S4,1.57,4,1.54Zm0,0s0-.06,0-.07S3.94,1.55,4,1.56Zm-.8-.12s0,0,0,0,0,0,0,0,0,0,0,0a.05.05,0,0,0,0,0s0,0,0,0l0,0s0,0,0,0,0,0,0,.07h0s0,0-.06,0a.24.24,0,0,1,0,.06s0,0,0,0,0,0,0,0,0,0,0,0H3s0,0,0,0,0,0,0,0l0,0s0,0,0,0,0,0,0,0a0,0,0,0,0,0,0s0,0,0,0,.09-.07.13,0-.11,0-.11,0,0,0,0,.08,0,0,0,0,0-.12.13-.09c-.07,0-.11.1-.09.14l.05,0s0-.09,0-.09a.63.63,0,0,1,0,.24.5.5,0,0,0,.24,0,.74.74,0,0,1-.05-.23s0,0,0,0,.09.08.14.05,0,0,0-.05h0s0,0,0-.07a0,0,0,0,0,0,0s0,0,0,0,0,0,0,0l.06,0c0-.09-.18.08-.24.13s0-.23.16-.22-.11.09-.11.14.1-.09.17-.12,0,0,0,0,0,0,0,0a0,0,0,0,1,0,0h0s0,0,0-.05,0,0-.07,0h0l0,0s0,0,0,0a0,0,0,0,0,0,0h0v0l0,0s0,0,0,0,0-.06,0-.08,0,0,0,0,0,0,0,0,0,0,0,0,0,0,0,0,0,0,0,0,0,0,0,0,0,0,0,0,0,0,0,0,0,.06,0,.11a2.08,2.08,0,0,1,0,.31,2.31,2.31,0,0,0-.08-.4s0,0,0,0ZM3.47,2c0-.05,0-.06-.08-.09S3.42,2,3.47,2Zm-.55.35c0,.25-.05.56,0,.73a.3.3,0,0,0,.15.15c.1,0,.29,0,.41,0s.1.06.11.06l0,0c.12-.07.37,0,.48-.06s.12-.53.16-.88A1.59,1.59,0,0,0,2.92,2.34Zm1.2-.74a.32.32,0,0,0-.07.27l0,0s0,0,0,0A1.22,1.22,0,0,0,4.12,1.6Zm0,.3s.08,0,.07,0,0,0,0,0,0,0,0,0S4.15,1.88,4.12,1.89ZM4,1.87c0,.08.22.15.19,0,0,0,0,0,0,0A.27.27,0,0,1,4,1.82s0,0,0,0,0,0,0,0ZM4.16,2s0,0,0,0,0,0,0,0,0,0,0,0-.12,0-.15,0V2s0,0,0,0S4,2,4.13,2,4,2,4,2s.06,0,0,0a.08.08,0,0,0,.08,0h0S4.16,2,4.16,2Zm-.3,0v0s0,0,0,0S3.8,2,3.78,2s.05,0,.05,0,0,0,0,0h0s0,0,0,0,.07-.05.08-.08S3.88,2,3.86,2Zm0-.34v.26h.07A.22.22,0,0,0,3.82,1.62Zm.11.21s0,0,0,0,0,0,0,0S3.92,1.84,3.93,1.83Zm0,0v0s0,0,0,0,0,.06,0,.06,0,0,0,0,0,0,0-.05h0s0,0,0,0,0,0,0,0,0,0,0,0S3.88,1.8,3.9,1.82Zm0,0a.08.08,0,0,1,0,.06s0,0,0,0S3.94,1.87,3.92,1.86ZM4,2s0-.08,0-.07S4,2,4,2Zm0,.11S4,2,3.94,2A.9.9,0,0,1,3.93,2.07ZM4,2.15C4,2.09,4,2,4,2S4,2.11,4,2.15Zm-.14-.62s0,0,0,0S3.84,1.55,3.85,1.53Zm0,0s0-.07,0-.07Zm0,0s0,0,0,0S3.89,1.53,3.89,1.52Z"/><path class="cls-6" d="M3.62,1s0,0,0,0,0,0,0,0l.05,0s0,0,0,0,0,0,0,0S3.64,1,3.61,1s0,0,0,0h.06s0,0,0,0h0s0,0,0,.05h0s-.07,0-.09-.08a0,0,0,0,1,0,0s0,0,0,0,0,0,0,0h0v0h0s0,0,0,0h0s0,0,0,0Z"/><path class="cls-5" d="M4,1S4,1,4,1,4,1,4,1Z"/><path class="cls-5" d="M3.21,1.08s0,0,0,0,0,0,0,0,0,0,0,0,0,0,0,0S3.21,1.06,3.21,1.08Z"/><path class="cls-5" d="M3.11,1.05s0,0,0,0,0,0,0,0h0s0,0,0,0h0s0,0,0,0,0,0-.06,0a.1.1,0,0,0,0-.05h0l0,0s0,0,0,0Z"/><path class="cls-7" d="M4.44,1s0,0,0,0,0,0,0,0l0,0s0,0,0,0h0s.05,0,.07,0,0,.06,0,.09h0s0,0,.06.06,0,0,0,0,0,0-.06,0h0s0,0,0,0l0,0h0s0,0,0,0,0,0,0,0,0,0,0,0v0s-.05,0-.09,0,0,0,0,0,0,0-.05,0h0s0,0,0,0,0,0,0,0,0,0,0,0,0,0,0,0l0,0h0v0s0,0,0,0h0s0,0,0,0v0h0s0,0,0,0,0,0,0,0,.08,0,.06,0-.08,0-.06-.07,0,0,0,0,.06,0,.07,0h0s-.08,0,0,0,0,0,0,0,.07,0,.1,0,0,0,0,0h0s0,0,0,0h0s0,0,0,0,0,0,0-.06,0,0,0,0S4.44,1,4.44,1Zm0,0s0,0,0,0,0,0,0,0S4.4,1.06,4.4,1.07Zm.06,0s0,0,0,0S4.47,1,4.47,1.06Z"/><path class="cls-7" d="M3,1.05S3,1,3,1,3,1,3,1s0,0,0,0Z"/><path class="cls-6" d="M3.23,1s0,0,0,0S3.21,1,3.23,1Z"/><path class="cls-8" d="M3.89,1.06C3.87,1,4,1,4,1s0,0,0,.06h0Zm0-.05s0,0,0,0S3.93,1,3.93,1Z"/><path class="cls-6" d="M3.9,1s0,0,0,0S3.9,1,3.9,1Z"/><path class="cls-5" d="M3.52,1s0,0,0,0h0s0,0,0,0h0V1h0s0,0,0,0,0,0,0,0,0,0,0,0h0s0,0,0,0S3.52,1,3.52,1Z"/><path class="cls-5" d="M3.4,1h0s0,0,0,0S3.4,1,3.4,1Z"/><path class="cls-5" d="M4.41,1.11v0s0,0,0,0,0,0,0,0,0,0,0,0h0S4.43,1.11,4.41,1.11Z"/><path class="cls-5" d="M4.49,1s0,0,0,0S4.48,1,4.49,1Z"/><path class="cls-7" d="M2.8,1h0s0,0,0,0h0s0,0,0,0h0S2.78,1.06,2.8,1Z"/><path class="cls-6" d="M3.5,1.09s0,0-.06,0,0,0,0,0h0s0,0,0,0h0s0,0,0,0Z"/><path class="cls-7" d="M3.52,1s0,0,0,0,0,0,0,0h0S3.5,1,3.52,1Z"/><path class="cls-5" d="M3,1.07s0,0,0,0,0,0,0,0,0,0,0,0H3s0,0,0,0,0,0,0,0S3,1.08,3,1.07Z"/><path class="cls-7" d="M3.47,1s0,0,0,0,0,0,0,0h0s0,0,0,0Z"/><path class="cls-7" d="M3.85,1s0,0,0,0v0s0,0,0,0l0,0s0,0,0-.05h0s0,0,0,0S3.87,1.06,3.85,1Z"/><path class="cls-7" d="M3.09,1.1s0,0,0,0a0,0,0,0,1,0,0s0,0,0,0,0,0,0,0,0,0,0,0h0l0,0s0,0,0,0h0Z"/><path class="cls-10" d="M3.37,1.14h0s0,0,0,0h0S3.37,1.14,3.37,1.14Z"/><path class="cls-6" d="M3.47,1.12h0s0,0,0,0,0,0-.07,0h0Z"/><path class="cls-7" d="M3.55,1.12s.07,0,.07.05h0s0,0,0,0,0,0,0,0,0,0-.06,0,0,0,.05,0v0s0,0,0,0,0,0,0,0,0,0,0,0h0c.05,0-.06.07-.09,0v0s0,0,0,0h0l0,0s0,0,0,0,0,0,0,0,.06,0,.05,0,0,0-.05,0,0,0,0,0,0,0,0,0S3.55,1.14,3.55,1.12Zm0,.14s.09,0,.07-.05S3.54,1.23,3.54,1.26Zm0,0s0,0,0,0S3.57,1.26,3.56,1.29Z"/><path class="cls-7" d="M3.7,1.31s0,0-.08,0l.07-.05s0,0,0,0,0,0,0,0h0s0,0,0-.05-.06,0-.06,0Z"/><path class="cls-10" d="M3.73,1.24s0,0,0,0,0,0,0,0,0,0,0,0A0,0,0,0,0,3.73,1.24Z"/><path class="cls-7" d="M4.37,1.18h0s0,0,0,0,0,0,0,0h0l0,0H4.4s.05,0,.06,0H4.4s0,0,0,0h0l0,0h0s0,0,0,0v0s0,0-.05,0,0,0,0,0-.05,0,0,0,0,0,0,0,0,0,0,0h0s-.07,0-.07-.06,0,0,.06,0,0,0,0,0A.11.11,0,0,1,4.37,1.18Zm0,0s0,0,0,0S4.34,1.21,4.34,1.22Zm0,.05,0,0S4.33,1.26,4.31,1.28Z"/><path class="cls-7" d="M3.06,3.23s0,0,0,0,0,0,0,0,0,0,0,0,0,0,0,0,0,0,0,0,0,0,0-.06H3l.06,0S3.06,3.21,3.06,3.23Z"/><path class="cls-7" d="M2.9,1.25a.11.11,0,0,0,.06,0H3s0,0,0,0H3s0,0,0,0,0,0-.06,0,0,0,0,0h0Z"/><path class="cls-7" d="M3.1,1.14h0s0,0,0,0,0,0,0,0h0s0,0,0,0,0,0-.06,0H3s0,0,0,0H3s0,0,0,0-.11,0,0,0,0,0-.05,0h0v0l0,0,0,0H3s0,0,0,0l0,0H3.1ZM3,1.19s.08,0,.07,0S3,1.15,3,1.19Z"/><path class="cls-10" d="M3.1,1.13h0l0,0s0,0,0,0,0,0,0,0h0Z"/><path class="cls-7" d="M3.17,1.1s.08,0,.1,0l-.05,0s0,0,0,0,0,0,0,0,0,0,0,0h0s-.07,0-.08,0S3.17,1.11,3.17,1.1Z"/><path class="cls-10" d="M3.25,1.14s0,0,0,0h0S3.26,1.16,3.25,1.14Z"/><path class="cls-6" d="M2.95,1.06s0,0,0,0,0,0,0,.05h0s0,0,0,0,0,0,.06,0Z"/><path class="cls-5" d="M3.93,1.07s0,0,0,0a.15.15,0,0,0-.08.09s0,0,0,0,0,0-.05,0v0h0l0,0s0,0,0,0Z"/><path class="cls-7" d="M4,1.05H4s0,0,0,0,0,0,0,0,0,0,0,0,0,0,0,0a.19.19,0,0,1-.07.08s0,0,0,.06-.06,0-.07,0,0-.07,0-.1,0,0,0,0a.12.12,0,0,0,.06-.11s-.08,0-.1.07,0,0,0,0,0,0,0,0,.08,0,.06,0,0,0,0,0v0s.06,0,.05,0,0,0,0,0A.15.15,0,0,1,4,1.05Zm0,.06s0,0,0,0S3.91,1.09,3.93,1.11Zm-.1.19h0s0,0,0,0S3.82,1.26,3.83,1.3Z"/><path class="cls-6" d="M4,1.13s0-.07,0-.07,0,.07,0,.09,0-.05,0,0,0,.07,0,0Z"/><path class="cls-10" d="M4.13,1.07s0,0,0-.05h0a0,0,0,0,1,0,0h0Z"/><path class="cls-6" d="M4,1.06s0,0,0,0a0,0,0,0,1,0,0s0,0,0,0,0,.06-.07.06,0,0,0-.05,0,0,0,0,0,0,0,0L4,1S4,1,4,1.06Z"/><path class="cls-6" d="M4.2,1.1a.07.07,0,0,1,.07,0S4.22,1.07,4.2,1.1Z"/><path class="cls-5" d="M4.28,1.08c-.06,0,0,0,0,0h0Z"/><path class="cls-5" d="M2.87,1.07h0c0,.05,0,.06-.06.09s0,0,0,0S2.87,1.11,2.87,1.07Z"/><path class="cls-6" d="M3.52,1.07h0s0,0,0,0,0,0,0,0,0,0,0,0S3.53,1.08,3.52,1.07Z"/><path class="cls-6" d="M3.71,1.15a.37.37,0,0,1,0-.09s0,0,0,.05,0,0,0,0h0v0s0,0,.05,0,0,0,0,0,0,0,0,0h0s0,0,0,0,0,0,0,0,0,0,0,.05h0s0,0,0,0,0,0,0,0-.11,0-.09.1,0,0,0,0v0a.11.11,0,0,0,0-.08Z"/><path class="cls-7" d="M2.82,1.14s.06,0,0-.06h0s0,.05-.06.07Z"/><path class="cls-7" d="M3.37,1.08s.14,0,.1,0h0s0,0-.09,0l0,0S3.37,1.1,3.37,1.08Zm0,0s0,0,.06,0,0,0,0,0S3.36,1.07,3.37,1.11Z"/><path class="cls-6" d="M3.47,1.1s0,0,0,0,0,0-.06,0S3.45,1.09,3.47,1.1Z"/><path class="cls-5" d="M4.35,1.12h0s-.06,0,0,.05l0,0s0,0,0,0,0,0,0,0,0,0,0,0h0S4.36,1.15,4.35,1.12Z"/><path class="cls-5" d="M4.45,1.11s0,0,0,0Z"/><path class="cls-5" d="M4.47,1.13s0,0,0,0,.05,0,.06,0l-.05,0s0,0,0,0S4.47,1.14,4.47,1.13Z"/><path class="cls-5" d="M2.92,1.19s-.05,0-.06,0h0s0,0,0,0v0s0,0,0-.05,0,0,0,0Z"/><path class="cls-7" d="M3.81,1.12s0,0,0,0h0s0,0,0,0,0,0,0,0,0,0-.05,0v0h0s0,0,0,0,0,0,0,0Z"/><path class="cls-6" d="M4.43,1.16a0,0,0,0,1,0,0S4.44,1.17,4.43,1.16Z"/><path class="cls-5" d="M3,1.12s0,0,0,0a0,0,0,0,0,0,0H3l0,0s0,0,0,0Z"/><path class="cls-5" d="M3.75,1.15s0,0,0,0l0,0S3.76,1.13,3.75,1.15Z"/><path class="cls-6" d="M3,1.18c-.07,0,0-.05,0,0s0,0,0,0Z"/><path class="cls-7" d="M3.71,1.15h0a.11.11,0,0,1,0,.08s0,0,0,0,0,0,0,0,0,0,0-.05,0,0,0,0v0Z"/><path class="cls-7" d="M4.47,1.15s0,0,0,0l0,0s0,0-.06,0,0,0,0,0l0,0s0,0,0,0,0,0,0,0h0S4.46,1.14,4.47,1.15Z"/><path class="cls-5" d="M4.43,1.18l0,0s0,0,0,0,0,0,.06,0,0,0,0,0l0,0Z"/><path class="cls-5" d="M3,1.18H3s0,0-.06,0S3,1.19,3,1.18Z"/><path class="cls-5" d="M4.4,1.22h.06s0,0,0,0Z"/><path class="cls-5" d="M4.43,1.28l0,0h0s0,0,0,0S4.42,1.27,4.43,1.28Z"/><path class="cls-8" d="M3.41,1.19s0,0,.05,0S3.43,1.2,3.41,1.19Z"/><path class="cls-8" d="M3.44,1.19s0,.07,0,.07S3.46,1.2,3.44,1.19Z"/><path class="cls-6" d="M4.31,1.22s0,0,0,0A.05.05,0,0,1,4.31,1.22Z"/><path class="cls-5" d="M5,1.2s0,0,0,0A1.71,1.71,0,0,0,4.8,2a.49.49,0,0,0,0,.19s0,0,0,0a1,1,0,0,1,0,.27,2.18,2.18,0,0,0,0-.67s0,0,0,0,0,.13,0,.19A2,2,0,0,1,5,1.2Z"/><path class="cls-5" d="M2.51,1.44s0,0,0,.06S2.52,1.45,2.51,1.44Z"/><path class="cls-11" d="M2.41,1.45s0,0,0,0h0c0-.08.06-.16.06-.25s0,.06,0,.09a.39.39,0,0,0,0,.11.07.07,0,0,0,0,.06s0,0,0,.06v0a0,0,0,0,0,0,0s0,0,0,0h0s0,0,0,0,0-.07,0-.11Zm.06.06v.05a.27.27,0,0,0,0-.11s0,0,0,0A.07.07,0,0,0,2.47,1.51Z"/><path class="cls-5" d="M2.45,1.55a.71.71,0,0,1,0-.11h0S2.44,1.51,2.45,1.55Z"/><path class="cls-11" d="M4.76,1.8A1.35,1.35,0,0,1,5,1.2,2,2,0,0,0,4.79,2C4.77,1.94,4.77,1.84,4.76,1.8Z"/><path class="cls-8" d="M3.36,1.2a0,0,0,0,1,0,0h0a0,0,0,0,1,0,0S3.36,1.22,3.36,1.2Z"/><path class="cls-5" d="M4.55,1.22h0s.05,0,.06,0-.06,0-.08,0,0,0,0,0,0,0,0,0h0s0,0,0,0,0,0,0,0,0,0,0,0h0Z"/><path class="cls-6" d="M4.46,1.22s0,0,0,0,0,0-.06,0h.08s0,0,0,0S4.46,1.24,4.46,1.22Z"/><path class="cls-8" d="M4.5,1.22h0s0,0,0,0,0,0,0,0S4.51,1.24,4.5,1.22Z"/><path class="cls-7" d="M4.55,1.22s.05,0,.08,0,0,0,0,0,0,0-.06,0Z"/><path class="cls-7" d="M2.68,1.25s0,0,.05,0,0,0,0,0,0,0,0,0H2.7S2.69,1.26,2.68,1.25Z"/><path class="cls-6" d="M3.28,1.26l0,0s0,0,0,0S3.3,1.26,3.28,1.26Z"/><path class="cls-7" d="M3.28,1.3s0,0,0,0,0,0,0,0,0,0,0-.05,0,0,0,0h0s0,0,0,0S3.28,1.28,3.28,1.3Z"/><path class="cls-8" d="M4.09,1.28s0,0,0,0a0,0,0,0,1,0,0,0,0,0,0,1,0,0c-.06-.06.11-.07.06,0S4.1,1.3,4.09,1.28Z"/><path class="cls-5" d="M2.8,1.31s.12,0,.08-.08,0,0,0,0h0l0,0h0S2.81,1.32,2.8,1.31Z"/><path class="cls-8" d="M3.41,1.29h0s-.06,0,0-.05S3.46,1.27,3.41,1.29Z"/><path class="cls-5" d="M2.77,1.25h0a.14.14,0,0,1-.1.07h0s.06,0,.07-.05,0,0,0,0h0Z"/><path class="cls-5" d="M3.6,1.27s0,0,0,0h0Z"/><path class="cls-6" d="M3.61,1.3s0,0,0,0S3.58,1.31,3.61,1.3Z"/><path class="cls-7" d="M2.73,1.26s0,0,0,0,0,0-.07.05h0s0,0,0,0a.06.06,0,0,1-.05,0s0,0,.05,0S2.72,1.29,2.73,1.26Z"/><path class="cls-7" d="M4.43,1.34s0,0,0,0,0,0,0,0a.12.12,0,0,0,0-.06h0s0,0,0,0a.14.14,0,0,0,0,.06h0S4.44,1.36,4.43,1.34Z"/><path class="cls-7" d="M4.47,1.32h0s0,0,.06.05h0A.21.21,0,0,1,4.47,1.32Z"/><path class="cls-5" d="M4.46,1.32h0a.21.21,0,0,0,0,.06l0,0S4.46,1.33,4.46,1.32Z"/><path class="cls-10" d="M2.85,1.33s0,0,0,0a0,0,0,0,1,0,0h0s0,0,0,0,0,0,0,0S2.84,1.32,2.85,1.33Z"/><path class="cls-7" d="M2.83,1.33h0s0,0,0,0,0,0,0,0,0,0,0,0,0,.06,0,0h0s0,0,0,0h0s0,0,0,0v0h0v0s0,.06-.06,0,.06,0,.06-.06S2.82,1.33,2.83,1.33Z"/><path class="cls-5" d="M3.9,2.1l0,0s0,0,0-.05h0S3.89,2.1,3.9,2.1Z"/><path class="cls-5" d="M4.2,1.48s-.06.08,0,0Z"/><path class="cls-5" d="M4,1.64a.07.07,0,0,0,0-.06.14.14,0,0,0,0-.14s0,0,0,0a.41.41,0,0,1,.05.12,0,0,0,0,1,0,0l-.06,0h0a.07.07,0,0,0,.05,0s0,0,0,0,0,0,0-.05,0,0,0,0S4,1.54,4,1.57s0,0,0,0,0,0,0,0,0,0,0,0H4v0s0,0,0,0a0,0,0,0,0,0,0S4,1.64,4,1.64Z"/><path class="cls-5" d="M4.45,1.45h0a0,0,0,0,0,0-.06h0s0,0,0,0S4.47,1.45,4.45,1.45Z"/><path class="cls-8" d="M2.85,1.36l0,0s0,0,0,.06,0,0,0,0h0A0,0,0,0,0,2.85,1.36Z"/><path class="cls-5" d="M3.35,1.81c0-.08,0-.22.12-.23A1,1,0,0,0,3.35,1.81Z"/><path class="cls-5" d="M3.5,1.83s-.08,0-.1,0S3.49,1.77,3.5,1.83Z"/><path class="cls-5" d="M3.39,1.84s.06-.09.1-.09h0Z"/><path class="cls-13" d="M4,1.61s0,0,0,0,0,0,0,0,0,0,0,0,.05,0,.06-.05,0,0,0,0,0,0,0,.05,0,0,0,0a.07.07,0,0,1-.05,0h0l.06,0a0,0,0,0,0,0,0,.41.41,0,0,0-.05-.12s0,0,0,0a.14.14,0,0,1,0,.14.07.07,0,0,1,0,.06.29.29,0,0,0,0,.09c0-.07,0-.21,0-.26a.27.27,0,0,0,0-.14h.38a.27.27,0,0,0,0,.14s0,.08,0,.11c0,.23,0,.48,0,.71a1.69,1.69,0,0,0-.67-.15V1.34H4a1.72,1.72,0,0,1,0,.3.17.17,0,0,1,0-.08h0s0-.1-.06-.12,0,0,0,0,0,.07,0,.12h0c0,.07,0,.12,0,.19a1.9,1.9,0,0,1-.21-.33l0,0s0,.08,0,.08a1.7,1.7,0,0,1,0,.25,1.35,1.35,0,0,0,0-.23c.09.06.08.23.08.38,0,0,0,0,0,0s0,0,0,0,0,0,0,0,0,0,0,0,0,0,0-.08,0,0,0,0,0,0,0,0,0,0,0,0,0,0,0,0,0,.07,0,.1,0,0,0,0,.1,0,.16,0-.13.1-.15,0,0,.09.07.14a.59.59,0,0,1-.05.08s.05,0,.07-.07H3.9s0,0,0,0h0s0,0,0,.05l0,0s0,0,0,0,0,.1.05.12,0,0,0,0,0,0,0,0,0,0,0-.06a.13.13,0,0,1,0,.05A.21.21,0,0,0,4,2s.11,0,.14.08,0,0,0,0a.34.34,0,0,0,.08.11s0-.08-.07-.11a1,1,0,0,0,.08-.61s0,0,0,0a.16.16,0,0,1,0-.06c-.06,0-.06.07-.08.11v0a1.41,1.41,0,0,1,0,.35s0,0,0,0,0,0,0,0,0,0,0,0,0,0,0,0,0,0,0,0,0,0,0,.07a2.3,2.3,0,0,1,0-.31A1.75,1.75,0,0,0,4,1.77s0,0,0-.05a.32.32,0,0,0,0-.07s0,0,0,0S4,1.62,4,1.61Zm.15-.11c-.05.07,0,0,0,0Z"/><path class="cls-7" d="M4.37,1.51s0,0,0,0,0,0,0,0,0,0,0-.06h0s0,0,0,0,0,0,0,0Zm0-.07a.09.09,0,0,0,0,.05S4.37,1.44,4.36,1.44Z"/><path class="cls-6" d="M4,1.7s0,0,0,0-.05-.14,0-.18a.17.17,0,0,0,0,.08,0,0,0,0,0,0,0s0,0,0,0,0,0,0,0S3.95,1.69,4,1.7Z"/><path class="cls-5" d="M2.47,1.44s0,0,0,0a.27.27,0,0,1,0,.11V1.51A.07.07,0,0,1,2.47,1.44Z"/><path class="cls-5" d="M2.71,1.48s0,0,0,.05h0S2.69,1.49,2.71,1.48Z"/><path class="cls-5" d="M2.7,1.54a0,0,0,0,0,0,0s0,0,0,0h0s0,0,0,0Z"/><path class="cls-5" d="M2.51,1.54s0,.1,0,.13,0,0,0,0,0-.06,0-.08,0,0,0,0a.36.36,0,0,0,.05-.08v0s0-.06.07-.05,0,0-.05.06,0,0,.05,0a.42.42,0,0,0-.09,0s0,0,0,0,0,0,0,0,0,0,0,0,0,0,0,0,0,0-.06,0a.12.12,0,0,0,.08,0v0a.35.35,0,0,0,.16-.1.31.31,0,0,1-.25.18s0,0,0,.06h0s0,0,0,0,0,0,0,0a.73.73,0,0,1-.2-.17c.06,0,.12.14.22.16a.76.76,0,0,1-.17-.15l0,0a.17.17,0,0,1,0,0s0,.07.06.08a.11.11,0,0,0,0,0s0,.07.05.08,0,0,0,0,0,0,0,0v0s0,0,0,0,0,0,0,0h0s0,0,0,0,0-.15,0-.06V1.58h0s0,0,0,0a0,0,0,0,1,0,0Zm.1.12s.09,0,.08-.06Zm0,0a.09.09,0,0,0-.07,0S2.55,1.71,2.56,1.69Z"/><path class="cls-8" d="M4.41,1.4s0,0,0,0h0a0,0,0,0,1,0,.06h0s0,0,0,.05S4.43,1.43,4.41,1.4Z"/><path class="cls-5" d="M5,1.77s0-.09.07-.13h0A1,1,0,0,0,5,1.77Z"/><path class="cls-5" d="M4.85,2.34s0,0,0,.06,0,.07,0,0l0,.11h0a.13.13,0,0,0,0,.05,1.19,1.19,0,0,0,.13-.19c0,.1-.13.18-.15.28s0,.05,0,.08,0,0,0,0,0,0-.05.08l0,0s0,0,0,.07c.13-.16.22-.36.42-.44h0A.41.41,0,0,0,5,2.55l-.09.09a1.77,1.77,0,0,0-.18.25s0,0-.05.06a1.14,1.14,0,0,0,0-.67h0a.83.83,0,0,0-.26-.66h0c.2.13.23.42.27.71,0,0,0,0,0,0s0,.09,0,.08,0,0,0,0,0,.26,0,.38a2.13,2.13,0,0,1,0-.22c0,.11,0,.2,0,.29C4.78,2.65,4.81,2.49,4.85,2.34Zm-.15.52a.08.08,0,0,0,0-.05C4.68,2.88,4.68,2.94,4.7,2.87Z"/><path class="cls-5" d="M4.7,1.94a1.55,1.55,0,0,0-.13-.57s0,.08.05.08A2.07,2.07,0,0,1,4.71,2S4.72,2,4.7,1.94Z"/><path class="cls-8" d="M3.88,1.47s0,0,0,0S3.87,1.48,3.88,1.47Z"/><path class="cls-7" d="M2.76,1.54s0,0,0,0,0,0,0,0,0,0,0,0h0s0,0,0,0v0a0,0,0,0,1,0,0s0,0,0,0S2.76,1.55,2.76,1.54Z"/><path class="cls-7" d="M2.19,1.49s.07,0,.07,0a0,0,0,0,1,0,0l0,0s.08.07.12.1,0,0,0,0,0,0,0,0,0,0,0,0v0s0,0,0,0,0,0,0,0,0-.08-.05-.08a.11.11,0,0,1,0,0s0-.06-.06-.08a.17.17,0,0,0,0,0l0,0a.76.76,0,0,0,.17.15c-.1,0-.16-.12-.22-.16h0S2.21,1.5,2.19,1.49Z"/><path class="cls-7" d="M2.33,1.52h0s0,0,0,0,0,0,0,0h0a.36.36,0,0,1,.06.11.09.09,0,0,1-.06-.07S2.35,1.54,2.33,1.52Z"/><path class="cls-5" d="M2.34,1.51s0,0,0,0,0,0,0,0S2.35,1.54,2.34,1.51Z"/><path class="cls-5" d="M2.22,1.54s0,0,0-.05,0,0,0,0Z"/><path class="cls-5" d="M2.33,1.52s0,0,0,0a.09.09,0,0,0,.06.07,0,0,0,0,0,0,0s-.08-.09-.12-.1Z"/><path class="cls-5" d="M3.27,1.78c0-.09-.06-.19-.09-.28S3.25,1.67,3.27,1.78Z"/><path class="cls-5" d="M2.82,1.51s0,0,0,.07h0s0,0,0,0h0v0s0,0,0,0v0s0,0,0,0a0,0,0,0,0,0,0Z"/><path class="cls-5" d="M3.39,1.51c0,.1,0,.23-.07.3C3.34,1.72,3.31,1.56,3.39,1.51Z"/><path class="cls-7" d="M4.39,1.52s0,0,0,0h0a0,0,0,0,1,0,0s0,0,0,0v0Z"/><path class="cls-7" d="M2.69,1.6s0,.06-.08.06Z"/><path class="cls-5" d="M3.25,1.79c0-.09-.09-.16-.12-.24S3.22,1.71,3.25,1.79Z"/><path class="cls-8" d="M4.21,1.84s0,0,0,0,0,0,0,0,0,0-.07,0S4.18,1.85,4.21,1.84Z"/><path class="cls-8" d="M4,1.87s0,0,0,0,0,0,0,0a.26.26,0,0,0,.17.09s0,0,0,0C4.23,2,4,2,4,1.87s0,0,0,0H4s0,0,0,0,0,0,0,0S4,1.86,4,1.87Z"/><path class="cls-8" d="M4.17,2s0,0,0,0h0a.07.07,0,0,1-.08,0S4,2,4,2s.08,0,.12,0Z"/><path class="cls-8" d="M3.91,1.93s0,.07-.08.08,0,0,0,0h0s0,0,0,0,0,0-.05,0,.08,0,.09,0a0,0,0,0,1,0,0V2S3.9,1.94,3.91,1.93Z"/><path class="cls-7" d="M3.92,1.76s0,0,0,0,0,0,0,0,0,0,0,0h0s0,0,0,.05,0,0,0,0,0,0,0-.06,0,0,0,0v0S3.92,1.78,3.92,1.76Z"/><path class="cls-7" d="M3.94,1.79s0,0,0,0,0,0,0,0S3.94,1.81,3.94,1.79Z"/><path class="cls-7" d="M2.8,1.68s0-.05,0-.09h0S2.82,1.67,2.8,1.68Z"/><path class="cls-5" d="M3.1,1.59c.1,0,.11.14.15.23A2.22,2.22,0,0,0,3.1,1.59Z"/><path class="cls-6" d="M4,1.61s0,0,0,0v0H4Z"/><path class="cls-5" d="M3.24,1.84a1.05,1.05,0,0,0-.18-.19C3.16,1.63,3.2,1.77,3.24,1.84Z"/><path class="cls-6" d="M4,1.72s0,0,0,.05,0,0,0,0a.29.29,0,0,1,0-.09s0,0,0,0a0,0,0,0,1,0,0A.32.32,0,0,1,4,1.72Z"/><path class="cls-11" d="M4.77,2.69a.68.68,0,0,1,.34-.23c-.2.09-.3.28-.42.44,0,0,0-.06,0-.07l0,0s0-.07.05-.08,0,0,0,0S4.77,2.72,4.77,2.69Z"/><path class="cls-7" d="M4.7,2.81a.08.08,0,0,1,0,.05C4.68,2.94,4.68,2.88,4.7,2.81Z"/><path class="cls-11" d="M2.23,1.73s0,0,0-.07l.05.06s.05,0,0,0,.07.06.1.09,0,0,0,0a.39.39,0,0,1,0,.11s0,0,0,0,0,0,0,0,0,0,0,0,0-.07,0-.07,0,0,0,.05,0,.06.05.09h0V2a.35.35,0,0,1-.26-.13s0-.06,0,0h0s0,0,0-.08l.08,0s.13.05.16.12,0,0,0,0-.07-.05-.08-.12,0,0,0,.07,0-.05-.07-.07,0,0,0,0,0,0,0,0h0S2.26,1.74,2.23,1.73Zm.13.21s0-.07,0-.06,0,0,0,0,0,0,0,0,0,0,0,0,0,0,.05,0-.05,0,0,0,0,0,.05,0h0s0,0,0,0,0,0,0,0h0s0,0,0,0,0,0,.06,0a.13.13,0,0,0,0-.06s0,0,0,0,0,0-.05-.07S2.38,1.94,2.36,1.94Z"/><path class="cls-5" d="M2.24,1.79s0,0,0,0,0,0,0,0,0,.06.07.07,0-.06,0-.07,0,.11.08.12,0,0,0,0-.12-.09-.16-.12Z"/><path class="cls-5" d="M2.36,1.92s0,0,.05.07,0,0,0,0a.13.13,0,0,1,0,.06s0,0-.06,0,0,0,0,0h0s0,0,0,0,0,0,0,0h0s0,0-.05,0,0,0,0,0-.15,0-.05,0,0,0,0,0,0,0,0,0,0,0,0,0,0,.05,0,.06S2.35,1.93,2.36,1.92Z"/><path class="cls-5" d="M2.43,2.12s0,0,0,0,0,0,0,0S2.18,2,2.18,1.85s0,0,0,0A.35.35,0,0,0,2.45,2V2s0,.16,0,.06,0,0,0,0h0s.06,0,.1,0,.08-.09.15-.11,0,0,0,0,0,0,.05,0h0s0,0,0,0,0,0,0,0,0,0,.05,0-.13,0-.07,0,0,0,0,0,.16,0,.19-.09h0a.22.22,0,0,1-.15.1c0,.08-.21,0-.24.08s0,.06,0,.07h0s0,0,0,0ZM2.64,2s.07,0,.06,0S2.66,2,2.64,2Z"/><path class="cls-5" d="M2.18,1.84s0-.06,0-.08h0S2.19,1.81,2.18,1.84Z"/><path class="cls-11" d="M2.5,1.94s0,0,0,0,.1-.11.17-.06.06,0,.1,0,0,0-.05,0,0,0,0,0S2.65,2,2.58,2s-.08,0-.1,0h0c0-.06.12-.1.18-.16l-.08.05,0,0s0,.1-.06,0l0,.07S2.52,2,2.5,1.94Z"/><path class="cls-5" d="M2.5,1.94s0,.06,0,.07l0-.07s0,0,.06,0l0,0,.08-.05c-.05.06-.13.1-.18.16A.3.3,0,0,0,2.5,1.94Z"/><path class="cls-6" d="M4,1.87s0,0,0,0,0,0,0,0,0,0,0,0H4s0,0,0,0Z"/><path class="cls-7" d="M4,1.91s0,0,0,0a.07.07,0,0,0,0-.06S4,1.88,4,1.91Z"/><path class="cls-7" d="M2.76,1.87s0,0,0,0-.05,0,0,0,.06,0,.11,0S2.74,2,2.68,2s.06,0,0,0,.05,0,.07,0,0,0-.05,0S2.73,1.88,2.76,1.87Z"/><path class="cls-11" d="M4.65,2.67a.87.87,0,0,0-.26-.73.65.65,0,0,1,.26.35,1.14,1.14,0,0,1,0,.67s0,0,.05-.06A.52.52,0,0,1,5,2.77s0,0,0,0A.61.61,0,0,0,4.74,3c-.06.07-.1.16-.13.17s0,0,0-.06,0,0,0,.08,0,0,0,0,0,0,0,.1,0,0,0,0v0s0-.05,0-.08,0,.08-.06.12,0,0,0,0,0,0,0,0,0-.08,0-.13a.76.76,0,0,1-.06.13s0,0,0,0,0,0,0,0,0,0,0,0v0s0,0,0,0,0,0,0,0,.11-.43,0-.55a.29.29,0,0,1,.12.22.59.59,0,0,1,0,.16,1.19,1.19,0,0,0-.08-.76.2.2,0,0,0-.05-.08s0,0,0,0a.77.77,0,0,1,.22.55.36.36,0,0,0,0,.16s0-.07,0-.1A.44.44,0,0,0,4.65,2.67Zm-.08.46s0-.09,0-.12S4.57,3.12,4.58,3.13Z"/><path class="cls-5" d="M4.41,2.7c.13.12.05.42,0,.55s0,0,0,0,0,0,0,0v0s0,0,0,0,0,0,0,0,0,0,0,0a.76.76,0,0,0,.06-.13s0,.09,0,.13,0,0,0,0,0,0,0,0,0-.08.06-.12,0,.07,0,.08v0s0,0,0,0,0-.05,0-.1,0,0,0,0,0-.07,0-.08,0,0,0,.06S4.68,3,4.74,3A.61.61,0,0,1,5,2.78s.06,0,0,0l0,0H5s.06,0,.08,0l0,0s0,0,0,0S5,2.9,4.89,3h0S5,2.83,5,2.78a.25.25,0,0,0-.13.08l0,0a.77.77,0,0,0-.24.25.37.37,0,0,0-.1.12s0,0,0,0l-.08.06s0,0,0,0,0,0,0,0,0,0,0,0,.19-.17.34-.16c-.07,0-.14,0-.16.09l0,0s0,0,0,0-.08,0-.1.06h0l-.06,0c.06,0,.1,0,.16-.06l0,0s0,0-.08.05,0,0,0,0l0,0c.08,0,.13-.06.21-.07h0a.33.33,0,0,0-.18.08c-.12,0-.22-.05-.34-.07h0A.59.59,0,0,0,4.41,2.7Z"/><path class="cls-5" d="M4.53,2.92c0,.06,0,0,0,0a.18.18,0,0,0,0-.11,1,1,0,0,0-.09-.44,1.19,1.19,0,0,1,.08.76A.59.59,0,0,0,4.53,2.92Z"/><path class="cls-5" d="M4.65,2.67A.93.93,0,0,0,4.46,2l-.08-.08h0A.87.87,0,0,1,4.65,2.67Z"/><path class="cls-9" d="M4.14,2C4,2,4,2,4,1.94S4,2,4,2v0s.1,0,.15,0a0,0,0,0,1,0,0s0,0,0,0,0,0,0,0Z"/><path class="cls-5" d="M5.21,2s0,0,0,0L5.19,2l-.07.07A1,1,0,0,0,5,2.3.88.88,0,0,1,5.21,2Z"/><path class="cls-11" d="M4.85,2.41A.93.93,0,0,1,5.21,2a3.12,3.12,0,0,0-.28.4,1.19,1.19,0,0,1-.13.19.13.13,0,0,1,0-.05h0l0-.11S4.83,2.4,4.85,2.41Z"/><path class="cls-5" d="M2.71,2h0a1,1,0,0,0-.05.15h0s0,0,0,0l0,0s0,0,0,0,.05,0,0-.06A.28.28,0,0,0,2.71,2Z"/><path class="cls-11" d="M2.67,2.2c.05,0,.06,0,.11,0s0,0,0,0,0,0,.06,0-.05.06-.11.08,0,0,0,0a.14.14,0,0,1-.09,0s0,0,.05,0a.18.18,0,0,1-.12,0s0,0-.06,0,.05-.06.09-.06h0s0,0,.05,0,0,0,0,0,0,0,0,0,0,0,.06,0-.06,0-.1.06,0,0,0,0,0,0,0,0,0,.09-.1.12,0,0,0,0,0,0,0,0,0,0,0,0,0,0,0,0,0,.07,0,.09a.16.16,0,0,1,0-.1h0s0,0,0,0,0,0,0,0,.12-.13.21-.18a.28.28,0,0,1-.05.11s0,0,0,.06,0,0,0,0l0,0s0,0,0,0Zm0,0,0,0v0c0,.11,0,0,0,0s0,.08,0,.08S2.64,2.21,2.63,2.19Zm-.05.11s0,0,0,0,0,0,0-.05,0,0,0,0,0,0,0,.05,0,0,0,0,0,.07,0,.08S2.6,2.31,2.58,2.3Z"/><path class="cls-5" d="M2.48,2.32h0a.16.16,0,0,0,0,.1s0-.07,0-.09,0,0,0,0,0,0,0,0,0,0,0,0-.05,0,0,0,.09-.07.1-.12,0,0,0,0,0,0,0,0,.06-.07.1-.06,0,0-.06,0,0,0,0,0,0,0,0,0-.07,0-.05,0h0s0,0-.09.06.1,0,.06,0a.18.18,0,0,0,.12,0s0,0-.05,0a.14.14,0,0,0,.09,0s0,0,0,0,.07-.05.11-.08h0a.73.73,0,0,1-.27.2.14.14,0,0,0-.12.05s0,0,0,.07,0,0,0,0v0s0,0,0,0h0c-.06,0,0-.06,0-.07s-.07,0-.12,0a1.37,1.37,0,0,1-.21-.13h0s.13,0,.13.1.11,0,.08,0,.13,0,.15,0-.05,0-.09-.05h0s-.06,0-.08,0,0,0,.05,0-.07,0-.1,0h0a.41.41,0,0,1-.14,0l.1,0s0,0,0,0,0,0,.06,0,0,0,0,0,0,.06.08.07,0,0,0,0,0,.07.06.07,0,0,0,0h0s0,.06,0,.06h0Z"/><path class="cls-5" d="M2.58,2.24s0-.06,0-.08,0,.14,0,0v0l0,0S2.58,2.21,2.58,2.24Z"/><path class="cls-5" d="M2.14,2.22s0,0,0,0,0,0,0,0,.1,0,.08,0,0,0,0,0a.32.32,0,0,0-.14,0s0,0,0,0Z"/><path class="cls-5" d="M2.29,2.22s0,0,0,0,0,0,0,0,0,0,.06.05,0,0,0,0a.86.86,0,0,1,.06.1s0,0,0,0A.39.39,0,0,1,2.29,2.22Z"/><path class="cls-5" d="M2.53,2.35s0,0,0-.08,0,0,0,0,0,0,0-.05,0,0,0,0,0,0,0,.05,0,0,0,0S2.53,2.33,2.53,2.35Z"/><path class="cls-5" d="M3.25,2.38s.07-.06.12,0h0s0,0,0,0S3.28,2.4,3.25,2.38Z"/><path class="cls-5" d="M3.11,2.5a.19.19,0,0,1,.05-.08S3.14,2.49,3.11,2.5Z"/><path class="cls-5" d="M3.11,2.61a.16.16,0,0,1,0,.11Z"/><path class="cls-5" d="M3,2.92c.06-.07.15-.18.29-.11a.08.08,0,0,0,0-.06A.29.29,0,0,0,3,2.9c0-.06.07-.09.12-.13a0,0,0,0,0,0,0,0,0,0,0,0,.06,0h0s0,0,0,0h0s0,0,0,0a.1.1,0,0,0,0,.1s0,0,.05,0c-.17,0-.23.11-.3.21s0-.06,0-.08a.38.38,0,0,1,.13-.12C3.13,2.75,3.07,2.9,3,2.92Z"/><path class="cls-5" d="M3.11,3c0-.06.07-.16.18-.17C3.19,2.87,3.16,3,3.11,3Z"/><path class="cls-9" d="M4.32,2.32c0,.35.1.75-.16.88s-.36,0-.48.06l0,0s-.08-.05-.11-.06-.31,0-.41,0A.31.31,0,0,1,3,3.07c-.09-.17,0-.48,0-.73A1.59,1.59,0,0,1,4.32,2.32Zm-1,.53a.46.46,0,0,0,.13,0s0,0,0,0,.07,0,.1,0h0s.1,0,.14,0,0,0,.06,0h0s.07.09.12.11a0,0,0,0,0,0,0h0s.05.06.12.05S4,3,4,3H4L3.91,2.9s0,0,0,0,0,0,0,0a.13.13,0,0,0,0-.07v0s0,0,0,0,.09.11.17.13.05,0,0,0a.09.09,0,0,0,.07,0s0,0,0,0h0v0s0,0,0-.07h0A.21.21,0,0,0,4.1,2.7h0L4,2.66H4c-.1,0-.15-.06-.23,0h0a.11.11,0,0,0-.1,0h0a0,0,0,0,1,0-.06s0,0,0,0h0l0,0s0,0,0,0l-.06,0s0,0,0,0,0,0,0,0h0s-.07-.06-.12,0h0s-.08,0-.12,0a.1.1,0,0,0-.1,0,.19.19,0,0,0-.05.08s0,0,0,0,0,.05,0,.07h0l0,.11v0a0,0,0,0,1,0,0S3,2.85,3,2.9H3s0,0,0,0,.12-.17.24-.11a.38.38,0,0,0-.13.12s0,.06,0,.08,0,0,0,0S3.19,2.87,3.28,2.85Z"/><path class="cls-5" d="M3.41,2.84a.09.09,0,0,0,0,0s0,0,0,0h.06s-.08,0-.1,0S3.41,2.85,3.41,2.84Z"/><path class="cls-5" d="M3.74,2.9h0s0,0,0,0,.09.1.13.14-.08-.12-.12-.11Z"/><path class="cls-5" d="M3.85,3s0,0-.05,0c.13,0,.1.16.24.14S4,3,4,3s0,0,0,0S4,3,3.93,3h0s0,0,0,0,0,0,0,0,0,0,0,0a.06.06,0,0,0,0-.05S3.87,3,3.85,3Z"/><path class="cls-5" d="M4,3H4S3.93,3,3.91,2.9Z"/><path class="cls-5" d="M3.9,2.87l-.05,0s0-.06.06-.09a.13.13,0,0,1,0,.07S3.9,2.86,3.9,2.87Z"/><path class="cls-5" d="M3.91,2.73a.14.14,0,0,1,0,0l.07,0,0,0H4s0,0,0,0,.09.05.15.07,0,0,0,0-.15,0-.17-.13S3.9,2.71,3.91,2.73Z"/><path class="cls-5" d="M4.28,2.78a.21.21,0,0,0-.1-.06s0,.05.08.07h0s0,0,0,.07,0,0,0,0,0,0,0,0-.06-.12-.14-.13A.21.21,0,0,1,4.28,2.78Z"/><path class="cls-5" d="M4.09,2.69a.09.09,0,0,1-.07,0Z"/><path class="cls-5" d="M4,2.65s-.11,0-.1,0-.05-.08-.12-.07S3.89,2.66,4,2.65Z"/><path class="cls-5" d="M3.53,2.4s.07,0,0,0H3.48S3.52,2.42,3.53,2.4Z"/><path class="cls-5" d="M3.47,2.37s0,0-.07,0,.09,0,.12,0H3.47S3.49,2.38,3.47,2.37Z"/><path class="cls-5" d="M3.46,2.56s0,0,0,0S3.46,2.58,3.46,2.56Z"/><path class="cls-10" d="M3.4,2.36s0,0,.07,0,0,0,.05,0,0,0,0,0,0,0,0,0,0,0,.06,0,0,0,0,0-.12,0,0,0l.06,0s0,0,0,0,0,0,0,0,0,0,0,0h.25c.07,0,.09,0,.12.07s.07,0,.1,0H4a.09.09,0,0,0,.07,0,1.15,1.15,0,0,1,.15.13s0,0,0,0,0,0,0,0v0h0l-.08-.05.06.05a.09.09,0,0,1-.07,0L4,2.77H4l0,0-.07,0a.14.14,0,0,0,0,0v0s0,.07-.06.09l.05,0S4,3,4,3H4s0,0,0,0-.12-.17-.24-.14c0,0,0,0,.05,0s0,0,0,0,0,0,0,0,0,0,0,0a0,0,0,0,1,0,0,1.23,1.23,0,0,0-.19-.16h0s0,0,0,0-.06,0-.06-.08,0,0,0,0H3.45s0,0,0,0a.09.09,0,0,1,0,0,.46.46,0,0,1-.13,0c-.11,0-.15.11-.18.17s0,0,0,0,.13-.21.3-.21c0,0,0,0-.05,0a.1.1,0,0,1,0-.1s0,0,0,0,0-.1,0-.11-.05.07,0,.14h0a0,0,0,0,1-.06,0v0a.16.16,0,0,0,0-.11s0,0,0,0,0,0,0,0,0,0,.06,0-.06,0-.05,0,0,0,0,0,0,0,0,0,0,0,0,.08,0,0,0,0,0,0,0,0,0-.06.05-.08A.72.72,0,0,1,3.4,2.36Zm.1.23s0,0,0,0S3.49,2.6,3.5,2.59Zm-.21-.15c.09,0,.11.06.15.09s0,0,0,0-.08,0-.05-.05a.09.09,0,0,1-.08,0s0,0,0,0S3.29,2.42,3.29,2.44Zm.14.11s0,0-.06-.05S3.41,2.56,3.42,2.56Zm-.07.16,0,0S3.34,2.75,3.35,2.72Zm.85.08s0-.07-.08-.06S4.17,2.81,4.2,2.8Z"/><path class="cls-5" d="M3.34,2.42s0,0,0,0a.09.09,0,0,0,.08,0s0,.06.05.05,0,0,0,0-.07-.1-.15-.09S3.33,2.44,3.34,2.42Z"/><path class="cls-7" d="M2.8,2.45l0,0s0,0,0,0,0,.05,0,.09h0s0,.06,0,.08h0a.47.47,0,0,1-.14.29c0-.06,0-.08.07-.11s0,0-.06,0,.06-.09.08-.14,0,0-.06.05a.81.81,0,0,1,.05-.22.51.51,0,0,0,0,.12s0-.05,0-.08,0,.12,0,.17a.06.06,0,0,1,0-.05s0,.08,0,.13a.08.08,0,0,1,0-.05.6.6,0,0,1,0,.15s0,0,0,0a.55.55,0,0,1,.18-.49S2.8,2.44,2.8,2.45Z"/><path class="cls-5" d="M2.8,2.45s0,0,0,0a.55.55,0,0,0-.18.49s0,0,0,0a.6.6,0,0,0,0-.15.08.08,0,0,0,0,.05s0-.09,0-.13a.06.06,0,0,0,0,.05c0-.06,0-.11,0-.17s0,.07,0,.08a.51.51,0,0,1,0-.12.81.81,0,0,0-.05.22s0,0,.06-.05-.08.06-.08.14,0,0,.06,0-.09.05-.07.11a.47.47,0,0,0,.14-.29h0s0,0,0-.08,0,.09,0,.07v.05l.07-.06s0,0,0,0,0,0,0,0,0,0,0,0,0,0,.06,0l-.06,0,0,0h0s0,0,0,0a0,0,0,0,0,0,0c.05,0,.07,0,.1-.05s-.14.13-.21.19,0,0,0,0,0,0,0,0a.39.39,0,0,0,.15.2h0c-.06-.06-.1-.14-.16-.2s-.18.08-.26,0,0,0,.07,0,0,0,0,0,.15,0,.18-.07,0,0,0,0,0,0,0,0,0,0,0,0,0,0,0,0a.16.16,0,0,1,0,0s0,0,0,0-.05,0,0-.09,0,0,0,0a.15.15,0,0,0,0-.09c0-.16.09-.35.22-.4S2.8,2.44,2.8,2.45Zm0,.4h0s0,0,0,0S2.75,2.82,2.75,2.84Z"/><path class="cls-5" d="M3.1,2.52s0,0,0,0,.13-.18,0-.08,0,0,0,0,0,0,0,0,0,0,.05,0-.05,0-.06,0,0,0,0,0h0a.23.23,0,0,0,0,0S3.07,2.51,3.1,2.52Z"/><path class="cls-6" d="M3.37,2.51s0,0,.06.05S3.38,2.53,3.37,2.51Z"/><path class="cls-5" d="M2.58,2.9s-.08,0-.08-.08S2.56,2.86,2.58,2.9Z"/><path class="cls-5" d="M2.57,2.93h0c-.08-.08-.2,0-.3,0a1.29,1.29,0,0,1-.18,0s0,0,0-.06,0,0,0,0a.27.27,0,0,0,.1,0s0,0,0,0,.15,0,.22-.05h0a.15.15,0,0,1,.17.06S2.58,2.93,2.57,2.93Z"/><path class="cls-5" d="M2.14,2.87s0,0,0,0,0,0,0,0S2.15,2.86,2.14,2.87Z"/><path class="cls-5" d="M2.16,2.67a.07.07,0,0,0,.05,0s0,0,0,0,0,0,.05,0,0,0,.08,0H2.28s0,0,0,0,0,0,0,0H2.22s.08,0,0,0,0,0,0,0-.06,0,0,0,0,0,0,0h0s-.07,0,0,0l0,0s0,0,0,0,0,0,0,0l0,.05s.08.08.1,0,0,0,0,0,0,0,0,0,0,0,0,0,0,0,0,0,0,0,0,0l0,0h0a0,0,0,0,0,0,0,.59.59,0,0,0-.2,0s0,0,0,0h0c-.05,0,0-.05-.09-.08Z"/><path class="cls-5" d="M2.53,2.79s0,0,0,.06,0,0,0,0h0Z"/><path class="cls-11" d="M2.06,2.53a.25.25,0,0,1,.2.06s0,0,0,0,0,0,0,0,0,0,0,0,0,.06.07.08,0,0,0,0h0l0,0s0,0,0,0,0,0,0,0,0,0,0,0,0,0,0,0,0,0,0,0-.09-.06-.1,0l0-.05s0,0,0,0,0,0,0,0l0,0c-.05,0,0,0,0,0h0s0,0,0,0,0,0,0,0-.05,0,0,0-.07,0,0,0H2.3s0,0,0,0,0,0,0,0h.06s-.1,0-.08,0,0,0-.05,0,0,0,0,0a.07.07,0,0,1-.05,0h0s0,0,0,0-.05,0-.05,0h0l-.07-.05h0S2.06,2.56,2.06,2.53Z"/><path class="cls-5" d="M2.17,2.66a.18.18,0,0,1-.08-.09l.07.05h0s0,0,.05,0S2.17,2.68,2.17,2.66Z"/><path class="cls-5" d="M4.74,2.53s0,0,0,0,0,0,0,0v0S4.74,2.57,4.74,2.53Z"/><path class="cls-5" d="M2.9,2.69s0,0,0,0a0,0,0,0,1,0,0Z"/><path class="cls-5" d="M3.21,2.7c0-.07,0-.08,0-.14s.06.08,0,.11,0-.08,0-.09A.68.68,0,0,0,3.21,2.7Z"/><path class="cls-11" d="M2.58,2.88s.05.05,0,.09,0,0,0,0a.16.16,0,0,0,0,0s0,0,0,0,0,0,0,0,0,0,0,0,0,0,0,0-.09.06-.18.07,0,0,0,0-.05,0-.07,0h0s0,0,0,0h0a.11.11,0,0,0-.08,0s0,0,0,0,0,0,0,0S2.42,3,2.47,3h0s0,0,.07,0,0,0,0,0h0s0,0,0,0a.15.15,0,0,0-.17-.06h0c-.06,0-.13,0-.22.05s0,0,0,0a.27.27,0,0,1-.1,0s0,0,0,0l0,0s0,0,0,0,0,0,0,0l.06,0s0,0,0,0,.06,0,0,0a.59.59,0,0,1,.2,0l.06.05h0s0,0,0,0,0,0,0-.06a1.57,1.57,0,0,1-.07-.27h0s0,0,0,0A1.46,1.46,0,0,0,2.58,2.88Zm0,.16s0,0,0,0,0,0,.06-.06-.06,0,0,0S2.52,3,2.54,3Zm-.13,0s.06,0,.07,0,0,0,0,0-.07,0-.09,0S2.4,3.07,2.41,3.06Zm.08-.24s.06.05.08.08S2.53,2.87,2.49,2.82Zm0,0s0,0,0,0-.07-.07-.1-.06,0,0,0,0-.07-.05-.11,0a.07.07,0,0,1,.05,0s-.06,0-.08,0,0,0,0,0-.08,0-.1,0,0,0,0,0-.08,0-.08.06a.23.23,0,0,1,.1-.06s0,0,0,0,.05-.09.1-.07,0,0,0,0a.1.1,0,0,1,.12,0s-.08,0-.07,0S2.43,2.83,2.47,2.83Z"/><path class="cls-7" d="M2.91,2.56s0,.09,0,.11h0s0,0,0,0h0a0,0,0,0,0,0,0s0,0,0,0-.05,0-.1.05a0,0,0,0,1,0,0s0,0,0,0h0l0,0,.06,0s0,0-.06,0,0,0,0,0,0,0,0,0,0,0,0,0l-.07.06V2.63s.05,0,.07-.06,0,0,0,0S2.89,2.56,2.91,2.56Z"/><path class="cls-6" d="M4,2.72l0,0H4s0,0,0,0H4Z"/><path class="cls-5" d="M3.39,2.69l0,0S3.36,2.68,3.39,2.69Z"/><path class="cls-10" d="M3,2.9a.29.29,0,0,1,.26-.15.08.08,0,0,1,0,.06c-.14-.06-.23,0-.29.11s0,0,0,0Z"/><path class="cls-10" d="M4.26,2.79s-.07,0-.08-.07a.21.21,0,0,1,.1.06Z"/><path class="cls-6" d="M4.13,2.74s0,0,.08.06S4.16,2.75,4.13,2.74Z"/><path class="cls-11" d="M4.89,2.87A.25.25,0,0,1,5,2.78s-.15.15-.14.18h0c.05,0,.15,0,.2,0h0a.69.69,0,0,0-.46.24l.13-.06s0,0-.05,0a.2.2,0,0,1,.12-.09s0,0,0,0,0,0-.05.05.11,0,.15,0h0c-.15,0-.23.11-.34.16s0,0,0,0,0,0,0,0,0,0,0,0L4.6,3.2s0,0,0,0a.37.37,0,0,1,.1-.12s.05,0,.06-.06h0s0,0,.06-.06A.51.51,0,0,1,4.89,2.87Z"/><path class="cls-5" d="M2.36,2.86s0,0,.07,0a.1.1,0,0,0-.12,0s0,0,0,0-.07,0-.1.07,0,0,0,0a.23.23,0,0,0-.1.06s0,0,.08-.06,0,0,0,0,.06,0,.1,0,0,0,0,0,0,0,.08,0a.07.07,0,0,0-.05,0s.07,0,.11,0,0,0,0,0,.07,0,.1.06,0,0,0,0S2.38,2.83,2.36,2.86Z"/><path class="cls-5" d="M4.81,3.08s0,0,0,0a.2.2,0,0,0-.12.09s0,0,.05,0l-.13.06a.69.69,0,0,1,.46-.24A.34.34,0,0,0,4.81,3.08Z"/><path class="cls-5" d="M4.74,3,4.8,3S4.74,3.06,4.74,3Z"/><path class="cls-5" d="M3.66,2.84s0,0,0,0,.06.06.06.08,0,0,0,0h0s-.1,0-.14,0S3.63,2.86,3.66,2.84Z"/><path class="cls-5" d="M4.21,2.88l-.06-.05.08.05S4.22,2.88,4.21,2.88Z"/><path class="cls-7" d="M4.76,3.23c-.06,0-.1.09-.16.06l.06,0h0s.07-.07.1-.06,0,0,0,0l0,0S4.79,3.21,4.76,3.23Z"/><path class="cls-11" d="M4.89,3.23c-.08,0-.14.07-.21.07l0,0s0,0,0,0,0,0,.08-.05l.08,0h.08Z"/><path class="cls-5" d="M2.31,3.08s-.08,0-.1,0,0,0,.05,0,0,0,0,0A.11.11,0,0,1,2.31,3.08Z"/><path class="cls-5" d="M2.52,3s0,0,0,0,0,0-.06.06,0,0,0,0S2.53,3,2.52,3Z"/><path class="cls-5" d="M2.42,3s0,0,.09,0,0,0,0,0-.06,0-.07,0S2.44,3,2.42,3Z"/><path class="cls-5" d="M4.6,3s0,.08,0,.12S4.6,3,4.6,3Z"/><path class="cls-5" d="M2.86,3.19s0,0,.07,0,0,0-.05-.06,0,0,0,0,0,0,0,0,0,0,0,.06,0,0,0,0,0,0,0,0,0,0,0,0,0,.06,0,.06,0,0,0,0,0,0,0,0,0,0,0,0,0,0,0,0,0,0,0,0h-.2s0,0,0,0A0,0,0,0,0,2.86,3.19Z"/><path class="cls-5" d="M4.35,3.19s0,0,0,.06h0v0a.56.56,0,0,0,.07-.17v0a.42.42,0,0,1-.07.17S4.32,3.2,4.35,3.19Z"/><path class="cls-8" d="M2.18,3.23a.11.11,0,0,1,.1,0l0,0h0s-.08,0-.08,0,0,0,0,0S2.18,3.23,2.18,3.23Z"/><path class="cls-12" d="M2.34,3.5c-.14,0-.18-.15-.18-.27s0,0,0,0,0,0,0,0,0,0,0,0,.08,0,.08,0h0l0,0s0,0,0,0H2.22v0h.05s0,0,0,0,0,0,0,0h.06a.34.34,0,0,1-.24,0,.08.08,0,0,0,0,.07s0,0,0,0,0,.06.05.07v0s0,0,0,0h0s0,0,0,0,0,0,0,0,0,0,0,0,0,0,.05,0h0s0,0,.05,0h0s.07,0,0,0h0s0,0,0,0h0s0,0,0,0,0,0,0,0,0,0,0,0h0s0,0,0,0,0,0,0,0,0,0,0,0,0,0,0,0h0s0,0,0,0,0,0,0,0,0,0,0,0,0,0,0,0h0s0,0,0,0,0,0,0,0v0s0,0,0,0h.26s0,0,0,0,0,0,0,0h0s0,0,.06,0,0,0,.06,0a.16.16,0,0,1,0,.06s0,0-.07.05H3.16a.08.08,0,0,0-.07,0H2.94L3,3.5s0,0,0,0,0,0,.05-.06,0,0-.07,0H3s-.07,0-.09,0,0,0,0,0a.09.09,0,0,0-.08,0s0,0,.08-.05-.05,0-.09,0,0,0,0,0,0,0,0,0-.13,0-.18,0l-.24,0Zm.8,0v0s0,0,0,0S3.16,3.48,3.14,3.48Zm.06,0s0,0,0,0,0,0-.05,0,0,0,0,.05.08,0,.07,0S3.2,3.46,3.2,3.44Zm-.2,0s-.06,0-.06,0,.14,0,.16,0,0,0,.06,0S3,3.41,3,3.42Z"/><path class="cls-9" d="M3.22,3.44s0,.06-.07,0,0,0,0-.05,0,0,.05,0,0,0,0,0S3.22,3.44,3.22,3.44Z"/><path class="cls-5" d="M2.62,3.28s0,0,0-.06h0s.05,0,.1,0H2.62Z"/><path class="cls-8" d="M2.85,3.24h.2c.08,0,.18,0,.19.1s0,0,0,0,0,0,0,0,0,0-.06,0,0-.06,0,0h0a.14.14,0,0,0-.08,0s-.06,0-.1,0l-.15,0H2.67a1.43,1.43,0,0,1-.39,0s0,0,0,0,0,0,0,0v0h0s0,0,0,0,0,0,0,0a.08.08,0,0,1,0-.07.34.34,0,0,0,.24,0h0l.19,0h.1l.08,0h.06Zm.32.08s0,0,0,0h0A0,0,0,0,0,3.17,3.32Z"/><path class="cls-5" d="M5,3.33s0-.09,0-.1,0,0,0,0,0,0,0,0,0,0,.06,0,0,0,0,0,0,0,0,0,0,0,0,0,0,0,0,0v0s0,0,0,0-.08,0-.15,0Zm0-.07s0,0,0,.07.09,0,.08-.06Z"/><path class="cls-8" d="M5,3.24h.08s0,0,0,0v0s0,0,0,0,0,0,0,0,0,0,0,0,0,0,0,0-.05,0-.06,0,0,0,0,0S5,3.26,5,3.24Z"/><path class="cls-9" d="M4.89,3.39h0s0,0,0,0,0,0,0,0,0,0,0,0Z"/><path class="cls-5" d="M4.31,3.3a1.94,1.94,0,0,1,.33.06h0s0,0,0,0,0,0,0,0H4.55s0,0,0,0,0,0,0,0h0s0,0,0,0,0,0,0,0,0,0,0,0,0,0,0,0h0s0,0,0,0,0,0,0,0a0,0,0,0,1,0,0h0v0h0s0,0,0,0H4.31Z"/><path class="cls-7" d="M4.08,3.31s.07,0,.09,0H4.08Z"/><path class="cls-9" d="M4.08,3.37s0,0,0,0,0,0,0-.06h0a.12.12,0,0,0,0,0Z"/><path class="cls-12" d="M4,3.53H4a.1.1,0,0,1-.06,0c0-.09,0-.18.11-.2S4,3.3,4,3.34H4s0,0,0,.07,0,0,0,0,0,0,.06,0h0s0,0,0,0,0,0,0,0,0,0,0,0h.12s0,0,0,0,0,0,0,0h.06s0,0,0,0h0s0,0,0,0,0,0,0,0h0s0,0,0,0,0,0,0,0h0v0h.07s0,0,0,0,0,0,0,0h0a0,0,0,0,0,.06,0s0,0,0,0,.05,0,0,0,0,0,0,0h.06s0,0,0,0H5s0,0,0,0,.05,0,.06,0,0,0,0,0-.16.11-.26.1-.24-.08-.27,0a.24.24,0,0,0-.12,0h0l-.08,0,.1-.06s0,0,0,0-.06.05-.1.06,0,0,0,0A1,1,0,0,0,4,3.53Zm.53-.06s0,0,0,0,0,0,.05,0S4.53,3.49,4.54,3.47Zm-.14.06s.08,0,.11-.06S4.43,3.48,4.4,3.53Zm-.21-.11s-.06.06-.08.09.09,0,.11-.08,0,0,0,0Zm.11,0s-.07,0-.09.08a.13.13,0,0,0,.12-.07S4.31,3.44,4.3,3.42Zm-.06,0v0s0,0-.08.08.08,0,.11-.08S4.24,3.45,4.24,3.44Zm.12,0s-.07,0-.08.08a.1.1,0,0,0,.11-.07s0,0,0,0,0,0,0,0S4.36,3.44,4.37,3.43Z"/><path class="cls-7" d="M3.36,3.32s0,0,0-.05,0,.05,0,.1,0,0,0,0,0,0,0,0,0,0,0,0,0,0,0,0h0s0,0,0,0,0,0,0,0,0,.08,0,0,.05.05,0,.08,0,0,0,0,0,0,0,0,0,0,0,0,0-.07,0,0h0a.08.08,0,0,0,0,0h0s0,0,0,0,0,0,0,0,0,0,0,0S3.38,3.33,3.36,3.32Z"/><path class="cls-12" d="M3.35,3.51s0,0,0,0,0,0,0,0,0,0,0,0,0,0,0,0,0-.05,0-.08,0,0,0,0,0,0,0,0,0,0,0,0h0s0,0,0,0,0,0,0,0,0,0,0,0,0,0,0,0h0a.06.06,0,0,0,0,.08s0,0,0,.05,0,0,0,0,0,.05,0,.06,0,0,0,0,0,0,0,0,0,0,0,0,0,0,0,.07,0-.1,0-.16,0-.06,0-.07h0s0,0,0,0a1.39,1.39,0,0,1,0,.17h0s0,.06,0,.08,0,0,0,.05a.36.36,0,0,1,0,.17s0,0,0,0,0,0,0,0,0,0,0,0,.1-.09.16-.12,0,0,0,0h0c.13,0,.07-.2,0-.25h0a.31.31,0,0,1,0,.17s0,0,0-.09a.37.37,0,0,1,0,.07s0,0-.08.06.12-.08.21-.08H4a.43.43,0,0,0-.21.1s0,0,0,0,0,0,0,0L4,3.61s0,0,0,0H4s0,0,0,0h.06s0,0,0,0h0a0,0,0,0,1,0,0h0s0,0,0,0,0,0,0,0h0v0h0s0,0,0,0h0s0,0,0,0,0,0,0,0,0,0,0,0h0s0,0,0,0,0,0,0,0,0,0,0,0,0,0,.07,0,0,0,0,0h0s0,0,0,0,.05,0,.07,0h0s0,0,0,0,0,0,0,0,0,0,0,0,.12.07.13,0-.08,0-.12,0,0,0,0,0,.09,0,.13,0,0,0,.06-.06,0,0,0,.06-.05.1-.1.11-.24-.12-.39-.1h0c-.07-.06-.23,0-.34,0a1.3,1.3,0,0,0,.32.06.91.91,0,0,1-.26,0s-.07,0-.12,0H4s0,0-.08,0,0,0,0,0h0s-.06,0-.09,0,.29,0,.39,0a1.63,1.63,0,0,0-.41,0s0,0,0,0,0,0,0,0,0,0,.07,0h.09a.85.85,0,0,1,.23,0,2.21,2.21,0,0,0-.35,0s0,0,0,0,0,0,0,0a.08.08,0,0,0,.07,0s0,0,0,0,0,0,.06,0,.06,0,.08,0a1.35,1.35,0,0,1,.37.07s0,0,.07,0,0,0-.05,0l.07,0s0,0,0,0,0,0,0,0,0,0,0,0,0,0,.05,0,0,0,0,0,0,0,0,0,0,0,0,0h0s0,0,0,0a1.6,1.6,0,0,1-.53.2,1.72,1.72,0,0,1-.63,0,2.07,2.07,0,0,1,.21,0h.1A1.52,1.52,0,0,0,4.29,4a.26.26,0,0,0-.15,0,.25.25,0,0,0-.18,0s0,0,0,0H4s.08,0,.1,0c-.2,0-.24-.2-.44-.13h-.1c-.11,0-.12.11-.23.12s.07,0,.06,0-.1,0-.08,0-.08,0-.11,0,.08,0,.1-.06A2,2,0,0,0,3,4S3,4,3,4s-.2-.12-.25-.12,0,0,0,0,0,0,0,0a.26.26,0,0,1,.15-.05.73.73,0,0,0-.12,0s0,0,0,0,0,0,0,0,0,0,0,0,0,0,0,0l.06,0s0,0,0,0,.09,0,.15,0l-.13,0s0,0,0,0,0,0,0,0h0c.06,0,.19,0,.28,0L3,3.82s0,0,0,0,0,0,0,0H3c.09,0,.27.05.33,0s.05-.05.09,0,0,0,0,0-.07,0-.09.06,0,0,0,0,0,0,0,0a.06.06,0,0,0,.05,0s0,0,0,0,.09,0,.1-.1h0v0s0,0,0,0,0,0,0,0,0,0,0,0,0,0,0,0-.06,0-.08,0,0,0,0,0-.06,0,0,0,0,0-.07,0,0,0,0,0l-.05,0s.05,0,0,0,0,0,0,0,0,0,0,0,0,0,0,0,0,0,.06,0-.05,0-.06,0,0,0,0,0-.08,0-.08,0,0,0,0,0a3.63,3.63,0,0,0-.57.11,1.13,1.13,0,0,1-.15-.18.27.27,0,0,1,.17-.08c-.07,0-.19.12-.08.08a.91.91,0,0,1,.17-.07s0-.05,0-.05l0,0h0s0,0,0,0,0,0,0,0,0,0,.05,0,0,0,0,0l-.12,0s.07,0,.08,0a.51.51,0,0,0-.19.06l.1,0a.8.8,0,0,1-.21.06s0,0,.05,0,0,0,0,.06h.05s0,0,0,0,0,0,0,0h0s0,0,0,0,0,0,0,0,.06,0,.09,0,0,0,0,0,0,0,.05,0h0s.06,0,0,0,0,0,0,0h.06s0,0,0,0,0,0,0,0,0,0,0,0h0s0,0,0,0H3s0,0,0,0,0,0,0,0h.15v0s0,0,0,0,0,0,0,0,0,0,0,0V3.55s0,0,0,0,0,0,0,0,0,0,0,0h0s0,0,0,0-.05,0-.07,0H3s0,0,0,0l0,0a1.23,1.23,0,0,1,.3,0,.06.06,0,0,0,0,0s0,0,.06,0h0s0,0,0,0,0,0,0,0h0s0,0,0,0,0,0,0,0,.12.06.17.07-.07-.09-.17-.11v0s0-.05,0,0,.08,0,.12,0-.07,0-.1-.07S3.35,3.54,3.35,3.51Zm.08.07s0,0,.06,0S3.45,3.56,3.43,3.58Zm.31.2c.08,0,.15.14.23.1C3.89,3.87,3.82,3.77,3.75,3.78Zm-.21,0-.16.08s0,0,0,0S3.51,3.85,3.54,3.79Zm-.31,0s0,0,0,.05,0,0,0-.06S3.24,3.85,3.23,3.84Z"/><path class="cls-5" d="M3.35,3.51a.11.11,0,0,0,0,0,.08.08,0,0,1,0,0Z"/><path class="cls-5" d="M3.35,3.37s0,0,0,0,0,0,0,0,0,0,0,0,0,0,0-.05S3.36,3.39,3.35,3.37Z"/><path class="cls-5" d="M3,3.28H2.9s-.06,0-.06,0h0Z"/><path class="cls-9" d="M3,3.34s0,0,0,0,0,0,0,0,0,0,0,0H3s0,0,0,0Z"/><path class="cls-7" d="M3,3.34H3Z"/><path class="cls-9" d="M3.12,3.35s0,0,0-.06h0s0,0,0,0S3.14,3.36,3.12,3.35Z"/><path class="cls-7" d="M3.45,3.37s0-.06,0,0,0,0,0,0,0,.09,0,.07a.58.58,0,0,1,0,.15h0a1.39,1.39,0,0,0,0-.17s0,0,0,0Z"/><path class="cls-8" d="M3.07,3.3h0s0,0,0,.06H3.06S3.08,3.32,3.07,3.3Zm0,0h0a0,0,0,0,1,0,0s0,0,0,0S3.08,3.32,3.07,3.33Z"/><path class="cls-6" d="M4.23,3.3s0,0,0,.06,0,0,0,0h0v0Z"/><path class="cls-7" d="M4.55,3.48s0,0-.05,0,0,0,0,0S4.53,3.48,4.55,3.48Z"/><path class="cls-6" d="M4.34,3.3h0s0,0,0,0,0,0,0,0Z"/><path class="cls-8" d="M2.77,3.32a.09.09,0,0,0,0,0s0,0,0,0,0,0,0,0,0,0,0-.05Z"/><path class="cls-9" d="M2.91,3.3s0,0,0,.05h0v0Z"/><path class="cls-5" d="M2.75,3.32h.06l0,0h0Z"/><path class="cls-9" d="M2.89,3.32s0,0,0,0,0,0,0,0Z"/><path class="cls-9" d="M3.19,3.36h0s0,0,0,0A0,0,0,0,1,3.19,3.36Z"/><path class="cls-5" d="M2.28,3.35a1.43,1.43,0,0,0,.39,0H2.52v0h0s0,0-.05,0H2.34a0,0,0,0,1,0,0s-.06,0,0,0,0,0,0,0Z"/><path class="cls-9" d="M4,3.34s0,0,0,0,0,0,0,.06,0,0,0,0S4,3.34,4,3.34Z"/><path class="cls-7" d="M3.89,3.51c0-.07,0-.14,0-.18a.62.62,0,0,1,.07.14s0,.08,0,.08V3.48s0,.06,0,.07S3.91,3.51,3.89,3.51Z"/><path class="cls-9" d="M2.65,3.38a0,0,0,0,1,0,0h0s0,0,0,0Z"/><path class="cls-5" d="M3.93,3.48v.07h0l-.08,0s0,0,0-.08,0,0,0,0,0-.06,0-.07v.07S3.91,3.49,3.93,3.48Z"/><path class="cls-8" d="M3.52,3.64l.05,0a.18.18,0,0,1,0,.11s.05-.07.1-.08l0,0h0s0,0,0,0-.1.15-.16.12,0,0,0,0,0,0,0,0,0,0,0,0A.36.36,0,0,0,3.52,3.64Z"/><path class="cls-7" d="M3.49,3.6s0,0-.06,0S3.48,3.59,3.49,3.6Z"/><path class="cls-8" d="M2.31,3.42s0,0-.05,0,0,0,0,0,0,0,0,0,0,0,0,0h0s0,0,0,0S2.31,3.4,2.31,3.42Zm0-.05s0,0,0,0,0,0,0,0Z"/><path class="cls-8" d="M4.59,3.36h0s0,0,0,0,0,0,0,0h0v0s0,0,0,0h0s0,0,0,0h0s0,0,0,0,0,0,0,0h0a0,0,0,0,1-.06,0v0s0,0,0,0h0s0,0,0,0,0,0,0,0h0A.06.06,0,0,0,4.59,3.36Z"/><path class="cls-6" d="M4.65,3.35h.07s0,0,0,0,0-.05,0,0h0s0,0,0,0v0Z"/><path class="cls-9" d="M2.31,3.37s0,0,0,0v0h0S2.32,3.38,2.31,3.37Z"/><path class="cls-9" d="M4.52,3.37h0s0,0,0,0h0S4.51,3.37,4.52,3.37Z"/><path class="cls-6" d="M2.29,3.37s0,0,0,0,0,0,0,0Z"/><path class="cls-6" d="M2.4,3.42s0-.06,0-.06h.06s0,0,0,.06Z"/><path class="cls-9" d="M4.68,3.37s0,.05,0,0h0s0,0,0,0Z"/><path class="cls-9" d="M2.36,3.38s0,0,0,0h0S2.36,3.4,2.36,3.38Z"/><path class="cls-5" d="M4.82,3.41s0,0,0,0,0,0,0,0,0,0-.06,0h0l.17,0h0v0Z"/><path class="cls-9" d="M5,3.4l0,0s0,0,0,0,0,0-.06,0S5,3.4,5,3.4Z"/><path class="cls-5" d="M5.06,3.42a.06.06,0,0,0,0,0H5l0,0s.09,0,.11,0,0,0,0,0,0,0,0,0S5.07,3.42,5.06,3.42Z"/><path class="cls-9" d="M4.74,3.43s0,0,0,0S4.77,3.44,4.74,3.43Z"/><path class="cls-9" d="M4.82,3.41l0,0v0s0,0,0,0,0,0,0,0v0s0,0,0,0,0,0,0,0Z"/><path class="cls-7" d="M2.68,3.47c.05,0,.16-.05.18,0s0,0,0,0,0,0,0,0,.06,0,.09,0-.09,0-.08.05a.09.09,0,0,1,.08,0s0,0,0,0,.05-.05.09,0H3s0,0,.07,0,0,0-.05.06,0,0,0,0l-.06,0-.19,0s0,0,0,0,0,0-.05,0,0,0,0,0,0,0,0,0h0Zm.1.05s0,0,.07-.06-.05,0,0,0S2.78,3.51,2.78,3.52Z"/><path class="cls-9" d="M5,3.42s0,0,0,0,0,0,0,0h0v0Z"/><path class="cls-7" d="M4.37,3.44s0,0,0,0,0,0,0,0a.1.1,0,0,1-.11.07s.06,0,.08-.08S4.37,3.44,4.37,3.44Z"/><path class="cls-5" d="M2.8,3.47s0,0,0,0,0,0-.07.06S2.84,3.48,2.8,3.47Z"/><path class="cls-7" d="M4.36,3.52s0,0,0,0,.06,0,.1-.06,0,0,0,0l-.1.06Z"/><path class="cls-7" d="M4.5,3.47s-.06,0-.11.06S4.47,3.46,4.5,3.47Z"/><path class="cls-8" d="M2.65,3.5s0,0,0,.05a.91.91,0,0,0-.17.07c-.11,0,0-.08.08-.08Z"/><path class="cls-5" d="M4.59,3.51s0,0-.08,0l.32.11c-.12,0-.25-.08-.38-.11,0,0,.1,0,.15,0Z"/><path class="cls-8" d="M4.45,3.54c.13,0,.26.09.38.11L4.5,3.55s0,0,.08,0l.06,0,.18.09s0,0,0,0,0,0,0,0h0s0,0-.06.06-.09,0-.13,0,0,0,0,0,0,0,0,0,0,0,0,0,0,0,0,0,0,0,0,0,0,0,0,0,0,0,0-.05-.06,0-.08,0l-.12,0a1,1,0,0,0-.36,0H4s0,0,.05,0,0,0,0,0,0,0,0,0,0,0,0,0,0,0,0,0-.15.07-.21.08.05,0,.08-.06h0l.08,0,.06,0a1,1,0,0,1,.35,0h0l.08,0Zm.23.16s0,0,0,0h0A.06.06,0,0,0,4.67,3.7Z"/><path class="cls-5" d="M4.54,3.62s.09,0,.08,0h0s0,0,0,0h0s0,0,0,0,0,0,0,0,0,0,0,0Z"/><path class="cls-8" d="M3.09,3.51h.14a.61.61,0,0,1,.13,0s.09,0,.1.07-.08-.05-.12,0,0,0,0,0h0s0,0,0,0,0,0,0,0h0s0,0,0,0h0s-.07,0-.05,0v0s0,0,0,0,0,0,0-.06a.05.05,0,0,0-.06,0s.05,0,0,0-.06,0-.06,0a.06.06,0,0,1,0,0,1.23,1.23,0,0,0-.3,0h0s0,0,0,0,0,0,0,0,0,0,0,.05h0l0,0s0,0,0,0h0s0,0,0-.06,0,0,0,0h0s0,0,0,0,0,0,0,0,0,0,0,0,0,0,0,0H2.83s0,0,0,0,0,0,0,0h0s0,0,0,0v0s0,0,0,0h0s0,0,0,0h0s0,0-.06,0,0,0,0,0h0s0,0,0,0a0,0,0,0,1,0,0s0,0,0,0-.06,0-.09,0,0,0,0,0,0,0,0,.06,0,0,0,0,0,0,0,0a.05.05,0,0,0,0,0s0,0,0,0a.06.06,0,0,0,0,0s0,.05,0,.07h0s0,0,0-.06h0s-.05,0-.05,0a.8.8,0,0,0,.21-.06h0l.12,0,.19,0Zm-.46.12s0,0,.05,0,0,0,0,0Zm-.05,0h0A0,0,0,0,0,2.58,3.66Zm.18,0s0,0,0,0S2.76,3.61,2.76,3.63Zm-.12,0s0,0,0,0,0,0,0,0S2.67,3.64,2.64,3.64Z"/><path class="cls-5" d="M2.71,3.62s0,0,0,0,0,0-.05,0Z"/><path class="cls-9" d="M2.56,3.71a.05.05,0,0,1,0,0s0,0,0,0Z"/><path class="cls-6" d="M3.12,3.6s0,0,0,0,0,0,0,0S3.08,3.6,3.12,3.6Z"/><path class="cls-8" d="M3.12,3.6s0,0,0,0H3.07v0h0s0,0,0,0h0s0,0,0,0S3.12,3.61,3.12,3.6Z"/><path class="cls-6" d="M4.11,3.6h0s0,0,0,0v0s0,0,0,0h0S4.1,3.6,4.11,3.6Z"/><path class="cls-9" d="M4.21,3.58s0,0,0,0h0v0h0S4.21,3.59,4.21,3.58Z"/><path class="cls-9" d="M4.23,3.61s0,0,0,0,0,0,0,0h0s0,0,0,.05,0,0,0,0Z"/><path class="cls-6" d="M4.26,3.59s0,0,0,0h0S4.26,3.59,4.26,3.59Z"/><path class="cls-5" d="M4.07,3.56a1,1,0,0,1,.36,0h0s0,0,0,0,0,0,0,0l-.06,0h0s0,0,0,0h0s0,0,0,0-.08,0-.07,0,0,0,0,0H4.07Z"/><path class="cls-9" d="M2.92,3.63s0,0,0,0l0,0S2.92,3.63,2.92,3.63Z"/><path class="cls-9" d="M4,3.59H4v0l-.22.08s0,0,0,0,0,0,0,0A.43.43,0,0,1,4,3.59Z"/><path class="cls-7" d="M4.34,3.73A1.3,1.3,0,0,1,4,3.67c.1,0,.27,0,.34,0h0Z"/><path class="cls-7" d="M3.11,3.71s.13,0,.08,0,0,0,0,0,0,0,.06,0-.07,0-.06,0-.06,0,0,0,0,0,0,0,0,0,0,0,0,0,0,0l.05,0s0,0,0,0,0,0,.07,0,0,0,0,0,0,0,0,0,.05,0,.08,0,0,0,0,0,0,0,0,0,0,.07,0,0,0,0,0,0v0h0c0,.06-.06.06-.1.1s0,0,0,0a.06.06,0,0,1-.05,0s0,0,0,0,0,0,0,0,.06-.06.09-.06,0,0,0,0,0,.06-.09,0-.24.05-.33,0H3s0,0,0,0,.08,0,.1-.06Z"/><path class="cls-8" d="M4.43,3.61s.08,0,.06,0,0,0,0,0,0,0,0,0h0s0,0,0,0h0s-.05,0-.07,0S4.43,3.63,4.43,3.61Z"/><path class="cls-9" d="M4.49,3.66h0s0,0,0,0h0s0,0,0,0,0,0,0,0h0s0,0,0,0,0,0,0,0S4.48,3.67,4.49,3.66Z"/><path class="cls-5" d="M2.74,3.63s0,0,0,0,0,0,.06,0h0Z"/><path class="cls-6" d="M4.49,3.63s0,0-.06,0,0,0,0,0h0l.12,0h0s0,0,0,0,0,0,0,0Z"/><path class="cls-5" d="M4.83,3.62s0,0,0,0,0,0,0,0S4.85,3.65,4.83,3.62Z"/><path class="cls-8" d="M4.56,3.66a0,0,0,0,0,0,0s0,0,0,0,0,0,0,0v0s-.06,0-.07,0,0,0,0,0,0,0,0,0S4.56,3.64,4.56,3.66Z"/><path class="cls-5" d="M3.68,3.7s-.06.08-.1.08a.18.18,0,0,0,0-.11h0s0,.07,0,.09.06,0,0-.08S3.67,3.69,3.68,3.7Z"/><path class="cls-9" d="M4.61,3.69v0h0s0,0,0,.05h0Z"/><path class="cls-5" d="M3,3.74l.05,0s-.06,0-.1.06,0,0,0,0,0,0,0,0a.22.22,0,0,1,.08,0Z"/><path class="cls-8" d="M2.87,3.79l.18,0h0a.22.22,0,0,0-.08,0s0,0,0,0H3s0,0,0,0,0,0,0,0h0c-.06,0-.11,0-.15,0s.06,0,0,0l-.06,0s0,0,0,0,0,0,0,0,0,0,0,0,0,0,0,0A.73.73,0,0,1,2.87,3.79Z"/><path class="cls-8" d="M4.28,3.77a1.23,1.23,0,0,1,.24.07h0s0,0,0,0-.06,0,0,0,0,0,0,0-.06,0-.05,0,0,0,0,0-.06,0,0,0,0,0,0,0l-.07,0-.23-.06a.85.85,0,0,0-.23,0H3.86s-.06,0-.07,0,0,0,0,0,0,0,0,0a1.63,1.63,0,0,1,.41,0h0s0,0,0,0Z"/><path class="cls-8" d="M4.54,3.86s0,0,0,0,0,0,0,0l-.37.15,0,0h0l-.34.05H3.56s0,0,0,0,0,0,0,0,0,0,0,0,0,0,0,0v0s0,0,0,0-.06,0-.07,0,0,0,0,.05h0v0h0l-.15,0s0,.05,0,.06h0s0,0,0-.05h0l-.07,0s0,0,0,0,0,0,0,0,0,0,0,0,0,0,0,0,0,0,0,0,0,0,0,0,0,0,0,0l-.4-.16s0,0,0-.05h0s0,0,0,0S2.91,4,3,4a1.93,1.93,0,0,0,.39.11,1.72,1.72,0,0,0,.63,0A1.6,1.6,0,0,0,4.54,3.86Z"/><path class="cls-6" d="M4,3.94s0,0,0,0a.25.25,0,0,1,.18,0s0,0,0,0S4,4,4,3.94H4Z"/><path class="cls-7" d="M3.26,3.83s0,0,0,.06,0,0,0-.05S3.24,3.84,3.26,3.83Z"/><path class="cls-5" d="M4.53,3.91s0,.06,0,.08,0,0,0,0,0,0,0,0,0,0,0,0,0,0,0,0h0s0,0,0,0,0,0,0,0h0s0,0,0,0h0s0,0,0,0,0,0,0,0,0,0,0,0,0,0,0,0h0l.37-.15S4.53,3.92,4.53,3.91Z"/><path class="cls-5" d="M3.72,4.16l.34-.05h0s0,0,0,0,0,0,0,0,0,0-.06,0H3.84s0,0,0,0v0h0s0,0,0,0,0,0,0,0h0Z"/><path class="cls-5" d="M3.22,4.14s0,0,0,0l.07,0H3.23S3.22,4.13,3.22,4.14Z"/><path class="cls-12" d="M2.73,3.88s0,0,0,.05l.4.16h0s0,0,0,0,0,0,0,0h0s0,0,0,0,0,0,0,0H3s0,0,0,0,0,0,0,0,0,0,0,0S3,4,3,4s0,0,0,.05V4s0,.05,0,0,0,0,0-.05h0s0,0,0,0h0s0,0,0,0h0s0,0,0,0h0l0,0s0,0,0,0,0,0,0,0,0,0,0,0H3s0,0,0,0,0,.05,0,0H3s0,0,0,0h0s0,0,0,0,0,0,0,0,0,0,0,0,0,0,0,0h0s0,0,0,0,0,0,0,0,0,0,0,0,0,0,0,0h0s0-.06,0-.06l.15,0H3.38s0,0,0,0,0-.06,0-.05h0s0,0,0,0,0,0,0,0h.16s0,0,0,0,0,0,0,0h0s0,0,0,0h0v0s0,0,0,0,0,0,0,0h.16s0,0,0,0,0,0,0,0h0s0,0,0,0v0h.06s0,0,0,0h0s0,0,0,0H4s0,0,0,0h0c.05,0,0,0,0,0s0,0,0,0,0,0,0,0,0,0,0,0,0,0,0,0h0s0,0,0,0h0s0,0,0,0h0s0,0,0,0,0,0,0-.06v.05h0a0,0,0,0,0,0,0s0,0,0,0v0s0,0,0,0h0s0,0,0,0,0,0,0,0h0s0,.06,0,.08a2.06,2.06,0,0,1-.87.21h0a2,2,0,0,1-.86-.23A.69.69,0,0,1,2.73,3.88ZM2.79,4s0,0,0,0,0,.09,0,.07,0,0,0,0,0,0,0,0,0,0,0,0,0,0,0,0,0,0,0,0h0S2.8,4,2.79,4Z"/><path class="cls-8" d="M4.32,4h0s0,.09,0,.06v0s0,0,0,0,0,0,0,.05,0,0,0-.05Z"/><path class="cls-6" d="M3.21,3.94s.08,0,.11,0,.08-.05.08,0-.06,0-.06,0h0a.13.13,0,0,0-.1,0h0s0,0-.05,0Z"/><path class="cls-7" d="M4,3.94H4Z"/><path class="cls-7" d="M2.83,4s0,0,0,0h0S2.83,4,2.83,4Z"/><path class="cls-8" d="M4.43,4s0,0,0,0V4s0,0,0,0,0,0,0,0h0S4.44,4,4.43,4Z"/><path class="cls-8" d="M2.79,4s0,0,0,0,0,0,0,0h0s0,0,0,0Z"/><path class="cls-9" d="M2.83,4s0,0,0,0,0,0,0,0,0,0,0,0Z"/><path class="cls-8" d="M4.36,4h0s0,0,0,0h0a0,0,0,0,1,0,0s0,0,0-.05S4.36,4,4.36,4Z"/><path class="cls-8" d="M2.88,4s0,0,0,0h0s0,0,0,0,0,0,0,0S2.9,4,2.88,4Z"/><path class="cls-6" d="M3,4.08s0,0,0,0H3Z"/><path class="cls-6" d="M4.06,4.11h0s0,0,0,.05v0h0s0,0,0,0Z"/><path class="cls-9" d="M4.11,4.14s0,0,0,0h0s0,0,0,0v0S4.1,4.16,4.11,4.14Z"/><path class="cls-8" d="M4,4.14s0,0,0,0H4s0,0,0,0,0,0,0,0Z"/><path class="cls-9" d="M3.92,4.15h0s0,0,0,0h0v0Z"/><path class="cls-8" d="M3.38,4.16h0v0h0S3.39,4.16,3.38,4.16Z"/><path class="cls-6" d="M3.57,4.2s0,0,0,0h.16v0s0,0,0,0,0,0,0,.06h0s0-.05,0-.06h0s0,0,0,0a0,0,0,0,0,0,0h0s0,0,0,.05v0S3.57,4.19,3.57,4.2Z"/><path class="cls-10" d="M3.61.48s0,0,0,0h0S3.58.45,3.61.48Z"/><path class="cls-6" d="M3.91.6s0,0,0,0S3.93.6,3.91.6Z"/><path class="cls-6" d="M3.27,1s0,0,0,0h0v0S3.27,1,3.27,1Z"/><path class="cls-6" d="M3.32.91s0,0,0,0,0,0,0,0,0,0,0,0,0,0,.06,0S3.32.9,3.32.91Z"/><path class="cls-6" d="M2.71,1s.07,0,.08,0S2.73,1,2.71,1Z"/><path class="cls-6" d="M3.13,1.07h0s0,0,0,0,0,0,0,0,0,0,0,0A0,0,0,0,0,3.13,1.07Z"/><path class="cls-8" d="M4.18,1.1l0,0v0s0,0,0,0Z"/><path class="cls-8" d="M2.9,1.1s0,0,0,0h0s0,0,0,.05v0s0,0,0,0,0,0,0,0h0A.07.07,0,0,1,2.9,1.1Z"/><path class="cls-6" d="M3.18,1.15h0s0,0,0,0Z"/><path class="cls-6" d="M3.93,1.17s0,0,0,0,0,0,0,0S3.93,1.18,3.93,1.17Z"/><path class="cls-7" d="M3.18,1.16s0,0,0,0,0-.05,0,0Z"/><path class="cls-5" d="M3.28,1.5h0c0,.08,0,.21,0,.27V1.71A1.22,1.22,0,0,1,3.28,1.5Z"/><path class="cls-5" d="M3.34,1.49c0,.1,0,.2,0,.3V1.73C3.32,1.65,3.29,1.54,3.34,1.49Z"/><path class="cls-5" d="M3.34,1.8c0-.08,0-.21.08-.25h0A.86.86,0,0,0,3.34,1.8Z"/><path class="cls-5" d="M3.21,1.84A.68.68,0,0,1,3,1.78C3.11,1.74,3.17,1.81,3.21,1.84Z"/><path class="cls-5" d="M3.19,1.86s-.11,0-.12,0A.21.21,0,0,1,3.19,1.86Z"/><path class="cls-5" d="M3.49,1.87s-.07,0-.1,0S3.47,1.85,3.49,1.87Z"/><path class="cls-6" d="M3.9,2.07a.06.06,0,0,0,0,0s0,0,0,0,0,0,0,0,0,0,0,0Z"/><path class="cls-6" d="M3.4,2.36s.06,0,.07,0S3.41,2.38,3.4,2.36Z"/><path class="cls-6" d="M3.37,3.24s.1,0,.13,0A.53.53,0,0,1,3.37,3.24Z"/><path class="cls-7" d="M2.29,3.29h0s0,0,0,0h0s0,.06,0,.08,0,0,0,0Z"/><path class="cls-5" d="M3.08,3.28a.14.14,0,0,1,.08,0H3.08Z"/><path class="cls-5" d="M4.17,3.29a.43.43,0,0,1,.13,0h0s0,0,0,0H4.17Z"/><path class="cls-6" d="M2.35,3.31a.09.09,0,0,1,.08,0H2.35Z"/><path class="cls-9" d="M3.07,3.3s0,0,0,0h0s0,0,0,0v0Z"/><path class="cls-9" d="M4.17,3.3s0,0,0,.05h0a.08.08,0,0,0,0-.06Z"/><path class="cls-6" d="M2.67,3.33h.08s0,0,0,0,0,0,0,0H2.67Z"/><path class="cls-6" d="M3.17,3.3h0s0,0,0,0h0s0,0,0-.05Z"/><path class="cls-9" d="M3.21,3.36s0,0,0,0,0,0,0,0a.56.56,0,0,0,0,.07S3.21,3.4,3.21,3.36Z"/><path class="cls-9" d="M4.1,3.33s0,0,0,0a0,0,0,0,1,0,0S4.1,3.35,4.1,3.33Z"/><path class="cls-9" d="M4.2,3.3a0,0,0,0,1,0,0S4.18,3.3,4.2,3.3Z"/><path class="cls-9" d="M4.26,3.35h0s0,0,0,0,0,0,0,0,0,0,0,0h0v0h0S4.28,3.32,4.26,3.35Z"/><path class="cls-8" d="M2.85,3.32s.05,0,.06,0v0h0s0,0,0,0Zm0,0s0,0,0,0,0,0,0,0Z"/><path class="cls-9" d="M4.37,3.32s0,0,0,0h0s0,0,0,0,0,0,0,0Z"/><path class="cls-8" d="M4.47,3.34s0,0,0,0,0,0,0,0,0,0,0,0,0,0,0,0,0,0,0,0,0,0,0,0,0,0,0,0h0S4.48,3.36,4.47,3.34Z"/><path class="cls-8" d="M2.67,3.33h0v0s0,0,0,0,0,0,0,0,0,0,0,0,0,0,0,0Z"/><path class="cls-6" d="M4.45,3.38s0,0,0,0h0s0,0,0,0Z"/><path class="cls-6" d="M2.25,3.38s0,0,0,0,0,0,0,0h0Z"/><path class="cls-9" d="M2.75,3.32s0,0,0,.05h0s0,0,0,0S2.73,3.32,2.75,3.32Z"/><path class="cls-9" d="M2.8,3.36s0,0,0,0a.09.09,0,0,1,0,0l0,0h0v0S2.81,3.37,2.8,3.36Z"/><path class="cls-8" d="M4.3,3.35h0v0h0s0,0,0,0,0,0,0,0Z"/><path class="cls-9" d="M4.39,3.36s0,0,0,0h0v0s0,0,0,0S4.39,3.35,4.39,3.36Z"/><path class="cls-8" d="M2.58,3.4s0,0,0,0h.06a0,0,0,0,0,0,0s0,0,0,0,0,0,0,0h0s0,0,0,0Z"/><path class="cls-9" d="M2.72,3.33s0,0,0,.06,0,0,0,0v0Z"/><path class="cls-9" d="M4.43,3.35h0s0,0,0,0S4.43,3.36,4.43,3.35Z"/><path class="cls-9" d="M2.26,3.35s0,0,0,0,0,0,0,0V3.35Z"/><path class="cls-8" d="M2.51,3.38h0v0h0a.15.15,0,0,0,0,0h0s0,0,0,0Z"/><path class="cls-9" d="M2.57,3.4a.15.15,0,0,1,0,0h0s0,0,0,0Z"/><path class="cls-8" d="M4.41,3.32h0a0,0,0,0,0,0,0s0,0,0,0,0,0,0,0,0,.05,0,0-.05,0,0,0S4.41,3.33,4.41,3.32Zm0,.06s0,0,0,0h0S4.42,3.36,4.42,3.37Z"/><path class="cls-9" d="M2.6,3.39h0S2.62,3.4,2.6,3.39Z"/><path class="cls-9" d="M4.59,3.36a.06.06,0,0,1,0,0h0v0h0v0s0,0,0,0h0Z"/><path class="cls-5" d="M4.92,3.38s0,0,.07,0H5s0,0,0,0h0s0,0,0,0,0,0,0,0Z"/><path class="cls-8" d="M4.57,3.36s0,0,0,0v0h0v0H4.52v0s0,0,0,0,0,0,0,0,0,0,0,0Z"/><path class="cls-9" d="M4.73,3.38a.14.14,0,0,1,0,0s0,0,0,0h0s0,0,0,0Z"/><path class="cls-9" d="M2.44,3.42s0,0,0,0,0,0,0,0,0,0,0,0,.06,0,.05,0v0s0,0,0,0h0S2.45,3.41,2.44,3.42Z"/><path class="cls-9" d="M2.53,3.41h0S2.53,3.43,2.53,3.41Z"/><path class="cls-8" d="M4.9,3.44s0,0,0,0,0,0,0,0,0,0,0,0v0h0A0,0,0,0,1,4.9,3.44Zm0,0s0,0,0,0A0,0,0,0,0,4.94,3.46Z"/><path class="cls-8" d="M5,3.4s0,0,0,0,0,0,.06,0,0,0,0,0h0a.06.06,0,0,1,0,0h0s0,0-.06,0,0,0,0,0,0,0,0,0,0,0,0,0,0,0,0,0H5s0,0-.07,0h0l-.17,0H4.65a1.94,1.94,0,0,0-.33-.06h0a.43.43,0,0,0-.13,0s-.07,0-.09,0,0,.05,0,.06,0,0,0,0S4,3.4,4,3.38s0,0,0-.06,0,0,0,0H4s0,0,.06-.06l.16,0h.16c.12,0,.22,0,.34.07h.17s0,0,.07,0,.12,0,.15,0a.34.34,0,0,0,0,.06S5,3.36,5,3.4Z"/><path class="cls-6" d="M4.63,3.41s0,0,0,0v0Z"/><path class="cls-8" d="M2.35,3.39a0,0,0,0,0,0,0h0s.06,0,0,.06,0,0-.05,0Zm0,0h0s0,0,0,0S2.35,3.42,2.37,3.42Z"/><path class="cls-8" d="M4.82,3.41v0s0,0,0,0,0,0,0,0v0H4.77s0,0,0,0-.07,0,0,0a.14.14,0,0,0,0,0s.05,0,.06,0,0,0,0,0S4.79,3.41,4.82,3.41Zm-.07,0s0,0,0,0S4.78,3.38,4.75,3.38Z"/><path class="cls-9" d="M4.92,3.42s0,0,0,0A0,0,0,0,1,4.92,3.42Z"/><path class="cls-6" d="M4.9,3.44a0,0,0,0,0,0,0h0s0,0,0-.05S4.89,3.44,4.9,3.44Z"/><path class="cls-9" d="M3.27,3.6s-.05,0,0,0a.05.05,0,0,1,.06,0s0,0,0,.06Z"/><path class="cls-7" d="M3.3,3.57s0,0,.05,0H3.3Z"/><path class="cls-9" d="M3.11,3.59h0s0,0,0,0h0s0,0,0,0h0v0h0s0,0,0,0S3.08,3.59,3.11,3.59Z"/><path class="cls-6" d="M4,3.58s0,0,0,0,0,0,0,0v0H4Z"/><path class="cls-8" d="M4.13,3.56v0h0s0,0,0,0v0s0,0,0,0h0s0,0,0,0H4.07s0,0,0,0Z"/><path class="cls-8" d="M4.18,3.6c.05,0,0-.07,0,0h0a0,0,0,0,0,0,0h0a0,0,0,0,1,.07,0s0,0,0,0S4.18,3.62,4.18,3.6Z"/><path class="cls-8" d="M4.22,3.59h0s0,0,0,0,0,0,0,0,0,0,0,0,0,0,0,0Z"/><path class="cls-9" d="M3.05,3.61v0s0,0,0,0v0Z"/><path class="cls-9" d="M4,3.6s0,0,0,0,0,0-.05,0h.06s0,0,0,0,0,0,0,0Z"/><path class="cls-9" d="M4.16,3.59c0-.06.07,0,0,0S4.16,3.61,4.16,3.59Z"/><path class="cls-9" d="M2.95,3.59s0,0,0,0h0Z"/><path class="cls-8" d="M4.29,3.57l.06,0s0,0,0,0,0,0,0,0,0,0,0,0S4.29,3.59,4.29,3.57Z"/><path class="cls-9" d="M3,3.62s0,0,0-.05H3v0S3,3.63,3,3.62Z"/><path class="cls-9" d="M3.32,3.57s0,0,0,0,0,0,0,0v0Z"/><path class="cls-9" d="M4.13,3.61s0,0,0,0,0,0,0,0h0v0s0,0,0,0h0S4.13,3.62,4.13,3.61Z"/><path class="cls-6" d="M2.82,3.62s0,0,0,0h0s0,0,0,0Z"/><path class="cls-8" d="M3,3.57s.06,0,.07,0v0H3s0,0,0,0Zm.06,0H3s0,0,0,0S3,3.6,3,3.58Z"/><path class="cls-9" d="M3,3.61s0,0,0,0H3S3,3.62,3,3.61Z"/><path class="cls-9" d="M4.37,3.6s0,0,0,0h0s0,0,0,0S4.37,3.59,4.37,3.6Z"/><path class="cls-8" d="M4.37,3.6s0,0,0,0,0,0,0,.05,0,0,0,0,0,0,0,0S4.37,3.62,4.37,3.6Z"/><path class="cls-9" d="M2.8,3.61s0,0,0,0S2.78,3.61,2.8,3.61Z"/><path class="cls-9" d="M2.87,3.64s0,0,0,0,0,0,0,0,0,0,0,0h0s0,0,0,0,0,0,0,.06h0s0,0,0,0S2.87,3.63,2.87,3.64Z"/><path class="cls-9" d="M2.78,3.66s0,0,0,0v0h0S2.8,3.65,2.78,3.66Z"/><path class="cls-9" d="M4.43,3.61s0,0,0,0,0,0,0,0,0,0,0-.05h0S4.43,3.6,4.43,3.61Z"/><path class="cls-9" d="M4.54,3.64s0,0,0,0,0,0,0,0a.11.11,0,0,1,0-.05h0S4.55,3.63,4.54,3.64Z"/><path class="cls-6" d="M2.57,3.67h0S2.57,3.66,2.57,3.67Z"/><path class="cls-9" d="M4.65,3.66h0s0,0,0,0A.06.06,0,0,1,4.65,3.66Z"/><path class="cls-6" d="M2.62,3.7s0,0,0-.06,0,0,0,0S2.62,3.7,2.62,3.7Z"/><path class="cls-9" d="M4.58,3.65s0,0,0,0a0,0,0,0,1,0,0Z"/><path class="cls-9" d="M2.58,3.66a0,0,0,0,1,0,0h0s0,0,0,0Z"/><path class="cls-9" d="M2.47,3.69h0s0,0,0,.06h0S2.44,3.7,2.47,3.69Z"/><path class="cls-9" d="M2.54,3.73s0,0,0-.07a.06.06,0,0,1,0,0S2.55,3.72,2.54,3.73Z"/><path class="cls-9" d="M4.68,3.71s0,0,0,0,.08,0,.12,0S4.69,3.77,4.68,3.71Z"/><path class="cls-9" d="M4.63,3.71s0,0,0,0,0,0,0,0S4.62,3.72,4.63,3.71Z"/><path class="cls-7" d="M4.2,3.78h0c-.09,0-.29,0-.39,0s.06,0,.09,0h0s.09,0,0,0,.06,0,.08,0H4s.07,0,.12,0S4.2,3.74,4.2,3.78Z"/><path class="cls-9" d="M4.18,3.81l.23.06s0,0,.05,0,0,0-.07,0A1.35,1.35,0,0,0,4,3.85s-.16,0-.08,0-.05,0-.06,0,0,0,0,0a.08.08,0,0,1-.07,0s0,0,0,0,0,0,0,0A2.21,2.21,0,0,1,4.18,3.81Z"/><path class="cls-9" d="M4.43,4s0,0,0,0h0s0,0,0,0S4.43,4,4.43,4Z"/><path class="cls-8" d="M4.4,4s0,0,0,0,0,0,0,0V4s0,0,0,0Z"/><path class="cls-9" d="M2.88,4s0,0,0,0l0,0h0s0,0,0,0Z"/><path class="cls-6" d="M4.46,4h0S4.46,4,4.46,4Z"/><path class="cls-9" d="M2.9,4.07s0,0,0,0h0v0S2.91,4.07,2.9,4.07Z"/><path class="cls-9" d="M4.33,4s0,0,0,.05h0V4h0Z"/><path class="cls-9" d="M4.37,4.06h0s0,0,0,0h0s0,0,0,0,0,0,0,0S4.39,4.06,4.37,4.06Z"/><path class="cls-6" d="M4.21,4.07s0,0,0,0h0s0,0,0,0,0,0,0,0h0S4.2,4.09,4.21,4.07Z"/><path class="cls-9" d="M3,4.07s0,0,0,.05H3s0,0,0,0,0,0,0,0Z"/><path class="cls-12" d="M2.91,1.3l0,1a1,1,0,0,1,.7-.18V1.31Z"/><path class="cls-9" d="M4.26,4.1a.13.13,0,0,1,0,0h0v0S4.27,4.09,4.26,4.1Z"/><path class="cls-8" d="M2.93,4s0,0,0,0h0s0,0,0,.05,0-.06,0,0v.06H3s0,0,0,0Z"/><path class="cls-9" d="M4.24,4.07h0a.08.08,0,0,1,0,0h0s0,0,0,0S4.24,4.08,4.24,4.07Z"/><path class="cls-6" d="M4.31,4s0,0,0,.05,0,0,0-.05Z"/><path class="cls-7" d="M4.16,4.09v0s0,0,0,0v0s0,0,0,0h0l0,0Z"/><path class="cls-9" d="M3.11,4.09s0,0,0,0v0s0,0,0,0S3.1,4.1,3.11,4.09Z"/><path class="cls-9" d="M4.18,4.14s0,0,0-.05,0,0,0,0a.15.15,0,0,1,0,0Z"/><path class="cls-8" d="M3,4.09s0,0,0,0,0,0,0,0H3s0,0,0,0S3,4.08,3,4.09Zm0,0H3s0,0,0,0Z"/><path class="cls-6" d="M3.14,4.11s0,0,0,0h0s0,0,0,0h0Z"/><path class="cls-9" d="M3.17,4.11s0,0,0,0h0s0,0,0,0h0Z"/><path class="cls-8" d="M4.19,4.14a.15.15,0,0,0,0,0s0,0,0,0,0,0,0,.05h0S4.2,4.13,4.19,4.14Z"/><path class="cls-9" d="M3.27,4.13s0,0,0,.05,0,0,0,0,0,0,0,0,0,0,0,0Z"/><path class="cls-9" d="M4,4.13a0,0,0,0,1,0,0H4s0,0,0,0S4,4.12,4,4.13Z"/><path class="cls-9" d="M3.33,4.14a.11.11,0,0,0,0,0h0s0,0,0,0Z"/><path class="cls-9" d="M4.06,4.17s0,0,0,0h0v0Z"/><path class="cls-9" d="M3.38,4.16s0,0,0,0h0S3.36,4.16,3.38,4.16Z"/><path class="cls-6" d="M3.45,4.16s.07,0,.07,0h0s0,0,0,0v0h0Z"/><path class="cls-9" d="M3.89,4.15s0,0,0,.05h0s0,0,0-.05Z"/><path class="cls-9" d="M3.35,4.19s0,0,0,0h0S3.36,4.19,3.35,4.19Z"/><path class="cls-9" d="M3.52,4.17s0,0,0,0h0s0,0,0,0a0,0,0,0,1,0,0Z"/><path class="cls-8" d="M3.8,4.2s0,0,0,0,0,0,0,.05h0v0s0,0,0,0h0A0,0,0,0,0,3.8,4.2Z"/><path class="cls-9" d="M3.64,4.18s0,0,0,0h0v0S3.62,4.18,3.64,4.18Z"/><path class="cls-8" d="M3.46,4.17h0v0s0,0,0,0h0a0,0,0,0,0,0,0h0s0,0,0,0A.06.06,0,0,0,3.46,4.17Z"/><path class="cls-9" d="M3.78,4.21s0,0,0-.05h0v0a0,0,0,0,1,0,0Z"/><path class="cls-8" d="M3.89,4.2s0,0,0-.05h0v0S3.9,4.22,3.89,4.2Z"/><path class="cls-8" d="M3.32,4.19a.11.11,0,0,1,0,0s0,0,0,.05h0Zm0,0h0s0,0,0,0S3.35,4.16,3.35,4.16Z"/><path class="cls-8" d="M3.58,4.22s0,0,0-.05h0a0,0,0,0,1,0,0v0Z"/><path class="cls-9" d="M3.73,4.17s0,0,0,.05h0a0,0,0,0,1,0,0v0Z"/><path class="cls-9" d="M3.57,4.22s0,0,0,0,0,0,0,0v0Z"/><path class="cls-9" d="M3.68,4.17s0,0,0,.05h0v0Z"/><path class="cls-8" d="M3.72,4.2a0,0,0,0,0,0,0h0s0,0,0-.06S3.7,4.2,3.72,4.2Z"/><path class="cls-10" d="M3.5,1.06h0s0,0,0,0h0s0,0,0,0h0Z"/><path class="cls-6" d="M2.91,1.46c0,.3,0,.64,0,1C2.9,2.11,2.92,1.78,2.91,1.46Z"/><path class="cls-6" d="M4.34,1.47a2.84,2.84,0,0,1,0,.29A2.6,2.6,0,0,1,4.34,1.47Z"/><path class="cls-6" d="M4.8,2V2.2A.49.49,0,0,1,4.8,2Z"/><path class="cls-6" d="M2.9,2.66h0v.19S2.93,2.7,2.9,2.66Z"/><path class="cls-6" d="M3.52,2.84h.14s-.08,0-.12,0Z"/><path class="cls-7" d="M3,3.29H3s.06,0,.1,0H3v0s0,0,0,0Z"/><path class="cls-6" d="M4.37,1.3s0,0,0,0,0,0,0,0,0,0,0,0,0,0,0,0Z"/><path class="cls-9" d="M3.1,3.32s0,0,0,0a0,0,0,0,0,0,0h0S3.08,3.32,3.1,3.32Z"/><path class="cls-9" d="M2.74,3.63h0s0,0,0,0,0,0-.05,0a0,0,0,0,0,0,0s0,0,0,0Z"/><path class="cls-9" d="M2.67,3.67s0,0,0,0,0,0,0,0S2.67,3.66,2.67,3.67Z"/><path class="cls-9" d="M3.45,4.16h0a.06.06,0,0,1,0,0s0,0,0,0S3.44,4.17,3.45,4.16Z"/><path class="cls-7" d="M2.88,3.06c0,.06.06.07.08.12s0,0,0,0,0,0,0,0,0,0,0,0,0-.07,0-.06,0,0,0,0,0,0,0,0,0,0,.05.06-.07,0-.07,0h0S2.86,3.08,2.88,3.06Z"/><path class="cls-7" d="M3.16,3.45s0,0-.06,0-.12,0-.16,0,.05,0,.06,0S3.14,3.38,3.16,3.45Z"/><path class="cls-7" d="M3.43,3.37h0s0,.1,0,.07,0,.11,0,.16,0-.06,0-.07,0,0,0,0,0-.12,0,0,0,0,0,0,0-.07,0-.06,0,0,0,0,0-.08,0-.05A.06.06,0,0,1,3.43,3.37Z"/><path class="cls-7" d="M3.77,3.44s.05.07.07.08,0,.06,0,.09A.31.31,0,0,0,3.77,3.44Z"/><path class="cls-8" d="M4.09,1.1h0s0,0,0,0,0,0,0,0Z"/><path class="cls-9" d="M3,3.82l.16,0c-.09,0-.22.09-.28,0h0s0,0,0,0,0,0,0,0l.13,0Z"/><path class="cls-8" d="M3.2,1.44s0,0,0,0a2.32,2.32,0,0,1,.08.4,1.8,1.8,0,0,0,0-.31c0-.05-.06-.08,0-.11s0,0,0,0,0,0,0,0,0,0,0,0,0,0,0,0,0,0,0,0,0,0,0,0,0,0,0,0,0,0,0,0,0,.05,0,.08,0,0,0,0l0,0v0h0a0,0,0,0,1,0,0s0,0,0,0l0,0h0s0,0,.07,0,0,0,0,.05h0a0,0,0,0,0,0,0s0,0,0,0,0,0,0,0-.15,0-.17.12.08-.09.11-.14-.12.14-.15.22.19-.23.24-.13l-.06,0s0,0,0,0,0,0,0,0a0,0,0,0,1,0,0s0,0,0,.07h0s0,0,0,.05-.08,0-.14-.05,0,0,0,0a.7.7,0,0,0,.05.23.5.5,0,0,1-.24,0,.61.61,0,0,0,0-.24s0,.07,0,.09L3.13,2s0-.11.09-.14c-.09,0-.1.09-.14.09s0,0,0,0,0,0,0-.08.06,0,.11,0-.11,0-.13,0,0,0,0,0a0,0,0,0,1,0,0s0,0,0,0,0,0-.05,0l0,0s0,0,0,0,0,0,0,0H3s0,0,0,0,0,0,0,0,0,0,0,0l0-.06s.05,0,.06,0h0s0,0,0-.07,0,0,0,0l0,0s0,0,0,0a.05.05,0,0,1,0,0s0,0,0,0,0,0,0,0,0,0,0,0Zm.28.14c-.1,0-.11.15-.12.23A1,1,0,0,1,3.48,1.58Zm0,0h0c-.06,0-.07.17-.08.25A.86.86,0,0,1,3.43,1.55Zm.1.2h0s-.08.07-.1.09Zm-.12.09s.07,0,.1,0S3.4,1.83,3.41,1.85Zm0,0s.08,0,.1,0S3.41,1.84,3.39,1.87Zm-.1-.16v.07c0-.05,0-.19,0-.27h0A1.22,1.22,0,0,0,3.29,1.71Zm0,0v.06c0-.1,0-.19,0-.3S3.32,1.65,3.31,1.73ZM3.17,1.5c0,.09.06.19.09.28C3.25,1.67,3.24,1.55,3.17,1.5Zm.14.32c0-.08,0-.2.07-.3S3.34,1.72,3.32,1.82Zm-.18-.27c0,.09.09.15.12.24C3.22,1.71,3.23,1.58,3.14,1.55Zm.11.27c0-.09,0-.2-.15-.23A2.22,2.22,0,0,1,3.24,1.82Zm-.19-.16a1.05,1.05,0,0,1,.18.19C3.2,1.77,3.16,1.63,3.06,1.66Zm0,.06s.12.08.17.13S3.13,1.71,3.05,1.71Zm0,.07a.68.68,0,0,0,.16.06S3.11,1.74,3,1.78Zm0,0s.09,0,.12,0A.21.21,0,0,0,3.08,1.82Z"/><polygon class="cls-10" points="9.11 7.88 8.63 8.01 8.57 8.5 8.32 8.1 7.82 8.18 8.12 7.8 7.9 7.37 8.34 7.54 8.69 7.18 8.64 7.68 9.11 7.88"/><polygon class="cls-10" points="7.92 10 7.51 9.72 7.11 9.98 7.25 9.54 6.87 9.2 7.35 9.2 7.54 8.74 7.69 9.19 8.19 9.24 7.78 9.51 7.92 10"/><polygon class="cls-10" points="10.48 7.07 9.99 7.03 9.78 7.47 9.67 7.02 9.18 6.92 9.58 6.67 9.51 6.18 9.88 6.49 10.32 6.27 10.11 6.72 10.48 7.07"/><polygon class="cls-10" points="12.22 6.59 11.76 6.4 11.42 6.75 11.47 6.28 11.02 6.03 11.49 5.92 11.58 5.44 11.83 5.84 12.32 5.78 11.97 6.14 12.22 6.59"/><polygon class="cls-10" points="13.81 6.78 13.48 6.42 13.02 6.59 13.26 6.19 12.96 5.78 13.44 5.87 13.72 5.47 13.77 5.94 14.24 6.09 13.78 6.27 13.81 6.78"/><polygon class="cls-10" points="15.41 7.48 15.21 7.03 14.72 7.05 15.07 6.74 14.92 6.26 15.34 6.5 15.73 6.2 15.63 6.67 16.04 6.96 15.54 6.99 15.41 7.48"/><polygon class="cls-10" points="17.45 8.16 16.96 8.1 16.72 8.53 16.64 8.06 16.15 7.94 16.57 7.71 16.53 7.22 16.87 7.55 17.33 7.36 17.09 7.79 17.45 8.16"/><polygon class="cls-10" points="18.1 10.04 17.7 9.75 17.29 10.02 17.43 9.57 17.05 9.23 17.54 9.23 17.73 8.77 17.88 9.22 18.37 9.27 17.96 9.54 18.1 10.04"/></g></g></svg>