<svg xmlns="http://www.w3.org/2000/svg" viewBox="0 0 26.83 15.92"><defs><style>.cls-1{fill:#006c35;}.cls-2{fill:#fff;}</style></defs><title>flag_682</title><g id="レイヤー_2" data-name="レイヤー 2"><g id="flag"><rect class="cls-1" width="26.83" height="15.92"/><path class="cls-2" d="M11.83,3.75l-.06,0a.42.42,0,0,0-.18.3c0,.08,0,.08,0,.13s.07,0,.15,0a.16.16,0,0,0,.07-.1c0-.09-.09,0-.11-.06s0-.13.11-.22,0-.08,0-.08Zm1.08,0s0,0-.08.09a.4.4,0,0,0-.06.38,1.12,1.12,0,0,1,.06.59,1.13,1.13,0,0,1-.11.16.19.19,0,0,1-.24,0,.26.26,0,0,1-.14-.2,2.77,2.77,0,0,0,0-.65.12.12,0,0,0-.2,0,1.49,1.49,0,0,0-.36.73c-.06.18-.11.13-.16.05s-.11-.83-.23-.71c-.19.56.11,1.16.32,1.1s.25-.23.31-.55c0-.09.08-.1.1-.05,0,.42,0,.52.14.65a.35.35,0,0,0,.46,0l.19-.19a.11.11,0,0,1,.16,0c.06.05.05.14.17.21a.38.38,0,0,0,.38-.08c.07-.12.09-.16.12-.21s.13,0,.13,0-.06.07,0,.14.07,0,.11,0,.22-.33.22-.33-.05-.09-.09-.07l-.1.07c-.06,0-.18,0-.23,0a3.55,3.55,0,0,1-.1-.37s-.08-.17,0-.18.12,0,.13,0-.08-.25-.17-.34a.18.18,0,0,0-.27,0c-.07.06-.06.13-.07.2a.31.31,0,0,0,.06.27.82.82,0,0,1,.15.54.22.22,0,0,1-.2.1c-.05,0-.14,0-.18-.37s0-.61-.1-.77,0-.12-.08-.12Zm-.34,0s-.07,0-.1.11a1.84,1.84,0,0,0-.05.35c0,.09.09.12.14,0a1.06,1.06,0,0,0,.08-.38c0-.07,0-.1-.07-.09Zm1.27,0s-.06,0-.07.07a.76.76,0,0,0,0,.27,1,1,0,0,0,.15.23c.22.3.43.59.64.9,0,.23.06.45.07.67a13.55,13.55,0,0,1,0,1.61c.09,0,.24-.15.29-.37a10.71,10.71,0,0,0,0-1.11c0-.07,0-.16,0-.26.24.39.47.8.69,1.25.08,0,.06-.5,0-.57-.18-.39-.43-.77-.51-.92l-.24-.37c0-.25,0-.45-.06-.52,0-.26.11,0,.09-.12a1.66,1.66,0,0,0-.36-.67c-.05-.08-.05-.09-.14,0a.49.49,0,0,0,0,.3l-.09-.12L14,3.87a.3.3,0,0,0-.17-.06Zm3.76,0s0,0-.05,0a.23.23,0,0,0-.08.17c0,.14,0,.28,0,.41v.05l0,0c-.27-.28.12,0-.05-.26a2.07,2.07,0,0,0-.31-.31c-.06,0-.1-.12-.12,0a2.6,2.6,0,0,0,0,.35.47.47,0,0,0,.1.22l.54.69c0,.49,0,.95.09,1.44,0,.21-.07.49-.13.52s-.09.05-.16,0a1.89,1.89,0,0,1-.23-.31.14.14,0,0,0-.22,0,3.08,3.08,0,0,0-.39.74c0,.05-.12.09-.22,0a1,1,0,0,1-.14-.72.8.8,0,0,0-.08.78.61.61,0,0,0,.28.32.2.2,0,0,0,.29,0c.13-.14.14-.49.2-.57a.12.12,0,0,1,.21,0,.51.51,0,0,0,.19.17.32.32,0,0,0,.42,0A.49.49,0,0,0,18,7.21a9.64,9.64,0,0,0,0-1.55l.28.41a10.09,10.09,0,0,1,0,1.27c0,.08.28-.24.28-.4s0-.26,0-.37c.14.23.28.46.41.69.08,0,.05-.5,0-.56-.14-.23-.31-.48-.45-.67s-.06-.53-.08-.61-.05-.34-.09-.5a1.71,1.71,0,0,1,0-.28s.08,0,.11-.05a1.81,1.81,0,0,0-.25-.71c0-.07-.1,0-.18.06s0,.23,0,.38c.07.39.14.78.19,1.18L17.88,5V4.94s0-.32,0-.39,0,0,0,0l.06,0s.06-.05,0-.1l-.31-.58,0,0Zm-9.7,0c-.06,0-.12,0-.1.1s.11.17.14.24,0,.21,0,.23.09-.11.11-.23,0-.29-.15-.33h0Zm11,0s0,0-.05.07a.69.69,0,0,0-.06.42,23.25,23.25,0,0,1,.27,2.75.89.89,0,0,1-.05.23,1.81,1.81,0,0,1-.26.31c-.09.07-.27.13-.33.18s-.19.24,0,.24a1,1,0,0,0,.8-.38,1.28,1.28,0,0,0,.13-.5,11.59,11.59,0,0,0-.15-2.43,1.21,1.21,0,0,1,0-.23s.11,0,.14,0-.23-.4-.32-.55,0-.07,0-.07Zm-2.81,0-.06.06a1.31,1.31,0,0,0-.07.6,13,13,0,0,1,.36,2.88c.09,0,.2-.21.24-.42a3.53,3.53,0,0,0,0-.63c0-.17-.19-1.53-.23-1.66s.18,0,.15-.17-.27-.43-.33-.59,0-.08,0-.08Zm-6.85,0a.07.07,0,0,0-.05.06s0,.06,0,.07S9.17,4,9.17,4a.1.1,0,0,0,0,0h0s0,0,0,0a.17.17,0,0,0,0,0s0,0,0,0H9S9,4,9,4a.16.16,0,0,0,0-.05l0,0c-.07,0-.08.08-.07.11s0,.15.09.19.38,0,.37-.18c0,0,0-.08,0-.1a.06.06,0,0,0-.06,0Zm1.76,0a.29.29,0,0,0-.12,0,.23.23,0,0,0,0,.3c.07,0,.13.1.09.14-.19.2-.68.54-.7.6h0a1.39,1.39,0,0,0,.37,0h0a5.16,5.16,0,0,0,.61-.61l-.08-.06s0,0,0-.07a.2.2,0,0,0,0-.3.32.32,0,0,0-.15,0Zm4.59,0s0,0-.05.07a.84.84,0,0,0-.09.42c.13.89.17,1.66.25,2.55a.35.35,0,0,1-.06.26,2.5,2.5,0,0,1-.85.62s.09.21.25.21a.94.94,0,0,0,.72-.58A1,1,0,0,0,16,7a9.69,9.69,0,0,0-.18-2.25.37.37,0,0,1,0-.16s.08,0,.11-.05-.12-.43-.22-.58,0-.07,0-.07Zm-7.12,0A.12.12,0,0,0,8.43,4a2.57,2.57,0,0,0,0,.42,4.54,4.54,0,0,1,.12.67c0,.32-.18.14-.17,0a1.42,1.42,0,0,0,0-.6c0-.08-.07-.1-.14-.09S8,4.53,8,4.81a2.62,2.62,0,0,0-.05.27c0,.14-.12.25-.18,0s-.09-.67-.19-.56c0,.37-.06,1,.26,1.09s.17-.65.31-.77.07-.06.08,0v.58a.28.28,0,0,0,.22.28c.1,0,.17,0,.21.09l0,1s.23.07.24-.56a5.9,5.9,0,0,1,0-.75c0-.07.09-.07.16,0s.14.16.3.12.38-.18.38-.36a1.57,1.57,0,0,0-.11-.52s0-.11,0-.14.11.06.12,0a.52.52,0,0,0-.2-.31c-.08-.07-.21-.06-.25.1a.84.84,0,0,0,.19.56.55.55,0,0,1,0,.28.15.15,0,0,1-.19,0S9.11,5,9.11,4.95a.67.67,0,0,0,0-.44A.6.6,0,0,0,9,4.26s-.11,0-.14,0a.84.84,0,0,0,0,.59c0,.13.11.21.08.21s-.08.06-.12,0a2.07,2.07,0,0,1-.07-.54c0-.14,0-.45-.13-.53a.09.09,0,0,0-.08,0Zm1.34,0-.06,0a.19.19,0,0,0-.13.23c.1.58.16,1,.25,1.61,0,.07,0,.16-.12.15s-.16-.26-.37-.25A.42.42,0,0,0,9.08,6a.81.81,0,0,0,0,.38.31.31,0,0,0,.35.09c.09,0,.17-.13.21-.11h0s0,.34-.44.57c-.27.12-.49.15-.6-.07s0-.67-.17-.54c-.52,1.35,1.23,1.54,1.43.06,0,0,.05-.08.08-.07s0,0,0,.05c0,1.35-1.36,1.44-1.58,1a1.3,1.3,0,0,1-.08-.45.23.23,0,0,0-.05-.15c-.05,0-.13.06-.14.25a1.63,1.63,0,0,0,0,.33c.07,1.06,1.76.61,2-.27a2.92,2.92,0,0,0,0-.84h0c.17.18.4,0,.46,0a.08.08,0,0,1,.12,0,.27.27,0,0,0,.41-.12,3.68,3.68,0,0,0,.06-.5.51.51,0,0,0-.18.08v0l0,.14h0s-.08,0-.09,0-.21-.21-.31.08c-.07.06-.19.07-.21,0s-.06-.22-.22-.13L10,4.61c.06,0,.12,0,.18,0a2.14,2.14,0,0,0-.28-.64H9.86Zm5.23,0C15,3.92,15,4,15,4s.14.2.17.29,0,.26,0,.27.11-.14.13-.28a.43.43,0,0,0-.17-.4h0ZM11,4.06a.1.1,0,0,1,.09.06s0,.08,0,.09S11,4.2,11,4.16s0-.08,0-.09Zm7.56.2a.1.1,0,0,0-.1.14s.13.22.15.31,0,.28,0,.3.1-.15.12-.3-.05-.38-.16-.44h0Zm-4.18.1v.08l0,.16-.11-.14c-.11-.13,0-.09.06-.1Zm1,.47a.07.07,0,0,0-.05.06s0,.06,0,.07-.05,0-.05-.05a.1.1,0,0,0,0-.05h0s0,0,0,0a.18.18,0,0,0,0,0s0,0,0,0h0s0,0,0,0a.16.16,0,0,0,0-.05l0,0C15,4.85,15,4.93,15,5s0,.15.09.19.38,0,.37-.18c0,0,0-.08,0-.1a.06.06,0,0,0-.06,0Zm-4.4,0-.06,0a.27.27,0,0,0-.09.36.17.17,0,0,0,.19.06c.11,0,.18-.21.18-.21s0-.06-.13.06-.06,0-.08,0a.28.28,0,0,1,0-.18s0-.06,0-.06Zm6.22,0A.15.15,0,0,0,17,5c0,.05,0,.08,0,.13s0,0-.1,0,0-.08,0-.08-.12,0-.17,0a.25.25,0,0,0,0,.2c.07.14.33.37.45.37s0-.29,0-.39,0-.08,0-.09.1,0,.1,0A.53.53,0,0,0,17.28,5a.12.12,0,0,0-.1-.05ZM12,5.34h0L12,5.4c-.06.06-.07.11-.06.24s.11.31.2.51a1.58,1.58,0,0,1,.07.69,1.69,1.69,0,0,1-.69.73.36.36,0,0,1-.29,0h0a.18.18,0,0,1-.08-.17h0a1.64,1.64,0,0,0,.7-.72.74.74,0,0,0,0-.52.49.49,0,0,0-.12-.24h0s.14.06.16,0a.76.76,0,0,0-.2-.37.17.17,0,0,0-.25,0c-.08,0-.1.22-.06.36s.17.13.25.35h0s0,.17,0,.23a2.74,2.74,0,0,1-.52.49h0s0,0,0-.07,0-.22,0-.25h0c-.15.1-.2.4-.23.48a7.15,7.15,0,0,0-1.06.73c-.13.2.9-.23,1-.29h0s0,.11.09.19a.54.54,0,0,0,.55.18,1.76,1.76,0,0,0,.8-.66s.08-.08.12,0a1.25,1.25,0,0,0,1.13.6c.13-.16.07-.23,0-.27s-.28-.11-.32-.21,0-.18.16-.24a5.57,5.57,0,0,0,1-.2.92.92,0,0,1,.12-.36.17.17,0,0,1,.06-.06h0l-.06,0H13.4l0,0h0l0,0c.27,0,.75-.12.79-.58a.38.38,0,1,0-.75,0c0,.06,0,.19,0,.2-.42,0-.87.3-.89.49h0a.11.11,0,0,1-.06-.12,2.24,2.24,0,0,0-.29-1c-.06-.06-.08-.08-.1-.09h0Zm1.09.17a.07.07,0,0,0-.05.06s0,.06,0,.07-.05,0-.05-.05a.1.1,0,0,0,0-.05h0s0,0,0,0a.18.18,0,0,0,0,0s0,0,0,0h0s0,0,0,0a.17.17,0,0,0,0-.05l0,0c-.07,0-.08.08-.07.11s0,.15.09.19.44,0,.37-.18c0,0,0-.08,0-.1a.06.06,0,0,0-.06,0Zm4.39.18h0l-.62.45c-.06.05,0,.24,0,.22a2.42,2.42,0,0,0,.64-.45s0-.21,0-.22Zm-3.82.06.09,0s.07.07.07.09h0a.11.11,0,0,1-.12,0,.12.12,0,0,1-.07-.09h0Zm-5.32.11a1,1,0,0,0-.79.64l1-.48c-.05-.08,0-.15-.21-.16ZM9.4,6a.09.09,0,0,1,.08.06.1.1,0,0,1,0,.1h0s-.06,0-.09,0a.09.09,0,0,1-.08,0s0-.07,0-.1h0l.05,0h0Zm8,.13a.11.11,0,0,0-.08.14s.08.22.1.32,0,.25,0,.27.15-.11.14-.28,0-.4-.14-.45h0Zm-6.79.31s-.09,0-.07.1.14.11.15.23,0,.2,0,.22.09-.11.11-.22,0-.28-.15-.32h0Zm2,.28h0a3.52,3.52,0,0,0,.48.05c.13,0,.2.11.07.16S13,7,13,7.18a.24.24,0,0,1,0,.15h0s-.07,0-.1,0a.65.65,0,0,1-.32-.47.12.12,0,0,1,.12-.12Zm-5,.22,0,.05a1,1,0,0,0-.1.88.22.22,0,0,0,.21.07.39.39,0,0,0,.14-.38c0-.06-.07-.07-.11,0s-.12.05-.12,0a2.16,2.16,0,0,1,0-.47c0-.07,0-.09,0-.09Zm6.38.39h0a.79.79,0,0,0-.18.15s0,0,0,.07.06,0,.1,0,.08,0,.07.09a.12.12,0,0,0,0,.11.09.09,0,0,0,.11,0,2.11,2.11,0,0,1,.38-.13s0-.13,0-.13a.44.44,0,0,0-.28.09c-.06,0-.07,0-.08-.05s0-.14,0-.2a.14.14,0,0,0-.07,0Zm4.08.15H18s-.05,0-.06.07,0,.07.09.1a.08.08,0,0,1,0,.12l-.12.1s0,.09,0,.1.38-.14.38-.14a.08.08,0,0,0,0-.09s-.08,0-.12,0-.08,0,0-.06a.35.35,0,0,0,0-.09s0-.07-.06-.09h-.08Zm-1.71,3.45h0a.18.18,0,0,0-.06.33c-2,0-5.05,0-5.71,0-.37,0-1.53,0-1.55,0a1.18,1.18,0,0,0,1.08.45h6.16a.41.41,0,0,0,.07.43h0c.08,0,.11,0,.14-.08a8,8,0,0,0,.9,0h0c0,.06.09.13.17.11s.26,0,.26-.34c0,0,0-.5-.35-.47l-.3,0c-.25,0-.44,0-.73,0,0,0,.07-.17,0-.22l-.07,0h0s0-.07,0-.09h0Zm.14.72h0l.86,0a.11.11,0,0,1,0,.15h-.26c0-.07-.18-.06-.22,0h0a2.28,2.28,0,0,1-.37,0s0-.13,0-.15Z"/></g></g></svg>