<svg xmlns="http://www.w3.org/2000/svg" xmlns:xlink="http://www.w3.org/1999/xlink" viewBox="0 0 26.94 17.96"><defs><style>.cls-1{fill:none;}.cls-2{clip-path:url(#clip-path);}.cls-3{fill:#00267f;}.cls-4{fill:#ffc726;}</style><clipPath id="clip-path"><rect class="cls-1" y="1.01" width="26.89" height="15.9"/></clipPath></defs><title>flag_052</title><g id="レイヤー_2" data-name="レイヤー 2"><g id="flag"><g class="cls-2"><rect class="cls-3" width="26.94" height="17.96"/><rect class="cls-4" x="8.98" width="8.98" height="17.96"/><path id="h" d="M13.47,4.63a5.93,5.93,0,0,1-1.22,2.26A2.69,2.69,0,0,1,13,6.77v3.35l-.94.14S12,10.2,12,10.13a12.48,12.48,0,0,0-.62-2.82c0-.12-.38-.59-.1-.51,0,0,.4.16.34.09a3.48,3.48,0,0,0-2-1c-.06,0-.1,0,0,.09a9.41,9.41,0,0,1,1.73,5.22c.37,0,1.26-.22,1.63-.22v2.36h.47l.1-6.59Z"/><path d="M13.47,4.63A5.82,5.82,0,0,0,14.7,6.89a2.82,2.82,0,0,0-.77-.12v3.35l1,.14s0-.06,0-.13a13.05,13.05,0,0,1,.62-2.82c0-.12.38-.59.1-.51,0,0-.4.16-.34.09a3.51,3.51,0,0,1,1.95-1c.07,0,.1,0,.05.09a9.5,9.5,0,0,0-1.74,5.22c-.37,0-1.26-.22-1.63-.22v2.36h-.46l-.11-6.59Z"/></g></g></g></svg>