<svg xmlns="http://www.w3.org/2000/svg" viewBox="0 0 26.89 15.98"><defs><style>.cls-1{fill:#c8313e;}.cls-2{fill:#4aa657;}.cls-3{fill:#fdfefd;}.cls-4{fill:#d2141d;}</style></defs><title>flag_112</title><g id="レイヤー_2" data-name="レイヤー 2"><g id="flag"><rect class="cls-1" x="0.04" width="26.86" height="15.9"/><rect class="cls-2" x="5.04" y="10.35" width="21.85" height="5.53"/><rect class="cls-3" y="0.02" width="4" height="15.89"/><rect class="cls-3" x="4.61" y="0.14" width="0.49" height="15.68"/><path class="cls-4" d="M3,0H2.56L2.07.86,1.58.07,1.09.1.53,1l0,.21.83,1.34L2,1.39l.76,1.24.74-1.36,0-.23ZM1.34,1.8l-.4-.62.4-.67.42.62Zm1.43,0-.4-.62.4-.67.42.62Z"/><rect class="cls-4" x="1.27" y="0.99" width="0.13" height="0.3"/><rect class="cls-4" x="2.7" y="1.01" width="0.13" height="0.3"/><path class="cls-4" d="M.91,2.61l-.34.55.36.55.31-.57Zm-.09.68V3H1v.3Z"/><polygon class="cls-4" points="1.16 6.24 0.53 5.09 1.33 3.73 2.05 5.07 2.79 3.8 3.52 5.04 2.9 6.24 2.65 5.62 2.92 5.09 2.61 5.11 2.23 5.8 2.81 7.28 3.52 6.2 3.52 6.82 2.85 7.95 2.03 6.15 1.22 7.95 0.57 6.89 0.6 6.24 1.22 7.21 1.87 5.83 1.45 5.09 1.2 5.07 1.49 5.58 1.16 6.24"/><polygon class="cls-4" points="1.87 7.3 2.05 7.62 2.32 7.28 2.34 7.74 2.14 8.02 2.3 8.43 2.27 8.78 2.05 8.45 1.82 8.73 1.8 8.36 1.98 8.02 1.8 7.67 1.87 7.3"/><rect class="cls-4" x="0.55" y="0.11" width="0.13" height="0.3"/><rect class="cls-4" x="1.98" y="0.08" width="0.13" height="0.3"/><rect class="cls-4" x="3.46" y="0.08" width="0.13" height="0.3"/><rect class="cls-4" x="0.53" y="2.06" width="0.13" height="0.3"/><rect class="cls-4" x="1.96" y="2.04" width="0.13" height="0.3"/><rect class="cls-4" x="3.43" y="2.04" width="0.13" height="0.3"/><rect class="cls-4" x="0.53" y="3.93" width="0.13" height="0.3"/><rect class="cls-4" x="1.96" y="3.91" width="0.13" height="0.3"/><rect class="cls-4" x="3.43" y="3.91" width="0.13" height="0.3"/><rect class="cls-4" x="0.55" y="5.61" width="0.13" height="0.3"/><rect class="cls-4" x="3.46" y="5.59" width="0.13" height="0.3"/><rect class="cls-4" x="2" y="6.78" width="0.13" height="0.47"/><path class="cls-4" d="M2.07,3.09l0,0-.31-.49-.33.55.36.55.29-.54Zm-.2.2H1.74V3h.13Z"/><path class="cls-4" d="M3.25,2.56l-.33.55.36.55.31-.57Zm0,.73V3h.13v.3Z"/><polygon class="cls-4" points="1.16 9.86 0.53 11.01 1.33 12.37 2.05 11.03 2.79 12.3 3.52 11.05 2.9 9.86 2.65 10.48 2.92 11.01 2.61 10.98 2.23 10.29 2.81 8.82 3.52 9.9 3.52 9.28 2.85 8.15 2.03 9.95 1.22 8.15 0.57 9.21 0.6 9.86 1.22 8.89 1.87 10.27 1.45 11.01 1.2 11.03 1.49 10.53 1.16 9.86"/><rect class="cls-4" x="0.53" y="7.87" width="0.13" height="0.3"/><rect class="cls-4" x="1.58" y="7.89" width="0.13" height="0.3"/><rect class="cls-4" x="2.38" y="7.89" width="0.13" height="0.3"/><rect class="cls-4" x="3.43" y="7.87" width="0.13" height="0.3"/><path class="cls-4" d="M.93,12.34.6,12.9l.36.55.31-.58ZM.84,13v-.3H1V13Z"/><path class="cls-4" d="M2.09,12.83l0,0L1.8,12.3l-.33.55.36.55.29-.54Zm-.2.2H1.76v-.3h.13Z"/><path class="cls-4" d="M3.28,12.3l-.34.55.36.55.31-.58Zm0,.73v-.3h.13V13Z"/><path class="cls-4" d="M3.5,14.76,2.76,13.4,2,14.65l-.69-1.2L.49,14.78l0,.21.56.94.49,0,.49-.78.49.81H3l.51-1Zm-2.19.76-.4-.67.4-.62.42.67Zm1.43,0-.4-.67.4-.62.42.67Z"/><rect class="cls-4" x="1.25" y="14.74" width="0.13" height="0.3"/><rect class="cls-4" x="2.67" y="14.73" width="0.13" height="0.3"/><rect class="cls-4" x="0.51" y="11.8" width="0.14" height="0.3"/><rect class="cls-4" x="1.94" y="11.78" width="0.13" height="0.3"/><rect class="cls-4" x="3.41" y="11.78" width="0.13" height="0.3"/><rect class="cls-4" x="0.53" y="10.14" width="0.13" height="0.3"/><rect class="cls-4" x="3.43" y="10.14" width="0.13" height="0.3"/><rect class="cls-4" x="0.55" y="13.74" width="0.13" height="0.3"/><rect class="cls-4" x="1.98" y="13.71" width="0.13" height="0.3"/><rect class="cls-4" x="3.46" y="13.71" width="0.13" height="0.3"/><rect class="cls-4" x="0.58" y="15.65" width="0.13" height="0.3"/><rect class="cls-4" x="2" y="15.62" width="0.13" height="0.3"/><rect class="cls-4" x="3.48" y="15.62" width="0.13" height="0.3"/></g></g></svg>