<svg xmlns="http://www.w3.org/2000/svg" viewBox="0 0 26.94 15.9"><defs><style>.cls-1{fill:#060203;}.cls-2{fill:#e71e18;}.cls-3{fill:#fdfefd;}.cls-4{fill:#177e3b;}</style></defs><title>flag_368</title><g id="レイヤー_2" data-name="レイヤー 2"><g id="flag"><rect class="cls-1" width="26.94" height="15.9"/><rect class="cls-2" y="0.02" width="26.94" height="5.04"/><rect class="cls-3" y="5.06" width="26.94" height="5.66"/><path class="cls-4" d="M7.5,9s.58,1.15-.52.84c0,0,.85.81,1-.32l4.33,0,0-1.55a.7.7,0,0,0-.48-.22,1.18,1.18,0,0,0-.58.42l0,.2-1.47,0L11.08,6.4h.1L11,5.84,8.95,8.68l2.64,0,0-.6s.16-.16.24,0v.77l-3,0,0-.66s-.2.42-.5.46L8.46,9,8,9l-.2-.44S7.6,8.94,7.5,9Z"/><path class="cls-4" d="M12.65,6.79l0,2.67h1l0-.44s-.26-.44-.54,0V7.33l.1-.08Z"/><path class="cls-4" d="M18.14,6.73l.44.48-.1.08V8.76A.38.38,0,0,0,19,8.7v.72l-1,0Z"/><path class="cls-4" d="M17.74,6.08l-.54.54,0,2.25-.2,0V6.77l-.5.42.1.12V8.92h-.34V7.41l-.48.46.08.06,0,.44s-.14-.1-.48.12-.22.95-.22.95l2.64,0ZM15.89,9l-.2,0a.28.28,0,0,1,.2-.16Z"/><path class="cls-4" d="M16,6.62s.4.08.5-.14c0,0,.42.12.46-.22,0,0,.16.34-.44.34C16.57,6.61,16.23,6.85,16,6.62Z"/><path class="cls-4" d="M16.23,5.84a.64.64,0,0,0,.18.46A.57.57,0,0,0,16.23,5.84Z"/><ellipse class="cls-4" cx="8.27" cy="9.72" rx="0.13" ry="0.14"/></g></g></svg>