<svg xmlns="http://www.w3.org/2000/svg" viewBox="0 0 26.54 15.89"><defs><style>.cls-1{fill:#c8102e;}.cls-2{fill:#012169;}.cls-3{fill:#fff;}.cls-4{fill:#2f8f22;}.cls-5{fill:#64b4d1;}.cls-6{fill:#784421;}.cls-7{fill:#f5ce00;}.cls-8{fill:#e4cb5e;}</style></defs><title>flag_060</title><g id="レイヤー_2" data-name="レイヤー 2"><g id="flag"><g id="レイヤー_6" data-name="レイヤー 6"><rect class="cls-1" width="26.54" height="15.89"/><rect class="cls-2" width="14.66" height="7.33"/><path class="cls-3" d="M0,0V.82L13,7.33h1.64V6.51L1.64,0ZM14.66,0V.82l-13,6.51H0V6.51L13,0Z"/><path class="cls-3" d="M6.11,0V7.33H8.55V0ZM0,2.44V4.89H14.66V2.44Z"/><path class="cls-1" d="M0,2.93V4.4H14.66V2.93ZM6.6,0V7.33H8.06V0Z"/><path class="cls-1" d="M0,7.33,4.89,4.89H6L1.09,7.33ZM0,0,4.89,2.44H3.79L0,.55ZM8.68,2.44,13.56,0h1.1L9.77,2.44Zm6,4.89L9.77,4.89h1.09l3.8,1.89Z"/><path class="cls-3" d="M25.37,3.13v6.2c0,1.66-3.32,2.2-3.32,2.2s-3.31-.54-3.31-2.2V3.13Z"/><path class="cls-4" d="M25.37,9.33c0,1.66-3.32,2.2-3.32,2.2s-3.31-.54-3.31-2.2a.41.41,0,0,1,.06-.21.65.65,0,0,0,.18.49A.63.63,0,0,1,19,9a.73.73,0,0,0,.17.59.89.89,0,0,1,0-.64s-.07.55.19.66a1,1,0,0,0,0-.52s.18.07.17.53a1,1,0,0,0,.07-.4s0,.38.14.47,0,0,0-.21,0-.24,0-.23a.39.39,0,0,0,.13.33s-.07-.3,0-.34,0,.26.18.31a.28.28,0,0,0,0-.15.29.29,0,0,1,0-.18s.06.23.15.27a.43.43,0,0,1,0-.27.32.32,0,0,0,.18.27.4.4,0,0,1-.07-.31l1.11.06.57,0,1.71-.12.3-.25s.12.16-.07.42c0,0,.18,0,.24-.32a.35.35,0,0,1,0,.33.86.86,0,0,0,.24-.43.53.53,0,0,1-.12.46.47.47,0,0,0,.25-.31s.06.15-.11.37a.6.6,0,0,0,.3-.51.43.43,0,0,1,0,.45A.59.59,0,0,0,24.82,9s.08.09,0,.35A.79.79,0,0,0,25,9a.58.58,0,0,1-.12.42s.11,0,.22-.25c0,0,0,.08-.07.25,0,0,.11,0,.18-.23a.75.75,0,0,1,0,.23s.08-.05.1-.28a.57.57,0,0,1,.05.17Z"/><path class="cls-1" d="M23.66,5.75a.81.81,0,0,1-.26,0c-.15,0-.21,0-.26,0a.16.16,0,0,0-.08-.21s0,.12,0,.17,0,0-.07,0l-.1-.09a.16.16,0,0,0,.1-.17c0-.13-.09-.15-.13-.16s0,.06,0,.09-.13-.07.05-.18S23,5,23,4.94a.37.37,0,0,0-.14-.14.18.18,0,0,1,0,.11s-.09.08-.07,0a.45.45,0,0,0,0-.16.18.18,0,0,0,.23-.1s.07-.17-.14-.25c0,0,.05.07,0,.12s0,.08-.09,0-.09-.08-.08-.16.19,0,.14-.17c0,0,0,.13-.28-.05,0,0,.16-.16.1-.29s0-.06-.19,0c0,0,.15-.09.08-.17s0-.06-.17,0,.06-.09-.08-.19l-.14.09a1.56,1.56,0,0,0-.15-.16.24.24,0,0,0-.14.16.28.28,0,0,0-.16-.08.17.17,0,0,0,0,.19l-.15,0s-.11-.05-.1,0a.49.49,0,0,0,.05.16s-.25,0-.24.08a.35.35,0,0,0,.12.24s-.14.18-.26.05,0,0,.05.16.09.09,0,.16-.1.07-.15-.08a.17.17,0,0,0,0,.28.21.21,0,0,0,.24,0s0,.3-.15.25-.07,0,.05-.12a.19.19,0,0,0-.21.16.18.18,0,0,0,.14.19s.12,0,0,.14a.12.12,0,0,0,0,.17s.07.11-.11.12a.4.4,0,0,1-.13,0,.22.22,0,0,0,0,.16s-.09-.07-.29,0-.19,0-.2,0a.64.64,0,0,0-.06.1L20.5,6l0,.15.05,0L21,6l.42-.22.34,0,.21,0,.29,0,.2-.1h.29l.32.16.37.22.19,0h.15v-.3Z"/><path d="M20.53,6.18h0l-.06,0h0a.46.46,0,0,1,0-.14,1.18,1.18,0,0,1-.11-.13h0l.06-.1h0s.05,0,.19,0a.32.32,0,0,1,.27,0,.27.27,0,0,1,0-.14h0l.12,0c.06,0,.1,0,.11-.05s0-.06,0-.06a.13.13,0,0,1,0-.18.15.15,0,0,0,.05-.08s-.05,0-.05,0A.19.19,0,0,1,21.08,5a.2.2,0,0,1,.22-.16h0c-.06,0-.07.05-.07.07v0h.05a.4.4,0,0,0,.08-.21.23.23,0,0,1-.23,0c-.06,0-.09-.08-.09-.13a.28.28,0,0,1,.06-.17h0a.18.18,0,0,0,.06.08.09.09,0,0,0,.07,0s0,0,0,0a.13.13,0,0,0,0-.1c-.09-.12-.05-.17-.05-.17h0s.06.05.09,0a.21.21,0,0,0,.14-.08.34.34,0,0,1-.11-.24.09.09,0,0,1,0-.07.28.28,0,0,1,.2,0,.39.39,0,0,1,0-.14.08.08,0,0,1,0-.07s.08,0,.09,0l.12,0a.2.2,0,0,1,0-.18,0,0,0,0,1,0,0,.46.46,0,0,1,.16.08.24.24,0,0,1,.13-.15h0a.94.94,0,0,1,.14.16.42.42,0,0,1,.14-.09h0c.1.07.1.14.09.18s.16,0,.16,0a.07.07,0,0,1,0,.06.18.18,0,0,1-.07.1c.14,0,.16,0,.16,0s-.06.26-.09.3c.12.08.18.09.21.08a0,0,0,0,0,0,0h0a.21.21,0,0,1,0,.16.16.16,0,0,1-.12,0s0,.06.05.1l0,0,0,0s0,0,0,0,0-.1,0-.1v0h0a.2.2,0,0,1,.15.26.18.18,0,0,1-.22.12v0s0,0,0,.1v0h0a0,0,0,0,0,0,0,.23.23,0,0,0,0-.1v0h0a.62.62,0,0,1,.14.14A.16.16,0,0,1,23,5s-.05.09-.14.14-.09.07-.09.1a0,0,0,0,0,0,.05.35.35,0,0,0,0-.07h0A.18.18,0,0,1,23,5.4a.16.16,0,0,1-.09.18l.09.08,0,0h0a.13.13,0,0,0,0-.16h0a.18.18,0,0,1,.1.2c.05,0,.12,0,.24,0a.65.65,0,0,0,.26,0h0l.07.11h0v.3h-.16l-.19,0h0L23,5.92l-.32-.16h-.29l-.2.1h0l-.28,0-.22,0-.33,0L21,6l-.41.19Zm0,0,0,0L20.94,6l.42-.22h0l.34,0,.22.05.27,0,.2-.11h.31l.32.16.37.22.19,0h.13V5.86l-.07-.1a.74.74,0,0,1-.26,0c-.15,0-.2,0-.24,0h0v0a.13.13,0,0,0-.05-.17.17.17,0,0,1,0,.15s0,0,0,0l-.05,0h0l-.1-.09v0h0a.13.13,0,0,0,.1-.15c0-.1-.07-.13-.1-.14a.25.25,0,0,1,0,.08h0s-.06,0-.06-.08,0-.08.11-.12S23,5.06,23,5a.09.09,0,0,0,0-.08.47.47,0,0,0-.1-.1.09.09,0,0,1,0,.07.07.07,0,0,1,0,.06h0s0,0,0-.06a.26.26,0,0,0,0-.09.35.35,0,0,1,0-.07h0a.17.17,0,0,0,.21-.1.17.17,0,0,0-.1-.21.13.13,0,0,1,0,.09s0,0-.07,0,0,0-.05,0l0,0a.12.12,0,0,1-.05-.13h0a.14.14,0,0,0,.11,0,.11.11,0,0,0,0-.1l0,0c-.05,0-.14,0-.25-.09h0s.15-.16.1-.28,0-.05-.18,0h0a0,0,0,0,1,0,0s.09-.05.1-.11,0,0,0,0,0-.05-.15,0h0s.05-.08-.07-.17l-.13.08h0l-.14-.16a.21.21,0,0,0-.12.16h0s0,0,0,0a.29.29,0,0,0-.14-.08.16.16,0,0,0,0,.17h0a.36.36,0,0,1-.16-.05s-.05,0-.07,0a.06.06,0,0,0,0,0,.49.49,0,0,0,.05.16h0s-.15,0-.21,0a.08.08,0,0,0,0,0,.35.35,0,0,0,.12.23v0s-.08.1-.16.1a.13.13,0,0,1-.1,0s0,.06.05.13a.18.18,0,0,1,.05.11.09.09,0,0,1,0,.06.06.06,0,0,1-.08,0,.1.1,0,0,1-.07-.07.15.15,0,0,0-.05.12.15.15,0,0,0,.09.12.19.19,0,0,0,.22,0h0s0,.22-.1.26a.09.09,0,0,1-.07,0,.07.07,0,0,1,0,0s0,0,.05-.06A.16.16,0,0,0,21.1,5a.17.17,0,0,0,.13.18s.06,0,.06.06,0,.06-.06.1a.12.12,0,0,0,0,.15.08.08,0,0,1,0,.08s-.06.06-.13.06H21a.2.2,0,0,0,0,.14h0s-.08-.06-.28,0a.4.4,0,0,1-.19,0h0a.41.41,0,0,0-.05.09l.1.11Z"/><path class="cls-1" d="M20.31,6.09s.16.09.23,0a.15.15,0,0,0-.1-.23.18.18,0,0,0,0-.24.15.15,0,0,0-.16,0,.16.16,0,0,0-.15-.08A.12.12,0,0,0,20,5.6s-.12,0-.19,0a.15.15,0,0,0,0,.23H20l.11-.05.13,0A.25.25,0,0,0,20.31,6.09Z"/><path d="M20.44,6.14a.19.19,0,0,1-.13,0h0a.33.33,0,0,1-.11-.25l-.11,0-.1,0h-.12a.17.17,0,0,1-.09-.12.15.15,0,0,1,0-.12.17.17,0,0,1,.19,0,.13.13,0,0,1,.12-.1.16.16,0,0,1,.15.09.16.16,0,0,1,.18.26.17.17,0,0,1,.11.09.2.2,0,0,1,0,.15A.14.14,0,0,1,20.44,6.14Zm-.12-.06s.15.07.21,0h0a.21.21,0,0,0,0-.13.2.2,0,0,0-.11-.08h0a.17.17,0,0,0,0-.22.14.14,0,0,0-.15,0s0,0,0,0a.17.17,0,0,0-.14-.08.11.11,0,0,0-.1.09h0s-.11,0-.17,0a.2.2,0,0,0,0,.11.14.14,0,0,0,.08.09H20l.11,0h0l.12,0h0S20.19,6,20.32,6.08Z"/><path class="cls-5" d="M23.9,5.8a.25.25,0,0,1,.26.14.3.3,0,0,1-.11.37l0,.12c.3,0,.25.38.25.38l-.1-.08c-.18-.07-.36.08-.49.33s-.07.37-.05.66.51.48.51.48l-.38,1a.32.32,0,0,1-.54.14c-.09-.08-.12,0-.16,0s.2.23-.25.42a1.79,1.79,0,0,0-.6.36.65.65,0,0,1-.42,0s0,0-.13-.11-.32-.14-.53-.24S21,9.47,21,9.44s.08-.25-.18-.07a.34.34,0,0,1-.46-.09,6.54,6.54,0,0,1-.26-.62,4.32,4.32,0,0,0-.17-.46s0,0,.17-.08a.82.82,0,0,0,.34-.46,1.14,1.14,0,0,0,0-.54c0-.06-.17-.34-.34-.4a.3.3,0,0,0-.29.09s-.05-.34.25-.38c0,0,0-.07,0-.12a.3.3,0,0,1-.11-.37.25.25,0,0,1,.26-.14l-.05.09s0,.48.67.16.69-.39,1.09-.18h.3s.43-.2.56-.11l.63.36s.48.18.57-.15Z"/><path d="M22.11,10.12a.69.69,0,0,1-.28,0v0L21.7,10a1.47,1.47,0,0,0-.25-.12l-.28-.12c-.2-.1-.21-.23-.21-.28v0s0-.09,0-.11-.06,0-.16.07a.36.36,0,0,1-.48-.09c-.05-.07-.25-.61-.26-.63a3.78,3.78,0,0,0-.17-.45h0l.16-.08a.8.8,0,0,0,.33-.45,1.11,1.11,0,0,0,0-.53c0-.07-.16-.34-.33-.4a.27.27,0,0,0-.28.09h0v0a.34.34,0,0,1,.06-.28.24.24,0,0,1,.19-.1.62.62,0,0,1,0-.12.3.3,0,0,1-.11-.37.26.26,0,0,1,.27-.15h0l-.06.1a.29.29,0,0,0,.09.22c.11.07.3,0,.56-.07l.28-.13c.44-.21.48-.23.82,0h.3s.43-.19.57-.11l.63.36a.62.62,0,0,0,.43,0A.23.23,0,0,0,23.94,6l-.05-.17h0a.26.26,0,0,1,.27.15.3.3,0,0,1-.11.37.62.62,0,0,1,0,.12.24.24,0,0,1,.19.1.42.42,0,0,1,.07.28v0l-.11-.09c-.16-.06-.33.06-.47.32a.69.69,0,0,0-.07.48,1.1,1.1,0,0,1,0,.18c0,.29.5.47.5.47h0l-.38,1a.37.37,0,0,1-.23.24.4.4,0,0,1-.33-.1c-.07-.06-.09,0-.13,0h0s0,0,0,0,.09.23-.26.37a1.87,1.87,0,0,0-.54.32l-.06.05A.31.31,0,0,1,22.11,10.12Zm-1.17-.83h0s0,.09,0,.13h0c0,.05,0,.17.2.26l.28.12a1.47,1.47,0,0,1,.25.12c.1.06.11.07.12.09l0,0a.65.65,0,0,0,.4,0l.06-.05a1.52,1.52,0,0,1,.55-.32c.33-.14.28-.27.25-.35s0,0,0-.06l0,0s.07-.06.15,0a.39.39,0,0,0,.31.09c.1,0,.17-.1.22-.23l.38-1c-.07,0-.48-.19-.5-.48a1.11,1.11,0,0,1,0-.17.66.66,0,0,1,.06-.49c.14-.28.33-.41.5-.34h0l.09.07a.39.39,0,0,0-.06-.25.24.24,0,0,0-.19-.1h0s0-.07,0-.12h0A.26.26,0,0,0,24.15,6a.23.23,0,0,0-.24-.14L24,6h0a.26.26,0,0,1-.13.17.68.68,0,0,1-.45,0l-.63-.36c-.13-.09-.55.11-.56.11h-.3c-.34-.17-.38-.15-.81.06l-.28.13c-.27.12-.47.14-.58.06a.23.23,0,0,1-.09-.23h0l0-.07a.24.24,0,0,0-.24.14A.27.27,0,0,0,20,6.3h0l0,.12h0a.29.29,0,0,0-.19.1.45.45,0,0,0-.06.25.26.26,0,0,1,.28-.07c.18,0,.32.33.34.4a1.1,1.1,0,0,1,0,.54.89.89,0,0,1-.34.47.5.5,0,0,1-.17.08,2.91,2.91,0,0,1,.17.44s.21.57.25.63a.35.35,0,0,0,.46.08A.25.25,0,0,1,20.94,9.29Z"/><path class="cls-3" d="M21.76,7.91l-.05-.25a.27.27,0,0,1,0-.26l.11-.13a.28.28,0,0,1,.15-.1s.09,0,.1,0,.1-.17.32,0A.27.27,0,0,1,22.61,7a.16.16,0,0,1,.18.05.17.17,0,0,1,.25.06.2.2,0,0,1,.27.09.19.19,0,0,1,.25.08c.1.17.08.23.08.23l.07.26L24,8.1l-.59.22h-.26l-.52.14-.94.07-.26-.3Z"/><path class="cls-2" d="M21.65,8.55l-.28-.32.38-.33s0-.15-.05-.24a.24.24,0,0,1,0-.26l.11-.13A.24.24,0,0,1,22,7.16l.09,0h0a.17.17,0,0,1,.1-.08.28.28,0,0,1,.23.07A.33.33,0,0,1,22.61,7a.19.19,0,0,1,.18,0,.2.2,0,0,1,.12,0,.17.17,0,0,1,.13.08.22.22,0,0,1,.27.09.21.21,0,0,1,.26.1.36.36,0,0,1,.08.23l.07.25.26.33-.61.22h-.26l-.52.14Zm-.24-.32.25.29.92-.07.53-.14h.26l.57-.21-.24-.31-.08-.26h0a.39.39,0,0,0-.08-.22.19.19,0,0,0-.24-.08h0A.2.2,0,0,0,23,7.14h0a.24.24,0,0,0-.12-.09.13.13,0,0,0-.11,0h0v0c-.05-.08-.16,0-.16,0a.27.27,0,0,0-.18.13h0a.26.26,0,0,0-.21-.08.14.14,0,0,0-.09.07s-.06,0-.11,0a.24.24,0,0,0-.14.1l-.12.13a.3.3,0,0,0,0,.25,1.48,1.48,0,0,1,.05.25h0Z"/><path class="cls-1" d="M21,9.46a.87.87,0,0,0-.21,0l-.21.13s0,0-.2,0c0,0-.28-.07-.28.15,0,0-.33,0-.2.32a.17.17,0,0,0,.29.07s-.13.18.11.25a.18.18,0,0,0,.22-.14.15.15,0,0,0,0-.15.23.23,0,0,0,.14-.11s-.17.22,0,.3a.19.19,0,0,0,.25-.19.15.15,0,0,1,.08-.15.46.46,0,0,0,.28-.26S20.94,9.59,21,9.46Z"/><path d="M20.32,10.45h-.05c-.08,0-.13-.06-.15-.12a.12.12,0,0,1,0-.1.18.18,0,0,1-.14,0,.29.29,0,0,1-.13-.13.25.25,0,0,1,0-.22.31.31,0,0,1,.21-.12.17.17,0,0,1,.05-.12.32.32,0,0,1,.24,0c.15,0,.19,0,.19,0h0l.06,0,.15-.1a.92.92,0,0,1,.22,0h0c0,.1.17.23.24.27h0a.44.44,0,0,1-.29.27c-.08,0-.06.14-.06.14a.25.25,0,0,1-.08.18.3.3,0,0,1-.19,0c-.05,0-.09-.06-.1-.1a.23.23,0,0,1,0-.14.09.09,0,0,1-.06,0,.19.19,0,0,1-.15.3Zm-.16-.27h0v0a.16.16,0,0,0,0,.13.19.19,0,0,0,.14.09.16.16,0,0,0,.2-.12.16.16,0,0,0,0-.14v0h0a.27.27,0,0,0,.12-.08v0h0s0,0,0,0v0s-.07.12-.05.18a.1.1,0,0,0,.07.08h0a.22.22,0,0,0,.17,0,.19.19,0,0,0,.07-.16h0a.17.17,0,0,1,.08-.17.39.39,0,0,0,.27-.24c-.05,0-.25-.15-.24-.27a1,1,0,0,0-.2,0l-.15.09-.05,0s-.06,0-.21,0-.15,0-.22,0a.13.13,0,0,0-.05.11h0s-.15,0-.2.11a.24.24,0,0,0,0,.2.21.21,0,0,0,.12.11.16.16,0,0,0,.15-.05Z"/><path class="cls-1" d="M20.4,7.26s-.21-.1-.31,0a.31.31,0,0,0-.3,0,1.69,1.69,0,0,0-.24.19s-.07.06,0,.25a.38.38,0,0,1,0,.2s0,0-.14.1-.12.14-.22,0a.19.19,0,0,0,.23.14s-.1.08,0,.27a.34.34,0,0,1,0,.31.28.28,0,0,0,.16-.27.54.54,0,0,1,0-.24s-.05.09.07.28a.29.29,0,0,1,0,.28.25.25,0,0,0,.16-.27c0-.21-.12-.12-.05-.32a.29.29,0,0,0,.06.15.25.25,0,0,1,.09.27A.32.32,0,0,0,20,8.37a.44.44,0,0,0-.05-.18L20.24,8l.16-.29Z"/><path d="M19.62,8.8h0v0a.28.28,0,0,0,0-.26.55.55,0,0,1-.08-.19.56.56,0,0,0,0,.14.3.3,0,0,1-.18.28h0a.36.36,0,0,0,0-.3c-.06-.15,0-.23,0-.26A.22.22,0,0,1,19.14,8h0a.14.14,0,0,0,.09.05h0A.17.17,0,0,0,19.37,8c.08-.09.12-.1.15-.1a.66.66,0,0,0,0-.19c0-.19,0-.25.05-.26a1.24,1.24,0,0,1,.24-.19.31.31,0,0,1,.3,0c.1-.09.31,0,.32,0h0v.46h0L20.25,8h0l-.31.18a.49.49,0,0,1,0,.16.32.32,0,0,1-.08.27h0s0,0,0,0a.26.26,0,0,0-.08-.26.2.2,0,0,1-.06-.11.1.1,0,0,0,0,.11.26.26,0,0,1,.05.16.27.27,0,0,1-.16.28Zm-.07-.56s0,.09.07.26a.34.34,0,0,1,0,.26.23.23,0,0,0,.12-.24.28.28,0,0,0-.05-.15s0-.06,0-.17h0a.35.35,0,0,0,.06.14.28.28,0,0,1,.1.23.25.25,0,0,0,.05-.2.42.42,0,0,0-.05-.17h0L20.23,8l.16-.28V7.26s-.21-.08-.29,0h0a.27.27,0,0,0-.28,0,1.69,1.69,0,0,0-.24.19s-.06.06,0,.24a.48.48,0,0,1,0,.2h0s0,0-.13.1a.21.21,0,0,1-.14.07h0l-.07,0a.19.19,0,0,0,.21.09h0s-.09.07,0,.26a.38.38,0,0,1,0,.28.24.24,0,0,0,.12-.24.53.53,0,0,1,0-.24h0v0Z"/><path d="M19.91,8.09s-.14,0-.16-.12h0c0,.1.14.11.14.11Z"/><path d="M19.68,8a.1.1,0,0,1-.08,0,.11.11,0,0,0-.08,0v0a.11.11,0,0,1,.1,0,.1.1,0,0,0,.07,0V8Z"/><path d="M20.11,7.69a.18.18,0,0,1-.11,0,0,0,0,0,0-.06,0,.06.06,0,0,0,0,.09s.08,0,0,.13.16-.06.1-.14S20,7.7,20,7.68s0,0,0,0S20.09,7.7,20.11,7.69Z"/><polygon class="cls-6" points="22.29 8.04 21.75 6.19 21.73 6.2 22.21 8.06 22.29 8.04"/><path d="M22.2,8.08h0l-.48-1.88h0L22.3,8Zm-.45-1.87.46,1.84.07,0L21.75,6.2Z"/><path d="M20.43,10.11a.22.22,0,0,0-.23,0s0,0,.09-.07a.16.16,0,0,1,.16-.11l-.11.11S20.41,10.06,20.43,10.11Z"/><path class="cls-5" d="M20,10.4a.27.27,0,0,1-.1-.34A.11.11,0,0,1,20,10s.12,0,0,.22C20,10.23,20,10.34,20,10.4Z"/><path class="cls-2" d="M20,10.41a.26.26,0,0,1-.09-.35A.1.1,0,0,1,20,10s0,0,.06.07,0,.09,0,.16-.05.11,0,.17ZM20,10a.08.08,0,0,0-.07.05.25.25,0,0,0,.07.31.24.24,0,0,1,0-.16.17.17,0,0,0,0-.15A.07.07,0,0,0,20,10Z"/><path class="cls-5" d="M20.39,10.6s-.28-.13-.2-.35c0,0,0-.08.09-.07s.11,0,.09.15A.53.53,0,0,0,20.39,10.6Z"/><path class="cls-2" d="M20.39,10.61s-.29-.14-.2-.37c0,0,0-.08.09-.07a.1.1,0,0,1,.08,0,.16.16,0,0,1,0,.12.5.5,0,0,0,0,.26Zm-.11-.42c-.05,0-.08.06-.08.06-.07.18.11.29.17.33a.52.52,0,0,1,0-.25.12.12,0,0,0,0-.11.08.08,0,0,0-.06,0Z"/><path d="M20.33,9.77l-.12.11a.31.31,0,0,0-.08-.07.1.1,0,0,1,.08,0A.19.19,0,0,1,20.33,9.77Z"/><path class="cls-5" d="M20.58,10.54a.24.24,0,0,0,.19-.28s0-.11-.12-.09-.11,0,0,.17A.22.22,0,0,1,20.58,10.54Z"/><path class="cls-2" d="M20.59,10.55h0a.22.22,0,0,0,0-.19.19.19,0,0,1,0-.14.11.11,0,0,1,.07-.05c.1,0,.12.09.13.09A.26.26,0,0,1,20.59,10.55Zm.06-.37a.11.11,0,0,0,0,0,.14.14,0,0,0,0,.12.24.24,0,0,1,0,.19.25.25,0,0,0,.15-.27.09.09,0,0,0-.11-.08Z"/><path class="cls-7" d="M21.59,5.66l.22.08a.73.73,0,0,0,.48,0l.2-.08-.14.21V6l.08.13s-.05,0-.2-.08a.34.34,0,0,0-.38,0,.43.43,0,0,1-.2.08L21.78,6l-.05-.13Z"/><path d="M22.42,6.12a.39.39,0,0,1-.2-.08.34.34,0,0,0-.36,0,.35.35,0,0,1-.21.08h0L21.77,6l-.05-.13-.14-.16,0,0,.22.08a.68.68,0,0,0,.46,0l.21-.08v0l-.14.21V6l.09.13h0ZM22,6a.35.35,0,0,1,.19.06.37.37,0,0,0,.18.07L22.33,6V5.87l.12-.18-.17.06a.75.75,0,0,1-.48,0l-.18-.06.11.13L21.8,6l-.12.13A.48.48,0,0,0,21.85,6,.38.38,0,0,1,22,6Z"/><path class="cls-3" d="M20.67,10.27a0,0,0,0,0,0,0h0a.12.12,0,0,0,0,.09.09.09,0,0,1,0,.07h0a.07.07,0,0,0,0-.07S20.64,10.3,20.67,10.27Z"/><path class="cls-1" d="M23.76,6.09s-.16.09-.23,0a.16.16,0,0,1,.11-.23.17.17,0,0,1,0-.24.15.15,0,0,1,.16,0A.14.14,0,0,1,24,5.51a.13.13,0,0,1,.12.09s.12,0,.19,0a.15.15,0,0,1-.05.23H24.1L24,5.81l-.12,0A.27.27,0,0,1,23.76,6.09Z"/><path d="M23.64,6.14a.16.16,0,0,1-.12-.06.16.16,0,0,1,.1-.24.18.18,0,0,1,0-.24.15.15,0,0,1,.16,0A.17.17,0,0,1,24,5.49a.15.15,0,0,1,.13.1.18.18,0,0,1,.19,0,.15.15,0,0,1,0,.12.2.2,0,0,1-.09.12H24.1l-.11,0-.11,0a.27.27,0,0,1-.11.25h0A.24.24,0,0,1,23.64,6.14Zm.1-.55a.09.09,0,0,0-.08,0,.16.16,0,0,0,0,.22h0s0,0,0,0a.17.17,0,0,0-.1.08.15.15,0,0,0,0,.13c.05.08.19,0,.21,0a.29.29,0,0,0,.1-.24h0l.12,0h0l.1,0h.11a.12.12,0,0,0,.07-.09.15.15,0,0,0,0-.11c-.06-.06-.18,0-.18,0h0A.11.11,0,0,0,24,5.52h0a.14.14,0,0,0-.13.08,0,0,0,0,1,0,0Z"/><path class="cls-7" d="M22.49,6a0,0,0,0,1,0,0s0,0-.05,0V6s0-.07.05-.12.1-.08.29,0L23,6l.31.16a.83.83,0,0,0,.3.07A.4.4,0,0,0,24,6.05s.08-.13,0-.22a.08.08,0,0,0-.08,0,.1.1,0,0,0-.08,0,.09.09,0,0,0,0,.1s.06,0,.08,0h0a.13.13,0,0,1,0,.12s-.15.23-.57,0l-.55-.31a.37.37,0,0,0-.45.08.21.21,0,0,0,0,.3.15.15,0,0,0,.21,0s.07-.12,0-.17a.09.09,0,0,0-.13,0c0,.1.07.12.08,0Z"/><path d="M23.64,6.22h0a.62.62,0,0,1-.31-.07L23,6l-.26-.13c-.19-.1-.28,0-.28,0h0a.12.12,0,0,1,.09,0,.13.13,0,0,1,.06.07.15.15,0,0,1,0,.12.16.16,0,0,1-.22,0,.18.18,0,0,1-.1-.13.33.33,0,0,1,0-.19.37.37,0,0,1,.46-.08l.55.31c.41.23.55,0,.56,0a.19.19,0,0,0,0-.07l0,0s-.05,0-.06,0a.09.09,0,0,1,0-.11s.05,0,.09,0a.11.11,0,0,1,.09,0c.09.09,0,.23,0,.24A.39.39,0,0,1,23.64,6.22Zm-1.08-.43a.41.41,0,0,1,.19,0L23,6l.3.16a1,1,0,0,0,.31.07A.42.42,0,0,0,24,6.05s.08-.13,0-.21a.11.11,0,0,0-.07,0l-.07,0s0,.05,0,.08h0s0,0,0,0h0a.21.21,0,0,1,0,.12s-.17.24-.59,0l-.55-.31a.33.33,0,0,0-.43.08.23.23,0,0,0,0,.17.17.17,0,0,0,.08.11.14.14,0,0,0,.19,0h0a.12.12,0,0,0,0-.1.07.07,0,0,0,0,0,.11.11,0,0,0-.07,0l-.05,0V6h0V6h0s0,0,0,0h0a0,0,0,0,1,0,0h0l0,0,0,0h0a.14.14,0,0,1,.06-.14A.25.25,0,0,1,22.56,5.79Z"/><path class="cls-8" d="M20.3,6.91V6.57s0-.05.05-.09.08-.08.14.07a1.47,1.47,0,0,1,.17-.15.07.07,0,0,1,.12,0,.41.41,0,0,1,.12-.13s.12-.08.12.16l.1-.09s.07-.06.16,0a1.39,1.39,0,0,1,.16.17.19.19,0,0,1,0,.11.18.18,0,0,0,0,.11.21.21,0,0,0,.08,0,.16.16,0,0,1,.14.1,1.94,1.94,0,0,1,.06.43v.82l-.55.66-.89-.25L20,8.45l-.08-.26L20.26,8l.19-.5-.06-.36Z"/><path d="M21.24,8.86l-.89-.25L20,8.46l-.08-.27L20.26,8l.18-.5-.06-.35-.09-.21V6.57a.09.09,0,0,1,.05-.09h0s0,0,.07,0,0,0,.08.09l.15-.14s0,0,.07,0,0,0,.06,0a.6.6,0,0,1,.11-.12.1.1,0,0,1,.08,0s.06.07.06.15l.08-.07a.12.12,0,0,1,.17,0,1.54,1.54,0,0,1,.16.18.16.16,0,0,1,0,.11.22.22,0,0,0,0,.11h0l.08,0h0a.18.18,0,0,1,.15.1s0,.08.06.44V8.2h0ZM20,8.44l.35.15.88.25.54-.65V7.37c0-.3-.05-.4-.05-.42h0a.13.13,0,0,0-.13-.09.31.31,0,0,1-.09,0,.2.2,0,0,1,0-.12.18.18,0,0,0,0-.1,1.29,1.29,0,0,0-.16-.18.11.11,0,0,0-.14,0l-.11.1v0c0-.11,0-.14-.06-.16a.08.08,0,0,0-.06,0s-.11.12-.11.12h0a.07.07,0,0,0-.05,0s-.06,0-.06,0h0a.94.94,0,0,0-.16.14h0q0-.09-.06-.09s0,0-.06,0h0a.08.08,0,0,0,0,.08v.34l.09.2.06.36h0L20.27,8h0l-.34.22Z"/><path class="cls-6" d="M22.75,7.35l0-.06.1-.08a3.13,3.13,0,0,1,.16.49v.12s.23.06.27.42l-.19.35-.29-.17-.09-.06v-1Z"/><path d="M23.14,8.6l-.31-.17-.09-.07v-1h0l.06-.08.11-.09v0a3.53,3.53,0,0,1,.16.49v.12s.24.09.27.42h0Zm-.38-.25.08.06.29.16.18-.34c0-.34-.26-.4-.26-.4h0V7.7a3.82,3.82,0,0,0-.15-.48l-.09.07,0,.06Z"/><path class="cls-3" d="M19.93,10.11a0,0,0,0,0,0,0h0a.17.17,0,0,0,0,.17s0,0,0,0,0,0,0,0A.18.18,0,0,1,19.93,10.11Z"/><path d="M20.84,10.05h0a.08.08,0,0,0,0,0,.24.24,0,0,1,0-.07h0s0,0,0,0A.13.13,0,0,1,20.84,10.05Z"/><path d="M21.15,6.85a.33.33,0,0,0-.06-.14L21,6.62a.64.64,0,0,1,0-.16h0a.4.4,0,0,0,0,.15l.05.09a.39.39,0,0,1,.06.14Z"/><path class="cls-1" d="M23.11,9.46a.87.87,0,0,1,.21,0l.21.13s0,0,.2,0c0,0,.28-.07.28.15,0,0,.33,0,.2.32a.17.17,0,0,1-.29.07s.13.18-.11.25a.18.18,0,0,1-.22-.14.15.15,0,0,1,0-.15.23.23,0,0,1-.14-.11s.17.22,0,.3a.19.19,0,0,1-.25-.19.14.14,0,0,0-.08-.15.46.46,0,0,1-.28-.26S23.14,9.59,23.11,9.46Z"/><path d="M23.77,10.45a.18.18,0,0,1-.19-.14.18.18,0,0,1,0-.16.09.09,0,0,1-.06,0,.23.23,0,0,1,0,.14.17.17,0,0,1-.09.1.33.33,0,0,1-.2,0,.25.25,0,0,1-.08-.18s0-.11-.06-.14a.44.44,0,0,1-.29-.27h0s.26-.15.24-.27h0a.85.85,0,0,1,.22,0l.15.1.06,0h0s0,.05.19,0a.32.32,0,0,1,.24,0,.17.17,0,0,1,.05.12.31.31,0,0,1,.21.12.25.25,0,0,1,0,.22.29.29,0,0,1-.13.13.15.15,0,0,1-.13,0,.17.17,0,0,1,0,.1c0,.06-.07.09-.15.12Zm-.26-.39a.27.27,0,0,0,.12.08h0v0a.16.16,0,0,0,0,.14.16.16,0,0,0,.2.12.19.19,0,0,0,.14-.09.16.16,0,0,0,0-.13v0h0a.16.16,0,0,0,.15.05.21.21,0,0,0,.12-.11.24.24,0,0,0,0-.2c-.05-.09-.2-.11-.2-.11h0A.13.13,0,0,0,24,9.69c-.07-.06-.21,0-.22,0s-.2,0-.21,0l-.05,0a.6.6,0,0,0-.15-.09,1.08,1.08,0,0,0-.19,0c0,.06-.05.13-.14.2l-.11.07a.4.4,0,0,0,.26.24.17.17,0,0,1,.09.18.18.18,0,0,0,.07.15.22.22,0,0,0,.17,0,.08.08,0,0,0,.07-.08c0-.06,0-.14-.05-.18v0s0,0,0,0h0Z"/><rect x="21.02" y="6.84" width="0.02" height="1.85" transform="translate(-0.8 2.64) rotate(-7.06)"/><rect x="21.09" y="6.83" width="0.02" height="1.73" transform="translate(-0.9 3.19) rotate(-8.48)"/><polygon points="21.3 8.54 21.01 6.83 21.02 6.83 21.32 8.53 21.3 8.54"/><polygon class="cls-6" points="21.56 8.36 21.03 6.52 21.01 6.52 21.48 8.39 21.56 8.36"/><path d="M21.47,8.4h0L21,6.52h0l.54,1.86ZM21,6.53l.47,1.85.06,0L21,6.53Z"/><polygon points="21.71 8.13 21.17 6.77 21.19 6.76 21.73 8.13 21.71 8.13"/><rect x="21.39" y="6.74" width="0.02" height="1.52" transform="translate(-1.27 7.81) rotate(-20.08)"/><path class="cls-3" d="M20.29,10.47a.25.25,0,0,1-.06-.17s0,0,0,0,0,0,0,0a.18.18,0,0,0,.06.17h0Z"/><rect x="21.47" y="6.69" width="0.02" height="1.36" transform="translate(-1.14 9.41) rotate(-24.1)"/><rect x="21.21" y="6.81" width="0.02" height="1.71" transform="translate(-1.1 4.39) rotate(-11.51)"/><path class="cls-7" d="M23.84,8.07a.73.73,0,0,1-.3-.45.94.94,0,0,1,.06-.55A.7.7,0,0,1,24,6.68a1,1,0,0,0-.34.43,1,1,0,0,0,0,.41,1.18,1.18,0,0,0,.07.32Z"/><path d="M23.83,8.08a.72.72,0,0,1-.3-.46,1,1,0,0,1,.06-.55.7.7,0,0,1,.44-.4v0a1,1,0,0,0-.34.42,1.24,1.24,0,0,0,0,.41v.07c0,.11,0,.11,0,.19l0,0,.1.23ZM24,6.72a.74.74,0,0,0-.35.36,1,1,0,0,0-.05.54.71.71,0,0,0,.25.41l-.08-.19,0,0a.58.58,0,0,1,0-.19V7.53a1,1,0,0,1,0-.42A.87.87,0,0,1,24,6.72Z"/><path class="cls-6" d="M22.79,7.29l-1,.32-.06.46a1.14,1.14,0,0,1-.73.41l.38.41L22.1,9l.38-.3.36-.32a1.76,1.76,0,0,1,0-.43,1.13,1.13,0,0,1,0-.14A3.15,3.15,0,0,1,22.79,7.29Z"/><path d="M22.1,9.05h0l-.74-.16h0L21,8.48h0a1.14,1.14,0,0,0,.74-.41l.05-.46h0l1-.32h0a3.5,3.5,0,0,0,0,.56h0a1.13,1.13,0,0,0,0,.14,1.76,1.76,0,0,0,0,.43h0l-.35.33Zm-.74-.17L22.1,9l.38-.3.35-.32a1.76,1.76,0,0,1,0-.43s0-.13,0-.14a5,5,0,0,1,0-.56l-1,.32-.05.46a1.18,1.18,0,0,1-.73.41Z"/><path d="M21.73,8v0s.68-.21,1.08-.38v0C22.41,7.75,21.74,8,21.73,8Z"/><path d="M21.4,8.34h0a5.83,5.83,0,0,0,1.43-.49l.22-.15v0l-.22.14A5.14,5.14,0,0,1,21.4,8.34Z"/><path d="M21.16,8.44h0A4.79,4.79,0,0,0,22.81,8l.24-.16h0L22.82,8A5.32,5.32,0,0,1,21.16,8.44Z"/><path d="M21.68,8.69v0a3.7,3.7,0,0,0,1.13-.38v0A3.79,3.79,0,0,1,21.68,8.69Z"/><path class="cls-1" d="M23.68,7.26s.22-.1.32,0a.29.29,0,0,1,.29,0,1.69,1.69,0,0,1,.24.19s.07.06,0,.25a.48.48,0,0,0,0,.2s.05,0,.14.1.12.14.23,0a.19.19,0,0,1-.23.14s.09.08,0,.27a.36.36,0,0,0,0,.31.28.28,0,0,1-.17-.27.42.42,0,0,0,0-.24s.06.09-.06.28a.31.31,0,0,0,0,.28.25.25,0,0,1-.15-.27c0-.21.12-.12.05-.32a.35.35,0,0,1-.07.15.27.27,0,0,0-.09.27.36.36,0,0,1-.08-.25.91.91,0,0,1,.05-.18L23.85,8l-.16-.29Z"/><path d="M24.46,8.8h0a.27.27,0,0,1-.17-.28.24.24,0,0,1,.06-.16.1.1,0,0,0,0-.11.3.3,0,0,1-.06.11.29.29,0,0,0-.09.26h0a.41.41,0,0,1-.08-.27.75.75,0,0,1,.05-.16L23.84,8h0l-.16-.29h0V7.26h0s.21-.1.32,0a.31.31,0,0,1,.3,0,1.69,1.69,0,0,1,.24.19.35.35,0,0,1,.05.26.42.42,0,0,0,0,.19s.07,0,.14.1a.2.2,0,0,0,.12.07h0A.14.14,0,0,0,24.92,8h0a.21.21,0,0,1-.21.16.28.28,0,0,1,0,.26.34.34,0,0,0,0,.3h0a.29.29,0,0,1-.17-.28.38.38,0,0,0,0-.14.5.5,0,0,1-.07.19.27.27,0,0,0,0,.26v0Zm-.1-.61h0c0,.11,0,.13,0,.17a.21.21,0,0,0-.05.15.23.23,0,0,0,.12.24.27.27,0,0,1,0-.26c.1-.17.07-.25.06-.26h0v0h0a.47.47,0,0,1,0,.24.27.27,0,0,0,.13.24.33.33,0,0,1,0-.28c.08-.19,0-.26,0-.26s0,0,0,0h0a.18.18,0,0,0,.2-.09l-.07,0h0c-.07,0-.13-.07-.14-.07s-.13-.1-.13-.1h0a.54.54,0,0,1,0-.2c0-.18,0-.24,0-.24a1,1,0,0,0-.24-.19.28.28,0,0,0-.28,0h0c-.09-.09-.26,0-.3,0v.46l.16.28.32.18h0a.91.91,0,0,0-.05.17.37.37,0,0,0,.05.2.35.35,0,0,1,.1-.23.29.29,0,0,0,.07-.14Z"/><path class="cls-3" d="M20,8.42a.12.12,0,0,1,.17-.09.3.3,0,0,1,.29-.24c.25,0,.26.25.26.26a.23.23,0,0,1,.2-.09s.21,0,.13.32l0,.05s.16-.38.5-.28c0,0,.32.1.11.41,0,0,.16.21.29.19a.47.47,0,0,0,.39-.3.58.58,0,0,1,.53-.26.16.16,0,0,1,.15.12A.69.69,0,0,1,23.84,8l.24.12.09.05L24,8.59l-.33.74-.25.07-.26-.14-.09,0v.23l-.34.24-.24.1-.26.18-.06.16a.47.47,0,0,0-.31,0l-.06-.13-.15-.15-.6-.28L21,9.3l-.11,0-.13.14-.17,0-.27-.18Z"/><path class="cls-2" d="M22.2,10.23h0a.44.44,0,0,0-.3,0h0l-.06-.14-.15-.15-.6-.28L21,9.31l-.1,0-.12.14-.19,0-.27-.19h0L20,8.42h0a.14.14,0,0,1,.07-.1h.1a.32.32,0,0,1,.3-.24.25.25,0,0,1,.19.07.24.24,0,0,1,.08.17.28.28,0,0,1,.19-.08.17.17,0,0,1,.12.06.31.31,0,0,1,0,.28l0,0a.44.44,0,0,1,.5-.26.29.29,0,0,1,.18.15.29.29,0,0,1-.06.27s.17.19.28.17.25,0,.38-.29a.6.6,0,0,1,.54-.26.19.19,0,0,1,.15.1A.7.7,0,0,1,23.84,8h0l.24.12.1,0-.14.39-.33.75-.26.08-.26-.15-.08,0v.22l-.34.25-.25.1-.25.18Zm-1.11-.59.6.28.15.15.05.13a.42.42,0,0,1,.3,0l.06-.16.26-.18.24-.1.34-.24V9.3l.1-.06.26.15.24-.07L24,8.58l.13-.37-.08,0-.24-.12a.68.68,0,0,0-.75.45v0a.17.17,0,0,0-.14-.11.6.6,0,0,0-.52.25A.5.5,0,0,1,22,9c-.14,0-.3-.19-.3-.19h0a.31.31,0,0,0,.06-.25.29.29,0,0,0-.17-.14c-.32-.1-.47.27-.48.27v0l-.06-.06h0a.33.33,0,0,0,0-.27.16.16,0,0,0-.1,0,.22.22,0,0,0-.18.09l0,0v0a.29.29,0,0,0-.08-.19.24.24,0,0,0-.17-.06.3.3,0,0,0-.28.24h0a.1.1,0,0,0-.09,0s-.05.07-.06.08l.28.81.26.17.17,0,.12-.14L21,9.3Z"/><path d="M22.38,6a.24.24,0,0,1,.06-.18.23.23,0,0,1,.17-.06v0a.23.23,0,0,0-.15.06.16.16,0,0,0-.05.15Z"/><path class="cls-7" d="M24.11,8.22a.79.79,0,0,1-.5-.54,1,1,0,0,1,.05-.6c.18-.43.48-.43.48-.43a.15.15,0,0,1,.17.13.12.12,0,0,1,0,.13.13.13,0,0,1-.17,0,.11.11,0,0,1,0-.11.07.07,0,0,1,.08,0s0,.06,0,.06h0a.06.06,0,0,0-.05-.07s-.12,0-.26.15a1,1,0,0,0-.19.54.73.73,0,0,0,.58.72,1.64,1.64,0,0,0-.18.43,5,5,0,0,1-.25.66.42.42,0,0,1-.53.19s-.22-.09-.22-.25c0,0,0-.14.12-.15s.12,0,.12.1,0,.11-.13.09a0,0,0,0,1,0-.06,0,0,0,0,1,.06,0h0a0,0,0,0,0,0,0,0,0,0,0,0,0,0s0,0,.06,0a.21.21,0,0,0,.13.1.3.3,0,0,0,.27,0,.5.5,0,0,0,.11-.16s.12-.27.2-.52a3.1,3.1,0,0,1,.13-.34Z"/><path d="M23.49,9.49a.42.42,0,0,1-.18,0s-.22-.1-.22-.26a.17.17,0,0,1,0-.12.19.19,0,0,1,.1-.05.19.19,0,0,1,.11,0,.1.1,0,0,1,0,.08.11.11,0,0,1,0,.08l-.05,0a.26.26,0,0,0,.11.08.31.31,0,0,0,.26,0,.92.92,0,0,0,.11-.15h0A4.42,4.42,0,0,0,24,8.6a3.1,3.1,0,0,1,.13-.34v0a.91.91,0,0,1-.5-.55,1.05,1.05,0,0,1,.05-.61.63.63,0,0,1,.5-.43h0a.19.19,0,0,1,.19.14.14.14,0,0,1-.06.14.16.16,0,0,1-.19,0,.13.13,0,0,1,0-.12.35.35,0,0,0-.17.13,1,1,0,0,0-.18.53.72.72,0,0,0,.56.71h0v0a1.64,1.64,0,0,0-.18.42,5,5,0,0,1-.25.66A.43.43,0,0,1,23.49,9.49Zm-.27-.44h0a.11.11,0,0,0-.08,0,.24.24,0,0,0,0,.11c0,.15.21.24.21.24a.41.41,0,0,0,.52-.19,6.21,6.21,0,0,0,.25-.66,2.35,2.35,0,0,1,.17-.41.76.76,0,0,1-.57-.73,1.07,1.07,0,0,1,.19-.55c.14-.17.26-.15.27-.15a.05.05,0,0,1,.05,0,.05.05,0,0,1,0,.05h0s0,0,0-.05-.05,0-.07,0a.07.07,0,0,0,0,.09.13.13,0,0,0,.16,0,.12.12,0,0,0,0-.12.14.14,0,0,0-.16-.11s-.3,0-.47.41a1,1,0,0,0-.05.59.8.8,0,0,0,.49.54h0l0,0a3.1,3.1,0,0,0-.13.34,4.42,4.42,0,0,1-.2.52h0a.51.51,0,0,1-.12.16.28.28,0,0,1-.28,0,.2.2,0,0,1-.12-.09l-.06,0a.05.05,0,0,1,0-.05.07.07,0,0,1,0,0,.11.11,0,0,1,.06,0h0l0,0h-.08a0,0,0,0,0,0,0s.07,0,.09,0a.08.08,0,0,0,0-.06.14.14,0,0,0,0-.07A.16.16,0,0,0,23.22,9.05Z"/><path class="cls-7" d="M23,9.31s.08,0,.08,0a.09.09,0,0,1-.12.08.12.12,0,0,1-.08-.16A.13.13,0,0,1,23,9.2s.1,0,.15.15a.29.29,0,0,1,0,.23c-.06.12-.24.19-.32.23a3.4,3.4,0,0,0-.43.2s-.15.12-.09.22a.1.1,0,0,0,.07,0,.05.05,0,0,0,.05,0h0a0,0,0,0,1,0,0,.06.06,0,0,1-.06,0,.06.06,0,0,1,0-.08.1.1,0,0,1,.13,0,.11.11,0,0,1,0,.13.14.14,0,0,1-.13.07.19.19,0,0,1-.12-.05.24.24,0,0,1,0-.3.46.46,0,0,1,.18-.13l.35-.15A.52.52,0,0,0,23,9.56a.28.28,0,0,0,.07-.16s0-.07,0-.09H23Z"/><path d="M22.36,10.36h0a.25.25,0,0,1-.13-.06.27.27,0,0,1,0-.32.52.52,0,0,1,.19-.14l.08,0,.26-.11A.6.6,0,0,0,23,9.55a.37.37,0,0,0,.06-.13h0a.1.1,0,0,1-.1,0,.13.13,0,0,1-.08-.06.14.14,0,0,1,0-.11A.14.14,0,0,1,23,9.19a.21.21,0,0,1,.16.16.35.35,0,0,1,0,.24.7.7,0,0,1-.33.23,2.46,2.46,0,0,0-.43.2s-.11.08-.1.16v0a.12.12,0,0,1,.15,0,.1.1,0,0,1,.05.14A.14.14,0,0,1,22.36,10.36ZM23,9.29h.05c.05,0,0,.1,0,.1a.23.23,0,0,1-.07.17.5.5,0,0,1-.25.15l-.26.11-.08,0a.37.37,0,0,0-.18.13.23.23,0,0,0,0,.28.15.15,0,0,0,.11.05h0a.13.13,0,0,0,.12-.07.09.09,0,0,0,0-.11.1.1,0,0,0-.12,0c0,.05,0,.07,0,.08a.05.05,0,0,0,.05,0,0,0,0,0,0,0,0h0l0,0v0s0,.06-.06,0h0c-.05,0-.07,0-.08,0s.09-.23.09-.24a2.49,2.49,0,0,1,.44-.2.57.57,0,0,0,.31-.23.29.29,0,0,0,0-.21c0-.14-.14-.14-.14-.14a.1.1,0,0,0-.13.07.1.1,0,0,0,0,.09.07.07,0,0,0,.06,0,.08.08,0,0,0,.08,0,.15.15,0,0,0,0-.05l0,0s0,0-.05,0h0l0,0Z"/><path d="M23.16,9.49a.64.64,0,0,0,0-.1A.11.11,0,0,0,23,9.32v0a.15.15,0,0,1,.14.09l0,.1Z"/><path d="M23.28,9.44h0a.32.32,0,0,1-.13-.16.2.2,0,0,1,0-.11.06.06,0,0,1,.05,0v0h0a.08.08,0,0,0,0,0,.08.08,0,0,0,0,.08.24.24,0,0,0,.12.15h0Z"/><path class="cls-7" d="M21.59,6s0,0,0,0,0,0,.05,0V6a.12.12,0,0,0-.06-.12s-.1-.08-.29,0L21.08,6s-.27.15-.31.16a.83.83,0,0,1-.3.07.41.41,0,0,1-.36-.16s-.08-.13,0-.22a.09.09,0,0,1,.09,0s0,0,.07,0a.08.08,0,0,1,0,.1s-.06,0-.08,0h0a.15.15,0,0,0,0,.12s.15.23.57,0l.55-.31a.36.36,0,0,1,.44.08.21.21,0,0,1,0,.3.15.15,0,0,1-.21,0s-.06-.12,0-.17a.09.09,0,0,1,.13,0c0,.1-.07.12-.08,0Z"/><path d="M20.45,6.22a.4.4,0,0,1-.35-.16s-.09-.15,0-.24a.12.12,0,0,1,.1,0s.05,0,.08,0a.11.11,0,0,1,0,.12.08.08,0,0,1-.06,0,0,0,0,0,1,0,0,.1.1,0,0,0,0,.07s.15.22.55,0l.55-.31a.37.37,0,0,1,.46.08.33.33,0,0,1,.05.19.2.2,0,0,1-.09.13.17.17,0,0,1-.23,0,.22.22,0,0,1,0-.12.12.12,0,0,1,.07-.07.12.12,0,0,1,.09,0h0a.27.27,0,0,0-.29,0L21.09,6l-.31.16a.62.62,0,0,1-.31.07Zm-.27-.41a.08.08,0,0,0-.06,0c-.08.08,0,.2,0,.21a.42.42,0,0,0,.35.15.83.83,0,0,0,.3-.07l.3-.16.26-.13c.2-.11.31,0,.31,0A.14.14,0,0,1,21.7,6h0l0,0,0,0h0a0,0,0,0,1-.05,0h0s0,0,0,0h0s0,0,0,0h0s0,0,0,0h0s0,0,0,0l0,0a.09.09,0,0,0-.07,0s0,0,0,0a.12.12,0,0,0,0,.1A.15.15,0,0,0,21.79,6a.29.29,0,0,0,0-.18c-.16-.21-.42-.07-.43-.07L20.77,6c-.42.24-.58,0-.58,0a.15.15,0,0,1,0-.12,0,0,0,0,1,0,0h0l0,0h0s0-.08,0-.08l-.07,0ZM21.6,6h0Z"/><path class="cls-7" d="M20.24,8.07a.69.69,0,0,0,.3-.45.94.94,0,0,0-.06-.55.7.7,0,0,0-.43-.39.92.92,0,0,1,.34.43,1,1,0,0,1,0,.41,1.18,1.18,0,0,1-.07.32Z"/><path d="M20.25,8.08l0,0,.1-.23,0,0c0-.08,0-.08,0-.19V7.52a1.24,1.24,0,0,0,0-.41A.87.87,0,0,0,20,6.69v0a.68.68,0,0,1,.44.4,1,1,0,0,1,.06.55A.72.72,0,0,1,20.25,8.08Zm-.13-1.36a.81.81,0,0,1,.28.39,1.15,1.15,0,0,1,0,.42V7.6a1.05,1.05,0,0,1-.05.19v0L20.27,8a.69.69,0,0,0,.26-.41,1,1,0,0,0-.06-.54A.74.74,0,0,0,20.12,6.72Z"/><path d="M21.7,6h0a.19.19,0,0,0-.06-.15.23.23,0,0,0-.15-.06v0a.23.23,0,0,1,.17.06A.24.24,0,0,1,21.7,6Z"/><path class="cls-7" d="M20,8.22a.82.82,0,0,0,.51-.54,1,1,0,0,0-.05-.6c-.18-.43-.49-.43-.49-.43a.16.16,0,0,0-.17.13.12.12,0,0,0,.05.13.13.13,0,0,0,.17,0,.11.11,0,0,0,0-.11.07.07,0,0,0-.08,0s0,.06,0,.06h0a.06.06,0,0,1,.06-.07s.11,0,.25.15a1,1,0,0,1,.19.54.73.73,0,0,1-.57.72,2.1,2.1,0,0,1,.17.43,4.23,4.23,0,0,0,.26.66.4.4,0,0,0,.52.19s.22-.09.22-.25c0,0,0-.14-.11-.15s-.13,0-.13.1,0,.11.13.09a0,0,0,0,0,0-.06s0,0-.06,0h0a0,0,0,0,1,0,0,0,0,0,0,1,0,0,.08.08,0,0,1-.06,0,.21.21,0,0,1-.12.1.29.29,0,0,1-.27,0,.43.43,0,0,1-.12-.16s-.12-.27-.2-.52A3.1,3.1,0,0,0,20,8.27Z"/><path d="M20.6,9.49a.41.41,0,0,1-.37-.24A4.23,4.23,0,0,1,20,8.59a2.11,2.11,0,0,0-.17-.42v0h0a.73.73,0,0,0,.57-.71.85.85,0,0,0-.19-.53A.31.31,0,0,0,20,6.78a.09.09,0,0,1,0,.12.15.15,0,0,1-.19,0,.13.13,0,0,1,0-.14.17.17,0,0,1,.18-.14h0a.62.62,0,0,1,.5.43,1.05,1.05,0,0,1,0,.61.84.84,0,0,1-.5.55l0,0c0,.12.12.34.12.34a4.42,4.42,0,0,0,.2.52h0a.48.48,0,0,0,.1.15.31.31,0,0,0,.26,0,.26.26,0,0,0,.11-.08l0,0a.13.13,0,0,1,0-.08.1.1,0,0,1,0-.08.16.16,0,0,1,.11,0,.13.13,0,0,1,.09.05.17.17,0,0,1,0,.12c0,.16-.21.26-.22.26A.38.38,0,0,1,20.6,9.49Zm-.77-1.32a2.35,2.35,0,0,1,.17.41,4.51,4.51,0,0,0,.25.66.38.38,0,0,0,.51.19s.21-.09.21-.24a.24.24,0,0,0,0-.11.1.1,0,0,0-.08,0,.12.12,0,0,0-.09,0,.14.14,0,0,0,0,.07.08.08,0,0,0,0,.06s0,0,.09,0,0,0,0,0h-.07v0h0a.11.11,0,0,1,.06,0,0,0,0,0,1,0,0s0,0,0,.05l-.06,0h0a.2.2,0,0,1-.12.09.29.29,0,0,1-.28,0,.35.35,0,0,1-.11-.16h0a4.42,4.42,0,0,1-.2-.52A3.1,3.1,0,0,0,20,8.27l0,0h0a.8.8,0,0,0,.49-.54,1,1,0,0,0,0-.59c-.18-.41-.48-.41-.48-.41a.14.14,0,0,0-.16.11c0,.09,0,.12,0,.12a.12.12,0,0,0,.15,0,.07.07,0,0,0,0-.09.06.06,0,0,0-.06,0,0,0,0,0,0,0,.05h0a.08.08,0,0,1,0-.05s0,0,0,0,.13,0,.27.15a1,1,0,0,1,.19.55A.74.74,0,0,1,19.83,8.17Z"/><path class="cls-7" d="M21.09,9.31s-.07,0-.07,0,0,.1.12.08a.12.12,0,0,0,.07-.16.13.13,0,0,0-.14-.08s-.1,0-.15.15a.35.35,0,0,0,0,.23.74.74,0,0,0,.32.23,3.4,3.4,0,0,1,.43.2s.16.12.09.22a.1.1,0,0,1-.07,0,.05.05,0,0,1,0,0h0a.08.08,0,0,0,0,0,.08.08,0,0,0,.07,0,.06.06,0,0,0,0-.08.1.1,0,0,0-.13,0,.11.11,0,0,0-.05.13.14.14,0,0,0,.13.07.19.19,0,0,0,.12-.05.24.24,0,0,0,0-.3.46.46,0,0,0-.18-.13l-.35-.15a.65.65,0,0,1-.24-.15A.39.39,0,0,1,21,9.4s0-.07,0-.09h.05Z"/><path d="M21.72,10.36a.14.14,0,0,1-.14-.09.1.1,0,0,1,.05-.14c.11,0,.15,0,.15,0v0c0-.08-.09-.15-.09-.16a3.4,3.4,0,0,0-.43-.2.7.7,0,0,1-.33-.23.32.32,0,0,1,0-.24.21.21,0,0,1,.16-.16.14.14,0,0,1,.15.09.11.11,0,0,1,0,.11.13.13,0,0,1-.08.06.11.11,0,0,1-.1,0h0a.24.24,0,0,0,.06.13.51.51,0,0,0,.24.15l.26.11.08,0a.52.52,0,0,1,.19.14.26.26,0,0,1,0,.32.25.25,0,0,1-.13.06Zm0-.22h-.05a.09.09,0,0,0,0,.11.15.15,0,0,0,.12.07h0a.15.15,0,0,0,.11-.05.21.21,0,0,0,0-.28.32.32,0,0,0-.18-.13l-.08,0-.26-.11a.54.54,0,0,1-.25-.15A.29.29,0,0,1,21,9.4s0-.08,0-.1h.06l0,0h0a.05.05,0,0,0-.05,0,0,0,0,0,0,0,0h0a.08.08,0,0,0,0,.05s.05,0,.09,0a.11.11,0,0,0,.06,0,.14.14,0,0,0,0-.09.1.1,0,0,0-.12-.07s-.1,0-.15.14a.29.29,0,0,0,0,.21.6.6,0,0,0,.32.23,2.85,2.85,0,0,1,.43.2s.16.13.09.24a.11.11,0,0,1-.08,0s0,0-.06,0h0v0l0,0h0l0,0a.06.06,0,0,0,.06,0s0,0,0-.07A.07.07,0,0,0,21.7,10.14Z"/><path d="M20.93,9.49h0l0-.1a.15.15,0,0,1,.15-.09v0a.13.13,0,0,0-.12.07A.29.29,0,0,0,20.93,9.49Z"/><path d="M20.8,9.44v0h0a.33.33,0,0,0,.12-.15.11.11,0,0,0,0-.08l0,0v0a.06.06,0,0,1,.05,0,.11.11,0,0,1,0,.11.32.32,0,0,1-.13.16Z"/><path d="M22.24,6a.36.36,0,0,0-.39,0v0a.4.4,0,0,1,.41,0Z"/><path d="M20.73,7.14h0a.47.47,0,0,0-.1-.3l-.13-.29h0a2.91,2.91,0,0,0,.13.28A.5.5,0,0,1,20.73,7.14Z"/><path d="M21,6.94s-.1-.26-.1-.26l-.1-.25h0s.07.18.09.26l.11.26Z"/><path d="M20.89,7.48h0a.3.3,0,0,0-.06-.21h0A.29.29,0,0,1,20.89,7.48Z"/><path d="M20.75,7.68a.31.31,0,0,1-.12-.24c0-.21-.07-.25-.07-.25v0s.09,0,.08.27a.31.31,0,0,0,.11.23Z"/><path d="M21.07,8.17A.18.18,0,0,0,20.92,8c-.1,0-.1-.17-.1-.18a.1.1,0,0,0,0-.07.39.39,0,0,0-.22,0v0a.43.43,0,0,1,.24,0,.13.13,0,0,1,.05.09s0,.15.08.16a.21.21,0,0,1,.17.14Z"/><path d="M20.72,8a.35.35,0,0,1-.09-.1h0a.58.58,0,0,0,.09.1Z"/><path d="M21,7.9A.84.84,0,0,0,21,7.75h0a.38.38,0,0,1,.08.16Z"/><path d="M21.36,6.68a.6.6,0,0,1-.12-.13h0a.82.82,0,0,0,.11.12Z"/><path d="M21.63,7.71a.58.58,0,0,1,0-.29c0-.31-.1-.38-.1-.38h0s.14.06.12.39a.67.67,0,0,0,0,.29Z"/><path class="cls-6" d="M20.89,6.81v0a.45.45,0,0,0,.35-.15v0A.5.5,0,0,0,20.89,6.81Z"/><path d="M20.91,6.85h0v0h0a.5.5,0,0,1,.36-.15h0l0,0h0A.44.44,0,0,1,20.91,6.85Zm0,0v0a.48.48,0,0,0,.34-.14v0h0A.5.5,0,0,0,20.9,6.82Z"/><path d="M21.72,8.05h0s.8-.24,1.1-.38v0C22.51,7.82,21.72,8.05,21.72,8.05Z"/><polygon class="cls-6" points="21.62 6.56 22.01 6.41 22.02 6.43 21.63 6.58 21.62 6.56"/><path d="M21.63,6.59l0,0L22,6.4v0h0Zm0,0v0L22,6.43v0Z"/><rect x="21.78" y="6.56" width="0.02" height="1.3" transform="translate(-1 4.5) rotate(-11.53)"/><rect x="21.85" y="6.54" width="0.02" height="1.3" transform="translate(-1.06 5.18) rotate(-13.21)"/><rect x="21.91" y="6.51" width="0.02" height="1.3" transform="translate(-1.1 5.72) rotate(-14.5)"/><rect x="22.1" y="6.44" width="0.02" height="1.05" transform="translate(-0.86 10.06) rotate(-25.16)"/><polygon points="22.41 7.41 21.94 6.47 21.95 6.46 22.43 7.4 22.41 7.41"/><polygon points="22.49 7.38 21.98 6.45 22 6.44 22.51 7.37 22.49 7.38"/><rect x="21.9" y="7.81" width="0.21" height="0.02" transform="translate(-1.34 7.29) rotate(-18.26)"/><path d="M21.76,7.74v0s.59-.17,1-.35v0C22.35,7.56,21.76,7.74,21.76,7.74Z"/><path d="M21.75,7.8h0a8.85,8.85,0,0,0,1-.35v0A8.85,8.85,0,0,1,21.75,7.8Z"/><polygon points="22.01 8.53 21.96 8.4 21.98 8.4 22.02 8.51 22.11 8.48 22.07 8.37 22.09 8.37 22.13 8.49 22.01 8.53"/><polygon points="22.31 8.45 22.27 8.32 22.28 8.31 22.32 8.42 22.41 8.4 22.38 8.29 22.39 8.28 22.43 8.41 22.31 8.45"/><polygon points="21.76 7.61 21.75 7.44 22.74 7.14 22.8 7.28 22.78 7.29 22.73 7.16 21.77 7.45 21.78 7.61 21.76 7.61"/><polygon points="22.22 7.47 22.16 7.32 22.18 7.32 22.24 7.46 22.22 7.47"/><rect x="22.54" y="7.21" width="0.02" height="0.15" transform="translate(-0.98 10.07) rotate(-24.65)"/><rect x="22.62" y="7.19" width="0.02" height="0.14" transform="translate(-0.98 9.99) rotate(-24.39)"/><polygon points="22.73 7.31 22.67 7.17 22.68 7.17 22.75 7.3 22.73 7.31"/><polygon points="22.88 7.21 22.84 7.1 22.74 7.16 22.73 7.14 22.85 7.08 22.9 7.21 22.88 7.21"/><rect x="22.81" y="7.11" width="0.02" height="0.14" transform="translate(-0.95 9.86) rotate(-23.89)"/><path class="cls-2" d="M20.35,9a.28.28,0,0,1,0-.39c-.05,0-.2-.12-.17-.27h0c0,.15.16.25.17.25h0a.26.26,0,0,0,0,.37Z"/><path class="cls-2" d="M20.65,9.26a.35.35,0,0,1-.13,0A.21.21,0,0,1,20.44,9c0-.08.11-.23.11-.24l0-.06v.07c0,.19,0,.28,0,.31a.12.12,0,0,0,.08,0v0a.13.13,0,0,1-.11,0,.34.34,0,0,1-.06-.27c0,.06-.06.13-.07.18a.15.15,0,0,0,.07.19.29.29,0,0,0,.17,0,.12.12,0,0,0,.08-.06h0a.18.18,0,0,1-.09.08Z"/><path class="cls-2" d="M20.45,8.76a.2.2,0,0,1,0-.22l0,0a.17.17,0,0,0,0,.19Z"/><path class="cls-2" d="M20.63,8.78a.41.41,0,0,1-.08-.21h0a.38.38,0,0,0,.07.2Z"/><path class="cls-2" d="M20.73,8.77a.34.34,0,0,1-.12-.26h0a.43.43,0,0,0,.11.25Z"/><path class="cls-2" d="M20.8,8.75a.4.4,0,0,1-.13-.29h0a.37.37,0,0,0,.13.27Z"/><path class="cls-2" d="M21.6,8.81h0a.12.12,0,0,1-.12-.13.13.13,0,0,1,0-.09.24.24,0,0,0-.15.13h0a.24.24,0,0,1,.22-.14h0l0,0a.11.11,0,0,0,0,.2s.1,0,.14,0l0,0A.18.18,0,0,1,21.6,8.81Z"/><path class="cls-2" d="M21.65,9.38s-.35-.16-.32-.4a.29.29,0,0,1,.16-.22v0a.27.27,0,0,0-.14.2c0,.22.29.38.3.38Z"/><path class="cls-2" d="M21.45,9.1a.2.2,0,0,1,0-.18h0a.18.18,0,0,0,0,.16Z"/><path class="cls-2" d="M21.52,9.05a.22.22,0,0,1,0-.2h0a.22.22,0,0,0,0,.18Z"/><path class="cls-2" d="M21.58,9a.21.21,0,0,1,0-.19l0,0a.12.12,0,0,0,0,.15Z"/><path class="cls-2" d="M21.6,9.57a.61.61,0,0,1-.33-.17h0a.81.81,0,0,0,.33.16Z"/><path class="cls-2" d="M21.5,9.62a.85.85,0,0,1-.29-.16v0a1,1,0,0,0,.28.16Z"/><path class="cls-2" d="M21.5,9.7c-.14,0-.35-.2-.36-.2l0,0a1,1,0,0,0,.34.2Z"/><path class="cls-2" d="M22,10.11A.15.15,0,0,1,21.9,10c0-.08.11-.13.12-.14v0s-.1.06-.1.13,0,.06.05.09Z"/><path class="cls-2" d="M21.9,9.75l0,0,.35-.18v0Z"/><path class="cls-2" d="M22,9.81v0l.45-.26v0C22.33,9.6,22,9.81,22,9.81Z"/><path class="cls-2" d="M22.16,9.83v0l.45-.29v0Z"/><path class="cls-2" d="M22.36,9.82l0,0s.21-.16.41-.28v0A4.23,4.23,0,0,0,22.36,9.82Z"/><path class="cls-2" d="M22.33,9.37l.05,0a1.39,1.39,0,0,1,.37-.19v0a1.58,1.58,0,0,0-.29.14c.27-.09.36,0,.36,0h0s-.1-.14-.41,0Z"/><path class="cls-2" d="M23.09,8.7h0a.38.38,0,0,0,0-.19h0A.43.43,0,0,1,23.09,8.7Z"/><path class="cls-2" d="M22.56,9.09h0a.39.39,0,0,1,.25-.16h0A.16.16,0,0,0,23,9a.17.17,0,0,0,.12-.08.21.21,0,0,0,0-.16.3.3,0,0,0-.27-.18v0a.29.29,0,0,1,.29.19.24.24,0,0,1,0,.19A.22.22,0,0,1,23,9,.17.17,0,0,1,22.79,9,.49.49,0,0,0,22.56,9.09Z"/><path class="cls-2" d="M23.48,8.89v0a.33.33,0,0,0,.28-.33c0-.19-.22-.23-.23-.23v0s.24,0,.24.24A.34.34,0,0,1,23.48,8.89Z"/><path class="cls-2" d="M23.75,8.42h0a.53.53,0,0,1,.22-.2v0A.42.42,0,0,0,23.75,8.42Z"/><path class="cls-2" d="M23.87,8.27a.4.4,0,0,1-.11-.13h0s.07.1.1.11Z"/><path class="cls-2" d="M23.81,8.32a.75.75,0,0,0-.09-.09l0,0s.07.08.08.08Z"/><path class="cls-2" d="M23.77,8.36s-.06-.06-.07-.06l0,0,.06.06Z"/><path class="cls-2" d="M22.51,7.18l0,0a.15.15,0,0,1,.17,0v0C22.55,7.11,22.51,7.17,22.51,7.18Z"/><path class="cls-2" d="M23.14,7.73h0a.35.35,0,0,1,.15-.21.21.21,0,0,1,.19,0v0a.23.23,0,0,0-.18,0A.3.3,0,0,0,23.14,7.73Z"/><path class="cls-2" d="M23.36,7.52h0a.29.29,0,0,0,0-.2h0C23.39,7.37,23.36,7.51,23.36,7.52Z"/><path class="cls-2" d="M23.19,7.62l0,0a.11.11,0,0,0,0-.09h0A.14.14,0,0,1,23.19,7.62Z"/><path class="cls-5" d="M23.69,10.6s.28-.13.2-.35c0,0,0-.08-.09-.07s-.11,0-.09.15A.53.53,0,0,1,23.69,10.6Z"/><path class="cls-2" d="M23.69,10.61v0a.5.5,0,0,0,0-.26.16.16,0,0,1,0-.12.1.1,0,0,1,.08,0c.06,0,.09.07.1.07C24,10.47,23.7,10.61,23.69,10.61Zm.11-.42h0a.08.08,0,0,0-.06,0,.12.12,0,0,0,0,.11.52.52,0,0,1,0,.25c.06,0,.24-.15.17-.33C23.88,10.25,23.85,10.19,23.8,10.19Z"/><path class="cls-3" d="M23.79,10.47a.21.21,0,0,0,.06-.17s0,0,0,0,0,0,0,0a.18.18,0,0,1-.06.17h0Z"/><path class="cls-5" d="M24.1,10.4a.26.26,0,0,0,.09-.34A.09.09,0,0,0,24.1,10s-.13,0,0,.22A.32.32,0,0,1,24.1,10.4Z"/><path class="cls-2" d="M24.1,10.41h0a.32.32,0,0,0,0-.17c0-.07,0-.12,0-.16a.1.1,0,0,1,.06-.06c.07,0,.1.05.11.05A.27.27,0,0,1,24.1,10.41Zm0-.39a.07.07,0,0,0-.05.05.15.15,0,0,0,0,.15.4.4,0,0,1,0,.16.24.24,0,0,0,.07-.31A.07.07,0,0,0,24.1,10Z"/><path class="cls-3" d="M24.15,10.11s0,0,0,0,0,0,0,0a.16.16,0,0,1,0,.17s0,0,0,0,0,0,0,0A.18.18,0,0,0,24.15,10.11Z"/><path class="cls-5" d="M23.5,10.54a.24.24,0,0,1-.19-.28s0-.11.12-.09.11,0,0,.17A.22.22,0,0,0,23.5,10.54Z"/><path class="cls-2" d="M23.49,10.55a.25.25,0,0,1-.18-.3.11.11,0,0,1,.12-.09.11.11,0,0,1,.07.05.19.19,0,0,1,0,.14.22.22,0,0,0,0,.19Zm-.08-.37a.09.09,0,0,0-.09.08.25.25,0,0,0,.15.27.24.24,0,0,1,0-.19.14.14,0,0,0,0-.12.11.11,0,0,0-.05,0Z"/><path class="cls-3" d="M23.41,10.27a0,0,0,0,1,0,0h0a.12.12,0,0,1,0,.09.09.09,0,0,0,0,.07h0a.07.07,0,0,1,0-.07S23.44,10.3,23.41,10.27Z"/><path d="M23.66,10.11a.22.22,0,0,1,.23,0s0,0-.09-.07a.18.18,0,0,0-.17-.11.72.72,0,0,0,.12.11S23.68,10.06,23.66,10.11Z"/><path d="M23.75,9.77a.91.91,0,0,1,.12.11L24,9.81a.1.1,0,0,0-.08,0A.19.19,0,0,0,23.75,9.77Z"/><path d="M23.24,10.05a.1.1,0,0,1,0-.08h0a0,0,0,0,0,0,0h0a.24.24,0,0,1,0,.07.08.08,0,0,0,0,0Z"/><path d="M24.17,8.09v0s.13,0,.15-.11h0C24.32,8.08,24.18,8.09,24.17,8.09Z"/><path d="M24.4,8h0V8s.06,0,.06,0a.12.12,0,0,1,.1,0v0a.12.12,0,0,0-.08,0A.11.11,0,0,1,24.4,8Z"/><path d="M24,7.69a.18.18,0,0,0,.11,0,0,0,0,0,1,.07,0,.07.07,0,0,1,0,.09s-.09,0,0,.13-.15-.06-.09-.14.07,0,0-.07h0A.14.14,0,0,1,24,7.69Z"/><path class="cls-5" d="M24.07,6a.28.28,0,0,0,0-.17c0-.13.1-.14.14-.11s0,0,0,.12A.3.3,0,0,1,24.07,6Z"/><path class="cls-2" d="M24.07,6V6a.25.25,0,0,0,0-.16.11.11,0,0,1,.05-.12.08.08,0,0,1,.1,0s.05,0,0,.13A.38.38,0,0,1,24.07,6Zm.11-.3h0a.1.1,0,0,0,0,.11.53.53,0,0,1,0,.15.32.32,0,0,0,.13-.14c0-.08,0-.11,0-.11Z"/><path class="cls-3" d="M24.11,5.91a.16.16,0,0,0,0-.14h0a.25.25,0,0,1,0,.16,0,0,0,0,1,0,0A0,0,0,0,1,24.13,5.93Z"/><path class="cls-5" d="M24,6s0,0-.09-.14a.09.09,0,0,1,0-.17.11.11,0,0,1,.08.09A.31.31,0,0,1,24,6Z"/><path class="cls-2" d="M24,6h0s0,0-.09-.13a.12.12,0,0,1,0-.13.09.09,0,0,1,.08,0h0s.06,0,.09.09A.33.33,0,0,1,24,6ZM24,5.66a.1.1,0,0,0-.07,0,.11.11,0,0,0,0,.11.39.39,0,0,1,.08.11.27.27,0,0,0,0-.19A.1.1,0,0,0,24,5.66Z"/><path class="cls-3" d="M24,5.85a.2.2,0,0,0-.08-.13s0,0,0,0h0s.09.07.09.14a0,0,0,0,1,0,0A0,0,0,0,1,24,5.85Z"/><path class="cls-5" d="M23.91,5.92s0,0-.13-.08-.08-.13,0-.15a.09.09,0,0,1,.1,0A.28.28,0,0,1,23.91,5.92Z"/><path class="cls-2" d="M23.9,5.93s0,0-.12-.08a.13.13,0,0,1-.09-.09.08.08,0,0,1,0-.08.09.09,0,0,1,.11,0,.34.34,0,0,1,.07.2Zm-.14-.24h0a.07.07,0,0,0,0,.14.37.37,0,0,1,.12.07.22.22,0,0,0-.06-.16A.1.1,0,0,0,23.76,5.69Z"/><path class="cls-3" d="M23.86,5.85a.17.17,0,0,0-.12-.09h0s.11,0,.14.09,0,0,0,0A0,0,0,0,1,23.86,5.85Z"/><path class="cls-5" d="M24,6a.31.31,0,0,1-.17,0c-.12,0-.17,0-.15.1s0,.05.12,0A.31.31,0,0,0,24,6Z"/><path class="cls-2" d="M23.76,6.07A.15.15,0,0,1,23.65,6a.1.1,0,0,1,0-.1s.06,0,.14,0A.28.28,0,0,0,24,6h0a.29.29,0,0,1-.21.1Zm0-.16-.06,0a.09.09,0,0,0,0,.08s0,0,.11,0A.32.32,0,0,0,24,6a.5.5,0,0,1-.15-.05Z"/><path class="cls-3" d="M23.71,6a.15.15,0,0,0,.15,0h0a.21.21,0,0,1-.17,0s0,0,0,0Z"/><path d="M23.87,5.69h0a.09.09,0,0,0,0-.09v0A.1.1,0,0,1,23.87,5.69Z"/><path d="M24.08,5.72h0a.33.33,0,0,0,0-.1h0S24.11,5.68,24.08,5.72Z"/><path class="cls-5" d="M20,6s0,0,0-.17-.1-.14-.14-.11a.09.09,0,0,0,0,.12A.33.33,0,0,0,20,6Z"/><path class="cls-2" d="M20,6a.38.38,0,0,1-.17-.16c0-.09,0-.13,0-.13a.08.08,0,0,1,.1,0s.06,0,.06.12S20,6,20,6Zm-.1-.3,0,0s0,0,0,.11A.36.36,0,0,0,20,6a.31.31,0,0,1,0-.15.12.12,0,0,0,0-.11Z"/><path class="cls-3" d="M20,5.91a.16.16,0,0,1,0-.14h0a.2.2,0,0,0,0,.16s0,0,0,0A0,0,0,0,0,20,5.91Z"/><path class="cls-5" d="M20,6s0,0,.09-.14a.09.09,0,0,0,0-.17.11.11,0,0,0-.08.09A.36.36,0,0,0,20,6Z"/><path class="cls-2" d="M20,6a.38.38,0,0,1,0-.23c0-.09.08-.09.09-.09h0a.1.1,0,0,1,.08,0s0,.07,0,.13a.3.3,0,0,0-.09.13Zm.07-.31h0s-.05,0-.07.08a.32.32,0,0,0,0,.19.32.32,0,0,1,.09-.11.13.13,0,0,0,0-.11A.07.07,0,0,0,20.1,5.66Z"/><path class="cls-3" d="M20.06,5.85s0-.06.07-.13h0a.29.29,0,0,0-.09.14h0Z"/><path class="cls-5" d="M20.16,5.92a.32.32,0,0,1,.14-.08c.11,0,.08-.13,0-.15a.09.09,0,0,0-.1,0A.34.34,0,0,0,20.16,5.92Z"/><path class="cls-2" d="M20.17,5.93h0a.42.42,0,0,1,.07-.2c.06-.07.11,0,.11,0a.08.08,0,0,1,.05.08.1.1,0,0,1-.08.09C20.19,5.89,20.17,5.93,20.17,5.93Zm.14-.24s0,0-.07,0a.27.27,0,0,0-.07.16l.12-.07c.05,0,.07,0,.07-.07a.08.08,0,0,0,0-.07Z"/><path class="cls-3" d="M20.21,5.85a.21.21,0,0,1,.13-.09s0,0,0,0h0s-.11,0-.14.09h0S20.21,5.86,20.21,5.85Z"/><path class="cls-5" d="M20.09,6a.3.3,0,0,0,.17,0c.12,0,.17,0,.15.1s0,.05-.11,0A.35.35,0,0,1,20.09,6Z"/><path class="cls-2" d="M20.32,6.07h0a.29.29,0,0,1-.21-.1h0a.28.28,0,0,0,.16,0c.07,0,.12,0,.13,0a.1.1,0,0,1,0,.1A.1.1,0,0,1,20.32,6.07ZM20.12,6a.32.32,0,0,0,.18.07c.08,0,.1,0,.1,0a.09.09,0,0,0,0-.08.11.11,0,0,0-.11,0A.61.61,0,0,1,20.12,6Z"/><path class="cls-3" d="M20.37,6a.16.16,0,0,1-.15,0h0s0,0,0,0a.21.21,0,0,0,.17,0s0,0,0,0Z"/><path d="M20.21,5.69a.11.11,0,0,1,.05-.11v0a.09.09,0,0,0,0,.09Z"/><path d="M20,5.72a.17.17,0,0,1,0-.12h0a.11.11,0,0,0,0,.1Z"/><path d="M22.56,4.93a.45.45,0,0,1,0,.21c0,.08,0,.1,0,.12s.09,0,.1-.08a.19.19,0,0,1-.07.24.15.15,0,0,1-.19,0,.22.22,0,0,1,0-.19.43.43,0,0,0,0-.21.27.27,0,0,1,.05.19s0,.23.13.21a.12.12,0,0,0,.12-.14.11.11,0,0,1-.1,0,.1.1,0,0,1-.06-.11A2,2,0,0,0,22.56,4.93Z"/><path d="M22.37,5.3a.25.25,0,0,1-.17.22s0,0,0-.12a.18.18,0,0,1,0-.13s-.06,0,0,.15a.13.13,0,0,1,0,.14S22.43,5.53,22.37,5.3Z"/><path d="M22.16,5.12a.2.2,0,0,1,0-.14c0-.1,0-.13,0-.14a.45.45,0,0,1,0,.14.17.17,0,0,0,0,.11S22,5.11,22,5s-.11-.11-.14-.11,0,0,.1.11S22,5.12,22.16,5.12Z"/><path d="M21.75,4.86A.69.69,0,0,1,21.8,5a.22.22,0,0,1-.15-.14.14.14,0,0,0-.08.19A.33.33,0,0,1,21.41,5a.44.44,0,0,0,.12.07.16.16,0,0,1,.14-.16.19.19,0,0,0,.1.13Z"/><path d="M21.94,4.65a.16.16,0,0,0,.13.06.14.14,0,0,0,.12-.06.11.11,0,0,1-.12.1S21.94,4.76,21.94,4.65Z"/><path d="M21.43,5.36l.07.07s.05.05.08,0,.05-.09.11-.08a.27.27,0,0,0-.09.11,0,0,0,0,1-.05,0,.06.06,0,0,1-.06,0Z"/><path d="M22.07,4.23c-.13,0,0,.1,0,.1,0,.15-.12.2-.2.15s0-.15,0-.15a.11.11,0,0,0,0,.15c.06.09.22,0,.28,0a.19.19,0,0,0,.28,0,.11.11,0,0,0,0-.15s.07.11,0,.15-.2,0-.2-.15C22.09,4.33,22.19,4.23,22.07,4.23Z"/><path d="M22.14,4.07a.28.28,0,0,1,0,.18A.17.17,0,0,0,22.14,4.07Z"/><path d="M21.76,4.24a.11.11,0,0,0-.09-.09A.36.36,0,0,1,21.76,4.24Z"/><path d="M22.38,4.24a.11.11,0,0,1,.09-.09A.36.36,0,0,0,22.38,4.24Z"/><path d="M21.64,4.36a.1.1,0,0,0,.1,0Z"/><path d="M21.43,3.86s.07,0,.15.11a.27.27,0,0,0-.09.06.11.11,0,0,1,0-.07A.15.15,0,0,0,21.43,3.86Z"/><path d="M22.66,3.86s-.07,0-.15.11A.27.27,0,0,1,22.6,4a.11.11,0,0,0,0-.07A.15.15,0,0,1,22.66,3.86Z"/><path d="M22.09,4a.28.28,0,0,0,.15,0s.1-.06.17,0-.06,0-.17,0S22.13,4,22.09,4Z"/><path class="cls-3" d="M22.16,4a.23.23,0,0,1,.23-.08S22.34,4.07,22.16,4Z"/><path class="cls-6" d="M22.28,3.94s0,0,0,0,0,0,0,0,0,0,0,0S22.26,3.94,22.28,3.94Z"/><path d="M22.28,4l0,0s0,0,0,0,0,0,0,0A0,0,0,0,1,22.28,4Z"/><path d="M21.79,3.8a.53.53,0,0,1,.18.05.14.14,0,0,0,.15,0,.7.7,0,0,0,.14-.12.82.82,0,0,1-.18.11A.26.26,0,0,1,22,3.73a.34.34,0,0,1,.08-.1.18.18,0,0,0-.11.11.45.45,0,0,0,.05.09s0,0-.06,0A.29.29,0,0,0,21.79,3.8Z"/><path d="M22.07,4.45c-.09.08,0,.07,0,.07S22.16,4.53,22.07,4.45Z"/><path d="M22,4a.25.25,0,0,1-.14,0s-.1-.06-.17,0,.06,0,.17,0S22,4,22,4Z"/><path class="cls-3" d="M22,4a.23.23,0,0,0-.23-.08S21.77,4.07,22,4Z"/><path class="cls-6" d="M21.83,3.94s0,0,0,0,0,0,0,0a0,0,0,0,1,0,0A0,0,0,0,1,21.83,3.94Z"/><path d="M21.83,4l0,0s0,0,0,0,0,0,0,0Z"/><path d="M22.06,11.56h0a8.61,8.61,0,0,1-1.67-.48c-1.09-.45-1.67-1.06-1.67-1.75V3.1h6.69V9.33c0,.69-.58,1.3-1.68,1.75a8.62,8.62,0,0,1-1.66.48Zm-3.28-8.4V9.33c0,1.59,3.14,2.15,3.28,2.17s3.29-.58,3.29-2.17V3.16Z"/></g></g></g></svg>