<svg xmlns="http://www.w3.org/2000/svg" viewBox="0 0 27.05 16"><defs><style>.cls-1{fill:#fff;}.cls-2{fill:#d8d8d8;}.cls-3{fill:#003893;}.cls-3,.cls-4,.cls-5{fill-rule:evenodd;}.cls-4{fill:#dc143c;}.cls-5{fill:#fdfefd;}</style></defs><title>flag_524</title><g id="レイヤー_2" data-name="レイヤー 2"><g id="flag"><rect class="cls-1" x="0.01" width="26.89" height="15.9"/><path class="cls-2" d="M26.85.2V15.8H.2V.2H26.85m.2-.2H0V16H27.05V0Z"/><polygon class="cls-3" points="6.92 0.04 19.88 8.29 11.76 8.29 19.42 15.94 6.92 16 6.92 0.04"/><polygon class="cls-4" points="7.41 0.98 18.17 7.74 10.6 7.82 18.29 15.47 7.41 15.4 7.41 0.98"/><path class="cls-5" d="M9,6.36l.16-.12-.36-.31.43-.07L9,5.44l.47.09-.07-.47.4.21.12-.41.26.33.28-.35.09.45.4-.28,0,.43.41,0-.15.41.35.07-.35.26.21.19s.83-.61.95-1.16A2.21,2.21,0,0,1,10.2,7.37C8.47,7.5,8,5.51,8,5.21A2.33,2.33,0,0,0,9,6.36Z"/><polygon class="cls-5" points="9.1 12.66 8.99 13.59 9.77 13.02 10.17 13.94 10.55 13.02 11.31 13.59 11.18 12.68 12.19 12.73 11.62 12.02 12.5 11.59 11.62 11.22 12.19 10.45 11.24 10.6 11.31 9.6 10.56 10.19 10.15 9.27 9.77 10.14 9.01 9.57 9.13 10.55 8.15 10.43 8.72 11.22 7.89 11.61 8.73 12 8.16 12.78 9.1 12.66"/></g></g></svg>