<svg xmlns="http://www.w3.org/2000/svg" viewBox="0 0 26.97 15.72"><defs><style>.cls-1{fill:#ed1c24;}.cls-2{fill:#fff;}.cls-3{fill:#00a651;}</style></defs><title>flag_422</title><g id="レイヤー_2" data-name="レイヤー 2"><g id="flag"><rect class="cls-1" width="26.97" height="15.72"/><rect class="cls-2" y="3.93" width="26.97" height="7.86"/><path class="cls-3" d="M13.38,3.93a2.48,2.48,0,0,1-.79.84s-.17.13-.08.19c.08-.09.29,0,.17.12a3.06,3.06,0,0,1-.38.23,1.19,1.19,0,0,0-.3.21c0,.14.17.06.25.12s0,.27-.17.23a.42.42,0,0,0-.33.28c-.13.19-.36.25-.55.36l-.31.21a.13.13,0,0,0,.12.22c.15,0,.28-.13.44-.1a.28.28,0,0,1,.13.36.84.84,0,0,1-.19.25.84.84,0,0,1-.41.22.82.82,0,0,0-.38.26,3.05,3.05,0,0,1-.36.32c0,.1.07.19.17.19s.34-.18.52-.26a.21.21,0,0,1,.28.24c0,.15-.15.22-.27.26a3.51,3.51,0,0,0-.94.73c-.06.12-.21.08-.3.16s.08.16.16.15a2.92,2.92,0,0,0,1-.36c.12-.06.22-.13.35-.17s.27,0,.29.15-.14.21-.24.26a6.56,6.56,0,0,1-1,.38c-.13,0-.23.2-.09.24a1.26,1.26,0,0,0,.47,0,7,7,0,0,0,1.36-.5.43.43,0,0,1,.5.2.5.5,0,0,1,0,.52,1.89,1.89,0,0,1-.71.83,2.5,2.5,0,0,0-.6.29c-.16.05.08.27.11.1a.52.52,0,0,1,.41-.17,1.13,1.13,0,0,0,.65-.22c.16-.12.32-.29.53-.3s.24.11.36.05.27,0,.3.11.21.22.33.3.19.23.23.08,0-.26.15-.23.23,0,.35.06a.62.62,0,0,1,.38.27c.06.08.19.23.29.12s-.06-.21-.15-.25a2.83,2.83,0,0,1-.38-.31,1.06,1.06,0,0,1-.36-.63,2.68,2.68,0,0,1,0-.76.27.27,0,0,1,.39-.16,1.37,1.37,0,0,0,.63.21,3.77,3.77,0,0,1,1,0c.32.1.55.37.86.49a.13.13,0,0,0,.18-.07.15.15,0,0,0-.06-.19,7.84,7.84,0,0,0-1.27-.82A.17.17,0,0,1,16,9a.44.44,0,0,1,.53.06.79.79,0,0,0,.39.12c.14,0,.07-.25-.05-.27a4.19,4.19,0,0,1-.6-.52.79.79,0,0,0-.4-.22,1.05,1.05,0,0,0-.26,0c-.08-.09,0-.22.13-.21a1.56,1.56,0,0,0,.32,0l.36,0c.1.07.29,0,.2-.16s-.23-.08-.35-.12a5.38,5.38,0,0,0-.61-.16c-.14,0-.13-.2,0-.22s.16,0,.24,0,.28,0,.41.06,0-.23-.08-.24a2.66,2.66,0,0,1-.67-.4c-.23-.17-.44-.37-.67-.54s-.22-.07-.25-.18.12-.16.21-.13.24.1.37.13a1.06,1.06,0,0,0,.3,0c.12-.08-.05-.13-.12-.15A3.6,3.6,0,0,1,15,5.54c-.13-.11.11-.15.19-.11s.15-.14,0-.19A2,2,0,0,1,14.89,5a1.45,1.45,0,0,0-.65-.28.88.88,0,0,1-.65-.41A2.54,2.54,0,0,1,13.38,3.93ZM12.5,5.42c.14,0,.12.25,0,.23S12.36,5.39,12.5,5.42Zm1.29.13c.13,0,.16.22,0,.23S13.63,5.54,13.8,5.55Zm-.38,0c.14,0,.11.26,0,.26s-.21.09-.31,0,0-.22.13-.24Zm.87,0a.15.15,0,0,1-.05.27.14.14,0,0,1-.07-.25A.33.33,0,0,1,14.29,5.59Zm-1.47.26a.2.2,0,0,1-.08.31c-.09,0-.2.16-.29.07s.08-.2.15-.26A.57.57,0,0,1,12.82,5.85Zm1.09.51a.16.16,0,0,1-.08.3.14.14,0,0,1,0-.26Zm-.43,0c.13.06,0,.27-.1.24s-.13-.25,0-.23Zm.94.12a.21.21,0,0,1,.26.25.27.27,0,0,1-.33.09c-.13,0-.21-.2-.1-.28A.31.31,0,0,1,14.42,6.5Zm-2.08,0c.12-.06.24.13.14.21a.19.19,0,0,1-.31,0C12.11,6.67,12.21,6.5,12.34,6.54Zm-.54.09a.38.38,0,0,1,.27.25.17.17,0,0,1-.28.11.27.27,0,0,1-.14-.31A.14.14,0,0,1,11.8,6.63Zm3.21.5a.16.16,0,0,1,.12.27c-.11.1-.33,0-.27-.18A.19.19,0,0,1,15,7.13Zm-1.82.26c.12,0,.08.22,0,.22S13.07,7.38,13.19,7.39Zm-.61.11c.1-.07.22.1.14.18S12.5,7.58,12.58,7.5Zm1,0a.44.44,0,0,1,.19.33.16.16,0,0,1-.29,0A.24.24,0,0,1,13.55,7.52Zm.34.2c.15,0,.09.27,0,.16A.12.12,0,0,1,13.89,7.72Zm-2.12.21c.1,0,.24,0,.26.11s-.1.16-.19.18a1.17,1.17,0,0,1-.41.1.5.5,0,0,1-.19-.3c.1-.1.26-.07.39-.09Zm3.29.48c.12-.06.26.14.15.23a.4.4,0,0,1-.53.05c0-.13.11-.23.23-.25A.48.48,0,0,1,15.06,8.42Zm.69.15a.17.17,0,0,1,.15.28.31.31,0,0,1-.45.06.23.23,0,0,1,.16-.28Zm-3.49.21a.22.22,0,0,1,.23.24c.09.09-.07.26-.17.17a.87.87,0,0,1-.11-.36S12.23,8.77,12.26,8.78Zm1,.07c.13-.06.31.1.23.24s-.26.07-.25-.05A.57.57,0,0,1,13.26,8.85Zm-.49.09A.18.18,0,0,1,13,9.2C12.82,9.21,12.75,9.05,12.77,8.94Z"/></g></g></svg>