<svg xmlns="http://www.w3.org/2000/svg" viewBox="0 0 27.15 15.9"><defs><style>.cls-1{fill:#00785e;}.cls-2{fill:#fbd116;}.cls-3{fill:#fff;}</style></defs><title>flag_446</title><g id="レイヤー_2" data-name="レイヤー 2"><g id="flag"><rect class="cls-1" width="27.15" height="15.9"/><polygon class="cls-2" points="13.57 1.91 12.99 3.71 14.52 2.59 12.63 2.59 14.16 3.71 13.57 1.91"/><g id="h"><path class="cls-3" d="M13.57,11H9.71l-.14-.15h4a.09.09,0,0,1,.06.07A.08.08,0,0,1,13.57,11Zm0-1.18a.44.44,0,0,0,0-.29.38.38,0,0,0,0-.14,3.06,3.06,0,0,1-1.22.71,2.91,2.91,0,0,1-.89.14H9.08l.22.3h2.3A3,3,0,0,0,13.57,9.82ZM9.44,8.89A1.45,1.45,0,0,1,9.08,9a3.05,3.05,0,0,0,4.49.09,16,16,0,0,0,.18-2.22,17.25,17.25,0,0,0-.18-2.55,3.22,3.22,0,0,0-.93,1.44,3.16,3.16,0,0,0-.13.87A3,3,0,0,0,13,8.3a3,3,0,0,1-.64-1.87,3.18,3.18,0,0,1,.29-1.31,1.19,1.19,0,0,1-.28-.49A3.06,3.06,0,0,0,12.6,8,3.57,3.57,0,0,0,10,6.84H9.84a1,1,0,0,1,.25.33,3.58,3.58,0,0,1,2.59,1.11,3.59,3.59,0,0,0-2.3-.84A3.51,3.51,0,0,0,9,7.73a3,3,0,0,0,2.86,2h.25a3.29,3.29,0,0,1-.54.05A3.06,3.06,0,0,1,9.44,8.89Zm4.13,3.34h-2a5.36,5.36,0,0,0,2,.39.4.4,0,0,0,0-.19A.44.44,0,0,0,13.57,12.23Zm0-.92H10l.3.24h3.23a.19.19,0,0,0,0-.12A.17.17,0,0,0,13.57,11.31Zm0,.47H10.68a5.86,5.86,0,0,0,.55.3h2.34a.25.25,0,0,0,0-.16A.21.21,0,0,0,13.57,11.78Z"/><polygon class="cls-2" points="9.78 4.69 9.22 5.88 10.37 5.24 9.07 5.08 10.03 5.98 9.78 4.69"/><polygon class="cls-2" points="10.72 3.11 11.11 4.36 11.53 3.13 10.46 3.88 11.77 3.9 10.72 3.11"/></g><path class="cls-3" d="M13.57,11h3.87l.14-.15h-4a.08.08,0,0,0-.05.07A.09.09,0,0,0,13.57,11Zm0-1.18a.54.54,0,0,1,0-.29.84.84,0,0,1,0-.14,3.19,3.19,0,0,0,1.23.71,2.91,2.91,0,0,0,.89.14h2.38l-.22.3H15.54A3.06,3.06,0,0,1,13.57,9.82Zm4.14-.93a1.35,1.35,0,0,0,.36.08,3.06,3.06,0,0,1-4.5.09,17.78,17.78,0,0,1-.17-2.22,17.36,17.36,0,0,1,.17-2.55,3.14,3.14,0,0,1,.94,1.44,3.15,3.15,0,0,1,.12.87,3.09,3.09,0,0,1-.51,1.7,3,3,0,0,0,.34-3.18,1.21,1.21,0,0,0,.29-.49,3.09,3.09,0,0,1,.39,1.51A3,3,0,0,1,14.54,8a3.59,3.59,0,0,1,2.61-1.12h.16a1,1,0,0,0-.25.33,3.58,3.58,0,0,0-2.59,1.11,3.57,3.57,0,0,1,2.3-.84,3.51,3.51,0,0,1,1.38.28,3.05,3.05,0,0,1-2.86,2H15a3.19,3.19,0,0,0,.54.05A3.06,3.06,0,0,0,17.71,8.89Zm-4.14,3.34h2a5.37,5.37,0,0,1-2,.39.61.61,0,0,1,0-.19A.69.69,0,0,1,13.57,12.23Zm0-.92H17.1l-.29.24H13.57a.31.31,0,0,1,0-.12A.25.25,0,0,1,13.57,11.31Zm0,.47h2.9a5.86,5.86,0,0,1-.55.3H13.57a.35.35,0,0,1,0-.16A.29.29,0,0,1,13.57,11.78Z"/><polygon class="cls-2" points="17.37 4.69 17.93 5.88 16.78 5.24 18.08 5.08 17.12 5.98 17.37 4.69"/><polygon class="cls-2" points="16.43 3.11 16.04 4.36 15.62 3.13 16.69 3.88 15.38 3.9 16.43 3.11"/></g></g></svg>