<svg xmlns="http://www.w3.org/2000/svg" viewBox="0 0 27.05 16"><defs><style>.cls-1{fill:#ed1c24;}.cls-2{fill:#fdfefd;}.cls-3{fill:#005da4;}.cls-4{fill:#fff;}.cls-5{fill:#ede93b;}.cls-6{fill:#d8d8d8;}</style></defs><title>flag_705</title><g id="レイヤー_2" data-name="レイヤー 2"><g id="flag"><rect class="cls-1" x="0.07" y="0.07" width="26.92" height="15.9"/><rect class="cls-2" x="0.07" y="0.03" width="26.92" height="5.16"/><rect class="cls-3" x="0.07" y="5.25" width="26.92" height="5.66"/><path class="cls-1" d="M3.44,1.89a8.38,8.38,0,0,1,2.65-.57,5.52,5.52,0,0,1,2.69.6s-.13,2.9-.31,3.77A3.33,3.33,0,0,1,6.1,8.13S4,7.31,3.74,5.62A24,24,0,0,1,3.44,1.89Z"/><path class="cls-3" d="M6.11,7.92A4.39,4.39,0,0,0,7.93,6.46c.58-.93.65-3,.64-4.65a6.35,6.35,0,0,0-4.9,0S3.76,5,3.91,5.46A3.34,3.34,0,0,0,6.11,7.92Z"/><path class="cls-4" d="M4.09,5.41,5,4.15l.48.47.59-1.15.61,1.17.39-.49,1,1.29a.79.79,0,0,1-.66.68A1.15,1.15,0,0,1,7,6s-.27-.07-.36,0S6,6.32,5.73,6,5.2,6,5.06,6a.58.58,0,0,1-.79-.18A1.14,1.14,0,0,1,4.09,5.41Z"/><path class="cls-4" d="M4.65,6.69a2.6,2.6,0,0,0,1.42,1,2.67,2.67,0,0,0,1.45-1,.7.7,0,0,1-.35,0,1.76,1.76,0,0,0-.48-.14c-.1,0-.24.15-.32.16s-.34.11-.47,0a1,1,0,0,0-.5-.15,1.1,1.1,0,0,1-.33.11A3.29,3.29,0,0,1,4.65,6.69Z"/><path class="cls-4" d="M4.34,6.21a.56.56,0,0,0,.5.29c.35,0,.46-.21.58-.2s.42.22.64.19.29-.18.62-.19.37.17.64.18a.5.5,0,0,0,.51-.28s0,0-.17.06a.69.69,0,0,1-.54,0,.81.81,0,0,0-.64-.08c-.18.1-.46.21-.62.12a.76.76,0,0,0-.68-.09.59.59,0,0,1-.71,0S4.32,6.15,4.34,6.21Z"/><polygon class="cls-5" points="5.4 1.61 5.47 1.76 5.64 1.74 5.54 1.88 5.64 2.02 5.47 2 5.4 2.15 5.33 2 5.17 2.02 5.27 1.88 5.17 1.74 5.33 1.76 5.4 1.61"/><polygon class="cls-5" points="6.1 2.51 6.17 2.66 6.34 2.65 6.24 2.78 6.34 2.92 6.17 2.9 6.1 3.06 6.03 2.9 5.86 2.92 5.96 2.78 5.86 2.65 6.03 2.66 6.1 2.51"/><polygon class="cls-5" points="6.8 1.6 6.87 1.75 7.04 1.73 6.94 1.87 7.04 2 6.87 1.99 6.8 2.14 6.73 1.99 6.56 2 6.66 1.87 6.56 1.73 6.73 1.75 6.8 1.6"/><path class="cls-6" d="M26.85.2V15.8H.2V.2H26.85m.2-.2H0V16H27.05V0Z"/></g></g></svg>