<svg xmlns="http://www.w3.org/2000/svg" viewBox="0 0 26.89 15.9"><defs><style>.cls-1{fill:#00008b;}.cls-2{fill:#fff;}.cls-3{fill:red;}</style></defs><title>flag_036</title><g id="レイヤー_2" data-name="レイヤー 2"><g id="flag"><rect class="cls-1" width="26.89" height="15.9"/><polygon class="cls-2" points="0 0.7 2.54 1.97 0.03 2.03 0.03 4.09 2.54 4.09 0.03 5.44 0 6.21 1.51 6.19 5.14 4.32 5.14 6.12 7.22 6.1 7.22 4.34 10.78 6.14 12.3 6.09 12.29 5.34 9.8 4.07 12.29 4.04 12.27 2.01 9.82 2.01 12.27 0.75 12.29 0 10.71 0.03 7.2 1.76 7.22 0.03 5.16 0.03 5.12 1.76 1.64 0 0 0 0 0.7"/><polygon class="cls-3" points="12.27 2.42 6.76 2.44 6.76 0.03 5.62 0.03 5.62 2.44 0 2.46 0.02 3.59 5.62 3.6 5.62 6.1 6.76 6.1 6.76 3.6 12.27 3.61 12.27 2.42"/><polygon class="cls-3" points="3.1 2.02 4.09 1.99 0.12 0 0.05 0.03 0.04 0.46 3.1 2.02"/><polygon class="cls-3" points="0 6.21 1.02 6.21 5.08 4.08 4.12 4.07 0 6.21"/><polygon class="cls-3" points="7.3 1.99 11.23 0.01 12.22 0.01 8.29 2.02 7.3 1.99"/><polygon class="cls-3" points="8.29 4.07 9.27 4.05 12.3 5.62 12.3 6.09 8.29 4.07"/><polygon class="cls-2" points="6.37 10.94 7.31 10.66 6.81 11.51 7.61 12.08 6.64 12.21 6.7 13.2 5.98 12.52 5.25 13.18 5.33 12.2 4.36 12.04 5.18 11.49 4.71 10.63 5.64 10.93 6.02 10.02 6.37 10.94"/><polygon class="cls-2" points="21.04 2.38 21.57 2.22 21.29 2.7 21.75 3.02 21.2 3.1 21.23 3.66 20.82 3.27 20.41 3.65 20.46 3.09 19.91 3 20.37 2.69 20.1 2.21 20.63 2.37 20.84 1.86 21.04 2.38"/><polygon class="cls-2" points="21 10.51 21.53 10.35 21.25 10.83 21.7 11.15 21.15 11.23 21.18 11.79 20.78 11.4 20.37 11.78 20.41 11.22 19.86 11.13 20.33 10.82 20.06 10.34 20.59 10.5 20.8 9.99 21 10.51"/><polygon class="cls-2" points="24.44 4.67 24.75 4.58 24.59 4.86 24.85 5.04 24.53 5.09 24.55 5.41 24.31 5.19 24.07 5.41 24.1 5.08 23.78 5.03 24.05 4.85 23.89 4.57 24.2 4.67 24.32 4.37 24.44 4.67"/><polygon class="cls-2" points="17.43 6.14 17.74 6.05 17.58 6.33 17.84 6.52 17.52 6.56 17.54 6.89 17.3 6.67 17.06 6.88 17.09 6.56 16.77 6.51 17.04 6.33 16.88 6.04 17.19 6.14 17.32 5.84 17.43 6.14"/><polygon class="cls-2" points="22.1 7.44 22.33 7.38 22.21 7.58 22.41 7.72 22.17 7.76 22.18 8 22.01 7.83 21.83 8 21.85 7.75 21.61 7.71 21.81 7.58 21.69 7.37 21.92 7.44 22.02 7.22 22.1 7.44"/></g></g></svg>