<svg xmlns="http://www.w3.org/2000/svg" viewBox="0 0 26.55 15.67"><defs><style>.cls-1,.cls-9{fill:red;}.cls-2{fill:#060;}.cls-3{fill:#cf2821;}.cls-10,.cls-11,.cls-3,.cls-4,.cls-5,.cls-6,.cls-7,.cls-8,.cls-9{fill-rule:evenodd;}.cls-4{fill:#140f06;}.cls-5{fill:#006033;}.cls-6{fill:#81782b;}.cls-7{fill:#f4e027;}.cls-8{fill:#fff;}.cls-10{fill:#177e3b;}.cls-11{fill:#e71e18;}</style></defs><title>flag_620</title><g id="レイヤー_2" data-name="レイヤー 2"><g id="flag"><rect class="cls-1" x="0.2" y="0.04" width="26.35" height="15.58"/><rect class="cls-2" width="10.04" height="15.67"/><path class="cls-3" d="M11.69,10.28s-.06.12-.09.11S11.67,10.33,11.69,10.28Z"/><path class="cls-4" d="M8.21,10.39s.06,0,0,.06S8.2,10.42,8.21,10.39Z"/><path class="cls-4" d="M11.75,10.39s0,.06,0,.06S11.72,10.4,11.75,10.39Z"/><path class="cls-3" d="M12.17,11c-.14,0-.3,0-.46.07s.14-.12.17-.2Z"/><path class="cls-5" d="M7.34,11.36a16.87,16.87,0,0,0,2.41.3v.76A3.77,3.77,0,0,1,7.34,11.36Z"/><path class="cls-6" d="M10.58,11.6s0,0,0,0-.06,0-.09,0S10.56,11.61,10.58,11.6Z"/><path class="cls-7" d="M9.77,11.66h0s0,0,0,0a11,11,0,0,1,0,1.14s0,.12,0,.14,0-.1,0-.13C9.76,12.46,9.78,12,9.77,11.66Z"/><path class="cls-7" d="M10.18,11.66h0c0,.43,0,.91,0,1.3-.07,0,0-.09,0-.12,0-.38,0-.81,0-1.16C10.16,11.67,10.18,11.68,10.18,11.66Z"/><path class="cls-7" d="M10.11,12.91H9.87V11.68h.24Z"/><path class="cls-6" d="M9.87,12.91h.24A.62.62,0,0,1,9.87,12.91Z"/><path class="cls-6" d="M11.73,11l.12-.12A.72.72,0,0,1,11.73,11Z"/><path class="cls-7" d="M14.3,8.91h0V8.87S14.3,8.89,14.3,8.91Z"/><path class="cls-6" d="M13.06,10.83a.54.54,0,0,1,.1.1A.56.56,0,0,1,13.06,10.83Z"/><path class="cls-6" d="M13.18,10.84l.11.11Z"/><path class="cls-6" d="M8.84,10.45A.24.24,0,0,0,9,10.33S8.87,10.45,8.84,10.45Z"/><path class="cls-6" d="M11,10.36l.1.1Z"/><path class="cls-6" d="M8.14,10.44s.07-.06.09-.1,0,0,.06.05,0,0-.05,0S8.18,10.41,8.14,10.44Z"/><path class="cls-7" d="M8.29,10.39s0,0,0,0-.07.07-.1.11-.06-.06-.09-.09.06-.07.1-.09S8.27,10.38,8.29,10.39Zm0,.07s0-.06,0-.06S8.22,10.46,8.25,10.46Z"/><path class="cls-6" d="M11.64,10.43c0-.1.14-.1.18,0C11.76,10.36,11.69,10.32,11.64,10.43Z"/><path class="cls-7" d="M11.82,10.44a.18.18,0,0,1-.09.09s-.07-.06-.09-.1S11.76,10.36,11.82,10.44Zm-.11,0s.06,0,0-.06S11.69,10.43,11.71,10.46Z"/><path class="cls-6" d="M8.81,10.53,9,10.35Z"/><path class="cls-6" d="M8.48,10.86l.18-.18Z"/><path class="cls-7" d="M9,10.35H9c0,.06-.07.11-.11.15l-.28.28s-.09.11-.15.11,0,0,0,0l.18-.18.15-.15Z"/><path class="cls-6" d="M10.94,10.39l.51.51Z"/><path class="cls-7" d="M11.33,10.68a.25.25,0,0,0,0-.22c-.13,0-.19.09-.24,0s.19-.12.28-.07S11.42,10.76,11.33,10.68Z"/><path class="cls-6" d="M8.5,10.57s0-.06,0-.08a.47.47,0,0,0-.16.16c0-.07.12-.12.16-.19S8.5,10.53,8.5,10.57Z"/><path class="cls-6" d="M8.47,10.82s.12-.07.1-.12S8.5,10.83,8.47,10.82Z"/><path class="cls-6" d="M11.39,10.72s.07.07.1.11S11.39,10.75,11.39,10.72Z"/><path class="cls-7" d="M11.64,10.64a.85.85,0,0,1-.15.19s-.07-.07-.1-.11a.35.35,0,0,0,.07-.25C11.52,10.52,11.58,10.59,11.64,10.64Z"/><path class="cls-6" d="M11.46,10.47a.87.87,0,0,1,.18.17C11.58,10.59,11.52,10.52,11.46,10.47Z"/><path class="cls-6" d="M8.6,10.5s.08,0,.09,0S8.61,10.47,8.6,10.5Z"/><path class="cls-6" d="M8.63,10.62s0,0,0,0a.36.36,0,0,0,.12-.11s0,0,0,0-.07.11-.11.14S8.63,10.63,8.63,10.62Z"/><path class="cls-6" d="M11.19,10.53s.08.08.11.12S11.2,10.56,11.19,10.53Z"/><path class="cls-6" d="M7.11,11.26a2.75,2.75,0,0,1,.23.23Z"/><path class="cls-7" d="M7.11,11.26c-.09-.11-.21-.24-.3-.36s-.07-.09-.05-.12.11.08.14.12a3.81,3.81,0,0,0,2.63,1.53l.13,0s.11,0,.09.05-.12,0-.17,0a3.86,3.86,0,0,1-2.23-1A2.75,2.75,0,0,0,7.11,11.26Z"/><path class="cls-7" d="M12.35,10.93c-.17.08-.29-.07-.44-.11s0,0,0-.06S12.21,10.88,12.35,10.93Z"/><path class="cls-6" d="M7,11.52l.1.1A.46.46,0,0,1,7,11.52Z"/><path class="cls-7" d="M7,11.52a3.86,3.86,0,0,1-.49-.61c0-.06.14-.08.2-.12a4,4,0,0,0,3,1.76v.24a4.09,4.09,0,0,1-2.66-1.17Z"/><path class="cls-7" d="M13.06,10.88a9,9,0,0,1-1.5.28s.07-.06.08-.09c.48-.05.93-.14,1.38-.23l0,0A0,0,0,0,1,13.06,10.88Z"/><path class="cls-7" d="M12.65,11.48a3.81,3.81,0,0,1-2.42,1c0-.11.14-.07.2-.08A3.79,3.79,0,0,0,13,11s.08-.15.13-.1-.08.15-.1.18l-.15.17Z"/><path class="cls-6" d="M12.65,11.48l.21-.21A2.07,2.07,0,0,1,12.65,11.48Z"/><path class="cls-7" d="M6.81,11.48c-.1-.11-.22-.26-.32-.41s-.1-.1,0-.14.14.16.2.24.16.17.21.25l.12.12.07.07a.7.7,0,0,0,.12.12,4.17,4.17,0,0,0,2.4,1.06s.17,0,.16.06-.13,0-.19,0A4.21,4.21,0,0,1,7.13,11.8l-.1-.1a.6.6,0,0,1-.11-.11Z"/><path class="cls-6" d="M6.81,11.48l.1.1Z"/><path class="cls-6" d="M7,11.69l.1.1Z"/><path class="cls-6" d="M7.05,11.62l.12.12A.7.7,0,0,1,7.05,11.62Z"/><path class="cls-6" d="M6.86,11.43l.12.12Z"/><path class="cls-7" d="M10.92,11.5c.09-.05.2-.08.31-.14a2.41,2.41,0,0,1,.26-.17,2.55,2.55,0,0,1,.39,0L13,10.94c-.06.07-.12.2-.21.25a2.29,2.29,0,0,1-.45.1A11.88,11.88,0,0,1,10.92,11.5Z"/><path class="cls-7" d="M12.83,11.68a4.11,4.11,0,0,1-2.6,1.11v-.24A3.9,3.9,0,0,0,13.14,11c.08,0,.11.12.17.17a2.81,2.81,0,0,1-.29.35Z"/><path class="cls-6" d="M12.83,11.68l.2-.2Z"/><path class="cls-7" d="M6.43,11s0,0-.05,0l0,0S6.42,11,6.43,11Z"/><path class="cls-7" d="M10.23,12.87c0-.08.06-.05.09-.06l.41,0A4.22,4.22,0,0,0,13.2,11.3s.08-.11.14-.13,0,.14-.08.19a4.29,4.29,0,0,1-2,1.35A3.25,3.25,0,0,1,10.23,12.87Z"/><path class="cls-7" d="M9.3,11.6a11.28,11.28,0,0,1-2-.29s-.06-.06-.08-.09c.42.09.92.18,1.41.25a3.06,3.06,0,0,1,.75.13S9.32,11.6,9.3,11.6Z"/><path class="cls-6" d="M12.66,11.33l.1-.09S12.7,11.31,12.66,11.33Z"/><path class="cls-7" d="M10.58,11.6a10.86,10.86,0,0,1,1.26-.19l.47-.08a3,3,0,0,1,.46-.09l-.1.09a10.39,10.39,0,0,1-2.05.28S10.58,11.61,10.58,11.6Z"/><path class="cls-7" d="M13.39,11.27c0,.07,0,.08-.08.08S13.34,11.27,13.39,11.27Z"/><path class="cls-6" d="M9.77,11.66c0,.35,0,.79,0,1.17,0,0,0,.11,0,.13s0-.1,0-.14a11,11,0,0,0,0-1.14s0,0,0,0,.06.21.06.31v.69c0,.12,0,.24,0,.32s-.05-.2-.05-.3C9.76,12.36,9.76,12,9.77,11.66Z"/><path class="cls-6" d="M10.2,11.66c0,.36,0,.8,0,1.19,0,0,0,.12,0,.12s0-.09,0-.13c0-.28,0-.55,0-.86,0-.1,0-.32.05-.32s0,0,0,0c0,.35,0,.78,0,1.16,0,0,0,.12,0,.12C10.23,12.57,10.19,12.09,10.2,11.66Z"/><path class="cls-7" d="M8.69,10.48s0,0,.07,0,0,0,0,0a.36.36,0,0,1-.12.11s0,0,0,0a.18.18,0,0,1,0-.12S8.65,10.48,8.69,10.48Z"/><path class="cls-7" d="M8.5,10.57a.4.4,0,0,0,.06.13c0,.05-.06.09-.1.12a1.8,1.8,0,0,1-.13-.17.47.47,0,0,1,.16-.16S8.48,10.56,8.5,10.57Z"/><path class="cls-7" d="M13.78,10.71s0,.06-.05.05S13.75,10.71,13.78,10.71Z"/><path class="cls-6" d="M9.36,11.59c.12,0,0,0-.06,0S9.36,11.62,9.36,11.59Z"/><path class="cls-7" d="M10.94,10.39s0,0,0,0,.11.07.15.11l.28.28s.11.09.11.15,0,0,0,0Z"/><path class="cls-7" d="M7.8,10.46A3.47,3.47,0,0,0,6.36,11c-.06-.12.11-.18.2-.23a4.69,4.69,0,0,1,1.16-.36S7.77,10.39,7.8,10.46Z"/><path class="cls-7" d="M8.82,10.5c-.07,0-.13-.08-.23,0s.07.19,0,.24a.21.21,0,0,1-.07-.28C8.64,10.37,8.84,10.41,8.82,10.5Z"/><path class="cls-7" d="M11.19,10.53a.15.15,0,0,1,.17-.05c0,.08,0,.15-.06.17S11.23,10.57,11.19,10.53Z"/><path class="cls-7" d="M8.41,11.15a13.82,13.82,0,0,1-1.49-.25s0-.06-.06-.08c.46.06.95.2,1.46.24C8.35,11.09,8.42,11.12,8.41,11.15Z"/><path class="cls-7" d="M9,11.47a8.1,8.1,0,0,1-1.39-.19,2.1,2.1,0,0,1-.44-.09c-.08,0-.16-.2-.21-.25s0,0,0,0c.35.08.73.15,1.12.2a2.65,2.65,0,0,1,.39.05C8.66,11.24,8.8,11.44,9,11.47Z"/><path class="cls-6" d="M9.77,4.28V5.65C9.76,5.21,9.76,4.71,9.77,4.28Z"/><path class="cls-7" d="M9.77,4.28h.06V5.65H9.77Z"/><path class="cls-6" d="M9.83,4.28c0,.43,0,.94,0,1.37Z"/><path class="cls-6" d="M10.14,4.28V5.65C10.12,5.21,10.12,4.71,10.14,4.28Z"/><path class="cls-7" d="M10.14,4.28h.06V5.65h-.06Z"/><path class="cls-6" d="M10.2,4.28c0,.43,0,.94,0,1.37Z"/><path class="cls-7" d="M10.11,4.33V5.65H9.87c0-.44,0-.9,0-1.32Z"/><path class="cls-6" d="M7.43,5.68c.28,0,.6,0,.89,0H7.43Z"/><path class="cls-5" d="M8.32,5.68h0c.43,0,.89,0,1.3,0Z"/><path class="cls-8" d="M7.43,5.68h5.11V9.23a2.53,2.53,0,0,1-.68,1.6l-.12.12A2.55,2.55,0,0,1,7.51,9.72a5.38,5.38,0,0,1-.08-1.28Zm.07.09V8.35c0,.35,0,.68,0,1a2.48,2.48,0,0,0,4.87.37,8.82,8.82,0,0,0,.07-1.92v-2C10.83,5.75,9.13,5.75,7.5,5.77Z"/><path class="cls-6" d="M12.54,5.68c0,1.16,0,2.39,0,3.55Z"/><path class="cls-6" d="M7.5,5.77c1.63,0,3.33,0,5,0h-5Z"/><path class="cls-5" d="M7.5,5.77h0c0,.2,0,.41,0,.59Z"/><path class="cls-5" d="M7.39,5.82s0,0,0,.05l-.07,0S7.38,5.85,7.39,5.82Z"/><path class="cls-3" d="M12.58,5.82s0,0,.06.05,0,0-.06,0Z"/><path class="cls-7" d="M7.91,5.85h0v0s.09,0,.07,0H8c0,.05.1.06.07,0s0,0,0,.07a.87.87,0,0,1-.21,0Z"/><path class="cls-6" d="M7.93,5.85s0,0,0,0,.06,0,.06,0,0,0-.07,0Z"/><path class="cls-6" d="M7.94,6a.2.2,0,0,1,.14,0Z"/><path class="cls-6" d="M9.92,6a.21.21,0,0,1,.14,0Z"/><path class="cls-6" d="M11.88,6A.2.2,0,0,1,12,6Z"/><path class="cls-6" d="M8.16,6s0,0,0,.07,0-.1,0-.08Z"/><path class="cls-6" d="M10.14,6s0,0,0,.07,0-.1,0-.08Z"/><path class="cls-6" d="M12.59,6s0,.16,0,.22S12.54,6,12.59,6Z"/><path class="cls-6" d="M10.06,6s0,.08,0,.11S10.07,6,10.06,6Z"/><path class="cls-4" d="M8,6s0,.05,0,.08H8S8,6,8,6Z"/><path class="cls-6" d="M8.08,6s0,.08,0,.11S8.09,6.06,8.08,6Z"/><path class="cls-4" d="M10,6s0,.05,0,.08h0S10,6,10,6Z"/><path class="cls-4" d="M11.94,6h0a.09.09,0,0,1,0,.08h0A.08.08,0,0,1,11.94,6Z"/><path class="cls-6" d="M11.88,6s0,.1,0,.12S11.85,6.06,11.88,6Z"/><path class="cls-6" d="M12,6s0,.08,0,.11S12,6.08,12,6Z"/><path class="cls-6" d="M7.94,6.06s0,.1,0,.12S7.91,6.08,7.94,6.06Z"/><path class="cls-3" d="M8.11,6.07s0,.12,0,.15S8.12,6.12,8.11,6.07Z"/><path class="cls-6" d="M9.92,6.07s0,.1,0,.12S9.89,6.09,9.92,6.07Z"/><path class="cls-3" d="M10.09,6.07s0,.12,0,.15S10.1,6.12,10.09,6.07Z"/><path class="cls-3" d="M7.9,6.08a.2.2,0,0,1,0,.14S7.87,6.09,7.9,6.08Z"/><path class="cls-3" d="M9.88,6.08a.2.2,0,0,1,0,.14S9.85,6.09,9.88,6.08Z"/><path class="cls-3" d="M11.83,6.08a.2.2,0,0,1,0,.14S11.81,6.09,11.83,6.08Z"/><path class="cls-3" d="M12,6.08s0,.11,0,.14S12.06,6.13,12,6.08Z"/><path class="cls-6" d="M9.68,6.1s.16,0,.15,0S9.73,6.11,9.68,6.1Z"/><path class="cls-6" d="M11.64,6.1s.11,0,.15,0v.06s0,0,0-.05Z"/><path class="cls-6" d="M12.25,6.1c-.05,0-.14,0-.15,0S12.22,6.09,12.25,6.1Z"/><path class="cls-4" d="M7.76,6.12s0,.05,0,.06S7.77,6.14,7.76,6.12Z"/><path class="cls-4" d="M8.23,6.12s0,.06,0,.06S8.22,6.13,8.23,6.12Z"/><path class="cls-4" d="M9.74,6.12s0,.05,0,.06S9.75,6.14,9.74,6.12Z"/><path class="cls-4" d="M10.21,6.12s0,.06,0,.06S10.2,6.13,10.21,6.12Z"/><path class="cls-4" d="M11.7,6.12s0,.06,0,.07S11.71,6.15,11.7,6.12Z"/><path class="cls-4" d="M12.17,6.12s0,.07,0,.07S12.16,6.13,12.17,6.12Z"/><path class="cls-6" d="M6.41,6.25a.15.15,0,0,1,.12,0Z"/><path class="cls-6" d="M11.59,6.25a5,5,0,0,1,.71,0Z"/><path class="cls-7" d="M11.6,6.34a3.11,3.11,0,0,1,.69,0h0A4.68,4.68,0,0,1,11.6,6.34Z"/><path class="cls-5" d="M7.39,6.34s0,0,0,0,0,0-.08,0S7.38,6.36,7.39,6.34Z"/><path class="cls-6" d="M11.63,6.38s.1,0,.14,0,.15,0,.1,0Z"/><path class="cls-6" d="M10.07,6.61a.24.24,0,0,1-.15,0Z"/><path class="cls-6" d="M9.62,6.64a.67.67,0,0,1,.27,0Z"/><path class="cls-6" d="M11.58,6.64a.61.61,0,0,1,.25,0Z"/><path class="cls-6" d="M12.06,6.64a.61.61,0,0,1,.25,0Z"/><path class="cls-6" d="M12.58,6.76c0,.07,0,.2,0,.23S12.57,6.81,12.58,6.76Z"/><path class="cls-6" d="M8.53,6.77V9.12C8.51,8.36,8.51,7.53,8.53,6.77Z"/><path class="cls-8" d="M8.53,6.77h.93c.63,0,1.3,0,1.95,0h0V9.06A1.47,1.47,0,0,1,11,10.17a1.49,1.49,0,0,1-1.16.39,1.49,1.49,0,0,1-1.3-1.44Zm1.78.36H9.67c0,.37-.05.76.25.81a.32.32,0,0,0,.38-.32A2.34,2.34,0,0,0,10.31,7.13ZM9,9a.4.4,0,0,0,.26,0c.23-.1.2-.45.19-.79H8.77C8.76,8.59,8.73,8.95,9,9Zm1.35-.79H9.67c0,.37-.05.76.25.81a.33.33,0,0,0,.38-.32A2.35,2.35,0,0,0,10.31,8.25Zm.51.81c.41.08.43-.42.4-.81h-.65C10.55,8.62,10.53,9,10.82,9.07Zm-1.16.48c0,.37.06.69.39.64s.27-.43.26-.81H9.67S9.67,9.49,9.66,9.54Z"/><path class="cls-6" d="M9.46,6.77h1.95C10.76,6.78,10.09,6.8,9.46,6.77Z"/><path class="cls-6" d="M12.58,7s0,.08,0,.07S12.55,7,12.58,7Z"/><path class="cls-6" d="M10.31,7.13a2.34,2.34,0,0,1,0,.49Z"/><path class="cls-8" d="M9.77,7.35c0-.26.27,0,0,0Z"/><path class="cls-8" d="M10.14,7.36c-.12-.23.28,0,0,0Z"/><path class="cls-8" d="M10,7.52a.12.12,0,0,1-.1,0C9.87,7.38,10.12,7.39,10,7.52Z"/><path class="cls-8" d="M9.86,7.6c.12.11-.11.18-.09.05S9.79,7.59,9.86,7.6Z"/><path class="cls-8" d="M10.21,7.72a.09.09,0,0,1-.1-.05C10.12,7.53,10.32,7.63,10.21,7.72Z"/><path class="cls-6" d="M11.88,8s0,.1,0,.12S11.85,8,11.88,8Z"/><path class="cls-6" d="M8.08,8s0,.09,0,.12S8.09,8,8.08,8Z"/><path class="cls-4" d="M8,8s0,0,0,.07H8S8,8.06,8,8Z"/><path class="cls-3" d="M8.11,8.07s0,.1,0,.16S8.12,8.12,8.11,8.07Z"/><path class="cls-3" d="M11.83,8.07s0,.16,0,.16A.3.3,0,0,1,11.83,8.07Z"/><path class="cls-3" d="M12,8.07c.05,0,.06.14,0,.16A.72.72,0,0,0,12,8.07Z"/><path class="cls-5" d="M7.71,8.1a.19.19,0,0,1,.13,0Z"/><path class="cls-6" d="M7.94,8.09s0,.09,0,.11S7.91,8.11,7.94,8.09Z"/><path class="cls-7" d="M8.16,8.16s0,0,0-.06h.14v.12H8.16Zm.06,0s0,0,0,0a.14.14,0,0,0,0-.07,0,0,0,0,0,0,0Z"/><path class="cls-7" d="M11.78,8.11v.11h-.14V8.1S11.76,8.09,11.78,8.11Zm-.09.08s0,0,0,0,0-.06,0-.07a0,0,0,0,0,0,0Z"/><path class="cls-4" d="M7.76,8.13h0s0,.06,0,.06S7.77,8.15,7.76,8.13Z"/><path class="cls-4" d="M8.22,8.14s0,0,0,0,0,.06,0,.06h0Z"/><path class="cls-4" d="M11.69,8.14s0,0,0,0,0,.06,0,.06h0Z"/><path class="cls-4" d="M12.16,8.13h0s0,.06,0,.06S12.17,8.15,12.16,8.13Z"/><path class="cls-6" d="M7.7,8.22h.15A.23.23,0,0,1,7.7,8.22Z"/><path class="cls-5" d="M7.67,8.25a4.55,4.55,0,0,1,.68,0Z"/><path class="cls-6" d="M10.31,8.25a2.35,2.35,0,0,1,0,.49Z"/><path class="cls-5" d="M7.69,8.32a3.94,3.94,0,0,1,.65,0Z"/><path class="cls-7" d="M7.69,8.32h.67c-.14.09-.49,0-.68,0C7.66,8.35,7.66,8.3,7.69,8.32Z"/><path class="cls-8" d="M8.94,8.37c.05,0,.05.12,0,.13A.07.07,0,1,1,8.94,8.37Z"/><path class="cls-8" d="M9.33,8.39a.07.07,0,0,1-.09.1C9.18,8.42,9.26,8.33,9.33,8.39Z"/><path class="cls-8" d="M9.89,8.4a.18.18,0,0,1,0,.08.13.13,0,0,1-.1,0A.07.07,0,1,1,9.89,8.4Z"/><path class="cls-8" d="M10.13,8.48c0-.27.26,0,0,0Z"/><path class="cls-8" d="M10.71,8.37a.06.06,0,0,1,.08.06C10.8,8.6,10.54,8.4,10.71,8.37Z"/><path class="cls-8" d="M11.09,8.37a.08.08,0,0,1,0,.11C11,8.56,11,8.36,11.09,8.37Z"/><path class="cls-8" d="M9.16,8.57v.07a.08.08,0,0,1-.12,0A.07.07,0,0,1,9.16,8.57Z"/><path class="cls-8" d="M9.95,8.65c-.07-.14.17-.14.1,0A.1.1,0,0,1,9.95,8.65Z"/><path class="cls-8" d="M10.88,8.54A.07.07,0,0,1,11,8.6C11,8.77,10.71,8.57,10.88,8.54Z"/><path class="cls-6" d="M11.83,8.64h.22A.5.5,0,0,1,11.83,8.64Z"/><path class="cls-6" d="M13.89,8.64a.24.24,0,0,1,0,.15Z"/><path class="cls-6" d="M13.82,8.83s0-.12,0-.15S13.85,8.8,13.82,8.83Z"/><path class="cls-6" d="M6.14,8.69s0,.1,0,.14S6.15,8.73,6.14,8.69Z"/><path class="cls-8" d="M8.91,8.72h0c.18,0-.05.21-.06.07A.06.06,0,0,1,8.91,8.72Z"/><path class="cls-8" d="M9.23,8.83c-.07-.14.17-.14.1,0A.1.1,0,0,1,9.23,8.83Z"/><path class="cls-8" d="M9.88,8.83a.09.09,0,0,1-.11,0C9.74,8.67,9.95,8.72,9.88,8.83Z"/><path class="cls-8" d="M10.21,8.84h-.08C10.06,8.66,10.33,8.73,10.21,8.84Z"/><path class="cls-8" d="M10.71,8.72a.07.07,0,0,1,.08.06C10.8,9,10.55,8.75,10.71,8.72Z"/><path class="cls-8" d="M11.13,8.75a.2.2,0,0,1,0,.08C11,8.91,11,8.63,11.13,8.75Z"/><path class="cls-6" d="M7.4,9.16s0,.13,0,.11Z"/><path class="cls-6" d="M9.67,9.37c0,.05,0,.14,0,.17S9.65,9.41,9.67,9.37Z"/><path class="cls-8" d="M9.8,9.48a.06.06,0,0,1,.08.05C9.92,9.72,9.64,9.51,9.8,9.48Z"/><path class="cls-8" d="M10.19,9.48c.15,0-.07.23-.08.07A.07.07,0,0,1,10.19,9.48Z"/><path class="cls-8" d="M10,9.65a.07.07,0,0,1,.08.06C10.07,9.9,9.82,9.68,10,9.65Z"/><path class="cls-8" d="M9.77,9.95c0-.27.26.05,0,0Z"/><path class="cls-8" d="M10.23,9.94a.13.13,0,0,1-.09,0C10,9.85,10.28,9.78,10.23,9.94Z"/><path class="cls-4" d="M8.18,10.2c.08,0,.09.16.17.2,0-.14-.18-.2-.28-.28s.05-.08.08,0,0-.12.07-.06,0-.05,0-.09.08.1.09.15,0-.12.07-.06,0-.09.06-.07c0-.17.13.05.19.12s.05,0,.08,0a.35.35,0,0,0,.28.26l0,0c-.17.2-.36.38-.55.56a.06.06,0,0,1-.05-.08c-.07-.09-.13-.2-.26-.23s0,0,0-.07S8,10.47,8,10.38s0-.06.08,0,0-.09.06-.07A.07.07,0,0,1,8.18,10.2Zm.3-.21s0,0,0,0,0,0,0,.05,0,0-.08,0a.08.08,0,0,0,.06.06c.05,0,.09-.09.14-.13s0-.08-.07-.06S8.51,10,8.48,10Zm-.23,0s0,0,0,.05,0,0-.08,0,0,0,0,.07,0,0,0,0,0,.06.06.07.11-.09.14-.16S8.27,10,8.24,10Zm.38.08s0,0-.06-.05-.07.06-.09.1l.07.09c.05,0,.08-.07.12-.11S8.64,10.06,8.62,10.06Zm-.23.1s0-.07-.09-.08-.05,0-.07.08h0a1.77,1.77,0,0,0,.16.19.3.3,0,0,0,.12-.12Zm.32-.08-.5.5s0,0,0,0c.17-.17.35-.33.51-.52,0,0,0,0,0,0Zm-.18.15s-.06-.12-.12-.09S8.47,10.22,8.53,10.23Zm.24-.07a.05.05,0,0,0,0,0,3.75,3.75,0,0,0-.5.51h0C8.46,10.48,8.62,10.33,8.77,10.16Zm0,.05s0,0,0,0a.4.4,0,0,0-.11.09s-.09.08-.07.1h0a.35.35,0,0,1,.24.07s.12-.08.11-.11A1.42,1.42,0,0,0,8.79,10.21Zm-.62,0s0,0,0,0v0s-.05,0-.06,0h0s0,0,0,.05,0,0-.08,0a.07.07,0,0,0,.06.06c.05,0,.09-.09.14-.13S8.19,10.21,8.17,10.25Zm.12.13s0,0-.06-.05-.07.06-.09.1,0,.08.09.09.08-.07.1-.11S8.31,10.39,8.29,10.39Zm.7,0-.18.18-.15.15-.18.18s0,0,0,0,.11-.07.15-.11l.28-.28s.11-.09.11-.15Zm-.45.07a.21.21,0,0,0,.07.28c.05-.06-.1-.16,0-.24s.15.06.23,0S8.64,10.37,8.55,10.42Zm0,.15s0-.09,0-.11-.16.12-.16.19a1.8,1.8,0,0,0,.13.17s.14-.09.1-.12A.4.4,0,0,1,8.5,10.57Zm.18-.09s-.1,0-.09,0a.18.18,0,0,0,0,.12s0,0,0,0,.15-.09.11-.14S8.73,10.47,8.69,10.48Z"/><path class="cls-4" d="M8.54,10.07a.05.05,0,0,1,.05,0S8.52,10.09,8.54,10.07Z"/><path class="cls-4" d="M11.44,10.08s0,.06-.06,0S11.41,10.06,11.44,10.08Z"/><path class="cls-3" d="M8.4,10.14c.06,0,.1,0,.12.09S8.45,10.17,8.4,10.14Z"/><path class="cls-4" d="M8.3,10.16h0s0,0,0,.06S8.3,10.2,8.3,10.16Z"/><path class="cls-4" d="M11.65,10.16s0,.08-.05.07S11.64,10.19,11.65,10.16Z"/><path class="cls-7" d="M6.85,5.82c-.11.11-.16.27-.32.32,0,0,0-.06,0-.08A4.19,4.19,0,0,1,8.7,4.54a3,3,0,0,1,1-.17c0,.09-.12.07-.16.07a4.18,4.18,0,0,0-2.4,1l-.1.1A.74.74,0,0,0,7,5.72Z"/><path class="cls-6" d="M6.85,5.82l.1-.1Z"/><path class="cls-6" d="M7.09,5.59l.1-.1Z"/><path class="cls-7" d="M13.06,5.66a3.14,3.14,0,0,1,.4.49c-.18-.06-.28-.25-.4-.39a4.19,4.19,0,0,0-2.6-1.32c-.06,0-.22,0-.23-.06s.14,0,.2,0A4.19,4.19,0,0,1,13,5.55Z"/><path class="cls-6" d="M13,5.55l.11.11Z"/><path class="cls-6" d="M6.94,5.76l.17-.17Z"/><path class="cls-7" d="M7.11,5.59A4.18,4.18,0,0,1,9.74,4.44v.24a3.91,3.91,0,0,0-2.41,1A1.7,1.7,0,0,1,7.1,6C7,6,6.79,6,6.68,6.07a2.72,2.72,0,0,1,.26-.31Z"/><path class="cls-7" d="M13.07,5.81a2,2,0,0,1,.2.25C13.16,6,13,6,12.88,6a1.8,1.8,0,0,1-.25-.24,3.86,3.86,0,0,0-2.4-1V4.44a4.19,4.19,0,0,1,2.57,1.1Z"/><path class="cls-4" d="M10,4.3c.11,0,.11-.06.21,0s0,0,0,.05.25,0,.34.05A4.27,4.27,0,0,1,13.37,6c0,.05.07.13.12.18s.15.09.21.18,0,.1,0,.16.13.12.16.22a.31.31,0,0,0,0,.13c0,.1.09.21.13.32s.08.22.11.35.08.54.13.78a.21.21,0,0,0,0,.09c.06.11,0,.16,0,.29s.06.12.05.19,0,0-.05.08a.25.25,0,0,0,0,.09c-.05.26-.07.53-.14.78a3.48,3.48,0,0,1-.12.34c0,.11-.12.22-.14.32s0,.21-.07.3-.06,0-.07,0-.11.18-.17.27a.46.46,0,0,0-.06.12.34.34,0,0,1-.05.12s-.12,0-.17.08a3.76,3.76,0,0,0-.27.29,4.31,4.31,0,0,1-2.72,1.22c-.06,0,0,.06-.07.08s-.1-.08-.19-.05h0c-.11,0-.08.06-.19.05s0,0,0-.05,0,0-.05,0a1.25,1.25,0,0,0-.28,0,4.23,4.23,0,0,1-2.79-1.6c0-.05-.09-.12-.13-.17s-.13-.05-.16-.12,0-.12,0-.17-.15-.12-.16-.17,0,0,0-.08,0,0,0-.07C6,10.27,5.92,10,5.85,9.8a4.65,4.65,0,0,1-.12-.59A1.54,1.54,0,0,0,5.7,9c0-.05-.07-.08-.08-.14s0-.13,0-.2,0-.14,0-.19,0-.1.06-.16,0-.38.08-.56A6.23,6.23,0,0,1,6,7.07S6,7,6,6.89s.11-.13.16-.21a1.63,1.63,0,0,0,.13-.24c0-.08,0-.19.06-.24s.12,0,.16-.08A4.3,4.3,0,0,1,9.7,4.33c.08,0,0-.09.07-.07S9.87,4.33,10,4.3ZM9.77,5.65h.06c0-.43,0-.94,0-1.37H9.77C9.76,4.71,9.76,5.21,9.77,5.65Zm.37,0h.06c0-.43,0-.94,0-1.37h-.06C10.12,4.71,10.12,5.21,10.14,5.65ZM9.88,4.33c0,.42,0,.88,0,1.32h.24V4.33ZM7.19,5.48a4.18,4.18,0,0,1,2.4-1s.17,0,.16-.07a3,3,0,0,0-1,.17A4.19,4.19,0,0,0,6.57,6.05s-.06,0,0,.08c.17,0,.22-.21.32-.32l.1-.1a.74.74,0,0,1,.13-.13ZM13,5.55a4.19,4.19,0,0,0-2.52-1.18c-.07,0-.18,0-.2,0s.17.05.23.06a4.19,4.19,0,0,1,2.6,1.32c.12.13.22.33.4.39a3.14,3.14,0,0,0-.4-.49Zm-6,.21a2.72,2.72,0,0,0-.26.31C6.79,6,7,6,7.1,6a1.7,1.7,0,0,0,.24-.24,3.91,3.91,0,0,1,2.41-1V4.44A4.18,4.18,0,0,0,7.11,5.59Zm5.85-.22a4.19,4.19,0,0,0-2.57-1.1v.24a3.86,3.86,0,0,1,2.4,1,1.8,1.8,0,0,0,.25.24c.13.07.28.05.4.11a2,2,0,0,0-.2-.25Zm-5.24.1a3.84,3.84,0,0,1,2-.84s.15,0,.13-.07A3.29,3.29,0,0,0,8.49,5a4.13,4.13,0,0,0-1,.6l-.05,0S7.54,5.66,7.56,5.64Zm4.91,0a3.82,3.82,0,0,0-1-.59,3.09,3.09,0,0,0-1.26-.29v0a4.15,4.15,0,0,1,2.2.88C12.51,5.69,12.55,5.62,12.47,5.6Zm-4.78,0s-.08,0-.07.07H9.74a7.65,7.65,0,0,0,0-.84A3.67,3.67,0,0,0,7.69,5.58Zm2.54-.74v.81h2.13a3.61,3.61,0,0,0-2.12-.84S10.23,4.82,10.23,4.84Zm-2.8.84V8.44a5.38,5.38,0,0,0,.08,1.28A2.56,2.56,0,0,0,11.73,11a.72.72,0,0,0,.12-.12,2.53,2.53,0,0,0,.68-1.6c0-1.16,0-2.39,0-3.55H9.62c-.41,0-.87,0-1.3,0S7.71,5.65,7.43,5.68Zm-.24.24c.11,0,.24-.09.2-.23l-.07.07-.17.17S7.18,5.93,7.19,5.92Zm5.42-.2h0s0,0,0,0,.05.13.1.18a.17.17,0,0,0,.13.05h0a.69.69,0,0,0-.15-.16S12.63,5.73,12.61,5.72Zm-5.28.17.07,0s0-.05,0-.05S7.34,5.86,7.33,5.89Zm5.25,0s0,0,.06,0,0,0-.06-.05Zm0,0V6a4.42,4.42,0,0,1,1.1.35A2.24,2.24,0,0,0,12.57,5.9Zm-6,.24A5,5,0,0,0,7.4,6V5.9A3.46,3.46,0,0,0,6.59,6.14Zm.16,0a.89.89,0,0,0,.65,0,.94.94,0,0,0,0-.22A4.28,4.28,0,0,0,6.75,6.17Zm5.82.05a9.87,9.87,0,0,1,1.18.32c-.1-.25-.32-.3-.61-.4A3.41,3.41,0,0,0,12.59,6C12.54,6,12.57,6.18,12.58,6.22Zm-5.32.14a3.13,3.13,0,0,0-.64-.2c-.13,0-.25,0-.29.08A2.23,2.23,0,0,1,7.4,6.5C7.44,6.4,7.33,6.39,7.26,6.37ZM7.15,6.3a.3.3,0,0,0,.25,0s0-.07,0-.08S7.21,6.26,7.15,6.3Zm-.74,0h0c-.09.17-.19.34-.27.52A5,5,0,0,1,7.4,7.2V6.52a3.39,3.39,0,0,0-.87-.26A.15.15,0,0,0,6.41,6.25Zm6.88.16a6.11,6.11,0,0,0-.7-.16s0,0,0,0v.06a6.47,6.47,0,0,1,1.3.39C13.76,6.52,13.5,6.48,13.28,6.42ZM6.36,6.27a.08.08,0,0,0-.06.09S6.33,6.29,6.36,6.27Zm1,.1s0,0,.08,0,0-.05,0,0S7.32,6.34,7.32,6.37Zm5.27.27a2.52,2.52,0,0,0,.57-.16l-.58-.13A1.86,1.86,0,0,0,12.58,6.64Zm.7-.13-.09,0s0,0,0,0a3.94,3.94,0,0,1,.58,1.44c0,.06,0,.18.1.18A3.93,3.93,0,0,0,13.28,6.51Zm-.12,0a5.81,5.81,0,0,1-.6.14v.07a3.71,3.71,0,0,0,.65-.14S13.2,6.53,13.16,6.52Zm.5.11c-.11,0-.21-.08-.33-.1a4.28,4.28,0,0,1,.56,1.61l.25.12A4.13,4.13,0,0,0,13.66,6.63ZM12.59,7a3.86,3.86,0,0,0,.76-.18c0-.06-.08-.14-.12-.2l-.66.15S12.54,7,12.59,7Zm1.21-.3s-.12-.07-.1,0a4.08,4.08,0,0,1,.46,1.48c0,.06,0,.16.09.18A4.27,4.27,0,0,0,13.8,6.69ZM6.8,7a2.06,2.06,0,0,0-.67-.18c-.07,0-.1,0-.12.08a3.78,3.78,0,0,1,1.39.44V7.23C7.24,7.15,7,7.06,6.8,7Zm5.79.12a3.61,3.61,0,0,0,.8-.2c0-.09-.11,0-.16,0s-.48.1-.66.14C12.55,7,12.56,7.15,12.59,7.1ZM6.06,6.92a1.13,1.13,0,0,0-.12.31A4.8,4.8,0,0,0,5.71,8.3c.13,0,.1-.22.12-.33a4,4,0,0,1,.32-1.08C6.09,6.86,6.08,6.9,6.06,6.92ZM6,6.92S6,7,6,7s0-.06.05-.1S6,6.92,6,6.92Zm.2,0a4.2,4.2,0,0,0-.36,1.34c.1,0,.17-.08.26-.11a4.39,4.39,0,0,1,.33-1.19C6.34,6.93,6.24,6.89,6.17,6.9Zm7.23,0a7.83,7.83,0,0,1-.83.19v.66c.42.06.83.2,1.2.29A3.94,3.94,0,0,0,13.41,6.93Zm-7,0a2.9,2.9,0,0,0-.22.57,1.77,1.77,0,0,0-.11.59c.1,0,.08-.18.1-.27A5.17,5.17,0,0,1,6.51,7S6.46,7,6.45,7Zm.08,0c0,.11-.1.2-.12.31a2.38,2.38,0,0,0,.32.29,1.44,1.44,0,0,0,.37.25c.1,0,.19-.06.3-.05V7.33A7.83,7.83,0,0,0,6.53,7Zm-.14.34s0,0,0,.08a3.45,3.45,0,0,0,.29.23c.1.07.27.27.4.19A8.14,8.14,0,0,1,6.39,7.33Zm-.17.74c.23-.08.47-.14.71-.2-.2-.13-.38-.29-.57-.43A3.09,3.09,0,0,0,6.21,8.07Zm.27,0C6.72,8,7,8,7.2,7.92c.07,0,.23,0,.2-.1A5.42,5.42,0,0,0,6,8.19c-.12.05-.32.13-.31.29v0A2.17,2.17,0,0,1,6.49,8.09Zm7.5.12a5.3,5.3,0,0,0-1.4-.4h0v.06a4.9,4.9,0,0,1,1.67.56s0,.06.07,0S14.11,8.27,14,8.21Zm-6.6-.3h0A6.68,6.68,0,0,0,6,8.27c-.17.07-.42.14-.35.41A5.07,5.07,0,0,1,7.4,8.15,1.13,1.13,0,0,0,7.39,7.91Zm5.21,0s0,0,0,.1,0,.15,0,.14a5.43,5.43,0,0,1,1.5.44c.06,0,.12.09.16.08v-.2A4,4,0,0,0,12.59,7.92ZM6,8.57c-.12.06-.3.12-.32.28A4.88,4.88,0,0,1,7.4,8.23V8.17A6.24,6.24,0,0,0,6,8.57Zm8,0a5.65,5.65,0,0,0-1.4-.4h0v.07a4.36,4.36,0,0,1,1.67.56s0,.05.07,0S14.11,8.64,14,8.58Zm-6.61-.3c-.31.07-.65.14-.93.22-.09,0-.22.05-.26.12A8.06,8.06,0,0,0,7.4,8.9V8.27h0Zm5.21,0c0,.21,0,.44,0,.63a6.72,6.72,0,0,0,1.22-.29A4.81,4.81,0,0,0,12.58,8.28Zm-6.43.41s0-.08,0-.09,0,0,0,0,0,.14,0,.18a3.79,3.79,0,0,0,.33,1.42s0,.14.11.11,0-.11,0-.15a3.69,3.69,0,0,1-.33-1.35S6.16,8.72,6.14,8.69Zm7.69,0s0,.1,0,.15a3.63,3.63,0,0,1-.21,1c0,.1-.12.23-.05.29a3.15,3.15,0,0,0,.34-1.38.24.24,0,0,0,0-.15s0,0-.05,0S13.84,8.66,13.83,8.68Zm-8,.09a4.2,4.2,0,0,0,.43,1.69l.22-.11A4,4,0,0,1,6,8.64H6A.52.52,0,0,0,5.81,8.77Zm1.48.13a9.69,9.69,0,0,1-1.13-.25c0,.12.16.13.24.15s.44.11.66.15A1.09,1.09,0,0,0,7.4,9C7.42,8.91,7.33,8.91,7.29,8.9Zm5.4,0s-.14,0-.12.08a5.15,5.15,0,0,0,1.24-.26V8.66A8.47,8.47,0,0,1,12.69,8.91Zm1.24-.25a3.79,3.79,0,0,1-.34,1.52.75.75,0,0,0,.18.2,4.08,4.08,0,0,0,.38-1.61A1.16,1.16,0,0,0,13.93,8.66Zm-6.53.5V9a8.12,8.12,0,0,1-1.23-.27c0,.09,0,.16,0,.24a7.31,7.31,0,0,0,1.22.27S7.42,9.17,7.4,9.16Zm5.17.07v.05A7.31,7.31,0,0,0,13.79,9c0-.09,0-.14,0-.23A11.48,11.48,0,0,1,12.62,9C12.52,9,12.58,9.16,12.57,9.23Zm-6.4,1.13a4.24,4.24,0,0,1-.38-1.55v0c-.1,0-.07.13-.06.2a3.78,3.78,0,0,0,.45,1.54C6.25,10.49,6.18,10.41,6.16,10.36Zm8.09-1.52-.05,0a5.36,5.36,0,0,1-.29,1.32c0,.11-.16.26-.07.37A4.28,4.28,0,0,0,14.25,8.84Zm-8.56.07s0-.06,0-.06S5.65,8.92,5.69,8.91Zm8.57,0v.05h0S14.28,8.88,14.27,8.87Zm-7,.41c-.37-.09-.76-.13-1.09-.24,0,0,0,0,0,0s0,0,0,0,.17.12.26.14l.32.08a2.35,2.35,0,0,0,.66.09C7.42,9.28,7.35,9.29,7.31,9.28Zm5.25,0v0c.09.05.22,0,.32,0l.65-.14c.09,0,.26,0,.26-.15A10.84,10.84,0,0,1,12.55,9.31Zm-6,1a8.12,8.12,0,0,1,1-.29,2.81,2.81,0,0,1-.15-.62A10,10,0,0,1,6.2,9.14,3.75,3.75,0,0,0,6.57,10.3Zm6.06-.9c.31.22.59.46.88.7a2.78,2.78,0,0,0,.23-.94C13.39,9.26,13,9.32,12.63,9.4Zm.83.7a8.47,8.47,0,0,0-.79-.64s-.07-.08-.11-.06.1.15.16.19l.63.51.1.1a1.17,1.17,0,0,1,.37.5c.09-.17-.09-.3-.16-.4Zm-.05.09a9.85,9.85,0,0,0-.87-.7,3,3,0,0,1-.18.65,5.47,5.47,0,0,1,1.12,1c.1-.17.21-.32.31-.49a.81.81,0,0,0-.17-.26ZM7.57,10a6.29,6.29,0,0,0-1.2.38c-.1.05-.27.12-.21.26a3.21,3.21,0,0,1,1.45-.55A.1.1,0,0,0,7.57,10Zm0,.09a3.49,3.49,0,0,0-1.4.53,1.17,1.17,0,0,1,.12.21,3.51,3.51,0,0,1,1.41-.5A1.7,1.7,0,0,0,7.61,10.13Zm5.57.71c-.23-.21-.5-.43-.74-.61,0,0-.08-.07-.11-.05s.08.12.13.16l.6.48a.56.56,0,0,0,.1.1.82.82,0,0,1,.25.36c.1-.13-.06-.25-.12-.34Zm-.52-.3c-.12-.09-.24-.2-.36-.28h0a3.53,3.53,0,0,1-.31.49c.14,0,.28.18.43.19s.37-.11.58-.11A1.13,1.13,0,0,0,12.67,10.54Zm-5-.14a4.69,4.69,0,0,0-1.16.36c-.09.05-.26.12-.2.23a3.47,3.47,0,0,1,1.44-.53C7.77,10.39,7.76,10.39,7.71,10.39Zm.09.08a5.61,5.61,0,0,0-1,.27A11.93,11.93,0,0,0,8.28,11,3.78,3.78,0,0,1,7.81,10.48Zm5.93.29s0,0,.05-.05S13.75,10.75,13.73,10.76Zm-6.39.73a3.86,3.86,0,0,0,2.23,1c.06,0,.16,0,.17,0s-.07,0-.09-.05l-.13,0a3.81,3.81,0,0,1-2.63-1.53s-.06-.16-.14-.12,0,.09.05.12.21.25.3.36Zm4.61-.73s0,0,0,.06.26.19.44.11C12.21,10.88,12.1,10.8,11.94,10.76Zm-4.86.86a4.09,4.09,0,0,0,2.66,1.17v-.24a4,4,0,0,1-3-1.76c-.07,0-.16.06-.2.12a3.86,3.86,0,0,0,.49.61A.46.46,0,0,0,7.09,11.62Zm1.24-.57c-.51,0-1-.18-1.46-.24,0,0,0,.06.06.08a13.82,13.82,0,0,0,1.49.25S8.35,11.09,8.32,11.05Zm4.73-.2,0,0c-.45.09-.9.18-1.38.23,0,0-.12.07-.08.09a9,9,0,0,0,1.5-.28A0,0,0,0,0,13.05,10.85Zm-.19.41L13,11.1s.14-.14.1-.18S13,11,13,11a3.79,3.79,0,0,1-2.55,1.42c-.07,0-.23,0-.2.08a3.81,3.81,0,0,0,2.42-1A2.07,2.07,0,0,0,12.86,11.27Zm-6,.16c-.06-.09-.14-.17-.21-.25s-.11-.22-.2-.24,0,.1,0,.14.22.29.32.41l.1.1a.6.6,0,0,0,.11.11l.1.1a4.21,4.21,0,0,0,2.43,1.08c.07,0,.17,0,.19,0s-.12-.06-.16-.06a4.17,4.17,0,0,1-2.4-1.06l-.12-.12L7,11.55Zm1.6-.25a2.65,2.65,0,0,0-.39-.05c-.39-.06-.77-.13-1.12-.2,0,0,0,0,0,0s.13.21.21.25a2.1,2.1,0,0,0,.44.09A8.1,8.1,0,0,0,9,11.47C8.8,11.44,8.66,11.24,8.47,11.18Zm3.88.12a2.29,2.29,0,0,0,.45-.1c.09,0,.15-.18.21-.25l-1.13.19a2.55,2.55,0,0,0-.39,0,2.41,2.41,0,0,0-.26.17c-.11.06-.21.09-.31.14A11.88,11.88,0,0,0,12.34,11.3Zm.69.17a2.81,2.81,0,0,0,.29-.35c-.06-.05-.1-.14-.17-.17a3.9,3.9,0,0,1-2.91,1.59v.24a4.11,4.11,0,0,0,2.6-1.11ZM6.39,11l0,0s0,0,.05,0S6.41,11,6.39,11Zm4.85,1.73a4.29,4.29,0,0,0,2-1.35s.12-.12.08-.19-.1.09-.14.13a4.22,4.22,0,0,1-2.48,1.46l-.41,0s-.12,0-.09.06A3.25,3.25,0,0,0,11.25,12.71ZM9.36,11.59a3.06,3.06,0,0,0-.75-.13c-.49-.06-1-.15-1.41-.25,0,0,.06.06.08.09a11.28,11.28,0,0,0,2,.29S9.48,11.61,9.36,11.59Zm3.4-.35a3,3,0,0,0-.46.09l-.47.08a10.86,10.86,0,0,0-1.26.19s-.05,0-.06,0,.08,0,.09,0a10.39,10.39,0,0,0,2.05-.28S12.73,11.27,12.76,11.24Zm.55.11s.09,0,.08-.08S13.32,11.32,13.31,11.35Zm-3.08.31v.76a3.64,3.64,0,0,0,2.39-1.07A12.34,12.34,0,0,1,10.23,11.66Zm-.46,0c0,.31,0,.69,0,1,0,.1,0,.27.05.3s0-.2,0-.32V12c0-.09,0-.33-.06-.31Zm.41,0c-.08,0-.05.22-.05.32,0,.31,0,.58,0,.86,0,0,0,.13,0,.13s0-.09,0-.12c0-.39,0-.83,0-1.19Zm-.31,1.25a.62.62,0,0,0,.24,0V11.68H9.87Z"/><path class="cls-6" d="M12.8,5.54l.27.27Z"/><path class="cls-6" d="M7.56,5.64s-.08,0-.11,0l.05,0s0,0,0,0Z"/><path class="cls-6" d="M12.47,5.6c.08,0,0,.09,0,0h.07S12.47,5.62,12.47,5.6Z"/><path class="cls-6" d="M7.19,5.92s0,0,0,0l.17-.17c0,.06-.11.1-.15.16Z"/><path class="cls-7" d="M7.32,5.76l.07-.07c0,.14-.09.21-.2.23h0C7.21,5.86,7.27,5.82,7.32,5.76Z"/><path class="cls-6" d="M12.61,5.72l0,0c0,.09.05.12.08.17s-.12-.07-.1-.18,0,0,0,0Z"/><path class="cls-6" d="M12.67,5.77a.69.69,0,0,1,.15.16h0S12.7,5.82,12.67,5.77Z"/><path class="cls-9" d="M7.53,5.79h4.9V7.84a7.56,7.56,0,0,1-.1,1.95A2.44,2.44,0,0,1,11.51,11a2.45,2.45,0,0,1-3,0A2.44,2.44,0,0,1,7.63,9.8a7,7,0,0,1-.11-1.94v-2S7.52,5.79,7.53,5.79Zm.61,0a.08.08,0,0,0-.09,0c0-.06-.1,0-.09,0s-.05,0-.08,0,.07.13,0,.22V6H7.84s0,0,0,0,0,0,0,0H7.75s0,.05,0,0V6H7.66c0,.12,0,.14,0,.26s0,0-.06,0,0,.1.05.13,0,.23-.07.29l0,0a5.88,5.88,0,0,0,.79,0,.59.59,0,0,1,0-.45c-.14,0,0-.17,0-.27H8.29s0,0,0,0,0,0,0,0H8.2s0,.05,0,0V6H8.11s0,.05,0,.05S8.17,5.93,8.14,5.83ZM9.81,6s0,.05,0,0V6H9.72s0,.05,0,0V6H9.63c0,.12.05.14,0,.26s0,0-.06,0a.49.49,0,0,1,0,.43s0,0,0,0a4.29,4.29,0,0,0,.8,0,.62.62,0,0,1,0-.45l-.05,0c0-.1,0-.14,0-.25h-.07s0,0,0,0,0,0,0,0h-.07s0,0,0,0,0-.05-.07,0,0-.08,0-.13-.07,0-.09,0-.1,0-.09,0-.05,0-.08,0,.08.13,0,.22V6Zm2,0s-.06,0-.07,0,0,0,0,0h-.07s0,.05,0,0V6h-.07c0,.11.05.14,0,.25l-.06,0a.49.49,0,0,1,0,.43.91.91,0,0,0,.4,0,1.46,1.46,0,0,0,.42,0,.59.59,0,0,1,0-.45s-.06,0-.06,0,.05-.13,0-.24h-.07s0,0,0,0,0,0,0,0h-.07s0,0,0,0,0-.05-.07,0,0-.08,0-.13H12s0,0,0,0v0h-.08s0,0,0,0v0h-.08C11.81,5.88,11.81,5.93,11.83,6ZM8.5,6.78V8.1a7,7,0,0,0,0,1.3A1.48,1.48,0,0,0,10,10.59a1.45,1.45,0,0,0,1.44-1.22,7.57,7.57,0,0,0,0-1.3c0-.44,0-.88,0-1.32h-3S8.49,6.77,8.5,6.78Zm-.36,1H8.07s0,.05,0,0v0c-.05,0-.08,0-.09,0s0,0-.07,0,.06.26,0,.4c-.07-.08,0-.16,0-.26H7.84s0,0,0,0,0,0,0,0H7.75s0,.05,0,0V8H7.66c0,.11,0,.14,0,.25s-.05,0-.06,0a.48.48,0,0,1,0,.43s0,0,0,0a4.06,4.06,0,0,0,.8,0,.81.81,0,0,1-.06-.31s.08-.13,0-.15,0-.14,0-.25H8.29s0,0,0,0,0,0-.08,0,0,0,0,0S8.1,8,8.1,8A.22.22,0,0,0,8.14,7.83ZM11.75,8V8h-.08s0,0,0,0V8h-.08c0,.13.06.13,0,.26s-.05,0-.06,0,0,.3,0,.41a4.08,4.08,0,0,0,.8,0,0,0,0,0,1,0,0,.42.42,0,0,1,0-.41s-.06,0-.06,0,0-.13,0-.24a.07.07,0,0,0-.09,0V8a.07.07,0,0,0-.09,0V8H12s0,.07,0,.08V8s0,0,0,0v-.1s-.05,0-.08,0,0,0,0,0a.05.05,0,0,0,0,0h-.07s0,0,0,0,0,0,0,0h-.07a.2.2,0,0,0,0,.15S11.75,8,11.75,8Zm-3.6,2.27c-.05,0-.1,0-.06.07s-.05,0-.08,0,.17.07.19.17,0,0,0,.07.19.14.26.23a.06.06,0,0,0,.05.08c.19-.18.38-.36.55-.56l0,0a.35.35,0,0,1-.28-.26s-.06,0-.08,0-.19-.3-.19-.12c-.05,0-.1,0-.06.07s-.09,0-.07.06,0-.12-.09-.15-.07,0,0,.09-.09,0-.07.06-.06,0-.08,0,.25.14.28.28c-.08,0-.09-.16-.17-.2A.07.07,0,0,0,8.15,10.28Zm3.4-.26s0,0,0-.07,0,0-.05,0,0-.06,0-.08-.08.16-.16.2,0,0-.06,0-.06.06-.05.13-.13.15-.23.13l0,0a6,6,0,0,0,.56.56s.06,0,0-.08.1-.13.15-.18.07,0,.12-.05,0,0,0-.07.15-.06.19-.16a.07.07,0,0,0-.08,0s0,0,0-.07,0,0-.05,0,0-.06,0-.08,0,.06-.05,0,.18-.06.17-.12-.07,0-.09,0,0,0,0,0-.05,0-.08,0,0,0,0-.07-.06.14-.14.17C11.66,10.08,11.6,10,11.55,10Z"/><path class="cls-6" d="M7.91,5.85v.08a.87.87,0,0,0,.21,0s-.14,0-.21,0S7.89,5.86,7.91,5.85Z"/><path class="cls-6" d="M8,5.85s0,0,0,0,.06,0,.06,0S8,5.9,8,5.85Z"/><path class="cls-6" d="M9.89,5.85v.08h.2s-.14,0-.2,0S9.87,5.86,9.89,5.85Z"/><path class="cls-6" d="M11.84,5.85v.08a.86.86,0,0,0,.21,0s-.15,0-.21,0S11.82,5.86,11.84,5.85Z"/><path class="cls-7" d="M13.67,6.33A4.42,4.42,0,0,0,12.57,6V5.9A2.24,2.24,0,0,1,13.67,6.33Z"/><path class="cls-6" d="M8,6.1s0,0,0,0S8,6,8,6s0,.09,0,.08Z"/><path class="cls-6" d="M10,6.1s0,0,0,0S10,6,10,6s0,.09,0,.08Z"/><path class="cls-7" d="M11.88,6H12V6s0,.09,0,.11v.07h-.16V6.16s0-.09,0-.12Zm.06.14h0A.09.09,0,0,0,12,6h0A.08.08,0,0,0,11.94,6.11Z"/><path class="cls-7" d="M9.68,6.1c.05,0,.13,0,.15,0v.1H9.68Zm.08.08s0-.08,0-.06S9.73,6.19,9.76,6.19Z"/><path class="cls-7" d="M10.35,6.25c0,.06-.11,0-.16,0H9.62v0A5.31,5.31,0,0,1,10.35,6.25Z"/><path class="cls-7" d="M13.86,6.7a6.47,6.47,0,0,0-1.3-.39V6.25s0,0,0,0a6.11,6.11,0,0,1,.7.16C13.5,6.48,13.76,6.52,13.86,6.7Z"/><path class="cls-7" d="M6.3,6.36a.08.08,0,0,1,.06-.09S6.33,6.35,6.3,6.36Z"/><path class="cls-7" d="M8.36,6.32s0,0,0,0c-.23,0-.49,0-.7,0,.06-.05.21,0,.32,0h.39Z"/><path class="cls-7" d="M10.34,6.32s0,0,0,0c-.23,0-.48,0-.69,0,0-.06.11,0,.15,0h.55Z"/><path class="cls-6" d="M11.6,6.34s0,0,0,0a5.29,5.29,0,0,1,.71,0s0,0,0,0h0A3.11,3.11,0,0,0,11.6,6.34Z"/><path class="cls-7" d="M7.83,6.61H7.66c0-.08,0-.17,0-.24H8A.29.29,0,0,0,7.83,6.61Z"/><path class="cls-7" d="M9.8,6.61H9.64c0-.08,0-.17,0-.24h.26A.3.3,0,0,0,9.8,6.61Z"/><path class="cls-7" d="M11.88,6.38a.31.31,0,0,0-.11.23H11.6a2.32,2.32,0,0,1,0-.23Z"/><path class="cls-6" d="M12.27,6.42s0,0,0,0a.67.67,0,0,0-.24,0c-.07,0,.21,0,.26,0Z"/><path class="cls-7" d="M8.1,6.61H7.92A.24.24,0,0,1,8,6.45.17.17,0,0,1,8.1,6.61Z"/><path class="cls-7" d="M9.92,6.61c-.06-.15.17-.22.16,0H9.92Z"/><path class="cls-7" d="M11.87,6.58a.14.14,0,0,1,.07-.12c.06,0,.08.05.09.11v0S11.87,6.64,11.87,6.58Z"/><path class="cls-6" d="M11.87,6.58c0,.06.11,0,.16,0v0s0,0,0,.05-.19,0-.18,0Z"/><path class="cls-6" d="M7.63,6.64a3.81,3.81,0,0,1,.76,0s0,0,0,0h0C8.23,6.56,7.84,6.7,7.63,6.64Z"/><path class="cls-6" d="M10.1,6.64a.49.49,0,0,1,.27,0A1.43,1.43,0,0,0,10.1,6.64Z"/><path class="cls-5" d="M11.41,6.78h0c.08,0,0,.18,0,.26v.87c0,.38,0,.79,0,1.15V6.78Z"/><path class="cls-7" d="M6.51,7a5.17,5.17,0,0,0-.28.86c0,.09,0,.23-.1.27a1.77,1.77,0,0,1,.11-.59A2.9,2.9,0,0,1,6.45,7S6.49,7,6.51,7Z"/><path class="cls-7" d="M7.05,7.84c-.12.08-.3-.12-.4-.19a3.45,3.45,0,0,1-.29-.23s0,0,0-.08A8.14,8.14,0,0,0,7.05,7.84Z"/><path class="cls-7" d="M5.67,8.47v0c0-.16.18-.24.31-.29A5.42,5.42,0,0,1,7.4,7.82c0,.11-.13.09-.2.1C7,8,6.72,8,6.49,8.09A2.17,2.17,0,0,0,5.67,8.47Z"/><path class="cls-6" d="M7.91,7.93s0-.14,0,0,0,0,0,0S7.91,7.91,7.91,7.93Z"/><path class="cls-7" d="M7.94,7.89c.05,0,0,0,.07,0s0,0,0,0,.06,0,.07,0,0,.06,0,.09a.79.79,0,0,1-.21,0s0-.07,0-.07S7.92,7.89,7.94,7.89Z"/><path class="cls-6" d="M12,7.93V7.86s0,0,0,0h0s0-.05,0,0,.05,0,0,0h0s0,0,0,0S12.07,7.92,12,7.93Z"/><path class="cls-6" d="M12.59,7.92h0a.42.42,0,0,0,0,.25s0-.09,0-.14S12.55,7.89,12.59,7.92Z"/><path class="cls-6" d="M12,8.11a.14.14,0,0,1,0,.12s-.1,0-.12,0H12S12,8.15,12,8.11Z"/><path class="cls-6" d="M8.14,8v.08h.2s-.14,0-.2,0S8.12,8,8.14,8Z"/><path class="cls-6" d="M11.81,8s0,.08,0,.09-.16,0-.2,0h.19S11.81,8,11.81,8Z"/><path class="cls-6" d="M12.08,8.07a.87.87,0,0,0,.2,0S12.12,8.08,12.08,8.07Z"/><path class="cls-6" d="M8,8s0,.08,0,.07H8S8,8.06,8,8Z"/><path class="cls-6" d="M12,8s0,.12,0,.07h0S12,8.06,12,8Z"/><path class="cls-6" d="M8.16,8.16s0-.06,0-.07.11,0,.14,0H8.17S8.18,8.16,8.16,8.16Z"/><path class="cls-6" d="M8.31,8.15c.07.09-.1.1-.15.07h.15Z"/><path class="cls-6" d="M11.64,8.12v.1h.14V8.11a.16.16,0,0,1,0,.12h-.14S11.62,8.14,11.64,8.12Z"/><path class="cls-6" d="M12.1,8.2s.11,0,.15,0S12.06,8.25,12.1,8.2Z"/><path class="cls-7" d="M7.71,8.1h.14v.12H7.7S7.69,8.12,7.71,8.1Zm.07.09s0,0,0-.06h0S7.75,8.2,7.78,8.19Z"/><path class="cls-6" d="M8.22,8.14a0,0,0,0,1,0,0,.14.14,0,0,1,0,.07s0,0,0,0h0s0,0,0-.06S8.24,8.14,8.22,8.14Z"/><path class="cls-6" d="M11.69,8.14a0,0,0,0,1,0,0s0,0,0,.07,0,0,0,0h0s0,0,0-.06S11.7,8.14,11.69,8.14Z"/><path class="cls-7" d="M12.1,8.2V8.1h.15v.12S12.11,8.25,12.1,8.2Zm.08,0s0,0,0-.06h0S12.14,8.2,12.18,8.19Z"/><path class="cls-6" d="M7.64,8.27c.22,0,.48,0,.72,0A3.34,3.34,0,0,1,7.64,8.27Z"/><path class="cls-6" d="M11.59,8.28c.24,0,.5,0,.72,0A3.34,3.34,0,0,1,11.59,8.28Z"/><path class="cls-6" d="M8.35,8.32c0,.08-.23,0-.32,0a2.43,2.43,0,0,1-.35,0c.19,0,.54.07.68,0Z"/><path class="cls-6" d="M11.6,8.32h0c.14.09.49,0,.68,0a2.56,2.56,0,0,1-.36,0C11.82,8.34,11.6,8.4,11.6,8.32Z"/><path class="cls-7" d="M7.95,8.38a.3.3,0,0,0-.12.24H7.66c0-.08,0-.17,0-.24Z"/><path class="cls-7" d="M8.07,8.39a1.33,1.33,0,0,1,.26,0c0,.09,0,.15,0,.24H8.19A.25.25,0,0,0,8.07,8.39Z"/><path class="cls-7" d="M11.76,8.62H11.6c0-.09,0-.16,0-.24h.26A.27.27,0,0,0,11.76,8.62Z"/><path class="cls-7" d="M8.1,8.62H7.92c0-.08,0-.14.1-.16A.18.18,0,0,1,8.1,8.62Z"/><path class="cls-7" d="M12,8.62h-.18C11.84,8.42,12,8.44,12,8.62Z"/><path class="cls-6" d="M6.08,8.8s0-.16,0-.18A.7.7,0,0,0,6.08,8.8Z"/><path class="cls-6" d="M7.63,8.68c.25,0,.53,0,.76,0A3.81,3.81,0,0,1,7.63,8.68Z"/><path class="cls-7" d="M7.63,8.68s0,0,0,0a3.73,3.73,0,0,1,.76,0v0C8.16,8.69,7.88,8.67,7.63,8.68Z"/><path class="cls-7" d="M11.56,8.67c0-.07.19,0,.27,0a.5.5,0,0,0,.22,0c.09,0,.22,0,.28,0v0C12.07,8.67,11.79,8.69,11.56,8.67Z"/><path class="cls-6" d="M11.56,8.67c.23,0,.51,0,.76,0A3.81,3.81,0,0,1,11.56,8.67Z"/><path class="cls-6" d="M12.57,9.23c0-.07,0-.21.05-.2C12.53,9,12.6,9.18,12.57,9.23Z"/><path class="cls-7" d="M13.83,10.49c-.09-.11,0-.25.07-.37A5.36,5.36,0,0,0,14.2,8.8l.05,0A4.28,4.28,0,0,1,13.83,10.49Z"/><path class="cls-7" d="M13.78,9c0,.13-.16.13-.26.15l-.65.14c-.11,0-.23.06-.32,0v0A10.84,10.84,0,0,0,13.78,9Z"/><path class="cls-6" d="M13.35,10.1a.46.46,0,0,1,.1.1Z"/><path class="cls-6" d="M13.46,10.1l.19.19Z"/><path class="cls-7" d="M13.35,10.1l-.63-.51c-.06,0-.19-.08-.16-.19s.08,0,.11.06a8.47,8.47,0,0,1,.79.64l.19.19c.08.11.25.23.16.4a1.17,1.17,0,0,0-.37-.5A.46.46,0,0,0,13.35,10.1Z"/><path class="cls-7" d="M13.6,10.39a.81.81,0,0,1,.17.26c-.1.17-.21.32-.31.49a5.47,5.47,0,0,0-1.12-1,3,3,0,0,0,.18-.65,9.85,9.85,0,0,1,.87.7A1.75,1.75,0,0,0,13.6,10.39Z"/><path class="cls-6" d="M13.41,10.19l.19.19A1.75,1.75,0,0,1,13.41,10.19Z"/><path class="cls-7" d="M8.5,9.92s.06,0,.07.06-.09.09-.14.13a.08.08,0,0,1-.06-.06s0,0,.08,0,0,0,0-.05,0,0,0,0S8.5,10,8.5,9.92Z"/><path class="cls-7" d="M11.52,10s0,0,0,0,0,0,.08,0-.13,0-.2-.07,0,0,.05-.06h0s0,0,0,0,0,0,0,0S11.5,10,11.52,10Z"/><path class="cls-6" d="M11.45,9.92s0,0,0,.07,0,0,0,0,0,0,0,0,0,0,0,0,0,0,0,0Z"/><path class="cls-7" d="M8.31,10c0,.07-.1.1-.14.16s-.08,0-.06-.07,0,0,0,0,0,0,0-.07,0,0,.08,0,0,0,0-.05S8.28,10,8.31,10Z"/><path class="cls-6" d="M11.66,10.05l.13.13Z"/><path class="cls-7" d="M11.77,10s0,0,0,.05.05,0,.08,0,0,0-.05.06h0l-.13-.13s0-.05.05-.07h0a0,0,0,0,1,0,0S11.76,10.09,11.77,10Z"/><path class="cls-6" d="M11.71,10h0s0,0,0,.07,0,0,0,0-.05,0-.07,0a0,0,0,0,0,0,0Z"/><path class="cls-6" d="M8.47,10.11s.07-.06.09-.1,0,0,.06.05,0,0-.05,0S8.5,10.09,8.47,10.11Z"/><path class="cls-7" d="M8.62,10.06s0,0,0,0-.07.09-.12.11l-.07-.09s.06-.07.1-.09S8.59,10.06,8.62,10.06Zm0,.06a.05.05,0,0,0-.05,0S8.57,10.14,8.59,10.12Z"/><path class="cls-6" d="M11.32,10.1c0-.1.14-.1.18,0C11.44,10,11.37,10,11.32,10.1Z"/><path class="cls-7" d="M11.5,10.11a.15.15,0,0,1-.09.09s-.07-.06-.09-.1S11.44,10,11.5,10.11Zm-.12,0s0,0,.06,0S11.38,10.09,11.38,10.12Z"/><path class="cls-6" d="M8.23,10.16s.05,0,.07-.08.07,0,.09.08,0-.05-.08-.07S8.26,10.14,8.23,10.16Z"/><path class="cls-7" d="M8.39,10.16l.1.08a.3.3,0,0,1-.12.12,1.77,1.77,0,0,1-.16-.19h0s0-.05.08-.07S8.36,10.14,8.39,10.16Zm-.09,0s0,.06.05.08,0-.06,0-.08Z"/><path class="cls-6" d="M8.21,10.58l.5-.5Z"/><path class="cls-6" d="M8.23,10.61a6.58,6.58,0,0,0,.5-.53s0,0,0,0C8.59,10.28,8.4,10.44,8.23,10.61Z"/><path class="cls-6" d="M11.72,10.6a6.34,6.34,0,0,1-.5-.51h0c0,.07.15.18.23.26Z"/><path class="cls-6" d="M11.26,10.08l.5.5Z"/><path class="cls-7" d="M11.75,10.18c0,.07-.12.12-.16.19a.49.49,0,0,1-.12-.13c.07,0,.11-.11.18-.15S11.71,10.16,11.75,10.18Zm-.15.05s.09-.06.05-.07S11.6,10.19,11.6,10.23Z"/><path class="cls-6" d="M11.65,10.09s.07.06.1.09S11.69,10.12,11.65,10.09Z"/><path class="cls-7" d="M7.75,10.38a3.51,3.51,0,0,0-1.41.5,1.17,1.17,0,0,0-.12-.21,3.49,3.49,0,0,1,1.4-.53A1.7,1.7,0,0,1,7.75,10.38Z"/><path class="cls-6" d="M8.29,10.64l.47-.48C8.62,10.33,8.46,10.48,8.29,10.64Z"/><path class="cls-7" d="M8.29,10.64h0a3.75,3.75,0,0,1,.5-.51.05.05,0,0,1,0,0Z"/><path class="cls-7" d="M11.19,10.16s0,0,0,0a3.54,3.54,0,0,1,.5.51h0Z"/><path class="cls-6" d="M11.19,10.16l.48.48C11.51,10.48,11.35,10.33,11.19,10.16Z"/><path class="cls-3" d="M11.55,10.13s-.07.11-.11.1.05-.06.07-.1S11.54,10.16,11.55,10.13Z"/><path class="cls-6" d="M8.3,10.16s0,.08.06.06,0,0,0-.06.07.05,0,.08S8.27,10.19,8.3,10.16Z"/><path class="cls-7" d="M13.3,11c.07.08.23.2.12.34a.82.82,0,0,0-.25-.36.54.54,0,0,0-.1-.1l-.6-.48c-.05,0-.19-.08-.13-.16s.08,0,.11.05c.24.18.52.4.74.61Z"/><path class="cls-6" d="M8.6,10.38h0s0-.07.07-.1a.4.4,0,0,1,.11-.09s0,0,0,0S8.66,10.32,8.6,10.38Z"/><path class="cls-7" d="M8.79,10.21a1.42,1.42,0,0,1,.16.12.24.24,0,0,1-.11.11.35.35,0,0,0-.24-.07C8.66,10.32,8.71,10.21,8.79,10.21Z"/><path class="cls-7" d="M11,10.36a.66.66,0,0,1,.18-.15l.17.17a.33.33,0,0,0-.25.08Z"/><path class="cls-6" d="M11.19,10.2a.58.58,0,0,1,.17.17Z"/><path class="cls-6" d="M8.17,10.25l0,0s0,0,0,.05,0,0,0,0,.05,0,.06,0v0S8.17,10.25,8.17,10.25Z"/><path class="cls-7" d="M8.17,10.25s.06,0,.07.05-.09.09-.14.13A.07.07,0,0,1,8,10.38s0,0,.08,0,0,0,0-.05h0s0,0,0,0,0,0,0-.05Z"/><path class="cls-7" d="M11.84,10.3s0,0,0,0,0,0,.08,0-.13,0-.2-.07.05-.09.07-.05,0,0,0,0l0,0Z"/><path class="cls-6" d="M11.79,10.25s0,0,0,0,0,0,0,0,0,0,0,0l0,0,0,0S11.79,10.27,11.79,10.25Z"/><path class="cls-7" d="M13,10.82c-.21,0-.4.13-.58.11s-.29-.16-.43-.19a3.53,3.53,0,0,0,.31-.49h0c.12.08.24.18.36.28A1.13,1.13,0,0,1,13,10.82Z"/><path class="cls-7" d="M9.89,5.85s0,0,0,0,0,0,.05,0,0,0,0,0,0-.05.07,0v.08H9.89Z"/><path class="cls-7" d="M11.84,5.85s0,0,0,0h0s0,0,0,0,0,0,0,0h0s0-.06,0,0,0,0,0,.07a.86.86,0,0,1-.21,0Z"/><path class="cls-7" d="M12.8,5.92a.17.17,0,0,1-.13-.05s-.13-.08-.08-.17l0,0s0,0,.06,0S12.79,5.87,12.8,5.92Z"/><path class="cls-7" d="M12.59,6a3.41,3.41,0,0,1,.55.14c.29.09.51.14.61.4a9.87,9.87,0,0,0-1.18-.32C12.59,6.16,12.55,6,12.59,6Z"/><path class="cls-4" d="M8.1,6s0,0,0-.05h.07V6s0,0,0,0h.07s0,0,0,0,0,0,0,0h.07c0,.11-.1.24,0,.27a.59.59,0,0,0,0,.45,5.88,5.88,0,0,1-.79,0l0,0c.06-.06.05-.19.07-.29s0-.07-.05-.13,0,0,.06,0-.05-.15,0-.26h.07V6s0,0,0,0h.07s0,0,0,0,0,0,0,0h.07v.09c0-.09-.06-.11,0-.22s.09,0,.08,0,.1-.06.09,0a.08.08,0,0,1,.09,0C8.17,5.93,8.1,5.94,8.1,6Zm0,0V6a.2.2,0,0,0-.14,0v.09s0,.08,0,.12v0h.16V6.13S8.1,6,8.08,6Zm-.17-.17s0,.08,0,.09.18,0,.21,0,0-.09,0-.07,0,.05-.06,0,0,0,0,0H8s0,.05-.06,0,0,0,0,0ZM7.7,6h0v.09h.21s0-.09,0-.09,0,.05-.07,0,0,0,0,0,0,0,0,0S7.69,6,7.7,6Zm.44.08a.74.74,0,0,0,.2,0s0-.09,0-.09,0,.05-.07,0,0,0,0,0-.08.07-.07,0h0S8.13,6.05,8.14,6.06Zm0,.16s0-.15,0-.15S8.09,6.21,8.13,6.22Zm-.23,0a.2.2,0,0,0,0-.14S7.86,6.22,7.9,6.22ZM7.7,6.09v.13h.15V6.09Zm.46,0v.13h.16a.57.57,0,0,1,0-.13Zm-.52.17a2.71,2.71,0,0,0,.73,0A2.64,2.64,0,0,0,7.64,6.27Zm.69,0H8c-.12,0-.26,0-.32,0,.21,0,.47,0,.7,0,0,0,0,0,0,0ZM8,6.37H7.69c0,.07,0,.17,0,.24h.16A.29.29,0,0,1,8,6.37Zm.06,0a.23.23,0,0,0-.17.25c.11,0,.06-.18.16-.19s.09.13.13.19h0C8.2,6.52,8.1,6.4,8,6.37Zm0,0a.25.25,0,0,1,.13.23h.16c0-.09,0-.15,0-.24A1.45,1.45,0,0,0,8.06,6.38ZM8,6.45a.24.24,0,0,0-.08.16H8.1A.17.17,0,0,0,8,6.45Zm-.37.19s0,0,0,0a5.6,5.6,0,0,0,.76,0s0,0,0,0A3.81,3.81,0,0,0,7.63,6.64Z"/><path class="cls-7" d="M12.25,6.1v.12H12.1V6.13C12.11,6.08,12.2,6.11,12.25,6.1Zm-.07.09s0-.08,0-.07S12.14,6.2,12.18,6.19Z"/><path class="cls-7" d="M11.79,6.15v.07h-.16a.41.41,0,0,0,0-.12h.14S11.77,6.16,11.79,6.15Zm-.07,0s0-.08,0-.07S11.68,6.2,11.72,6.19Z"/><path class="cls-7" d="M8.09,6.13v.09H7.93v0s0-.09,0-.12V6h.14V6S8.07,6.12,8.09,6.13ZM8,6s0,.06,0,.09,0,0,0,0S8,6,8,6Z"/><path class="cls-7" d="M10.07,6.12v.1H9.91v0s0-.08,0-.12V6h.14V6S10,6.11,10.07,6.12ZM10,6s0,.06,0,.09,0,0,0,0S10,6,10,6Z"/><path class="cls-7" d="M6.53,6.25a3.39,3.39,0,0,1,.87.26V7.2a5,5,0,0,0-1.29-.43c.09-.18.18-.34.27-.52h.14Z"/><path class="cls-7" d="M12.3,6.25s0,0,0,0c-.24,0-.51,0-.73,0a0,0,0,0,1,0,0Z"/><path class="cls-7" d="M12.27,6.42c0,.07,0,.13,0,.2h-.16A.27.27,0,0,0,12,6.39a.67.67,0,0,1,.24,0S12.26,6.42,12.27,6.42Z"/><path class="cls-7" d="M14.15,8.26l-.25-.12a4.28,4.28,0,0,0-.56-1.61c.12,0,.21.07.33.1A4.13,4.13,0,0,1,14.15,8.26Z"/><path class="cls-7" d="M12.31,6.64h0c0,.06-.12,0-.17,0s-.42,0-.6,0a0,0,0,0,1,0,0h.73Z"/><path class="cls-7" d="M8.38,6.67a5.6,5.6,0,0,1-.76,0s0,0,0,0c.21.05.59-.09.75,0Z"/><path class="cls-7" d="M10.37,6.65v0c-.25,0-.53,0-.77,0a0,0,0,0,1,0,0h.48A1.43,1.43,0,0,1,10.37,6.65Z"/><path class="cls-5" d="M10.31,7.62a.32.32,0,0,1-.38.32c-.31-.05-.26-.44-.25-.81h.64Zm-.54-.27c.27,0,0-.26,0,0Zm.37,0c.28,0-.12-.23,0,0Zm-.19.16a.12.12,0,0,0,.1,0C10.12,7.39,9.87,7.38,9.95,7.52Zm-.18.12c0,.13.21.06.09-.05S9.77,7.61,9.76,7.65Zm.35,0a.09.09,0,0,0,.1.05C10.32,7.63,10.12,7.53,10.11,7.67Z"/><path class="cls-4" d="M8.1,8s.1,0,.09,0,0,0,0,0,.08,0,.08,0,0,0,0,0h.07c0,.11-.06.15,0,.25s0,.11,0,.15a.81.81,0,0,0,.06.31,4.06,4.06,0,0,1-.8,0s0,0,0,0a.48.48,0,0,0,0-.43s0,0,.06,0,0-.14,0-.25h.07V8s0,0,0,0h.07s0,0,0,0,0,0,0,0h.07c0,.11-.08.18,0,.26.05-.15,0-.28,0-.4s.08,0,.07,0,0,0,.09,0v0s0,0,0,0h.07A.22.22,0,0,1,8.1,8Zm-.19-.07a.79.79,0,0,0,.21,0s0-.1,0-.09,0,.05-.07,0,0-.05,0,0,0,.06-.07,0S7.86,7.9,7.91,7.93ZM8.08,8V8H7.94v.12s0,.08,0,.11.11,0,.16,0v-.1S8.1,8,8.08,8Zm-.39.07a.43.43,0,0,0,.2,0s0-.09,0-.08,0,.06-.05,0,0,0,0,0,0,.05,0,0,0,0-.05,0S7.67,8.07,7.69,8.07ZM8.14,8s0,.08,0,.09.16,0,.2,0,0-.09,0-.08-.06,0-.1,0S8.17,8,8.14,8Zm0,.24c0-.06,0-.14,0-.16S8.08,8.23,8.14,8.23ZM7.71,8.1s0,.09,0,.12a.23.23,0,0,0,.15,0V8.1h0A.19.19,0,0,0,7.71,8.1Zm.6,0s-.1,0-.14,0,0,0,0,.07v.06c.05,0,.22,0,.15-.07Zm-.64.15s0,0,0,0a3.34,3.34,0,0,0,.72,0l0,0h0A4.55,4.55,0,0,0,7.67,8.25Zm0,.06s0,0,0,0a2.43,2.43,0,0,0,.35,0c.1,0,.33,0,.32,0h0A3.94,3.94,0,0,0,7.69,8.32Zm0,.06c0,.08,0,.17,0,.24h.16a.3.3,0,0,1,.12-.24Zm.32,0a.23.23,0,0,0-.16.24H7.9c0-.08,0-.16.11-.18s.06.18.17.18A.26.26,0,0,0,8,8.38Zm.18.24h.16c0-.09,0-.15,0-.24a1.33,1.33,0,0,0-.26,0A.25.25,0,0,1,8.19,8.62ZM8,8.46c-.06,0-.09.08-.1.16H8.1A.18.18,0,0,0,8,8.46Zm.38.21v0a3.73,3.73,0,0,0-.76,0s0,0,0,0A3.81,3.81,0,0,0,8.39,8.67Z"/><path class="cls-7" d="M12.59,7.92a4,4,0,0,1,1.67.57v.2s-.1,0-.16-.08a5.43,5.43,0,0,0-1.5-.44.42.42,0,0,1,0-.25Z"/><path class="cls-7" d="M11.88,8H12v.14s0,.09,0,.11h-.15s0-.08,0-.12S11.87,8,11.88,8ZM12,8h0s0,0,0,.08S12,8.06,12,8Z"/><path class="cls-7" d="M8.14,8s.07.06.09,0,.07,0,.1,0,0,.07,0,.08h-.2Z"/><path class="cls-7" d="M12.08,8.07s0-.08,0-.08,0,0,0,0h0s0-.06,0,0,0,0,0,0h0s0-.06,0,0,0,0,0,.07A.87.87,0,0,1,12.08,8.07Z"/><path class="cls-7" d="M7.69,8.07s0-.08,0-.08,0,.06.05,0,0,0,0,0,0,0,0,0,0,0,.05,0,0,.06,0,.08Z"/><path class="cls-4" d="M11.84,8a.2.2,0,0,1,0-.15h.07s0,0,0,0,0,0,0,0H12a.05.05,0,0,1,0,0s0,0,0,0,.07,0,.08,0v.1s0,0,0,0v.09S12,8,12,8h.07V8a.07.07,0,0,1,.09,0V8a.07.07,0,0,1,.09,0c0,.11,0,.13,0,.24s.06,0,.06,0a.42.42,0,0,0,0,.41,0,0,0,0,0,0,0,4.08,4.08,0,0,1-.8,0c.06-.11.09-.33,0-.41s0-.05.06,0,0-.14,0-.26h.08V8s0,0,0,0h.08V8S11.82,8,11.84,8Zm0,.12s0,.1,0,.12h0s.08,0,.12,0a.14.14,0,0,0,0-.12V8h-.14S11.87,8.06,11.87,8.1Zm.06-.24c0,.07-.07,0-.08,0s0,.06,0,.09a.79.79,0,0,0,.21,0s0-.09,0-.08,0,0,0,0h0S11.94,7.83,11.93,7.86Zm-.32.21s.14,0,.2,0,0-.08,0-.09,0,.05-.05,0h0s0-.05,0,0,0,0,0,0h0s0-.06,0,0S11.6,8.06,11.61,8.07Zm.47,0s.18,0,.2,0,0-.08,0-.07,0,.06,0,0h0s0-.06,0,0,0,.06,0,0h0s0-.06,0,0S12.06,8.07,12.08,8.07Zm-.26.16c.05,0,0-.13,0-.16A.3.3,0,0,0,11.81,8.23Zm.23,0c.05,0,0-.15,0-.16A.72.72,0,0,1,12,8.23Zm-.41-.11s0,.09,0,.11h.14a.16.16,0,0,0,0-.12s-.1,0-.14,0Zm.46.08s.13,0,.15,0V8.1H12.1Zm.21.07a5,5,0,0,0-.73,0s0,0,0,0h0A3.34,3.34,0,0,0,12.31,8.27Zm-.71,0c0,.08.22,0,.32,0a2.56,2.56,0,0,0,.36,0,0,0,0,0,0,0,0C12.08,8.3,11.83,8.32,11.6,8.32Zm.28.06h-.26c0,.09,0,.16,0,.24h.16A.27.27,0,0,1,11.88,8.38Zm.05,0a.21.21,0,0,0-.14.24c.07,0,0-.09.07-.12a.19.19,0,0,1,.08-.06.19.19,0,0,1,.1.18h.06A.24.24,0,0,0,11.94,8.38Zm.06,0a.26.26,0,0,1,.13.23h.16c0-.08,0-.17,0-.24A1.32,1.32,0,0,0,12,8.39Zm-.14.23H12C12,8.44,11.84,8.42,11.85,8.62Zm0,0c-.08,0-.24,0-.27,0a3.81,3.81,0,0,0,.76,0v0c-.06,0-.19,0-.28,0Z"/><path class="cls-7" d="M11.59,8.28h0s0,0,0,0a5,5,0,0,1,.73,0C12.09,8.3,11.83,8.28,11.59,8.28Z"/><path class="cls-7" d="M11.6,8.32c.23,0,.48,0,.69,0a0,0,0,0,1,0,0c-.19,0-.54.07-.68,0Z"/><path class="cls-7" d="M13.83,8.68s0-.06,0-.06,0,0,.05,0v.15a3.15,3.15,0,0,1-.34,1.38c-.06-.07,0-.19.05-.29a3.63,3.63,0,0,0,.21-1S13.83,8.73,13.83,8.68Z"/><path class="cls-7" d="M14.16,8.77a4.08,4.08,0,0,1-.38,1.61.75.75,0,0,1-.18-.2,3.79,3.79,0,0,0,.34-1.52A1.16,1.16,0,0,1,14.16,8.77Z"/><path class="cls-5" d="M8.77,8.25h.65c0,.34,0,.7-.19.79A.4.4,0,0,1,9,9C8.73,8.95,8.76,8.59,8.77,8.25Zm.17.24c.05,0,.05-.12,0-.13A.07.07,0,1,0,8.94,8.5Zm.29,0a.07.07,0,0,0,.09-.1C9.26,8.33,9.18,8.42,9.24,8.49ZM9,8.63a.08.08,0,0,0,.12,0V8.57A.07.07,0,0,0,9,8.63Zm-.17.16c0,.14.24,0,.06-.07h0A.06.06,0,0,0,8.86,8.79Zm.47,0c.07-.14-.17-.14-.1,0A.1.1,0,0,0,9.33,8.83Z"/><path class="cls-5" d="M10.57,8.25h.65c0,.39,0,.89-.4.81S10.55,8.62,10.57,8.25Zm.22.17a.06.06,0,0,0-.08-.06C10.54,8.4,10.8,8.6,10.79,8.43Zm.34.05a.08.08,0,0,0,0-.11C11,8.36,11,8.56,11.13,8.48ZM11,8.6a.07.07,0,0,0-.08-.06C10.71,8.57,11,8.77,11,8.6Zm-.17.18a.07.07,0,0,0-.08-.06C10.55,8.75,10.8,9,10.79,8.78Zm.34,0a.2.2,0,0,0,0-.08C11,8.63,11,8.91,11.13,8.83Z"/><path class="cls-5" d="M10.31,8.74a.33.33,0,0,1-.38.32c-.31-.05-.26-.45-.25-.81h.64Zm-.54-.26a.13.13,0,0,0,.1,0,.18.18,0,0,0,0-.08A.07.07,0,1,0,9.77,8.48Zm.35,0c.26,0,0-.27,0,0ZM10,8.65c.07-.14-.17-.14-.1,0A.1.1,0,0,0,10,8.65Zm-.29.16a.09.09,0,0,0,.11,0C9.95,8.72,9.74,8.67,9.76,8.81Zm.37,0h.08C10.33,8.73,10.06,8.66,10.13,8.83Z"/><path class="cls-7" d="M5.69,8.85s0,0,0,.06S5.67,8.87,5.69,8.85Z"/><path class="cls-4" d="M8.5,6.75h3c0,.44,0,.88,0,1.32a7.57,7.57,0,0,1,0,1.3A1.45,1.45,0,0,1,10,10.59,1.48,1.48,0,0,1,8.53,9.4a7,7,0,0,1,0-1.3V6.78S8.49,6.75,8.5,6.75Zm0,2.36a1.49,1.49,0,0,0,1.3,1.44A1.49,1.49,0,0,0,11,10.17a1.47,1.47,0,0,0,.46-1.12c0-.36,0-.77,0-1.15V7c0-.08,0-.25,0-.26H8.53C8.51,7.53,8.51,8.36,8.53,9.12Z"/><path class="cls-4" d="M12.45,5.77v2a8.82,8.82,0,0,1-.07,1.92,2.48,2.48,0,0,1-4.87-.37c0-.3,0-.64,0-1v-2c0-.18,0-.39,0-.59Zm-4.93.05v2A7,7,0,0,0,7.63,9.8,2.44,2.44,0,0,0,8.47,11a2.45,2.45,0,0,0,3,0,2.44,2.44,0,0,0,.82-1.23,7.56,7.56,0,0,0,.1-1.95V5.79H7.53S7.52,5.8,7.52,5.82Z"/><path class="cls-5" d="M9.67,9.37h.64c0,.38.05.77-.26.81s-.42-.27-.39-.64C9.69,9.51,9.67,9.42,9.67,9.37Zm.21.16a.06.06,0,0,0-.08-.05C9.64,9.51,9.92,9.72,9.89,9.53Zm.22,0c0,.15.23,0,.08-.07A.07.07,0,0,0,10.11,9.55Zm0,.16A.07.07,0,0,0,10,9.65C9.82,9.68,10.07,9.9,10.06,9.72Zm-.29.23c.26.05,0-.27,0,0Zm.37,0a.13.13,0,0,0,.09,0C10.28,9.78,10,9.85,10.14,10Z"/><path class="cls-4" d="M11.58,10.12c.08,0,0-.15.14-.17s.06,0,0,.07.05,0,.08,0,0,0,0,0,.09,0,.09,0-.15.08-.17.12,0,0,.05,0,.07.05,0,.08,0,0,.05,0,.06,0,0,.07a.07.07,0,0,1,.08,0c0,.1-.14.08-.19.16s0,0,0,.07-.06.06-.12.05-.09.13-.15.18,0,.08,0,.08a6,6,0,0,1-.56-.56l0,0c.11,0,.14-.1.23-.13s0-.09.05-.13.05,0,.06,0,.1-.15.16-.2.07.05,0,.08,0,0,.05,0,.06,0,0,.07S11.66,10.08,11.58,10.12Zm.14.48s0,0,0,0,0,0,0,0l-.5-.5h0A6.34,6.34,0,0,0,11.72,10.6Zm-.27-.68s0,0-.05.06.15.22.2.07-.06,0-.08,0,0,0,0,0,0,0,0,0S11.5,9.9,11.45,9.92Zm.26.06s-.07,0-.05.07l.13.13h0s0,0,.05-.06-.07,0-.08,0,0,0,0-.05,0,0,0,0,0,0,0-.07Zm-.21.13c0-.11-.16-.11-.18,0s.07.06.09.1A.15.15,0,0,0,11.5,10.11Zm.15,0c-.07,0-.11.11-.18.15a.49.49,0,0,0,.12.13c0-.08.12-.12.16-.19S11.68,10.09,11.65,10.09Zm0,.55h0a3.54,3.54,0,0,0-.5-.51s0,0,0,0C11.35,10.33,11.51,10.48,11.67,10.64Zm-.16-.51s-.06.06-.07.1.11-.08.11-.1S11.53,10.12,11.51,10.13Zm-.32.07a.66.66,0,0,0-.18.15l.1.1a.33.33,0,0,1,.25-.08A.58.58,0,0,0,11.19,10.2Zm.6.05s-.07,0-.07.05.15.22.2.07-.06,0-.08,0,0,0,0,0,0,0,0,0,0,0,0,0S11.81,10.26,11.79,10.25Zm-.19.14s.12-.06.09-.11S11.61,10.34,11.6,10.39Zm.22,0c0-.11-.17-.11-.18,0s.07.06.09.1A.18.18,0,0,0,11.82,10.44Zm-.38.46s0,0,0,0-.07-.11-.11-.15l-.28-.28s-.09-.11-.15-.11,0,0,0,0Zm0-.48c-.1,0-.25,0-.28.07s.12-.07.24,0a.25.25,0,0,1,0,.22C11.42,10.76,11.48,10.5,11.42,10.42Zm0,.05a.35.35,0,0,1-.07.25s.07.08.1.11a.85.85,0,0,0,.15-.19A.87.87,0,0,0,11.46,10.47Zm-.15.18c.05,0,.07-.09.06-.17a.15.15,0,0,0-.17.05S11.27,10.62,11.31,10.65Z"/><path class="cls-7" d="M11.75,10.58s0,0,0,0,0,0,0,0l-.24-.25c-.08-.08-.23-.2-.23-.26h0Z"/><path class="cls-7" d="M8.23,10.61s0,0,0,0l.5-.5h0A6.58,6.58,0,0,1,8.23,10.61Z"/><path class="cls-7" d="M7.5,5.6a4.13,4.13,0,0,1,1-.6,3.29,3.29,0,0,1,1.26-.27c0,.09-.1.07-.13.07a3.84,3.84,0,0,0-2,.84H7.47S7.5,5.62,7.5,5.6Z"/><path class="cls-7" d="M12.43,5.65a4.15,4.15,0,0,0-2.2-.88v0A3.09,3.09,0,0,1,11.49,5a3.82,3.82,0,0,1,1,.59s.05,0,0,0Z"/><path class="cls-7" d="M7.4,5.9V6a5,5,0,0,1-.81.17A3.46,3.46,0,0,1,7.4,5.9Z"/><path class="cls-7" d="M7.75,6s0,0,0,0,0,0,0,0,.06,0,.07,0,0,.06,0,.09H7.67V6h0S7.72,6,7.75,6Z"/><path class="cls-7" d="M8.16,6c0,.06.08,0,.07,0s0,0,0,0,.06,0,.07,0,0,.06,0,.09a.74.74,0,0,1-.2,0S8.12,6,8.16,6Z"/><path class="cls-7" d="M9.74,6s0,0,0,0,0,0,0,0,.06,0,.07,0,0,.06,0,.09H9.65V6h0S9.7,6,9.74,6Z"/><path class="cls-7" d="M10.14,6c0,.06.08,0,.07,0s0,0,0,0,.06,0,.07,0,0,.06,0,.09a.74.74,0,0,1-.2,0S10.1,6,10.14,6Z"/><path class="cls-7" d="M11.64,6s.06,0,.07,0,0,0,0,0,.06,0,.07,0,0,.06,0,.09h-.21V6h0Z"/><path class="cls-7" d="M12.15,6s0,0,0,0,0,0,0,0,.06,0,.07,0,0,.06,0,.09h-.21V6h0S12.11,6,12.15,6Z"/><path class="cls-7" d="M7.39,6a.94.94,0,0,1,0,.22.89.89,0,0,1-.65,0A4.28,4.28,0,0,1,7.39,6Z"/><path class="cls-7" d="M7.86,6.09v.13H7.7V6.09Zm-.07.09s0-.08,0-.06S7.75,6.19,7.78,6.19Z"/><path class="cls-7" d="M8.31,6.09a.57.57,0,0,0,0,.13H8.16V6.09Zm-.07.09s0-.08,0-.06S8.2,6.19,8.24,6.19Z"/><path class="cls-7" d="M10.29,6.09a.58.58,0,0,0,0,.13h-.16V6.09Zm-.07.09s0-.08,0-.06S10.18,6.19,10.22,6.19Z"/><path class="cls-7" d="M7.4,6.5a2.23,2.23,0,0,0-1.07-.25c0-.1.15-.1.29-.08a3.13,3.13,0,0,1,.64.2C7.33,6.39,7.44,6.4,7.4,6.5Z"/><path class="cls-7" d="M7.39,6.23s0,.06,0,.08a.3.3,0,0,1-.25,0C7.21,6.26,7.32,6.27,7.39,6.23Z"/><path class="cls-7" d="M8.37,6.27a2.71,2.71,0,0,1-.73,0A2.64,2.64,0,0,1,8.37,6.27Z"/><path class="cls-7" d="M8.16,6.62h0c0-.06-.05-.16-.13-.19s-.06.18-.16.19A.23.23,0,0,1,8,6.37C8.1,6.4,8.2,6.52,8.16,6.62Z"/><path class="cls-7" d="M8.33,6.37c0,.09,0,.15,0,.24H8.19a.25.25,0,0,0-.13-.23A1.45,1.45,0,0,1,8.33,6.37Z"/><path class="cls-7" d="M10.14,6.62c-.08,0-.05-.17-.14-.18s-.06.18-.17.18A.24.24,0,0,1,10,6.37C10.08,6.39,10.18,6.52,10.14,6.62Z"/><path class="cls-7" d="M10.31,6.37c0,.09,0,.15,0,.24h-.16A.25.25,0,0,0,10,6.38,1.44,1.44,0,0,1,10.31,6.37Z"/><path class="cls-7" d="M12.1,6.62c-.09,0-.05-.17-.15-.18s-.07.15-.14.18A.18.18,0,0,1,12,6.38.21.21,0,0,1,12.1,6.62Z"/><path class="cls-7" d="M13.87,8.13c-.1,0-.09-.12-.1-.18a3.94,3.94,0,0,0-.58-1.44s0,0,0,0l.09,0A3.93,3.93,0,0,1,13.87,8.13Z"/><path class="cls-7" d="M13.21,6.59a3.71,3.71,0,0,1-.65.14V6.66a5.81,5.81,0,0,0,.6-.14S13.21,6.56,13.21,6.59Z"/><path class="cls-7" d="M12.58,6.76l.66-.15c0,.06.08.14.12.2a3.86,3.86,0,0,1-.76.18S12.59,6.84,12.58,6.76Z"/><path class="cls-7" d="M14.25,8.34c-.09,0-.08-.12-.09-.18a4.08,4.08,0,0,0-.46-1.48s.07,0,.1,0A4.27,4.27,0,0,1,14.25,8.34Z"/><path class="cls-7" d="M7.4,7.23v.08A3.78,3.78,0,0,0,6,6.87c0-.06.05-.08.12-.08A2.06,2.06,0,0,1,6.8,7C7,7.06,7.24,7.15,7.4,7.23Z"/><path class="cls-7" d="M12.58,7c.18,0,.46-.09.66-.14s.14-.07.16,0a3.61,3.61,0,0,1-.8.2S12.58,7.05,12.58,7Z"/><path class="cls-7" d="M6.15,6.89A4,4,0,0,0,5.84,8c0,.11,0,.29-.12.33a4.8,4.8,0,0,1,.23-1.07,1.13,1.13,0,0,1,.12-.31S6.09,6.86,6.15,6.89Z"/><path class="cls-7" d="M6,6.89S6,7,6,7s0,0,0-.07S6,6.89,6,6.89Z"/><path class="cls-7" d="M6.42,6.95a4.39,4.39,0,0,0-.33,1.19c-.1,0-.17.08-.26.11A4.2,4.2,0,0,1,6.17,6.9C6.24,6.89,6.34,6.93,6.42,6.95Z"/><path class="cls-7" d="M7.4,7.33v.46c-.12,0-.21.07-.3.05a1.44,1.44,0,0,1-.37-.25,2.38,2.38,0,0,1-.32-.29c0-.12.09-.2.12-.31A7.83,7.83,0,0,1,7.4,7.33Z"/><path class="cls-7" d="M14.31,8.48s-.05,0-.07,0a4.9,4.9,0,0,0-1.67-.56V7.82h0a5.3,5.3,0,0,1,1.4.4C14.11,8.27,14.28,8.33,14.31,8.48Z"/><path class="cls-7" d="M12,7.93a.79.79,0,0,1-.21,0s0-.08,0-.09.08.08.08,0,0,0,0,0h0s0-.05,0,0Z"/><path class="cls-7" d="M7.4,8.15a5.07,5.07,0,0,0-1.71.54c-.07-.27.17-.35.35-.41a6.68,6.68,0,0,1,1.32-.37h0A1.13,1.13,0,0,1,7.4,8.15Z"/><path class="cls-7" d="M7.94,8.09V8h.14V8s0,.1,0,.12v.1c-.05,0-.15,0-.16,0S7.93,8.12,7.94,8.09ZM8,8s0,.12,0,.07S8,8,8,8Z"/><path class="cls-7" d="M11.61,8.07s0-.07,0-.08,0,0,0,0h0s0,0,0,0,0,0,0,0h0s0-.06.05,0,0,.07,0,.08Z"/><path class="cls-7" d="M7.4,8.17v.06a4.88,4.88,0,0,0-1.75.61c0-.16.19-.22.32-.28A6.24,6.24,0,0,1,7.4,8.17Z"/><path class="cls-7" d="M14.31,8.85s-.05,0-.07,0a4.36,4.36,0,0,0-1.67-.56V8.18h0a5.65,5.65,0,0,1,1.4.4C14.11,8.64,14.28,8.7,14.31,8.85Z"/><path class="cls-7" d="M7.64,8.27s0,0,0,0h.71l0,0C8.13,8.28,7.86,8.3,7.64,8.27Z"/><path class="cls-7" d="M8.18,8.62c-.11,0-.06-.17-.17-.18s-.09.1-.11.18H7.85A.23.23,0,0,1,8,8.38.26.26,0,0,1,8.18,8.62Z"/><path class="cls-7" d="M12.11,8.62H12a.19.19,0,0,0-.1-.18.19.19,0,0,0-.08.06s0,.12-.07.12a.21.21,0,0,1,.14-.24A.24.24,0,0,1,12.11,8.62Z"/><path class="cls-7" d="M12.26,8.38c0,.08,0,.16,0,.24h-.16A.26.26,0,0,0,12,8.39,1.32,1.32,0,0,1,12.26,8.38Z"/><path class="cls-7" d="M6.09,8.62s0,0,0,0,0,.07,0,.09,0,.12,0,.14a3.69,3.69,0,0,0,.33,1.35s.06.1,0,.15-.1-.07-.11-.11A3.79,3.79,0,0,1,6.08,8.8.7.7,0,0,1,6.09,8.62Z"/><path class="cls-7" d="M6,8.65H6a4,4,0,0,0,.41,1.72l-.22.11a4.2,4.2,0,0,1-.43-1.69A.52.52,0,0,1,6,8.65Z"/><path class="cls-7" d="M7.4,9a1.09,1.09,0,0,1-.34,0c-.22,0-.44-.09-.66-.15s-.25,0-.24-.15a9.69,9.69,0,0,0,1.13.25S7.42,8.91,7.4,9Z"/><path class="cls-7" d="M13.8,8.66v.07A5.15,5.15,0,0,1,12.57,9c0-.08.08-.08.12-.08A8.47,8.47,0,0,0,13.8,8.66Z"/><path class="cls-7" d="M7.4,9.27A7.31,7.31,0,0,1,6.18,9c0-.09,0-.15,0-.24A8.12,8.12,0,0,0,7.4,9v.24Z"/><path class="cls-7" d="M12.62,9a11.48,11.48,0,0,0,1.19-.25c0,.09,0,.15,0,.23a7.31,7.31,0,0,1-1.23.28V9.23S12.53,9,12.62,9Z"/><path class="cls-7" d="M6.17,10.53A3.78,3.78,0,0,1,5.72,9c0-.07,0-.18.06-.2v0a4.24,4.24,0,0,0,.38,1.55S6.25,10.49,6.17,10.53Z"/><path class="cls-7" d="M7.42,9.35a2.35,2.35,0,0,1-.66-.09l-.32-.08c-.08,0-.27,0-.26-.14s0,0,0,0,0,0,0,0c.32.11.72.16,1.09.24C7.35,9.29,7.42,9.28,7.42,9.35Z"/><path class="cls-7" d="M7.61,10.12a3.21,3.21,0,0,0-1.45.55c-.05-.14.11-.2.21-.26A6.29,6.29,0,0,1,7.57,10,.1.1,0,0,1,7.61,10.12Z"/><path class="cls-4" d="M9.89,6v.09c0-.09-.06-.11,0-.22s.1,0,.08,0,.1-.06.09,0,0,0,.09,0,0,.11,0,.13.06,0,.07,0,0,0,0,0h.07s0,0,0,0,0,0,0,0h.07c0,.11-.06.15,0,.25l.05,0a.62.62,0,0,0,0,.45,4.29,4.29,0,0,1-.8,0s0,0,0,0a.49.49,0,0,0,0-.43s0,0,.06,0,0-.15,0-.26H9.7V6s0,0,0,0H9.8V6s0,0,0,0Zm0-.11s0,.08,0,.09.16,0,.2,0h0V5.85s0,0-.07,0,0,0,0,0,0,.05-.05,0S9.93,5.83,9.89,5.85Zm0,.12v.1s0,.09,0,.12v0h.16v-.1s0-.09,0-.11V6A.21.21,0,0,0,9.92,6ZM9.68,6h0v.09h.21s0-.09,0-.09,0,.05-.07,0,0,0,0,0,0,0,0,0S9.67,6,9.68,6Zm.44.08a.74.74,0,0,0,.2,0s0-.09,0-.09,0,.05-.07,0,0,0,0,0-.08.07-.07,0h0S10.1,6.05,10.12,6.06Zm0,.16s0-.15,0-.15S10.07,6.21,10.11,6.22Zm-.23,0a.2.2,0,0,0,0-.14S9.84,6.22,9.88,6.22ZM9.68,6.1v.12h.15v-.1C9.84,6.07,9.71,6.09,9.68,6.1Zm.46,0v.13h.16a.58.58,0,0,1,0-.13Zm-.52.16v0h.57c.05,0,.14,0,.16,0A5.31,5.31,0,0,0,9.62,6.25Zm.69.05H9.8s-.14,0-.15,0c.21,0,.46,0,.69,0,0,0,0,0,0,0Zm-.38.06H9.67c0,.08,0,.17,0,.24H9.8A.3.3,0,0,1,9.94,6.37Zm.05,0a.24.24,0,0,0-.16.25c.11,0,0-.19.17-.18s.06.16.14.18S10.08,6.39,10,6.37Zm.05,0a.25.25,0,0,1,.13.23h.16c0-.09,0-.15,0-.24A1.44,1.44,0,0,0,10,6.38Zm0,.23h0c0-.22-.22-.15-.16,0A.24.24,0,0,0,10.07,6.61Zm-.45,0a0,0,0,0,0,0,0c.24,0,.52,0,.77,0v0a.49.49,0,0,0-.27,0H9.89A.67.67,0,0,0,9.62,6.64Z"/><path class="cls-4" d="M11.81,5.83h.08v0s0,0,0,0H12v0s0,0,0,0h.08s0,.11,0,.13.06,0,.07,0,0,0,0,0h.07s0,0,0,0,0,0,0,0h.07c0,.11,0,.13,0,.24s0,0,.06,0a.59.59,0,0,0,0,.45,1.46,1.46,0,0,1-.42,0,.91.91,0,0,1-.4,0,.49.49,0,0,0,0-.43l.06,0c0-.11-.05-.14,0-.25h.07V6s0,0,0,0h.07s0,0,0,0,0-.05.07,0S11.81,5.88,11.81,5.83Zm0,0s0,.08,0,.09.18,0,.21,0,0-.08,0-.07,0,.06,0,0h0s0-.06,0,0,0,0,0,0h0S11.88,5.84,11.84,5.85Zm0,.12V6s0,.08,0,.12v.06H12V6.15s0-.1,0-.11V6A.2.2,0,0,0,11.88,6Zm-.23,0h0v.09h.21s0-.09,0-.09,0,.05-.07,0,0,0,0,0,0,.05-.07,0Zm.46,0h0v.09h.21s0-.09,0-.09,0,.05-.07,0,0,0,0,0,0,0,0,0S12.09,6,12.1,6Zm-.26.24a.2.2,0,0,0,0-.14S11.8,6.22,11.83,6.22Zm.23,0s0-.14,0-.14S12,6.22,12.07,6.22Zm-.43-.12a.41.41,0,0,1,0,.12h.16V6.09S11.67,6.08,11.64,6.1Zm.46,0v.09h.15V6.1S12.08,6.06,12.1,6.13Zm-.51.12a0,0,0,0,0,0,0c.22,0,.49,0,.73,0,0,0,0,0,0,0A5,5,0,0,0,11.59,6.25Zm.7.08s0,0,0,0a5.29,5.29,0,0,0-.71,0s0,0,0,0A4.68,4.68,0,0,0,12.29,6.34Zm-.66,0a2.32,2.32,0,0,0,0,.23h.16a.31.31,0,0,1,.11-.23c.05,0-.07,0-.1,0S11.66,6.35,11.63,6.38Zm.38,0a.27.27,0,0,1,.11.23h.16c0-.07,0-.13,0-.2v0S12,6.35,12,6.39Zm-.06,0a.18.18,0,0,0-.15.24c.08,0,0-.18.14-.18s.07.16.15.18A.21.21,0,0,0,12,6.38Zm.07.19c0-.06,0-.1-.09-.11a.14.14,0,0,0-.07.12h0c0,.08.12,0,.18,0S12,6.57,12,6.57Zm-.44.07a0,0,0,0,0,0,0c.17,0,.41,0,.6,0s.14,0,.17,0h0a.61.61,0,0,0-.25,0h-.22A.61.61,0,0,0,11.58,6.64Z"/><path class="cls-10" d="M9.74,11.66v.76a3.79,3.79,0,0,1-2.43-1.08A17.74,17.74,0,0,0,9.74,11.66Z"/><path class="cls-11" d="M11.88,10.83l.31.14-.52.07A1.23,1.23,0,0,0,11.88,10.83Z"/></g></g></svg>