<svg xmlns="http://www.w3.org/2000/svg" viewBox="0 0 26.89 15.9"><defs><style>.cls-1{fill:#c1272d;}.cls-2{fill:#157f3b;fill-rule:evenodd;}</style></defs><title>flag_504</title><g id="レイヤー_2" data-name="レイヤー 2"><g id="flag"><rect class="cls-1" width="26.89" height="15.9"/><polygon class="cls-2" points="13.42 8.64 11.95 9.81 12.19 9.09 11.81 8.82 11.15 11.03 13.55 9.11 13.42 8.64"/><polygon class="cls-2" points="12.31 8.63 12.88 6.81 13.08 7.46 13.52 7.46 12.85 5.33 11.94 8.31 12.31 8.63"/><polygon class="cls-2" points="13.19 7.92 13.74 9.78 13.24 9.36 12.88 9.64 14.54 10.98 13.63 7.9 13.19 7.92"/><polygon class="cls-2" points="15.62 7.44 13.9 8.84 13.77 8.39 14.31 7.92 12.53 7.93 12.67 7.46 15.62 7.44"/><polygon class="cls-2" points="10.09 7.44 12.51 9.37 12.91 9.06 11.41 7.9 12.06 7.92 12.21 7.46 10.09 7.44"/></g></g></svg>