<svg xmlns="http://www.w3.org/2000/svg" viewBox="0 0 26.36 15.75"><defs><style>.cls-1{fill:#fdfefd;}.cls-2{fill:#e71e18;}.cls-3{fill:#1e2d5d;}.cls-4{fill:#fff;fill-rule:evenodd;}</style></defs><title>flag_581</title><g id="レイヤー_2" data-name="レイヤー 2"><g id="flag"><rect class="cls-1" y="0.12" width="26.36" height="15.58"/><rect class="cls-2" width="26.36" height="1.49"/><rect class="cls-2" y="2.67" width="26.36" height="1.27"/><rect class="cls-2" y="4.96" width="26.36" height="1.16"/><rect class="cls-2" y="14.36" width="26.36" height="1.39"/><rect class="cls-2" y="12.07" width="26.36" height="1.16"/><rect class="cls-2" y="9.62" width="26.36" height="1.21"/><rect class="cls-2" y="7.23" width="26.36" height="1.26"/><rect class="cls-3" width="11.8" height="8.5"/><polygon class="cls-4" points="1.1 1.21 0.83 1.02 0.58 1.21 0.63 0.87 0.39 0.68 0.71 0.67 0.84 0.4 0.97 0.67 1.27 0.68 1.04 0.87 1.1 1.21"/><polygon class="cls-4" points="3.08 1.18 2.81 0.99 2.56 1.18 2.6 0.84 2.37 0.66 2.69 0.64 2.82 0.37 2.95 0.64 3.25 0.65 3.03 0.84 3.08 1.18"/><polygon class="cls-4" points="5.07 1.17 4.8 0.98 4.55 1.17 4.59 0.84 4.36 0.65 4.68 0.63 4.81 0.36 4.95 0.63 5.25 0.65 5.02 0.83 5.07 1.17"/><polygon class="cls-4" points="7.04 1.13 6.77 0.94 6.52 1.13 6.57 0.79 6.33 0.6 6.65 0.58 6.79 0.32 6.92 0.59 7.22 0.6 6.99 0.79 7.04 1.13"/><polygon class="cls-4" points="2.12 2.05 1.84 1.86 1.59 2.05 1.64 1.71 1.41 1.52 1.73 1.5 1.86 1.24 1.99 1.5 2.29 1.52 2.06 1.71 2.12 2.05"/><polygon class="cls-4" points="4.1 2.02 3.82 1.83 3.58 2.02 3.62 1.68 3.39 1.5 3.71 1.48 3.84 1.21 3.97 1.48 4.27 1.49 4.04 1.68 4.1 2.02"/><polygon class="cls-4" points="6.09 2.01 5.81 1.82 5.57 2.01 5.61 1.68 5.38 1.49 5.7 1.47 5.83 1.2 5.96 1.47 6.26 1.49 6.03 1.67 6.09 2.01"/><polygon class="cls-4" points="8.06 1.97 7.79 1.78 7.54 1.97 7.58 1.63 7.35 1.45 7.67 1.43 7.8 1.16 7.93 1.43 8.23 1.44 8 1.63 8.06 1.97"/><polygon class="cls-4" points="1.13 2.91 0.85 2.72 0.6 2.91 0.65 2.58 0.41 2.39 0.74 2.37 0.87 2.1 1 2.37 1.3 2.38 1.07 2.57 1.13 2.91"/><polygon class="cls-4" points="3.11 2.88 2.83 2.7 2.58 2.88 2.63 2.55 2.39 2.36 2.71 2.34 2.85 2.08 2.98 2.34 3.28 2.36 3.05 2.54 3.11 2.88"/><polygon class="cls-4" points="5.1 2.88 4.82 2.69 4.57 2.88 4.62 2.54 4.38 2.35 4.71 2.33 4.84 2.07 4.97 2.33 5.27 2.35 5.04 2.53 5.1 2.88"/><polygon class="cls-4" points="7.07 2.83 6.79 2.64 6.54 2.83 6.59 2.5 6.36 2.31 6.68 2.29 6.81 2.02 6.94 2.29 7.24 2.31 7.01 2.49 7.07 2.83"/><polygon class="cls-4" points="9.02 1.08 8.74 0.89 8.49 1.08 8.54 0.74 8.3 0.56 8.62 0.54 8.76 0.27 8.88 0.54 9.19 0.55 8.96 0.74 9.02 1.08"/><polygon class="cls-4" points="10.97 1.03 10.69 0.85 10.44 1.03 10.49 0.7 10.25 0.51 10.57 0.49 10.71 0.23 10.84 0.49 11.14 0.51 10.91 0.69 10.97 1.03"/><polygon class="cls-4" points="9.95 1.93 9.68 1.74 9.43 1.93 9.47 1.6 9.24 1.41 9.56 1.39 9.69 1.12 9.82 1.39 10.12 1.41 9.89 1.59 9.95 1.93"/><polygon class="cls-4" points="9.04 2.83 8.76 2.64 8.52 2.83 8.56 2.5 8.33 2.31 8.65 2.29 8.78 2.02 8.91 2.29 9.21 2.3 8.98 2.49 9.04 2.83"/><polygon class="cls-4" points="11.01 2.74 10.73 2.56 10.48 2.74 10.53 2.41 10.3 2.22 10.62 2.2 10.75 1.93 10.88 2.2 11.18 2.22 10.95 2.4 11.01 2.74"/><polygon class="cls-4" points="2.11 3.75 1.84 3.56 1.59 3.75 1.63 3.41 1.4 3.22 1.72 3.2 1.85 2.94 1.99 3.2 2.29 3.22 2.06 3.4 2.11 3.75"/><polygon class="cls-4" points="4.09 3.72 3.82 3.53 3.57 3.72 3.61 3.38 3.38 3.2 3.7 3.18 3.83 2.91 3.96 3.18 4.26 3.19 4.04 3.38 4.09 3.72"/><polygon class="cls-4" points="6.08 3.71 5.81 3.52 5.56 3.71 5.61 3.38 5.37 3.19 5.69 3.17 5.82 2.9 5.96 3.17 6.26 3.19 6.03 3.37 6.08 3.71"/><polygon class="cls-4" points="8.05 3.67 7.78 3.48 7.53 3.67 7.58 3.33 7.34 3.15 7.66 3.13 7.79 2.86 7.93 3.13 8.23 3.14 8 3.33 8.05 3.67"/><polygon class="cls-4" points="10.04 3.66 9.76 3.47 9.51 3.66 9.56 3.33 9.32 3.14 9.64 3.12 9.78 2.85 9.91 3.12 10.21 3.13 9.98 3.32 10.04 3.66"/><polygon class="cls-4" points="1.15 4.63 0.87 4.44 0.63 4.63 0.67 4.29 0.44 4.11 0.76 4.09 0.89 3.82 1.02 4.09 1.32 4.1 1.09 4.29 1.15 4.63"/><polygon class="cls-4" points="3.13 4.6 2.85 4.42 2.61 4.6 2.65 4.27 2.42 4.08 2.74 4.06 2.87 3.79 3 4.06 3.3 4.08 3.08 4.26 3.13 4.6"/><polygon class="cls-4" points="5.12 4.59 4.85 4.41 4.6 4.59 4.64 4.26 4.41 4.07 4.73 4.05 4.86 3.79 4.99 4.05 5.29 4.07 5.07 4.25 5.12 4.59"/><polygon class="cls-4" points="7.09 4.55 6.82 4.36 6.57 4.55 6.61 4.21 6.38 4.03 6.7 4.01 6.83 3.74 6.96 4.01 7.27 4.03 7.04 4.21 7.09 4.55"/><polygon class="cls-4" points="9.07 4.54 8.8 4.36 8.55 4.54 8.59 4.21 8.36 4.02 8.68 4 8.81 3.73 8.95 4 9.25 4.02 9.02 4.2 9.07 4.54"/><polygon class="cls-4" points="2.17 5.42 1.89 5.23 1.64 5.42 1.69 5.08 1.45 4.9 1.77 4.88 1.91 4.61 2.04 4.88 2.34 4.89 2.11 5.08 2.17 5.42"/><polygon class="cls-4" points="4.15 5.39 3.87 5.21 3.62 5.39 3.67 5.06 3.44 4.87 3.76 4.85 3.89 4.58 4.02 4.85 4.32 4.87 4.09 5.05 4.15 5.39"/><polygon class="cls-4" points="6.14 5.39 5.86 5.2 5.62 5.38 5.66 5.05 5.43 4.86 5.75 4.84 5.88 4.58 6.01 4.84 6.31 4.86 6.08 5.04 6.14 5.39"/><polygon class="cls-4" points="8.11 5.34 7.83 5.15 7.59 5.34 7.63 5.01 7.4 4.82 7.72 4.8 7.85 4.53 7.98 4.8 8.28 4.82 8.05 5 8.11 5.34"/><polygon class="cls-4" points="10.09 5.33 9.81 5.15 9.57 5.33 9.61 5 9.38 4.81 9.7 4.79 9.83 4.53 9.96 4.79 10.26 4.81 10.03 4.99 10.09 5.33"/><polygon class="cls-4" points="1.16 6.28 0.88 6.09 0.63 6.28 0.68 5.94 0.44 5.75 0.76 5.74 0.9 5.47 1.02 5.74 1.33 5.75 1.1 5.94 1.16 6.28"/><polygon class="cls-4" points="3.13 6.25 2.86 6.06 2.61 6.25 2.65 5.92 2.42 5.73 2.74 5.71 2.87 5.44 3 5.71 3.31 5.72 3.08 5.91 3.13 6.25"/><polygon class="cls-4" points="5.13 6.24 4.85 6.06 4.6 6.24 4.65 5.91 4.41 5.72 4.73 5.7 4.87 5.44 5 5.7 5.3 5.72 5.07 5.9 5.13 6.24"/><polygon class="cls-4" points="7.1 6.2 6.82 6.01 6.57 6.2 6.62 5.87 6.38 5.68 6.71 5.66 6.84 5.39 6.97 5.66 7.27 5.67 7.04 5.86 7.1 6.2"/><polygon class="cls-4" points="9.08 6.19 8.8 6 8.55 6.19 8.6 5.86 8.37 5.67 8.69 5.65 8.82 5.38 8.95 5.65 9.25 5.67 9.02 5.85 9.08 6.19"/><polygon class="cls-4" points="2.21 7.08 1.93 6.89 1.68 7.08 1.73 6.74 1.5 6.56 1.82 6.54 1.95 6.27 2.08 6.54 2.38 6.55 2.15 6.74 2.21 7.08"/><polygon class="cls-4" points="4.19 7.05 3.91 6.86 3.66 7.05 3.71 6.72 3.48 6.53 3.8 6.51 3.93 6.24 4.06 6.51 4.36 6.53 4.13 6.71 4.19 7.05"/><polygon class="cls-4" points="6.18 7.04 5.9 6.86 5.66 7.04 5.7 6.71 5.47 6.52 5.79 6.5 5.92 6.24 6.05 6.5 6.35 6.52 6.12 6.7 6.18 7.04"/><polygon class="cls-4" points="8.15 7 7.88 6.81 7.63 7 7.67 6.67 7.44 6.48 7.76 6.46 7.89 6.19 8.02 6.46 8.32 6.48 8.09 6.66 8.15 7"/><polygon class="cls-4" points="10.13 7 9.86 6.81 9.61 6.99 9.65 6.66 9.42 6.47 9.74 6.45 9.87 6.18 10 6.45 10.3 6.47 10.07 6.65 10.13 7"/><polygon class="cls-4" points="1.22 7.96 0.94 7.77 0.69 7.96 0.74 7.63 0.51 7.44 0.83 7.42 0.96 7.15 1.09 7.42 1.39 7.44 1.16 7.62 1.22 7.96"/><polygon class="cls-4" points="3.2 7.93 2.92 7.75 2.67 7.93 2.72 7.6 2.48 7.41 2.81 7.39 2.94 7.13 3.07 7.39 3.37 7.41 3.14 7.59 3.2 7.93"/><polygon class="cls-4" points="5.19 7.93 4.91 7.74 4.66 7.93 4.71 7.59 4.48 7.4 4.8 7.38 4.93 7.12 5.06 7.38 5.36 7.4 5.13 7.59 5.19 7.93"/><polygon class="cls-4" points="7.16 7.89 6.88 7.7 6.63 7.88 6.68 7.55 6.45 7.36 6.77 7.34 6.9 7.08 7.03 7.34 7.33 7.36 7.1 7.54 7.16 7.89"/><polygon class="cls-4" points="9.14 7.88 8.87 7.69 8.62 7.88 8.66 7.54 8.43 7.35 8.75 7.33 8.88 7.07 9.01 7.33 9.31 7.35 9.08 7.54 9.14 7.88"/><polygon class="cls-4" points="11.05 4.45 10.78 4.26 10.53 4.45 10.57 4.11 10.34 3.92 10.66 3.9 10.79 3.64 10.92 3.91 11.22 3.92 10.99 4.11 11.05 4.45"/><polygon class="cls-4" points="11.04 6.14 10.76 5.95 10.51 6.14 10.56 5.8 10.32 5.62 10.64 5.6 10.78 5.33 10.91 5.6 11.21 5.62 10.98 5.8 11.04 6.14"/><polygon class="cls-4" points="11.1 7.85 10.82 7.66 10.58 7.85 10.62 7.51 10.39 7.33 10.71 7.31 10.84 7.04 10.97 7.31 11.27 7.32 11.04 7.51 11.1 7.85"/></g></g></svg>