<svg xmlns="http://www.w3.org/2000/svg" viewBox="0 0 27.05 16"><defs><style>.cls-1{fill:#db161b;}.cls-2{fill:#fdfefd;}.cls-3{fill:green;}.cls-4{fill:#f9d3d2;}.cls-4,.cls-5,.cls-6,.cls-7,.cls-8{fill-rule:evenodd;}.cls-5{fill:#fff;}.cls-6{fill:#e7706b;}.cls-7{fill:#f19e9b;}.cls-8{fill:#e84135;}.cls-9{fill:#d8d8d8;}</style></defs><title>flag_512</title><g id="レイヤー_2" data-name="レイヤー 2"><g id="flag"><rect class="cls-1" x="0.08" y="0.04" width="26.89" height="15.92"/><rect class="cls-2" x="9.17" y="0.04" width="17.79" height="6.29"/><rect class="cls-3" x="9.08" y="9.8" width="17.87" height="6.15"/><path class="cls-4" d="M4.58,2.25V2.4S4.55,2.27,4.58,2.25Z"/><path class="cls-5" d="M4.58,2.25h.32V2.4H4.58Z"/><path class="cls-6" d="M4.58,2.42v0h.32v0Z"/><path class="cls-4" d="M4.58,2.42v.15h0S4.55,2.44,4.58,2.42Z"/><path class="cls-5" d="M4.58,2.42h.32v.15H4.58Z"/><path class="cls-5" d="M4.54,2.61h.4v.14h-.4Z"/><path class="cls-4" d="M4.54,2.76h.4A2.13,2.13,0,0,1,4.54,2.76Z"/><path class="cls-6" d="M4.55,3.36a1.64,1.64,0,0,1,.37,0A1.83,1.83,0,0,1,4.55,3.36Z"/><path class="cls-6" d="M4.47,3.5c.06,0,.18,0,.26,0H5A3.57,3.57,0,0,1,4.47,3.5Z"/><path class="cls-6" d="M4.6,3.64c-.05,0-.14,0-.17,0H4.6Z"/><path class="cls-6" d="M4.87,3.62h.18s-.12,0-.17,0S4.87,3.63,4.87,3.62Z"/><path class="cls-6" d="M6.36,3.67c.05,0,.17,0,.25,0h.77C7.07,3.69,6.7,3.66,6.36,3.67Z"/><path class="cls-7" d="M5.24,3.83a.08.08,0,0,1,0,0s0-.06,0-.11,0,0,0,0Z"/><path class="cls-5" d="M3.11,4c0-.08,0-.19,0-.25h.4s0,0,0,0V4h0A2.23,2.23,0,0,1,3.11,4Z"/><path class="cls-6" d="M6.07,3.82v0h.17v0Z"/><path class="cls-7" d="M4,3.83H4V4H4Z"/><path class="cls-4" d="M4,3.83A.2.2,0,0,1,4,4Z"/><path class="cls-5" d="M4.51,3.85h.37V4H4.51Z"/><path class="cls-6" d="M2.11,4.28a6.64,6.64,0,0,1,1,0Z"/><path class="cls-6" d="M4.58,2.25c0-.05,0-.2,0-.24h.26c-.07,0-.19,0-.25,0s0,.2,0,.22.17,0,.26,0v0Z"/><path class="cls-5" d="M4.41,2.9s.07,0,.08-.09a0,0,0,0,0,0,0H5s-.06.14-.12.09,0,0,0,.08.07-.1.11-.15H5s0,0,0,.06.06.06.09.14,0-.07,0-.06.06,0,.09,0v.12H5.1s0-.06,0-.08,0,.05-.06.08a1.16,1.16,0,0,0-.23,0s0,0,0-.08a.16.16,0,0,1-.17.08.12.12,0,0,1-.09-.14s0,.12,0,.14H4.54s.06-.13,0-.14,0,0,0,.11,0,0-.08,0a1.17,1.17,0,0,0-.22,0V2.94a1,1,0,0,0,.14,0s0,0,0,0,.07,0,.12,0S4.41,2.94,4.41,2.9Z"/><path class="cls-6" d="M3.67,3.6l0,0s.05,0,.06,0,0,0-.08,0S3.67,3.62,3.67,3.6Z"/><path class="cls-7" d="M2.44,6.39c.07-.06.14-.2.23-.19-.11,0-.15.12-.22.19Z"/><path class="cls-4" d="M1.91,6.85a1.15,1.15,0,0,1,.23-.2s0,0,0,0,.07,0,.08-.06-.07.07-.09.09A.53.53,0,0,0,2,6.8S1.94,6.84,1.91,6.85Z"/><path class="cls-4" d="M4,5.62a.94.94,0,0,1,.17-.17s0,0,0,0S4,5.59,4,5.62Z"/><path class="cls-6" d="M4.11,5.5s0,0,0,0a.33.33,0,0,0,.09-.09l0,0A.85.85,0,0,1,4.11,5.5Z"/><path class="cls-6" d="M5.13,5.25c.07,0,.1.11.17.15s0,0,0,0A1.79,1.79,0,0,1,5.13,5.25Z"/><path class="cls-4" d="M5.33,5.45s0,0,0,0a1,1,0,0,1,.17.17C5.42,5.54,5.39,5.48,5.33,5.45Z"/><path class="cls-5" d="M5.61,5.16c.35.33.71.67,1.09,1a3.19,3.19,0,0,0,.43.34l.26.21s0,0,0,0a1.27,1.27,0,0,1,.17.17l0,0s-.12,0-.17,0,.1,0,.14,0,0,0,0,0a1,1,0,0,1-.54-.17H7s-.05,0-.08,0,0,0,0,0a.47.47,0,0,1-.18-.11s0,0,0,0-.12-.14-.23-.11c-.33-.31-.69-.59-1-.91A1,1,0,0,0,5.3,5.4c-.07,0-.1-.11-.17-.15A.54.54,0,0,1,5,5.12c0-.05.05,0,.06-.09s0-.05,0,0v.08a2.46,2.46,0,0,1,.06-.25s0,0,0,0A3.15,3.15,0,0,0,5.61,5.16Z"/><path class="cls-4" d="M5.21,4.77l.4.38A3.15,3.15,0,0,1,5.21,4.77Z"/><path class="cls-7" d="M5.24,4.13s0,.12,0,.14,0,.06,0,.08-.07,0-.11,0h0v0s0-.07,0,0H5s0,0,0,0,0,0,0,0,0,0,0,0,.11-.1.06-.12,0,0,0,0,0,0,0-.06Z"/><path class="cls-7" d="M6.07,4.1c.06,0,.16,0,.23,0s0-.18,0-.26h0s.06.18,0,.26-.08,0-.08.08,0,0,0-.06v0Z"/><path class="cls-7" d="M5.12,2.93s0,.06,0,.06S5,2.92,5,2.85A.58.58,0,0,0,5.12,2.93Z"/><path class="cls-6" d="M4.6,1.88a1.31,1.31,0,0,0,.31,0s0,0,0,0H4.6Z"/><path class="cls-6" d="M2.75,1.45c-.08,0-.05,0,0,.09a.12.12,0,0,1,0-.11s0,0,.06,0S2.77,1.45,2.75,1.45Z"/><path class="cls-6" d="M5,1.41c-.11.17-.09.13,0,0Z"/><path class="cls-8" d="M2.86,1.58s0,0,0,.08-.09-.07-.09,0,0-.08,0-.11h0l.06,0S2.85,1.58,2.86,1.58Z"/><path class="cls-4" d="M6.61,1.53s0,0,.08-.06a3,3,0,0,0-.29.35h0A1.29,1.29,0,0,1,6.61,1.53Z"/><path class="cls-7" d="M4.8,1.54s-.16,0-.12.08S4.73,1.53,4.8,1.54Z"/><path class="cls-7" d="M5.12,1.71c-.08,0-.09-.15,0-.15a.09.09,0,0,0,0,.15Z"/><path class="cls-6" d="M2.92,1.62s0,0,.06.06-.16,0-.19.12a.14.14,0,0,1,0-.11.07.07,0,0,1,0,.06c.07,0,.09-.06.17-.06S2.91,1.67,2.92,1.62Z"/><path class="cls-6" d="M4.41,1.7a.1.1,0,0,0,0-.12S4.47,1.71,4.41,1.7Z"/><path class="cls-5" d="M3.67,3.6c-.26-.48-.57-1-.81-1.55a1.43,1.43,0,0,1-.2-.71s.05,0,.09,0v0s0,0,0,0,0,0-.06,0a.12.12,0,0,0,0,.11c0-.06,0-.14,0-.09s.05,0,.06.08,0,0,0,0h0s0,.1,0,.11,0,0,.09,0,0,0,0-.08,0,0,0,0,0,0,0,0A12.9,12.9,0,0,1,4.14,3.44s0,0,0,0,0,0,0,0l0-.09s0,.05,0,.09-.13,0-.16.08a.34.34,0,0,0,.22-.06h0a.8.8,0,0,0,.12.17c0,.08-.06.08-.09.12s.09-.11.2-.09-.1,0-.09,0v0H4.4s-.12,0-.14,0,0-.15.06-.12,0,0-.06,0V3.33h.09s-.07,0-.09,0,0,0,0,0,0,0,.08,0,0,0-.09,0,0-.06,0,0-.07,0,0-.08h1v.06s0,0,0,0-.08,0-.08.08,0,0,.08,0,0,0-.06,0,.07,0,.08,0v.14H5.17s0,0,0,0,0,.13,0,.18-.06,0-.11,0,0-.07.11,0,0,0,0,0,0,0,0-.06.05-.14.14-.15,0,0-.06,0a12,12,0,0,1,1-1.63h0c-.28.39-.55.8-.8,1.23a12.24,12.24,0,0,1,1-1.43c0,.07.16.07.12,0s-.09,0-.11,0a.17.17,0,0,1,.15-.12c0,.05,0,.06,0,.11s0-.11,0-.14,0,0-.08,0,0,0-.08.06.09-.14.2-.15a4,4,0,0,1-.48,1.25c-.19.36-.39.73-.57,1,0,0-.06,0-.11,0a1.34,1.34,0,0,0,.26-.41,2.61,2.61,0,0,0-.23.38s-.06,0-.11,0,.07,0,.11.06,0,0,0,0,.1,0,.11,0,.27,0,.31.14a.16.16,0,0,1-.16,0c-.09-.06-.28,0-.29.08s-.12,0-.11,0,.07-.07.09-.11a.15.15,0,0,0-.11.11s-.1,0-.15,0a.07.07,0,0,1,0,0s0,0,0,.06,0,0,0,0,0,0,0,0v0c.06-.06-.14-.1-.14,0L5,3.8s0,0,0,0a.08.08,0,0,0,0,0h0c0-.05,0,0-.09,0s0,0,0,0,0,0,0,0,0,0,.07,0,0,.09,0,.08h0V4H4.92s0-.13,0-.2h0s0,0,0,0a2.24,2.24,0,0,0-.42,0h0c-.06,0,0-.05,0,0s.07.49-.2.42L4.2,4.08a.27.27,0,0,1,0,.17l0,0s-.11-.09-.08-.14S4,4.1,4,4.07s.14,0,.18,0S4,4.09,4,4a.2.2,0,0,0,0-.17v0s.06,0,.09,0-.1,0-.12,0,0,0,0,0V4h-.2V3.82H4s-.12,0-.12,0a.23.23,0,0,0-.28,0s-.11.08-.15,0a.3.3,0,0,1,.28-.12s.18,0,.08,0l0,0s-.11,0-.11,0ZM3,1.7c-.08,0-.1.06-.17.06a.07.07,0,0,0,0-.06.14.14,0,0,0,0,.11c0-.07.14-.07.19-.12s0-.06-.06-.06S3,1.65,3,1.7ZM3.8,3.05s.07,0,.06,0,0,0,0,0-.1.07-.15.11,0,0,0,0,0,0,0,0l0,0v0h0c-.06,0-.12.08-.17,0s0,.1.06.11,0,0,0-.06h0s0,.07,0,.08,0,0,0-.06l0,0c.06,0,.1,0,.15-.06A0,0,0,0,0,3.8,3.05Zm-.37,0S3.4,3,3.37,3A.16.16,0,0,0,3.43,3.07ZM3.34,2.9s0-.09-.06-.11A.16.16,0,0,0,3.34,2.9ZM3.2,2.64a.49.49,0,0,0-.11-.2A.5.5,0,0,0,3.2,2.64Zm-.14-.26c0-.09-.12-.32-.15-.29S3,2.29,3.06,2.38ZM2.89,2a.24.24,0,0,0-.06-.14A.22.22,0,0,0,2.89,2ZM3.62,3.4a.15.15,0,0,0,.06.11S3.65,3.42,3.62,3.4Zm0-.2s0,.07,0,.08.06,0,.08,0-.08,0-.08-.06a.75.75,0,0,0,.14-.06c0,.2,0,0,.06.08,0,0,0-.09-.08-.09A.89.89,0,0,1,3.62,3.21Zm.23.15s.08,0,.11.06-.1,0-.16.06,0-.14,0-.17-.06-.06-.07,0,0,.15,0,.2A.33.33,0,0,0,4,3.4s0-.07-.06-.08S3.87,3.31,3.84,3.36Zm.08,0a.15.15,0,0,0-.06-.11A.16.16,0,0,0,3.92,3.33Zm.34.51c0-.12,0,.29-.09.26S4.2,4,4.24,4s0,0,0,0,.18.08.14-.06a.24.24,0,0,0,0-.18s0,0,0-.08-.07,0-.08,0,.05,0,0,0S4.31,3.84,4.26,3.83Zm.34-.22H4.43s.12,0,.17,0a.58.58,0,0,0,.29,0c.05,0,.14,0,.17,0H4.87A.8.8,0,0,1,4.6,3.62Zm2.06-1.8c-.08.16,0,0,0,0s-.06,0-.06,0A0,0,0,0,1,6.66,1.82Zm0,.11a.71.71,0,0,0-.14.32C6.53,2.14,6.59,2,6.63,1.93Zm-.28.58c0-.05.11-.18.07-.18S6.32,2.51,6.35,2.51Zm-.11.22c0-.06.09-.12.06-.17S6.21,2.68,6.24,2.73ZM6,3.21a2.56,2.56,0,0,0,.21-.43A2.63,2.63,0,0,0,6,3.21Zm-.17.31s.1-.1,0-.11S5.76,3.48,5.81,3.51Zm0-.34s0,0,.09,0,0,0,0,0-.08,0-.09,0,0,0,0,0S5.81,3.15,5.8,3.17Zm-.37.31c.09-.14.12-.33.29-.4C5.55,3.07,5.47,3.36,5.43,3.48Zm0,.06s0,0,.08,0,0-.06-.06-.08-.09,0-.11,0S5.43,3.55,5.47,3.54Zm.17,0c.09,0,.26-.3.14-.29.07,0-.08.07-.11.09s0-.12,0-.17a.43.43,0,0,0-.17.29,1.11,1.11,0,0,1,.14-.24v.14s-.09,0-.11.08.07,0,.12-.06,0,.13,0,.16-.08-.07-.11,0S5.6,3.51,5.64,3.53Zm-.12-.32c0-.05.1-.11.06-.16S5.49,3.17,5.52,3.21ZM5,3.19H4.58c-.08,0-.18,0,0,0a2.34,2.34,0,0,0,.62,0S5,3.16,5,3.19Zm-.09.15a1.64,1.64,0,0,0-.37,0A1.83,1.83,0,0,0,4.92,3.34ZM4.6,3.27a.05.05,0,1,0,.11,0A.09.09,0,0,0,4.6,3.27Zm.35,0c0,.06.07.07.09,0s0,0,0,0A.1.1,0,0,0,5,3.25Zm0,.23H4.73c-.08,0-.2,0-.26,0A3.57,3.57,0,0,0,5,3.48Z"/><path class="cls-6" d="M6.61,1.79c0-.06.07,0,.06,0s-.09.2,0,0A0,0,0,0,0,6.61,1.79Z"/><path class="cls-4" d="M4.87,1.9h0s0,.1,0,.11H4.61s0,0,0,0h.26S4.86,1.93,4.87,1.9Z"/><path class="cls-6" d="M6.6,1.62a12.24,12.24,0,0,0-1,1.43c.25-.43.51-.84.8-1.23a3,3,0,0,1,.29-.35s0,0,.08,0,0,.12,0,.14,0-.05,0-.11a.17.17,0,0,0-.15.12A0,0,0,0,1,6.6,1.62Z"/><path class="cls-6" d="M6.42,2.33s-.06.13-.07.18S6.41,2.38,6.42,2.33Z"/><path class="cls-6" d="M6.2,2.77A2.56,2.56,0,0,1,6,3.21,2.63,2.63,0,0,1,6.2,2.77Z"/><path class="cls-7" d="M4.7,3.07A.16.16,0,0,0,4.87,3s0,0,0,.08a1.16,1.16,0,0,1,.23,0S5.1,3,5.13,3s0,.06,0,.08h.11V2.94a.32.32,0,0,1,0,.22V3.1H4.47s.05,0,.06,0h.11S4.7,3.1,4.7,3.07Z"/><path class="cls-6" d="M5,2.79H5s-.09.08-.11.15,0,0,0-.08.08-.06.12-.09H4.52a0,0,0,0,1,0,0s0,0,0,0a2.13,2.13,0,0,0,.4,0V2.59S4.92,2.77,5,2.79Z"/><path class="cls-7" d="M4.41,2.9s.07,0,.08,0-.11.06-.12,0,0,0,0,0S4.4,2.9,4.41,2.9Z"/><path class="cls-6" d="M4.47,3.07s0,0,.08,0,0-.1,0-.11,0,.12,0,.14-.06,0-.06,0h0S4.47,3.08,4.47,3.07Z"/><path class="cls-6" d="M3.67,3.08s.15,0,.15-.11,0,0,0,0-.06,0-.06,0S3.71,3.12,3.67,3.08Z"/><path class="cls-6" d="M4.64,3.07s-.08-.09,0-.14a.12.12,0,0,0,.09.14S4.65,3.07,4.64,3.07Z"/><path class="cls-7" d="M4.26,3.07a1.17,1.17,0,0,1,.22,0s0,0,0,0H4.26Z"/><path class="cls-6" d="M5.58,3.05s0,.1-.06.16S5.57,3.1,5.58,3.05Z"/><path class="cls-7" d="M3.67,3.08s.07,0,.12,0a0,0,0,0,1,0,0s-.08,0-.11,0,0,0,0,0S3.66,3.09,3.67,3.08Z"/><path class="cls-6" d="M5.72,3.08c-.17.07-.2.26-.29.4C5.47,3.36,5.55,3.07,5.72,3.08Z"/><path class="cls-6" d="M3.66,3.13s.08-.07.11,0-.1,0-.15.06,0,0,0,0Z"/><path class="cls-6" d="M3.54,3.17h0s0,0,0,.06-.05-.06-.06-.11.11,0,.17,0h0A.16.16,0,0,0,3.54,3.17Z"/><path class="cls-6" d="M3.78,3.13c.05,0,.07,0,.08.09-.06-.1-.06.12-.06-.08a.75.75,0,0,1-.14.06s.06,0,.08.06-.09-.07-.08,0,0,0,0-.08A.89.89,0,0,0,3.78,3.13Z"/><path class="cls-6" d="M5.86,3.14s0,0,0,0,.07,0,.09,0,0,0,0,0-.06,0-.09,0S5.83,3.15,5.86,3.14Z"/><path class="cls-6" d="M3.86,3.22a.15.15,0,0,1,.06.11A.16.16,0,0,1,3.86,3.22Z"/><path class="cls-6" d="M5.64,3.51s0-.11,0-.16-.07.05-.12.06.08,0,.11-.08V3.21a1.11,1.11,0,0,0-.14.24.43.43,0,0,1,.17-.29s0,.1,0,.17.17-.07.11-.09c.12,0-.05.26-.14.29Zm0-.17s0,.12,0,.14.11-.14.09-.2A.31.31,0,0,1,5.67,3.34Z"/><path class="cls-6" d="M5.76,3.67s-.11,0-.11,0,0,0,0,0-.08,0-.11-.06.07,0,.11,0a2.61,2.61,0,0,1,.23-.38,1.34,1.34,0,0,1-.26.41s.06,0,.11,0Z"/><path class="cls-5" d="M5.78,3.28c0,.06-.07.13-.09.2s0-.1,0-.14A.31.31,0,0,0,5.78,3.28Z"/><path class="cls-6" d="M3.92,3.33s0,.06.06.08a.33.33,0,0,1-.21.09s0-.2,0-.2.05,0,.07,0,0,.11,0,.17.1,0,.16-.06-.07,0-.11-.06S4,3.43,3.92,3.33Z"/><path class="cls-6" d="M5.84,3.4c.07,0,0,.07,0,.11S5.85,3.45,5.84,3.4Z"/><path class="cls-6" d="M3.87,3.53S4,3.47,4,3.45,4,3.38,4,3.36l0,.09C4,3.46,4,3.51,3.87,3.53Z"/><path class="cls-7" d="M5.21,3.47s0,.13,0,.18,0,0,0,0S5.22,3.55,5.21,3.47Z"/><path class="cls-7" d="M5.64,3.53s-.06,0-.11,0,.09,0,.11,0Z"/><path class="cls-6" d="M5.47,3.54s0,0-.09,0,.08,0,.11,0,0,0,0,0S5.5,3.53,5.47,3.54Z"/><path class="cls-4" d="M5.35,3.82c.05,0,.12,0,.15,0S5.37,3.85,5.35,3.82Z"/><path class="cls-7" d="M5.47,3.54s0,0,0,0,0,0,0,0,.07,0,.06.08S5.49,3.57,5.47,3.54Z"/><path class="cls-4" d="M2,3.62a8.43,8.43,0,0,0,1.12,0h0s0,0,0,.06,0,.11,0,0-.13,0-.06.08,0,0-.09,0,0-.06,0-.08H3c-.06,0-.12,0-.06,0h0s0,0,0,0,0,0,0,0-.07.07-.06,0-.05,0-.09,0h0s0,0,0,0-.15,0-.17,0-.05,0-.06,0,0,0,0,0,0,0-.06,0,0,0,0,0,0,0,0,0-.11-.07-.17,0,0,0,.06,0-.07,0,0,0-.06,0-.11,0,0-.05,0-.09-.06,0-.09,0-.06,0-.09,0S2,3.64,2,3.62Z"/><path class="cls-7" d="M5.09,3.82C5,3.84,5,3.76,5,3.74s0,0,0,0,0,0,0,0l.06,0,0,0s0,.05,0,0S5.09,3.78,5.09,3.82Z"/><path class="cls-6" d="M5.24,3.65s0,.06,0,.06-.07,0,0,0-.07.09-.11,0,0-.07.11,0,0,0,0,0Z"/><path class="cls-6" d="M2.6,3.73c0-.07.14-.07.17,0s0,0,0,0h0s0,0,0,0,0,0,0,0-.09,0-.09,0S2.6,3.74,2.6,3.73Z"/><path class="cls-7" d="M2.37,3.74s0,0-.06,0,.18,0,.17,0,0,0,0,0,0,0,0,0S2.38,3.69,2.37,3.74Z"/><path class="cls-6" d="M4.26,3.64s.1,0,.09,0-.13.11-.2.09.1,0,.09-.12Z"/><path class="cls-8" d="M3.57,3.73a.23.23,0,0,1,.28,0,.34.34,0,0,0,0,.26h0V4c0,.07-.19.08-.28,0s0,0,0,0a.41.41,0,0,0,0-.24s0,0,0,0S3.56,3.76,3.57,3.73Z"/><path class="cls-6" d="M3.41,3.76s.13,0,.15,0,0,0,0,.06h-.4c0,.06,0,.17,0,.25h0V3.79c.07,0,.12,0,.12-.11,0,.11,0,.11,0,0s0,.07,0,.09S3.38,3.79,3.41,3.76Z"/><path class="cls-4" d="M6.95,3.76s-.07,0-.06-.06-.07,0-.09.08,0,0,0,0a.34.34,0,0,1-.12,0h0c.06,0,0-.09,0,0s-.15.05-.08,0a1.43,1.43,0,0,0-.23,0h0c.08,0,.05-.06,0-.09s0,0-.08,0,0,.06-.06.09.1,0,.08,0h0s-.07,0-.09,0V3.68a1.51,1.51,0,0,1,.63,0c.28,0,.56,0,.62.06v.58a5.43,5.43,0,0,1-1.14,0c.32,0,.75,0,1.07,0,0,0,0,0,0,0a1.44,1.44,0,0,0,0-.57c0-.07-.13,0,0,0s-.06,0-.08,0,0,0,0,0,0,0-.06,0h0c.07,0,0,0,0-.06s0,0-.08,0,0,0,0,0-.11,0-.06.06-.09,0-.17,0,0,0,0-.06S7,3.76,6.95,3.76Zm.43-.11H6.61c-.08,0-.2,0-.25,0C6.7,3.66,7.07,3.69,7.38,3.65Z"/><path class="cls-7" d="M2.08,3.67s.06,0,.09,0,.08.05,0,.09,0,0,0,0a0,0,0,0,0,0,0s0,0-.08,0S2.11,3.7,2.08,3.67Z"/><path class="cls-7" d="M3.06,3.76s0,0,0,0a0,0,0,0,0,0,0s0,0,0,0,0,0,0,0H3s0,0,.06,0S3.09,3.72,3.06,3.76Z"/><path class="cls-7" d="M3.12,4.08s.09,0,.12,0,0,.13,0,.15V4.08s0,.18-.06.17,0-.09,0-.16,0,0-.06,0Z"/><path class="cls-7" d="M2.72,4.16s.07,0,0,0,.06,0,.12,0-.06.06-.08.09,0,0-.08-.06S2.75,4.16,2.72,4.16Z"/><path class="cls-5" d="M2,3.68s0,0,.09,0,0,0,0,.08.05,0,.08,0a0,0,0,0,1,0,0s0,0,0,0,.06,0,.11,0,.05,0,0,0,0,0,0,0,0,0,0,0,0,0,0,0,0,0,.06,0,0,0,0,0,0,0,.06,0,0,0,0,0,.06,0,.09,0,0,0,0,0,0,0,0,0,.07.05.09,0,.06,0,.06,0,0,.07,0,0,0,0,0,0a0,0,0,0,1,0,0s0,0,0,0,0,0,.09,0,0-.11.06-.08,0,.1-.12.11V4a0,0,0,0,0,0,0h0s.06,0,.06,0,0,.13,0,.16l0,0a6.64,6.64,0,0,0-1,0s0,0,0,0C1.9,4.24,2,3.88,2,3.68Zm.74.48s-.08,0-.11,0,0,.06-.08.08-.07,0-.14-.06-.1.07,0,.09.08,0,.11,0,0,0,0-.06l.06.06s0,0,0,0,0,0,0-.06.09,0,.12.06,0,0,0-.06,0,.06.08.06.07,0,.08-.09-.07,0-.12,0S2.72,4.13,2.72,4.16Zm.4.06s.06,0,0-.06,0,0-.09,0S3.07,4.22,3.12,4.22Zm-.23,0a.18.18,0,0,1,.17,0s0-.05,0-.09a.1.1,0,0,1-.09,0S2.82,4.22,2.89,4.25Zm-.58,0c0-.05.06,0,.06-.09S2.24,4.23,2.31,4.25Zm0,0s0,0,0-.06,0,0-.11,0A.07.07,0,0,0,2.26,4.22Zm-.09,0s-.09,0-.09,0,0,0,0,0,0,0-.06.06.07-.07.12,0,0,0,0,0S2.19,4.19,2.17,4.17ZM2,3.71A2.93,2.93,0,0,0,2,4.2,3.17,3.17,0,0,0,2,3.71ZM2.37,4s.06,0,.06,0,0-.05,0-.06S2.37,3.95,2.37,4ZM2.75,4s0,0,0,0l0,0s0,0,0-.08H2.8V3.91s-.06,0-.06,0,0,0,0,0,0,0,0,.06.06,0,.06,0-.05,0-.06,0S2.77,4,2.75,4ZM2.52,4c0,.09.19,0,.12,0C2.67,4,2.54,4,2.52,4Z"/><path class="cls-6" d="M2.11,4.2s0,0,0,0,.08,0,.09,0S2.14,4.2,2.11,4.2Z"/><path class="cls-6" d="M3,3.71c-.06-.07,0,0,.06,0H3S3,3.72,3,3.71Z"/><path class="cls-6" d="M5,3.7s0,0,0,0,.1,0,.09,0S5,3.64,5,3.7Z"/><path class="cls-8" d="M6.79,3.77s0-.07.09-.08,0,0,.06.06,0,0,0,0-.1-.07-.12,0Z"/><path class="cls-6" d="M6.63,3.77c-.07,0,.07-.13.08,0s0,.05,0,0A0,0,0,0,0,6.63,3.77Z"/><path class="cls-4" d="M5,3.7c.07-.06,0,.07.08,0h0a.08.08,0,0,1,0,0s0,0,0,0-.07,0-.07,0S5,3.71,5,3.7Z"/><path class="cls-7" d="M5.92,3.76a.16.16,0,0,0,.16,0v0H5.95a0,0,0,0,0,0,0Z"/><path class="cls-7" d="M6.33,3.7s.05,0,.08,0,.07.08,0,.09,0,0-.06,0,0,0,0,0S6.34,3.72,6.33,3.7Z"/><path class="cls-6" d="M7.15,3.77c-.05,0,0-.09.06-.06s0,0,0,0,0,0,.08,0,.06.06,0,.06S7.14,3.73,7.15,3.77Z"/><path class="cls-7" d="M7.46,3.71a1.44,1.44,0,0,1,0,.57A4.65,4.65,0,0,0,7.46,3.71Z"/><path class="cls-7" d="M7.36,4.2s0,0,0,0,0,.07,0,.11c-.32,0-.75,0-1.07,0,0,0,0,0,0,0h0c.33,0,.72,0,1.08,0C7.4,4.24,7.32,4.25,7.36,4.2Z"/><path class="cls-7" d="M7.24,4.25s-.09,0-.09,0,0,0-.06,0,0,0,0,0h0s.05,0,.09,0,0,0,0,0S7.24,4.23,7.24,4.25Z"/><path class="cls-6" d="M6.6,4.26s0,0,0-.08.05,0,.06,0h0s0,0,0,0,0,0,0,0A.12.12,0,0,0,6.6,4.26Z"/><path class="cls-4" d="M6.39,4.19s.07,0,0,0,.05,0,.12,0,0,0,0,.11,0,0,0,0a.12.12,0,0,1,.09,0s0,0,0,0,0,0,0,0h0c.06,0,.09.06.17,0s-.07,0,0,0,0,0,0,0,.16,0,.14,0,.08,0,0,0v0s.05,0,0,0,.05,0,.12,0h0s0,0,0,0,0,0,.06,0,.05,0,.09,0,.09-.07,0-.06.07,0,0,0,0,0,.06,0,0,0,0,0,0,0,0,.09c-.36,0-.75,0-1.08,0,0,0,0,0,0,0s0,0,0,0S6.51,4.22,6.39,4.19Z"/><path class="cls-7" d="M3.84,3.77c0,.05.1,0,.12,0H3.83V4A.34.34,0,0,1,3.84,3.77Z"/><path class="cls-7" d="M3.52,4h0s0,0,0,0-.09,0-.14,0,0,0,0,0S3.52,4.08,3.52,4Z"/><path class="cls-6" d="M5.5,3.8a.15.15,0,0,1,.11-.11s-.08,0-.09.11Z"/><path class="cls-6" d="M6.81,3.77c0-.07.09-.06.12,0A.17.17,0,0,0,6.81,3.77Z"/><path class="cls-6" d="M5.52,4.08s0-.05,0-.08h.11s0,0,0,0-.07,0-.11,0Z"/><path class="cls-7" d="M4.51,3.85a.1.1,0,0,1,0-.08h0s0,0,0,0,.11-.06.08,0,.06-.05.09,0,.1-.05.14,0,0,0,0,0h0s0,.12,0,.17h0V3.85Z"/><path class="cls-6" d="M4.54,3.79h0a2.24,2.24,0,0,1,.42,0c-.07,0,0,0,0,0s0,0,0,0-.1,0-.14,0,0,0,0,0A.74.74,0,0,1,4.54,3.79Z"/><path class="cls-4" d="M4.54,3.79a.74.74,0,0,0,.23,0s0,0,0,0,0,0-.09,0-.06,0-.08,0S4.5,3.8,4.54,3.79Z"/><path class="cls-4" d="M3.11,4a2.23,2.23,0,0,0,.42,0s-.07,0-.11,0H3.24s-.11,0-.12,0a0,0,0,0,1,0,0Z"/><path class="cls-6" d="M3.84,4H4V4H4c0,.09.11,0,.11,0S4,4,4,4.07H4s-.08,0-.11,0Z"/><path class="cls-7" d="M2.72,4s.06,0,.06,0,0,0-.06,0,0-.08,0-.06,0,0,0,0,0,0,.06,0V4H2.74s0,0,0,.08l0,0s0,0,0,0S2.71,4,2.72,4Z"/><path class="cls-7" d="M4.26,3.83s0,0,.12,0,0,.07,0,0a.24.24,0,0,1,0,.18h0s0-.1,0-.15H4.24S4.24,3.83,4.26,3.83Z"/><path class="cls-5" d="M5.21,4s0,0,0,0,0,0-.08,0,0-.07,0-.12,0,0,0,0,0,0,.08,0,0,0,0,0,0,0,0,0,0,0,0,.06,0,0,0,0S5.22,3.94,5.21,4Z"/><path class="cls-5" d="M5.15,3.82s.07,0,.06,0,0,0-.09,0,0,0,0,0S5.18,3.84,5.15,3.82Z"/><path class="cls-7" d="M2.41,3.91S2.36,4,2.43,4s0,0-.06,0S2.35,3.89,2.41,3.91Z"/><path class="cls-4" d="M4.89,4c0-.05,0-.14,0-.17s0,.16,0,.2h0s0,0,0,0Z"/><path class="cls-7" d="M6.76,4.07s0,.06.11,0,0-.07.06,0,0,0,0,.06S6.82,4.08,6.76,4.07Z"/><path class="cls-7" d="M7,3.88s0,0,0,0,0,0,.06,0V4H7s0,0,0,.08-.1,0,0,0,0,0,0-.08S7,4,7,4,7,4,7,3.94v0S7,3.89,7,3.88Z"/><path class="cls-6" d="M4.24,3.85V4h.19c0,.14-.24.07-.14.06s-.05,0,0,0,0,.06-.08.08.07-.38.09-.26S4.24,3.84,4.24,3.85Zm0,.18c.05,0,0,0,0,0s0,0,.06,0,0-.06,0-.06S4.3,4,4.29,4Z"/><path class="cls-5" d="M7.24,3.77h0s0,0,.06,0,0,0,0,0,.06,0,.08,0,0-.12,0,0a4.65,4.65,0,0,1,0,.57s0,0,0,0-.08-.08,0-.11,0,0,0,0,0,0,0,0,0,0-.06,0-.05,0,0,0v0s-.07,0-.09,0h0c-.07,0-.07,0-.12,0s0,0,0,0v0H7a.07.07,0,0,0-.09,0s0,0-.08,0,0,0,0,0-.11,0-.17,0,0,0-.06,0,0,0,0,.08,0,0,0,0,0,0,0-.11-.07,0-.12,0-.05,0,0,0v0s0,0,0,0,0,0,0,.08,0,0,0,0,0,0,0,0h0c-.07,0-.06-.11-.06-.2s0,.19,0,.06,0,0,.08-.08,0-.22,0-.26-.08,0-.08,0,0-.1.06-.09,0,0,0,0,0,0,0,0,0,0,.06,0h0a1.43,1.43,0,0,1,.23,0,0,0,0,0,1,0,0h0a.34.34,0,0,0,.12,0s0,.06,0,0h0a.17.17,0,0,1,.12,0s0,0,0,0,0,0,.06,0,0,0,0,.06.11,0,.17,0S7.22,3.78,7.24,3.77ZM7,3.9v0S7,3.94,7,4,7,4,7,4s0,0,0,.08,0,0,0,0,0,0,0-.08h.06V3.94s-.06,0-.06,0,.06,0,0,0S7,3.9,7,3.9Zm-.29.18s0,0,0,0,0,0,0-.06a.11.11,0,0,0-.08,0c0-.11,0,0,0,0S6.7,4,6.69,4.08Zm.21,0s0,0,0-.06,0,0-.06,0-.07-.09-.11,0S6.81,4.15,6.9,4.13ZM6.78,4c.06.09.2,0,.11-.09s-.13,0,0,0S6.79,4,6.78,4Z"/><path class="cls-7" d="M6.64,4s0-.12,0,0a.11.11,0,0,1,.08,0s0,0,0,.06,0,0,0,0S6.71,4,6.64,4Z"/><path class="cls-7" d="M5.2,3.93c0,.1,0,0,.06-.06V4s0,.06-.06.06,0,0,0,0,0,0,0,0-.05,0,0,0,0,0,0,0,0,0,0-.06S5.2,3.91,5.2,3.93Z"/><path class="cls-7" d="M2.64,3.93c.07.07-.12.12-.12,0S2.67,4,2.64,3.93Z"/><path class="cls-7" d="M6.89,3.93c-.13,0-.13,0,0,0s0,.18-.11.09S7,4,6.89,3.93Z"/><path class="cls-5" d="M4.4,4s0,0,0,.06-.05,0-.06,0,0,0,0,0S4.38,4.08,4.4,4Z"/><path class="cls-5" d="M4.58,4s0,0,.08,0,0,.06,0,.08-.12.16-.18.09a0,0,0,0,1,.07,0s0-.07.06-.09-.11,0-.06,0S4.58,4,4.58,4Z"/><path class="cls-4" d="M4.44,4.17s0,0,0,0,0,0,.08,0,0,0,0,0,.07,0,.08,0,0,0,0,0-.05,0,0,0-.11,0-.06.06,0,0,0,0h0Z"/><path class="cls-5" d="M5.24,4.13c-.08-.07-.2,0-.21,0s0,0,.06,0a0,0,0,0,0,0,0c.1,0,.19-.06.26,0s.07,0,.12,0a2.42,2.42,0,0,1-.19.24S5.25,4.17,5.24,4.13Z"/><path class="cls-5" d="M4.72,4s0,0,.15,0c-.07,0-.1.12-.17.09a.08.08,0,0,1,0,0c-.06,0-.08.09-.12,0a0,0,0,0,1,.08,0c0-.06.05-.08.08-.11S4.74,4,4.72,4Z"/><path class="cls-5" d="M4,4.07c-.06.14-.42.14-.52,0v0s.11,0,.14,0,.24,0,.28,0S3.94,4,4,4.07Z"/><path class="cls-6" d="M4.89,4s-.05,0,0,.06-.11,0-.11.08a.15.15,0,0,0-.12.08s.07,0,.06,0-.06,0,0,0-.06,0-.06,0,0,0,0,0l0,0c-.06-.09-.05,0-.12,0s0,0,0,0,0,0,0,0,0,0,.06,0,0,0,0,0-.07.1-.15.09,0,0,0,0v0s-.07,0,0,0a.17.17,0,0,0-.12.06s.06.05.06,0-.14.08-.09.14-.08,0-.08,0v0h0s.1,0,0-.08,0-.07.12-.06,0,0,0,0-.08.08-.14.11a.76.76,0,0,0,0,.2s0,0,0,0,0-.2,0-.31,0,0,0,0h0s0,0,0,0v0s0,0,0,0,0,0,.06,0a0,0,0,0,0,0,0s0-.08.09-.09-.06,0,0,0a0,0,0,0,0,.06,0s0,0,0,0,.08-.08,0-.08a0,0,0,0,1,0,0,.14.14,0,0,0-.11,0v0c.27.07.22-.29.2-.42s0,.07,0,0a.1.1,0,0,0,0,.08V4h.38Zm-.14,0s-.12.05-.08.11a0,0,0,0,0-.08,0c0,.06.07,0,.12,0a.08.08,0,0,0,0,0c.07,0,.1,0,.17-.09-.11,0-.1,0-.15,0S4.74,4.05,4.75,4.07ZM4.56,4s.07,0,.06,0-.11,0-.06.09a0,0,0,0,0-.07,0c.06.06.12-.06.18-.09s0,0,0-.08,0,0-.08,0-.07,0-.08,0,0,0,0,0,0,0-.08,0,0,0,0,0-.07,0-.06,0,0,0,.06,0-.06,0-.06,0,0,0,.06,0,0-.05.06,0-.06,0-.08,0,0,0,0,0h0s0,0,0,0,0,0,.06-.06S4.52,4,4.56,4Zm-.29.4c0,.06.07,0,.12,0s0,0,.06-.06S4.34,4.42,4.27,4.45Z"/><path class="cls-7" d="M4.2,4.23l0,0a.27.27,0,0,0,0-.17l.08.06v0s-.05,0,0,.09A0,0,0,0,1,4.2,4.23Z"/><path class="cls-5" d="M4.66,4.31c0-.06.06,0,.06,0s.05,0,0,0-.07,0-.06,0a.15.15,0,0,1,.12-.08c0-.05.05-.06.11-.08s0,0,0-.06,0,0,0,0,0,0,0,0,0,.07,0,.12a0,0,0,0,1,0-.06c-.06,0-.13.06-.14.14s0-.06.06,0a.09.09,0,0,1,0,0c-.08,0,0,0-.06,0s0,0-.06,0A0,0,0,0,1,4.66,4.31Z"/><path class="cls-6" d="M5.07,4.3s0-.05.08-.06-.08,0-.08-.08,0,.07-.11.06a0,0,0,0,0,0-.06,0,0,0,0,0,0,0,.22.22,0,0,0,.06,0c-.07,0,0,.06-.11.06s0,0,0,0S5,4.28,5,4.26s0,0,.06,0,0,0,0,0,0,0-.06,0a0,0,0,0,0,.06,0H5a1.3,1.3,0,0,1-.12.11h0s.08,0,0-.06,0,0,.08,0-.12,0-.18.08h0s.07,0,0-.08a.31.31,0,0,0-.12.09c-.06,0,.08,0,0-.08.09,0,.14-.14.23-.14a.09.09,0,0,0,0,0s0,.07-.06,0a0,0,0,0,1,0,0s-.08,0-.07,0,0,0-.06,0,.07-.11.14-.14a0,0,0,0,0,0,.06c0-.05-.06-.07,0-.12s0,0,0,0h.2V3.82h0s0,0,0,0,0,0,0,0,0-.05.09,0,0-.06-.06,0l0,0c0-.08.19,0,.14,0s0,0,0,0,0,.08,0,.11a.08.08,0,0,0,0,0s0,0,0,0,0,0,0,0h0s0,.16-.06.06,0,0,0,0,0,0-.08,0,0,0,0,0,0,.06,0,.12.07,0,.08,0,0,0,0,0,0,0,0,0,0,0,0,0,0-.05.06-.06.14,0,.2,0,0,0,0,0-.11,0-.12,0-.16,0-.26,0a0,0,0,0,1,0,0s0,0-.06,0,.13,0,.21,0h0s.06.09,0,.06-.08,0-.08,0l0,0s-.07,0,0,.06-.06,0-.06,0S5.07,4.31,5.07,4.3Zm-.15-.22a0,0,0,1,0,.06,0Zm0,.08s0,0,.06,0,0,0,0,0S5,4.12,5,4.16Zm.12,0c0,.06.07.06.06,0Zm-.28.25s.05,0,.07,0S4.82,4.31,4.81,4.37Z"/><path class="cls-5" d="M5,4.13s0,0,0,0,0,0-.06,0S5,4.11,5,4.13Z"/><path class="cls-5" d="M5.15,4.13c0,.06-.08.06-.06,0Z"/><path class="cls-7" d="M2.2,4.16c.06,0,0,0,.11,0s0,0,0,.06A.07.07,0,0,1,2.2,4.16Z"/><path class="cls-6" d="M2.74,4.19s0,0,0,.06-.09,0-.12-.06,0,0,0,.06,0,0,0,0l-.06-.06s0,0,0,.06-.09,0-.11,0,0-.06,0-.09.1,0,.14.06,0-.06.08-.08.11.05.11,0S2.75,4.17,2.74,4.19Z"/><path class="cls-6" d="M2.92,4.16a.1.1,0,0,0,.09,0s.09.05,0,.09a.18.18,0,0,0-.17,0C2.82,4.22,2.91,4.19,2.92,4.16Z"/><path class="cls-7" d="M3,4.16c.06,0,0,0,.09,0s0,0,0,.06S3.05,4.19,3,4.16Z"/><path class="cls-5" d="M5.09,4.31c0-.06,0,0,.06,0s0,0,0-.06l0,0s.08,0,.08,0,0,0,0,0,0,.07-.06.12S5.09,4.32,5.09,4.31Z"/><path class="cls-7" d="M2.11,4.2s.05,0,.06,0,.08,0,0,.08,0-.07,0,0-.06,0-.12,0S2.08,4.21,2.11,4.2Z"/><path class="cls-6" d="M2.37,4.16c0,.05-.06,0-.06.09S2.32,4.16,2.37,4.16Z"/><path class="cls-4" d="M3.17,4.25c.08,0,0-.14.06-.17v.14c0,.12-.35.08-.58.08H2.08s0,0,0,0h1Z"/><path class="cls-6" d="M6.33,4.26c.05,0,0-.06,0-.08s0,0,0,0v0C6.51,4.22,6.4,4.27,6.33,4.26Z"/><path class="cls-5" d="M4.27,4.17a.14.14,0,0,1,.11,0,0,0,0,0,0,0,0c.09,0,0,0,0,.08s.06,0,0,0a0,0,0,0,1-.06,0v0c0-.07-.06,0-.09,0V4.26C4.22,4.2,4.28,4.22,4.27,4.17Z"/><path class="cls-5" d="M4.44,4.19s0,0,0,0,.08,0,.08,0,0,0-.06,0,0,0-.06,0,0,0,.06,0,0,0-.06,0,0-.06.06,0Z"/><path class="cls-5" d="M5,4.33A0,0,0,0,1,5,4.3s0,0,.06,0,0,0,0,0-.06,0-.06,0-.06.06-.09.08,0,0,0,0,0,0,.11-.06a.22.22,0,0,1-.06,0,0,0,0,0,1,0,0,0,0,0,0,1,0,.06c.07,0,0-.06.11-.06s0,0,.08.08,0,0-.08.06S5,4.3,5,4.33Z"/><path class="cls-6" d="M6.93,4.23c0,.06-.13,0-.14,0s0,0,0,0,.05-.08.08,0Z"/><path class="cls-6" d="M7.24,4.2v0c.09,0,0,.11,0,.06s0,0,0,0S7.24,4.22,7.24,4.2Z"/><path class="cls-5" d="M4.49,4.34s0,0,0,0,.06-.07.15-.09,0,0,0,0-.06,0-.06,0,0,0,0,0h0S4.49,4.32,4.49,4.34Z"/><path class="cls-7" d="M4.66,4.31a0,0,0,0,0,0,0s0-.06.06,0,0-.05.06,0a.09.09,0,0,0,0,0c0-.06.06-.05.07,0a0,0,0,0,0,0,0s-.07,0,0,0,0,0-.06,0,0,0,0,0a.19.19,0,0,0-.12.08s0,0,0,0,0,0,0,0,0,0-.08,0v0s0-.06,0,0S4.64,4.31,4.66,4.31Z"/><path class="cls-5" d="M4.55,4.31c.07,0,.07-.13.12,0l0,0s0,0,0,0h0S4.55,4.33,4.55,4.31Z"/><path class="cls-6" d="M4.24,4.3v0s.12-.1.09,0-.07,0-.06.06l0,0S4.22,4.3,4.24,4.3Z"/><path class="cls-4" d="M4.23,4.36l0,0s0,0,.06-.06v0s0,0,0,0-.11.06-.09.09h0s0,0,0,0S4.24,4.41,4.23,4.36Z"/><path class="cls-7" d="M4.49,4.34s0,0,0,0h0s0,0,0,0,0,0,0,0v0s0,0-.07,0Z"/><path class="cls-5" d="M4.46,4.36c0,.07-.11,0-.06.06s-.08.09-.12,0S4.4,4.29,4.46,4.36Z"/><path class="cls-5" d="M4.64,4.39l0,0s0,0,0,0-.08.09-.12,0,.11,0,.06-.06,0,0,0,0,.06,0,.08,0S4.64,4.37,4.64,4.39Z"/><path class="cls-6" d="M4.56,4.36v0h0v0s0,0,0,0,0,0-.06.06.07,0,.12,0,0,0,0,0l0,0s0,0,0,0-.06,0,0,.09h0a0,0,0,0,0,0,0s-.14.05-.12.12-.1,0,0,0-.07,0-.08,0,0,0,0,0,.13-.08.08-.12.06,0,.08,0a.07.07,0,0,0,0,0c0-.05.12-.06.08-.11S4.55,4.4,4.56,4.36Z"/><path class="cls-4" d="M4.69,4.46a.31.31,0,0,1,.12-.09s0,.05,0,.08l0,0S4.73,4.46,4.69,4.46Z"/><path class="cls-6" d="M5.09,4.39v0s-.07,0-.06,0,.06,0,0-.08,0,0,.06,0Z"/><path class="cls-6" d="M5.1,4.45s.08,0,0-.06,0,0,.08,0h0s0,.06,0,.06h0s0,0,0,0-.07,0-.08.06Z"/><path class="cls-5" d="M4.81,4.45c.06,0,.13-.18.18-.08s-.05,0-.08,0,0,0,0,.06S4.85,4.48,4.81,4.45Z"/><path class="cls-4" d="M5.13,4.45s.07,0,.08-.06,0,0,0,0h0a.1.1,0,0,1,0,.11s0,0,0,0a0,0,0,0,0-.08,0h0s0,0,0-.06S5.19,4.46,5.13,4.45Z"/><path class="cls-7" d="M5.1,4.53c-.05,0-.05-.06,0-.08h0c.05,0,.05.06,0,.08Z"/><path class="cls-5" d="M4.56,4.36s-.07,0-.07,0-.08.06-.08.11a.07.07,0,0,1,0,0s-.08,0-.08,0-.17.14-.08.12,0,.08,0,0,0,0,0,.06,0,0-.06,0,.07-.07,0-.09.08,0,.08,0,.13-.09.09-.14-.07,0-.06,0a.17.17,0,0,1,.12-.06s0-.06,0,0v0S4.53,4.33,4.56,4.36Z"/><path class="cls-4" d="M4,5.36s0-.07,0-.09,0,0,0,.06.12,0,.14,0S4,5.32,4,5.36Z"/><path class="cls-7" d="M3.89,4.51s.1,0,.14,0,0,.07,0,.14,0,0-.09,0S4,4.6,4,4.54,3.94,4.51,3.89,4.51Z"/><path class="cls-7" d="M4.89,4.53c0-.06-.06,0-.12,0s0,0,0,0,0,0,0,0,0,0,0,0,0,0,0,0,0,0,0-.06,0,.05-.09.06.1-.12.17-.15-.07,0,0-.08l0,0h0s0,0,.07,0h0s-.11.06,0,.06,0,0,0,0Z"/><path class="cls-5" d="M3.89,4.51c.05,0,.11,0,.12,0s-.08,0-.09.09.07-.05.09,0,0-.08,0-.14v0c.08,0,.16,0,.19,0s0,0,0,0h0s0,0,0,0,0,.22,0,.31a.68.68,0,0,0,0,.39v.11s-.1,0-.14,0,0-.06,0-.06,0,.07,0,.09h.2a.33.33,0,0,1-.09.09A.94.94,0,0,0,4,5.62a4.43,4.43,0,0,1-.85.69s0,0,0,0a2.1,2.1,0,0,1-1.06.62H2c-.06,0-.07,0,0-.09s0,0,.06,0-.07.06,0,.11.1-.13.15-.19.12-.06.09-.09-.06,0-.08.06,0,0,0,0,.21-.17.31-.26h0c.07-.07.11-.16.22-.19a7.17,7.17,0,0,0,1-.9s0,0,0-.09a.16.16,0,0,0-.09,0h0s0,0,0,0,.11,0,.14-.09a.62.62,0,0,0-.18.09,5.7,5.7,0,0,1-.58-.12c0-.06.07,0,.08-.08a.26.26,0,0,0-.14.08s-.15,0-.17-.06,0-.1,0-.17,0,.13,0,.08.08.05,0,.08S2.18,5,2.15,4.73a.84.84,0,0,1,.48-.14s-.07,0-.08.08.07-.07.11,0V4.56c.14,0,.16,0,.28,0s.08,0,0,0,.05,0,.08,0h.06c.07,0,.11,0,.14,0h.26s-.07,0-.08.06a.34.34,0,0,0,.12-.06A1.26,1.26,0,0,1,3.89,4.51Zm-.26.2a.17.17,0,0,0,.11-.06A.14.14,0,0,0,3.63,4.71ZM2.83,5s0,.1,0,.11.06,0,.06-.06S2.88,5,2.83,5Zm.91-.38a.16.16,0,0,0,.11-.06S3.75,4.55,3.74,4.59Zm-.82.35A.16.16,0,0,0,3,4.88S2.94,4.9,2.92,4.94Zm.41-.21a.26.26,0,0,0,.14-.08A.23.23,0,0,0,3.34,4.73Zm-.51.08c0-.05,0-.07,0-.09s0,.2,0,.26,0,0,0-.12c.12-.1.31-.15.44-.25C3.1,4.65,3,4.75,2.83,4.8Zm.06.08A.15.15,0,0,0,3,4.82.16.16,0,0,0,2.89,4.88ZM3.6,4.8a.15.15,0,0,0,.11-.06A.15.15,0,0,0,3.6,4.8ZM3.31,5s.09,0,.11-.06S3.32,4.92,3.31,5ZM3,5.12s.09,0,.11-.06S3,5.09,3,5.12Zm-.08-.41S3,4.69,3,4.65A.14.14,0,0,0,2.91,4.71Zm0-.08,0,0s0-.1,0,0S2.87,4.68,2.89,4.63ZM3.37,5s.09,0,.11-.06S3.39,5,3.37,5Zm-.26.14a.15.15,0,0,0,.11-.06A.16.16,0,0,0,3.11,5.14ZM4,4.69s0,0,0,0a1.72,1.72,0,0,0,0,.2s-.06,0-.06,0,.05,0,.06,0S4,5,4,5.06s-.05,0-.06,0,.05,0,.08,0Zm-.37.4A.16.16,0,0,0,3.74,5S3.65,5.06,3.63,5.1Zm.18.06s.09,0,.11-.06A.16.16,0,0,0,3.81,5.16ZM2.57,4.93s-.08-.09-.11-.06S2.54,5,2.57,4.93ZM2.4,4.77s-.11-.08-.08,0,.05,0,0,.08a.32.32,0,0,0-.11.08c.07,0,.11-.09.17-.08s.14-.09.11-.14Zm.54,1.51s.09,0,.12,0S3,6.24,2.94,6.28Zm-.17,0c.06,0,.12.06.17,0S2.81,6.19,2.77,6.23ZM3,6.36s0,0,0,0a1.1,1.1,0,0,0-.18.16.47.47,0,0,0,.2-.19S3,6.33,3,6.36Zm-.38.34a.4.4,0,0,0,.17-.11A.62.62,0,0,0,2.64,6.69Z"/><path class="cls-5" d="M4.34,4.67c0-.07.06,0,.08,0s0,0,0,0,.1-.07.12-.12a0,0,0,0,1,0,0s-.08.08-.11,0S4.39,4.73,4.34,4.67Z"/><path class="cls-4" d="M4.56,4.59h0c0-.06.07,0,.08-.09h0s0,0,0,0-.07,0-.09.08S4.58,4.59,4.56,4.59Z"/><path class="cls-5" d="M4.73,4.65s0,0,0,0,.07,0,0,0,.08-.09.12,0-.06.05-.06,0,0,0,0,0a.16.16,0,0,0-.08.06Z"/><path class="cls-4" d="M4.89,4.59h0c0-.05,0,0,0-.06s0,0,0,0,0,0,.06,0,0,0,0,0,0,0,0,0h0S4.9,4.59,4.89,4.59Z"/><path class="cls-6" d="M3.12,4.54s.1,0,.14,0S3.19,4.53,3.12,4.54Z"/><path class="cls-6" d="M4.8,4.94s0,0,0,0,0,0,0,0,.06,0,.07,0-.08,0-.07-.08,0,.06-.08,0,0,0,.06-.08,0,0,.06,0,0,0,0,0,0,0-.06,0S5,4.66,5,4.56s.08,0,.08,0h0s-.08,0,0,.06,0,0-.08,0,.08,0,.11,0a0,0,0,0,1,.08,0s0,0,0,0h0s0,0,0,.06-.1,0-.14.08S5,4.72,5,4.74s0,0,0,0,0,0,0,0-.14.07-.06.09v0a0,0,0,0,0,0,0s0,0,0,0a.17.17,0,0,1-.09.08s0,0,0,0,0,0,0,0,0,0,0,0S4.78,5,4.8,4.94ZM5,4.68s0,0,.06,0S5,4.62,5,4.68Z"/><path class="cls-6" d="M2.54,4.67s-.15.08-.11.14-.1.06-.17.08a.32.32,0,0,1,.11-.08s0,0,0-.08.06,0,.08,0Z"/><path class="cls-5" d="M4.91,4.6s-.06.06-.09,0,0,0,0,0,0,0,0,0S4.91,4.59,4.91,4.6Z"/><path class="cls-5" d="M5.13,4.59s-.08.09-.11,0,.07,0,.08,0Z"/><path class="cls-5" d="M5.21,4.6s0,.1,0,.11-.08,0-.11,0,0,0,0,0S5.15,4.57,5.21,4.6Z"/><path class="cls-6" d="M4.73,4.65h0a.16.16,0,0,1,.08-.06s0,0,0,0,.07,0,.06,0h0s-.06,0,0,.06h0s0,0,0,0,0,0,0,0,.06,0,.09,0h0s0-.06,0,0-.08.06,0,.08a.21.21,0,0,0-.12.06s0,0,0-.06,0,0-.06,0S4.74,4.66,4.73,4.65Z"/><path class="cls-7" d="M2.66,4.57v.06s-.06,0-.11,0,.07,0,.08-.08S2.65,4.58,2.66,4.57Z"/><path class="cls-5" d="M4.44,4.74c.05,0,.05-.06,0-.07s.08,0,.08-.08,0,0,0,0,0,0,0,0l-.09.08s.06,0,.07,0-.06,0-.06.08,0,0,0,0,0,0,0,0h0C4.38,4.75,4.44,4.77,4.44,4.74Z"/><path class="cls-5" d="M4.29,5.08s0,0,0,0S4.35,5,4.38,5a.08.08,0,0,0,0,0c0-.06.08,0,.08-.08s0,0,0,0,.22-.13.09-.2.1,0,.06-.06,0-.06.12-.09,0,0-.06,0,0,0,0,0-.05-.07,0-.09a.19.19,0,0,1,.12-.08s0,0,0,0,0,0,.06,0,0,0,0,0,0-.06.06,0a.09.09,0,0,1,0,0c-.09,0-.14.14-.23.14.07,0-.08.05,0,.08s0,0,.06,0,0,0,0,.08-.17.11-.17.15,0-.06.09-.06,0,.06,0,.06,0,0,0,0,0-.06.06,0,0,.06,0,.06A.21.21,0,0,1,5,4.63c-.07,0,0,0,0-.08s0,0,0,0,0,0-.06,0,0-.06,0-.06A1.3,1.3,0,0,0,5,4.34s.08,0,0,0,0,0-.06,0-.09.06,0,.08,0,0,.06,0v0h0s.05-.08.11,0v0s-.05,0-.08,0,0,0,0,.06-.05.06,0,.08-.08,0-.08,0-.15.12-.2.18,0,0,.06,0,0,0,0,0,0-.06-.06,0-.06,0-.06.08,0-.06.08,0,0,0,.07.08-.07,0-.07,0,0,0,0,0,0,0,0,0-.07,0-.11,0,0,0,0,0,0,0,0,0,0,0,0,0,0,0,0,0-.06.06-.11.08.06,0,.07,0-.1,0-.06.06-.07,0,0,0-.08.06-.12.09h0a.07.07,0,0,1,0,0c.06,0,.07-.08.14-.09s0,0,0,0,0,0,0,0,0,0,0,0,0,0,0,0,0,0,0-.06-.06,0-.08,0h0c.09-.08.06-.11.08-.18s-.06,0-.09.06.06,0,.08,0S4.4,5,4.38,5s-.05.08-.09.12Zm.34-.32a.16.16,0,0,0-.11.09s.06,0,.06,0,0,0,0,0,.07,0,.08,0,.15-.13,0-.11c0,0-.07,0-.06,0S4.62,4.74,4.63,4.76Zm0,.17,0,0s0,0,0,0,0,0,0,.06,0,.06.06,0,.22-.12.09-.2h0s0,0,0,0,0,0,.11-.06,0-.06-.06,0S4.51,4.83,4.63,4.93Z"/><path class="cls-5" d="M5,4.68s0,0-.06,0S5.05,4.62,5,4.68Z"/><path class="cls-5" d="M4.18,4.8a.76.76,0,0,1,0-.2c.06,0,.09-.08.14-.11s0,0,0,0,0,.06-.12.06,0,0,0,.08h0s-.08.08,0,.11S4.2,4.82,4.18,4.8Z"/><path class="cls-5" d="M4.92,4.77c-.08,0,0-.08.06-.09s0,0,0,0h0S4.92,4.75,4.92,4.77Z"/><path class="cls-4" d="M5,4.74s0-.06.09-.06,0,0,0,0S5,4.72,5,4.77H5S5,4.76,5,4.74Z"/><path class="cls-7" d="M5.09,4.69s.11,0,.11,0,0,0,0,.06,0,0,0,0h0c-.06,0-.06,0-.11,0v0c.1,0,0-.1,0,0v0S5.13,4.72,5.09,4.69Z"/><path class="cls-7" d="M4.23,4.67c.07,0,0,.05,0,.09s0,0,.06,0,0,0,0-.06.1,0,0,0,0,0,0,0,.17-.08.17-.12.09,0,.11,0h0s-.08,0-.08.09h0s0,0,0,0,0,0-.08.08.05.06,0,.07,0,0,0,0-.15.09-.23.12,0,0,0,0-.06,0,0,.06,0,0,0,0,0,0,0,0,0,0,0,0,0,0,0,.06v0s0,.07,0,.08,0,0,0,0a.68.68,0,0,1,0-.39s0,0,0,0,.06,0,.06,0,0-.07,0-.11Z"/><path class="cls-6" d="M4.6,4.73s.11,0,.06,0c.12,0-.07.08,0,.11s-.06,0-.08,0,0,0,0,0,0,0-.06,0a.16.16,0,0,1,.11-.09S4.61,4.73,4.6,4.73Z"/><path class="cls-6" d="M4.41,4.74s0,0,0,0-.06,0,0,.06h0s0,0,0,0-.1.06-.06.09,0,.08-.06.12,0,0-.06,0,.05,0,.06,0,0,0,0,0-.06,0-.06,0,0,0,0,0,0,0,0,0,.15-.09.12-.14A.2.2,0,0,0,4.41,4.74Z"/><path class="cls-6" d="M4.44,4.8c.05,0,0-.05,0,0s0,0,0,0,0,0,.06-.08-.07,0-.07,0l.09-.08s.07,0,.09-.08,0-.06.06,0,0,.11-.12.09,0,0-.06.06-.16.14-.09.2,0,0,0,0,0,0-.08.08a.08.08,0,0,1,0,0S4.33,5,4.29,5s0,0,0,0,0,0-.09,0v0S4.34,5,4.27,5s.06,0,.08,0-.06-.05-.06,0,0,0,0-.06S4.4,4.83,4.44,4.8Z"/><path class="cls-7" d="M4.77,4.69s0,0,.06,0,0,.06-.11.06,0,.05,0,0h0c.12.08-.11.14-.09.2s0,0-.06,0,.1,0,0-.06,0,0,0,0l0,0C4.51,4.83,4.79,4.76,4.77,4.69Z"/><path class="cls-7" d="M4.92,4.77s0,0,0,0H5s0,0,0,0,0,0,0,0,0,0-.06,0,0,0,0,0,0,0,0,0,0,0,0,0,0,0,0-.06Z"/><path class="cls-5" d="M4.15,5c0-.09,0,0,0-.06s0,0,0,0,.16-.19.23-.12a.2.2,0,0,1-.14.08C4.3,4.87,4.19,4.91,4.15,5Z"/><path class="cls-7" d="M2.46,4.86s.07,0,.11.06S2.5,4.87,2.46,4.86Z"/><path class="cls-7" d="M2.63,5s0,0,0-.08,0-.07,0-.08,0,.11,0,.17S2.63,5.06,2.63,5Z"/><path class="cls-4" d="M4.3,4.89s0-.07.06-.09,0,0,0,0h0s-.07.07-.12.09Z"/><path class="cls-5" d="M5.06,4.85c.05,0,0-.07.11,0s-.06.06-.06,0,0,.07,0,.06,0,0,.08,0,0,0,0,.08S5,4.92,5,5s0,0,0,0S5.06,4.9,5.06,4.85Z"/><path class="cls-6" d="M5.17,4.82h0a2.46,2.46,0,0,0-.06.25V5s0,0,0,0,0,0,0-.08-.06.07-.08,0,0-.06,0-.06S5.18,4.85,5.17,4.82Z"/><path class="cls-6" d="M4.87,5.2a.09.09,0,0,0,0,0s0,0,0,0-.17,0-.08,0,0,0-.06,0S4.91,5.07,5,5s0,0-.06,0,0,0,0,0L5,4.89c0-.07,0,0,0,0a.08.08,0,0,0,0,0s0,0-.06,0,0,0,0,0,.06,0,0,0H5v0s0,0,0,0v0c0,.05-.07,0-.08.08S5,5,5,5V5S5,5,5,5s0,0,0,0S5,5.07,5,5.12l0,0,0,0s0,0,0,0L5,5h0s.07.05,0,.09S5,5,4.89,5.06s0,0,0,.06-.08,0,0,0S4.89,5.2,4.87,5.2Z"/><path class="cls-5" d="M4.17,5s0,0,0,0,0,0,.06,0,0,0,0,0-.06,0-.06,0,0,.06.06,0,0-.14.06-.12h0s-.07,0,0,.06.07,0,.06,0-.08,0-.08,0,0,.07-.08.09,0,0,0-.06,0,0,0,0S4.14,5,4.17,5Z"/><path class="cls-7" d="M4.69,5s.08-.1.11,0-.09,0,0,.08h0s0,0,0,.06-.07-.07-.14,0-.06,0-.08,0,.06,0,0-.06,0,0,0,0V5a0,0,0,0,0,0,.06.08.08,0,0,0,0,0S4.63,5,4.69,5Z"/><path class="cls-7" d="M5,5V5s0,.07.08,0,0,0,0,0,0,.07,0,0,0,0,0,0S5,5,5,5Z"/><path class="cls-6" d="M4.29,5.1S4.45,5,4.38,5s.07,0,.08,0-.08,0-.08,0,0-.05.09-.06,0,.11-.08.18h0s-.1,0,0,.08c-.09,0,0,.11,0,0v0s0,0,0,0-.08.07-.14.09,0,0,0,0,0,0,.06,0-.06-.05-.06,0,0-.06.06-.06a0,0,0,0,0,0,0c0,.05,0,.06-.09.06s0,.09,0,.12h0V5.2s0,0,0,0A.41.41,0,0,0,4.29,5.1Zm-.11.11v0s.06,0,.06,0S4.21,5.2,4.18,5.2Z"/><path class="cls-6" d="M4.63,5s0,0,0,0,0,0,0,0,0,0,0,0,0,0,0,.06,0,0,0,0Z"/><path class="cls-4" d="M4.77,5s0,0,0,0,0,0,0,0,0,0,0,0L4.8,5a0,0,0,0,0,0,0s0,0,0-.06Z"/><path class="cls-6" d="M4.8,5,4.86,5s0,0,0,0,0,0,0,0S4.84,5,4.8,5Z"/><path class="cls-6" d="M4.44,5.06s0,0,.08,0,0,.06,0,.06,0,0,0,0,0,.06,0,0S4.44,5.09,4.44,5.06Z"/><path class="cls-6" d="M4.34,5.33s.06-.08.12-.09,0,0,0,0,0,0,.06-.06-.07,0-.07,0S4.55,5,4.6,5s0,0,0,.06.07,0,.08,0-.1.11-.18.14a0,0,0,0,0,0,0s0,0,0,0,0,0,.06,0,0,0,0,0,.12,0,.11-.08,0,0,.08,0a.72.72,0,0,1-.23.18s0,0,0,0,0,0-.06,0-.12-.06-.08,0S4.35,5.37,4.34,5.33Z"/><path class="cls-4" d="M4.2,5.11s0-.08.09,0v0a.41.41,0,0,1-.11.09S4.19,5.15,4.2,5.11Z"/><path class="cls-4" d="M4.38,5.14c-.07-.06,0-.08,0-.08h0s0,0,0,0,0,0,0,0v0S4.38,5.16,4.38,5.14Z"/><path class="cls-5" d="M4.91,5.17s0,0,0,0,0,0,0-.06,0,.05.06.06,0-.05,0-.09H5L5,5s0,0,0,0l0,0S4.93,5.16,4.91,5.17Z"/><path class="cls-5" d="M4.54,5.31s0,0,0,0a.72.72,0,0,0,.23-.18s-.07,0-.08,0-.06.07-.11.08,0,0,0,0-.09,0-.06,0,0,0,0,0a0,0,0,0,1,0,0c.08,0,.11-.11.18-.14s.1,0,.14,0a0,0,0,0,1,0,0s.07,0,.11,0,0,0,0,0,0,0,0,0,0,0,0,0,0,0,0,0a.17.17,0,0,0,.09-.08s0,0,0,0a0,0,0,0,1,0,0s0,.06,0,.06,0,0,0,0,0-.06.06,0a.08.08,0,0,1,0,0s-.07,0,0,0L4.89,5s.08.05,0,0S5,4.93,5,5s-.18.12-.26.23,0,.07.06,0,.17-.15.08,0,0,0,0,0a.09.09,0,0,1,0,0s-.06,0-.11,0h0a0,0,0,0,1,0-.06.16.16,0,0,0-.11.09s0-.08.09,0v0A.75.75,0,0,1,4.54,5.31Z"/><path class="cls-5" d="M4.41,5.17c0,.08-.12,0,0,0S4.4,5.16,4.41,5.17Z"/><path class="cls-5" d="M4.2,5.29c.06,0,.1-.07,0-.12s0,0,.09-.06a0,0,0,0,1,0,0s-.09.05-.06.06.07,0,.06,0-.11,0-.06,0v0s0,0,0,0,0,0,0,0S4.19,5.33,4.2,5.29Z"/><path class="cls-6" d="M4.72,5.26v0c-.05,0,0,0-.09,0a.16.16,0,0,1,.11-.09,0,0,0,0,0,0,.06h0S4.74,5.26,4.72,5.26Z"/><path class="cls-7" d="M4.29,5.26s0,0,0,0a.07.07,0,0,0,0,0h0s0,0-.06,0l0,0H4s.19,0,.14,0v0h0s0,0,0,0,0,0,0,0,0,0,0,0Z"/><path class="cls-5" d="M4.4,5.33c0-.06.07,0,.08,0Z"/><path class="cls-4" d="M2.41,6.45a1.62,1.62,0,0,1,.21-.21A2.07,2.07,0,0,1,2.41,6.45Z"/><path class="cls-7" d="M7.53,6.86a1.27,1.27,0,0,0-.17-.17s0,0,0,0a.59.59,0,0,1,.15.14l0,0S7.54,6.83,7.53,6.86Z"/><path class="cls-4" d="M2.44,6.45c.06-.08.14-.13.2-.21s.08,0,0,0S2.47,6.45,2.44,6.45Z"/><path class="cls-6" d="M3.09,6.34a.47.47,0,0,1-.2.19,1.1,1.1,0,0,1,.18-.16s0,0,0,0S3.07,6.34,3.09,6.34Z"/><path class="cls-7" d="M6.49,6.48c.11,0,.13.12.23.11s0,0,0,0A1.07,1.07,0,0,1,6.49,6.48Z"/><path class="cls-7" d="M2.81,6.59a.4.4,0,0,1-.17.11A.62.62,0,0,1,2.81,6.59Z"/><path class="cls-7" d="M2,6.8a.53.53,0,0,1,.12-.08c-.05.06-.16.12-.15.19S2,6.83,2,6.8Z"/><path class="cls-4" d="M7.55,6.82s0,0,0,0,0,.07-.09.08,0,0,0,0h0l0,0s0,0,0-.06Z"/><path class="cls-5" d="M4.6,1.88c-.14-.05-.21-.16-.34-.23a.65.65,0,0,1,.38-.29l.06-.09c.15,0,.15.11.26.12-.06.15-.08.19,0,0,.08.09.34.17.21.31H5.13a.09.09,0,0,1,0-.15c-.07,0-.06.17,0,.15a.27.27,0,0,1-.21.16A1.31,1.31,0,0,1,4.6,1.88Zm-.17-.31a.1.1,0,0,1,0,.12C4.47,1.71,4.48,1.58,4.43,1.58Zm.4.14s.05-.1,0-.12S4.79,1.69,4.83,1.71Zm-.16-.09c0-.09.15,0,.12-.08S4.62,1.57,4.67,1.62Z"/><path class="cls-7" d="M4.84,1.59s0,.11,0,.12S4.87,1.66,4.84,1.59Z"/><path class="cls-8" d="M6.61,1.59s.11,0,.11,0-.14.08-.12,0A0,0,0,0,0,6.61,1.59Z"/><path class="cls-5" d="M4.6,1.9h.28s0,.09,0,.09H4.6Z"/><path class="cls-6" d="M2.83,1.88A.24.24,0,0,1,2.89,2,.22.22,0,0,1,2.83,1.88Z"/><path class="cls-7" d="M6.49,2.25a.71.71,0,0,1,.14-.32C6.59,2,6.53,2.14,6.49,2.25Z"/><path class="cls-5" d="M4.87,2.24c-.09,0-.21.05-.26,0s0-.18,0-.22.18,0,.25,0Z"/><path class="cls-7" d="M2.91,2.08s.13.2.15.29C3,2.29,3,2.18,2.91,2.08Z"/><path class="cls-7" d="M3.09,2.44a.49.49,0,0,1,.11.2A.5.5,0,0,1,3.09,2.44Z"/><path class="cls-7" d="M6.3,2.56s0,.11-.06.17S6.29,2.61,6.3,2.56Z"/><path class="cls-7" d="M3.27,2.79s0,.06.06.11A.16.16,0,0,1,3.27,2.79Z"/><path class="cls-7" d="M3.37,3s0,.06.06.11A.16.16,0,0,1,3.37,3Z"/><path class="cls-7" d="M3.54,3.17a.16.16,0,0,1,.09,0v0s0,0,0,0l0,0s0,0,0,.06S3.54,3.21,3.54,3.17Z"/><path class="cls-6" d="M5.15,3.17a2.34,2.34,0,0,1-.62,0c-.13,0,0,0,0,0H5S5.1,3.18,5.15,3.17Z"/><path class="cls-7" d="M4.26,3.22s.1,0,.09,0,0,0-.08,0S4.26,3.24,4.26,3.22Z"/><path class="cls-6" d="M5.23,3.31s-.06,0-.08,0,.08,0,.06,0-.07.05-.08,0,.11,0,.08-.08S5.22,3.27,5.23,3.31Z"/><path class="cls-7" d="M5,3.24s-.12.05,0,0-.09,0-.09,0A.1.1,0,0,1,5,3.24Z"/><path class="cls-7" d="M4.7,3.27a.05.05,0,1,1-.11,0A.09.09,0,0,1,4.7,3.27Z"/><path class="cls-6" d="M3.67,3.51a.15.15,0,0,1-.06-.11S3.66,3.47,3.67,3.51Z"/><path class="cls-7" d="M3.87,3.53c.08,0,.11-.06.19-.08s0,0,0,0,0,0,0,0A.34.34,0,0,1,3.87,3.53Z"/><path class="cls-8" d="M3.71,3.62s.07,0,.11,0l0,0S3.71,3.66,3.71,3.62Z"/><path class="cls-6" d="M4.26,3.59s.12,0,.14,0H4.26Z"/><path class="cls-7" d="M4.6,3.62a.8.8,0,0,0,.28,0s0,0,0,0a.58.58,0,0,1-.29,0Z"/><path class="cls-6" d="M4,3.83s0,0,0,0,.12,0,.12,0,0,0-.09,0v0Z"/><path class="cls-5" d="M4.24,3.85h.19c0,.05,0,.12,0,.15H4.24Z"/><path class="cls-5" d="M5.26,3.85h.37s0,.13,0,.15H5.46c-.06,0-.16,0-.2,0V3.86Z"/><path class="cls-5" d="M5.52,4.08V4s.09,0,.11,0,.22.13.31.08,0-.23,0-.29h.29s.09,0,.09,0,0,.23,0,.26-.17,0-.23,0S5.59,4.25,5.52,4.08Z"/><path class="cls-5" d="M5,4.08a0,0,0,1,1-.06,0Z"/><path class="cls-6" d="M2,4.2a2.93,2.93,0,0,1,0-.49A3.17,3.17,0,0,1,2,4.2Z"/><path class="cls-7" d="M6.89,4.2a.07.07,0,0,1,.09,0H7s0,0,0,0Z"/><path class="cls-5" d="M4.89,4.36s0,0-.07,0S4.86,4.33,4.89,4.36Z"/><path class="cls-5" d="M4.23,4.46h0a0,0,0,0,1,0,0S4.22,4.5,4.23,4.46Z"/><path class="cls-6" d="M3.57,4.53a.34.34,0,0,1-.12.06s.07,0,.08-.06h0S3.57,4.5,3.57,4.53Z"/><path class="cls-7" d="M3.84,4.53a.16.16,0,0,1-.11.06S3.8,4.54,3.84,4.53Z"/><path class="cls-7" d="M2.94,4.56s.08,0,.12,0,0,0-.08,0S3,4.55,2.94,4.56Z"/><path class="cls-7" d="M3.27,4.6c-.13.1-.32.14-.44.25,0,.08,0,0,0,.12s0-.18,0-.26,0,0,0,.09C3,4.75,3.1,4.65,3.27,4.6Z"/><path class="cls-7" d="M2.83,4.6s0,0,0,0l0,0S2.81,4.69,2.83,4.6Z"/><path class="cls-7" d="M3,4.65s-.06,0-.11.06A.14.14,0,0,1,3,4.65Z"/><path class="cls-7" d="M3.48,4.65a.26.26,0,0,1-.14.08A.23.23,0,0,1,3.48,4.65Z"/><path class="cls-7" d="M3.74,4.65a.17.17,0,0,1-.11.06A.14.14,0,0,1,3.74,4.65Z"/><path class="cls-7" d="M3.71,4.74a.15.15,0,0,1-.11.06A.15.15,0,0,1,3.71,4.74Z"/><path class="cls-5" d="M5,4.82s0,0,0,0,0,0,.06,0S5,4.8,5,4.82Z"/><path class="cls-5" d="M5,4.79c0-.07.13,0,0,0S5,4.81,5,4.79Z"/><path class="cls-7" d="M3,4.82a.15.15,0,0,1-.11.06A.16.16,0,0,1,3,4.82Z"/><path class="cls-6" d="M4,5.14s0-.09-.08,0,0,0,.06,0S4,5,4,4.94s0,0-.06,0,0,0,.06,0a1.72,1.72,0,0,1,0-.2s0,0,0,0Z"/><path class="cls-7" d="M3,4.88a.16.16,0,0,1-.11.06S3,4.89,3,4.88Z"/><path class="cls-7" d="M3.41,4.89s-.06,0-.11.06S3.37,4.91,3.41,4.89Z"/><path class="cls-7" d="M3.48,4.94S3.41,5,3.37,5,3.43,5,3.48,4.94Z"/><path class="cls-5" d="M5,5S5,5,5,5,5.07,5,5,5Z"/><path class="cls-7" d="M2.91,5s-.06,0-.06.06,0-.08,0-.11S2.81,5.07,2.91,5Z"/><path class="cls-5" d="M4.63,5s0,0,0,0a.08.08,0,0,1,0,0A0,0,0,0,1,4.63,5Z"/><path class="cls-7" d="M3.74,5a.16.16,0,0,1-.11.06S3.69,5,3.74,5Z"/><path class="cls-7" d="M2.83,5.12A.26.26,0,0,1,3,5s-.08,0-.08.08S2.83,5.16,2.83,5.12Z"/><path class="cls-7" d="M3.09,5.06S3,5.11,3,5.12,3,5.08,3.09,5.06Z"/><path class="cls-7" d="M3.21,5.08a.15.15,0,0,1-.11.06A.16.16,0,0,1,3.21,5.08Z"/><path class="cls-7" d="M3.92,5.1s-.06,0-.11.06A.16.16,0,0,1,3.92,5.1Z"/><path class="cls-7" d="M3.48,5.25a.62.62,0,0,1,.18-.09c0,.05-.11,0-.14.09s0,0,0,0S3.51,5.24,3.48,5.25Z"/><path class="cls-5" d="M4.24,5.22s0,0-.06,0v0S4.22,5.21,4.24,5.22Z"/><path class="cls-7" d="M3.6,5.26a.16.16,0,0,1,.09,0s-.06,0,0,.06S3.62,5.26,3.6,5.26Z"/><path class="cls-7" d="M2.94,6.25s-.11,0-.17,0S2.88,6.26,2.94,6.25Z"/><path class="cls-7" d="M3.06,6.28s-.07,0-.12,0S3,6.28,3.06,6.28Z"/><path class="cls-7" d="M6.9,6.74s0,0,0,0,.07,0,.08,0h0S6.91,6.75,6.9,6.74Z"/><path class="cls-6" d="M7.46,6.89s-.12,0-.14,0,.14,0,.17,0Z"/><path class="cls-6" d="M2,6.94h.16A.17.17,0,0,1,2,6.94Z"/><path class="cls-4" d="M3.54,3.8a.41.41,0,0,1,0,.24Z"/><path class="cls-7" d="M4.58,2.57h.32s0,0,0,0v0h-.4s0,0,0,0Z"/><path class="cls-7" d="M2,3.62a8.43,8.43,0,0,1,1.12,0A8.43,8.43,0,0,1,2,3.62Z"/><path class="cls-7" d="M7.49,4.26V3.7A2.16,2.16,0,0,1,7.49,4.26Z"/><path class="cls-6" d="M4.38,3.8s0,0,0,0,0,0,.08,0,0,0,0,.08S4.42,3.78,4.38,3.8Z"/><path class="cls-7" d="M5.27,3.82s0,0,0,0,0-.06,0-.06a.07.07,0,0,0,0,0s.15,0,.15,0h0c0,.06.07,0,.11,0v0H5.26S5.27,3.83,5.27,3.82Z"/><path class="cls-8" d="M5.63,3.83c0-.11.2-.14.29-.08v0a0,0,0,0,1,0,0c0,.07,0,.25,0,.29s-.31.05-.31-.08,0,0,0,0,0-.11,0-.15Z"/><path class="cls-9" d="M26.85.2V15.8H.2V.2H26.85m.2-.2H0V16H27.05V0Z"/></g></g></svg>