<svg xmlns="http://www.w3.org/2000/svg" viewBox="0 0 27.01 16"><defs><style>.cls-1{fill:#fe0000;}.cls-2{fill:#000095;}.cls-3{fill:#fff;}</style></defs><title>flag_158</title><g id="レイヤー_2" data-name="レイヤー 2"><g id="flag"><rect class="cls-1" width="27.01" height="16"/><rect class="cls-2" width="13.5" height="9"/><polygon class="cls-3" points="7.65 4.5 6.75 7.88 5.85 4.5 6.75 1.13 7.65 4.5"/><polygon class="cls-3" points="6.75 5.4 10.13 4.5 6.75 3.6 3.38 4.5 6.75 5.4"/><path id="four_rays" data-name="four rays" class="cls-3" d="M7.53,5,5.06,7.43,6,4.05,8.44,1.58,7.53,5M6.3,5.28l3.37.91L7.2,3.72,3.83,2.81,6.3,5.28"/><path id="four_rays-2" data-name="four rays" class="cls-3" d="M7.2,5.28h0l-3.35.9L6.3,3.72l3.37-.91ZM6,5,8.44,7.43,7.53,4.05,5.06,1.58Z"/><circle class="cls-2" cx="6.75" cy="4.5" r="1.91"/><circle class="cls-3" cx="6.75" cy="4.5" r="1.69"/></g></g></svg>