<svg xmlns="http://www.w3.org/2000/svg" viewBox="0 0 26.9 15.9"><defs><style>.cls-1{fill:#f7e017;}.cls-2{fill:#fff;}.cls-3{fill:#c31927;}.cls-3,.cls-4,.cls-5,.cls-6,.cls-7{fill-rule:evenodd;}.cls-4{fill:#af823c;}.cls-5{fill:#ecd82b;}.cls-6{fill:#efea3a;}.cls-7{fill:#5b1915;}</style></defs><title>flag_096</title><g id="レイヤー_2" data-name="レイヤー 2"><g id="flag"><rect class="cls-1" width="26.89" height="15.9"/><polygon points="0.08 3.16 26.9 12.09 26.9 15.02 0.08 6.23 0.08 3.16"/><polygon class="cls-2" points="0.04 0.15 26.9 9.26 26.9 12.09 0.04 3.27 0.04 0.15"/><path class="cls-3" d="M11.09,8.9V9s-.1,0-.08,0A.11.11,0,0,1,11.09,8.9Z"/><path class="cls-3" d="M15.94,8.9c0,.06,0,.09-.08.08S15.87,8.89,15.94,8.9Z"/><path class="cls-3" d="M10.87,9c0,.06,0,.09-.08.08A.08.08,0,0,1,10.87,9Z"/><path class="cls-4" d="M10.71,9.1c.07,0,.19,0,.23,0S10.74,9.15,10.71,9.1Z"/><path class="cls-3" d="M15.65,9.14c0,.12-.13.14-.1,0A.14.14,0,0,1,15.65,9.14Z"/><path class="cls-3" d="M14.57,10c0,.12,0,.19-.14.18S14.45,10,14.57,10Z"/><path class="cls-3" d="M11.24,10.89c.11,0,.13.1,0,.1A.13.13,0,0,1,11.24,10.89Z"/><path class="cls-4" d="M13,11.4a.2.2,0,0,1,0,.2Z"/><path class="cls-4" d="M13.25,11.44a.66.66,0,0,1,0,.37Z"/><path class="cls-4" d="M12.88,11.5s0,.14,0,.2S12.9,11.56,12.88,11.5Z"/><path class="cls-4" d="M13.19,11.95c0,.06-.18,0-.2,0s-.05,0-.08,0S13.1,12,13.19,11.95Z"/><path class="cls-4" d="M13,12h.2A.21.21,0,0,1,13,12Z"/><path class="cls-3" d="M13.39,3.32c0-.2,0-.49,0-.63.42,0,.49.3.83.35,0,0,.07,0,.1,0s-.06,0-.06.08a1.58,1.58,0,0,1-.2.14.71.71,0,0,0,.14.26c-.24.05-.4-.15-.61-.2C13.57,3.29,13.46,3.33,13.39,3.32Z"/><path class="cls-3" d="M13.92,3.75a2.11,2.11,0,0,1-1.14,0c.08-.09.27-.07.41-.1s.07.12.16.12.12-.06.14-.12S13.87,3.62,13.92,3.75Z"/><path class="cls-3" d="M13.52,3.85A1.85,1.85,0,0,0,14,3.77a.89.89,0,0,1,.14.75c-.16,0-.11-.27-.22-.35s-.06.25-.16.31-.11-.23-.18-.33c-.09.09-.08.29-.22.33a1,1,0,0,1-.16-.33c-.1.07-.08.26-.19.33s-.08-.24-.16-.31,0,.35-.24.35a.92.92,0,0,1,.16-.77,1,1,0,0,0,.49.1A.41.41,0,0,0,13.52,3.85Z"/><path class="cls-3" d="M15.43,5.74a2.76,2.76,0,0,1-.69-.12,2.34,2.34,0,0,0,1.08.18,1.73,1.73,0,0,1-1.4,0c.12.17.55.2.89.2,0,.11-.16.12-.24.12a2.14,2.14,0,0,1-1.14-.33,1,1,0,0,0,.71.31c-.3.29-.82-.09-1-.24,0,.11.23.23.39.28a.7.7,0,0,1-.63-.28,1.24,1.24,0,0,1-.59.26,1.27,1.27,0,0,0,.33-.26,1.92,1.92,0,0,1-.71.35c-.09,0-.3,0-.33-.1a1.22,1.22,0,0,0,.71-.28c-.28.15-1,.44-1.41.2.33-.06.75,0,.94-.22a2.52,2.52,0,0,1-1.16.16c-.1,0-.26,0-.27-.14A2.32,2.32,0,0,0,12,5.64c-.2,0-.41.13-.69.1h-.35c-.18,0-.37,0-.41-.18s.11,0,.18,0a.26.26,0,0,0,.23,0c.16,0,.28,0,.43,0-.27-.07-1,.14-1.08-.22A4.61,4.61,0,0,0,12,5.07a2.11,2.11,0,0,1,1-.29c.15,0,.22.12.43.1s.22-.13.47-.1c.51.06,1,.45,1.67.51a8.48,8.48,0,0,1,.86,0c-.1.34-.77.19-1.08.2a1.48,1.48,0,0,0,.43.06.26.26,0,0,0,.22,0c.08,0,.1,0,.18,0,0,.17-.24.17-.43.18Z"/><path class="cls-3" d="M13.46,6.39c0-.05-.09-.05-.08-.12s-.11.07-.12.14a1.86,1.86,0,0,1,0-.45s.09,0,.1-.08.1.08.14.12S13.5,6.3,13.46,6.39Z"/><path class="cls-3" d="M13.23,11a3,3,0,0,1-3-3.44,2.87,2.87,0,0,1,.51-1.42c.1-.13.21-.26.39-.16s-.11.31-.14.45a2.45,2.45,0,0,0,2.18,3.15.54.54,0,0,0,.33,0,2.5,2.5,0,0,0,2-3.6c.34-.12.51.32.63.57a3.09,3.09,0,0,1,.28,1.63A3,3,0,0,1,13.54,11ZM15.8,7.78a4,4,0,0,1,.53.08A.56.56,0,0,0,15.8,7.78Zm-5.07.69c.1,0,.08-.17.14-.22s.08.22,0,.29c.33,0,.1-.49-.16-.33-.05.05,0,.19-.1.2s-.17-.66.12-.53C10.34,7.51,10.2,8.59,10.73,8.47Zm5-.61c.08.19.55,0,.51.31a.49.49,0,0,1-.18,0,.5.5,0,0,0,.16.14c0-.13.11-.12.12-.22S16,7.88,15.73,7.86Zm.43.61a.94.94,0,0,0-.55-.24A4.53,4.53,0,0,0,16.16,8.47Zm.1.06s0-.17,0-.18S16.19,8.54,16.26,8.53Zm-.65-.12c0,.08,0,.19.14.2s0-.13,0-.18S15.66,8.36,15.61,8.41Zm.29.08c0,.1.09.09.08.18a.58.58,0,0,0-.26.47c-.1,0-.09-.13-.2-.12s0,.33.16.37-.17.19-.12.31c.19-.11.19-.41.29-.61.06,0,.07,0,.14,0s0-.28.08-.43C16,8.61,16,8.5,15.9,8.49Zm-5.37,0c0,.08.06.18.16.18C10.64,8.63,10.63,8.52,10.52,8.51Zm.41.61c.13.33.59.08.65-.1-.2,0-.22.2-.41.22A.27.27,0,0,1,11.05,9c.12,0,.18,0,.16-.18s-.24,0-.3,0,0-.11,0-.16h-.1c-.07.09,0,.15,0,.26s-.11,0-.16.06,0,.14,0,.12S10.86,9.11,10.93,9.12Zm.73,0a1,1,0,0,0-.43.39c0,.21.4.16.41-.06-.14,0-.09.14-.2.14s-.07,0-.06-.06C11.37,9.28,11.68,9.26,11.66,9.1Zm3.78.33c0,.16-.32.27-.41.1.07.59.79-.2.24-.29C15.23,9.34,15.4,9.36,15.45,9.43Zm-.28,0s0-.1-.06-.12S15.12,9.37,15.17,9.38Zm-.51,0c.12.14.18.35.33.47C14.91,9.71,14.81,9.45,14.66,9.43Zm-2.1.63a.28.28,0,0,0,0,.33c.06,0,.05,0,.1,0s.08-.08.16-.08,0,.1.1.12.14-.07.22-.08c.05.14.21.06.29,0,.11.17.47.07.51-.08a.36.36,0,0,0,.16.08c.09,0,.13-.12.22-.14s.06.1.16.08.16-.2.3-.22a.68.68,0,0,0-.26-.63c0,.2.22.29.22.53-.14,0-.18-.06-.33,0s-.15.29-.35.31,0-.12,0-.2-.25,0-.29.1,0,.11,0,.14a.43.43,0,0,1-.35,0c0-.07,0-.09,0-.16s0,.19-.16.18-.12-.07-.1-.18-.06.18-.18.18,0,0-.06,0,0-.15,0-.22-.15.3-.31.14,0-.21,0-.22S12.56,10,12.56,10.06Zm-.65-.1a.36.36,0,0,1-.22-.22s.08-.06.08-.12c-.55.14.33.73.35.18-.05,0-.09,0-.08.06s0,.07,0,.1ZM12,9.61a.11.11,0,0,0-.1.1C12,9.71,12,9.68,12,9.61Zm-.83.08s.14,0,.14,0S11.21,9.62,11.2,9.69Zm.91.31c0,.06,0,.16,0,.16s-.25-.15-.29,0c.23,0,.53.22.69.06-.18,0-.39-.16-.22-.29s0,.14.08.12C12.5,9.83,12.15,9.81,12.11,10Zm.43,0c.06,0,.09,0,.08-.1h-.06A.13.13,0,0,0,12.54,10Z"/><path class="cls-3" d="M9.34,7.1c.13.09.28.15.31.35a3.78,3.78,0,0,0,0,.65V9c0,.1,0,.27,0,.31a.78.78,0,0,1-.79-.06c0-.29,0-.62,0-.94,0-.08,0-.22,0-.26,0-.32-.3-.42-.49-.63A2.05,2.05,0,0,1,8,6c.21.07.13.29.18.47s.26.34.24.55c.16.16.42.23.55.43,0-.38-.23-.5-.27-.83.16,0,.27.13.35.24A1.92,1.92,0,0,0,9.34,7.1Z"/><path class="cls-3" d="M17.67,6.84c.07-.12.19-.28.35-.24,0,.33-.28.44-.26.81A3.08,3.08,0,0,1,18.3,7a1.06,1.06,0,0,1,.24-.55c0-.24,0-.42.18-.49a2,2,0,0,1-.33,1.4c-.19.21-.48.29-.49.63,0,0,0,.18,0,.26,0,.32,0,.65,0,.94a.78.78,0,0,1-.79.06c-.08,0,0-.2,0-.31V8.1a3.78,3.78,0,0,0,0-.65c0-.19.17-.26.31-.35A2,2,0,0,0,17.67,6.84Z"/><path class="cls-3" d="M8.88,7c-.24,0-.25-.43-.45-.55,0-.17-.07-.32,0-.41.15.07.19.24.18.47A5,5,0,0,0,8.88,7Z"/><path class="cls-3" d="M18.3,6.07c.12.07,0,.22,0,.39-.18.16-.2.48-.43.59a2.4,2.4,0,0,1,.24-.49A.51.51,0,0,1,18.3,6.07Z"/><path class="cls-3" d="M8.79,6.56c-.07,0-.06,0-.12,0a2.09,2.09,0,0,0-.08-.45s0-.06.08,0A.76.76,0,0,1,8.79,6.56Z"/><path class="cls-3" d="M18.07,6.11c.06,0,0,0,.08,0a2.22,2.22,0,0,0-.08.45c-.06,0,0-.06-.12,0A.77.77,0,0,1,18.07,6.11Z"/><path class="cls-3" d="M12.93,7a.7.7,0,0,0-.14-.51c.16,0,.26.18.33.33.09-.15.11-.36.24-.47a.91.91,0,0,1,.23.47c.11-.13.15-.33.37-.35-.3.27,0,1.15-.35,1.34a.7.7,0,0,0-.25-.43.77.77,0,0,0-.24.45.61.61,0,0,1-.16-.57C12.93,7.17,13,7,12.93,7Z"/><path class="cls-3" d="M12.88,8.26a1.06,1.06,0,0,0-.16-.69c.23,0,.32.17.37.37.09-.16.12-.38.24-.51.17.09.22.3.26.51.09-.16.15-.36.39-.37a1.34,1.34,0,0,0-.16.75c0,.07,0,.22,0,.33a.63.63,0,0,1-.12.51,2,2,0,0,0-.31-.47.76.76,0,0,0-.3.47.84.84,0,0,0-.19-.2V8.84A1.5,1.5,0,0,0,12.88,8.26Z"/><path class="cls-5" d="M15.61,8.22a.94.94,0,0,1,.55.24A4.53,4.53,0,0,1,15.61,8.22Z"/><path class="cls-5" d="M16.24,8.35s.06.15,0,.18S16.23,8.37,16.24,8.35Z"/><path class="cls-5" d="M15.78,8.43c-.07.06-.06.1,0,.18s-.11-.12-.14-.2S15.71,8.43,15.78,8.43Z"/><path class="cls-5" d="M16.06,8.67c-.11.15,0,.31-.08.43s-.08,0-.14,0c-.1.2-.1.5-.29.61,0-.12.11-.18.12-.31s-.28-.22-.16-.37.1.12.2.12A.58.58,0,0,1,16,8.67c0-.09-.09-.08-.08-.18S16,8.61,16.06,8.67Zm-.51.49c0,.12.15.1.1,0A.14.14,0,0,0,15.55,9.16ZM15.86,9c.06,0,.09,0,.08-.08S15.85,8.91,15.86,9Z"/><path class="cls-5" d="M10.69,8.69c-.11,0-.2-.1-.16-.18S10.64,8.63,10.69,8.69Z"/><path class="cls-3" d="M13.64,9.26c.11-.15.18-.35.49-.31a1,1,0,0,0-.14.51,2.69,2.69,0,0,1-1.26,0A.58.58,0,0,0,12.58,9c.26-.09.42.11.49.29a1.28,1.28,0,0,1,.26-.51A.7.7,0,0,1,13.64,9.26Z"/><path class="cls-5" d="M11.38,9.51s.06,0,.06.06.06-.17.2-.14c0,.22-.36.27-.41.06a1,1,0,0,1,.43-.39C11.68,9.26,11.37,9.28,11.38,9.51Z"/><path class="cls-5" d="M15.29,9.24c.55.09-.18.88-.24.29.09.17.4.06.41-.1S15.23,9.34,15.29,9.24Z"/><path class="cls-3" d="M9.12,9.57c-.2,0-.39-.05-.41-.26.14-.1.28.08.45.1s.42-.11.63-.08c0,.19-.2.22-.39.24Z"/><path class="cls-4" d="M15.1,9.26s.1.08.06.12S15.1,9.32,15.1,9.26Z"/><path class="cls-3" d="M17.34,9.57c-.19,0-.36-.06-.39-.24.21,0,.38.11.61.08s.32-.2.47-.1c0,.21-.2.24-.41.26Z"/><path class="cls-5" d="M15,9.89c-.15-.11-.2-.32-.33-.47C14.81,9.45,14.91,9.71,15,9.89Z"/><path class="cls-6" d="M14.53,9.45c0,.2.22.29.22.53-.14,0-.18-.06-.33,0s-.15.29-.35.31,0-.12,0-.2-.25,0-.29.1,0,.11,0,.14a.43.43,0,0,1-.35,0c0-.07,0-.09,0-.16s0,.19-.16.18-.12-.07-.1-.18-.06.18-.18.18,0,0-.06,0,0-.15,0-.22-.15.3-.31.14,0-.26-.06-.18a.28.28,0,0,0,0,.33c.06,0,.05,0,.1,0s.08-.08.16-.08,0,.1.1.12.14-.07.22-.08c.05.14.21.06.29,0,.11.17.47.07.51-.08a.36.36,0,0,0,.16.08c.09,0,.13-.12.22-.14s.06.1.16.08.16-.2.3-.22A.68.68,0,0,0,14.53,9.45Zm-.1.77c-.07-.1,0-.27.14-.18S14.55,10.23,14.43,10.22Z"/><path class="cls-6" d="M12.56,10.06s0,0,0,0,0,.15,0,.22S12.65,10,12.56,10.06Z"/><path class="cls-3" d="M8.73,9.49a1.26,1.26,0,0,0,1,0C9.81,10,8.59,9.92,8.73,9.49Z"/><path class="cls-3" d="M18.06,9.55c-.08.38-1.09.38-1.08,0,.23.08.78.18,1,0C18,9.47,18,9.54,18.06,9.55Z"/><path class="cls-5" d="M12,9.85s0,.07,0,.1h-.1a.36.36,0,0,1-.22-.22s.08-.06.08-.12c-.55.14.33.73.35.18C12.06,9.79,12,9.8,12,9.85Z"/><path class="cls-5" d="M11.93,9.71a.11.11,0,0,1,.1-.1C12,9.68,12,9.71,11.93,9.71Z"/><path class="cls-5" d="M11.34,9.67c0,.06-.11,0-.14,0S11.29,9.66,11.34,9.67Z"/><path class="cls-3" d="M17.61,9.85c.18,0,.26-.09.43-.1.11.41-1.14.41-1.06,0,.13,0,.24.09.41.08A.26.26,0,0,0,17.61,9.85Z"/><path class="cls-5" d="M12.34,10.06c-.09,0,0-.13-.08-.12s0,.31.22.29c-.16.16-.47-.07-.69-.06,0-.15.2,0,.29,0s0-.1,0-.16S12.5,9.83,12.34,10.06Z"/><path class="cls-5" d="M12.56,9.87h.06c0,.07,0,.1-.08.1A.13.13,0,0,1,12.56,9.87Z"/><path class="cls-7" d="M15.18,11.6a5.73,5.73,0,0,1,.45-.45A5.29,5.29,0,0,1,15.18,11.6Z"/><path class="cls-7" d="M15.53,10.36a1.48,1.48,0,0,1,.22-.22A1.34,1.34,0,0,1,15.53,10.36Z"/><path class="cls-3" d="M11.13,11.22a1.28,1.28,0,0,0-.57-.35c.17-.17.11-.59.3-.73a1.58,1.58,0,0,1,.47.37,2.93,2.93,0,0,0,1.79.77.77.77,0,0,0,.39,0,3.13,3.13,0,0,0,2-.92,1.34,1.34,0,0,0,.22-.22.11.11,0,0,1,.08,0c.21.14.12.59.33.73a2.13,2.13,0,0,0-.53.31,5.73,5.73,0,0,0-.45.45,2.41,2.41,0,0,1-1.63.59h-.47a2.34,2.34,0,0,1-1.59-.61A3.67,3.67,0,0,0,11.13,11.22Zm-.35-.65a.09.09,0,0,0-.06,0c0,.2.22.25.39.31,0,.07,0,.08,0,.14a.21.21,0,0,0,.31-.12C11.24,10.78,10.84,10.85,10.79,10.57Zm4.89.16v-.1C15.61,10.6,15.61,10.76,15.67,10.73Zm-.41.16c0,.07-.06.13-.14.08s0,.12.08.12.08-.1.12-.14c.08.23-.08.38-.12.55.27,0,.24-.94-.08-.63h0s0,.08,0,.08S15.21,10.84,15.27,10.89Zm-3.62.39s-.07,0-.08,0,.24-.32.08-.43c0,.16,0,.36-.18.39s-.13-.08-.22-.08.25.24.47.18c0,.1,0,.13,0,.2s.49,0,.53.22c.15,0,.2.07.37,0s.06.1.14.1A.24.24,0,0,0,13,11.6a.2.2,0,0,0,0-.2c-.05-.07-.11,0-.08.1s0,.18,0,.2c-.06.19-.21,0-.2-.12s0,.13-.14.12-.07-.08-.06-.16,0,.11-.14.1-.1-.1-.06-.2-.08.12-.18.12c-.36,0-.33-.35-.16-.55a.1.1,0,0,0-.06,0A1.66,1.66,0,0,0,11.64,11.28ZM14.86,11s0,.12.08.12S14.9,11,14.86,11Zm.24.45c0-.11,0-.13,0-.18-.11,0-.11-.13-.18-.18.05.16,0,.18-.08.29s.09-.06.18,0c0,.24-.5.53-.61.18C14.39,12,15,11.63,15.1,11.42Zm-1.85,0c-.11,0,0,.39,0,.45s0,0,0-.08A.66.66,0,0,0,13.25,11.44Zm.33,0a1.62,1.62,0,0,0,.08.51C13.7,11.79,13.7,11.51,13.58,11.44Zm.28.06c0,.14.17.08.16.22s-.24,0-.24.14C14.07,12,14.18,11.42,13.86,11.5Zm1.22.12s-.1,0-.1,0S15.08,11.68,15.08,11.62ZM13.23,12c.17,0,.35-.22.2-.33,0,.08,0,.12,0,.18a.35.35,0,0,1-.22.1c-.09,0-.23,0-.28,0s0,0,.08,0h0A.21.21,0,0,0,13.23,12Z"/><path class="cls-3" d="M10.18,10.69v-.06c.09.09.16.21.29.27.23.58,1,.62,1.42,1-1,.26-1.26-.84-2.28-.51a.65.65,0,0,1,.59-.35c0-.07,0-.09,0-.16Z"/><path class="cls-3" d="M17.12,11.38c-.18,0-.36-.06-.55,0-.6.05-.85.78-1.73.59.11-.13.29-.19.38-.33a2,2,0,0,0,1.28-1c.08.07,0,.32,0,.41A.9.9,0,0,1,17.12,11.38Z"/><path class="cls-4" d="M15.12,10.87v.06s.12-.15.14,0c-.05-.05-.1,0-.12.06s0,0,0-.08Z"/><path class="cls-5" d="M15.12,10.87c.32-.31.35.58.08.63,0-.17.2-.32.12-.55,0,0-.06.12-.12.14s-.09,0-.08-.12.12,0,.14-.08-.1,0-.14,0Z"/><path class="cls-4" d="M11.64,11.28a1.66,1.66,0,0,1,.24-.24A1.68,1.68,0,0,1,11.64,11.28Z"/><path class="cls-5" d="M12.88,11.5c0-.08,0-.18.08-.1v.2a.24.24,0,0,1-.18.29c-.08,0-.1-.07-.14-.1s-.21-.06-.37,0c0-.21-.41-.09-.53-.22s-.06-.1,0-.2c-.21.06-.46,0-.47-.18s.14.06.22.08.16-.22.18-.39c.16.11,0,.34-.08.43s.05,0,.08,0a1.68,1.68,0,0,0,.24-.24.1.1,0,0,1,.06,0c-.17.2-.2.55.16.55.1,0,.08-.13.18-.12s0,.16.06.2.05-.11.14-.1,0,.15.06.16.06-.12.14-.12.15.32.2.12S12.93,11.53,12.88,11.5Z"/><path class="cls-3" d="M11.32,11.52a1.29,1.29,0,0,1-.82-.63,1.18,1.18,0,0,1,.53.28C11.1,11.3,11.35,11.44,11.32,11.52Z"/><path class="cls-3" d="M16.18,10.89a.06.06,0,0,1,0,.06,2,2,0,0,1-.86.59c0-.06.07-.13.12-.18A1.65,1.65,0,0,1,16.18,10.89Z"/><path class="cls-5" d="M14.45,11.48c.11.34.59.05.61-.18-.09,0-.11,0-.18,0s.13-.12.08-.29c.07.05.08.17.18.18-.07.05,0,.07,0,.18S14.39,12,14.45,11.48Z"/><path class="cls-5" d="M13.78,11.87c0-.12.19-.07.24-.14s-.18-.08-.16-.22C14.18,11.42,14.07,12,13.78,11.87Z"/><path class="cls-5" d="M15,11.64c0-.05.07,0,.1,0S15,11.67,15,11.64Z"/><path class="cls-5" d="M13.19,11.95a.35.35,0,0,0,.22-.1c0-.07,0-.1,0-.18.15.11,0,.34-.2.33H13C13,11.93,13.17,12,13.19,11.95Z"/><path class="cls-3" d="M9,7.27A2.12,2.12,0,0,1,8.49,7a1.18,1.18,0,0,0-.25-.53c0-.18-.07-.32,0-.43l0,0c.14,0,.15.24.14.43a1.48,1.48,0,0,1,.26.49C8.77,7,8.91,7.1,9,7.27Z"/><path class="cls-5" d="M16.35,8.12c0,.1-.13.1-.12.22a.5.5,0,0,1-.16-.14.49.49,0,0,0,.18,0c0-.31-.43-.11-.51-.31C16,7.88,16.26,7.92,16.35,8.12Z"/><path class="cls-3" d="M9.1,10.24a.69.69,0,0,1-.31-.06V10a1.36,1.36,0,0,0,.9,0c0,.2-.1.22-.26.22Z"/><path class="cls-5" d="M15.55,10.61c-.13.16.07.46-.08.63.09-.19-.14-.45,0-.61C15.51,10.63,15.55,10.51,15.55,10.61Z"/><path class="cls-5" d="M15.67,10.63v.1C15.61,10.76,15.61,10.6,15.67,10.63Z"/><path class="cls-5" d="M14.94,11.09c-.07,0-.12-.08-.08-.12S14.95,11,14.94,11.09Z"/><path class="cls-5" d="M13.66,11.95a1.62,1.62,0,0,1-.08-.51C13.7,11.51,13.7,11.79,13.66,11.95Z"/><path class="cls-5" d="M13.25,11.81s0,.05,0,.08-.09-.46,0-.45Z"/><path class="cls-3" d="M13.27,2.14c.35-.12.39.41.08.41A.21.21,0,0,1,13.27,2.14Z"/><path class="cls-3" d="M13.31,2.59c.06,0,.1-.05.12,0s0,.07-.08.06a1.77,1.77,0,0,0,0,.73l.06,0c0,.11,0,.27,0,.35h-.1s0,0,0,0C13.31,3.31,13.26,2.9,13.31,2.59Z"/><path class="cls-3" d="M13.43,4.85c-.07,0-.08,0-.16,0V4.48s.05,0,.1,0S13.41,4.74,13.43,4.85Z"/><path class="cls-3" d="M18.48,6s0,0,.06,0c0,.38-.21.62-.29,1-.15.1-.3.2-.47.28A.46.46,0,0,1,18.1,7a1,1,0,0,1,.26-.49C18.35,6.28,18.36,6.1,18.48,6Z"/><path class="cls-3" d="M9.36,9.85c.16,0,.28-.12.41-.08.11.38-1.16.41-1.06,0,.16,0,.24.11.43.1A.27.27,0,0,0,9.36,9.85Z"/><path class="cls-3" d="M17.32,10.24c-.16,0-.3,0-.26-.22a1.36,1.36,0,0,0,.9,0v.16a.7.7,0,0,1-.31.06Z"/><path class="cls-5" d="M16.32,7.86a4,4,0,0,0-.53-.08A.56.56,0,0,1,16.32,7.86Z"/><path class="cls-5" d="M10.75,7.88c-.29-.13-.32.46-.12.53s0-.15.1-.2c.26-.17.5.32.16.33.06-.07.11-.26,0-.29s0,.2-.14.22C10.2,8.59,10.34,7.51,10.75,7.88Z"/><path class="cls-5" d="M10.71,9.1c-.07,0,0-.08,0-.12s.12,0,.16-.06-.09-.17,0-.26h.1s0,.09,0,.16.21,0,.3,0,0,.19-.16.18a.27.27,0,0,0,.12.22c.19,0,.2-.21.41-.22-.06.19-.52.43-.65.1C10.89,9.07,10.78,9.11,10.71,9.1ZM11,8.92c0,.06,0,0,.08,0V8.9A.11.11,0,0,0,11,8.92Zm-.22.14c.06,0,.09,0,.08-.08A.08.08,0,0,0,10.79,9.06Z"/><path class="cls-5" d="M11.44,10.91a.21.21,0,0,1-.31.12c0-.07,0-.07,0-.14-.17-.06-.35-.11-.39-.31a.09.09,0,0,1,.06,0C10.84,10.85,11.24,10.78,11.44,10.91Zm-.18.08c.11,0,.09-.12,0-.1A.13.13,0,0,0,11.26,11Z"/></g></g></svg>