<svg xmlns="http://www.w3.org/2000/svg" viewBox="0 0 26.92 15.9"><defs><style>.cls-1{fill:#ce1126;}.cls-2{fill:#fdfefd;}.cls-3{fill:#f5de78;}.cls-3,.cls-4,.cls-5,.cls-6{fill-rule:evenodd;}.cls-4{fill:#f2ca27;}.cls-5{fill:#f9f5e4;}.cls-6{fill:#fff;}</style></defs><title>flag_818</title><g id="レイヤー_2" data-name="レイヤー 2"><g id="flag"><rect width="26.92" height="15.9"/><rect class="cls-1" y="0.02" width="26.92" height="5.04"/><rect class="cls-2" y="5.06" width="26.92" height="5.66"/><path class="cls-3" d="M14.21,5.8a.19.19,0,0,1,0,.14Z"/><path class="cls-3" d="M13.6,6a.28.28,0,0,1,0,.17Z"/><path class="cls-3" d="M12.39,6.57s0,.08,0,.1S12.43,6.57,12.39,6.57Z"/><path class="cls-4" d="M12.45,6.6c0,.06.19.11.21.2a1.6,1.6,0,0,1,0,.31c0,.6-.06,1.2-.08,1.81a1.88,1.88,0,0,1,0,.3c0,.11-.21.18-.24.22C12.36,8.49,12.41,7.55,12.45,6.6Z"/><path class="cls-4" d="M15.3,6.6c.06.94.09,1.9.14,2.84,0,0-.09,0-.13-.08l-.11-.12c0-.66-.06-1.44-.09-2.15a1.89,1.89,0,0,1,0-.29C15.11,6.72,15.26,6.67,15.3,6.6Z"/><path class="cls-4" d="M12.71,6.9s0-.1,0,0,.13.06.15.14,0,.19,0,.3,0,.07,0,.1,0,.24,0,.38,0,.07,0,.1,0,.24,0,.38,0,.07,0,.1,0,.24,0,.38,0,.07,0,.1,0,.18,0,.22-.1.11-.16.16C12.64,8.43,12.69,7.68,12.71,6.9Z"/><path class="cls-4" d="M14.86,7.08c0-.16.12-.2.17-.24v.09S15,7,15,7v.12s0,.08,0,.1v.12s0,.08,0,.1v.12s0,.08,0,.1v.12s0,.08,0,.1V8s0,.08,0,.1v.12s0,.08,0,.1v.12s0,.08,0,.1v.12s0,.08,0,.1v.12s0,.08,0,.1v.12s0,.08,0,.1v0A1.13,1.13,0,0,1,15,9s0-.08,0-.1V8.79s0-.09,0-.11V8.55s0-.09,0-.11V8.33s0-.09,0-.11V8.11s0-.1,0-.12V7.87s0-.09,0-.11V7.65s0-.09,0-.11V7.42s0-.09,0-.11V7.19S14.89,7.1,14.86,7.08Z"/><path class="cls-4" d="M14.6,7.13a1.7,1.7,0,0,1-.73,1.49,1.87,1.87,0,0,1-.74-1.48,1.36,1.36,0,0,0,.75-.22A1.13,1.13,0,0,0,14.6,7.13Zm-.49,0A1.62,1.62,0,0,1,13.87,7a1.05,1.05,0,0,1-.23.13v1.3l.1.1a.92.92,0,0,0,.15.11A.75.75,0,0,0,14,8.48a.26.26,0,0,0,.1-.1C14.13,8,14.13,7.49,14.11,7.08Z"/><path class="cls-3" d="M15,6.93S15,7,15,7,15,7,15,6.93Z"/><path class="cls-5" d="M13.64,7.08c0,.41,0,.87,0,1.3h0Z"/><path class="cls-3" d="M14.11,8.38V7.08C14.13,7.49,14.13,8,14.11,8.38Z"/><path class="cls-3" d="M14.86,7.08s0,.07,0,.11S14.87,7.12,14.86,7.08Z"/><path class="cls-3" d="M15,7.14s0,.07,0,.1S15.05,7.17,15,7.14Z"/><path class="cls-3" d="M12.89,7.29s0,.08,0,.1S12.86,7.3,12.89,7.29Z"/><path class="cls-3" d="M14.87,7.31s0,.07,0,.11S14.88,7.34,14.87,7.31Z"/><path class="cls-3" d="M15.37,7.35s0,.07,0,.1S15.38,7.38,15.37,7.35Z"/><path class="cls-3" d="M15.06,7.36s0,.07,0,.1S15.06,7.39,15.06,7.36Z"/><path class="cls-3" d="M14.88,7.53s0,.08,0,.11S14.89,7.57,14.88,7.53Z"/><path class="cls-3" d="M15.07,7.57s0,.07,0,.1S15.07,7.6,15.07,7.57Z"/><path class="cls-3" d="M12.87,7.77s0,.08,0,.1S12.85,7.78,12.87,7.77Z"/><path class="cls-3" d="M14.89,7.77s0,.07,0,.11S14.9,7.8,14.89,7.77Z"/><path class="cls-3" d="M15.08,7.78s0,.07,0,.1S15.08,7.81,15.08,7.78Z"/><path class="cls-3" d="M13.14,7.89s0-.08,0-.1S13.16,7.88,13.14,7.89Z"/><path class="cls-3" d="M14.61,7.89s0,.07,0,.1S14.62,7.92,14.61,7.89Z"/><path class="cls-3" d="M14.9,8s0,.08,0,.12S14.91,8,14.9,8Z"/><path class="cls-3" d="M15.09,8s0,.07,0,.1S15.09,8,15.09,8Z"/><path class="cls-3" d="M13.13,8.13s0-.08,0-.1S13.15,8.12,13.13,8.13Z"/><path class="cls-3" d="M14.62,8.13s0,.07,0,.1S14.63,8.17,14.62,8.13Z"/><path class="cls-3" d="M15.1,8.21s0,.07,0,.1S15.1,8.24,15.1,8.21Z"/><path class="cls-3" d="M14.91,8.22s0,.07,0,.11S14.92,8.26,14.91,8.22Z"/><path class="cls-3" d="M12.85,8.24s0,.08,0,.1S12.83,8.26,12.85,8.24Z"/><path class="cls-3" d="M15.41,8.27s0,.07,0,.1S15.41,8.3,15.41,8.27Z"/><path class="cls-3" d="M13.12,8.38s0-.09,0-.1S13.14,8.36,13.12,8.38Z"/><path class="cls-3" d="M14.63,8.38s0,.07,0,.1S14.63,8.41,14.63,8.38Z"/><path class="cls-3" d="M15.11,8.43s0,.07,0,.1S15.11,8.46,15.11,8.43Z"/><path class="cls-3" d="M14.92,8.45s0,.07,0,.11S14.93,8.48,14.92,8.45Z"/><path class="cls-3" d="M15.12,8.64s0,.07,0,.1S15.12,8.67,15.12,8.64Z"/><path class="cls-3" d="M14.93,8.68s0,.07,0,.11S14.94,8.71,14.93,8.68Z"/><path class="cls-3" d="M12.83,8.72s0,.08,0,.1S12.81,8.73,12.83,8.72Z"/><path class="cls-3" d="M15.13,8.86s0,.07,0,.1S15.13,8.89,15.13,8.86Z"/><path class="cls-3" d="M14.94,8.9s0,.07,0,.1h0Z"/><path class="cls-3" d="M15.14,9.07s0,.07,0,.1S15.14,9.1,15.14,9.07Z"/><path class="cls-3" d="M12.31,9.11s0,.08,0,.1S12.29,9.12,12.31,9.11Z"/><path class="cls-3" d="M15.45,9.2s0,.07,0,.1S15.45,9.23,15.45,9.2Z"/><path class="cls-4" d="M12.69,9.59c.06,0,.11,0,.13.06S12.7,9.64,12.69,9.59Z"/><path class="cls-4" d="M15.07,9.61l-.13,0s0,0,0,0S15.05,9.55,15.07,9.61Z"/><path class="cls-4" d="M13,9.7s-.11,0-.15,0S13.05,9.69,13,9.7Z"/><path class="cls-4" d="M14.85,9.66a.19.19,0,0,1-.15,0S14.81,9.65,14.85,9.66Z"/><path class="cls-5" d="M12.12,9.69a2.44,2.44,0,0,1,.36,0A2.75,2.75,0,0,1,12.12,9.69Z"/><path class="cls-3" d="M13.55,9.69s-.1,0-.13,0S13.53,9.67,13.55,9.69Z"/><path class="cls-3" d="M14.21,9.69s.09,0,.13,0S14.25,9.69,14.21,9.69Z"/><path class="cls-4" d="M14.33,9.74a.14.14,0,0,1,.16,0v0S14.35,9.78,14.33,9.74Z"/><path class="cls-4" d="M13.44,9.73s-.14,0-.16,0S13.4,9.73,13.44,9.73Z"/><path class="cls-4" d="M13.65,9.74s-.12,0-.15,0S13.61,9.72,13.65,9.74Z"/><path class="cls-4" d="M14.26,9.75c0,.05-.11,0-.16,0S14.22,9.75,14.26,9.75Z"/><path class="cls-4" d="M12.74,9.85a.06.06,0,0,1-.06,0s0,0,0-.06A.06.06,0,0,1,12.74,9.85Z"/><path class="cls-3" d="M13.91,9.83s-.06,0-.07,0v0S13.91,9.81,13.91,9.83Z"/><path class="cls-3" d="M13.59,9.85a.41.41,0,0,1-.2,0Z"/><path class="cls-3" d="M14.37,9.85a.37.37,0,0,1-.19,0Z"/><path class="cls-4" d="M12.72,9.94a.06.06,0,0,1-.08,0S12.72,9.88,12.72,9.94Z"/><path class="cls-4" d="M14.13,10c.07,0,0,.09,0,.06A.08.08,0,0,1,14.13,10Z"/><path class="cls-4" d="M13.47,10s0,.2,0,.22S13.47,10,13.47,10Z"/><path class="cls-4" d="M14.23,10s0,.16,0,.22a.15.15,0,0,0,.09,0c0-.06,0-.06,0-.11s0,.13,0,.15a1,1,0,0,1-.2,0s0,0,.07-.06S14.22,10,14.23,10Z"/><path class="cls-4" d="M13.37,10.21c0-.05,0-.17,0-.22s0,.13,0,.19,0,.11-.08.12-.06-.09-.11-.12-.16,0-.22.06,0-.1,0-.16.07.06,0,.1a.2.2,0,0,0,.13,0,.25.25,0,0,0,0-.08s.05-.07.12-.06a.33.33,0,0,1,0,.09s0,0-.06,0l.08.11S13.37,10.23,13.37,10.21Zm-.17-.15a.1.1,0,0,0,0,.08C13.31,10.14,13.26,10,13.2,10.06Z"/><path class="cls-4" d="M14.2,10.06a0,0,0,0,0,0,0,.07.07,0,0,1-.07,0A0,0,0,0,1,14.2,10.06Z"/><path class="cls-4" d="M14.43,10.08c.14,0,.08.19,0,.2a.36.36,0,0,1,0-.08S14.41,10.15,14.43,10.08Zm0,0s0,0,0,0S14.48,10.11,14.46,10.11Z"/><path class="cls-4" d="M15.2,10.1s-.06,0-.07,0v0S15.19,10.08,15.2,10.1Z"/><path class="cls-4" d="M12.67,10.13c.05,0,.05,0,0,.07S12.65,10.15,12.67,10.13Z"/><path class="cls-4" d="M12.8,10.16a.09.09,0,0,1,0,.06s0,0-.06,0S12.77,10.15,12.8,10.16Z"/><path class="cls-4" d="M12.9,10.18v0s0,0,0,0S12.85,10.15,12.9,10.18Z"/><path class="cls-4" d="M14.21,10.26h0a0,0,0,0,1,0,.07S14.2,10.29,14.21,10.26Z"/><path class="cls-4" d="M14.34,10.26s0,0,0,.07S14.25,10.24,14.34,10.26Z"/><path class="cls-3" d="M13.78,10.41H14A.38.38,0,0,1,13.78,10.41Z"/><path class="cls-3" d="M13.74,10.45c-.06,0-.14,0-.18,0S13.7,10.43,13.74,10.45Z"/><path class="cls-3" d="M14,10.45s.13,0,.2,0S14.07,10.45,14,10.45Z"/><path class="cls-5" d="M12.06,9.73a1.92,1.92,0,0,1,.42,0h-.41S12.06,9.74,12.06,9.73Z"/><path class="cls-6" d="M13.91,6.33a.63.63,0,0,0,.06.29s-.06.07-.08.12-.06-.08-.1-.11a.68.68,0,0,0,0-.35c0,.24-.06.45-.3.49a.7.7,0,0,0,.16-.49c0,.21-.05.45-.32.44,0,0,0-.06.07-.1a.94.94,0,0,0,.2-.65.61.61,0,0,1,0-.22.06.06,0,0,1,.07,0,.3.3,0,0,0-.36-.19c0-.15.23-.09.32,0s.06.12.16.11.18-.18.29-.07a.61.61,0,0,1,.07.39,1,1,0,0,0,.2.75c-.27,0-.28-.23-.32-.44a.59.59,0,0,0,.16.48c-.19,0-.3-.19-.28-.44v0S13.89,6.32,13.91,6.33Z"/><path class="cls-3" d="M13.91,6.33s0-.08,0-.07v0s0,0,0,0S13.92,6.32,13.91,6.33Z"/><path class="cls-6" d="M13.76,5.56h0v0h0v0Z"/><path class="cls-5" d="M12.87,9c.06,0,.09-.1.15-.14S12.91,9,12.87,9Z"/><path class="cls-3" d="M14.73,8.82s.11.11.17.15S14.79,8.85,14.73,8.82Z"/><path class="cls-5" d="M15.6,9.65s0,0,0,0a1.42,1.42,0,0,1-.36,0h.34S15.61,9.67,15.6,9.65Z"/><path class="cls-5" d="M12.62,9.2c.06,0,.11-.11.16-.16S12.64,9.2,12.62,9.2Z"/><path class="cls-3" d="M12.71,6.9c0-.05,0-.1,0,0S12.73,6.88,12.71,6.9Z"/><path class="cls-5" d="M14.94,9h0a1.13,1.13,0,0,0,.2.19S15,9.05,14.94,9Z"/><path class="cls-3" d="M13.54,8.38l.11.11Z"/><path class="cls-5" d="M14.1,8.5a.66.66,0,0,1,.13-.13Z"/><path class="cls-6" d="M13.54,8.38A1.91,1.91,0,0,1,13.1,7.1a1.18,1.18,0,0,0,.77-.22,1.29,1.29,0,0,0,.78.22,1.83,1.83,0,0,1-.43,1.27.66.66,0,0,0-.13.13,1,1,0,0,1-.21.16,1,1,0,0,1-.23-.18Zm.34-1.46a1.36,1.36,0,0,1-.75.22,1.87,1.87,0,0,0,.74,1.48,1.7,1.7,0,0,0,.73-1.49A1.13,1.13,0,0,1,13.88,6.92Z"/><path class="cls-3" d="M13.64,8.38h0s.07.06.09.1Z"/><path class="cls-5" d="M14,8.48l.1-.1A.26.26,0,0,1,14,8.48Z"/><path class="cls-6" d="M13.64,7.08A1.05,1.05,0,0,0,13.87,7a1.62,1.62,0,0,0,.24.13v1.3l-.1.1a.75.75,0,0,1-.14.11.92.92,0,0,1-.15-.11s-.07-.06-.09-.1C13.64,7.95,13.66,7.5,13.64,7.08Z"/><path class="cls-6" d="M13.21,8.59c-.1-.16,0-.35.07-.53a.54.54,0,0,1,.12.33A.94.94,0,0,1,13.21,8.59Z"/><path class="cls-6" d="M14.47,8.06c0,.17.18.38.07.53,0-.07-.16-.11-.18-.19S14.43,8.16,14.47,8.06Z"/><path class="cls-6" d="M13.46,8.7a3.68,3.68,0,0,1-.06-.44.73.73,0,0,1,.1.13s.11.08.12.11S13.47,8.65,13.46,8.7Z"/><path class="cls-6" d="M14.35,8.26c0,.12,0,.3,0,.44a1.63,1.63,0,0,1-.17-.2A2.51,2.51,0,0,0,14.35,8.26Z"/><path class="cls-3" d="M13.33,8.51s.08-.11.08,0,0,0,0,0S13.35,8.5,13.33,8.51Z"/><path class="cls-3" d="M13.52,9.11,13.66,9Z"/><path class="cls-3" d="M14.1,9l.14.14Z"/><path class="cls-6" d="M14.1,9c-.05-.13.07-.24.09-.36a.84.84,0,0,1,.13.17,1.93,1.93,0,0,0,0-.33,1.2,1.2,0,0,1,.19.2.31.31,0,0,0,.06-.13,3.39,3.39,0,0,1,.12.41c-.06,0-.11-.11-.17-.15a1.06,1.06,0,0,0-.08.18.55.55,0,0,1-.13-.18c0,.1,0,.24-.1.33Z"/><path class="cls-5" d="M13.5,9.08s.1-.09.16-.12h0l-.14.14S13.5,9.09,13.5,9.08Z"/><path class="cls-6" d="M14.17,8.58c0,.09-.07.17-.1.25A2,2,0,0,1,14,8.6a.33.33,0,0,0,.1-.09S14.15,8.56,14.17,8.58Z"/><path class="cls-6" d="M13.74,8.6a1.4,1.4,0,0,1,0,.23C13.61,8.74,13.53,8.4,13.74,8.6Z"/><path class="cls-6" d="M13.64,9c0,.12-.06.23-.07.35,0-.05,0-.16-.06-.23s-.1.15-.18.2-.05-.15-.07-.23a.61.61,0,0,0-.15.17c0-.11-.15-.23-.1-.37s.12-.1.18-.14a.69.69,0,0,1,.09.2c.06,0,.05-.13.11-.16s.07.19.09.3h0C13.55,9.15,13.59,9.05,13.64,9Z"/><path class="cls-3" d="M13.64,9s-.08.1-.15.12h0c.07,0,.11-.12.16-.13S13.65,9,13.64,9Z"/><path class="cls-5" d="M14.24,9.19a.23.23,0,0,0-.12-.13s0,0,0,0,.1.16.16.13,0,0,0,0Z"/><path class="cls-6" d="M14.27,9.15c0-.11.05-.2.07-.3a.82.82,0,0,1,.12.17,1.57,1.57,0,0,0,.1-.2c.07,0,.11.11.18.15s-.06.23-.09.36a1.05,1.05,0,0,1-.15-.18,2.13,2.13,0,0,0-.09.24,1.17,1.17,0,0,1-.15-.19S14.28,9.18,14.27,9.15Z"/><path class="cls-5" d="M13.73,9.66c.06,0,.2,0,.29,0C13.94,9.69,13.77,9.72,13.73,9.66Z"/><path class="cls-6" d="M14,9.1c0,.17,0,.45.16.51s0,0,.08,0a.12.12,0,0,0,0,.08c-.05,0-.18,0-.2,0s-.23,0-.29,0a.65.65,0,0,0-.19,0,.23.23,0,0,1,0-.08s0,0,.07,0,.12-.36.17-.55c0,0,0,0,0,0,0,.21-.08.47.07.58.16-.07.08-.31.09-.52v0Z"/><path class="cls-6" d="M14.9,9.57s-.06,0-.11,0l-.13-.18c0,.07,0,.19-.12.23a.49.49,0,0,1-.11-.17,1,1,0,0,0-.07.19h-.12a.53.53,0,0,1,0-.41,1,1,0,0,1,.16.19,1.26,1.26,0,0,0,.09-.24,2.16,2.16,0,0,1,.15.18c0-.09.07-.18.11-.27C14.82,9.24,14.86,9.41,14.9,9.57Z"/><path class="cls-6" d="M14.77,9.6l-.16,0s0-.13.08-.16S14.75,9.54,14.77,9.6Z"/><path class="cls-6" d="M14.5,9.64s-.06,0-.1,0,0-.07,0-.11A.26.26,0,0,1,14.5,9.64Z"/><path class="cls-6" d="M13.34,9.64h-.09s0-.07,0-.11A.21.21,0,0,1,13.34,9.64Z"/><path class="cls-6" d="M12.51,9.73c0-.09,0-.15.12-.16A.13.13,0,0,1,12.51,9.73Z"/><path class="cls-6" d="M13.19,9.7a.1.1,0,0,1,0,.16C13.08,9.84,13.08,9.69,13.19,9.7Z"/><path class="cls-6" d="M14.54,9.82a.15.15,0,0,1,0-.12C14.73,9.69,14.63,9.94,14.54,9.82Z"/><path class="cls-5" d="M13.81,9.73h0s.11,0,.16,0a.1.1,0,0,1,0,0C14,9.71,13.85,9.74,13.81,9.73Z"/><path class="cls-6" d="M13.8,9.92a.72.72,0,0,1-.1-.09s0,0,0-.1S13.82,9.84,13.8,9.92Z"/><path class="cls-6" d="M13.22,10.14a.1.1,0,0,1,0-.08C13.26,10,13.31,10.14,13.22,10.14Z"/><path class="cls-6" d="M14.86,10.1h-.06v0S14.86,10.07,14.86,10.1Z"/><path class="cls-6" d="M13.78,10.41a3.56,3.56,0,0,1-1.31-.17c0-.14-.11-.15-.12-.27s.06-.13.17-.13a.35.35,0,0,1,0-.1c.16-.08.33,0,.51,0a.93.93,0,0,1,.1.12c0-.08.13-.09.23-.07a.41.41,0,0,0,.2,0s.07,0,.07,0,.12.06.13.15.05-.07.06-.13,0,0,.07,0A.39.39,0,0,0,14,10a.4.4,0,0,1,.14-.15s.05,0,.08,0a.37.37,0,0,0,.19,0c.1,0,.21,0,.23.07s.05-.08.09-.11.36-.13.52-.06a.12.12,0,0,1,0,.09.23.23,0,0,1,.17.14c0,.06,0,.15-.11.16a.21.21,0,0,1,0,.14,4.25,4.25,0,0,1-1.29.15Zm.06-.16s0,0,.06,0,0-.05,0-.07.13,0,.15,0,0-.07-.08-.06,0,.09-.06.08,0-.05,0-.08a.38.38,0,0,1-.27,0s0,.12,0,.11,0-.08-.06-.08,0,.07,0,.11-.09.07,0,.1a.2.2,0,0,0,.07-.08A.53.53,0,0,1,13.84,10.26ZM15,9.83s0,0,.09,0,0,.17,0,.2a.17.17,0,0,0-.2.06.18.18,0,0,0-.11,0s0-.09,0-.1,0,.2-.09.21a.07.07,0,0,0,0-.07c-.05,0-.07,0-.08.07s0,0,.07,0-.06,0,0,.07a.2.2,0,0,0,.07-.09l.13,0s.06,0,.09,0,.07,0,.15,0,.13-.06.21-.09,0-.06,0-.06,0,0,0,0S15.12,9.67,15,9.83Zm-2.3,0s0,0,0,.06a.06.06,0,0,0,.06,0A.06.06,0,0,0,12.66,9.83Zm0,.2c0,.1.17.11.28.13S13,10,13,10s0,.09,0,.12-.07,0-.08,0,0-.09,0-.13,0,.11-.06.13-.06,0-.07-.06.08-.16,0-.21A.31.31,0,0,1,12.66,10Zm.19.21s0,0,0,0v0S12.81,10.21,12.85,10.24Zm1.27-.17a.07.07,0,0,0,.07,0,0,0,0,0,1,0,0A0,0,0,0,0,14.12,10.07Zm0,0c.05,0,.08-.06,0-.06A.08.08,0,0,0,14.12,10Zm-.71.15s0-.19,0-.2,0,.16,0,.23,0,0,0,0l-.08-.11s0,0,.06,0a.33.33,0,0,0,0-.09c-.07,0-.09,0-.12.06a.25.25,0,0,1,0,.08.2.2,0,0,1-.13,0s0-.08,0-.1,0,.12,0,.16.15,0,.22-.06.06.09.11.12S13.4,10.22,13.41,10.17Zm0,0s.05-.18,0-.22S13.46,10.12,13.45,10.2Zm.78,0s-.09,0-.07.06a1,1,0,0,0,.2,0s.06-.15,0-.15,0,.05,0,.11a.15.15,0,0,1-.09,0c0-.06,0-.19,0-.22S14.24,10.09,14.23,10.16Zm.25,0a.36.36,0,0,0,0,.08c.08,0,.14-.22,0-.2S14.47,10.16,14.48,10.21Zm-1.78,0s0-.07,0-.07S12.67,10.2,12.7,10.2Zm0,0s0,0,.06,0a.09.09,0,0,0,0-.06S12.73,10.15,12.73,10.19Zm1.49.14a0,0,0,0,0,0-.07h0S14.21,10.3,14.22,10.33Zm.11,0s0,0,0-.07S14.26,10.33,14.33,10.33Zm-1.68-.4a.06.06,0,0,0,.08,0C12.72,9.88,12.66,9.89,12.64,9.93Zm2.48.17v0s.08,0,.07,0S15.13,10.09,15.13,10.1Z"/><path class="cls-5" d="M13.61,10.26a.29.29,0,0,1,.23,0A.53.53,0,0,0,13.61,10.26Z"/><path class="cls-5" d="M14.79,10.13h0s0,0,0,0A.05.05,0,0,1,14.79,10.13Z"/><path class="cls-5" d="M14.63,10.11v0h0A0,0,0,0,1,14.63,10.11Z"/><path class="cls-3" d="M14.49,10.16s0,0,0,0S14.5,10.13,14.49,10.16Z"/><path class="cls-6" d="M13.33,8.51s0,0,.07-.06,0,0,0,0,0,.18,0,.28l.13-.17c0,.11.14.23.1.35s-.11.15-.16.12-.06-.2-.1-.29a.94.94,0,0,0-.1.17.74.74,0,0,1-.09-.19,1.77,1.77,0,0,1-.18.16c0-.13.07-.27.11-.4a.23.23,0,0,1,0,.12A.79.79,0,0,0,13.33,8.51Z"/><path class="cls-3" d="M13.79,9.07c0-.16,0-.06,0,0S13.8,9.07,13.79,9.07Z"/><path class="cls-3" d="M14,9.15c0-.1,0-.21,0,0h0Z"/><path class="cls-6" d="M14.24,9.19c0,.08,0,.14,0,.22a2,2,0,0,1-.08-.35A.23.23,0,0,1,14.24,9.19Z"/><path class="cls-6" d="M13.14,9.62,13,9.6s.06-.1.11-.13S13.14,9.56,13.14,9.62Z"/><path class="cls-6" d="M13.55,9.69a.24.24,0,0,1,.15,0s0,.08,0,.12a2.12,2.12,0,0,1-.43,0c0-.16-.19-.18-.18,0a4,4,0,0,1-.42-.1.21.21,0,0,1,0-.13,5.23,5.23,0,0,0,.76.13S13.51,9.69,13.55,9.69Zm-.73,0s-.07,0-.13-.06S12.79,9.65,12.82,9.64Zm.08,0s.13.06.15,0S12.92,9.63,12.9,9.67Zm.38.08s.15,0,.16,0S13.29,9.7,13.28,9.75Zm.22,0s.13,0,.15,0S13.51,9.73,13.5,9.77Z"/><path class="cls-5" d="M15.28,9.73a1.82,1.82,0,0,1,.41,0Z"/><path class="cls-6" d="M13.93,9.76v0s-.06,0-.1,0,0,0,0-.06S14,9.71,13.93,9.76Z"/><path class="cls-5" d="M13.37,10.21c0-.07,0-.19,0-.23s0,.16,0,.2,0-.16,0-.19S13.4,10.16,13.37,10.21Z"/><path class="cls-4" d="M15.18,10s0,0,0,0,0,0,0,.06-.17,0-.21.09-.14-.05-.15,0-.09,0-.09,0l-.13,0a.2.2,0,0,1-.07.09s0,0,0-.07-.06,0-.07,0,0-.07.08-.07a.07.07,0,0,1,0,.07c.1,0,.11-.12.09-.21s0,.06,0,.1a.18.18,0,0,1,.11,0,.17.17,0,0,1,.2-.06s0-.17,0-.2-.07,0-.09,0C15.12,9.67,15.06,10,15.18,10ZM15,10s-.1,0-.1,0S15.05,10.1,15,10Zm-.24,0v0h.06S14.84,10.06,14.81,10.06Zm0,0s0,0,0,0h0A.05.05,0,0,0,14.77,10.08Zm-.17.07h0v0A0,0,0,0,0,14.59,10.15Z"/><path class="cls-6" d="M13.93,10.17c0,.05,0,.07,0,.11a.2.2,0,0,0-.2-.07s0,0,0-.06A1,1,0,0,0,13.93,10.17Z"/><path class="cls-6" d="M14.07,10.17s0,0,0,0,0,0,0,0Z"/><path class="cls-6" d="M12.39,6.57c-.07,0-.13.07-.17.08a.26.26,0,0,1,.31-.27c.29,0,.52.3.82.28,0,.05,0,.05-.06.09a.57.57,0,0,0,.22,0s0,.06-.06.1a.52.52,0,0,0,.33-.16c0,.06.07.08.09.14s.07-.09.11-.14a.5.5,0,0,0,.32.16s-.11-.07,0-.1a.52.52,0,0,0,.21,0s-.09,0-.06-.09c.3,0,.53-.25.82-.28a.27.27,0,0,1,.32.28c-.07,0-.1-.08-.19-.09,0,.24,0,.51,0,.78,0,0,0,.08,0,.1,0,.28,0,.54,0,.83,0,0,0,.08,0,.1,0,.28,0,.54,0,.82,0,0,0,.09,0,.1a.34.34,0,0,0,.15.36s0,0,0,0h-.34c0-.14-.21-.19-.34-.13-.09-.23-.15-.49-.21-.74.06,0,.11.13.17.15,0-.65-.05-1.31-.09-2a1,1,0,0,1-.92-.17.94.94,0,0,1-.93.16c0,.66-.06,1.3-.08,2,0,0,.1-.09.15-.14s0,.12,0,.17-.12.41-.16.56c-.13-.06-.34,0-.35.13a2.44,2.44,0,0,0-.36,0c0-.06.13-.11.17-.18s0-.2,0-.31,0-.07,0-.1c0-.82.07-1.63.1-2.44C12.43,6.65,12.43,6.52,12.39,6.57Zm-.07,2.88s.22-.11.24-.22a1.88,1.88,0,0,0,0-.3c0-.61.05-1.21.08-1.81a1.6,1.6,0,0,0,0-.31c0-.09-.18-.15-.21-.2C12.41,7.55,12.36,8.49,12.32,9.45ZM15.09,6.8a1.89,1.89,0,0,0,0,.29c0,.71.06,1.49.09,2.15l.11.12s.1.1.13.08c-.05-.94-.08-1.9-.14-2.84C15.26,6.67,15.11,6.72,15.09,6.8Zm-2.34,0c0-.06,0,0,0,0,0,.78-.07,1.53-.1,2.3,0,0,.12-.11.16-.16s0-.14,0-.22,0-.07,0-.1,0-.25,0-.38,0-.07,0-.1,0-.25,0-.38,0-.07,0-.1,0-.25,0-.38,0-.07,0-.1,0-.23,0-.3S12.79,6.91,12.75,6.85ZM15,6.93V6.84c-.06,0-.2.08-.17.24s0,.09,0,.11v.12s0,.09,0,.11v.12s0,.1,0,.11v.12s0,.09,0,.11V8s0,.1,0,.12v.12s0,.09,0,.11v.12s0,.09,0,.11v.13s0,.09,0,.11V9c.05.05.18.21.2.19v0s0-.08,0-.1V9s0-.08,0-.1V8.74s0-.08,0-.1V8.53s0-.08,0-.1V8.31s0-.08,0-.1V8.1s0-.08,0-.1V7.88s0-.08,0-.1V7.67s0-.08,0-.1V7.45s0-.08,0-.1V7.24s0-.08,0-.1V7S15.06,6.94,15,6.93Z"/><path class="cls-6" d="M14.61,7.89a1,1,0,0,1,0-.31c0,.35,0,.72.06,1.09a.49.49,0,0,1,0-.2s0-.08,0-.1V8.23s0-.08,0-.1V8S14.63,7.91,14.61,7.89Z"/><path class="cls-6" d="M13.12,8.38a.8.8,0,0,1,0,.31c0-.34,0-.74,0-1.1a.42.42,0,0,1,0,.2s0,.07,0,.1V8s0,.07,0,.1v.15S13.13,8.35,13.12,8.38Z"/><path class="cls-6" d="M13.1,9.37c.06,0,.09-.13.16-.18s.05.15.07.24.1-.14.17-.19a.6.6,0,0,1,0,.41h-.12a1.64,1.64,0,0,1-.06-.19c-.05,0-.06.14-.13.17s-.07-.16-.11-.23-.09.12-.14.18-.06,0-.1,0c0-.16.09-.31.13-.47A1.84,1.84,0,0,1,13.1,9.37Z"/><path class="cls-6" d="M14.34,9.68a5.08,5.08,0,0,0,.75-.13s0,.08,0,.13-.27.06-.41.1c0-.13-.22-.15-.19,0a2.39,2.39,0,0,1-.44,0s0-.08,0-.13.11,0,.14,0S14.32,9.7,14.34,9.68Zm.59,0s0,0,0,0l.13,0C15.05,9.55,15,9.62,14.93,9.64Zm-.22.07a.19.19,0,0,0,.15,0S14.72,9.66,14.71,9.71Zm-.22,0v0a.14.14,0,0,0-.16,0C14.32,9.8,14.46,9.77,14.48,9.76Zm-.38,0s.15,0,.16,0S14.12,9.7,14.1,9.76Z"/><path class="cls-6" d="M15.25,9.72s-.07,0-.11,0a.28.28,0,0,1,0-.12C15.22,9.58,15.24,9.64,15.25,9.72Z"/><path class="cls-6" d="M14,9.73c0,.09,0,.15-.07.18S13.94,9.75,14,9.73Z"/><path class="cls-6" d="M15,10.07s.07,0,.1,0S15,10.11,15,10.07Z"/><path class="cls-5" d="M14.33,9.74s.11,0,.16,0S14.32,9.8,14.33,9.74Z"/><path class="cls-4" d="M13.6,6c0-.22-.16-.39-.3-.32,0-.2.2-.24.33-.14a.37.37,0,0,1,.58.3v.14a1,1,0,0,0,.16.7c.42,0,.59-.36,1-.29.15,0,.22.16.23.35.06.78.07,1.81.11,2.67a1.16,1.16,0,0,1,0,.37,1.82,1.82,0,0,0-.41,0c-.07.08.14.17.19.21s0,.18-.14.2c0,.22-.27.21-.51.24a5.21,5.21,0,0,1-.62,0c-.06,0-.15,0-.2,0h-.26s-.13,0-.18,0a6.29,6.29,0,0,1-.64,0c-.16,0-.41,0-.47-.13s0-.07,0-.11-.06,0-.08-.08,0-.1-.06-.13.13-.12.2-.17a.17.17,0,0,1,0-.06,1.92,1.92,0,0,0-.42,0h0c0-.78.07-1.69.11-2.53,0-.39-.06-.89.36-.86a1.14,1.14,0,0,1,.42.16.77.77,0,0,0,.43.13c.06,0,.13-.15.16-.21a.68.68,0,0,0,.07-.3A.28.28,0,0,0,13.6,6Zm.34.36c0,.25.09.42.28.44a.59.59,0,0,1-.16-.48c0,.21,0,.46.32.44a1,1,0,0,1-.2-.75.61.61,0,0,0-.07-.39c-.11-.11-.22.06-.29.07s-.1-.07-.16-.11-.32-.12-.32,0a.3.3,0,0,1,.36.19.06.06,0,0,0-.07,0,.61.61,0,0,0,0,.22.94.94,0,0,1-.2.65s-.09.07-.07.1c.27,0,.28-.23.32-.44a.7.7,0,0,1-.16.49c.24,0,.27-.25.3-.49a.68.68,0,0,1,0,.35s0,.09.1.11.06-.07.08-.12a.63.63,0,0,1-.06-.29s0-.06,0-.06S13.91,6.32,13.94,6.32Zm-.19-.75v0h0v0h0Zm1.62,1.78c0-.26,0-.54,0-.78.09,0,.13.06.19.09a.27.27,0,0,0-.32-.28c-.29,0-.52.31-.82.28,0,0,.08.06.06.09a.52.52,0,0,1-.21,0c-.06,0,.07.07,0,.1A.5.5,0,0,1,14,6.66s-.06.1-.11.14-.07-.08-.09-.14a.52.52,0,0,1-.33.16s.1-.08.06-.1a.57.57,0,0,1-.22,0s.06,0,.06-.09c-.3,0-.53-.26-.82-.28a.26.26,0,0,0-.31.27s.1-.07.17-.08,0,.07,0,.1c0,.82-.07,1.62-.1,2.44,0,0,0,.07,0,.1s0,.2,0,.31-.15.12-.17.18a2.75,2.75,0,0,0,.36,0c0-.15.22-.18.35-.13,0-.16.11-.4.16-.56s.07-.22,0-.17-.09.1-.15.14c0-.66.06-1.3.08-2a.94.94,0,0,0,.93-.16,1,1,0,0,0,.92.17c0,.65.06,1.3.09,2-.06,0-.14-.15-.17-.15.07.25.13.51.21.74.13-.07.32,0,.34.13a1.42,1.42,0,0,0,.36,0s0,0,0,0a.34.34,0,0,1-.15-.36s0-.08,0-.1c0-.28,0-.55,0-.82,0,0,0-.08,0-.1,0-.29,0-.55,0-.83C15.37,7.42,15.39,7.36,15.37,7.35Zm-1.15,1a1.83,1.83,0,0,0,.43-1.27,1.29,1.29,0,0,1-.78-.22,1.18,1.18,0,0,1-.77.22,1.91,1.91,0,0,0,.44,1.28l.11.11a1,1,0,0,0,.23.18,1,1,0,0,0,.21-.16Zm.42.11a.49.49,0,0,0,0,.2c0-.37,0-.74-.06-1.09a1,1,0,0,0,0,.31s0,.08,0,.1v.15s0,.08,0,.1v.15S14.62,8.46,14.64,8.48Zm-1.49-.68a.42.42,0,0,0,0-.2c0,.36,0,.76,0,1.1a.8.8,0,0,0,0-.31s0-.07,0-.1V8.13s0-.07,0-.1V7.89S13.14,7.82,13.15,7.79Zm.24.6a.54.54,0,0,0-.12-.33c0,.19-.17.37-.07.53A.94.94,0,0,0,13.39,8.39Zm1,0c0,.09.14.13.18.19.11-.16,0-.37-.07-.53C14.43,8.16,14.33,8.26,14.37,8.4Zm-.75.1s-.09-.08-.12-.11a.73.73,0,0,0-.1-.13,3.68,3.68,0,0,0,.06.44C13.47,8.65,13.62,8.55,13.62,8.5Zm.53,0a1.63,1.63,0,0,0,.17.2c0-.14,0-.31,0-.44A2.51,2.51,0,0,1,14.14,8.5Zm-.74,0c0-.1-.06,0-.08,0a.79.79,0,0,1-.13.13.23.23,0,0,0,0-.12c0,.13-.07.27-.11.4a1.77,1.77,0,0,0,.18-.16.74.74,0,0,0,.09.19.94.94,0,0,1,.1-.17c0,.09.06.2.1.29s0,0,0,0L13.66,9h0c0-.12-.06-.24-.1-.35l-.13.17C13.43,8.68,13.41,8.59,13.4,8.5Zm.84.61c0-.09,0-.24.1-.33a.55.55,0,0,0,.13.18,1.06,1.06,0,0,1,.08-.18c.07,0,.11.1.17.15a3.39,3.39,0,0,0-.12-.41.31.31,0,0,1-.06.13,1.2,1.2,0,0,0-.19-.2,1.93,1.93,0,0,1,0,.33.84.84,0,0,0-.13-.17c0,.12-.14.23-.09.36Zm-.13-.6a.33.33,0,0,1-.1.09,2,2,0,0,0,.06.23c0-.08.07-.16.1-.25S14.14,8.53,14.11,8.51Zm-.43.32a1.4,1.4,0,0,0,0-.23C13.53,8.4,13.61,8.74,13.69,8.84Zm-.19.32c0-.11-.07-.19-.09-.3s-.06.13-.11.16a.69.69,0,0,0-.09-.2c-.06,0-.11.13-.18.14s.05.26.1.37a.61.61,0,0,1,.15-.17c0,.09.06.15.07.23s.11-.14.18-.2,0,.17.06.23c0-.13.05-.23.07-.35s0,0,0,0S13.56,9.14,13.49,9.16Zm.78,0a1.17,1.17,0,0,0,.15.19,2.13,2.13,0,0,1,.09-.24,1.05,1.05,0,0,0,.15.18c0-.13.14-.22.09-.36s-.11-.1-.18-.15a1.57,1.57,0,0,1-.1.2.82.82,0,0,0-.12-.17c0,.11-.06.19-.07.3S14.18,9,14.11,9s0,0,0,0a2,2,0,0,0,.08.35c0-.08,0-.14,0-.22Zm-.47-.11c0-.08,0-.17,0,0s0,.48-.17.55-.06-.08-.07,0a.23.23,0,0,0,0,.08.65.65,0,0,1,.19,0c0,.05.22,0,.29,0s.15,0,.2,0a.12.12,0,0,1,0-.08s0,0-.08,0S14,9.27,14,9.1s0-.05,0,0,.07.44-.09.52C13.73,9.56,13.81,9.3,13.8,9.09ZM13,9.1c0,.16-.09.3-.13.47,0,0,.05,0,.1,0s.09-.12.14-.18,0,.18.11.23.07-.12.13-.17a1.64,1.64,0,0,0,.06.19h.12a.6.6,0,0,0,0-.41c-.07,0-.09.14-.17.19s-.05-.15-.07-.24-.1.13-.16.18A1.84,1.84,0,0,0,13,9.1Zm1.78,0c0,.09-.07.19-.11.27a2.16,2.16,0,0,0-.15-.18,1.26,1.26,0,0,1-.09.24,1,1,0,0,0-.16-.19.53.53,0,0,0,0,.41h.12a1,1,0,0,1,.07-.19.49.49,0,0,0,.11.17c.07,0,.07-.16.12-.23l.13.18s.06,0,.11,0C14.86,9.41,14.82,9.24,14.77,9.1Zm-1.67.37c-.05,0-.07.08-.11.13l.16,0C13.14,9.56,13.1,9.53,13.09,9.47Zm1.6,0c-.05,0,0,.11-.08.16l.16,0C14.75,9.54,14.71,9.52,14.69,9.47Zm-1.38.07s0,.06,0,.11h.09A.21.21,0,0,0,13.31,9.54Zm1.14,0s0,.08,0,.11.08,0,.1,0A.26.26,0,0,0,14.44,9.54Zm-1,.15a5.23,5.23,0,0,1-.76-.13.21.21,0,0,0,0,.13,4,4,0,0,0,.42.1c0-.15.21-.13.18,0a2.12,2.12,0,0,0,.43,0s.05-.07,0-.12a.24.24,0,0,0-.15,0S13.46,9.69,13.42,9.68Zm.79,0s-.1,0-.14,0,0,.08,0,.13a2.39,2.39,0,0,0,.44,0c0-.18.18-.16.19,0,.13,0,.28-.06.41-.1s0-.1,0-.13a5.08,5.08,0,0,1-.75.13S14.23,9.67,14.21,9.69Zm-1.58-.12c-.09,0-.12.07-.12.16A.13.13,0,0,0,12.63,9.58Zm2.51,0a.28.28,0,0,0,0,.12s.08,0,.11,0S15.22,9.58,15.14,9.58Zm-2,.28a.1.1,0,0,0,0-.16C13.08,9.69,13.08,9.84,13.16,9.86Zm1.41-.16a.15.15,0,0,0,0,.12C14.63,9.94,14.73,9.69,14.57,9.7Zm-1.19.15c-.11,0-.2,0-.23.07a.93.93,0,0,0-.1-.12c-.18,0-.35-.12-.51,0a.35.35,0,0,0,0,.1c-.11,0-.12.07-.17.13s.13.13.12.27a3.56,3.56,0,0,0,1.31.17.38.38,0,0,0,.2,0,4.25,4.25,0,0,0,1.29-.15.21.21,0,0,0,0-.14c.08,0,.08-.1.11-.16a.23.23,0,0,0-.17-.14.12.12,0,0,0,0-.09c-.16-.07-.35,0-.52.06s-.05.07-.09.11-.13-.08-.23-.07h-.19s-.07,0-.08,0A.4.4,0,0,0,14,10a.39.39,0,0,1,0-.16s0,0-.07,0v0c0,.06,0,.11-.06.13s-.08-.11-.13-.15,0,0-.07,0Zm.43-.12s0,0,0,.06.08,0,.1,0v0a.1.1,0,0,0,0,0s-.12,0-.16,0Zm-.07,0s0,.05,0,.1a.72.72,0,0,0,.1.09C13.82,9.84,13.82,9.74,13.74,9.73Zm.21.18c.09,0,.11-.09.07-.18S13.94,9.83,13.95,9.91Z"/><path class="cls-4" d="M12.76,9.83c0,.05,0,.16,0,.21s0,0,.07.06,0-.09.06-.13,0,.08,0,.13.06,0,.08,0,0-.08,0-.12,0,.11,0,.13-.24,0-.28-.13A.31.31,0,0,0,12.76,9.83Z"/><path class="cls-4" d="M13.61,10.26a.2.2,0,0,1-.07.08s0-.06,0-.1-.06-.06,0-.11.06,0,.06.08,0-.08,0-.11a.38.38,0,0,0,.27,0s0,.07,0,.08,0-.06.06-.08.07,0,.08.06-.1,0-.15,0,0,.06,0,.07-.06,0-.06,0A.29.29,0,0,0,13.61,10.26Zm.1-.11s0,0,0,.06a.2.2,0,0,1,.2.07s0-.06,0-.11A1,1,0,0,1,13.7,10.15Zm.33,0s0,0,0,0,0,0,0,0Z"/></g></g></svg>