<svg xmlns="http://www.w3.org/2000/svg" viewBox="0 0 27.05 16"><defs><style>.cls-1{fill:#01411c;}.cls-2{fill:#fdfefd;}.cls-3{fill:#fff;}.cls-4{fill:#d8d8d8;}</style></defs><title>flag_586
</title><g id="レイヤー_2" data-name="レイヤー 2"><g id="flag"><rect class="cls-1" x="0.03" y="0.08" width="26.94" height="15.92"/><rect class="cls-2" x="0.03" y="0.08" width="7.08" height="15.92"/><polygon class="cls-3" points="18.7 6.56 18.39 5.37 17.24 4.95 18.28 4.3 18.32 3.07 19.27 3.85 20.45 3.52 20 4.66 20.68 5.67 19.45 5.6 18.7 6.56"/><path class="cls-3" d="M13.57,1.86S8.78,6.81,12.19,10.6c2.57,2.86,6.28,2.62,9-.26,0,0-4.71,2.25-7.57-1C12.49,8,11.77,5.66,13.57,1.86Z"/><path class="cls-4" d="M26.85.2V15.8H.2V.2H26.85m.2-.2H0V16H27.05V0Z"/></g></g></svg>