<svg xmlns="http://www.w3.org/2000/svg" viewBox="0 0 26.9 15.92"><defs><style>.cls-1{fill:#00247d;}.cls-2{fill:#17489d;}.cls-3,.cls-5{fill:#fff;}.cls-4,.cls-6{fill:#e71e18;}.cls-5,.cls-6{fill-rule:evenodd;}</style></defs><title>flag_554</title><g id="レイヤー_2" data-name="レイヤー 2"><g id="flag"><rect class="cls-1" x="0.01" y="0.02" width="26.89" height="15.9"/><rect class="cls-2" x="0.02" y="0.02" width="12.65" height="7.52"/><rect class="cls-3" x="5.03" y="0.02" width="2.25" height="7.5"/><rect class="cls-3" x="0.01" y="2.73" width="12.68" height="2.34"/><rect class="cls-4" x="5.37" y="0.08" width="1.59" height="7.44"/><rect class="cls-4" y="3.02" width="12.7" height="1.65"/><polygon class="cls-3" points="9.59 5.04 12.67 6.54 12.68 7.53 11.15 7.5 7.26 5.49 7.23 4.99 9.59 5.04"/><polygon class="cls-3" points="2.94 2.71 0.06 1.21 0.08 0.06 1.3 0.09 5.07 2.28 5.07 2.8 2.94 2.71"/><polygon class="cls-3" points="9.52 2.71 12.65 1.12 12.67 0.04 11.34 0 7.24 2.28 7.24 2.8 9.52 2.71"/><polygon class="cls-3" points="2.91 5.01 0.03 6.51 0.03 7.63 1.27 7.63 5.04 5.44 5.04 4.92 2.91 5.01"/><polygon class="cls-4" points="12.67 0.04 12.11 0.06 7.25 2.78 8.42 2.77 12.67 0.6 12.67 0.04"/><polygon class="cls-4" points="7.23 5.03 11.97 7.51 12.67 7.5 12.68 7.09 8.63 5.04 7.23 5.03"/><polygon class="cls-4" points="5.05 5 0.61 7.59 0.04 7.59 0.04 6.93 3.67 4.97 5.05 5"/><polygon class="cls-4" points="3.62 2.69 0.08 0.7 0.04 0.04 0.42 0.15 4.75 2.69 3.62 2.69"/><polygon class="cls-5" points="20.1 13.65 19.36 13.08 18.59 13.66 18.89 12.75 18.16 12.25 19.06 12.19 19.36 11.32 19.65 12.19 20.49 12.2 19.83 12.74 20.1 13.65"/><polygon class="cls-6" points="19.98 13.49 19.36 13.01 18.71 13.5 18.96 12.72 18.34 12.3 19.11 12.25 19.36 11.51 19.6 12.24 20.32 12.26 19.76 12.71 19.98 13.49"/><polygon class="cls-5" points="16.31 7.79 15.63 7.27 14.91 7.8 15.19 6.95 14.52 6.49 15.35 6.44 15.62 5.63 15.89 6.43 16.67 6.45 16.06 6.95 16.31 7.79"/><polygon class="cls-6" points="16.2 7.64 15.63 7.19 15.02 7.65 15.25 6.93 14.68 6.54 15.39 6.49 15.62 5.81 15.85 6.49 16.51 6.5 15.99 6.92 16.2 7.64"/><polygon class="cls-5" points="19.96 4.11 19.29 3.58 18.57 4.12 18.85 3.27 18.18 2.81 19.01 2.76 19.28 1.96 19.55 2.75 20.33 2.77 19.72 3.27 19.96 4.11"/><polygon class="cls-6" points="19.86 3.96 19.28 3.51 18.68 3.97 18.91 3.25 18.34 2.86 19.05 2.81 19.28 2.13 19.51 2.81 20.17 2.82 19.65 3.24 19.86 3.96"/><polygon class="cls-5" points="23.14 6.82 22.46 6.3 21.75 6.83 22.02 5.99 21.35 5.52 22.18 5.47 22.46 4.67 22.72 5.46 23.5 5.48 22.89 5.98 23.14 6.82"/><polygon class="cls-6" points="23.03 6.67 22.46 6.22 21.85 6.68 22.08 5.96 21.52 5.57 22.22 5.52 22.45 4.84 22.68 5.52 23.35 5.53 22.82 5.95 23.03 6.67"/></g></g></svg>