<svg xmlns="http://www.w3.org/2000/svg" viewBox="0 0 27 16.08"><defs><style>.cls-1{fill:#cc0001;}.cls-2{fill:#fff;}.cls-3{fill:#010066;}.cls-4{fill:#fc0;}</style></defs><title>flag_458
</title><g id="レイヤー_2" data-name="レイヤー 2"><g id="flag"><rect id="red" class="cls-1" y="0.01" width="27" height="16.07"/><rect id="white" class="cls-2" y="14.93" width="27" height="1.15"/><g id="use3035"><rect id="white-2" data-name="white" class="cls-2" y="12.64" width="27" height="1.15"/></g><g id="use3038"><rect id="white-3" data-name="white" class="cls-2" y="10.34" width="27" height="1.15"/></g><g id="use3062"><rect id="white-4" data-name="white" class="cls-2" y="8.04" width="27" height="1.15"/></g><g id="use3064"><rect id="white-5" data-name="white" class="cls-2" y="5.75" width="27" height="1.15"/></g><g id="use3066"><rect id="white-6" data-name="white" class="cls-2" y="3.45" width="27" height="1.15"/></g><g id="use3068"><rect id="white-7" data-name="white" class="cls-2" y="1.16" width="27" height="1.15"/></g><rect id="blue" class="cls-3" width="12.77" height="9.19"/><path id="path4945" class="cls-4" d="M5,1.15A3.44,3.44,0,1,0,6.83,7.49a3.05,3.05,0,1,1,.06-5.75A3.45,3.45,0,0,0,5,1.15Z"/><path id="path4959" class="cls-4" d="M10.69,6.39,9.24,5.63l.43,1.55-1-1.3-.3,1.58-.3-1.58-1,1.3.44-1.55-1.46.76L7.18,5.16l-1.65.06L7,4.59,5.53,3.95,7.18,4,6.1,2.8l1.46.76L7.12,2l1,1.3.3-1.58.3,1.58,1-1.3L9.24,3.56l1.46-.76L9.62,4,11.27,4l-1.52.64,1.51.64L9.61,5.17Z"/></g></g></svg>