<svg xmlns="http://www.w3.org/2000/svg" viewBox="0 0 26.89 15.9"><defs><style>.cls-1{fill:#032ea1;}.cls-2{fill:#e00025;}.cls-3{fill:#fff;}.cls-3,.cls-4{fill-rule:evenodd;}.cls-4{fill:#ecb7b7;}</style></defs><title>flag_116</title><g id="レイヤー_2" data-name="レイヤー 2"><g id="flag"><rect class="cls-1" width="26.89" height="15.9"/><rect class="cls-2" x="0.04" y="3.93" width="26.81" height="8.05"/><path class="cls-3" d="M13.63,4.53V4.42H14v.11Z"/><path class="cls-4" d="M11,6.79v.14h0S10.94,6.81,11,6.79Z"/><path class="cls-3" d="M9,7H9.3v.32H9Z"/><path class="cls-4" d="M12.48,7s0,.1,0,.14S12.49,7.06,12.48,7Z"/><path class="cls-4" d="M15.14,7s0,.12,0,.14S15.11,7,15.14,7Z"/><path class="cls-4" d="M16.61,7a1.54,1.54,0,0,1,0,.32h0Z"/><path class="cls-3" d="M18.31,7h.33v.32h-.33V7Z"/><path class="cls-3" d="M9.09,7.66V7.38H9.2v.29H9.09Z"/><path class="cls-3" d="M10.41,7.4a6.06,6.06,0,0,0,.64,0V8.86h-.4c0-.26,0-.56,0-.8h-.21v.8h0Z"/><path class="cls-3" d="M12.84,7.38h.47V8.86h0c-.07-.1.08-.7,0-.8s-.15,0-.22,0c0,.25,0,.55,0,.82h-.22Z"/><path class="cls-3" d="M14.31,7.38h.44V8.86h-.16v-.8a.37.37,0,0,0-.22,0v.8h-.06Z"/><path class="cls-3" d="M14.81,7.38H16.5v.29H14.81Z"/><path class="cls-3" d="M18.4,7.67V7.38h.14v.28S18.44,7.66,18.4,7.67Z"/><path class="cls-3" d="M9.88,7.4h0V9.13h0Z"/><path class="cls-3" d="M10,9.13V7.4h.3V9.13Z"/><path class="cls-3" d="M10.32,7.4h0c0,.57,0,1.18,0,1.73h0Z"/><path class="cls-3" d="M17.32,9.13h0c0-.57,0-1.18,0-1.73h0Z"/><path class="cls-3" d="M17.66,9.13h-.3V7.4h.3Z"/><path class="cls-3" d="M17.72,9.13V7.4h0c0,.57,0,1.18,0,1.73Z"/><path class="cls-4" d="M9.58,8.06h0c0,.26,0,.55,0,.79C9.57,8.6,9.54,8.3,9.58,8.06Z"/><path class="cls-3" d="M9.6,8.09h.15v.78H9.6Z"/><path class="cls-3" d="M10.46,8.09h.15v.78h-.15Z"/><path class="cls-3" d="M11.25,8.85V8.09h.14v.76Z"/><path class="cls-3" d="M11.58,8.09h.15v.76h-.15Z"/><path class="cls-3" d="M12,8.85h-.14V8.09H12Z"/><path class="cls-3" d="M12.18,8.09h.15v.76h-.15Z"/><path class="cls-3" d="M13.26,8.09v.76h-.15V8.09Z"/><path class="cls-3" d="M13.45,8.09h.14v.76c-.2.07-.14-.18-.14-.39Z"/><path class="cls-3" d="M14.08,8.09h.14v.76c-.2.07-.14-.18-.14-.39Z"/><path class="cls-3" d="M14.41,8.09h.14v.76h-.14Z"/><path class="cls-3" d="M15.12,8.09v.76H15V8.09Z"/><path class="cls-3" d="M15.31,8.09h.14v.76c-.2.07-.14-.18-.14-.39Z"/><path class="cls-3" d="M15.9,8.09H16v.76c-.2.07-.14-.18-.14-.39Z"/><path class="cls-3" d="M16.37,8.09v.76h-.14V8.09Z"/><path class="cls-3" d="M17,8.09h.15v.78H17Z"/><path class="cls-3" d="M17.87,8.09H18v.78h-.14Z"/><path class="cls-4" d="M12.51,8.85h.15S12.53,8.88,12.51,8.85Z"/><path class="cls-3" d="M9.92,10.73h0c0-.52,0-1.07,0-1.57h0Z"/><path class="cls-3" d="M10,10.73V9.17h.32v1.57Z"/><path class="cls-3" d="M14.06,9.17c1,0,2.13,0,3.16,0,0,.08-.12,0-.15,0-1,0-2,0-3,0Z"/><path class="cls-3" d="M17.34,9.17h.32v1.57h-.32Z"/><path class="cls-3" d="M17.7,9.17h0c0,.52,0,1.07,0,1.57h0Z"/><path class="cls-3" d="M17.79,9.17h1.09v.06H17.79Z"/><path class="cls-3" d="M8.55,9.27H9.84v.22H8.55Z"/><path class="cls-3" d="M10.41,9.27h3.19v.22H10.41Z"/><path class="cls-3" d="M14.06,9.49V9.27h3.16v.22Z"/><path class="cls-3" d="M17.79,9.27H19v.22H17.79Z"/><path class="cls-3" d="M8.29,9.53H9.84v.29H8.29Z"/><path class="cls-3" d="M10.41,9.53h3.19v.29H10.41Z"/><path class="cls-3" d="M14.06,9.82V9.53h3.16v.29Z"/><path class="cls-3" d="M17.79,9.53h1.55v.29H17.79Z"/><path class="cls-3" d="M7.9,9.86H9.84v.41H7.9Z"/><path class="cls-3" d="M10.41,10.28V9.86h3.19v.41Z"/><path class="cls-3" d="M14.06,9.86h3.16v.41H14.06Z"/><path class="cls-3" d="M17.79,9.86h1.94v.41H17.79Z"/><path class="cls-3" d="M7.51,10.33H9.84v.4H7.51Z"/><path class="cls-3" d="M10.41,10.33h3.19v.4H10.41Z"/><path class="cls-3" d="M14.06,10.33h3.16v.4H14.06Z"/><path class="cls-3" d="M17.79,10.33h2.33v.4H17.79Z"/><path class="cls-4" d="M13.91,4.24s-.19,0-.2,0S13.85,4.23,13.91,4.24Z"/><path class="cls-3" d="M14,4.39h-.28V4.27H14Z"/><path class="cls-3" d="M13.52,5.06s0-.11,0-.07a.12.12,0,0,0,.05.05S13.55,5,13.52,5.06Z"/><path class="cls-3" d="M14.1,5.06H14s0,0,.05-.07S14.1,5,14.1,5.06Z"/><path class="cls-3" d="M14,4.85c-.06,0-.14,0-.18,0S14,5,14,5,14,5,14,4.92h0s0,0,0,0,.11,0,.12,0l.11-.07s0,.07-.06.07,0,.1-.06.08H14s0,0,0,0a.12.12,0,0,0-.05.05.3.3,0,0,0-.36,0A.12.12,0,0,0,13.58,5s0,0,0,0,0-.09-.06-.08-.08,0-.08-.07.09,0,.14.07.16,0,.11,0a.05.05,0,0,1-.06.06c.1.07.09-.18.25-.14-.06-.07-.15.06-.28,0s0-.15,0-.14,0,0,0-.06,0,0,.07,0a.92.92,0,0,0,.5,0s0,0,.07,0,0,0,0,.06S14.06,4.8,14,4.85Z"/><path class="cls-3" d="M14.14,5.07A.27.27,0,0,1,14.28,5c0,.11-.13,0-.11.15s-.13.05-.14,0h.11Z"/><path class="cls-3" d="M14.1,5.17c.06.07-.21.13-.28,0s-.27.06-.33,0,.06,0,.08,0a.26.26,0,0,1,.47,0Z"/><path class="cls-3" d="M13.43,5.43c.06,0,.07,0,.11,0a.28.28,0,0,1,.54,0c.05,0,.07,0,.12,0s-.26.16-.37.07C13.7,5.57,13.47,5.58,13.43,5.43Z"/><path class="cls-4" d="M10.44,5.61s-.16,0-.15,0S10.38,5.61,10.44,5.61Z"/><path class="cls-3" d="M17.19,5.61l-.1,0s.08,0,.1,0c.11-.17.5-.21.61,0,0,0,.06,0,.11,0a.26.26,0,0,1-.25.07.17.17,0,0,0-.32,0S17.24,5.61,17.19,5.61Z"/><path class="cls-3" d="M13.13,5.78c-.09,0-.2,0-.21-.12.28,0,.38.23.6.32,0,.06-.1.09-.13.17s-.14-.06-.22,0h0V6C13.14,5.92,13.16,5.82,13.13,5.78Z"/><path class="cls-3" d="M14.45,6.11c-.08,0-.15,0-.22,0A.32.32,0,0,0,14.1,6c.2-.11.32-.3.6-.33,0,.1-.12.1-.21.12s0,.14,0,.21S14.51,6.11,14.45,6.11Z"/><path class="cls-3" d="M9.84,6.56a1.14,1.14,0,0,1-.16-.25c.07,0,.1.06.15.08A.62.62,0,0,1,10.1,6c.19,0,.25.23.32.4.06,0,.07-.08.15-.07a.9.9,0,0,1-.18.25.53.53,0,0,0-.26-.32A.55.55,0,0,0,9.84,6.56Z"/><path class="cls-3" d="M17.51,6.25a.49.49,0,0,0-.28.32,1,1,0,0,1-.18-.25c.07,0,.1,0,.14.07.09-.13.15-.41.32-.4s.23.25.29.4.08-.08.15-.07-.11.16-.15.25A.74.74,0,0,0,17.51,6.25Z"/><path class="cls-3" d="M13,6.16c-.1,0-.22-.05-.24-.17a.4.4,0,0,1,.35.17c.12,0,.19.12.28.18s.1,0,.11,0-.07.07-.07.08H13v-.1C13,6.31,13,6.21,13,6.16Z"/><path class="cls-3" d="M14.19,6.47s-.08-.06-.06-.11c.18,0,.18-.19.36-.19S14.7,6,14.85,6c0,.12-.13.14-.24.17h0v.3Z"/><path class="cls-3" d="M10.52,6.08c.07,0,.1,0,.18,0-.08.1-.24.24-.36.1s.08,0,.11,0,0-.12,0-.14S10.49,6.05,10.52,6.08Z"/><path class="cls-3" d="M12.54,6.4c0,.08.18.09.28.12a1.18,1.18,0,0,0,0,.29V7h.6s-.06.11-.07.15-.16-.07-.24,0,0,0,0,.05h-.61V6.4Z"/><path class="cls-3" d="M18,6.11s-.12.18-.25.17-.06-.09-.07-.15.12,0,.1-.06,0,.07.07.08S18,6.1,18,6.11Z"/><path class="cls-3" d="M10.39,6.22c.05,0,.07,0,.11.07s-.05,0-.06.05A.25.25,0,0,1,10.39,6.22Z"/><path class="cls-3" d="M9.81,6.34l-.06,0a.1.1,0,0,1,.08-.08C9.85,6.29,9.8,6.29,9.81,6.34Z"/><path class="cls-3" d="M10.42,6.7c.06,0,.07-.08.15-.07a1.57,1.57,0,0,1-.16.24c-.1-.09-.15-.24-.28-.31s-.2.19-.28.31c-.09,0-.12-.15-.18-.24s.1.06.15.08a.57.57,0,0,1,.3-.43A.65.65,0,0,1,10.42,6.7Z"/><path class="cls-3" d="M17.07,6.43a.53.53,0,0,1,.14.21s-.11-.07-.19,0,.06.07.07.13c-.18,0-.24-.15-.35-.25.12,0,.17,0,.25.07S17,6.47,17.07,6.43Z"/><path class="cls-3" d="M17.94,6.75c0-.06.05-.06.06-.11s-.14,0-.18,0,.08-.12.1-.21.07.08.1.12.16-.1.26-.05C18.16,6.59,18.1,6.72,17.94,6.75Z"/><path class="cls-3" d="M16.69,6.52c.15.08.18.26.42.25a.49.49,0,0,0,.11.15.73.73,0,0,0,0,.24.24.24,0,0,0-.17,0c0,.08.1.1.14.17h0a3.19,3.19,0,0,1-.5,0V7.09c0-.15,0-.47,0-.57Z"/><path class="cls-3" d="M10.48,7.33c0-.06.1-.09.14-.15s-.15,0-.15,0a1.74,1.74,0,0,0-.06-.24l.21-.3a.83.83,0,0,0,.33-.1c.06,0,0,.13,0,.18v.07s0,.1,0,.14v.32s0,.08,0,.11a2.64,2.64,0,0,1-.47,0Z"/><path class="cls-3" d="M17.9,7.28s.08-.07.11-.12a.27.27,0,0,0-.17,0,.62.62,0,0,0-.06-.22.71.71,0,0,0,.11-.17c.21,0,.24-.14.36-.21h0v.24s0,.1,0,.14v.32s0,.08,0,.11h-.4A.47.47,0,0,0,17.9,7.28Z"/><path class="cls-3" d="M17.8,7.12a.31.31,0,0,0-.58,0,.6.6,0,0,1,.3-.51A.78.78,0,0,1,17.8,7.12Z"/><path class="cls-3" d="M10.42,7.22c.07,0,.06-.06.14,0a.78.78,0,0,1-.15.17c-.28,0-.66.07-.72-.17.07,0,.07,0,.12,0s.14-.29.29-.3S10.35,7.09,10.42,7.22Z"/><path class="cls-3" d="M17.52,6.91a.54.54,0,0,1,.28.3c.07,0,.06-.05.14,0s-.06.14-.15.17a1.61,1.61,0,0,1-.56,0c-.1,0-.11-.13-.16-.15s.08,0,.12,0S17.35,7,17.52,6.91Z"/><path class="cls-3" d="M12.69,7.3a.13.13,0,0,1-.11-.1h.6a.2.2,0,0,1,.07.07s0,0,0,0A4.54,4.54,0,0,1,12.69,7.3Z"/><path class="cls-3" d="M15,7.2a.13.13,0,0,1-.11.1h-.58s0,0,0,0a.21.21,0,0,1,.07-.07A5,5,0,0,1,15,7.2Z"/><path class="cls-3" d="M14.06,7.56c.06-.08.06-.19.21-.18V8.86h0v-.8s-.13,0-.19,0Z"/><path class="cls-3" d="M13.36,7.38c.16,0,.15.15.24.22V8c-.06,0-.15,0-.18,0a4.72,4.72,0,0,1,0,.8h0Z"/><path class="cls-3" d="M14.06,7.38h.08s0,0-.05.08h0Z"/><path class="cls-3" d="M17.81,8.91c0,.07,0,.18,0,.23s0,0,0,0S17.78,9,17.81,8.91Z"/><path class="cls-3" d="M13.59,4.68V4.56H14v.13Z"/><path class="cls-3" d="M10.24,5.42a.51.51,0,0,0-.25,0,.65.65,0,0,1,.14-.5A.66.66,0,0,1,10.24,5.42Z"/><path class="cls-3" d="M17.64,5.42a.6.6,0,0,0-.26,0,1,1,0,0,1,.12-.51A.66.66,0,0,1,17.64,5.42Z"/><path class="cls-3" d="M13.59,5.11s0,0,0,0-.07,0-.12,0-.13,0-.11-.15a.28.28,0,0,1,.14.08v0S13.58,5.08,13.59,5.11Z"/><path class="cls-3" d="M13.58,5.36a.37.37,0,0,0,0,.07c-.06,0-.1,0-.15,0V5.31s-.13,0-.14-.11.13,0,.18.08.14,0,.21,0S13.59,5.33,13.58,5.36Z"/><path class="cls-3" d="M9.9,6.12c-.09.19-.26,0-.35-.07s.12,0,.16,0S9.74,6,9.8,6,9.8,6.15,9.9,6.12Z"/><path class="cls-3" d="M9.4,6.52a.9.9,0,0,0,.25.08c0,.12.13.23.19.33a.58.58,0,0,0-.05.22.5.5,0,0,0-.14,0c0,.08.1.13.14.21H9.34V7.09a4.82,4.82,0,0,0,0-.58S9.38,6.53,9.4,6.52Z"/><path class="cls-3" d="M15.1,7.15c-.15,0-.66.06-.6-.05a.25.25,0,0,0-.22,0,.29.29,0,0,1-.1-.15h.6s0-.11,0-.15a1.28,1.28,0,0,0,0-.29c.1,0,.23,0,.28-.12s0,.12,0,.17v.58Z"/><path class="cls-3" d="M12.5,7.16c.07,0,.08.14.17.17-.53,0-1.11,0-1.66,0V7h1.48S12.47,7.14,12.5,7.16Z"/><path class="cls-3" d="M16.61,7.34c-.54,0-1.13,0-1.65,0,.09,0,.1-.12.17-.17s0-.1,0-.14h1.47Z"/><path class="cls-3" d="M9.24,7.38h.07a3.94,3.94,0,0,0,.53,0c0,.49,0,1,0,1.47h0v-.8H9.58c0,.24,0,.54,0,.8H9.24Z"/><path class="cls-3" d="M13.65,7.38H14v3.35h-.38Z"/><path class="cls-3" d="M16.54,7.38h.08c.1.08.53-.07.61,0s0,.24,0,.32v.33H17v.79h-.47Z"/><path class="cls-3" d="M15.6,8.09h.15v.76H15.6Z"/><path class="cls-3" d="M9.2,7.71V8.86H9.15V7.71Z"/><path class="cls-3" d="M16.5,7.71v.9c0,.08,0,.21,0,.25h0v-.8a.37.37,0,0,0-.22,0v.8h-.11c0-.26,0-.56,0-.8a.32.32,0,0,0-.21,0,4.74,4.74,0,0,1,0,.8h0v-.8a.37.37,0,0,0-.22,0c0,.24,0,.54,0,.8h-.07c0-.26,0-.56,0-.8a.32.32,0,0,0-.21,0,4.74,4.74,0,0,1,0,.8h-.08c0-.26,0-.56,0-.8-.28-.11-.22.12-.22.4v.4h-.11V7.71Z"/><path class="cls-3" d="M17.8,8.86V7.4a4.59,4.59,0,0,0,.56,0V8.85H18c0-.26,0-.55,0-.79h-.19a7.93,7.93,0,0,0,0,.8Z"/><path class="cls-3" d="M18.4,8.86c0-.38,0-.79,0-1.15h.07V8.86Z"/><path class="cls-3" d="M9.23,8.92a2.65,2.65,0,0,1,.43,0,1.08,1.08,0,0,1-.05.22,3.16,3.16,0,0,1-.47,0Z"/><path class="cls-3" d="M14.32,8.93c.1-.06.31,0,.46,0s.08.14.11.22a3.94,3.94,0,0,1-.53,0A.82.82,0,0,1,14.32,8.93Z"/><path class="cls-3" d="M10.57,8.92a2,2,0,0,1,.51,0c0,.07.07.12.1.19h-.57A1.11,1.11,0,0,1,10.57,8.92Z"/><path class="cls-3" d="M10.41,8.91c.05,0,.12,0,.14,0a1.13,1.13,0,0,1,0,.19h-.15A1.32,1.32,0,0,1,10.41,8.91Z"/><path class="cls-3" d="M14.06,9.13c0-.07,0-.18,0-.22s0,0,0,0a1.5,1.5,0,0,1,0,.19h-.08Z"/><path class="cls-3" d="M14.28,8.91a.84.84,0,0,1,.06.21h-.16a.75.75,0,0,1,0-.19C14.14,8.88,14.24,8.92,14.28,8.91Z"/><path class="cls-3" d="M9.81,9.14c0-.07,0-.1,0-.17S9.87,9.15,9.81,9.14Z"/><path class="cls-3" d="M13.48,9.13a1.75,1.75,0,0,1,0-.18s0-.06.05,0,0,.15,0,.22Z"/><path class="cls-3" d="M13.61,9.22c-1.06,0-2.19,0-3.2,0,.48-.06,1.07,0,1.58,0h1.62Z"/><path class="cls-3" d="M10.37,10.73s0,0,0,0c-.06-.47,0-1.06,0-1.58h0c.08,0,0,.11,0,.17v1.4Z"/><path class="cls-3" d="M17.32,9.17c0,.49,0,1.11,0,1.58,0,0,0,0,0,0V9.53C17.26,9.42,17.22,9.16,17.32,9.17Z"/><path class="cls-3" d="M13.72,4.23A.16.16,0,0,1,13.8,4c.1,0,.14.09.12.22h0C13.85,4.23,13.76,4.25,13.72,4.23Z"/><path class="cls-3" d="M14.2,5.28c.06,0,.09-.09.18-.08s-.08.07-.14.1v.12c-.05,0-.1,0-.15,0a.39.39,0,0,0,0-.07s-.07-.05,0-.07S14.16,5.31,14.2,5.28Z"/><path class="cls-3" d="M13.23,5.5c-.07,0-.16,0-.15-.14s.16.11.28.12v.06c.13,0,.15.06.28,0,0,.06-.12.08-.14.17h-.24V5.68C13.25,5.62,13.29,5.51,13.23,5.5Z"/><path class="cls-3" d="M14.37,5.65v.1h-.24c0-.08-.1-.1-.12-.17s.12-.07.25,0a.44.44,0,0,1,.29-.18c0,.08-.08.11-.15.14S14.37,5.6,14.37,5.65Z"/><path class="cls-3" d="M10.28,5.6a.16.16,0,0,0-.32,0,.33.33,0,0,1-.25-.05s.07,0,.1,0a.39.39,0,0,1,.61,0l.11,0s-.07,0-.1.06S10.31,5.62,10.28,5.6Z"/><path class="cls-3" d="M10.25,5.67c-.1,0-.18-.06-.26,0C9.94,5.5,10.26,5.45,10.25,5.67Z"/><path class="cls-3" d="M17.65,5.68a.29.29,0,0,0-.28,0A.14.14,0,1,1,17.65,5.68Z"/><path class="cls-3" d="M14.14,5.82c.06,0,.08,0,.14,0s-.1.16-.16.17-.19-.12-.29-.12-.24.13-.3.12-.17-.13-.2-.17.09,0,.14,0,.17-.28.33-.29S14.06,5.69,14.14,5.82Z"/><path class="cls-3" d="M10.42,5.93a.42.42,0,0,0-.6,0C9.83,5.59,10.41,5.59,10.42,5.93Z"/><path class="cls-3" d="M17.8,5.93a.42.42,0,0,0-.6,0C17.21,5.59,17.8,5.59,17.8,5.93Z"/><path class="cls-3" d="M10.42,6.09c-.17,0-.17-.12-.29-.15s-.13.17-.3.15C9.82,5.74,10.42,5.75,10.42,6.09Z"/><path class="cls-3" d="M17.8,6.09c-.17,0-.17-.12-.29-.15s-.13.18-.31.15C17.21,5.75,17.8,5.74,17.8,6.09Z"/><path class="cls-3" d="M13.4,6.29c-.05,0-.16-.11-.16-.17a.26.26,0,0,1,.16.06c.11-.13.21-.32.4-.33s.33.18.42.33a.43.43,0,0,1,.16-.06s-.11.12-.15.17-.15,0-.22,0a.29.29,0,0,0-.39,0C13.55,6.3,13.45,6.32,13.4,6.29Z"/><path class="cls-3" d="M12.51,6.23V6c0,.09.07.18.17.19a1.33,1.33,0,0,0,.31,0v.22c-.14,0-.28-.19-.44-.11S12.55,6.24,12.51,6.23Z"/><path class="cls-3" d="M14.95,6.22A.2.2,0,0,0,15.1,6s0,.14,0,.21,0,.1,0,.11-.31.08-.44.11,0-.17,0-.22A1.2,1.2,0,0,0,14.95,6.22Z"/><path class="cls-3" d="M17.16,6.05c0,.06,0,.09.12.07a1.56,1.56,0,0,1-.08.15c-.15,0-.18-.11-.28-.15s.12,0,.15,0S17.14,6.09,17.16,6.05Z"/><path class="cls-3" d="M13.23,6.59c.06,0,.09,0,.14.05.1-.16.23-.4.44-.4s.35.22.43.4c.07,0,.09-.05.15-.05s0,.05,0,.1a.93.93,0,0,0-.14.14H14a.37.37,0,0,0-.47,0h-.19a.79.79,0,0,0-.14-.14h0S13.11,6.58,13.23,6.59Z"/><path class="cls-3" d="M17.8,6.7s.07-.09.15-.07a1,1,0,0,1-.16.24c-.1-.1-.15-.24-.28-.31s-.19.2-.28.31a.87.87,0,0,1-.18-.24c.08,0,.1,0,.14.07.08-.17.14-.35.33-.42A.69.69,0,0,1,17.8,6.7Z"/><path class="cls-3" d="M12.86,6.55v0c-.1-.05-.29,0-.29-.17.2,0,.29.1.43.15a2.36,2.36,0,0,0,.42,0,.76.76,0,0,1,0,.1c-.08,0-.16-.07-.25,0h0a.63.63,0,0,0,.17.18c0,.09.16.07.19.15h-.6A2,2,0,0,0,12.86,6.55Z"/><path class="cls-3" d="M14.63,6.5c.14-.05.23-.16.43-.15,0,.18-.25.08-.29.21h0v.37a2.43,2.43,0,0,1-.6,0c.05-.06.17-.05.2-.14s.16-.12.15-.18-.17,0-.25,0,0-.07,0-.08h0A2.4,2.4,0,0,0,14.63,6.5Z"/><path class="cls-3" d="M10.64,6.5c.08,0,.14-.07.25-.07-.07.17-.27.19-.47.21,0-.1.1-.15.14-.24S10.62,6.46,10.64,6.5Z"/><path class="cls-3" d="M9.82,6.62a1,1,0,0,1-.47-.17c.06-.07.18,0,.24,0s0-.1.1-.1S9.79,6.54,9.82,6.62Z"/><path class="cls-3" d="M10.42,7.12a.31.31,0,0,0-.58,0,.64.64,0,0,1,.28-.51A.7.7,0,0,1,10.42,7.12Z"/><path class="cls-3" d="M13.16,7.12c.08-.05.14,0,.21,0,.11-.16.23-.4.44-.4s.34.23.43.4c.08,0,.13-.1.22,0a1.93,1.93,0,0,0-.22.22h-.86A1.79,1.79,0,0,0,13.16,7.12Z"/><path class="cls-3" d="M11.09,7.38H12.8v.29H11.09Z"/><path class="cls-3" d="M13.58,7.52s-.06-.09-.1-.12.08,0,.11,0S13.61,7.5,13.58,7.52Z"/><path class="cls-3" d="M11.09,7.71c.57,0,1.17,0,1.72,0V8.86h-.1c0-.26,0-.56,0-.8-.28-.11-.22.12-.22.4v.4h-.1v-.8a.43.43,0,0,0-.24,0v.8h-.07v-.8a.37.37,0,0,0-.22,0v.8h-.07c0-.09,0-.8,0-.8h-.24v.8h-.1v-.8a.37.37,0,0,0-.22,0c0,.24,0,.54,0,.8h-.1A9.4,9.4,0,0,1,11.09,7.71Z"/><path class="cls-3" d="M12.51,8.85V8.09h.15v.76Z"/><path class="cls-3" d="M9.22,8.89c-.07.08-.05.24-.19.25C9.08,9,9,8.87,9.22,8.89Z"/><path class="cls-3" d="M11.21,9.11a1.73,1.73,0,0,0-.11-.21s.29,0,.33,0h1.38a1.67,1.67,0,0,1-.11.22C12.24,9.14,11.68,9.14,11.21,9.11Z"/><path class="cls-3" d="M14.92,8.89a.42.42,0,0,0,.24,0h.11a.36.36,0,0,0,.22,0h.07a.36.36,0,0,0,.22,0h.08a.37.37,0,0,0,.22,0h.11a.37.37,0,0,0,.22,0h.08c0,.1-.08.15-.11.24-.48,0-1,0-1.47,0a1.67,1.67,0,0,1-.11-.22Z"/><path class="cls-3" d="M18.6,9.14h-.1c0-.11-.09-.15-.11-.25C18.58,8.86,18.55,9,18.6,9.14Z"/><path class="cls-3" d="M9.64,9.1c0-.08,0-.14,0-.21h.12a1.11,1.11,0,0,1,0,.24S9.64,9.16,9.64,9.1Z"/><path class="cls-3" d="M12.84,8.91h.44v0a.73.73,0,0,1,0,.17,3.73,3.73,0,0,1-.51,0Z"/><path class="cls-3" d="M13.33,8.91s.15,0,.15,0a.85.85,0,0,1,0,.19h-.18A.92.92,0,0,1,13.33,8.91Z"/><path class="cls-3" d="M16.53,8.91H17a1.55,1.55,0,0,1-.06.22,4.39,4.39,0,0,1-.56,0C16.45,9,16.51,9,16.53,8.91Z"/><path class="cls-3" d="M17.07,8.91h.14a1.51,1.51,0,0,1,0,.19s-.11,0-.17,0A1.3,1.3,0,0,1,17.07,8.91Z"/><path class="cls-3" d="M17.84,8.91H18a1.8,1.8,0,0,1,.06.22h-.17C17.88,9,17.84,9,17.84,8.91Z"/><path class="cls-3" d="M18,8.91h.36c0,.07.08.12.1.19v0h-.4A1.32,1.32,0,0,1,18,8.91Z"/><path class="cls-3" d="M17.2,9.11c0-.06,0-.08,0-.12S17.24,9.17,17.2,9.11Z"/><path class="cls-3" d="M8.7,9.17H9.84v.06H8.7Z"/></g></g></svg>