<svg xmlns="http://www.w3.org/2000/svg" viewBox="0 0 26.89 15.94"><defs><style>.cls-1{fill:red;}.cls-2{fill:#fdfefd;}</style></defs><title>flag_124</title><g id="レイヤー_2" data-name="レイヤー 2"><g id="flag"><rect class="cls-1" width="26.89" height="15.9"/><rect class="cls-2" x="6.76" y="0.02" width="13.28" height="15.92"/><path class="cls-1" d="M13.32,11.45l-.06,3h.38V11.33l2.86.31-.22-.85s0-.19.28-.5,2.54-2.14,2.54-2.14l-.5-.28s-.28-.06-.16-.44.47-1.79.47-1.79L17.56,6A.39.39,0,0,1,17,5.8a1.34,1.34,0,0,1-.16-.66L15.58,6.52S15,7,15.11,6.46s.57-3.14.57-3.14L15,3.6s-.34.28-.63-.19-.94-1.7-.94-1.7l-.85,1.7s-.16.57-.6.31-.72-.44-.72-.44l.47,3s.19.57-.35.31a5.48,5.48,0,0,1-1.32-1.48L10,5.8s.09.31-.5.16-1.38-.31-1.38-.31l.44,1.66a.46.46,0,0,1-.25.57L7.88,8l2.54,2.36s.22.12.13.66l-.09.53,2.42-.25S13.22,11.2,13.32,11.45Z"/></g></g></svg>