<svg xmlns="http://www.w3.org/2000/svg" viewBox="0 0 26.89 15.9"><defs><style>.cls-1{fill:#009b3a;}.cls-2{fill:#fedf00;}.cls-3{fill:#002776;}.cls-4{fill:#fff;}.cls-5{fill:#0d8c3e;}</style></defs><title>flag_076X.svg
</title><g id="レイヤー_2" data-name="レイヤー 2"><g id="flag"><rect class="cls-1" width="26.89" height="15.9"/><polygon class="cls-2" points="13.36 1.25 25.97 7.71 13.36 14.22 0.82 7.83 13.36 1.25"/><circle class="cls-3" cx="13.44" cy="7.81" r="4.37"/><polygon class="cls-4" points="9.97 7.07 9.85 7.04 9.75 7.13 9.74 7 9.63 6.94 9.74 6.89 9.77 6.76 9.86 6.86 9.98 6.84 9.92 6.95 9.97 7.07"/><polygon class="cls-4" points="10.31 8.77 10.22 8.77 10.16 8.85 10.14 8.76 10.05 8.73 10.13 8.68 10.12 8.59 10.2 8.64 10.28 8.62 10.25 8.7 10.31 8.77"/><polygon class="cls-4" points="9.76 9.26 9.66 9.24 9.59 9.31 9.58 9.21 9.49 9.16 9.58 9.12 9.59 9.02 9.66 9.1 9.76 9.08 9.71 9.17 9.76 9.26"/><polygon class="cls-4" points="11.79 7.92 11.71 7.89 11.65 7.94 11.65 7.86 11.58 7.81 11.66 7.78 11.68 7.7 11.73 7.77 11.82 7.77 11.77 7.84 11.79 7.92"/><polygon class="cls-4" points="14.81 6.37 14.71 6.31 14.6 6.35 14.63 6.24 14.55 6.15 14.67 6.14 14.73 6.04 14.77 6.15 14.88 6.18 14.79 6.25 14.81 6.37"/><polygon class="cls-4" points="14.74 7.5 14.69 7.48 14.64 7.51 14.64 7.45 14.6 7.42 14.65 7.41 14.67 7.35 14.7 7.4 14.76 7.4 14.73 7.44 14.74 7.5"/><polygon class="cls-4" points="13.56 8.47 13.46 8.45 13.39 8.52 13.37 8.42 13.28 8.37 13.38 8.33 13.39 8.23 13.46 8.3 13.56 8.29 13.51 8.38 13.56 8.47"/><polygon class="cls-4" points="10.7 8.56 10.66 8.56 10.63 8.6 10.62 8.55 10.57 8.54 10.61 8.51 10.61 8.47 10.65 8.49 10.69 8.48 10.68 8.52 10.7 8.56"/><polygon class="cls-4" points="11.25 9.23 11.2 9.23 11.18 9.27 11.16 9.22 11.12 9.21 11.16 9.18 11.16 9.14 11.19 9.16 11.24 9.15 11.22 9.19 11.25 9.23"/><polygon class="cls-4" points="11.13 9.83 11.01 9.83 10.94 9.92 10.91 9.8 10.8 9.76 10.9 9.7 10.91 9.58 10.99 9.66 11.11 9.63 11.06 9.74 11.13 9.83"/><polygon class="cls-4" points="11.74 10.08 11.65 10.1 11.62 10.17 11.58 10.1 11.5 10.1 11.55 10.03 11.53 9.95 11.61 9.99 11.68 9.94 11.67 10.03 11.74 10.08"/><polygon class="cls-4" points="13.04 8.89 12.99 8.83 12.91 8.84 12.95 8.77 12.92 8.69 13 8.71 13.06 8.65 13.06 8.74 13.14 8.78 13.06 8.81 13.04 8.89"/><polygon class="cls-4" points="13.28 9.23 13.2 9.18 13.11 9.23 13.12 9.13 13.05 9.06 13.15 9.05 13.19 8.95 13.24 9.04 13.34 9.05 13.27 9.13 13.28 9.23"/><polygon class="cls-4" points="14.02 8.95 13.93 8.93 13.86 8.98 13.87 8.89 13.79 8.84 13.88 8.82 13.9 8.74 13.95 8.81 14.04 8.8 13.99 8.87 14.02 8.95"/><polygon class="cls-4" points="13.44 9.71 13.55 9.75 13.64 9.68 13.64 9.8 13.73 9.86 13.62 9.9 13.59 10.01 13.52 9.91 13.41 9.91 13.47 9.82 13.44 9.71"/><polygon class="cls-4" points="14.46 10.21 14.39 10.21 14.35 10.27 14.33 10.21 14.26 10.19 14.32 10.15 14.32 10.08 14.37 10.12 14.44 10.1 14.41 10.16 14.46 10.21"/><polygon class="cls-4" points="14.87 10.72 14.77 10.73 14.73 10.82 14.69 10.73 14.59 10.71 14.66 10.65 14.64 10.55 14.73 10.6 14.81 10.56 14.8 10.65 14.87 10.72"/><polygon class="cls-4" points="15.23 10.35 15.15 10.36 15.11 10.43 15.08 10.35 15 10.34 15.06 10.28 15.05 10.2 15.12 10.25 15.2 10.21 15.18 10.29 15.23 10.35"/><polygon class="cls-4" points="15.66 10.17 15.61 10.16 15.57 10.2 15.56 10.15 15.51 10.13 15.56 10.1 15.57 10.05 15.61 10.09 15.66 10.07 15.64 10.12 15.66 10.17"/><polygon class="cls-4" points="15.71 10.72 15.63 10.67 15.55 10.7 15.58 10.62 15.52 10.55 15.61 10.55 15.65 10.47 15.68 10.55 15.77 10.57 15.7 10.63 15.71 10.72"/><polygon class="cls-4" points="15.71 11.08 15.61 11.06 15.54 11.13 15.53 11.03 15.45 10.98 15.54 10.95 15.56 10.85 15.62 10.92 15.72 10.91 15.67 10.99 15.71 11.08"/><polygon class="cls-4" points="16.14 10.31 16.06 10.28 15.99 10.33 15.99 10.24 15.92 10.2 16 10.17 16.03 10.09 16.08 10.16 16.17 10.16 16.11 10.22 16.14 10.31"/><polygon class="cls-4" points="16.46 10.08 16.39 10.08 16.36 10.13 16.34 10.07 16.27 10.05 16.32 10.01 16.32 9.94 16.38 9.98 16.44 9.96 16.42 10.02 16.46 10.08"/><polygon class="cls-4" points="16.74 9.69 16.69 9.66 16.64 9.69 16.65 9.63 16.61 9.6 16.67 9.59 16.69 9.54 16.71 9.59 16.77 9.6 16.73 9.64 16.74 9.69"/><polygon class="cls-4" points="16.48 9.33 16.4 9.27 16.31 9.3 16.34 9.2 16.28 9.12 16.38 9.12 16.44 9.04 16.47 9.14 16.57 9.17 16.48 9.23 16.48 9.33"/><polygon class="cls-4" points="17.17 9.35 17.08 9.34 17.02 9.41 17 9.32 16.92 9.29 17 9.25 17 9.16 17.07 9.22 17.15 9.19 17.12 9.28 17.17 9.35"/><path class="cls-4" d="M9.19,6.68a9.71,9.71,0,0,1,4.65.3,8.8,8.8,0,0,1,3.79,2.14l.16-.73A10.82,10.82,0,0,0,13.52,6.2,12.45,12.45,0,0,0,9.44,6Z"/><path class="cls-5" d="M9.94,6.47a.17.17,0,0,1-.2-.17.18.18,0,0,1,.16-.21.17.17,0,0,1,.19.16.18.18,0,0,1-.15.21Zm0,0c.08,0,.11-.08.11-.16a.13.13,0,1,0-.25,0c0,.08.06.15.14.14Z"/><path class="cls-5" d="M10.28,6.07l.1,0a.18.18,0,0,1,.12,0,.09.09,0,0,1,0,.07.1.1,0,0,1-.07.1h0a.09.09,0,0,1,.06.07l0,.1H10.5a.36.36,0,0,1,0-.09s0-.07-.08-.07h0v.16H10.3Zm.06.16h.05c.05,0,.09,0,.08-.07s0-.07-.09-.06h0Z"/><path class="cls-5" d="M10.73,6h.11a.24.24,0,0,1,.16,0,.17.17,0,0,1,.06.13.19.19,0,0,1-.05.14.24.24,0,0,1-.17.06h-.09Zm.05.33h.05A.15.15,0,0,0,11,6.21c0-.09-.05-.14-.16-.14h-.06Z"/><path class="cls-5" d="M11.45,6.24H11.3v.13h.17v0h-.22V6h.21v0H11.3V6.2h.15Z"/><path class="cls-5" d="M12,6.29s0-.11,0-.16h0l-.06.14-.08.17h0l0-.18a1.24,1.24,0,0,1,0-.15h0s0,.11,0,.16l0,.16h0l.06-.37h.06l.05.18a.94.94,0,0,1,0,.13h0l.05-.12L12,6.08H12v.37h0Z"/><path class="cls-5" d="M12.95,6.42l-.15,0,0,.13.17,0v0l-.22,0,.07-.36.21,0v0l-.16,0,0,.11.15,0Z"/><path class="cls-5" d="M13.69,6.4l.09,0a.17.17,0,0,1,.1.06.1.1,0,0,1,0,.08.11.11,0,0,1,0,.07.18.18,0,0,1-.13,0h0l0,.14h0Zm0,.18,0,0c.06,0,.1,0,.11,0s0-.08-.07-.1h0Z"/><path class="cls-5" d="M14.11,6.52l.1,0a.16.16,0,0,1,.1.06.09.09,0,0,1,0,.08.1.1,0,0,1-.1.07h0a.09.09,0,0,1,0,.09.68.68,0,0,0,0,.11l0,0a.43.43,0,0,1,0-.09c0-.05,0-.08-.05-.09l0,0,0,.15,0,0Zm0,.18,0,0c.05,0,.09,0,.11,0s0-.08-.06-.09h0Z"/><path class="cls-5" d="M14.55,7.07a.18.18,0,0,1-.1-.24.18.18,0,0,1,.24-.11.17.17,0,0,1,.1.24.18.18,0,0,1-.24.12Zm0,0a.15.15,0,0,0,.11-.28.14.14,0,0,0-.17.1.13.13,0,0,0,.06.18Z"/><path class="cls-5" d="M15.17,7.3l-.12,0a.21.21,0,0,1-.11-.1.2.2,0,0,1,.28-.24L15.3,7l0,0L15.2,7A.14.14,0,0,0,15,7a.14.14,0,0,0,.08.2l.06,0,0-.1-.07,0v0l.12.05Z"/><path class="cls-5" d="M15.51,7.08l.09,0a.16.16,0,0,1,.09.08.1.1,0,0,1,0,.08.1.1,0,0,1-.11,0h0a.09.09,0,0,1,0,.09.6.6,0,0,0,0,.1l0,0a.36.36,0,0,1,0-.09.08.08,0,0,0,0-.1l0,0-.07.14,0,0Zm0,.17,0,0a.08.08,0,0,0,.11,0s0-.08,0-.1l0,0Z"/><path class="cls-5" d="M16,7.55l-.13-.07-.06.12.15.08,0,0-.19-.11.18-.32.18.1,0,0-.14-.08-.06.1.13.07Z"/><path class="cls-5" d="M16.11,7.75a.2.2,0,0,0,.07.07s.08,0,.1,0,0-.06,0-.1-.06-.1,0-.14a.11.11,0,0,1,.16,0,.18.18,0,0,1,.06.06l0,0a.17.17,0,0,0-.05-.05s-.08,0-.09,0,0,.06,0,.1.06.1,0,.14-.09.07-.17,0a.19.19,0,0,1-.07-.07Z"/><path class="cls-5" d="M16.46,8a.19.19,0,0,0,.06.07s.08,0,.1,0,0-.06,0-.1-.06-.1,0-.14a.11.11,0,0,1,.16,0,.18.18,0,0,1,.06.06l0,0a.17.17,0,0,0-.05-.06s-.08,0-.09,0,0,.06,0,.1.05.1,0,.14-.09.07-.17,0A.21.21,0,0,1,16.43,8Z"/><path class="cls-5" d="M16.89,8.33a.17.17,0,0,1,0-.25A.18.18,0,0,1,17.12,8a.17.17,0,0,1,0,.25.18.18,0,0,1-.26.05Zm0,0a.16.16,0,0,0,.18-.25.14.14,0,0,0-.19.05.14.14,0,0,0,0,.2Z"/></g></g></svg>