<svg xmlns="http://www.w3.org/2000/svg" xmlns:xlink="http://www.w3.org/1999/xlink" viewBox="0 0 27.14 16.29"><defs><style>.cls-1{fill:none;}.cls-2{fill:#0067c6;}.cls-3{fill:#fff;}.cls-4{fill:#c8a400;}.cls-5{clip-path:url(#clip-path);}.cls-6{fill:#17c0eb;stroke:#17c0eb;stroke-width:0.13px;opacity:0.62;isolation:isolate;}.cls-7{fill:red;}.cls-8{fill:#f60;}.cls-9{fill:#ff0;}.cls-10{fill:lime;}.cls-11{fill:#0cf;}.cls-12{fill:blue;}.cls-13{fill:purple;}.cls-14{fill:#510000;}.cls-15{fill:url(#名称未設定グラデーション_4);}.cls-16{fill:#ff2a2a;}.cls-17{fill:url(#名称未設定グラデーション_2);}.cls-18{fill:#910000;}.cls-19{fill:#ff3a3a;}.cls-20{fill:url(#名称未設定グラデーション_27);}.cls-21{fill:url(#名称未設定グラデーション_27-2);}.cls-22{fill:url(#名称未設定グラデーション_27-3);}.cls-23{fill:url(#名称未設定グラデーション_27-4);}.cls-24{fill:url(#名称未設定グラデーション_27-5);}.cls-25{fill:url(#名称未設定グラデーション_27-6);}.cls-26{fill:url(#名称未設定グラデーション_27-7);}.cls-27{fill:url(#名称未設定グラデーション_27-8);}.cls-28{fill:url(#名称未設定グラデーション_27-9);}.cls-29{fill:url(#名称未設定グラデーション_27-10);}.cls-30{fill:url(#名称未設定グラデーション_17);}.cls-31{fill:#97c924;}.cls-32{fill:#ede71f;}.cls-33{fill:#c6cb24;}.cls-34{fill:#9ecb34;}.cls-35{fill:url(#名称未設定グラデーション_17-2);}.cls-36{fill:url(#名称未設定グラデーション_17-3);}.cls-37{fill:url(#名称未設定グラデーション_17-4);}.cls-38{fill:#93bc30;}.cls-39{fill:#ccd11e;}.cls-40{fill:url(#名称未設定グラデーション_17-5);}.cls-41{fill:url(#名称未設定グラデーション_27-11);}.cls-42{fill:url(#名称未設定グラデーション_27-12);}.cls-43{fill:url(#名称未設定グラデーション_27-13);}.cls-44{fill:url(#名称未設定グラデーション_27-14);}.cls-45{fill:url(#名称未設定グラデーション_27-15);}.cls-46{fill:url(#名称未設定グラデーション_27-16);}.cls-47{fill:url(#名称未設定グラデーション_27-17);}.cls-48{fill:url(#名称未設定グラデーション_27-18);}.cls-49{fill:url(#名称未設定グラデーション_27-19);}.cls-50{fill:url(#名称未設定グラデーション_27-20);}</style><clipPath id="clip-path"><polygon class="cls-1" points="13.57 6.14 11.84 9.14 15.3 9.14 13.57 6.14"/></clipPath><linearGradient id="名称未設定グラデーション_4" x1="-615.84" y1="3394.27" x2="-615.79" y2="3394.42" gradientTransform="matrix(1, 0, 0, -1, 629.4, 3402.12)" gradientUnits="userSpaceOnUse"><stop offset="0" stop-color="#510000"/><stop offset="0.3" stop-color="#8a0000"/><stop offset="1" stop-color="#a00"/></linearGradient><linearGradient id="名称未設定グラデーション_2" x1="-615.85" y1="3394.23" x2="-615.81" y2="3394.34" gradientTransform="matrix(1, 0, 0, -1, 629.4, 3402.12)" gradientUnits="userSpaceOnUse"><stop offset="0" stop-color="#ff2a2a"/><stop offset="1" stop-color="red"/></linearGradient><linearGradient id="名称未設定グラデーション_27" x1="-617.33" y1="3393.38" x2="-612.18" y2="3393.38" gradientTransform="matrix(1, 0, 0, -1, 629.4, 3402.12)" gradientUnits="userSpaceOnUse"><stop offset="0" stop-color="#025"/><stop offset="0.5" stop-color="#04a"/><stop offset="1" stop-color="#025"/></linearGradient><linearGradient id="名称未設定グラデーション_27-2" x1="-617.33" y1="3392.3" x2="-612.18" y2="3392.3" gradientTransform="matrix(1, 0, 0, -1, 629.4, 3401.01)" xlink:href="#名称未設定グラデーション_27"/><linearGradient id="名称未設定グラデーション_27-3" x1="-617.33" y1="3391.21" x2="-612.18" y2="3391.21" gradientTransform="matrix(1, 0, 0, -1, 629.4, 3399.89)" xlink:href="#名称未設定グラデーション_27"/><linearGradient id="名称未設定グラデーション_27-4" x1="-617.33" y1="3390.13" x2="-612.18" y2="3390.13" gradientTransform="matrix(1, 0, 0, -1, 629.4, 3398.78)" xlink:href="#名称未設定グラデーション_27"/><linearGradient id="名称未設定グラデーション_27-5" x1="-617.33" y1="3389.04" x2="-612.18" y2="3389.04" gradientTransform="matrix(1, 0, 0, -1, 629.4, 3397.66)" xlink:href="#名称未設定グラデーション_27"/><linearGradient id="名称未設定グラデーション_27-6" x1="-617.33" y1="3387.96" x2="-612.18" y2="3387.96" gradientTransform="matrix(1, 0, 0, -1, 629.4, 3396.55)" xlink:href="#名称未設定グラデーション_27"/><linearGradient id="名称未設定グラデーション_27-7" x1="-617.33" y1="3386.87" x2="-612.18" y2="3386.87" gradientTransform="matrix(1, 0, 0, -1, 629.4, 3395.43)" xlink:href="#名称未設定グラデーション_27"/><linearGradient id="名称未設定グラデーション_27-8" x1="-617.33" y1="3385.79" x2="-612.18" y2="3385.79" gradientTransform="matrix(1, 0, 0, -1, 629.4, 3394.32)" xlink:href="#名称未設定グラデーション_27"/><linearGradient id="名称未設定グラデーション_27-9" x1="-617.33" y1="3384.7" x2="-612.18" y2="3384.7" gradientTransform="matrix(1, 0, 0, -1, 629.4, 3393.2)" xlink:href="#名称未設定グラデーション_27"/><linearGradient id="名称未設定グラデーション_27-10" x1="-617.33" y1="3393.7" x2="-612.18" y2="3393.7" xlink:href="#名称未設定グラデーション_27"/><linearGradient id="名称未設定グラデーション_17" x1="-615.06" y1="3393.66" x2="-615.06" y2="3393.5" gradientTransform="matrix(1, 0, 0, -1, 629.4, 3402.12)" gradientUnits="userSpaceOnUse"><stop offset="0" stop-color="#f5f549"/><stop offset="1" stop-color="#97c924"/></linearGradient><linearGradient id="名称未設定グラデーション_17-2" x1="-600.13" y1="3393.66" x2="-600.13" y2="3393.5" gradientTransform="matrix(1, 0, 0, -1, 614.06, 3402.12)" xlink:href="#名称未設定グラデーション_17"/><linearGradient id="名称未設定グラデーション_17-3" x1="-615.83" y1="3393.66" x2="-615.83" y2="3393.5" xlink:href="#名称未設定グラデーション_17"/><linearGradient id="名称未設定グラデーション_17-4" x1="-616.35" y1="3393.66" x2="-616.35" y2="3393.5" xlink:href="#名称未設定グラデーション_17"/><linearGradient id="名称未設定グラデーション_17-5" x1="-601.34" y1="3393.66" x2="-601.34" y2="3393.5" gradientTransform="matrix(1, 0, 0, -1, 613.97, 3402.12)" xlink:href="#名称未設定グラデーション_17"/><linearGradient id="名称未設定グラデーション_27-11" x1="-1014.41" y1="1783.02" x2="-1014.39" y2="1783.02" gradientTransform="matrix(116.2, 0, 0, -5.85, 117883.78, 10437.84)" xlink:href="#名称未設定グラデーション_27"/><linearGradient id="名称未設定グラデーション_27-12" x1="-1014.35" y1="2924.05" x2="-1014.32" y2="2924.05" gradientTransform="matrix(126.73, 0, 0, -1.52, 128556.41, 4459.43)" xlink:href="#名称未設定グラデーション_27"/><linearGradient id="名称未設定グラデーション_27-13" x1="-1014.35" y1="2923.23" x2="-1014.32" y2="2923.23" gradientTransform="matrix(126.73, 0, 0, -1.52, 128556.41, 4458.15)" xlink:href="#名称未設定グラデーション_27"/><linearGradient id="名称未設定グラデーション_27-14" x1="-1014.35" y1="2922.41" x2="-1014.32" y2="2922.41" gradientTransform="matrix(126.73, 0, 0, -1.52, 128556.41, 4456.86)" xlink:href="#名称未設定グラデーション_27"/><linearGradient id="名称未設定グラデーション_27-15" x1="-1014.35" y1="2921.58" x2="-1014.32" y2="2921.58" gradientTransform="matrix(126.73, 0, 0, -1.52, 128556.41, 4455.57)" xlink:href="#名称未設定グラデーション_27"/><linearGradient id="名称未設定グラデーション_27-16" x1="-1014.35" y1="2920.76" x2="-1014.32" y2="2920.76" gradientTransform="matrix(126.73, 0, 0, -1.52, 128556.41, 4454.28)" xlink:href="#名称未設定グラデーション_27"/><linearGradient id="名称未設定グラデーション_27-17" x1="-1014.35" y1="2919.93" x2="-1014.32" y2="2919.93" gradientTransform="matrix(126.73, 0, 0, -1.52, 128556.41, 4452.99)" xlink:href="#名称未設定グラデーション_27"/><linearGradient id="名称未設定グラデーション_27-18" x1="-1014.35" y1="2919.11" x2="-1014.32" y2="2919.11" gradientTransform="matrix(126.73, 0, 0, -1.52, 128556.41, 4451.71)" xlink:href="#名称未設定グラデーション_27"/><linearGradient id="名称未設定グラデーション_27-19" x1="-1014.35" y1="2918.29" x2="-1014.32" y2="2918.29" gradientTransform="matrix(126.73, 0, 0, -1.52, 128556.41, 4450.42)" xlink:href="#名称未設定グラデーション_27"/><linearGradient id="名称未設定グラデーション_27-20" x1="-1014.35" y1="2917.47" x2="-1014.32" y2="2917.47" gradientTransform="matrix(126.73, 0, 0, -1.52, 128556.41, 4449.13)" xlink:href="#名称未設定グラデーション_27"/></defs><title>flag_558</title><g id="レイヤー_2" data-name="レイヤー 2"><g id="flag"><path class="cls-2" d="M0,0H27.14V16.29H0Z"/><path class="cls-3" d="M0,5.43H27.14v5.43H0Z"/><path class="cls-4" d="M11.13,8.12l.27,0v0h-.1V8l.12-.09v0l-.12.09a.08.08,0,0,0-.05-.07.06.06,0,0,0-.07,0,.11.11,0,0,0,0,.09c0,.06,0,.12,0,.17Zm0,0c0-.05,0-.09,0-.14a.09.09,0,0,1,0-.06s0,0,0,0a.4.4,0,0,1,0,.11v.07Zm0-.38.27.06.06-.26h0l0,.22-.08,0,0-.19h0l-.05.2-.07,0,0-.21h0l-.06.25Zm.1-.36.26.09v0l-.1,0s0-.08,0-.12a.09.09,0,0,0,0-.09.07.07,0,0,0-.07,0,.07.07,0,0,0-.06,0,1.17,1.17,0,0,0-.05.11l0,.07Zm.05,0a.56.56,0,0,1,0-.12.1.1,0,0,1,0,0s0,0,0,0,0,.07,0,.11l0,.06ZM11.4,7l.15.08a.13.13,0,0,0,.09,0,.35.35,0,0,0,.08-.1s0-.08,0-.11a.31.31,0,0,0-.09-.07l-.1-.06,0,0,.14.08a.08.08,0,0,1,0,.06.79.79,0,0,1,0,.09s-.05,0-.07,0-.05,0-.08,0L11.42,7l0,0Zm.2-.32.21.16a1.13,1.13,0,0,0,.1-.13.12.12,0,0,0,0-.1s0,0-.07,0l0,0s0-.06,0-.07a.09.09,0,0,0-.09,0l-.07.09,0,0Zm.05,0,.08-.1s0,0,0,0a0,0,0,0,1,0,0,.18.18,0,0,1,0,.07l0,0-.06,0Zm.09.07a.76.76,0,0,1,.08-.11s0,0,0,0,0,0,0,0,0,.06-.06.09l0,.05-.07-.05Zm.1-.35.19.2.16-.16,0,0L12,6.56h0l-.16-.17Zm.24-.21.17.21,0,0-.17-.22ZM12.32,6l-.06.06a.13.13,0,0,0,0,.07.24.24,0,0,0,0,.08l.05,0h.08a.16.16,0,0,0,.09,0,.17.17,0,0,0,.06-.06.08.08,0,0,0,0-.08h0c0,.06,0,.08-.07.11s-.12,0-.15,0,0-.11.05-.14a.09.09,0,0,1,.11,0l0,0-.07,0-.09,0Zm.32-.16,0,.31,0,0V6.08h0L12.8,6l.07.06h.05l-.23-.2Zm0,0,.09.07-.1,0V5.92Zm.56-.2,0,.27h.14a.22.22,0,0,0,.11-.05.14.14,0,0,0,0-.14.12.12,0,0,0-.09-.08h-.2Zm0,0h.12a.07.07,0,0,1,.06,0s0,.05,0,.08a.08.08,0,0,1-.07.08h-.14v-.2Zm.34,0,0,.27.26,0V6l-.23,0V5.85h.2v0l-.2,0V5.74h.22v0Zm.71.11-.1.26h0l.08-.2h0l.09.27.05,0,.1-.26h0l-.08.2h0l-.09-.27Zm.36.16-.12.24,0,0L14.65,6Zm.2.12a.11.11,0,0,0-.08,0h-.07l-.06.05a.14.14,0,0,0,0,.07.1.1,0,0,0,0,.07l.06.07.1,0,.07,0,0,0s-.08,0-.12,0-.08-.09,0-.15.1,0,.15,0,.07,0,.06.09l0,0a.15.15,0,0,0,0-.07.16.16,0,0,0-.07-.07Zm.26.19-.28.12,0,0,.09,0h0l.11.1,0,.09,0,0,.07-.3,0,0Zm0,0,0,.12L15,6.38l.11,0Zm.22.14-.21.18,0,0,.09-.07.08.1,0,.14,0,0,0-.15a.08.08,0,0,0,.09,0,.1.1,0,0,0,0-.06s0-.06,0-.09Zm0,.06.09.11s0,0,0,.07H15.4a.73.73,0,0,1-.08-.09l0,0,.06,0Zm.33.38h-.31l0,0h.1l.07.13-.05.08,0,0,.17-.26,0,0Zm0,0-.06.1L15.53,7Zm.2.31a.19.19,0,0,0-.09-.11.12.12,0,0,0-.15,0,.16.16,0,0,0,0,.13.26.26,0,0,0,.07.14h0l0,0,.12,0,0-.13h0l0,.1h0a.21.21,0,0,1-.07-.13.09.09,0,0,1,0-.1.08.08,0,0,1,.12,0,.19.19,0,0,1,.07.12.08.08,0,0,1,0,.08s0,0,0,0v0a.12.12,0,0,0,0-.08.29.29,0,0,0,0-.09Zm.08.22-.15,0-.07,0a.08.08,0,0,0,0,0,.11.11,0,0,0,0,.08h0a.09.09,0,0,0,0,.07l0,0h.07l.15,0v0l-.14,0c-.07,0-.09,0-.1-.08h0c0-.06,0-.1.07-.12l.15,0v0Zm.08.46-.28-.12v0l.09,0h0v.15l-.08,0v0L16,8v0Zm0,0-.1.07V7.92L16,8Zm-4.63.68h0l0,.17h0Zm4.46,0h0l0,.17h0Zm-4,.7-.3,0,0,0h.09l.09.12-.05.08,0,0,.14-.27Zm0,0-.06.1-.06-.09Zm.14.12-.2.18,0,0,.16-.15-.09.23,0,0,.24-.08-.16.15,0,0,.2-.18,0,0-.24.07.09-.23Zm.28.29L12,10l.21.16,0,0L12.05,10l0-.07.16.13,0,0-.16-.13,0-.06.18.14,0,0-.2-.15Zm.26.19-.13.24,0,0,.05-.09.12.06a.68.68,0,0,0,0,.14l.05,0,0-.14a.11.11,0,0,0,.08,0,.08.08,0,0,0,0-.08.16.16,0,0,0-.07-.07L12.42,10Zm0,.06.12.06s0,0,0,.06,0,0,0,0l-.11,0,0,0,0-.07Zm.29.1-.1.26h0l.11-.25Zm.24.09h-.08l-.08,0a.21.21,0,0,0,0,.06.11.11,0,0,0,0,.08.09.09,0,0,0,0,.06l.09.05H13a.12.12,0,0,0,.07-.05l0,0a.08.08,0,0,1-.12,0c-.07,0-.11-.07-.09-.13s.09-.07.15-.06.08,0,.08.08h0a.09.09,0,0,0,0-.06.16.16,0,0,0-.08,0Zm.28.06-.18.25h0l.06-.08h0l.15,0,0,.09h0l-.1-.29Zm0,.05,0,.11-.11,0,.07-.09Zm.62-.05-.08,0-.05.06a.19.19,0,0,0,0,.08l0,.06a.09.09,0,0,0,.06,0h.09a.19.19,0,0,0,.09,0,.1.1,0,0,0,0-.07h0a.09.09,0,0,1-.1.07.1.1,0,0,1-.14-.07c0-.07.05-.11.11-.12a.11.11,0,0,1,.11,0h0a.1.1,0,0,0-.06-.05Zm.18,0,.08.26.25-.07v0l-.21.06,0-.08.2-.05v0l-.2.06,0-.07.21-.07v0Zm.3-.09.11.24h0l-.1-.21.26.12h.06l-.12-.25,0,0,.09.2-.27-.12,0,0Zm.3-.14,0,0,.09-.06h0l.13.19,0,0L14.81,10h0l.1-.06,0,0Zm.27-.19.18.2,0,0-.07-.07.1-.09h.13l0,0-.15,0a.07.07,0,0,0,0-.09.07.07,0,0,0-.06,0,.13.13,0,0,0-.09.05l-.12.11Zm.05,0,.11-.09a.06.06,0,0,1,.07,0s0,0,0,.06a.6.6,0,0,1-.08.08l0,0Zm.26-.31.13.28,0,0,0-.09h0l.09-.11.09,0,0,0-.3-.06,0,0Zm0,0,.12,0-.07.08-.05-.11Zm.07-.16.23.15.12-.19,0,0-.1.15h0l-.2-.12Z"/><g class="cls-5"><path class="cls-3" d="M13.57,6.15l-.85,1.48-.42.72h2.54l-.39-.69-.88-1.51Z"/><g id="d"><g id="c"><path class="cls-6" d="M13.57,6.15l-.06.11.06,1.49.07-1.49Z"/><path class="cls-3" d="M13.57,7.53h0v0Z"/></g><path class="cls-6" d="M15.1,7.25l-.13,0-1.4.52L15,7.35Z"/><path class="cls-3" d="M13.78,7.68h0l-.08,0,.08,0Z"/><path class="cls-6" d="M14.51,9.05V8.92l-.93-1.17L14.4,9Z"/><path class="cls-3" d="M13.7,7.92h0l0-.06,0,.07Z"/><path class="cls-6" d="M12.63,9.05,12.75,9l.82-1.24-.93,1.17Z"/><path class="cls-3" d="M13.44,7.92h0l0-.07-.05.06Z"/><path class="cls-6" d="M12.05,7.25l.08.1,1.44.4-1.4-.52Z"/><path class="cls-3" d="M13.37,7.68h0l.09,0-.08,0Z"/></g><path class="cls-6" d="M13.79,6.16l-.07.1-.15,1.49.27-1.47Z"/><path class="cls-3" d="M13.6,7.53h0v.09l0-.09Z"/><path class="cls-6" d="M15.15,7.47l-.12,0-1.46.32,1.48-.2Z"/><path class="cls-3" d="M13.79,7.71h0l-.08,0,.09,0Z"/><path class="cls-6" d="M14.32,9.16V9l-.76-1.29.65,1.35Z"/><path class="cls-3" d="M13.67,7.94h0l0-.07,0,.07Z"/><path class="cls-6" d="M12.46,8.9l.12,0,1-1.12-1.08,1Z"/><path class="cls-3" d="M13.42,7.9h0l.06-.07-.06.06Z"/><path class="cls-6" d="M12.13,7.05l.07.1,1.37.6L12.26,7Z"/><path class="cls-3" d="M13.38,7.65h0l.07,0-.07,0Z"/><path class="cls-6" d="M14,6.21l-.09.09-.35,1.45L14,6.33Z"/><path class="cls-3" d="M13.63,7.54h0l0,.08,0-.08Z"/><path class="cls-6" d="M15.17,7.69l-.11-.06-1.49.12h1.5Z"/><path class="cls-3" d="M13.79,7.74Z"/><path class="cls-6" d="M14.12,9.25l0-.12-.57-1.38L14,9.17Z"/><path class="cls-3" d="M13.65,8h0l0-.08,0,.08Z"/><path class="cls-6" d="M12.31,8.74l.13,0,1.13-1-1.21.87Z"/><path class="cls-3" d="M13.4,7.88h0l.07,0-.07,0Z"/><path class="cls-6" d="M12.24,6.85,12.3,7l1.27.78-1.2-.89Z"/><path class="cls-3" d="M13.39,7.63h0l.07,0-.07,0Z"/><path class="cls-6" d="M14.22,6.28l-.1.08-.55,1.39.67-1.34Z"/><path class="cls-3" d="M13.66,7.55h0l0,.08,0-.08Z"/><path class="cls-6" d="M15.17,7.92l-.11-.08-1.49-.09L15.05,8Z"/><path class="cls-3" d="M13.79,7.77Z"/><path class="cls-6" d="M13.9,9.32l0-.13-.37-1.44.25,1.47Z"/><path class="cls-3" d="M13.62,8h0l0-.08V8Z"/><path class="cls-6" d="M12.18,8.55h.13l1.26-.8-1.32.69Z"/><path class="cls-3" d="M13.38,7.86h0l.07-.05-.08,0Z"/><path class="cls-6" d="M12.38,6.68l0,.12,1.15,1-1.06-1Z"/><path class="cls-3" d="M13.41,7.6h0l.06,0-.06-.06Z"/><path class="cls-6" d="M14.42,6.39l-.11.06-.74,1.3.85-1.23Z"/><path class="cls-3" d="M13.69,7.56h0l0,.08,0-.07Z"/><path class="cls-6" d="M15.13,8.14,15,8.05l-1.46-.3L15,8.17Z"/><path class="cls-3" d="M13.78,7.8h0l-.08,0,.08,0Z"/><path class="cls-6" d="M13.68,9.35l.06-.12-.17-1.48,0,1.49Z"/><path class="cls-3" d="M13.59,8h0V8Z"/><path class="cls-6" d="M12.09,8.35l.12,0,1.36-.62-1.41.5Z"/><path class="cls-3" d="M13.37,7.83h0l.08,0-.08,0Z"/><path class="cls-6" d="M12.54,6.52l0,.13,1,1.1-.91-1.19Z"/><path class="cls-3" d="M13.43,7.58h0l.06.07-.06-.07Z"/><path class="cls-6" d="M14.6,6.52l-.12,0-.91,1.19,1-1.1Z"/><path class="cls-3" d="M13.71,7.58h0l-.05.07.05-.07Z"/><path class="cls-6" d="M15.06,8.35,15,8.25l-1.41-.5,1.36.62Z"/><path class="cls-3" d="M13.77,7.83h0l-.08,0,.08,0Z"/><path class="cls-6" d="M13.46,9.35l.07-.11,0-1.49L13.4,9.23Z"/><path class="cls-3" d="M13.56,8h0V8Z"/><path class="cls-6" d="M12,8.14l.12,0,1.43-.42-1.46.3Z"/><path class="cls-3" d="M13.36,7.8h0l.08,0-.08,0Z"/><path class="cls-6" d="M12.72,6.39v.13l.84,1.23-.73-1.3Z"/><path class="cls-3" d="M13.46,7.56h0l.05.07,0-.08Z"/><path class="cls-6" d="M14.76,6.68l-.12,0-1.07,1,1.15-1Z"/><path class="cls-3" d="M13.73,7.6h0l-.06.06.07,0Z"/><path class="cls-6" d="M15,8.55l-.06-.11-1.33-.69,1.26.8Z"/><path class="cls-3" d="M13.76,7.86h0l-.07,0,.07.05Z"/><path class="cls-6" d="M13.24,9.32l.08-.1.25-1.47L13.2,9.19Z"/><path class="cls-3" d="M13.53,8h0V7.88l0,.08Z"/><path class="cls-6" d="M12,7.92l.11,0,1.48-.22-1.49.09Z"/><path class="cls-3" d="M13.36,7.77Z"/><path class="cls-6" d="M12.92,6.28v.13l.66,1.34L13,6.36Z"/><path class="cls-3" d="M13.48,7.55h0l0,.08,0-.08Z"/><path class="cls-6" d="M14.9,6.85h-.13l-1.2.89L14.84,7Z"/><path class="cls-3" d="M13.75,7.63h0l-.07,0,.07,0Z"/><path class="cls-6" d="M14.83,8.74l0-.12-1.22-.87,1.14,1Z"/><path class="cls-3" d="M13.74,7.88h0l-.06,0,.06,0Z"/><path class="cls-6" d="M13,9.25l.1-.08.45-1.42L13,9.13Z"/><path class="cls-3" d="M13.5,8h0l0-.08,0,.08Z"/><path class="cls-6" d="M12,7.69l.11.07h1.49l-1.49-.12Z"/><path class="cls-3" d="M13.35,7.74Z"/><path class="cls-6" d="M13.13,6.21l0,.12.47,1.42L13.22,6.3Z"/><path class="cls-3" d="M13.51,7.54h0l0,.08,0-.08Z"/><path class="cls-6" d="M15,7.05h-.13l-1.31.71,1.37-.6Z"/><path class="cls-3" d="M13.77,7.65h0l-.07,0,.08,0Z"/><path class="cls-6" d="M14.69,8.9l0-.12-1.08-1,1,1.12Z"/><path class="cls-3" d="M13.72,7.9h0l-.06-.06.06.07Z"/><path class="cls-6" d="M12.82,9.16l.11-.06.64-1.35L12.81,9Z"/><path class="cls-3" d="M13.47,7.94h0l0-.07,0,.07Z"/><path class="cls-6" d="M12,7.47l.1.08,1.48.2-1.46-.32Z"/><path class="cls-3" d="M13.36,7.71h0l.08,0-.08,0Z"/><path class="cls-6" d="M13.35,6.16l0,.12.27,1.47-.14-1.49Z"/><path class="cls-3" d="M13.54,7.53h0v0Z"/><path class="cls-7" d="M13.57,7.22a1.16,1.16,0,0,0-.78.29l-.4.69a.82.82,0,0,0,0,.22h.13a1.07,1.07,0,0,1,2.14,0h.14a1.5,1.5,0,0,0,0-.22l-.4-.69A1.2,1.2,0,0,0,13.57,7.22Z"/><path class="cls-8" d="M13.57,7.24a1.15,1.15,0,0,0-.82.33l-.33.57a1.33,1.33,0,0,0,0,.28h.11a1.07,1.07,0,0,1,2.14,0h.11a1.27,1.27,0,0,0,0-.28l-.33-.57a1.15,1.15,0,0,0-.82-.33Z"/><path class="cls-9" d="M13.57,7.26a1.18,1.18,0,0,0-.87.39l-.23.41a1.13,1.13,0,0,0-.06.36h.09a1.07,1.07,0,0,1,2.14,0h.09a1.36,1.36,0,0,0-.05-.36l-.24-.41a1.15,1.15,0,0,0-.87-.39Z"/><path class="cls-10" d="M13.57,7.28a1.15,1.15,0,0,0-1,.51l-.07.13a1.11,1.11,0,0,0-.12.5h.07a1.07,1.07,0,0,1,2.14,0h.07a1.25,1.25,0,0,0-.11-.5l-.08-.13a1.14,1.14,0,0,0-.95-.51Z"/><path class="cls-11" d="M13.57,7.3a1.12,1.12,0,0,0-1.12,1.12h.05a1.07,1.07,0,0,1,2.14,0h0A1.12,1.12,0,0,0,13.57,7.3Z"/><path class="cls-12" d="M13.57,7.32a1.1,1.1,0,0,0-1.09,1.1h0a1.06,1.06,0,0,1,2.12,0h0A1.1,1.1,0,0,0,13.57,7.32Z"/><path class="cls-13" d="M13.57,7.35A1.07,1.07,0,0,0,12.5,8.42v0h0v0a1,1,0,1,1,2.1,0v0h0v0A1.07,1.07,0,0,0,13.57,7.35Z"/><path class="cls-14" d="M13.58,7.82l-.05,0a.07.07,0,0,0,0,.06l0,0a.11.11,0,0,1,0,.06s0,0,0,0,0,0,0,0,0,0,0,0,0-.07,0-.09Z"/><path class="cls-7" d="M13.49,7.7s0,0-.05,0,0,0,0,0,0,0,.06-.06.11,0,.14,0a.28.28,0,0,1,.06.14s0,0,0,0-.12,0-.17,0,0,0-.06,0a0,0,0,0,1,0,0,.18.18,0,0,0,0-.09s0,0,0,0Z"/><path class="cls-15" d="M13.49,7.67s0,0,0,0a0,0,0,0,0,0,0h0l0,0,0,0a.13.13,0,0,0,0,0,.07.07,0,0,0,0,0c.06,0,.07.07.12.07s0,0,.07,0,.05,0,0,0a.26.26,0,0,0-.15,0,.39.39,0,0,1,0-.12s0,0,0-.09,0,0,0,0Z"/><path class="cls-16" d="M13.6,7.59v.07a0,0,0,0,0,0,0s0,0,0,0V7.64h0l0,0h0Z"/><path class="cls-17" d="M13.61,7.8l-.06,0s-.07,0-.09,0,0,0,0,0,0,0,0,0,.07,0,.09,0l0,0v.06s0,.05,0,.06,0,0,0,0l0,0a.05.05,0,0,1,0,0s0,0,0,0,0,0,0,0h0l-.07,0Z"/><path class="cls-18" d="M13.53,7.84s-.07,0-.09,0h0v0s0,0,0,0,.07,0,.09,0v.06Z"/><path class="cls-19" d="M13.62,7.91s0,0,.07,0,0,0,0,0,0,0-.06,0,0,.1-.06.11,0,0,0-.06Z"/><path class="cls-3" d="M12.3,8.35,12,8.82h3.08l-.27-.47Z"/><g id="i"><path id="h" class="cls-20" d="M12.21,8.72h-.13v0l.19,0,.26,0h.13l.26,0,.27,0h.12l.27,0,.26,0H14l.26,0,.27,0h.12l.26,0,.21,0,0,0h-.24a2.3,2.3,0,0,0-.26,0,2.23,2.23,0,0,0-.27,0h-.12a2.23,2.23,0,0,0-.27,0,2.3,2.3,0,0,0-.26,0h-.13a2.3,2.3,0,0,0-.26,0,2.23,2.23,0,0,0-.27,0h-.12a2.06,2.06,0,0,0-.26,0l-.27,0Z"/><path class="cls-21" d="M12.21,8.69h-.13v0l.19,0,.26,0h.13l.26,0,.27,0h.12l.27,0,.26,0H14l.26,0,.27,0h.12l.26,0,.21,0,0,0h-.24a2.3,2.3,0,0,0-.26,0,2.23,2.23,0,0,0-.27,0h-.12a2.23,2.23,0,0,0-.27,0,2.3,2.3,0,0,0-.26,0h-.13a2.3,2.3,0,0,0-.26,0,2.23,2.23,0,0,0-.27,0h-.12a2.06,2.06,0,0,0-.26,0l-.27,0Z"/><path class="cls-22" d="M12.21,8.66h-.13v0h.19l.26,0h.13l.26,0,.27,0h.12l.27,0,.26,0H14l.26,0,.27,0h.12l.26,0,.21,0,0,0h-.24l-.26,0-.27,0h-.12l-.27,0-.26,0h-.13l-.26,0-.27,0h-.12l-.26,0-.27,0Z"/></g><path class="cls-23" d="M12.21,8.63h-.13v0h.19l.26,0h.13l.26,0,.27,0h.12l.27,0,.26,0H14l.26,0,.27,0h.12l.26,0h.21l0,0h-.24l-.26,0-.27,0h-.12l-.27,0-.26,0h-.13l-.26,0-.27,0h-.12l-.26,0-.27,0Z"/><path class="cls-24" d="M12.21,8.6h-.13v0h.19l.26,0h.13l.26,0,.27,0h.12l.27,0,.26,0H14l.26,0,.27,0h.12l.26,0h.21l0,0h-.24l-.26,0-.27,0h-.12l-.27,0-.26,0h-.13l-.26,0L13,8.6h-.12l-.26,0-.27,0Z"/><path class="cls-25" d="M12.21,8.57h-.13v0l.19,0a2.3,2.3,0,0,0,.26,0h.13a2.3,2.3,0,0,0,.26,0,2.23,2.23,0,0,0,.27,0h.12a2.23,2.23,0,0,0,.27,0,2.3,2.3,0,0,0,.26,0H14a2.3,2.3,0,0,0,.26,0,2.23,2.23,0,0,0,.27,0h.12a2.06,2.06,0,0,0,.26,0l.21,0,0,0h-.24l-.26,0-.27,0h-.12l-.27,0-.26,0h-.13l-.26,0-.27,0h-.12l-.26,0-.27,0Z"/><path class="cls-26" d="M12.21,8.54h-.13v0l.19,0a2.3,2.3,0,0,0,.26,0h.13a2.3,2.3,0,0,0,.26,0,2.23,2.23,0,0,0,.27,0h.12a2.23,2.23,0,0,0,.27,0,2.3,2.3,0,0,0,.26,0H14a2.3,2.3,0,0,0,.26,0,2.23,2.23,0,0,0,.27,0h.12a2.06,2.06,0,0,0,.26,0l.21,0,0,0h-.24l-.26,0-.27,0h-.12l-.27,0-.26,0h-.13l-.26,0-.27,0h-.12l-.26,0-.27,0Z"/><path class="cls-27" d="M12.21,8.51h-.13v0l.19,0a2.3,2.3,0,0,0,.26,0h.13a2.3,2.3,0,0,0,.26,0,2.23,2.23,0,0,0,.27,0h.12a2.23,2.23,0,0,0,.27,0,2.3,2.3,0,0,0,.26,0H14a2.3,2.3,0,0,0,.26,0,2.23,2.23,0,0,0,.27,0h.12a2.06,2.06,0,0,0,.26,0l.21,0,0,0h-.24l-.26,0-.27,0h-.12l-.27,0-.26,0h-.13l-.26,0-.27,0h-.12l-.26,0-.27,0Z"/><path class="cls-28" d="M12.21,8.48h-.13v0l.19,0a2.3,2.3,0,0,0,.26,0h.13a2.3,2.3,0,0,0,.26,0,2.23,2.23,0,0,0,.27,0h.12a2.23,2.23,0,0,0,.27,0,2.3,2.3,0,0,0,.26,0H14a2.3,2.3,0,0,0,.26,0,2.23,2.23,0,0,0,.27,0h.12a2.06,2.06,0,0,0,.26,0l.21,0,0,0h-.24l-.26,0-.27,0h-.12l-.27,0-.26,0h-.13l-.26,0-.27,0h-.12l-.26,0-.27,0Z"/><path class="cls-29" d="M12.3,8.35Zm0,0h0Zm0,0h0Zm0,0h0Zm0,0h0Zm0,0h0Zm0,0h0Zm0,0h0Zm.17,0h0Zm2.22,0h0Z"/><g id="k"><path class="cls-30" d="M14.4,8.06a.08.08,0,0,0-.06,0,.73.73,0,0,1-.61.58h-.22V9h1.67L15,8.66a.78.78,0,0,1-.55-.57s0,0-.06,0Z"/><path class="cls-31" d="M14.4,8.07h-.05a1,1,0,0,1-.22.4.58.58,0,0,1-.4.19h-.21V9h1.65L15,8.67a.54.54,0,0,1-.34-.18.9.9,0,0,1-.23-.4h0Z"/><path class="cls-32" d="M14.4,8.07h0v.29a.37.37,0,0,1-.05.17c0,.05,0,0-.06.08a.35.35,0,0,1-.14,0,1.48,1.48,0,0,1-.3,0,.65.65,0,0,0,.27-.17l0-.06.09-.13a.17.17,0,0,1,0-.05.2.2,0,0,0,0-.08v0s0,0,0-.06h.05Z"/><path class="cls-33" d="M14.38,8.11a.8.8,0,0,1-.18.49.22.22,0,0,1-.15.06A1,1,0,0,0,14.38,8.11Z"/><path class="cls-34" d="M14.24,8.39a.83.83,0,0,1-.24.28h-.08a.76.76,0,0,0,.32-.28Z"/></g><path class="cls-35" d="M14,8.06c-.05,0-.06,0-.06,0a.74.74,0,0,1-.62.58h-.22V9h1.67l-.17-.3a.76.76,0,0,1-.54-.57.08.08,0,0,0-.06,0Z"/><path class="cls-31" d="M14,8.07h-.05a.9.9,0,0,1-.23.4.58.58,0,0,1-.4.19H13.1V9h1.66l-.16-.28a.57.57,0,0,1-.34-.18,1,1,0,0,1-.22-.4h0Z"/><path class="cls-32" d="M14,8.07h0v.29a.29.29,0,0,1-.06.17c0,.05,0,0-.06.08a.35.35,0,0,1-.14,0,1.48,1.48,0,0,1-.3,0,.65.65,0,0,0,.27-.17l.06-.06.08-.13,0-.05,0-.08v0s0,0,0-.06H14Z"/><path class="cls-33" d="M14,8.11a.8.8,0,0,1-.18.49.25.25,0,0,1-.16.06A1,1,0,0,0,14,8.11Z"/><path class="cls-34" d="M13.82,8.39a.83.83,0,0,1-.24.28H13.5a.71.71,0,0,0,.32-.28Z"/><path class="cls-36" d="M13.63,8.09c.08.28.32.58.61.58h.22V9H12.68V8.67h.22a.73.73,0,0,0,.61-.58s0,0,.06,0,.06,0,.06,0Z"/><path class="cls-31" d="M13.57,8.07h0a.9.9,0,0,0,.23.4.58.58,0,0,0,.4.19h.2V9H12.69V8.68h.21a.56.56,0,0,0,.39-.19.9.9,0,0,0,.23-.4h.05Z"/><path class="cls-32" d="M13.55,8.08h0a.14.14,0,0,1,0,.06v0l0,.08,0,.05a.57.57,0,0,1-.08.13l-.06.06a.56.56,0,0,1-.26.17.37.37,0,0,0,.18,0,.45.45,0,0,0,.16,0s0,0,0-.08a.61.61,0,0,0,.09-.18.78.78,0,0,0,.05-.27Z"/><path class="cls-33" d="M13.55,8.11a.8.8,0,0,1-.18.49.22.22,0,0,1-.15.06A1.07,1.07,0,0,0,13.55,8.11Z"/><path class="cls-34" d="M13.4,8.39a.73.73,0,0,1-.24.28h-.07a.69.69,0,0,0,.31-.28Z"/><path class="cls-32" d="M13.6,8.08h0s0,0,0,.06v0l0,.08,0,.05a.57.57,0,0,0,.08.13l.06.06a.72.72,0,0,0,.26.18c-.19,0-.28,0-.35-.11a.43.43,0,0,1-.11-.19.76.76,0,0,1-.05-.29Z"/><path class="cls-33" d="M13.61,8.11a.67.67,0,0,0,.18.45.23.23,0,0,0,.15.07.86.86,0,0,1-.33-.52Z"/><g id="l"><path class="cls-37" d="M13.16,8.06c-.05,0-.06,0-.06,0a.91.91,0,0,1-.59.64L12.38,9h1.33V8.65a.77.77,0,0,1-.49-.56.08.08,0,0,0-.06,0Z"/><path class="cls-31" d="M13.16,8.07h-.05a1.25,1.25,0,0,1-.22.41.79.79,0,0,1-.38.25l-.12.2h1.3V8.66a.69.69,0,0,1-.26-.17,1,1,0,0,1-.22-.4h-.05Z"/><path class="cls-38" d="M13.12,8.11c0,.25-.15.56-.31.61a.55.55,0,0,1-.16,0A1,1,0,0,0,13.12,8.11Z"/><path class="cls-32" d="M13.16,8.07h0v.29a.37.37,0,0,0,0,.17v0s0,0,.06.07a.6.6,0,0,0,.4.11l-.09-.07h.12a.65.65,0,0,1-.27-.17l0,0,0,0a.57.57,0,0,1-.08-.13l0-.05,0-.1s0,0,0-.06h-.05Z"/><path class="cls-39" d="M13.18,8.11a.8.8,0,0,0,.18.49.22.22,0,0,0,.15.06A1,1,0,0,1,13.18,8.11Z"/><path class="cls-34" d="M13.29,8.34a1,1,0,0,0,.39.41h.07A1,1,0,0,1,13.29,8.34Z"/></g><path class="cls-40" d="M12.74,8.06c-.05,0-.06,0-.06,0a.91.91,0,0,1-.59.64L12,9h1.33V8.65a.79.79,0,0,1-.49-.56s0,0-.06,0Z"/><path class="cls-31" d="M12.74,8.07h-.05a1.25,1.25,0,0,1-.22.41.74.74,0,0,1-.38.25L12,9h1.31V8.66A.56.56,0,0,1,13,8.49a.9.9,0,0,1-.23-.4h0Z"/><path class="cls-38" d="M12.7,8.11c0,.25-.15.56-.3.61a.61.61,0,0,1-.17,0A.94.94,0,0,0,12.7,8.11Z"/><path class="cls-32" d="M12.74,8.07h0v.29a.37.37,0,0,0,0,.17v0s0,0,.06.07a.61.61,0,0,0,.4.11l-.09-.07h.12A.56.56,0,0,1,13,8.49s0,0,0,0l0,0a.57.57,0,0,1-.08-.13l0-.05a.42.42,0,0,1,0-.1.14.14,0,0,1,0-.06h0Z"/><path class="cls-33" d="M12.76,8.11a.8.8,0,0,0,.18.49.22.22,0,0,0,.15.06A1.07,1.07,0,0,1,12.76,8.11Z"/><path class="cls-34" d="M12.87,8.34a1,1,0,0,0,.4.41h.06A1,1,0,0,1,12.87,8.34Z"/><path class="cls-3" d="M15.11,8.81h-.3c-.1,0-.19,0-.28,0s-.17,0-.27,0h-.09c-.1,0-.18,0-.28,0s-.17,0-.27,0h-.09c-.1,0-.18,0-.27,0s-.18,0-.28,0h-.09l-.27,0-.27,0h-.09l-.25,0-.17.3H15.3Z"/><path class="cls-41" d="M14.87,8.77h0c-.09,0-.15,0-.31,0a3.28,3.28,0,0,0-.34,0c-.16,0-.23,0-.31,0s-.23,0-.34,0-.24,0-.33,0-.21,0-.32,0a2.19,2.19,0,0,1-.3,0l-.35,0a1.93,1.93,0,0,0-.27,0l0,0,.29,0c.06,0,.29,0,.41,0s.14,0,.29,0h.29c.07,0,.13,0,.23,0h.07a1.82,1.82,0,0,1,.33,0,1,1,0,0,0,.24,0h.12l.26,0,.27,0h.12l.23,0,0,0-.23,0Z"/><g id="n"><path id="m" class="cls-42" d="M12.22,9.09l-.26,0h-.1v0H12c.1,0,.18,0,.26,0s.17,0,.27,0h.12c.09,0,.17,0,.26,0s.17,0,.26,0h.13c.09,0,.17,0,.26,0s.17,0,.26,0H14c.1,0,.18,0,.26,0s.17,0,.27,0h.12c.09,0,.17,0,.26,0s.17,0,.26,0h.17v0h-.09l-.26,0h-.12l-.26,0-.27,0h-.12l-.26,0-.26,0h-.13l-.26,0-.26,0h-.12l-.26,0-.27,0Z"/><path class="cls-43" d="M12.22,9.05a2.3,2.3,0,0,0-.26,0h-.1v0H12l.26,0,.27,0h.12l.26,0,.26,0h.13l.26,0,.26,0H14l.26,0,.27,0h.12l.26,0,.26,0h.17v0h-.09a2.3,2.3,0,0,0-.26,0h-.12a1.86,1.86,0,0,0-.26,0,2.23,2.23,0,0,0-.27,0h-.12a2.3,2.3,0,0,0-.26,0,2.3,2.3,0,0,0-.26,0h-.13a2.3,2.3,0,0,0-.26,0,2.3,2.3,0,0,0-.26,0h-.12a2.3,2.3,0,0,0-.26,0,2.23,2.23,0,0,0-.27,0Z"/><path class="cls-44" d="M12.22,9,12,9h-.1v0H12c.1,0,.18,0,.26,0s.17,0,.27,0h.12c.09,0,.17,0,.26,0s.17,0,.26,0h.13c.09,0,.17,0,.26,0s.17,0,.26,0H14c.1,0,.18,0,.26,0s.17,0,.27,0h.12c.09,0,.17,0,.26,0s.17,0,.26,0h.17V9h-.09l-.26,0h-.12l-.26,0-.27,0h-.12L13.9,9l-.26,0h-.13l-.26,0L13,9h-.12l-.26,0-.27,0Z"/></g><path class="cls-45" d="M12.22,9A2.3,2.3,0,0,0,12,9h-.1V9H12l.26,0,.27,0h.12l.26,0,.26,0h.13l.26,0,.26,0H14l.26,0,.27,0h.12l.26,0,.26,0h.17V9h-.09a2.3,2.3,0,0,0-.26,0h-.12a1.86,1.86,0,0,0-.26,0,2.23,2.23,0,0,0-.27,0h-.12a2.3,2.3,0,0,0-.26,0,2.3,2.3,0,0,0-.26,0h-.13a2.3,2.3,0,0,0-.26,0A2.3,2.3,0,0,0,13,9h-.12a2.3,2.3,0,0,0-.26,0,2.23,2.23,0,0,0-.27,0Z"/><path class="cls-46" d="M12.22,9,12,9h-.1V9H12c.1,0,.18,0,.26,0s.17,0,.27,0h.12c.09,0,.17,0,.26,0s.17,0,.26,0h.13c.09,0,.17,0,.26,0s.17,0,.26,0H14c.1,0,.18,0,.26,0s.17,0,.27,0h.12c.09,0,.17,0,.26,0s.17,0,.26,0h.17V9h-.09l-.26,0h-.12l-.26,0-.27,0h-.12L13.9,9l-.26,0h-.13l-.26,0L13,9h-.12l-.26,0-.27,0Z"/><path class="cls-47" d="M12.22,8.91a2.3,2.3,0,0,0-.26,0h-.1V9H12l.26,0,.27,0h.12l.26,0,.26,0h.13l.26,0,.26,0H14l.26,0,.27,0h.12l.26,0,.26,0h.17v0h-.09a2.3,2.3,0,0,0-.26,0h-.12a1.86,1.86,0,0,0-.26,0,2.23,2.23,0,0,0-.27,0h-.12a2.3,2.3,0,0,0-.26,0,2.3,2.3,0,0,0-.26,0h-.13a2.3,2.3,0,0,0-.26,0,2.3,2.3,0,0,0-.26,0h-.12a2.3,2.3,0,0,0-.26,0,2.23,2.23,0,0,0-.27,0Z"/><path class="cls-48" d="M12.22,8.88,12,8.9h-.1v0H12c.1,0,.18,0,.26,0s.17,0,.27,0h.12c.09,0,.17,0,.26,0s.17,0,.26,0h.13c.09,0,.17,0,.26,0s.17,0,.26,0H14c.1,0,.18,0,.26,0s.17,0,.27,0h.12c.09,0,.17,0,.26,0s.17,0,.26,0h.17v0h-.09l-.26,0h-.12l-.26,0-.27,0h-.12l-.26,0-.26,0h-.13l-.26,0-.26,0h-.12l-.26,0-.27,0Z"/><path class="cls-49" d="M12.22,8.84a2.3,2.3,0,0,0-.26,0h-.1v0H12l.26,0,.27,0h.12l.26,0,.26,0h.13l.26,0,.26,0H14l.26,0,.27,0h.12l.26,0,.26,0h.17v0h-.09a2.3,2.3,0,0,0-.26,0h-.12a1.86,1.86,0,0,0-.26,0,2.23,2.23,0,0,0-.27,0h-.12a2.3,2.3,0,0,0-.26,0,2.3,2.3,0,0,0-.26,0h-.13a2.3,2.3,0,0,0-.26,0,2.3,2.3,0,0,0-.26,0h-.12a2.3,2.3,0,0,0-.26,0,2.23,2.23,0,0,0-.27,0Z"/><path class="cls-50" d="M12.22,8.81l-.26,0h-.1v0H12c.1,0,.18,0,.26,0s.17,0,.27,0h.12c.09,0,.17,0,.26,0s.17,0,.26,0h.13c.09,0,.17,0,.26,0s.17,0,.26,0H14c.1,0,.18,0,.26,0s.17,0,.27,0h.12c.09,0,.17,0,.26,0s.17,0,.26,0h.17v0h-.09l-.26,0h-.12l-.26,0-.27,0h-.12l-.26,0-.26,0h-.13l-.26,0-.26,0h-.12l-.26,0-.27,0Z"/><path class="cls-31" d="M12.05,8.81,12,8.93a1.25,1.25,0,0,1,.29,0c.1,0,.22,0,.34,0a2.19,2.19,0,0,0,.3,0,1.69,1.69,0,0,1,.32,0c.09,0,.22,0,.33,0s.21,0,.34,0,.15,0,.31,0,.19,0,.34,0,.22,0,.32,0h.23l0-.09h0l-2.74.06Z"/><path class="cls-3" d="M14.93,8.81h.19v0Z"/></g><path class="cls-4" d="M13.57,6.1,12.7,7.62l-.89,1.54h3.53l-.88-1.51Zm0,.09.86,1.48.84,1.45H11.88l.85-1.48Z"/></g></g></svg>