<svg xmlns="http://www.w3.org/2000/svg" viewBox="0 0 26.89 15.9"><defs><style>.cls-1{fill:#0f47af;}.cls-2{fill:#fdfefd;}.cls-3{fill:#ebbe1b;}.cls-10,.cls-12,.cls-3,.cls-4,.cls-5,.cls-6,.cls-7,.cls-8,.cls-9{fill-rule:evenodd;}.cls-4{fill:#fff;}.cls-5{fill:#162d84;}.cls-6{fill:#b6b5c0;}.cls-11,.cls-7{fill:#e71f19;}.cls-8{fill:#204e29;}.cls-9{fill:#1e7486;}.cls-10{fill:#1d2b53;}.cls-12{fill:none;stroke:#000;stroke-width:0.3px;}.cls-13{fill:#040000;}</style></defs><title>flag_222</title><g id="レイヤー_2" data-name="レイヤー 2"><g id="flag"><rect class="cls-1" width="26.89" height="15.9"/><rect class="cls-2" x="0.02" y="5" width="26.87" height="5.04"/><path class="cls-3" d="M13.43,5.21a.45.45,0,0,1,.16,0s0,.16,0,.16.07.08.08.13-.1-.07-.13-.11,0,.1,0,.11h0C13.41,5.45,13.45,5.3,13.43,5.21Zm.06.13c.06,0,.08,0,.06-.08h-.06Z"/><path class="cls-3" d="M13.15,5.23c.13,0,.19,0,.2.13s-.34.26-.31,0A.13.13,0,0,1,13.15,5.23Zm.05.24c.05,0,.07,0,.07-.13S13,5.49,13.2,5.47Z"/><path class="cls-4" d="M13.49,5.27h.06s0,.08-.06.08Z"/><path class="cls-3" d="M14,5.27a.41.41,0,0,1,.16,0s0,0,0,0l-.09,0s0,0,0,0,.11,0,.09.08-.06,0-.09,0,0,.05,0,.07.07,0,.1,0a.06.06,0,0,0,0,0,.83.83,0,0,1-.16,0A3,3,0,0,1,14,5.27Z"/><path class="cls-4" d="M13.27,5.33c0,.09,0,.13-.07.13S13.12,5.17,13.27,5.33Z"/><path class="cls-3" d="M12.76,5.62c0-.11-.06-.18-.07-.29A.16.16,0,1,1,12.76,5.62Zm0-.23s0,.13.07.17S12.87,5.3,12.76,5.39Z"/><path class="cls-3" d="M14.31,5.33h0a2,2,0,0,0,.07.25.77.77,0,0,0,.08-.18s0,0,.06,0-.08.19-.11.29-.08-.18-.11-.27,0,.13-.09.18h0A2.36,2.36,0,0,1,14.31,5.33Z"/><path class="cls-4" d="M12.83,5.55s0-.12-.07-.17S13,5.52,12.83,5.55Z"/><path class="cls-3" d="M12.47,5.41a1.44,1.44,0,0,1,.23.24c-.07,0-.13,0-.2,0s0,.05,0,.08,0,0-.06,0S12.4,5.48,12.47,5.41Zm0,.2s0,0,.06,0,0,0-.07-.06S12.52,5.57,12.51,5.61Z"/><path class="cls-4" d="M12.5,5.52s0,0,.07.06,0,0-.06,0S12.49,5.56,12.5,5.52Z"/><path class="cls-3" d="M12.27,5.53c0,.12.07.23,0,.33A2.38,2.38,0,0,1,12,5.68c.07-.1.15.06.22.09S12.16,5.55,12.27,5.53Z"/><path class="cls-3" d="M14.79,5.57s0,0,.06,0a2.25,2.25,0,0,1-.13.21s.07,0,.07.07,0,0,0,0-.08,0-.13-.07S14.74,5.66,14.79,5.57Z"/><path class="cls-3" d="M13.47,5.72c0-.05,0-.08,0-.15a.15.15,0,0,1,0,.11.05.05,0,0,0,0,0Z"/><path class="cls-3" d="M13.42,5.78s0,0,0,0a.1.1,0,0,1,0,.08h0l0,0A0,0,0,0,1,13.42,5.78Z"/><path class="cls-3" d="M15.11,5.78c0,.11-.07.21-.1.31S14.95,6,15,6a.37.37,0,0,0-.08-.08c-.06,0-.06,0-.11,0S15,5.74,15.11,5.78Zm-.17.12.06,0s0-.07,0-.09S15,5.87,14.94,5.9Z"/><path class="cls-3" d="M11.9,5.77a.85.85,0,0,1,.16.19s.06-.07.1,0S12.1,6,12,6s-.13-.14-.18-.23A.05.05,0,0,0,11.9,5.77Z"/><path class="cls-5" d="M13.42,5.85s0,0,0-.06,0,0,0,0,0,0,0,0a1.92,1.92,0,0,1-.09.38c0,.06,0,.08-.07.13s0-.07,0-.07h0V6.14C13.36,6,13.39,5.94,13.42,5.85Z"/><path class="cls-4" d="M15,5.85s0,.06,0,.09l-.06,0S15,5.87,15,5.85Z"/><path class="cls-3" d="M11.7,5.95c.1,0,.19.09.3.12s-.14,0-.18.1,0,.08,0,.11S11.65,6,11.7,5.95Zm.09.17s0,0,.06,0l-.09,0S11.78,6.09,11.79,6.11Z"/><path class="cls-4" d="M11.76,6l.09,0s0,0-.06,0S11.76,6.07,11.76,6Z"/><path class="cls-5" d="M13.5,6.16s0,0,0-.09a.18.18,0,0,1,0,.15S13.51,6.18,13.5,6.16Z"/><path class="cls-6" d="M13.32,6.14v.15A.19.19,0,0,1,13.32,6.14Z"/><path class="cls-3" d="M13.47,6.16c.47.76.93,1.53,1.39,2.31H12.11C12.54,7.68,13,6.94,13.47,6.16Zm.13.35c0-.08-.09-.13-.11-.21s-.08.1-.11.17a2.7,2.7,0,0,0-.18.29s0,0,0,.07,0,.07-.07.1c-.12.21-.25.41-.37.62a.44.44,0,0,0-.08.12s0,0,0,.07a7.07,7.07,0,0,0-.4.67h2.52c-.12-.22-.25-.44-.39-.65s-.39-.66-.58-1A2.21,2.21,0,0,0,13.6,6.51Z"/><path class="cls-3" d="M11.57,6.19s-.06,0-.06.08.08,0,.15,0,.08.27,0,.17.08,0,.08-.06,0,0,0,0-.07,0-.11,0S11.47,6.11,11.57,6.19Z"/><path class="cls-6" d="M14.58,6.23a.09.09,0,0,0,0,.07s0,0,0,0,0,0,0-.06l0,0S14.53,6.21,14.58,6.23Z"/><path class="cls-3" d="M15.55,6.24c0,.11-.12.2-.17.3s0-.07,0-.1,0,0,0-.09-.1,0-.11,0A1.42,1.42,0,0,1,15.55,6.24Zm-.18.09s0,0,0,.06,0,0,0-.08S15.4,6.33,15.37,6.33Z"/><path class="cls-4" d="M15.46,6.3s0,0,0,.08,0,0,0-.06S15.42,6.3,15.46,6.3Z"/><path class="cls-4" d="M12.38,6.34s0,0,0,0v0s0,0,0,0Z"/><path class="cls-4" d="M14.58,6.32s0,0,0,0A0,0,0,0,1,14.58,6.32Z"/><path class="cls-5" d="M14.31,6.62c.06-.1.16-.17.22-.27s0,.1,0,.09a3,3,0,0,0,0,.44V7.1a1.42,1.42,0,0,1,0,.21c-.1.06-.18.13-.29.18s-.05-.07,0-.13a1.06,1.06,0,0,0,0-.22.73.73,0,0,0,0-.28A1.59,1.59,0,0,0,14.31,6.62Z"/><path class="cls-7" d="M12.22,6.4c.07,0,0,.06,0,.07S12.21,6.41,12.22,6.4Z"/><path class="cls-3" d="M13.37,6.51a.27.27,0,0,1,.22,0s.05.06.07.1a.41.41,0,0,0-.36,0A.5.5,0,0,1,13.37,6.51Z"/><path class="cls-3" d="M15.7,6.48c0,.08-.09.12-.12.19s.16,0,.21,0-.18.17-.26.2.08-.09.12-.13-.12,0-.19,0,.09-.09.12-.16-.13.06-.18,0,0,0,0,0Z"/><path class="cls-3" d="M11.26,6.57a1.76,1.76,0,0,1,.22.11s0-.05,0-.08,0,.11,0,.16l-.27-.13S11.26,6.6,11.26,6.57Z"/><path class="cls-7" d="M11.92,6.7h0a.08.08,0,0,1,0,.06S11.91,6.73,11.92,6.7Z"/><path class="cls-7" d="M15,6.7a.08.08,0,0,1,0,.06,0,0,0,0,1,0,0Z"/><path class="cls-3" d="M11.19,6.73h0a.3.3,0,0,1,0,.09s0,0,.06,0a.16.16,0,0,0,0-.09h0s0,.06,0,.09,0,0,.07,0,0-.07,0-.09h0c0,.06,0,.1-.06.16l-.28-.1A.55.55,0,0,1,11.19,6.73Z"/><path class="cls-8" d="M12.07,6.81c.08,0,0,.09,0,0Z"/><path class="cls-7" d="M14.85,6.81h0a.07.07,0,0,1,0,.05S14.84,6.84,14.85,6.81Z"/><path class="cls-3" d="M15.9,7h0s0-.06-.06-.09,0,0-.06,0,0,.06,0,.1,0,0,0,0,0-.06,0-.09,0,0-.08,0a.25.25,0,0,0,0,.09c-.07.07-.09-.08-.1-.13l.27-.09S15.88,6.95,15.9,7Z"/><path class="cls-5" d="M12.86,6.85s.08.07.1.12a.47.47,0,0,1-.08.13A.46.46,0,0,1,12.86,6.85Z"/><path class="cls-5" d="M14.07,7.11a.15.15,0,0,1,0-.26A.59.59,0,0,1,14.07,7.11Z"/><path class="cls-7" d="M13.45,7.29l0,0s0-.09,0-.11,0,0,0-.07h.08a.46.46,0,0,1,.08.17.1.1,0,0,1-.07,0h0c0-.05,0,0,0,0Z"/><path class="cls-3" d="M15.94,7.11c.08.12-.06.28-.15.16,0,0-.05.09-.11.1s0-.1.08-.16-.09,0-.11,0V7.16Zm-.11.09s.11.08.08,0S15.84,7.18,15.83,7.2Z"/><path class="cls-3" d="M12,7.21s0-.06,0-.06l0,0s0,0,0,.08,0,0,0,0Z"/><path class="cls-5" d="M12,7.22s0-.06,0-.1l.08,0a1.56,1.56,0,0,0,.18.11s0,.06,0,.09,0,.08,0,.11v.18a.76.76,0,0,0,.09.36,1.29,1.29,0,0,0-.21.33A4.32,4.32,0,0,0,12,7.94c0-.07,0-.17,0-.25V7.5s0-.07,0-.1v0S12,7.27,12,7.22Z"/><path class="cls-5" d="M14.8,7.21a1,1,0,0,0,.14-.09h0s-.05.1,0,.09a1.5,1.5,0,0,0,0,.34v.14a1.43,1.43,0,0,0,0,.25,2.6,2.6,0,0,0-.12.41A3.28,3.28,0,0,0,14.61,8a.69.69,0,0,0,.08-.38.22.22,0,0,0,0-.16s0-.11,0-.18S14.77,7.25,14.8,7.21Z"/><path class="cls-3" d="M11.06,7.13h0s0,.06,0,.1,0,0,.05,0,0-.09,0-.09,0,.06,0,.1,0,0,.07,0,0-.07,0-.1h0c0,.06,0,.09,0,.16a2.54,2.54,0,0,1-.3-.06A1,1,0,0,1,11.06,7.13Z"/><path class="cls-7" d="M11.73,7.23s-.06,0-.06,0S11.73,7.19,11.73,7.23Z"/><path class="cls-7" d="M15.29,7.22h-.06C15.22,7.16,15.29,7.17,15.29,7.22Z"/><path class="cls-4" d="M15.9,7.19c0,.09-.12,0-.08,0S15.87,7.19,15.9,7.19Z"/><path class="cls-8" d="M11.87,7.23h0a.07.07,0,0,1,0,.06S11.87,7.26,11.87,7.23Z"/><path class="cls-8" d="M15,7.23h0a.07.07,0,0,1,0,.06S15,7.26,15,7.23Z"/><path class="cls-3" d="M13.5,7.29v.37h0c0-.08,0-.18,0-.22s0-.09,0-.15S13.51,7.23,13.5,7.29Z"/><path class="cls-9" d="M12.27,7.37v.11h0S12.25,7.38,12.27,7.37Z"/><path class="cls-3" d="M11.28,7.66l-.29,0A.16.16,0,1,1,11.28,7.66Zm-.22-.09a.66.66,0,0,0,.18,0C11.26,7.46,11,7.43,11.06,7.57Z"/><path class="cls-3" d="M16,7.42v0a.63.63,0,0,1-.3,0V7.43C15.8,7.44,15.9,7.39,16,7.42Z"/><path class="cls-5" d="M12.54,7.69a.56.56,0,0,1,0-.23l0,0s0,0,0,0a.06.06,0,0,0,0,0c0,.07-.06.1-.08.16Z"/><path class="cls-5" d="M14.42,7.69s-.06-.09-.09-.13.07-.07.12-.1A.74.74,0,0,1,14.42,7.69Z"/><path class="cls-4" d="M11.23,7.58a.66.66,0,0,1-.18,0C11,7.43,11.26,7.46,11.23,7.58Z"/><path class="cls-9" d="M14.69,7.48a.22.22,0,0,1,0,.16Z"/><path class="cls-3" d="M12.72,7.77c.08-.07.14-.22.27-.22s.12.08.22.09.33.31.53.44c-.44,0-.86,0-1.32,0C12.47,7.93,12.61,7.86,12.72,7.77Z"/><path class="cls-6" d="M15,7.54a.2.2,0,0,1,0,.14Z"/><path class="cls-3" d="M16,7.79s0,0,0-.09-.28,0-.18.09c-.12,0-.08-.11-.07-.15a.18.18,0,0,1,.28,0S16.06,7.8,16,7.79Z"/><path class="cls-7" d="M11.61,7.69h0a.07.07,0,0,1,0,.06S11.61,7.73,11.61,7.69Z"/><path class="cls-7" d="M11.83,7.69h.06s0,.05-.06,0Z"/><path class="cls-8" d="M15.13,7.69s0,0,0,.06a0,0,0,0,1,0,0Z"/><path class="cls-7" d="M15.31,7.69s0,.08,0,.06A.07.07,0,0,1,15.31,7.69Z"/><path class="cls-3" d="M15.7,7.86A.8.8,0,0,1,16,8c-.06.08-.21.07-.32.1s0-.07.07-.07a.43.43,0,0,0,0-.11S15.69,7.92,15.7,7.86Zm.1.18s0,0,.09,0,0,0-.08,0A.08.08,0,0,0,15.8,8Z"/><path class="cls-3" d="M11.29,8s0,0,0,0,0,0-.06.06a.37.37,0,0,1,0,.1s.09,0,.08.08-.2,0-.32-.06,0,0,0,0A1.81,1.81,0,0,1,11.29,8Zm-.18.19s.08,0,.1,0V8.1A.14.14,0,0,0,11.11,8.16Z"/><path class="cls-4" d="M15.81,8s.07,0,.08,0-.05,0-.09,0A.08.08,0,0,1,15.81,8Z"/><path class="cls-4" d="M11.21,8.1v.07s-.07,0-.1,0A.14.14,0,0,1,11.21,8.1Z"/><path class="cls-7" d="M12,8.24h0C11.86,8.22,12,8.13,12,8.24Z"/><path class="cls-8" d="M15,8.18s0,0,0,.06h0A.08.08,0,0,1,15,8.18Z"/><path class="cls-9" d="M13,8.24c.1-.07.23,0,.36,0C13.23,8.32,13.11,8.22,13,8.24Z"/><path class="cls-9" d="M13.42,8.23c.06-.06.21,0,.28,0s0,0,.06,0S13.54,8.23,13.42,8.23Z"/><path class="cls-9" d="M13.84,8.23c.1-.08.22,0,.33,0C14.07,8.31,13.95,8.24,13.84,8.23Z"/><path class="cls-9" d="M12.61,8.24c.08-.09.22,0,.32,0a.27.27,0,0,1-.23,0s.05,0,.08,0-.1,0-.12,0S12.63,8.23,12.61,8.24Z"/><path class="cls-8" d="M13.4,8.23h0c.12,0,.24.08.33,0s0,0,.08,0,.24.08.33,0,0,0,.07,0a.8.8,0,0,1,.27.07c-.08,0-.15,0-.23,0s-.15,0-.22,0-.14,0-.2,0-.13,0-.2,0-.15,0-.22,0-.12,0-.18,0-.18,0-.28,0-.1,0-.16,0-.23-.07-.35,0,.06,0,.09,0h.06s0,0,0,0h0a.27.27,0,0,0,.23,0h0c.14,0,.26.08.36,0S13.4,8.25,13.4,8.23Z"/><path class="cls-7" d="M11.79,8.25s0,0,0,0,0,0,0,0A0,0,0,0,1,11.79,8.25Z"/><path class="cls-7" d="M15.22,8.25a0,0,0,0,1,0,0A0,0,0,1,1,15.22,8.25Z"/><path class="cls-3" d="M11.12,8.38s0,.08,0,.09.28-.07.13-.13,0,0,.06,0c.22.18-.21.39-.26.18C11.08,8.45,11.07,8.38,11.12,8.38Z"/><path class="cls-6" d="M13.21,8.32a.12.12,0,0,1,.11,0Z"/><path class="cls-6" d="M13.84,8.35h.09s-.08,0-.08,0,0,0,0,0S13.84,8.36,13.84,8.35Z"/><path class="cls-3" d="M11.48,8.62a.57.57,0,0,1-.28.13s0,0,0,0,.18-.08.26-.13S11.47,8.61,11.48,8.62Z"/><path class="cls-3" d="M11.5,8.7a.44.44,0,0,1,.08.13c-.1,0-.17.1-.27.13s0,0,0-.06.13-.08.21-.1a.11.11,0,0,0,0-.08S11.5,8.72,11.5,8.7Z"/><path class="cls-7" d="M12.15,8.72c.09,0,0,.11,0,0Z"/><path class="cls-7" d="M14.75,8.72c.09,0,0,.11,0,0Z"/><path class="cls-3" d="M15.48,8.71l.26.13c0,.06,0,.16-.11.13a.21.21,0,0,1,0-.09s0,0-.06,0,0,.05,0,.08h0s0-.07,0-.09l-.07,0s0,.11-.1.07A.93.93,0,0,1,15.48,8.71Z"/><path class="cls-7" d="M12,8.81s0,0,0,0,0,0-.06,0v0h0Z"/><path class="cls-7" d="M15,8.84s0,0,0,0h0v0S15,8.86,15,8.84Z"/><path class="cls-3" d="M11.73,9.06a1.33,1.33,0,0,0-.23.16c-.08,0-.11-.2,0-.2C11.53,8.84,11.72,9,11.73,9.06ZM11.57,9s0,0,0,.07S11.64,9,11.57,9Zm-.08.15s0,0,.05,0S11.44,9.1,11.49,9.14Z"/><path class="cls-3" d="M15.36,8.92c.09.05.17.12.26.18s-.19,0-.29,0,.12.07.16.13a0,0,0,0,0,0,0,1,1,0,0,1-.26-.19.79.79,0,0,1,.27,0S15.35,9,15.33,9Z"/><path class="cls-4" d="M11.58,9.06s0,0,0-.07S11.67,9.06,11.58,9.06Z"/><path class="cls-4" d="M11.55,9.1s0,0-.05,0S11.51,9,11.55,9.1Z"/><path class="cls-7" d="M12.68,9.1c0,.09-.09-.05,0,0Z"/><path class="cls-8" d="M14.32,9.13s0,0,0,0h0A.07.07,0,0,1,14.32,9.13Z"/><path class="cls-3" d="M11.68,9.47c0-.08.14-.1.16-.2s0,0,0,0-.16.19-.25.11.29-.27.33-.1S11.74,9.5,11.68,9.47Z"/><path class="cls-10" d="M13.25,9.34s0-.13,0-.15,0,0,.06.07a.15.15,0,0,0,.09.18s-.11,0-.13,0S13.27,9.36,13.25,9.34Z"/><path class="cls-5" d="M13.28,9.2h.12c.06,0,.06.15.1.21s.08.14,0,.15h0s0-.11,0-.11a.77.77,0,0,0-.11-.18S13.29,9.23,13.28,9.2Z"/><path class="cls-5" d="M13.52,9.41c0-.14.09-.27.19-.17h0a.06.06,0,0,0-.06,0s0,0,0,0,0,0,0,0a.33.33,0,0,0,0,.16Z"/><path class="cls-3" d="M15.29,9.4c.15-.12,0,.13-.06.11s0,0,0-.06-.18-.12-.18-.18S15.26,9.35,15.29,9.4Z"/><path class="cls-7" d="M12.5,9.25s0,0,0,0,0,0,0,0S12.48,9.27,12.5,9.25Z"/><path class="cls-7" d="M14.47,9.3c-.1,0,0-.11,0,0Z"/><path class="cls-5" d="M13.25,9.34s0,.09,0,.1.1,0,.13,0h0s0,0,0,0,0,.09,0,.11a.18.18,0,0,0-.07.22s0,0,0,0,0,0,0,.07a.17.17,0,0,1,0-.19l.09-.1h0s-.08,0-.11,0,0-.08,0-.11Z"/><path class="cls-3" d="M15,9.37a.75.75,0,0,1,.21.23c-.06.09-.26.11-.21-.06a.34.34,0,0,0-.13,0s0,0,0-.06l.12,0S14.9,9.41,15,9.37Zm.12.23s0-.06-.05-.07A0,0,0,1,0,15.09,9.6Z"/><path class="cls-5" d="M13.65,9.43s0,0,0,0,0,.06,0,.09,0,0-.06,0-.08,0,0,0A.15.15,0,0,0,13.65,9.43Z"/><path class="cls-3" d="M12.08,9.42c.11,0-.11.26-.14.27s-.2-.21,0-.23a.1.1,0,0,1,.08,0S12.06,9.45,12.08,9.42Zm-.18.18A.09.09,0,0,0,12,9.53s0,0-.07,0A.07.07,0,0,0,11.9,9.6Z"/><path class="cls-8" d="M13.43,9.44h0s0,.08,0,.11h0s0-.07,0-.11S13.43,9.46,13.43,9.44Z"/><path class="cls-3" d="M12.18,9.51c.06,0,.09.06.15.09l-.17.25s-.11,0-.13-.1.07,0,.11,0,0,0,0,0a.18.18,0,0,0-.08-.05l0,0s0,0,.08,0,0,0,.05-.06S12.15,9.57,12.18,9.51Z"/><path class="cls-4" d="M11.9,9.52s0,0,.07,0a.09.09,0,0,1-.07.07A.07.07,0,0,1,11.9,9.52Z"/><path class="cls-3" d="M14.78,9.52a.49.49,0,0,1,.06.35c-.11,0-.18-.14-.28-.19s.07,0,.11,0l.09,0s0,0,0-.08A0,0,0,0,0,14.78,9.52Zm-.07.19s0,0,.08.06,0-.09,0-.09S14.71,9.69,14.71,9.71Z"/><path class="cls-4" d="M15,9.53s0,0,.05.07A0,0,0,1,1,15,9.53Z"/><path class="cls-3" d="M12.38,9.63l.07,0v.12c.05,0,0-.09.08-.09s-.08.19-.09.29-.21-.2,0-.21C12.4,9.72,12.38,9.69,12.38,9.63Zm0,.28s0-.05,0-.08S12.34,9.91,12.4,9.91Z"/><path class="cls-4" d="M14.74,9.68s0,.06,0,.09,0,0-.08-.06S14.75,9.7,14.74,9.68Z"/><path class="cls-3" d="M14.51,9.7a1.48,1.48,0,0,0,.12.26s0,0,0,0a.63.63,0,0,1-.11-.22s-.07,0-.1,0S14.45,9.71,14.51,9.7Z"/><path class="cls-4" d="M12.42,9.83s0,.06,0,.08S12.36,9.82,12.42,9.83Z"/><path class="cls-6" d="M13.4,5.81s0,0,0,0,0,0,0-.06,0,.06,0,0v0A0,0,0,0,0,13.4,5.81Z"/><path class="cls-6" d="M12.36,6.39s0,0,0,0,0,0,0,0,0,.13,0,.16a.31.31,0,0,0,0-.2Z"/><path class="cls-6" d="M12.06,7c0,.05,0,.08,0,.09s.06,0,.08.07L12,7.09s0,0,0,0S12.06,7,12,7Z"/><path class="cls-6" d="M12,6.84s.07,0,.07,0h0l0,0H12Z"/><path class="cls-6" d="M12,6.7s0,.11,0,.11h0A.15.15,0,0,0,12,6.7Z"/><path class="cls-6" d="M11.6,8.43s0,0,0,0,.06.05.08.09-.07-.05-.09-.1h.06Z"/><path class="cls-6" d="M14.64,6.26s0,0,0,0l0,0a0,0,0,0,1,0,0s0,.06,0,.06h0s0-.07,0-.07,0,0,0,0l0,0s0,0,0,0Zm0,.1s0,0,0,0A0,0,0,0,0,14.62,6.36Z"/><path class="cls-6" d="M13.51,5.69a0,0,0,0,1,0,0s0,0,.07,0a0,0,0,0,1,0,0s0,0,0,0,0-.06,0,0h0a0,0,0,0,0,0,0A.05.05,0,0,1,13.51,5.69Z"/><path class="cls-8" d="M13.42,5.76s0,0,0,0h0a0,0,0,0,1,0,0h0s0,0,0,.06,0,0,0,0,0,.06,0,.06h0a.1.1,0,0,0,0-.08s0,0,0,0Z"/><path class="cls-8" d="M13.5,6.16s0,0,0,.06c.14.25.28.5.44.73V7c.06,0,.09-.12.16-.16s0,0,0,0a.15.15,0,0,0,0,.26c0,.11.12.2.17.3s0,0,0-.06,0,.08,0,.13.19-.12.29-.18h0c-.09.08-.2.13-.29.2.09,0,.17-.11.26-.15s-.09,0-.11.09-.1,0-.12.1,0,.1.09.13a2.87,2.87,0,0,0,.19.33,3.28,3.28,0,0,1,.22.33A2.6,2.6,0,0,1,15,7.94s0-.07,0,0a.47.47,0,0,1,0-.18.28.28,0,0,1,.17.21.69.69,0,0,0,0-.25.27.27,0,0,1-.2-.3c0-.05,0,0,.06,0s0-.07,0-.1a.17.17,0,0,1,.1.12c0-.08,0-.24-.1-.26S15,7.07,15,7.12s0,0,0,.09,0-.07,0-.09h0s0,0,.11,0,0,0,0-.07S15,7,15,7s0,.06,0,.07h0s0-.06-.06-.09,0,0,0-.08,0,0,.08,0,0-.1,0-.15c-.17,0-.22-.1-.3-.18s.09,0,.1,0,0-.12,0-.12-.09,0,0-.08,0,.13.11.12a.09.09,0,0,0,0-.07c.13,0,.09.2.12.32s.1.09.13.15,0-.06,0-.09c.17.15,0,.33.06.55a.93.93,0,0,0,.12-.19.16.16,0,0,1,.06.11s.05,0,.07,0a.34.34,0,0,1-.21.43s0,.09,0,.1,0,0,0,.09.14-.12.2-.19,0,.13,0,.17.06,0,.1,0a.34.34,0,0,1-.36.36s0,.12-.06.16.16,0,.25,0a.36.36,0,0,0-.05.11s.07,0,.12,0c-.11.09-.15.26-.27.35h0c-.09,0-.2,0-.21.06s0,0,0,0a0,0,0,0,0,0,0s0,.07,0,.09,0,0,.08,0a.31.31,0,0,1-.1.17.27.27,0,0,0,.14,0,.46.46,0,0,1-.6.09c-.08,0-.12.08-.2.1s.09,0,.16,0,0,0,0,.08a.38.38,0,0,0,.13,0c0,.06-.07.08-.12.11a.09.09,0,0,0,.08,0,.21.21,0,0,1-.16.09s-.13,0-.16,0a.48.48,0,0,1-.31-.08l.19.17s-.09,0-.13,0-.06-.09-.11-.11-.07-.07-.1-.11l.14.06s-.07-.07-.11-.09h0s0-.06,0-.09,0,0,0,0,0-.07,0-.13a.06.06,0,0,1,.06,0s0,.1,0,.14c.08-.18.12-.41.37-.44,0,0,0,.06,0,.1a.5.5,0,0,1,.17,0s0,.06-.06.11,0,0,.06,0l-.07.12a1.3,1.3,0,0,0,.19-.1s0,0,0-.08V9.05c0-.16.1-.24.12-.39a.15.15,0,0,1,.09.17s0-.14.08-.2a.3.3,0,0,1,.09.28.27.27,0,0,0,.15-.14.47.47,0,0,1-.09-.28s-.11,0-.13,0a1.76,1.76,0,0,0-.32,0H12.17a.4.4,0,0,1-.09.27.31.31,0,0,0,.15.17.33.33,0,0,1,.08-.29,1.07,1.07,0,0,1,.07.19.6.6,0,0,1,.09-.16,3.42,3.42,0,0,1,.15.35s0,.11,0,.16.13.08.18.12-.06-.07-.06-.12h.06c0-.06,0-.07-.06-.12a.39.39,0,0,1,.16,0s0-.06,0-.1c.25,0,.28.25.37.44,0,0,0,.09,0,.11-.13.07-.2.19-.43.17,0,0-.12,0-.18,0a.21.21,0,0,1-.13-.09s0,0,.08,0-.11-.06-.12-.12.1,0,.12,0,0-.05,0-.07.13,0,.17,0l-.19-.11a.49.49,0,0,1-.61-.08.64.64,0,0,1,.15,0c0-.07-.1-.08-.1-.18s0,0,.08,0a.82.82,0,0,1,0-.1l0,0s0-.07-.1-.08-.11,0-.16,0h0a.78.78,0,0,1-.19-.26s-.06-.05-.08-.09,0,0,0,0,0,0,.08,0,0-.09-.06-.11a.48.48,0,0,1,.24.06c0-.06,0-.11,0-.17a.38.38,0,0,1-.38-.36s.06,0,.09,0,0-.12,0-.18.18.09.19.21a1.18,1.18,0,0,0,0-.2.34.34,0,0,1-.22-.41s0,0,.06,0a.3.3,0,0,0,.06-.12.84.84,0,0,1,.13.19c.08-.2-.1-.39.06-.55,0,0,0,.06,0,.09s.11-.05.12-.12,0-.1,0-.11a.4.4,0,0,1,.12-.23s0,0,0,.07.06,0,.07-.06,0,.09,0,.12.06,0,.1,0-.09.15-.18.18-.15,0-.15.07h0s0,0,0,.08,0,0,.09,0,0,0,0,.07h0c0,.06,0,0-.06.08s0,0,0,0,0,0,0,0a.59.59,0,0,0-.09.09l-.07,0c0,.1,0,.11,0,.21s.05-.1.11-.11v.1s0-.06.07,0v.09a.26.26,0,0,1-.2.21.86.86,0,0,0,0,.24c0-.08.08-.17.18-.2v.17s0,0,0,0a4.32,4.32,0,0,1,.15.41A1.29,1.29,0,0,1,12.35,8c.06-.11.13-.21.19-.33h0c0-.06.07-.09.08-.16a.06.06,0,0,1,0,0l0,0c-.07-.09-.19-.13-.28-.2s0,0,0,0a2,2,0,0,1,.26.18c.06,0,.09-.07.06-.12s0,0,0,0a2.48,2.48,0,0,0,.18-.3A.47.47,0,0,0,13,7c0-.05-.07-.08-.1-.12s0,0,0-.06.1.15.17.14c.12-.18.22-.38.35-.56a.22.22,0,0,1,0-.09s0,.07,0,.07.06-.08.07-.13S13.46,6.1,13.5,6.16Zm-1.4,2.31h2.75c-.45-.78-.91-1.55-1.39-2.31C13,6.94,12.54,7.68,12.11,8.47Zm0-.09c-.09-.1-.08-.3-.15-.42,0,.16-.2.27-.08.42A.47.47,0,0,1,12,8.19c0,.05,0,.14,0,.19a.15.15,0,0,1,0-.08S12.1,8.38,12.14,8.38Zm2.68,0s0-.07.08-.08a.1.1,0,0,0,0,.08c0-.07,0-.16,0-.19a2.18,2.18,0,0,0,.11.19c.1-.18-.08-.27-.1-.44A1.71,1.71,0,0,1,14.82,8.38ZM11.89,7.08H12C12,7,11.87,7,11.85,7A.08.08,0,0,1,11.89,7.08Z"/><path class="cls-8" d="M12.4,6.29s0,0,0,0,0,0,0,0H12.4l.31.36s0,0-.06,0-.16-.17-.22-.27,0,.09,0,.09,0,0,0,0,0,0,0,0,0-.06,0-.07,0,0,0,0h0s0,0,0,0Z"/><path class="cls-8" d="M13.2,6.75a2.7,2.7,0,0,1,.18-.29s0,0,0,0a.5.5,0,0,0-.07.1s0,0,0,0,0,0,0,0S13.22,6.74,13.2,6.75Z"/><path class="cls-8" d="M12.65,7.67a.44.44,0,0,1,.08-.12A.45.45,0,0,1,12.65,7.67Z"/><path class="cls-8" d="M14.35,7.76c.14.2.27.43.39.65H12.22a7.07,7.07,0,0,1,.4-.67.05.05,0,0,0,0,0s-.05.1-.09.13a.91.91,0,0,0,.18-.13h0c-.11.1-.24.16-.3.31.46,0,.88,0,1.32,0-.19-.13-.34-.3-.53-.44,0,0,.05,0,.08,0s0,.06,0,.09l.44.36c.14,0,.24,0,.37,0a3.29,3.29,0,0,1-.36-.31s0,0,0,0,0,0,0,0,.21.2.32.28.2,0,.31,0a2.32,2.32,0,0,0-.26-.23c.12.06.19.17.3.23a10.82,10.82,0,0,1-1.6.07s.22,0,.16,0h-.1a.28.28,0,0,0-.19,0s0,0,.07,0a2.59,2.59,0,0,0-.38,0c-.07.09-.12.2-.19.3h.84a6.8,6.8,0,0,0,.84,0c.11,0,.23-.09.34,0a.66.66,0,0,0-.28,0,.94.94,0,0,0,.32,0h.06c.1,0,.19-.07.28,0s-.2,0-.25,0,.26,0,.35,0c-.12-.22-.24-.42-.37-.63Z"/><path class="cls-8" d="M13.77,6.77s0,0-.06-.08,0,0,0,0l0,0s0-.06-.07-.1h0A2.21,2.21,0,0,1,13.77,6.77Z"/><path class="cls-4" d="M13.38,6.46c0-.06.05-.13.11-.17s.09.13.11.21h0a.27.27,0,0,0-.22,0S13.38,6.48,13.38,6.46Z"/><path class="cls-3" d="M14.53,6.32h0s-.11.13-.17.2a2.54,2.54,0,0,0-.18.19s-.07.06-.09.11S14,6.92,14,7v0C14.16,6.73,14.35,6.53,14.53,6.32Z"/><path class="cls-3" d="M12.71,6.66,12.4,6.3h0c.18.22.38.43.57.64-.07,0-.1-.11-.17-.14S12.74,6.71,12.71,6.66Z"/><path class="cls-6" d="M12.38,6.33s0,0,0,0v0s0,0,0,0,0,0,0,0,0,0,0,0h0s0-.06,0-.07,0,0,0,0,0,0,.06,0S12.42,6.32,12.38,6.33Z"/><path class="cls-3" d="M14.58,6.43s0,0,0-.08,0,0,0,0S14.62,6.43,14.58,6.43Z"/><path class="cls-3" d="M12.36,6.38s0,0,0,0,0,0,0,.07,0,0,0,0,0,0,0,0Z"/><path class="cls-5" d="M12.4,6.44c.06,0,0-.08,0-.09s.16.17.22.27a.73.73,0,0,0,0,.19s0,.13,0,.19a1.09,1.09,0,0,0,.06.37c0,.06,0,.11-.06.12a2,2,0,0,0-.26-.18.45.45,0,0,1,0-.15c0-.06,0-.16,0-.2s0-.24,0-.37S12.39,6.49,12.4,6.44Z"/><path class="cls-8" d="M14.56,6.44c-.07,0,0-.08,0-.09s-.16.17-.22.27-.05.06-.09.08a2.54,2.54,0,0,1,.18-.19c.06-.07.16-.16.17-.2h0s0,0,0,0,0,0,0,0,0,0,0,0h0l0,0s0,0,0,0,0,0,0,0,0,.07,0,.08h0Z"/><path class="cls-6" d="M12,7.1h0v0l0,0s0,0,0,.06,0,0,0,0,0,0-.07,0A.59.59,0,0,1,12,7.1Z"/><path class="cls-7" d="M15,8.24h0s0-.06,0-.06A.08.08,0,0,0,15,8.24Z"/><path class="cls-3" d="M15,7.09h0S15,7,15,7s.08,0,.09,0,0,0,0,.07-.08,0-.11,0a1,1,0,0,1-.14.09.37.37,0,0,0-.12.09.57.57,0,0,0-.11.07c-.09,0-.17.14-.26.15.09-.07.2-.12.29-.2a3.91,3.91,0,0,0,.33-.21Z"/><path class="cls-4" d="M13.66,9.5h0s.12.05.11.09l-.14-.06h0s0,0,0,0S13.63,9.49,13.66,9.5Z"/><path class="cls-9" d="M13.66,6.61l0,0a.39.39,0,0,0-.4,0s0,0,0,0A.41.41,0,0,1,13.66,6.61Z"/><path class="cls-5" d="M13.28,6.65a.39.39,0,0,1,.4,0s0,0,0,0a.39.39,0,0,0-.47,0S13.26,6.65,13.28,6.65Z"/><path class="cls-4" d="M12.64,6.81a.73.73,0,0,1,0-.19s0,0,.06,0,.09.08.11.13,0,0,0,.06a.46.46,0,0,0,0,.26,2.48,2.48,0,0,1-.18.3s0,0,0,0A1.09,1.09,0,0,1,12.63,7S12.64,6.87,12.64,6.81Z"/><path class="cls-4" d="M13.22,7c0-.1-.11,0,0,0Zm.54.22s0,0,0,0,0-.09,0,0,0,0,0,0,0,0,0,0,0,0-.06,0S13.78,7.26,13.76,7.24Z"/><path class="cls-6" d="M13.56,6.87s-.08,0-.13,0,0,0,0,0,0,0,0,0,0,0,0,0,0,0,0,0,.07,0,.09.06S13.57,6.93,13.56,6.87Z"/><path class="cls-8" d="M12,7.1s.08,0,.1.07l-.08,0s0,.08,0,.1h0s0,0,0,0,0-.05,0-.08Z"/><path class="cls-3" d="M12.6,7.5s0,0,0,0-.2-.13-.29-.2a1.56,1.56,0,0,1-.18-.11S12,7.09,12,7.1h0s0,0,0,0l.09.06.27.18c.09.07.21.11.28.2Z"/><path class="cls-8" d="M14.68,7.3a.37.37,0,0,1,.12-.09s-.09,0-.11.09Z"/><path class="cls-3" d="M15,7.12s0,0,0,0h0s0,0,0,0S14.93,7.17,15,7.12Z"/><path class="cls-4" d="M12.26,7.28c.1.07.2.12.29.2l0,0a.56.56,0,0,0,0,.23c-.06.11-.13.22-.19.33a.76.76,0,0,1-.09-.36s0-.12,0-.18V7.37S12.28,7.29,12.26,7.28Z"/><path class="cls-8" d="M13.5,7.66h0l0,0c.17.11.29.26.46.37-.18-.06-.29-.29-.49-.36h0s0,0,0,0Z"/><path class="cls-3" d="M13.51,7.66c.12,0,.16.07.24.09a3.29,3.29,0,0,0,.36.31c-.13,0-.23,0-.37,0l-.44-.36s-.07-.06,0-.09.1,0,.17.06h0c.21.07.31.3.49.36-.17-.11-.29-.26-.46-.37Z"/><path class="cls-8" d="M14,7.76s0,0,.08,0,.18.2.26.27C14.18,8,14.08,7.82,14,7.76Z"/><path class="cls-3" d="M14,7.75s0,0,.07,0,0,0,.05,0a2.32,2.32,0,0,1,.26.23c-.11,0-.2,0-.31,0s-.21-.19-.32-.28,0,0,0,0,.09,0,.16,0,.22.22.33.26C14.22,7.94,14,7.77,14,7.75Z"/><path class="cls-9" d="M12.7,7.77a.91.91,0,0,1-.18.13s.05-.1.09-.13Z"/><path class="cls-9" d="M14.11,7.77h.24c.13.2.25.41.37.63-.08,0-.25,0-.35,0s.29,0,.25,0-.18,0-.28,0-.06,0-.09,0-.07,0-.12,0a.4.4,0,0,0-.2,0h-.09c-.15-.11-.35.06-.51,0a.12.12,0,0,0-.11,0,.17.17,0,0,0-.09,0H13a.31.31,0,0,0-.29,0H12.6a.37.37,0,0,0-.3,0,.71.71,0,0,1,.3,0s.1,0,.12,0a.37.37,0,0,1,.29,0s.1,0,.12,0,.19,0,.31,0,.26-.1.38,0,0,0,0,0,.16-.05.26-.06a1,1,0,0,1,.18.07.94.94,0,0,1-.32,0,.66.66,0,0,1,.28,0c-.11-.07-.22,0-.34,0a6.8,6.8,0,0,1-.84,0h-.84c.07-.1.12-.21.19-.3a2.59,2.59,0,0,1,.38,0s-.09,0-.07,0a.28.28,0,0,1,.19,0c-.16.07-.35-.06-.49,0,.15,0,.37.07.51,0H13c.16.09.27,0,.44,0s.13,0,.21,0l.11,0a.7.7,0,0,1,.18,0c.12,0,.23,0,.32,0s.13.06.2,0-.15-.07-.23-.07-.11,0-.17,0-.19,0-.29,0l-.11,0a.8.8,0,0,1-.2,0c-.15,0-.29.07-.45,0,.06,0-.13,0-.16,0A10.82,10.82,0,0,0,14.46,8c-.12-.06-.18-.17-.3-.23S14.11,7.78,14.11,7.77Zm.43.35a.64.64,0,0,0-.46,0A1.08,1.08,0,0,1,14.54,8.11Z"/><path class="cls-6" d="M14.08,8.11a.64.64,0,0,1,.46,0A1.08,1.08,0,0,0,14.08,8.11Z"/><path class="cls-6" d="M12.94,8.13c-.14.09-.36,0-.51,0,.14-.08.33,0,.49,0Z"/><path class="cls-4" d="M13.32,8.32c.17.1.36-.08.51,0,0,0,0,0,0,0s-.24,0-.38,0-.21-.1-.31,0,0,0,0,0a.17.17,0,0,1,.09,0Z"/><path class="cls-4" d="M13.93,8.35a.4.4,0,0,1,.2,0s0,0,0,0-.14.07-.26.06S13.93,8.38,13.93,8.35Z"/><path class="cls-6" d="M14.13,8.3c.05,0,.08,0,.12,0s.11,0,.09,0h-.06a1,1,0,0,0-.18-.07S14.13,8.31,14.13,8.3Z"/><path class="cls-3" d="M15.52,8.64a.16.16,0,0,1,.21-.17c.13,0,.16.3,0,.25.21-.12-.19-.3-.13-.07C15.58,8.67,15.55,8.63,15.52,8.64Z"/><path class="cls-7" d="M14.29,9.09s0,0,.06,0v.06l0,0a.07.07,0,0,0,0,0Z"/><path class="cls-5" d="M14.65,8.49a1.05,1.05,0,0,1-1,.1c0,.05,0,.07,0,.13s-.07.06-.11.08a.76.76,0,0,0-.07-.31c0,.11-.06.22-.06.31s-.08,0-.1-.08,0-.08,0-.13a1,1,0,0,1-1.06-.11h.34a.63.63,0,0,0,.64.09c-.08,0-.19,0-.23-.09h.89a.34.34,0,0,1-.23.08.6.6,0,0,0,.64-.08A1.76,1.76,0,0,1,14.65,8.49Z"/><path class="cls-6" d="M14.9,8.84c0-.07.13-.05.21-.06s-.1,0-.11,0,0,0,0,0Z"/><path class="cls-4" d="M13.56,9.47c0-.06,0-.14.06-.2s0,0,0,0,0,.11,0,.13A.15.15,0,0,1,13.56,9.47Z"/><path class="cls-10" d="M13.61,9.26c0,.06,0,.14-.06.2s0,.06,0,0,0,0,0,0,0,0,0,.07a.54.54,0,0,1-.1,0c.08,0,0-.11,0-.15h0a.33.33,0,0,1,0-.16S13.61,9.25,13.61,9.26Z"/><path class="cls-8" d="M13.28,9.63a.22.22,0,0,0-.16.13.36.36,0,0,0-.13,0,.67.67,0,0,1,.38-.25Z"/><path class="cls-5" d="M13.6,9.6s-.06-.06,0-.07h0s.07.07.1.11a.75.75,0,0,0,0,.17s0,0-.06,0,0,0,0,0S13.62,9.69,13.6,9.6Z"/><path class="cls-3" d="M13.5,5.85s0,0,0,0,0,0,0-.06h0s0,0,0,0A0,0,0,0,1,13.5,5.85Z"/><path class="cls-4" d="M13.63,7s-.09,0-.09-.06,0,0,0,0,0,0,0,0,0-.05,0,0,0,0,0,0,.12,0,.13,0S13.64,6.93,13.63,7Z"/><path class="cls-7" d="M11.9,7.29a.07.07,0,0,0,0-.06h0S11.87,7.29,11.9,7.29Z"/><path class="cls-7" d="M15.08,7.7a0,0,0,0,0,0,0s0,0,0-.06Zm0-.41a.07.07,0,0,0,0-.06h0S15,7.28,15.08,7.29Z"/><path class="cls-6" d="M13,8.13c.16.06.3,0,.45,0a.8.8,0,0,0,.2,0l.11,0c.1,0,.2,0,.29,0s.11,0,.17,0,.16.07.23.07-.13,0-.2,0-.21,0-.32,0a.7.7,0,0,0-.18,0l-.11,0c-.08,0-.13,0-.21,0s-.28.09-.44,0Z"/><path class="cls-6" d="M12.55,8.24a.22.22,0,0,0-.2,0c0-.09.14,0,.21,0s.08,0,.11,0,.18.05.29,0a1.33,1.33,0,0,1,.44,0h0s0,0-.07,0-.26-.07-.36,0h0c-.11,0-.25-.09-.32,0Z"/><path class="cls-6" d="M13.7,8.22c.09,0,.17,0,.25,0s.1,0,.16,0,.16,0,.26,0,.16.06.26.05c-.12,0-.27-.09-.38,0s0,0-.07,0-.24-.09-.33,0,0,0-.08,0-.06,0-.06,0Z"/><path class="cls-6" d="M12.65,8.25s.11,0,.12,0,0,0-.08,0Z"/><path class="cls-4" d="M12.72,8.35a.31.31,0,0,1,.29,0h0a.37.37,0,0,0-.29,0Z"/><path class="cls-4" d="M12.6,8.36a.71.71,0,0,0-.3,0,.37.37,0,0,1,.3,0Z"/><path class="cls-6" d="M13,8.35h.11s0,0,0,0-.1,0-.12,0Z"/><path class="cls-6" d="M12.6,8.35h.12s-.1,0-.12,0Z"/><path class="cls-4" d="M14.33,8.48a.6.6,0,0,1-.64.08.34.34,0,0,0,.23-.08Z"/><path class="cls-6" d="M11.84,8.78s.13,0,.16,0,0,0,0,0h0S11.85,8.82,11.84,8.78Z"/><path class="cls-6" d="M12.69,9.67c.06,0,.14,0,.18,0S12.72,9.69,12.69,9.67Z"/><path class="cls-4" d="M14.22,6.7s.05-.06.09-.08a1.59,1.59,0,0,1,0,.24v.28a1.06,1.06,0,0,1,0,.22s0,.05,0,.06-.12-.19-.17-.3a.59.59,0,0,0,0-.26s0,0,0,0S14.19,6.74,14.22,6.7Z"/><path class="cls-4" d="M14.69,7.3c0,.07,0,.14,0,.18v.16a.69.69,0,0,1-.08.38,2.87,2.87,0,0,1-.19-.33.74.74,0,0,0,0-.23s.09,0,.11-.09a.57.57,0,0,1,.11-.07Z"/><path class="cls-4" d="M13.4,8.22a.33.33,0,0,1,.3,0h0c-.07,0-.22-.06-.28,0h0Z"/><path class="cls-4" d="M12.63,8.48H13c0,.07.15.06.23.09A.63.63,0,0,1,12.63,8.48Z"/><path class="cls-4" d="M13.42,9.44a.15.15,0,0,1-.09-.18.77.77,0,0,1,.11.18h0Z"/><path class="cls-6" d="M14.32,6.85a.73.73,0,0,1,0,.28Z"/><path class="cls-6" d="M14.09,9.68s.11,0,.16,0S14.14,9.67,14.09,9.68Z"/><path class="cls-9" d="M12.35,7s0,.14,0,.2S12.36,7,12.35,7Z"/><path class="cls-3" d="M12.31,6.23c0-.05,0,0,.07,0s0,0,0,.07h0s0,0-.06,0S12.31,6.24,12.31,6.23Z"/><path class="cls-3" d="M14.58,6.23s0,0,.09,0,0,0,0,.07h0s0,0,0,0h0A.09.09,0,0,1,14.58,6.23Z"/><path class="cls-3" d="M11.85,7S12,7,12,7.08h-.07A.08.08,0,0,0,11.85,7Z"/><path class="cls-11" d="M13.11,7.31Z"/><path class="cls-11" d="M13.1,7.22v0h0v0h0a0,0,0,0,1,0,0v0h0v0a0,0,0,0,0,0,0s0,0,0,0h0v0Z"/><path class="cls-11" d="M13.18,7.11h0a0,0,0,0,0,0,0h0a0,0,0,0,1,0,0h0s0,0,0,0h0a0,0,0,0,1,0,0v0Z"/><path class="cls-11" d="M13.21,7l0,0h0l0,0h0l0,0-.06,0,0,0h0l0,0h0l0,0Z"/><path class="cls-11" d="M13.19,7h0V7h0l0,0h0Zm0,0h0a0,0,0,0,0,0,0h0Z"/><path class="cls-11" d="M13.26,6.93h0l0,0h0l0,.05h0Z"/><path class="cls-11" d="M13.3,6.89l0,.06h0l0-.06Z"/><path class="cls-11" d="M13.37,6.9h0v0h0l0,0,0-.07,0,0h0v0h0Z"/><path class="cls-11" d="M13.45,6.88v0h0v.07h0l0,0v0h0v.06h0V6.85h0l0,0v0h0a.1.1,0,0,1,0,0v0h0l0,.07h0Z"/><path class="cls-11" d="M13.48,6.84h0v0h0a0,0,0,0,1,0,0h0Zm0,.06h0s0,0,0,0h0Zm0,0h0Z"/><path class="cls-11" d="M13.55,6.84h0a0,0,0,0,1,0,0l0,0h0v0h0v0s0,0,0,0h0v0h0Zm0,0h0s0,0,0,0h0Z"/><path class="cls-11" d="M13.64,6.91h0v0h0l0-.07h0v0h0Z"/><path class="cls-11" d="M13.75,6.93h0V7a0,0,0,0,1,0,0h0l0,0h0Zm0,.05h0a0,0,0,0,0,0,0,0,0,0,0,0,0,0h0Z"/><path class="cls-11" d="M13.8,7l0,0,0,0,0,0h0l0,0,.06,0,0,0h0l0,0h0l0,0Z"/><path class="cls-11" d="M13.88,7.16h0Z"/><path class="cls-11" d="M13.89,7.23s0,0,0,0h0l0,0a0,0,0,0,1,0,0s0,0,0,0h0a0,0,0,0,1,0,0Zm-.07,0h0v0h0Zm.06,0h0Z"/><path class="cls-11" d="M13.82,7.26h0l0,0h0v0h0a0,0,0,0,1,0,0,0,0,0,0,1,0,0l0,0h0v0h0Z"/><path class="cls-11" d="M13.87,7.36h0v0h0l-.07,0h0Z"/><path class="cls-12" d="M12.73,8.9s0-.12.07-.08a.91.91,0,0,0,.34.18,1,1,0,0,0,.6,0c.17-.07.4-.21.45-.18s.06.06.07,0,.06,0,0-.09-.17-.07-.33,0a1.06,1.06,0,0,1-.75,0c-.22-.11-.31-.15-.37-.07S12.73,8.9,12.73,8.9Z"/><path class="cls-13" d="M13,8.81h0l0,0a0,0,0,0,1,0,0l0,0h0Zm0,.06h0a0,0,0,0,0,0,0,0,0,0,0,0,0,0h0Z"/><path class="cls-13" d="M13.06,8.85l0,.07h0l0-.07Z"/><path class="cls-13" d="M13.07,8.93a0,0,0,0,1,0,0,0,0,0,0,1,0,0,0,0,0,0,1,0,0,0,0,0,0,1,0,0Zm0,0s0,0,0,0a0,0,0,0,0,0,0s0,0,0,0a0,0,0,0,0,0,0Z"/><path class="cls-13" d="M13.11,8.94h0s0,0,0,0,0,0,0,0h0s0,0,0,0,0,0,0,0a0,0,0,0,1,0,0h0Z"/><path class="cls-13" d="M13.25,8.92V9s0,0,0,0,0,0,0,0v0h0V9a0,0,0,1,1-.05,0v0Z"/><path class="cls-13" d="M13.29,9l0-.07h0V9h0V8.94h0V9h0l0,0v0h0V9Z"/><path class="cls-13" d="M13.38,8.95V9h0V8.95Z"/><path class="cls-13" d="M13.41,9a0,0,0,0,1,0,0,0,0,0,0,1,0,0,0,0,0,0,1,0,0,0,0,0,0,1,0,0Zm0,0s0,0,0,0,0,0,0,0,0,0,0,0,0,0,0,0Z"/><path class="cls-13" d="M13.46,9V8.95h0l0,0V9h0V8.95h0V9h0l0,0V9h0V9Z"/><path class="cls-13" d="M13.63,8.94h0V9h0Z"/><path class="cls-13" d="M13.69,8.93V9h0V8.93Z"/><path class="cls-13" d="M13.7,8.93h0a0,0,0,0,1,0,0h0a0,0,0,0,1,0,0h0Zm0,0h0v0h0Zm0,0h0s0,0,0,0h0Z"/><path class="cls-13" d="M13.8,8.94h0V9h0l0-.07h0v0h0Z"/><path class="cls-13" d="M13.79,8.91h0a0,0,0,0,1,0,0h0v0h0V9h0Zm0,0h0a0,0,0,0,0,0,0h0Z"/><path class="cls-13" d="M13.85,8.88h0l0,0h0l0,.06h0Z"/><path class="cls-13" d="M13.91,8.89v0h0V8.85h0l.06.05h0l0,0Zm0,0,0,0h0v0Z"/><path class="cls-13" d="M13.94,8.83h0l0,0a0,0,0,0,1,0,0l0,0h0Zm0,.05h0a0,0,0,0,0,0,0,0,0,0,0,0,0,0h0Z"/></g></g></svg>