<svg xmlns="http://www.w3.org/2000/svg" viewBox="0 0 26.89 15.9"><defs><style>.cls-1,.cls-6{fill:#ffbe29;}.cls-2{fill:#eb7400;}.cls-3{fill:#00534e;}.cls-4{fill:#bc6128;}.cls-4,.cls-5,.cls-6,.cls-7,.cls-8,.cls-9{fill-rule:evenodd;}.cls-5{fill:#d19a1c;}.cls-7{fill:#8d153a;}.cls-8{fill:#f5c71d;}.cls-9{fill:#7d191e;}</style></defs><title>flag_144</title><g id="レイヤー_2" data-name="レイヤー 2"><g id="flag"><rect class="cls-1" width="26.89" height="15.9"/><rect class="cls-2" x="1.52" y="1.62" width="5.74" height="12.56"/><rect class="cls-3" x="1.35" y="1.6" width="3.03" height="12.58"/><path class="cls-4" d="M8.44,1.54h0V14.25C8.42,10,8.44,5.77,8.44,1.54Z"/><path class="cls-4" d="M9.48,2a.21.21,0,0,1,.14,0Z"/><path class="cls-4" d="M24.3,2a.17.17,0,0,1,.13,0Z"/><path class="cls-4" d="M18.72,4.28a.14.14,0,0,1,.13,0Z"/><path class="cls-4" d="M16.4,4.41a.19.19,0,0,1,0,.14Z"/><path class="cls-4" d="M17,4.85a.18.18,0,0,1-.14,0Z"/><path class="cls-4" d="M13.92,5.06a.12.12,0,0,1,.12,0Z"/><path class="cls-4" d="M16.53,5.22h.19A.29.29,0,0,1,16.53,5.22Z"/><path class="cls-4" d="M12.82,5.39s0-.12,0-.14S12.85,5.37,12.82,5.39Z"/><path class="cls-4" d="M21.31,5.39h.12A.13.13,0,0,1,21.31,5.39Z"/><path class="cls-4" d="M12.81,5.76c0-.05,0-.14,0-.17S12.84,5.73,12.81,5.76Z"/><path class="cls-5" d="M12.81,6v.24h0C12.81,6.14,12.78,6,12.81,6Z"/><path class="cls-4" d="M19.24,6.19h.17S19.29,6.18,19.24,6.19Z"/><path class="cls-4" d="M14.66,6.2s-.1,0-.12,0S14.64,6.18,14.66,6.2Z"/><path class="cls-5" d="M14.78,6.2h.13A.14.14,0,0,1,14.78,6.2Z"/><path class="cls-4" d="M12.8,6.21h0V7.27h0Z"/><path class="cls-4" d="M16.63,6.35s0-.11,0-.13S16.65,6.32,16.63,6.35Z"/><path class="cls-4" d="M14.28,6.39s.08,0,.12,0S14.31,6.38,14.28,6.39Z"/><path class="cls-5" d="M15,6.5a.22.22,0,0,1,.15,0Z"/><path class="cls-4" d="M20.11,6.69s.08,0,.12,0S20.14,6.68,20.11,6.69Z"/><path class="cls-5" d="M14.43,6.82a.12.12,0,0,1,.12,0Z"/><path class="cls-4" d="M15.86,6.94s0,.1,0,.12S15.84,7,15.86,6.94Z"/><path class="cls-4" d="M14.72,7.27a.28.28,0,0,1,0-.18Z"/><path class="cls-5" d="M12.8,7.27h0v.19S12.81,7.33,12.8,7.27Z"/><path class="cls-4" d="M22.08,7.8a.28.28,0,0,1,0,.18Z"/><path class="cls-4" d="M12.56,8.15a.13.13,0,0,1-.12,0Z"/><path class="cls-4" d="M12.41,8.32h.24A.48.48,0,0,1,12.41,8.32Z"/><path class="cls-4" d="M13.92,8.73v.12A.13.13,0,0,1,13.92,8.73Z"/><path class="cls-4" d="M14.93,9.1c0-.06,0-.17,0,0S14.93,9.08,14.93,9.1Z"/><path class="cls-4" d="M12.33,9.19h.18s0,0,0,0,0,0,0,0S12.36,9.23,12.33,9.19Z"/><path class="cls-5" d="M12.15,9.22h.31A.87.87,0,0,1,12.15,9.22Z"/><path class="cls-4" d="M12.37,9.43s.08,0,.12,0S12.41,9.42,12.37,9.43Z"/><path class="cls-5" d="M21.5,9.81V10A.19.19,0,0,1,21.5,9.81Z"/><path class="cls-4" d="M12.74,9.83h.13A.15.15,0,0,1,12.74,9.83Z"/><path class="cls-4" d="M12.17,10.6h.14A.19.19,0,0,1,12.17,10.6Z"/><path class="cls-4" d="M12.7,10.6h.2A.38.38,0,0,1,12.7,10.6Z"/><path class="cls-5" d="M19,10.84A.16.16,0,0,1,19,11Z"/><path class="cls-4" d="M20.78,10.86s0,.08,0,.12S20.79,10.9,20.78,10.86Z"/><path class="cls-4" d="M19.72,11.89c0,.06,0,.08.07.07s-.06,0-.08,0S19.7,11.89,19.72,11.89Z"/><path class="cls-4" d="M18.32,11.92h.26A.55.55,0,0,1,18.32,11.92Z"/><path class="cls-4" d="M18.72,11.92h.83A5.78,5.78,0,0,1,18.72,11.92Z"/><path class="cls-4" d="M15,12h1.13C15.77,12,15.34,12,15,12Z"/><path class="cls-4" d="M9.65,13.9h.13A.14.14,0,0,1,9.65,13.9Z"/><path class="cls-4" d="M25.45,14.26c-5.66,0-11.35,0-17,0h17Z"/><path class="cls-5" d="M8.44,1.54c5.65,0,11.35,0,17,0,0,4.2,0,8.53,0,12.73h0c0-4.21,0-8.47,0-12.7-5.65,0-11.34,0-17,0Z"/><path class="cls-6" d="M9.63,2c.31,0,.42.4.54.65l.3.63c-.47-.11-1-.06-1.35-.3A.57.57,0,0,1,9,2.39c0-.05.07-.09.07-.13,0-.2-.26-.26-.29-.42s.07.06.12.07.18.18.26.28.06,0,.08-.07A.56.56,0,0,1,9.48,2Z"/><path class="cls-5" d="M8.91,1.91a3,3,0,0,1,.26.26s0,0,.08-.06,0,.07-.08.07S9,2,8.91,1.91Z"/><path class="cls-5" d="M24.92,2A.57.57,0,0,1,25,1.89Z"/><path class="cls-6" d="M25,1.89s.05-.08.11,0-.29.21-.3.39.11.24.12.38a.45.45,0,0,1-.16.4c-.3.23-.87.18-1.33.3.06-.17.17-.39.28-.62S24,2.07,24.3,2h.13a.42.42,0,0,1,.3.13c.08,0,.12-.12.19-.17Z"/><path class="cls-4" d="M21.33,6.52c0,.09.08.43-.08.36h.08Z"/><path class="cls-4" d="M17.17,6.17c0,.1,0,.3-.13.24,0,0,.09,0,.13,0Z"/><path class="cls-4" d="M16.73,5.5a2.36,2.36,0,0,1,.32.31C16.94,5.71,16.85,5.59,16.73,5.5Z"/><path class="cls-5" d="M16.55,5.88v0a.41.41,0,0,1,.1.1s0-.05-.08-.07S16.56,5.88,16.55,5.88Z"/><path class="cls-4" d="M16.78,5.41c.11.1.22.21.32.32A4.53,4.53,0,0,1,16.78,5.41Z"/><path class="cls-5" d="M14.92,5.84l.21.22A2.29,2.29,0,0,1,14.92,5.84Z"/><path class="cls-5" d="M13.7,7.13s.13-.13.17-.2C13.83,7,13.74,7,13.7,7.13Z"/><path class="cls-4" d="M13.92,7.14s0,0,0,0S14.16,7.14,13.92,7.14Z"/><path class="cls-4" d="M14.14,7l.12-.12A.7.7,0,0,1,14.14,7Z"/><path class="cls-4" d="M14.61,11.81s.07-.1.13-.12a0,0,0,0,1,0,0S14.66,11.79,14.61,11.81Z"/><path class="cls-7" d="M8.45,1.54c5.67,0,11.37,0,17,0,0,4.23,0,8.49,0,12.7h-17Zm.47.37s0-.08-.12-.07.29.22.29.42c0,0-.05.08-.07.13A.57.57,0,0,0,9.11,3c.3.23.87.18,1.35.3l-.3-.63c-.11-.24-.22-.62-.54-.65a.21.21,0,0,0-.14,0,.56.56,0,0,0-.23.07s0,.06-.08.06A3,3,0,0,0,8.91,1.91ZM24.3,2c-.32,0-.42.38-.55.66s-.21.45-.28.62c.47-.12,1-.06,1.33-.3a.45.45,0,0,0,.16-.4c0-.14-.12-.29-.12-.38s.23-.26.3-.39-.06,0-.11,0a.57.57,0,0,0-.12.12c-.07,0-.11.13-.19.17a.42.42,0,0,0-.3-.13A.17.17,0,0,0,24.3,2ZM12.83,5.25a12.14,12.14,0,0,1,.11-1.46,5.53,5.53,0,0,0-.5,2c-.1.73-.17,1.51-.23,2.27a1.33,1.33,0,0,0,.16,0,.53.53,0,0,0,.25,0A.49.49,0,0,0,12.83,8a4.77,4.77,0,0,1,0-.54V5.76s0-.12,0-.17v-.2S12.83,5.29,12.83,5.25Zm1.71.94a4.22,4.22,0,0,1-.75-.07.55.55,0,0,0,.49.28s.1,0,.12,0,.2-.05.33,0a.22.22,0,0,1,0,.2,1.07,1.07,0,0,1,.23,0h.15a.7.7,0,0,1,.25.06c0-.23-.22-.47-.49-.36h-.25S14.58,6.2,14.54,6.19Zm-2.1,2A.47.47,0,0,1,12,7.93s.07-.07.07-.14c-.21-.19-.58,0-.39.29a1.12,1.12,0,0,0,.72.25.48.48,0,0,0,.24,0c.24,0,.6-.06.63-.3A.2.2,0,0,0,13,7.84.33.33,0,0,0,13,8a.78.78,0,0,1-.43.12Zm-.59.33c0,.18.47.2.73.18s.46,0,.41-.2-.27,0-.43,0-.43-.08-.6,0S11.86,8.42,11.86,8.48Zm2.47,2a.27.27,0,0,0,.23-.33c-.05-.26-.36-.46-.51-.69-.26-.39-.25-1-.86-1a1,1,0,0,1-.08.11s.05.19,0,.2a.17.17,0,0,1,0,.24.14.14,0,0,1,0,.23c.07.12.23.3.2.48s-.14.16-.18.26a.46.46,0,0,0,.34.11c0-.05,0-.17.07-.21C13.7,10,13.91,10.48,14.32,10.43ZM11.88,8.78c0,.15.45.17.69.16s.38-.05.37-.17-.43,0-.65,0-.23-.06-.32,0S11.88,8.73,11.88,8.78Zm.63.42c.18,0,.41,0,.44-.21s-.44,0-.68,0S12,8.91,12,9s.24.16.38.18.14,0,.17,0h-.35c-.09,0-.19,0-.23.06s.27.13.44.15.1,0,.12,0c.19,0,.49,0,.48-.24s-.28,0-.43,0S12.51,9.21,12.51,9.19Zm7,2.73a4.74,4.74,0,0,0,.29-1c.18-.11.4-.24.45-.44-.26,0-.37.13-.55.13.07-.39.39-.88.12-1.21s-1.22.05-1.42.29a.28.28,0,0,0-.06.24c.05.39.56.53.57.94V11a1.77,1.77,0,0,1-.16.61c-.35-.19-.88-.11-.86.37a.75.75,0,0,0,.33-.16c.09-.07.15-.19.26-.2s-.16.22-.23.33a.55.55,0,0,0,.26,0c.08-.08.13-.26.25-.26s-.08.16-.11.26A5.78,5.78,0,0,0,19.56,11.92Zm-6.69-2.1a.22.22,0,0,0,.21-.36c-.16-.09-.25.17-.32.17s-.1-.14-.19-.14-.17.1-.3.16c-.06-.11-.18-.24-.33-.19a.16.16,0,0,0-.11.13c0,.25.37.3.61.24-.07.09-.14.15-.12.29s.06.11.06.17-.1.2-.26.2c.06-.09.1-.25,0-.33a.4.4,0,0,0-.23,0c-.19.19-.06.49.26.44a.19.19,0,0,0,.14,0c.06,0,.08,0,.13,0,0,.23-.2.18-.24.34a.2.2,0,0,0,.23,0,.24.24,0,0,0,.13.21c.08-.05.05-.16.07-.25s.22,0,.23-.06-.13-.13-.24-.17,0-.09,0-.11h.07a.38.38,0,0,0,.2,0c.17,0,.35,0,.37-.18a.28.28,0,0,0-.34-.27c-.08.08,0,.25,0,.32s-.2,0-.23-.13.08-.26,0-.39-.06-.05-.06-.12h.06A.15.15,0,0,0,12.87,9.83ZM9.78,13.9c.58-.11.43-.94.57-1.49l-.62.29a2,2,0,0,0-.58.32.56.56,0,0,0,.07.66L9,13.87c0,.07-.16.12-.14.2s.14-.13.23-.19a.56.56,0,0,1,.19-.1.76.76,0,0,0,.35.12A.14.14,0,0,0,9.78,13.9Zm15.24,0s.06.07.1,0-.29-.21-.29-.41.05-.09.07-.14a.67.67,0,0,0,0-.55c-.27-.3-.92-.26-1.42-.36.09.17.18.4.29.63a1.87,1.87,0,0,0,.34.58.6.6,0,0,0,.65-.08c.07.05.11.13.18.18A.63.63,0,0,0,25,13.89Z"/><path class="cls-5" d="M20.36,9.78a.65.65,0,0,1,.12.12A.57.57,0,0,1,20.36,9.78Z"/><path class="cls-5" d="M20.55,10a.67.67,0,0,1,.12.12A.62.62,0,0,1,20.55,10Z"/><path class="cls-4" d="M19.94,11.91c0-.07.12-.11.17-.18s0,0,0,0S20,11.88,19.94,11.91Z"/><path class="cls-6" d="M21.5,10c0,.37.27.52.69.49-.09.23-.32.33-.64.32a.35.35,0,0,0,.21.24c-.26.21.07.64-.07.89a.91.91,0,0,1-.69-.07S21,12,21,12a5.13,5.13,0,0,1-.54,0c0-.09.08-.16.12-.25A.57.57,0,0,1,20,12c0-.06,0-.13.07-.19a.58.58,0,0,0-.14.13.46.46,0,0,1-.14,0c-.06,0-.08,0-.07-.07.06-.33.16-.6.5-.58.17,0,.28.15.5.11s.07-.27.07-.43,0-.75-.13-.91a.67.67,0,0,0-.12-.12,4.81,4.81,0,0,1-.6-.59c-.3-.42-1-.16-1.38.1a6.24,6.24,0,0,1-2.37,1c0-.16.15-.26.24-.36A2.63,2.63,0,0,0,17,9a3.64,3.64,0,0,1-.64,1.11,2.25,2.25,0,0,0-.25.32c-.1.18-.09.41-.21.6a2.36,2.36,0,0,1,.75-.21c0,.33-.38.35-.56.54,0,.24.26.52,0,.66H15a1.59,1.59,0,0,0,.18-.29c-.16.08-.27.32-.57.3,0-.12.11-.16.13-.26a0,0,0,0,0,0,0c-.06,0-.09.08-.13.12a.43.43,0,0,1-.39.15c.06-.25.1-.51.42-.5a1.2,1.2,0,0,0,.27,0c.62-.1.19-1.19.11-1.63a1.25,1.25,0,0,0,0-.27,2.66,2.66,0,0,0-.06-.49c0-.12,0,0,0,0,0,.38,0,.74.06,1.1a2.19,2.19,0,0,1-.66-.55,3.68,3.68,0,0,1-.42-.92c.11-.81.76-1.07,1.36-1.38,0-.17.06-.41-.13-.43s-.11.26-.3.25c0-.12,0-.23.07-.34-.13,0-.19.13-.2.27a.28.28,0,0,0,0,.18c-.17,0-.21-.29-.17-.45a.12.12,0,0,0-.12,0c0,.21-.07.42-.23.5,0-.12.1-.37.06-.48L14.14,7a1.72,1.72,0,0,1-.23.16s0,0,0,0,0,0-.07,0H13.7c0-.09.13-.12.17-.2a.93.93,0,0,0-.1-.58,1.34,1.34,0,0,0,.91.08v.2a1.16,1.16,0,0,1,.8.06c.07-.3-.17-.5-.35-.63l-.21-.22-.07-.07V6a.63.63,0,0,1-.49-.42c-.09,0-.14.1-.23.13s-.67-.61-.21-.7H14c.19,0,.14.2,0,.27a10.53,10.53,0,0,1,1.11-.27.46.46,0,0,0-.38-.23.4.4,0,0,1,.68.14.32.32,0,0,0,.23-.47.4.4,0,0,1,.35.11c.06.06.11.19.18.2s.16-.11.16-.26a.19.19,0,0,0,0-.14c.13.09.35.2.38.43,0,0,.05,0,.08,0a.18.18,0,0,0,.14,0,1.81,1.81,0,0,0,.45-.14.54.54,0,0,1-.35.48.87.87,0,0,1,.17.65c-.1,0-.11-.08-.18-.11s-.21-.22-.32-.32-.09-.07-.07-.09.23,0,.26-.11-.15,0-.25,0h-.19c-.11,0-.21,0-.31,0s.12.2.14.26a1.27,1.27,0,0,1-.61-.26c-.1.12,0,.28.08.36-.3-.06-.43-.3-.68-.42,0,.08.06.14.11.18a1,1,0,0,0,.74.32c0-.11-.14-.16-.18-.26.16.05.46.25.71.13,0-.12-.19-.14-.2-.23a1.81,1.81,0,0,0,.32,0c-.06.13,0,.31,0,.46s-.09-.11-.17-.11,0,.12,0,.21-.21-.17-.35-.21,0,.2,0,.31c-.16-.05-.22-.19-.37-.25-.07.11.12.28.13.42-.17-.08-.28-.29-.45-.32,0,.1.14.2.21.26a1.07,1.07,0,0,0,.3.19h0c.07-.1,0-.21-.06-.31.09.11.36.19.3-.11,0,0,.33.31.36,0,0,0,0,0,0,0s0,.05.08.07a.09.09,0,0,0,.08,0c.06-.12,0-.31,0-.45.11.09.21.21.32.31l.1.06a2.05,2.05,0,0,1,0,.3v.23s-.11,0-.13,0,.11.23,0,.38c-.22-.17-.23-.55-.41-.76-.08,0,0,.12,0,.19s0,.09,0,.13v.18c-.16-.13-.24-.4-.39-.49-.06.14.06.3,0,.46s-.18-.15-.3-.17,0,.25-.06.38c-.11,0-.14-.23-.27-.26s.06.18.12.25.12.18.19.19,0-.29.07-.43c.11,0,.15.16.32.15s0-.2,0-.3c.11.11.15.28.3.34s0-.24.07-.36c.08.08.17.55.32.57s.09-.05.14,0a.61.61,0,0,0,.06.18,16.92,16.92,0,0,0,2.53-.25s1.06.13,1.48.12c.16.07.08-.27.08-.36a.64.64,0,0,0-.56-.62,1.72,1.72,0,0,0-.61.16,2.28,2.28,0,0,1-.76.12H19a1.92,1.92,0,0,1-1-.39c-.23.06-.32.27-.39.49a.53.53,0,0,1,.07-.73c-.21-.82.44-1.17,1.12-1.26h.13a5.67,5.67,0,0,1,2.41,1c0-.16,0-.33.18-.36.35-.07.33.5,0,.49h-.12A3.16,3.16,0,0,1,20.38,5c0,.08.09.17.11.26a1.14,1.14,0,0,1-.5-.19A.64.64,0,0,0,19.87,5a.85.85,0,0,0-.16-.18c0,.16-.07.33-.26.33,0,0-.12,0-.14,0a.32.32,0,0,0,0-.47c0,.13,0,.27-.07.41-.12-.14-.22-.31-.33-.45l0,0V5h0c-.16-.09-.32-.31-.55-.26s-.24.34-.32.52c.11-.11.34-.31.6-.18,0,.09-.11.17-.1.3a.44.44,0,0,0,.19.28,3.15,3.15,0,0,1,0-.35c.21.13.33.38.61.42a4.39,4.39,0,0,0,1-.16.91.91,0,0,0,.25,0A1.88,1.88,0,0,1,21.8,6c.3.33.09.94-.17,1.2a.65.65,0,0,1,.45.56V8c-.07.73-.5,1.11-.58,1.83A.19.19,0,0,0,21.5,10Zm-5-2.52a.46.46,0,0,0,.31.17.81.81,0,0,0,0-.33c.1.09.15.24.32.26s.18-.3,0-.35,0,.21-.07.25a1.49,1.49,0,0,1-.29-.32c-.05-.08-.08-.22-.19-.23,0,.2.13.37.13.61-.06,0-.08-.05-.13-.07l-.12-.12c-.1-.1-.11-.29-.24-.36a.6.6,0,0,0,.11.5s-.06-.06-.1-.07l-.16-.23c0-.07-.08-.18-.18-.21s.07.23.15.35.25.39.48.32c0-.12-.11-.14-.14-.23S16.49,7.43,16.52,7.44ZM15.18,5.75c.25,0,.14-.49-.09-.48S15,5.74,15.18,5.75Zm.68,1.19s0,0,0-.07,0,.4,0,.55a1.82,1.82,0,0,1-.14-.2c0-.07,0-.19-.14-.2s0,.24,0,.37.06-.1.1-.15c.08.13.12.31.32.32,0-.15,0-.31,0-.49C15.88,7,15.85,7,15.86,6.94Z"/><path class="cls-4" d="M18.84,5h0V4.57l0,0a.9.9,0,0,0,0,.25c0,.08,0,.21,0,.2Z"/><path class="cls-4" d="M19.87,5a.64.64,0,0,1,.12.12A.57.57,0,0,1,19.87,5Z"/><path class="cls-4" d="M16.51,7.31l.12.12Z"/><path class="cls-4" d="M16.28,7.38s.07.09.1.07,0,0,0,0S16.32,7.42,16.28,7.38Z"/><path class="cls-4" d="M16.52,7.44s-.06-.08-.08-.06a.11.11,0,0,1,0-.07Z"/><path class="cls-6" d="M13.49,9.8c-.05,0,0,.16-.07.21a.46.46,0,0,1-.34-.11c0-.11.16-.15.18-.26s-.13-.35-.2-.48a.14.14,0,0,0,0-.23.17.17,0,0,0,0-.24c.08,0,.07-.16,0-.2a1,1,0,0,0,.08-.11c.61,0,.6.63.86,1,.15.23.46.43.51.69a.27.27,0,0,1-.23.33C13.91,10.48,13.7,10,13.49,9.8Z"/><path class="cls-6" d="M12.33,9.19c-.14,0-.42,0-.38-.18s.22,0,.32,0,.57-.1.68,0-.26.18-.44.21Z"/><path class="cls-6" d="M19,10.84c0-.41-.52-.55-.57-.94a.28.28,0,0,1,.06-.24c.19-.24,1.08-.69,1.42-.29s0,.82-.12,1.21c.18,0,.28-.18.55-.13,0,.2-.28.33-.45.44a4.74,4.74,0,0,1-.29,1h-.83c0-.1.1-.15.11-.26s-.17.18-.25.26h-.26c.06-.12.21-.21.23-.33s-.17.13-.26.2a.75.75,0,0,1-.33.16c0-.48.51-.56.86-.37A1.77,1.77,0,0,0,19,11,.16.16,0,0,0,19,10.84Z"/><path class="cls-6" d="M12.17,10.6c-.32,0-.45-.25-.26-.44a.4.4,0,0,1,.23,0c.09.08,0,.25,0,.33.16,0,.26-.08.26-.2s0-.11-.06-.17,0-.19.12-.29c-.24.06-.63,0-.61-.24a.16.16,0,0,1,.11-.13c.15,0,.27.08.33.19.13-.06.17-.16.3-.16s.15.14.19.14.16-.25.32-.17a.22.22,0,0,1-.21.36h-.19c0,.07,0,.06.06.12s-.06.29,0,.39.13.09.23.13-.08-.24,0-.32a.28.28,0,0,1,.34.27c0,.15-.2.16-.37.18h-.28s0,.07,0,.11.21.06.24.17-.14.08-.23.06,0,.2-.07.25a.24.24,0,0,1-.13-.21.2.2,0,0,1-.23,0c0-.15.27-.11.24-.34,0,0-.07,0-.13,0Z"/><path class="cls-4" d="M9,13.87l.19-.19A1.71,1.71,0,0,1,9,13.87Z"/><path class="cls-1" d="M9.65,13.9a.76.76,0,0,1-.35-.12.56.56,0,0,0-.19.1c-.09.07-.13.18-.23.19s.1-.13.14-.2a1.71,1.71,0,0,0,.19-.19A.56.56,0,0,1,9.15,13a2,2,0,0,1,.58-.32l.62-.29c-.14.55,0,1.38-.57,1.49Z"/><path class="cls-1" d="M24.9,13.77c-.07,0-.11-.13-.18-.18a.6.6,0,0,1-.65.08,1.87,1.87,0,0,1-.34-.58c-.11-.23-.2-.46-.29-.63.5.1,1.15.06,1.42.36a.67.67,0,0,1,0,.55s-.07.08-.07.14.24.28.29.41-.06,0-.1,0A.76.76,0,0,0,24.9,13.77Z"/><path class="cls-4" d="M24.9,13.77a.76.76,0,0,1,.12.12A.63.63,0,0,1,24.9,13.77Z"/><path class="cls-8" d="M15.19,5.66c-.09,0-.1-.15-.09-.28S15.31,5.59,15.19,5.66Z"/><path class="cls-5" d="M20.32,5.6a1.15,1.15,0,0,1,.25,0A.91.91,0,0,1,20.32,5.6Z"/><path class="cls-4" d="M13.85,7.13c-.06.05-.15,0,0,0Z"/><path class="cls-5" d="M15,9.54a1.25,1.25,0,0,1,0,.27A1.26,1.26,0,0,1,15,9.54Z"/><path class="cls-6" d="M12.37,8.06a1.33,1.33,0,0,1-.16,0c.06-.75.13-1.54.23-2.27a5.53,5.53,0,0,1,.5-2,12.14,12.14,0,0,0-.11,1.46s0,.1,0,.14v.2s0,.12,0,.17V6c0,.05,0,.16,0,.24V7.27c0,.06,0,.15,0,.19a4.77,4.77,0,0,0,0,.54.49.49,0,0,1-.21.06Z"/><path class="cls-6" d="M14.28,6.39a.55.55,0,0,1-.49-.28,4.22,4.22,0,0,0,.75.07s.08,0,.12,0h.12a.14.14,0,0,0,.13,0c.27-.11.45.13.49.36a.7.7,0,0,0-.25-.06.22.22,0,0,0-.15,0,1.07,1.07,0,0,0-.23,0,.22.22,0,0,0,0-.2c-.13,0-.21,0-.33,0S14.29,6.37,14.28,6.39Z"/><path class="cls-6" d="M12.41,8.32a1.12,1.12,0,0,1-.72-.25c-.18-.26.18-.48.39-.29,0,.07,0,.1-.07.14a.47.47,0,0,0,.43.22.13.13,0,0,0,.12,0A.78.78,0,0,0,13,8a.33.33,0,0,1,0-.19.2.2,0,0,1,.32.19c0,.23-.38.27-.63.3Z"/><path class="cls-6" d="M12,8.38c.16,0,.38.06.6,0s.39-.09.43,0-.26.19-.41.2-.73,0-.73-.18S11.91,8.39,12,8.38Z"/><path class="cls-6" d="M12,8.68c.09,0,.22,0,.32,0s.64-.11.65,0-.24.16-.37.17-.69,0-.69-.16S11.93,8.69,12,8.68Z"/><path class="cls-6" d="M12.54,9.21c.15,0,.3-.09.43,0s-.28.2-.48.24c0,0-.1,0-.12,0-.17,0-.41,0-.44-.15s.14-.05.23-.06a.87.87,0,0,0,.31,0h0S12.53,9.22,12.54,9.21Z"/><path class="cls-5" d="M19.31,5.1s.1,0,.14,0S19.27,5.14,19.31,5.1Z"/><path class="cls-5" d="M20.08,5.62s.14,0,.2,0S20.15,5.61,20.08,5.62Z"/><path class="cls-5" d="M19,6.18h.26A1.09,1.09,0,0,1,19,6.18Z"/><path class="cls-5" d="M12.37,8.06h.25A.53.53,0,0,1,12.37,8.06Z"/><path class="cls-4" d="M14.63,11.46a1.28,1.28,0,0,1,.27,0A1.2,1.2,0,0,1,14.63,11.46Z"/><path class="cls-9" d="M15.09,5.27c.23,0,.34.49.09.48S14.94,5.39,15.09,5.27Zm0,.11c0,.13,0,.24.09.28S15.18,5.38,15.1,5.38Z"/><path class="cls-9" d="M15.85,7.06c0,.17.06.34,0,.49-.2,0-.24-.19-.32-.32,0,.05,0,.19-.1.15s0-.29,0-.37.11.14.14.2a1.82,1.82,0,0,0,.14.2c0-.15-.11-.47,0-.55s0,0,0,.07S15.86,7,15.85,7.06Z"/><path class="cls-9" d="M16.63,7.43s.07.06.13.07c0-.24-.14-.4-.13-.61.11,0,.14.15.19.23a1.49,1.49,0,0,0,.29.32c.07,0,0-.2.07-.25s0,.3,0,.35-.22-.17-.32-.26a.81.81,0,0,1,0,.33.46.46,0,0,1-.31-.17l-.12-.13a.11.11,0,0,0,0,.07c0,.09.14.11.14.23-.23.07-.36-.15-.48-.32s-.19-.25-.15-.35.13.14.18.21l.16.23s.08.12.13.11,0,0,0,0a.6.6,0,0,1-.11-.5c.13.07.14.26.24.36Z"/></g></g></svg>