<svg xmlns="http://www.w3.org/2000/svg" xmlns:xlink="http://www.w3.org/1999/xlink" viewBox="0 0 26.79 15.87"><defs><style>.cls-1{fill:#ce1126;}.cls-12,.cls-2{fill:#fff;}.cls-3{fill:#006847;}.cls-4,.cls-5{fill:#fcca3e;stroke:#aa8c30;}.cls-32,.cls-4,.cls-47{stroke-width:0.35px;}.cls-38,.cls-5{stroke-width:0.3px;}.cls-6{fill:#aa8c30;}.cls-7{fill:#9ca168;}.cls-8{fill:#717732;}.cls-9{fill:#016848;}.cls-10{fill:#cd202a;}.cls-11{fill:#30c2dc;}.cls-11,.cls-12{stroke:#0872a7;}.cls-11,.cls-14,.cls-17,.cls-21{stroke-width:0.7px;}.cls-12{stroke-width:1.37px;}.cls-13,.cls-32,.cls-47{fill:#f8c83c;}.cls-14{fill:#f9aa51;stroke:#953220;}.cls-14,.cls-47{stroke-linecap:round;stroke-linejoin:round;}.cls-15{fill:#953220;}.cls-16{fill:#231f20;}.cls-17,.cls-20{fill:#8cbebf;}.cls-17,.cls-21{stroke:#04534e;}.cls-18,.cls-21{fill:#0c8489;}.cls-19{fill:#04534e;}.cls-22{fill:url(#名称未設定グラデーション_3);}.cls-23{fill:url(#名称未設定グラデーション_3-2);}.cls-24{fill:#e92736;}.cls-25{fill:#f7e204;}.cls-26{fill:url(#名称未設定グラデーション_3-3);}.cls-27{fill:#a8ac71;}.cls-28{fill:#f1a720;}.cls-29{fill:#78732e;}.cls-30{fill:#c6c7a6;}.cls-31{fill:#1c242f;}.cls-32,.cls-47{stroke:#977c2e;}.cls-33{fill:#af7029;}.cls-34{fill:#816c2a;}.cls-35{fill:#fcca3d;}.cls-36{fill:#6f5b24;}.cls-37{fill:#404118;}.cls-38{fill:none;stroke:#78732e;}.cls-39,.cls-43{fill:#ab6d29;}.cls-39{stroke:#4d2a15;stroke-width:0.51px;}.cls-40{fill:#4d2a15;}.cls-41{fill:#d2a567;}.cls-42{fill:#8f4620;}.cls-44{fill:#202020;}.cls-45{fill:#202220;}.cls-46{fill:#4b4139;}.cls-48{fill:#904720;}.cls-49{fill:#803f1d;}.cls-50{fill:#b07229;}.cls-51{fill:#5c3a1d;}.cls-52,.cls-53{fill:#8b441f;}.cls-53{stroke:#5c3a1d;stroke-width:0.07px;}.cls-54{fill:#312317;}.cls-55{fill:#1e2121;}.cls-56{fill:#5c3818;}.cls-57{fill:#171717;}.cls-58{fill:#45392d;}.cls-59{fill:#dbad6c;}.cls-60{fill:#874f20;}.cls-61{fill:#b27129;}.cls-62{fill:#6c3f18;}.cls-63{fill:#f16e16;}.cls-64{fill:#d5d3ca;}.cls-65{fill:#6c4119;}.cls-66{fill:#bf802d;}.cls-67,.cls-71{fill:#f9c83a;}.cls-67{stroke:#8f4620;stroke-width:0.48px;}.cls-68{fill:#fcf3d8;}.cls-69{fill:#fdeaaf;}.cls-70{fill:#513625;}.cls-72{fill:#8b5122;}.cls-73{fill:#977c2e;}</style><radialGradient id="名称未設定グラデーション_3" cx="4698.13" cy="532.69" r="0.85" gradientTransform="matrix(-0.05, 0.19, 0.19, 0.05, 134.67, -888.22)" gradientUnits="userSpaceOnUse"><stop offset="0" stop-color="#fff"/><stop offset="1" stop-color="#f15770"/></radialGradient><radialGradient id="名称未設定グラデーション_3-2" cx="-3061.11" cy="-5268.37" r="0.85" gradientTransform="matrix(0.07, -0.18, -0.16, -0.07, -636.11, -875.25)" xlink:href="#名称未設定グラデーション_3"/><radialGradient id="名称未設定グラデーション_3-3" cx="7226.34" cy="1873.98" r="0.86" gradientTransform="matrix(0, 0.1, 0.19, 0, -322.15, -714.24)" xlink:href="#名称未設定グラデーション_3"/></defs><title>flag_484</title><g id="レイヤー_2" data-name="レイヤー 2"><g id="flag"><rect class="cls-1" x="0.41" width="26.38" height="15.87"/><rect class="cls-2" width="18.02" height="15.87"/><rect class="cls-3" width="8.77" height="15.87"/><g id="coa"><g id="branches"><path class="cls-4" d="M14.95,10.08h0v.19l.07,0L15,10.06Z"/><circle class="cls-5" cx="14.94" cy="10.03" r="0.06"/><path class="cls-4" d="M15.18,10.38h0L15,10.24,15,10.3l.19.11Z"/><path class="cls-5" d="M15.17,10.46a.06.06,0,0,1,0-.09.06.06,0,0,1,.09,0,.06.06,0,0,1,0,.09.06.06,0,0,1-.09,0Z"/><path class="cls-4" d="M16.27,8.35h0l.15.14,0-.07-.13-.09Z"/><circle class="cls-5" cx="16.25" cy="8.31" r="0.06"/><path class="cls-4" d="M16.65,8.43h0l-.22.06,0-.07.19,0Z"/><circle class="cls-5" cx="16.69" cy="8.4" r="0.06"/><path class="cls-4" d="M15.91,9.53h0l-.14-.21h0l.15.18Z"/><circle class="cls-5" cx="15.76" cy="9.27" r="0.06"/><path class="cls-4" d="M15.92,9.54h0l.17,0v0l-.14-.06Z"/><circle class="cls-5" cx="16.14" cy="9.57" r="0.06"/><path class="cls-5" d="M11.86,10a0,0,0,0,1,0,.05s0,0,0-.05,0-.05,0-.05a.06.06,0,0,1,0,.06Z"/><path class="cls-4" d="M11.86,10.12h0l0,.22-.05,0,0-.19Z"/><path class="cls-5" d="M11.91,10s0,.08-.06.1-.1,0-.1-.05.07,0,.08,0,.05-.05.08,0Z"/><ellipse class="cls-5" cx="11.53" cy="10.37" rx="0.07" ry="0.05"/><path class="cls-4" d="M11.64,10.36h.21l0,0-.17,0Z"/><path class="cls-5" d="M11.66,10.34c0,.05,0,.12,0,.12s0-.06-.05-.08,0-.07,0-.11.08,0,.1.07Z"/><ellipse class="cls-5" cx="10.98" cy="9.2" rx="0.04" ry="0.06"/><path class="cls-4" d="M11,9.34h0v.2l-.05,0V9.33Z"/><path class="cls-5" d="M11.06,9.28s-.06.07-.1.06-.08,0-.07-.08.06,0,.08,0S11,9.21,11.06,9.28Z"/><ellipse class="cls-5" cx="10.62" cy="9.52" rx="0.07" ry="0.03"/><path class="cls-4" d="M10.75,9.52h.16l.07.05h-.23Z"/><path class="cls-5" d="M10.69,9.43a.08.08,0,0,1,.07.1c0,.05,0,.09-.08.08a0,0,0,0,1,0,0s0,0,0,0,0-.05,0-.07,0,0,0,0Z"/><path class="cls-5" d="M10.56,8.2s-.05,0-.07,0,0-.05,0-.08,0,0,.06,0,0,0,0,.07Z"/><path class="cls-4" d="M10.39,8.52h0l.09-.21h0l-.1.15Z"/><path class="cls-5" d="M10.46,8.31s-.05-.06,0-.1,0,0,0,0l0,0s0,0,.06,0a0,0,0,0,1,0,.06.1.1,0,0,1-.1,0Z"/><path class="cls-5" d="M10.09,8.28s0,0,0,.07,0,0-.08,0,0,0,0-.07,0,0,.08,0Z"/><path class="cls-4" d="M10.18,8.37h0l.16.1v.08l-.18-.15Z"/><path class="cls-5" d="M10.18,8.39s-.07,0-.1,0,0,0,0,0l0,0s0,0,0-.06a0,0,0,0,1,.06,0,.11.11,0,0,1,0,.1Z"/><path class="cls-6" d="M15,10.09l0,0v0h0v0Z"/><path class="cls-6" d="M15,10.05a.05.05,0,0,1,0,0s-.05,0-.06,0a.06.06,0,0,1,0-.05l0,0v0l0,0H15Z"/><path class="cls-6" d="M15.17,10.37h0A.72.72,0,0,1,15,10.3l.16.1,0,0Z"/><path class="cls-6" d="M15.28,10.42a.05.05,0,0,1,0,0s-.05,0-.07,0a.06.06,0,0,1,0,0s0,0,0,0l0,0h.08l0,0v0h0Z"/><path class="cls-6" d="M16.33,8.35a0,0,0,0,0,0,0v0l0,0,0,0,0,0Z"/><path class="cls-6" d="M16.31,8.3s0,.07-.07.06a.06.06,0,0,1,0-.08h0v0l0,0h0l0,0,0,0v0Z"/><path class="cls-6" d="M16.74,8.38s0,0,0,0,0,.07-.06.07a.05.05,0,0,1,0-.06s0,0,0,0v0l0,0h.05l0,0V8.38Z"/><path class="cls-6" d="M16.6,8.41a0,0,0,0,1,0,0l-.06,0,.12,0v0h0Z"/><path class="cls-6" d="M15.85,9.39a0,0,0,0,0,0,0,.18.18,0,0,0,0,0l-.07-.11h0l.05.07Z"/><path class="cls-6" d="M15.82,9.28a.07.07,0,0,1-.09,0s0-.07,0-.09h0V9.3l0,0h.06l0,0s0-.05,0,0Z"/><path class="cls-6" d="M16.06,9.53s0,0,0,0H16l.11,0v0Z"/><path class="cls-6" d="M16.2,9.56a.05.05,0,0,1-.07.06.06.06,0,0,1,0-.08V9.6l0,0h.06l0,0v0h0Z"/><path class="cls-6" d="M11.9,10s0,.06-.06.08a.07.07,0,0,1-.09,0,.06.06,0,0,1,0,0h0v0l0,0h.08l0,0,0,0v0h0Z"/><path class="cls-6" d="M11.86,10.15l0,0a.11.11,0,0,0,0,0v-.06h0v0Z"/><path class="cls-6" d="M11.69,10.33a0,0,0,0,0,0,0h0v0h0Z"/><path class="cls-6" d="M11.67,10.38h0v0s0,0,0,0a.05.05,0,0,1,0,0,.06.06,0,0,0,0,0v0l0,0h.07v-.07Z"/><path class="cls-6" d="M11.46,10.37a.05.05,0,0,0,.05,0s.05,0,.05,0h-.09v0Z"/><path class="cls-6" d="M11.05,9.27a0,0,0,0,1,0,0,.08.08,0,0,1-.08,0,.09.09,0,0,1-.08,0,.08.08,0,0,1,0,0v0l0,0,0,0H11l0,0v0h0Z"/><path class="cls-6" d="M11,9.37h0l0,0V9.34h0v0Z"/><path class="cls-6" d="M10.78,9.52h0l.14,0h-.18v0h0Z"/><path class="cls-6" d="M10.76,9.52v0s0,.07-.07.06,0,0,0,0h0v0h.07l0,0V9.52Z"/><path class="cls-6" d="M10.66,9.52h-.1v0h.08v0Z"/><path class="cls-6" d="M10.57,8.27a0,0,0,0,1,0,0,.08.08,0,0,1-.08,0l-.07-.06,0,0,0,0h.08l0,0h0v0Z"/><path class="cls-6" d="M10.44,8.33a.13.13,0,0,1,0,0,.36.36,0,0,1,0,.05l0-.08h0v0Z"/><path class="cls-6" d="M10.21,8.39s0,0,0,0a.92.92,0,0,0,.1.11l-.15-.12,0,0,0,0Z"/><path class="cls-6" d="M10.16,8.41h0s0,0,0,0a0,0,0,0,1,0,0v0h.09Z"/><path class="cls-6" d="M10.1,8.35h0a.14.14,0,0,1-.06,0l0,0,0,0,0,0Z"/><path class="cls-7" d="M16.86,7.94c0,.17-.18.25-.26.31a.47.47,0,0,0-.13.14l0,.1v.08a.32.32,0,0,1,0,.09c0,.08,0,.18,0,.18l.12-.08.08,0h0a.63.63,0,0,0-.13.19c0,.1-.1.31-.23.38s-.21,0-.25.08l0,0-.05.07,0,.06,0,0,0,0a.32.32,0,0,1,0,.07l0,.1.06,0h.06a.2.2,0,0,0,0,.06.37.37,0,0,1-.16.3,1.42,1.42,0,0,1-.58.09l-.08,0-.07.06-.07.07v0a.56.56,0,0,1-.09.09l-.12.08h.1l.15.07a.5.5,0,0,0-.16,0,1.71,1.71,0,0,1-.5.18c-.14,0-.34-.21-.34-.21l-.09-.06-.15,0h-.19v-.05h.17c.09,0,.12,0,.19,0a.31.31,0,0,0,.15,0l.25-.2.25-.09h.18l0,0-.06,0,0,0,.16,0h.07a.14.14,0,0,1,0-.05l.15-.12.06,0a1.41,1.41,0,0,0,.06-.15V9.92l.18-.17.12-.13.05-.14v0a.18.18,0,0,1,0,.13.3.3,0,0,1,0,.12,1.64,1.64,0,0,1,.19-.11.21.21,0,0,1,.1,0,.29.29,0,0,0,.09-.08c0-.05,0-.07,0-.09s0-.12,0-.12V9l.1-.23.15-.14,0,0a.27.27,0,0,0,0,.05s0,.06,0,.06a.6.6,0,0,1,.12-.12h0a.3.3,0,0,0,0-.08.91.91,0,0,0,0-.14V8.23l0-.1-.07-.19V7.69l-.05-.07s0,0,.11.09a.58.58,0,0,1,.08.21l.14-.44a.51.51,0,0,1,.07.14,1,1,0,0,1,0,.15l.06-.12a.11.11,0,0,0,0,0,.38.38,0,0,1,.08.26Zm-2.92,2.82s0-.07-.17-.14a.85.85,0,0,0-.24-.08v.05l.22.09.11.09.08,0Z"/><path class="cls-8" d="M14.93,10.35a1,1,0,0,1,.19-.15.42.42,0,0,1,.14,0,.61.61,0,0,0,.29-.11.82.82,0,0,0,.27-.25.24.24,0,0,1,.1,0l-.15.17a1.29,1.29,0,0,1-.25.2.77.77,0,0,1-.33.08.33.33,0,0,0-.18.09.63.63,0,0,0-.09.1,0,0,0,0,1,0,0Zm.52-.55a.93.93,0,0,0-.23.31l.24-.21c.08-.08.19-.11.24-.16s.05-.09.09-.12l.06,0s-.08-.06-.39.22Zm-.37.37a.22.22,0,0,0,.1-.1.66.66,0,0,1,0-.12s.18-.18.25-.25a.24.24,0,0,0,.06-.25.15.15,0,0,1,0,.12c0,.06-.28.22-.31.31a.84.84,0,0,0,0,.15.22.22,0,0,1-.08.14Zm-.12.46a.36.36,0,0,0-.2-.06c-.21,0-.39.14-.53.15s-.19-.07-.3-.14a.9.9,0,0,0-.4-.07h0a1.59,1.59,0,0,1,.28,0c.16,0,.24.21.42.2a3.68,3.68,0,0,0,.52-.16c.16,0,.2,0,.2,0Zm-1-.11a.42.42,0,0,0,.29-.06,1.16,1.16,0,0,1,.36-.22.64.64,0,0,1,.17,0,.55.55,0,0,0-.19,0,.49.49,0,0,0-.25.06c-.08,0-.12.13-.2.19a.56.56,0,0,1-.18.07Zm0,.22h-.06a1.2,1.2,0,0,0-.13-.09.81.81,0,0,0-.17-.06s0,0,0,0l.16.06a.38.38,0,0,1,.12.09.07.07,0,0,0,.07,0s.06,0,.05,0,0,0-.05,0Zm.11-.16a.35.35,0,0,0,.17,0c.23,0,.37-.16.52-.22a.26.26,0,0,1,.23,0s0,0,0,0a.31.31,0,0,0-.17-.05,1.49,1.49,0,0,0-.59.2.79.79,0,0,1-.16.05Zm2.43-1.73a4.27,4.27,0,0,0-.24.4.65.65,0,0,1-.14.12l-.14.18s0,0,0,0,0,0,0,0,0,0,.07-.06a.75.75,0,0,1,.1-.12,2.09,2.09,0,0,0,.22-.18c.05-.07.17-.32.22-.39a.52.52,0,0,1,.17-.11s-.09,0-.23.12ZM16,9.33a.18.18,0,0,1,.05-.11c.06-.07.08-.06.12-.16s.06-.19.1-.3a1.24,1.24,0,0,1,.1-.21.19.19,0,0,0-.12.09,1.5,1.5,0,0,0-.21.38,1.15,1.15,0,0,0-.05.31Zm-.07.1s0,0,0-.14a1.43,1.43,0,0,1,0-.39,1.88,1.88,0,0,1,.23-.3.57.57,0,0,0-.19.11A.36.36,0,0,0,15.9,9c0,.09.05.18.06.27s0,.17,0,.17Zm.46-.87s0-.17.07-.21a.5.5,0,0,1,.12-.18A.45.45,0,0,0,16.74,8a2,2,0,0,0,0-.33.23.23,0,0,0,0,.07s0,.2,0,.28a1.6,1.6,0,0,1-.16.28,1.52,1.52,0,0,1,0-.25,1.34,1.34,0,0,1,.08-.24,1.65,1.65,0,0,0,0-.29.55.55,0,0,0-.1.15,1,1,0,0,0-.05.33,2.2,2.2,0,0,0,0,.25.31.31,0,0,1,0,.16.33.33,0,0,0,0,.09l0,.11h0Zm-.15-.94a.24.24,0,0,1,0,.16.63.63,0,0,0,0,.28c0,.09.08.1.09.15a.83.83,0,0,1,0,.15.9.9,0,0,0,0-.24c0-.05,0,0-.05-.08s0-.2,0-.29a.21.21,0,0,0-.08-.12Z"/><path class="cls-7" d="M12.82,10.75s0,0,.14-.11a1.41,1.41,0,0,1,.31-.13s0,.07,0,.07l-.11,0-.09.05-.11.07h-.13Z"/><path class="cls-7" d="M13.12,10.44a1,1,0,0,0-.26,0s0,0-.05,0a.21.21,0,0,1-.07-.07l0,0v.11l-.22-.19,0,.13,0,.06-.22-.21v.16h-.06L12,10.35l0,0,.05.09-.2,0,0,0,0,0s0,0,0,0h.08s0,0,0,0,0,.05,0,0,.12-.07.18,0-.09.08-.08.13.14,0,.17,0,.12-.13.16-.09-.11.11-.08.17.12,0,.16,0,.15-.18.17-.15-.09.11-.05.16.1,0,.15,0,.06-.11.13-.14.06,0,.08,0,.07,0,.07,0l.15-.06h.07l0,0h.07v-.06a.41.41,0,0,0-.15,0Zm-1.19,0,0-.06,0,0a.51.51,0,0,1-.1-.08l-.09-.07-.1-.06,0-.12,0,0-.06,0-.07-.26v0h0l-.06.16-.07-.1,0-.22,0,0-.06.06-.1-.2s0,0,0,0a.36.36,0,0,0,0,.12l-.13-.1a.58.58,0,0,1-.12-.13l0-.1,0-.09,0-.11-.1,0,0-.25V8.75l-.12.17,0-.07V8.68h0l0,.09a.73.73,0,0,0-.07-.11.56.56,0,0,0,0-.19.45.45,0,0,1,0-.21c0-.07,0-.08,0-.11s-.05,0,0,0,.17-.14.14-.19-.18.08-.14,0,.17-.09.18-.21-.13,0-.14,0,.08-.12.08-.16,0-.05,0-.08-.11.1-.11.1l-.09,0,0,.13,0,.11-.11-.07,0,.13,0,.13L10,8l.06.11.08.08,0,.07,0,0,0,0,0,.07,0,.08v.17h0v.06s-.06,0-.07,0,.07.09.05.1-.14,0-.14,0a.1.1,0,0,0,.08.11c.07,0,.23.05.2.09s-.2-.1-.19,0a.16.16,0,0,0,.11.15s.22,0,.21,0-.14,0-.16,0,.09.07.12.07a.26.26,0,0,1,.12,0l.19.18.2.15h0s-.1,0-.11,0,.26.13.18.16-.17-.09-.19,0,.05.13.1.16.29,0,.24.06S11,10,11,10s.12.17.18.17.13-.1.16,0,0,.08,0,.09.1-.06.17,0a.57.57,0,0,1,.24.11l.12.12Z"/><path class="cls-8" d="M12.89,10.72s0,0,.05,0l.14-.1a.76.76,0,0,1,.17-.06h0a.71.71,0,0,0-.18.07l-.13.09a.09.09,0,0,1-.07,0s-.06,0-.06,0,0,0,.07,0Zm.37-.19a.09.09,0,0,1-.06,0,.19.19,0,0,0-.11,0,.27.27,0,0,0-.17.08.24.24,0,0,1-.06.06s0,0,.08,0a.32.32,0,0,1,.16-.06.12.12,0,0,1,.09,0,.12.12,0,0,0,.06,0v0Zm-2.19-.89s0,0,0,0L11,9.55l-.22-.16.12.12a1.52,1.52,0,0,0,.17.12h0Zm1.55,1.1.06-.09a.37.37,0,0,1,.08-.09s0,0,0-.06a.11.11,0,0,1,0-.05.17.17,0,0,0,0,.06l0,0s.06,0,.06,0a0,0,0,0,0,0,0s0,0,0,0-.08-.11-.11-.11,0,.09,0,.09-.09-.19-.21-.19-.1,0-.11,0,.1.13.07.15-.15-.18-.24-.18-.09,0-.09,0,.09,0,.07.1-.1-.09-.18-.08-.09,0-.09,0,0,.05,0,.06a.36.36,0,0,0-.1,0,.58.58,0,0,0-.09.1.2.2,0,0,1,.12-.08h.24l0,0a.27.27,0,0,1,0-.07l.07.07.08.05.08,0s0,0,0,.06l-.07.07.09-.07.06-.05h.06s0,0,0-.07l-.07-.11.09.1c0,.06,0,.09.06.09h.06s0,0,0,.07a.48.48,0,0,0,0,.11l.07-.09s.05-.08.06-.08h.07s0,0,0-.07a.42.42,0,0,1,0-.12.45.45,0,0,0,.06.11s.05.08.06.08h.07s0,0,0,.08l0,.09Zm-.93-.54.07,0a.23.23,0,0,1-.09-.1c0-.06,0-.19,0-.19s0,.09-.08.08,0-.19,0-.26-.11-.12-.13-.1,0,.18-.06.15,0-.17,0-.23-.05-.11-.08-.09,0,.13,0,.13,0-.08-.06-.09,0,0,0,0,0-.07,0-.07,0,.05,0,.08l0,.08s0,0,0,.05,0,0,0,0H11l.08,0s.06,0,.07,0l.06.09a.5.5,0,0,0,0-.1.87.87,0,0,0,0-.12.56.56,0,0,1,0,.12,1.29,1.29,0,0,1,0,.13s0,0,0,.05h-.12l-.14,0,.13,0h.17l.08.09a.35.35,0,0,0,0-.13.94.94,0,0,0,0-.14.78.78,0,0,1,0,.12.53.53,0,0,1,0,.16l-.08,0-.15,0a.54.54,0,0,0,.16,0c.07,0,.08,0,.1,0l0,0,.06,0,0,0-.06,0,.1,0,.05,0h0a.27.27,0,0,0,0-.05V10a.25.25,0,0,1,0,.07.4.4,0,0,1,0,.07l.06,0ZM10.33,8.64a.86.86,0,0,0,0-.16.62.62,0,0,0-.07-.23v0l0-.06-.05,0-.05,0a.11.11,0,0,1,0,0l.05,0h0l0-.08-.08,0A.61.61,0,0,1,10,8l.12.07.07,0,.07,0L10.36,8l-.08,0h-.07v-.1l0-.05a.64.64,0,0,1-.07-.12l.07.07.06.06.07,0,.12-.09-.12.06-.07,0a.15.15,0,0,1,0-.06s0-.05,0-.07,0,0,0,0a.55.55,0,0,1,0-.11v.05s0,0,0,0a.63.63,0,0,0,.16-.14s0-.08,0-.06,0,.08-.1.07,0-.07-.05-.05a.2.2,0,0,0-.07.1s0,.12,0,.14,0-.08-.1-.07-.06.08-.05.11.12.16.08.17-.12-.11-.17,0,.15.17.17.19,0,0,0,.07.08.05.1.08a.56.56,0,0,1,.09.25.83.83,0,0,1,0,.12Zm.51.74a.18.18,0,0,1,0-.14c0-.09.08-.25.06-.27s-.09.1-.1.07,0-.19,0-.25,0-.11-.09-.1-.08.19-.11.16,0-.12,0-.16,0-.06-.06-.05,0,.09-.06.09-.05-.1-.09-.09.1.19.1.19a.16.16,0,0,0,0-.05l0-.06a.21.21,0,0,1,0,.08.44.44,0,0,0,0,.08h-.09l-.1,0,.09,0,.12,0,0,.05,0,.06a.65.65,0,0,0,0-.09c0-.06.05-.15.05-.15s0,.11,0,.17l0,.13-.12,0-.16,0,.16.05.12,0,.06.08,0-.06a.46.46,0,0,0,0-.08.45.45,0,0,1,0,.1l0,.06h-.18l.11,0h.08a.16.16,0,0,0,0,.06.2.2,0,0,0,.06.06Z"/><g id="ribbon"><path class="cls-2" d="M13.15,11l-.06,0H13l0-.08.24-.23,0-.23h.15v.32l0,0,.27.16V11h0l0,0h-.1l-.18-.13-.07-.08-.13.17-.08,0Z"/><path class="cls-9" d="M13.34,10.39a.22.22,0,0,0,0,0s0,.22,0,.25-.14.08-.21.14-.08.11-.08.11L13,11a.16.16,0,0,0-.07,0,.48.48,0,0,1,.15-.22,1.25,1.25,0,0,1,.19-.13,1.8,1.8,0,0,0,0-.24s0,0,0,0h.07Z"/><path class="cls-9" d="M13.65,11.07l0,0,0,0-.06,0c-.07,0-.1,0-.15-.05a.59.59,0,0,1-.09-.09l-.06.06.07.09s.12,0,.15.07l.07,0Z"/><path class="cls-10" d="M13.46,10.39s.07,0,.08,0a0,0,0,0,1,0,0,1.57,1.57,0,0,1,0,.23.35.35,0,0,1-.06.13l-.17.16a1.14,1.14,0,0,0-.1.12l0,0s0,0,0,0a.44.44,0,0,1,.14-.15.34.34,0,0,0,.17-.21,1.13,1.13,0,0,0,0-.23Z"/><path class="cls-10" d="M13.93,11s0,0-.08,0h-.07a.4.4,0,0,0-.09-.08c-.05,0-.09,0-.15-.07a.29.29,0,0,1-.09-.09l0-.09a.56.56,0,0,0,.1.11c.05,0,.16.07.2.11l.12.12Z"/></g></g><g id="water"><path class="cls-11" d="M14.48,9.94s-.15-.06-.14-.11.36-.15.36-.15V9.59a.42.42,0,0,0-.14,0,1.23,1.23,0,0,1-.37.07l-.16,0-1.26-.08h-.07c-.16,0-.26-.26-.26-.26h-.08s0,.12,0,.13a2.84,2.84,0,0,1-.6-.26l0,.11s.32.17.31.24-.1.06-.1.06l0,.08s.53,0,.54.18-.13.1-.13.1l0,.05v0a1.29,1.29,0,0,1,.36,0c.08,0,.12.11.22.16a2.9,2.9,0,0,0,.85,0c.12,0,.19-.16.38-.22a1.28,1.28,0,0,1,.25-.06Z"/><circle class="cls-12" cx="11.85" cy="9.7" r="0.09"/><circle class="cls-12" cx="12.37" cy="9.28" r="0.09"/><circle class="cls-12" cx="14.54" cy="9.95" r="0.09"/><path class="cls-13" d="M11.45,9.14c0,.07.09.2.17.21s.13,0,.14,0a.12.12,0,0,0,0-.11c-.05-.07-.26-.13-.29-.06Z"/><path class="cls-2" d="M11.7,9.24s-.07-.08-.11-.08-.09,0-.08,0,.12.05.12.07,0,0,0,0,0,0,.06,0,0,0,0,0Z"/><path class="cls-13" d="M12.43,10c0,.06,0,.09-.09.12s-.18,0-.21,0,0-.13.12-.15.16,0,.18.07Z"/><path class="cls-2" d="M12.3,10.06s0,0,0,0a.05.05,0,0,0,0-.06A.09.09,0,0,0,12.3,10s-.13.09-.12.11,0,0,.05,0,0,0,.07,0Z"/><path class="cls-13" d="M14.66,9.71c.05.07.15,0,.18,0s.11-.08.07-.12a.13.13,0,0,0-.13,0,.24.24,0,0,0-.13.08.1.1,0,0,0,0,.1Z"/><path class="cls-2" d="M14.68,9.67a.09.09,0,0,1,.08-.08s0,0,.08,0,0,0,0,0,0,.06,0,.06,0,0-.08,0-.07,0-.07,0Z"/></g><g id="pedestal"><path class="cls-14" d="M13.47,9.51l0,0h-.27l.15.43.18.25.07,0h.14l0-.07-.05-.41-.19-.2Z"/><path class="cls-14" d="M13,9.54v0h.17a1,1,0,0,1,.14.2c0,.08.07.21.12.29s.14.21.14.21h-.18l-.08,0-.25-.39L13,9.54Z"/><path class="cls-14" d="M12.88,9.49H13a.61.61,0,0,1,.17.23,2.29,2.29,0,0,0,.08.27.86.86,0,0,0,.14.21,1.51,1.51,0,0,1-.26,0c-.1,0-.13,0-.15,0l-.08-.06h-.1l0-.13,0-.3V9.51l.09,0Z"/><path class="cls-14" d="M13.9,9.57l-.16-.07-.3,0,0,.15a1.31,1.31,0,0,0,.11.34,1.8,1.8,0,0,0,.12.22s.2,0,.2,0l.11,0V10l0,0,0-.35,0-.05H13.9Z"/><path class="cls-14" d="M12.83,9.57s0,0,.05,0a.06.06,0,0,0,0-.07.09.09,0,0,0-.09-.1c-.06,0-.11.08-.11.13s.05.08.05.1a.19.19,0,0,0-.05.14.25.25,0,0,0,.07.15s-.08.06-.08.12a.11.11,0,0,0,.11.1c.05,0,.12,0,.12-.08a.07.07,0,0,0-.07-.07s0,0,0,0"/><path class="cls-14" d="M13.95,9.59s0,0,0,0,0,0,0-.06.06-.07.1-.07a.13.13,0,0,1,.11.12.16.16,0,0,1,0,.11s0,0,0,.1A.24.24,0,0,1,14,10a.12.12,0,0,1,.07.11.1.1,0,0,1-.1.11s-.11,0-.11-.08,0-.08.06-.08a.07.07,0,0,1,.06.06"/><path class="cls-15" d="M12.94,10l0,0a.17.17,0,0,0,0,.06,1.42,1.42,0,0,0,.4,0,1.64,1.64,0,0,0,.39,0s.05-.08.08-.1l0,0,0,0v.06l0,0s0,0,0,0l-.1,0s-.57,0-.66,0-.08,0-.11,0l0,0V10Z"/><path class="cls-15" d="M13.8,9.53l0,0s0,0-.07.1,0,.11,0,.12H13.5l0-.1.34-.14Z"/></g><g id="cactus"><path class="cls-16" d="M14.54,9.5a.12.12,0,0,1-.06,0s0-.07,0-.08,0,0,0,0,0,.08,0,.08Z"/><path class="cls-16" d="M15,9.37l0,.06.05,0a.18.18,0,0,1-.08,0l0-.06h0Z"/><path class="cls-16" d="M15.13,9.42a.09.09,0,0,1-.07,0s-.06,0,0,0,0,0,0,0a.17.17,0,0,0,.08,0Z"/><path class="cls-16" d="M15.36,9.22a.11.11,0,0,1-.05,0l-.07,0h.12Z"/><path class="cls-16" d="M15,8.77a.15.15,0,0,0-.07,0s0,.05,0,.05,0,0,0,0l0-.06Z"/><path class="cls-16" d="M14.79,8.89a.16.16,0,0,0,0,0s0,.07,0,.07,0,0,0-.05a.54.54,0,0,1,0-.06Z"/><path class="cls-17" d="M14.38,9.16l-.12.13a1.22,1.22,0,0,0,.51.15.84.84,0,0,0,.49-.21.44.44,0,0,0,0-.24S15,8.83,15,8.84a.62.62,0,0,0-.25.17c-.09.09-.08.17-.22.16h-.14Z"/><path class="cls-18" d="M14.35,9.22s.31,0,.39,0,.18-.23.25-.26a.22.22,0,0,1,.09,0l.07,0,.08.06,0,.15v.08l-.1.08L15,9.38l-.17.05h-.14l-.29-.08-.07-.05,0,0,.06-.06Z"/><path class="cls-19" d="M14.82,9s0,0,0,0,0,0,0,0,0,.06,0,.06,0,0,0-.07Z"/><path class="cls-19" d="M14.94,9.12s0,0,0,0a.06.06,0,0,1,.05.05,0,0,0,0,1-.05,0s0,0,0-.06Z"/><path class="cls-19" d="M14.9,9.3s0,0,0,0,0,0,0,0a.05.05,0,0,1-.05.05s0,0,0-.06Z"/><path class="cls-19" d="M14.74,9.24s0,0,.05,0a.06.06,0,0,1,0,.11s-.05,0-.05-.07Z"/><path class="cls-19" d="M14.48,9.28a.06.06,0,1,1,.06.06A.06.06,0,0,1,14.48,9.28Z"/><path class="cls-20" d="M14.94,9.12s0,0,0,0a0,0,0,0,1,0,.08S14.94,9.14,14.94,9.12Z"/><path class="cls-20" d="M14.9,9.29s0,0,0,0,0,0,0,0a0,0,0,0,1-.09,0Z"/><path class="cls-20" d="M14.74,9.24s0,0,.06,0,0,0,0,0,0,0,0,0a.06.06,0,0,1,0-.05Z"/><path class="cls-20" d="M14.81,9s0,0,0,0,0,0,0,0,0,0,0,0,0,0,0-.05Z"/><path class="cls-20" d="M14.48,9.26a.06.06,0,0,1,.06-.06s.07,0,.07,0a.1.1,0,0,1-.08.08.06.06,0,0,1-.05-.06Z"/><path class="cls-16" d="M14.6,9.21a.15.15,0,0,0-.06,0s0,0,0,.05,0,0,0,0l0-.06Z"/><path class="cls-16" d="M14.8,9.16s0,0,0,.06,0,0,0,0,0,0,0-.05,0-.05,0-.05Z"/><path class="cls-16" d="M14.83,9.21l0,0s0,0,0,0,0,0,0,0l0,0Z"/><path class="cls-16" d="M14.88,9l0,0s0,0,0,0,0,0,0,0a.13.13,0,0,0,0,0Z"/><path class="cls-16" d="M15,9.07s0,0-.05,0,0,0,0,0,0,0,0,0l0,0Z"/><path class="cls-16" d="M15,9.25a.07.07,0,0,1,0,0s0,0,0,0,0,0,0,0Z"/><path class="cls-19" d="M15.25,9.13a.12.12,0,0,1-.06.13.88.88,0,0,1-.47.17,1.38,1.38,0,0,1-.42-.13h0l0,0,.15.06.17.05h.2L15,9.38l.15-.07.08-.06,0,0V9.14h0Z"/><path class="cls-16" d="M11.44,8s0,0,0,.07,0,0,0,0,0,0,0-.05A.3.3,0,0,0,11.44,8Z"/><path class="cls-16" d="M11.77,8.34s0,.06,0,.06,0,0,0,0h0l0,0Z"/><path class="cls-16" d="M11,8.38a.07.07,0,0,0,0,0s0,0,0,0H11Z"/><path class="cls-16" d="M11.17,8.64a.11.11,0,0,0,.06,0,.06.06,0,0,0,.06,0s0,0-.06,0-.06,0-.06,0Z"/><path class="cls-16" d="M11.4,8.83s.06,0,.07,0,0,0,0-.06,0,0,0,0l-.05,0Z"/><path class="cls-17" d="M11.77,8.68a.53.53,0,0,0-.17-.45c-.21-.19-.35-.14-.43-.07a.34.34,0,0,0,.09.49.63.63,0,0,0,.51.14v-.1Z"/><path class="cls-18" d="M11.12,8.4s0-.15.06-.19a.3.3,0,0,1,.41.13.55.55,0,0,1,.09.43h-.12l-.18-.08-.15-.11-.1-.19Z"/><path class="cls-19" d="M11.74,8.72a.15.15,0,0,1-.11,0,.64.64,0,0,1-.53-.42v.09l0,.06.08.11.09.08.12.06.09,0,.11,0h.06l.06-.07Z"/><path class="cls-19" d="M11.56,8.62s0,0,0,0,0,0,0,0,0,.07,0,.07,0,0,0-.06Z"/><path class="cls-19" d="M11.57,8.45a0,0,0,0,1,.08,0,0,0,0,0,1-.08,0A0,0,0,0,1,11.57,8.45Z"/><path class="cls-19" d="M11.41,8.64s0,0,0,0,0,0,0,0,0,0-.07,0,0,0,0,0Z"/><path class="cls-19" d="M11.39,8.44s0,0,0,0,0,0,0,0,0,.06,0,.06,0,0,0-.07Z"/><path class="cls-19" d="M11.24,8.47s0-.05,0-.05a.06.06,0,0,1,.06.05.05.05,0,0,1-.1,0Z"/><path class="cls-19" d="M11.27,8.3s0,0,0,0,.05,0,.05,0,0,0-.06,0,0,0,0-.06Z"/><path class="cls-19" d="M11.43,8.28s0,0,0,0a0,0,0,0,1,0,0s0,0-.06,0,0,0,0-.07Z"/><path class="cls-20" d="M11.27,8.29a0,0,0,0,1,0,0s0,0,0,0a0,0,0,0,1,0,0,0,0,0,0,1,0,0Z"/><path class="cls-20" d="M11.24,8.47s0,0,0,0,0,0,0,0a0,0,0,0,1,0,0s0,0,0,0Z"/><path class="cls-20" d="M11.43,8.28s0,0,0,0,0,0,0,0a0,0,0,0,1,0,0,0,0,0,0,1,0,0Z"/><path class="cls-20" d="M11.4,8.45a0,0,0,0,0,0,0,0,0,0,0,0,0,0,0,0,0,0,0,0,0,0,0,0,0,0,0,0Z"/><path class="cls-20" d="M11.58,8.42a0,0,0,0,0,.08,0,0,0,0,0,0-.08,0A0,0,0,0,0,11.58,8.42Z"/><path class="cls-20" d="M11.4,8.64a0,0,0,0,1,0,0,0,0,0,0,1,0,0s0,0-.05,0S11.4,8.66,11.4,8.64Z"/><path class="cls-20" d="M11.56,8.61s0,0,0,0,0,0,0,0a0,0,0,0,1,0,0s0,0,0,0Z"/><path class="cls-16" d="M11.6,8.34a.16.16,0,0,1,0,.05s0,0,0,.05,0,0,0,0a.29.29,0,0,1,0-.07Z"/><path class="cls-16" d="M11.46,8.2a.1.1,0,0,1,0,0s0,0,0,0,0,0,0,0a.32.32,0,0,1,0-.05Z"/><path class="cls-16" d="M11.3,8.22a.1.1,0,0,1,0,0s0,0,0,0,0,0,0,0a.32.32,0,0,1,0-.05Z"/><path class="cls-16" d="M11.25,8.25l0,0s0,0,0,0,0,0,0,0l0,0Z"/><path class="cls-16" d="M11.37,8.42l0,0s0,0,0,0,0,0,0,0l0,0Z"/><path class="cls-16" d="M11.22,8.41l0,0s0,0,0,0l0,0,0,0Z"/><path class="cls-16" d="M11.58,8.52a.26.26,0,0,1,0,.06s0,0,0,0,0,0,0,0a.21.21,0,0,1,0-.06Z"/><path class="cls-16" d="M11.54,8.58l0,0s0,0,0,0,0,0,0,0l0,0Z"/><path class="cls-16" d="M11.38,8.59h0s0,0,0,0,0,0,0,0l0,0Z"/><path class="cls-19" d="M11.32,8.1s-.14,0-.17.12a.85.85,0,0,0,0,.19l0-.12,0-.08,0-.07.06,0,.06,0h0Z"/><path class="cls-19" d="M11.76,8.64s0,0,0-.15a2.07,2.07,0,0,0-.13-.26l.07.08.05.09,0,.08,0,.07v.09Z"/><path class="cls-16" d="M11.9,8.46s0,0,.05.05,0,0,0,0,0,0,0,0a.28.28,0,0,1,0-.05Z"/><path class="cls-16" d="M11.69,9A.17.17,0,0,1,11.75,9s.05,0,.06,0,0,0,0,0l-.08,0Z"/><path class="cls-16" d="M12,9.15l.06,0s0,0,0,0,0,0,0,0a.3.3,0,0,0,0,.07Z"/><path class="cls-16" d="M12,9.12a.23.23,0,0,1,0-.06s0,0,0,0,0,0,0,0l-.06,0Z"/><path class="cls-17" d="M12.59,8.85A.81.81,0,0,0,12,8.52a.32.32,0,0,0-.35.3c0,.07.11.23.47.26s.42-.17.43-.18,0,0,0,0Z"/><path class="cls-18" d="M12.33,8.64a.76.76,0,0,1,.13.12c0,.05,0,.09,0,.1a2.12,2.12,0,0,0-.38-.21c-.16,0-.3,0-.33.07a.21.21,0,0,0,.05.24,2.13,2.13,0,0,0,.42.1l.16,0,.1-.06,0-.05,0-.07v0l-.08-.09-.15-.1Z"/><path class="cls-19" d="M12.06,8.68s0,0,0,0,0,0,0,0a0,0,0,0,1,0,0,0,0,0,0,1,0,0Z"/><path class="cls-19" d="M11.86,8.75s0,0,0,0a0,0,0,0,1,0,0s0,0-.06,0a.06.06,0,0,1,0-.06Z"/><path class="cls-19" d="M12.07,8.87a0,0,0,0,1,.1,0s0,.05-.06.05,0,0,0-.05Z"/><path class="cls-20" d="M11.91,8.92s0,0,0,0a0,0,0,0,1,0,0,0,0,0,0,1,0,0S11.91,8.94,11.91,8.92Z"/><path class="cls-19" d="M12.2,9a0,0,0,0,1,0,0s0,0,0,0a0,0,0,0,1,0,0,0,0,0,0,1,0,0Z"/><path class="cls-19" d="M12.33,8.9s0,0,0,0a0,0,0,0,1,0,0s0,0-.05,0,0,0,0-.05Z"/><path class="cls-20" d="M12,8.66s0,0,0,0,0,0,0,0,0,0,0,0,0,0,0,0Z"/><path class="cls-20" d="M11.94,8.75s0,0,0,0a0,0,0,0,1,0,0s0,0,0,0,0,0,0,0Z"/><path class="cls-20" d="M12,8.92s0,0,0,0,0,0,0,0,0,0,0,0,0,0,0,0Z"/><path class="cls-20" d="M12.16,8.86s0,0-.05,0,0,0,0-.05a0,0,0,0,1,0,0,.06.06,0,0,1,0,0Z"/><path class="cls-20" d="M12.41,8.91s0,0,0,0,0,0,0,0,0,0,0,0,0,0,0,.05Z"/><path class="cls-20" d="M12.26,9a0,0,0,1,1-.06,0s0,0,0,0S12.26,9,12.26,9Z"/><path class="cls-16" d="M12.28,8.88h.06s0,0,0,0h0Z"/><path class="cls-16" d="M12.14,9l0,0s0,0,0,0,0,0,0,0h-.06Z"/><path class="cls-16" d="M12,8.79s.06,0,.07,0,0,0,0,0,0,0,0,0l0-.07Z"/><path class="cls-16" d="M12,8.87h.1s0,0,0,0H12Z"/><path class="cls-16" d="M11.88,8.87l.06,0s0,0,0,0h0l0,0Z"/><path class="cls-16" d="M11.87,8.94s0,0,0,0h0s0,0,0,0h-.05Z"/><path class="cls-16" d="M11.83,8.72h.05s0,0,0,0h0a.09.09,0,0,1,0,0Z"/><path class="cls-16" d="M11.94,8.59a.16.16,0,0,1,.07,0s0,0,0,0l0,0,0-.06Z"/><path class="cls-19" d="M12.53,9a.51.51,0,0,1-.34.08.62.62,0,0,1-.5-.22l0,.05.05.07.16.08.18,0h.15l.14,0L12.5,9l0,0V9Z"/><path class="cls-19" d="M12.56,8.85l-.09-.1c-.05-.05-.27-.19-.27-.19l.17.08.11.1.08.09v0Z"/><path class="cls-16" d="M12.57,8.64l.07,0,0,0s0,0,0,0l0,0,0,0Z"/><path class="cls-16" d="M12.75,8.55a.22.22,0,0,1,.07.05s0,0,0,.05l-.05,0,0-.06Z"/><path class="cls-16" d="M12.8,8.54l.06.06s0,0,0,0,0,0,0,0Z"/><path class="cls-16" d="M13.1,8.61s0,0,0,0a.14.14,0,0,1,0,.06l0,0a.06.06,0,0,0,0,0v0Z"/><path class="cls-16" d="M13.18,8.63a.16.16,0,0,1,0,.05s0,0,0,0,0,0,0,0,0-.06,0-.06Z"/><path class="cls-16" d="M12.64,9.28h0s0,0,0,0,0,0,0,0,0,0,0,0l0,0Z"/><path class="cls-16" d="M12.94,9.36a.13.13,0,0,0,.07,0s0,0,0-.06a0,0,0,0,0,0,0,.25.25,0,0,1,0,.07Z"/><path class="cls-16" d="M13.18,9.37l.05,0s0,0,0,0,0,0,0,0,0,0,0,0l0,.06Z"/><path class="cls-16" d="M13.25,9.37a.29.29,0,0,0,0-.06s0,0,0,0a0,0,0,0,0,0,0v.07Z"/><path class="cls-17" d="M12.52,9c0-.11.15-.35.33-.35a1,1,0,0,1,.33.09c.1,0,.13.09.19.11a.55.55,0,0,0,.16,0l.22,0-.17.25-.06.05a.4.4,0,0,1-.21.16,1.06,1.06,0,0,1-.53,0A.32.32,0,0,1,12.52,9Z"/><path class="cls-19" d="M12.52,9h0a.26.26,0,0,1,0-.09.53.53,0,0,1,.12-.16.26.26,0,0,1,.17-.08h0l.15,0,.18.06.11.06.09,0h.16l.19,0L13.56,9l-.06.05h0a.39.39,0,0,1-.2.16.55.55,0,0,1-.19,0,1.5,1.5,0,0,1-.33,0,.36.36,0,0,1-.16-.09A.25.25,0,0,1,12.53,9h0a.27.27,0,0,0,.09.19.39.39,0,0,0,.17.1,1.52,1.52,0,0,0,.33,0,.57.57,0,0,0,.2,0,.41.41,0,0,0,.21-.17h0l.06-.06.18-.27-.24,0h-.16l-.08,0-.11-.06L13,8.65l-.15,0h0a.24.24,0,0,0-.13,0,.49.49,0,0,0-.15.16.36.36,0,0,0-.06.16h0Z"/><path class="cls-18" d="M13.57,9H13.5a2.69,2.69,0,0,0-.65-.28c-.15,0-.29.08-.3.23s0,.15.06.2a1.25,1.25,0,0,0,.32.11h.18l.14,0,.13-.07.07-.06,0-.06L13.57,9Z"/><path class="cls-19" d="M12.81,8.94s0,.05,0,.05-.05,0-.05,0,0,0,0,0,0,0,0,0Z"/><path class="cls-19" d="M12.86,8.8s0,0,.05,0,0,0,0,0a0,0,0,0,1,0,0,0,0,0,0,1-.05,0Z"/><path class="cls-19" d="M13.14,8.88a0,0,0,0,1,.08,0,0,0,0,0,1-.08,0A0,0,0,0,1,13.14,8.88Z"/><path class="cls-19" d="M13.2,9.06a0,0,0,0,1,0-.05s0,0,0,0,0,.05,0,.05-.06,0-.06,0Z"/><path class="cls-19" d="M13.06,9.17a0,0,0,0,1,.09,0,0,0,0,0,1,0,0A0,0,0,0,1,13.06,9.17Z"/><path class="cls-19" d="M12.8,9.12a0,0,0,0,1,.08,0,0,0,0,0,1-.08,0A0,0,0,0,1,12.8,9.12Z"/><path class="cls-20" d="M12.81,8.93a0,0,0,0,1-.09,0s0,0,0,0,0,0,0,0Z"/><path class="cls-20" d="M12.94,8.79s0,0,0,0-.06,0-.06,0a0,0,0,0,1,.09,0Z"/><path class="cls-20" d="M13.22,8.87a0,0,0,0,1-.08,0,0,0,0,0,1,.08,0A0,0,0,0,1,13.22,8.87Z"/><path class="cls-19" d="M13.08,9s0,.05,0,.05S13,9,13,9s0,0,0,0,0,0,0,0Z"/><path class="cls-20" d="M12.87,9.11a0,0,0,0,1-.09,0s0,0,.05,0A0,0,0,0,1,12.87,9.11Z"/><path class="cls-20" d="M13.07,9A0,0,0,0,1,13,9a0,0,0,0,1,.09,0A0,0,0,0,1,13.07,9Z"/><path class="cls-20" d="M13.29,9a0,0,0,0,1,0,0,0,0,0,0,1,0,0s0,0,0,0,.06,0,.06,0Z"/><path class="cls-20" d="M13.15,9.16a0,0,0,0,1,0,0s0,0,0,0,0,0,0,0S13.15,9.13,13.15,9.16Z"/><path class="cls-16" d="M13.17,9s.07,0,.08,0a0,0,0,0,1,0,0h0l0,0Z"/><path class="cls-16" d="M13.1,8.78a.21.21,0,0,1,.08,0s0,0,0,.05a0,0,0,0,1,0,0l-.05-.08Z"/><path class="cls-16" d="M12.93,8.9A.36.36,0,0,1,13,9s0,0,0,0,0,0,0,0l0-.09Z"/><path class="cls-16" d="M12.9,8.94,13,9s0,0,0,0a0,0,0,0,1,0,0l0,0,0,0Z"/><path class="cls-16" d="M12.82,8.73l.09,0s0,0,0,.05,0,0,0,0l0-.05Z"/><path class="cls-16" d="M12.66,8.85a.3.3,0,0,1,.09.06s0,0,0,0,0,0,0,0Z"/><path class="cls-16" d="M12.65,8.93h.06s.05,0,.05,0,0,0,0,0l-.07,0Z"/><path class="cls-16" d="M13,9.17s0,0,.07,0,0,0,0,0,0,0,0,0H13Z"/><path class="cls-16" d="M12.76,9.14s0,0,0,0h0s0,0,0,0h0Z"/><path class="cls-19" d="M13.51,9.09a.52.52,0,0,1-.17.13.6.6,0,0,1-.32,0,.65.65,0,0,1-.3-.08A.49.49,0,0,1,12.54,9s0,.05,0,.05l.09.11.1,0,.15,0,.14,0h.11l.13,0,.08,0,.06,0,0,0,.05-.09Z"/><path class="cls-19" d="M13.37,8.83s0,0-.12,0a.66.66,0,0,0-.38-.12.3.3,0,0,0-.27.14l.09-.12.09,0h.14l.09,0,.08,0,.09,0,.08,0,.1,0,0,0Z"/><path class="cls-19" d="M13.63,8.89h-.15s0,0,0,0v0l0-.08.15,0,.08,0v0Z"/><path class="cls-21" d="M13.42,9.69a.06.06,0,0,0,0,0h.22l.05-.06,0-.14,0-.05L14,9.38l.12,0h.08l.11,0,.08,0,0-.05,0-.08,0-.11-.09-.11-.15-.06H14l-.14,0L13.67,9a.43.43,0,0,0-.19.16.49.49,0,0,0-.06.26c0,.14,0,.31,0,.31Z"/><path class="cls-20" d="M13.49,9.63s0-.08.06-.16a.89.89,0,0,1,.13-.2s0,0,0,0l.05,0a.13.13,0,0,1,0-.09.5.5,0,0,1,.12-.08s0,0,0,0,0,0,0,0,.06,0,.07,0a.08.08,0,0,0,0,0,.09.09,0,0,1,.08,0c.05,0,.06,0,.06,0s0,0,0,0,0,0,0,0,0,0,0,0a.06.06,0,0,0,0,0v0s0,0,0,0,0,0,0,0,.07.08.08,0a.1.1,0,0,0,0-.08l-.08-.12-.13,0H14l-.17.1-.16.08s0,.13,0,.1-.07-.09-.08-.06,0,.11-.06.16a1,1,0,0,0-.06.24c0,.05,0,.13.05.13Z"/><path class="cls-20" d="M13.64,9.43l0,0a0,0,0,0,0,0,0s0,0,0,0h.06a.06.06,0,0,0,0,0,0,0,0,0,0,0,0l0,0Z"/><path class="cls-20" d="M13.91,9.21a0,0,0,0,0,0,0,.06.06,0,0,0,0,0s0,0,0,0,0,0,.06,0a0,0,0,0,0,0,0s0,0,0,0h0Z"/><path class="cls-20" d="M14.13,9.26h0a0,0,0,0,0,0,0s0,0,.05,0,0,0,0,0v0Z"/><path class="cls-20" d="M13.5,9.3a.05.05,0,0,0,.05,0,.06.06,0,0,0,.05,0s0,0,0,0,0,0,0,0h0Z"/><path class="cls-19" d="M13.71,9.47a0,0,0,0,1,0,0h-.08v0a.06.06,0,0,0,.06,0,.09.09,0,0,0,.05,0Z"/><path class="cls-19" d="M14.29,9.11a0,0,0,0,1,0,0h0l0,0a.07.07,0,0,1,0-.07s0,.07.05.06a.09.09,0,0,0,.06,0Z"/><path class="cls-19" d="M13.77,9.24s0,.05-.05.05,0,0,0,0h0l.05,0Z"/><path class="cls-19" d="M13.87,9.23s0,0,0,.05l0,0,0,0a0,0,0,0,0,0,0v0h0s0,0,0,0l0,0Z"/><path class="cls-19" d="M14.06,9a.05.05,0,0,1,0,.05s-.07,0-.07,0,0,0,.05,0a.15.15,0,0,0,0-.05Z"/><path class="cls-19" d="M13.47,9.72s.23,0,.25,0,0-.15.12-.25a.54.54,0,0,1,.32-.1.28.28,0,0,0,.26-.2c0-.09-.1-.09-.14-.17s-.16,0-.16,0a.31.31,0,0,0-.19.05s0,.08,0,.1-.17,0-.18,0,0,.08,0,.09,0,0,0,0V9l.19-.11.22-.12h.15l.15.08.07.09a.39.39,0,0,1,0,.1.23.23,0,0,1,0,.08.32.32,0,0,1-.29.22.61.61,0,0,0-.31.11c-.06,0-.09.23-.09.26a1.18,1.18,0,0,1-.28,0h0Z"/><path class="cls-16" d="M13.56,9.27s0,0,0,0a.18.18,0,0,1,0-.09.4.4,0,0,0,0,.07l0,0s0,0,0,0Z"/><path class="cls-16" d="M13.71,9.24s0,0,0-.05l.07-.06,0,.06s0,.06,0,.05Z"/><path class="cls-16" d="M13.65,9.47s0,0,0,0,0-.07,0-.07v.05s0,0,0,0,0,0,0,0Z"/><path class="cls-16" d="M13.76,9.41l0,0s0,0-.06,0,0,0,0,0Z"/><path class="cls-16" d="M14,9.13a.15.15,0,0,0,0,.05s0,.06,0,.06,0,0,0,0V9.13Z"/><path class="cls-16" d="M14,9.23,14,9.2s0,0-.05,0,0,0,0,0,0,0,0,0H14Z"/><path class="cls-16" d="M14,9s0,0,0,0a.2.2,0,0,0,0-.05l0,0s0,0,0,0Z"/><path class="cls-16" d="M14.28,9l-.05,0s0,0,0,0,0,0,0,0l0-.06Z"/><path class="cls-16" d="M14.2,9.23a.12.12,0,0,1,0,0l-.06,0s0,0,0,0h0l0,0Z"/></g><g id="blooms"><ellipse class="cls-22" cx="12.25" cy="8.57" rx="0.19" ry="0.12" transform="translate(1.94 19.39) rotate(-81.33)"/><path class="cls-4" d="M12.32,8.23h0l-.07.19h.06l0-.16Z"/><path class="cls-5" d="M12.36,8.15a.05.05,0,1,0,0,.06.05.05,0,0,0,0-.06Z"/><path class="cls-4" d="M15.55,8.62h0l-.18.17.08,0,.13-.16Z"/><path class="cls-5" d="M15.63,8.55a.07.07,0,0,0-.09,0,.06.06,0,0,0,0,.08.07.07,0,0,0,.09,0,.06.06,0,0,0,0-.08Z"/><path class="cls-4" d="M10.91,7.63h0l.1.21,0-.06-.11-.16Z"/><path class="cls-5" d="M10.87,7.54a.06.06,0,0,0,0,.08.06.06,0,0,0,.08,0,.06.06,0,0,0,0-.08.06.06,0,0,0-.08,0Z"/><path class="cls-6" d="M12.38,8.16s0,0,0,0-.06,0-.06,0a0,0,0,0,0,0,0s0,0,0,0h0V8.18l0,0h.05Z"/><path class="cls-6" d="M12.34,8.29h0l0,0,0-.1h0v0Z"/><path class="cls-6" d="M15.65,8.56s0,0,0,0a.07.07,0,0,0-.09,0,.05.05,0,0,0,0,.07s0,0,0,0l0,0V8.58l0,0,0,0h.06Z"/><path class="cls-6" d="M15.53,8.68a0,0,0,0,0,0,0l-.06,0,.1-.09,0,0,0,0Z"/><path class="cls-6" d="M10.89,7.53s0,0,0,0a.06.06,0,0,0,0,.09,0,0,0,0,0,.07,0s0,0,0,0l0,0h-.05l0,0V7.55h0Z"/><path class="cls-6" d="M11,7.66a0,0,0,0,0,0,0v.06l-.05-.12h0l0,0Z"/><ellipse class="cls-23" cx="11.13" cy="8.03" rx="0.13" ry="0.2" transform="translate(-2.44 5.95) rotate(-27.09)"/><path class="cls-24" d="M10.9,8A.12.12,0,0,0,11,8s0,0,0,0a.06.06,0,0,0,0,0,.16.16,0,0,0,0-.06h0s0,0,0,0-.08.07-.06.08h0a.2.2,0,0,1,0,0s0,0,0,0Z"/><path class="cls-24" d="M11,7.85l0,0h0s0,0,0,0a.06.06,0,0,0,0,0s0,0,0,0h0s0,0,0,0-.11,0-.1.06h0s0,0,0,.06Z"/><path class="cls-24" d="M11.19,7.83a.12.12,0,0,0,0-.08l0,0s0,0,0,0-.11,0-.1,0h0l0,0a.12.12,0,0,0,0,0s0,0,0,0h.09v0Z"/><path class="cls-24" d="M12.14,8.38s0,0,0,0h0l0,0a.14.14,0,0,0,0-.06l0,0s0,0,0,0-.09,0-.09,0,0,0,0,0l0,0s0,0,0,0Z"/><path class="cls-24" d="M12.26,8.35a.13.13,0,0,0,0,0l0,0h.05l0,0s0,0,0,0v0l0,0s-.09,0-.1,0,0,0,0,0l0,0Z"/><path class="cls-24" d="M12.41,8.47s0,0,0,0,0,0,0,0h0s-.07-.07-.07-.06,0,0,0,0h0l0,0s0,0,0,0v0l0,0h0Z"/><path class="cls-24" d="M15.27,8.71a.11.11,0,0,0,0,.05l0,0h0l0,0s0,0,0,0,0,0,0,0-.07,0-.08,0,0,0,0,0h0s0,0,0,0Z"/><path class="cls-24" d="M15.39,8.74l0,0a.07.07,0,0,0,0,0l0,0h0l0,0a0,0,0,0,1,0,0h0s-.05-.07-.06-.07,0,0,0,0h0Z"/><path class="cls-24" d="M15.41,8.9h.06l0,0h0s0-.08,0-.08,0,0,0,0l0,0H15.4v0a.1.1,0,0,0,0,0h0Z"/><path class="cls-25" d="M11,7.89s0,0,0,.06-.06,0-.06,0,0,0,0,0,0,0,0,0l0,0Z"/><path class="cls-25" d="M11,7.83a0,0,0,0,0,0,0H11a.11.11,0,0,0,0-.07h0l0,0Z"/><path class="cls-25" d="M11.1,7.77a0,0,0,0,0,0,0l0,0s0,0,0,0H11.1Z"/><path class="cls-25" d="M12.24,8.37s0,0,0,0,0,0,0,0l0,0h0a.05.05,0,0,1,0,0Z"/><path class="cls-25" d="M12.28,8.35a0,0,0,0,0,0,0,.06.06,0,0,0,0,0l.05,0a0,0,0,0,0,0,0h0Z"/><path class="cls-25" d="M12.39,8.39l0,0a.07.07,0,0,0,0,0s0,0,0,0,0,0,0,0l0,0Z"/><path class="cls-25" d="M15.36,8.74h0s0,0,0,0h0l0,0a.05.05,0,0,1,0,0Z"/><path class="cls-25" d="M15.4,8.75h0a.05.05,0,0,0,0,0h.06a0,0,0,0,0,0,0l0,0Z"/><path class="cls-25" d="M15.45,8.83h0a.06.06,0,0,0,0,0s0,0,0,0h0s0,0,0,0Z"/><ellipse class="cls-26" cx="15.27" cy="8.92" rx="0.19" ry="0.1" transform="translate(-2.04 12.55) rotate(-42.15)"/></g><g id="eagle_snake" data-name="eagle snake"><g id="snake1"><path class="cls-27" d="M11.91,6.17a1.36,1.36,0,0,1-.28,0c-.12,0-.09-.31-.09-.32s-.07-.08-.06-.15.22-.24.25-.25a.13.13,0,0,1,.06,0s.05-.05.07-.05,0,0,0,0-.08.06-.09.09a.22.22,0,0,1,0,.1.46.46,0,0,0-.07.1s0,.05,0,.06a.25.25,0,0,0,.15,0c.06,0,.08-.06.09-.06s0,.07-.1.1-.11.06-.14.05,0,.09.08.09a.4.4,0,0,0,.18,0l-.07.23Z"/><path class="cls-27" d="M11.26,6.86a.14.14,0,0,1,.09.13c0,.1-.1.18-.09.35s0,.17.26.36a.25.25,0,0,1,.07.11c0,.06.05.38.27.38s.25-.14.25-.14L12,7.91a.3.3,0,0,1-.12,0,.15.15,0,0,1-.1-.09,1.65,1.65,0,0,0-.07-.23c-.09-.14-.25-.16-.26-.3s.1-.16.07-.33-.23-.25-.23-.25l-.08,0,0,.17h.07Z"/><path class="cls-28" d="M11.86,5.66c.07,0,0-.21,0-.21l-.05,0a.16.16,0,0,1,0,.08.3.3,0,0,1,0,.08Z"/><path class="cls-27" d="M12,7.56l0,0s-.14-.11-.12-.39.47-.48.5-.6.14-.2-.23-.48l-.08.1.15.11s0,0,0,0,0,.08,0,.11a2.14,2.14,0,0,1-.25.2l-.13.1a.63.63,0,0,0-.11.18.54.54,0,0,0,0,.28.41.41,0,0,0,.35.39Z"/><path class="cls-29" d="M11.77,7.74l0,.12-.07,0h-.05l-.06.05h0s0,0,0,0,0-.06,0-.06l.07,0h0l0-.06.05-.07Z"/><path class="cls-29" d="M11.56,7.76l0,0,0,0,0,0h.05v.06l0,0Z"/><path class="cls-29" d="M11.68,7.57a.1.1,0,0,1,0,0l0,.06h-.08l-.06,0,0-.06h0Z"/><path class="cls-29" d="M11.65,8.09a.08.08,0,0,1,0,0,.54.54,0,0,1,0-.07h.06l.07,0h0l0,0-.06.05h0Z"/><path class="cls-29" d="M11.87,7.91s0,0-.06,0,0,0,0,0l0,.07,0,.06h.06l0,0v0Z"/><path class="cls-29" d="M11.67,8.12l.06,0,.05,0,0,0,0-.05H11.7l0,0Z"/><path class="cls-29" d="M11.86,8.07,12,8V7.94l0,0h-.07l0,.08v.07Z"/><path class="cls-29" d="M11.78,8.17a.31.31,0,0,0,.22,0c.06,0,.07-.05.07-.05l-.05,0-.05,0-.18,0Z"/><path class="cls-29" d="M11.67,7.29l0-.06a.21.21,0,0,1,0,0l0,0,.06,0,0,0h0Z"/><path class="cls-29" d="M11.77,7.46l0,0,0,0h0l.05,0,0,.06h0Z"/><path class="cls-30" d="M11.51,5.64s0,.08,0,.09.1,0,.2-.11a.17.17,0,0,0,0-.1l0-.06a.09.09,0,0,0-.1,0,1.81,1.81,0,0,0-.19.17Z"/><circle class="cls-31" cx="11.77" cy="5.49" r="0.02"/><path class="cls-27" d="M11.65,5.5l-.08.07a.32.32,0,0,0,.11-.06.15.15,0,0,1,.11,0s0,0,0,0a.1.1,0,0,0-.07,0l-.08.06Z"/><path class="cls-29" d="M11.84,7.26a.35.35,0,0,1,0,0,.2.2,0,0,1,0,0l0,0,0,0,.06,0h0Z"/><path class="cls-29" d="M11.64,7.15a.73.73,0,0,1,0-.1,1.16,1.16,0,0,1,0-.14l0,.06.07.11,0,0-.06,0-.06,0h0Z"/><path class="cls-29" d="M11.84,7.12v0l0-.06h0l-.06.05,0,0,0,0h0"/><path class="cls-29" d="M11.68,6.87a.22.22,0,0,1,0-.07l.06-.08,0,.1,0,.09v0h0l-.08,0,0-.06Z"/><path class="cls-29" d="M11.89,7l0,0,0,0-.14,0,0,0h0Z"/><path class="cls-29" d="M11.8,6.7l.05,0s.06,0,.06,0l0,.15-.07,0,0-.05Z"/><path class="cls-29" d="M12,6.9h0l.08-.08-.14,0,0,.1Z"/><path class="cls-29" d="M12,6.67V6.53l-.06,0-.05,0,0,0,0,0h0Z"/><path class="cls-29" d="M12.16,6.53V6.42h0l0,0,0,0,0,0h0Z"/><path class="cls-29" d="M12.21,6.69l.07-.06a.28.28,0,0,0,.06-.07h-.18v.07l0,.07Z"/><path class="cls-29" d="M11.79,6.09v.08h.15l0-.05,0,0,0,0Z"/><path class="cls-29" d="M12.08,6.79l.07-.05.05,0-.14,0v.09l0,0Z"/><path class="cls-29" d="M12.35,6.54a.46.46,0,0,0,0-.11.28.28,0,0,0,0-.08l-.11.07,0,.05,0,0,0,0Z"/><path class="cls-29" d="M12.17,6.4a.17.17,0,0,0,0-.06v0h.14l0,0-.05,0h-.07l0,0Z"/><path class="cls-29" d="M12.34,6.32l-.05-.09,0,0,0,.12h.13Z"/><path class="cls-2" d="M11.3,7.16l0,0a.25.25,0,0,1,.1,0s.09.06.09.06v0s-.06-.06-.1-.06a.18.18,0,0,0-.09,0Zm0-.25v0a.11.11,0,0,1,.06-.07.1.1,0,0,1,.09,0s0,0,0,0a.09.09,0,0,0-.08,0,.16.16,0,0,0,0,.07Zm.19.19A.13.13,0,0,0,11.44,7a.17.17,0,0,0-.11,0v0a.15.15,0,0,1,.11,0,.13.13,0,0,1,.06.07v0Zm-.22-.22v0a.14.14,0,0,1,0-.09l0,0h0a.17.17,0,0,0-.05.05.14.14,0,0,0,0,.07Zm0-.1a.1.1,0,0,1,.05,0h0a.1.1,0,0,0,0,0,.23.23,0,0,0,0,.08h0a.25.25,0,0,1,0-.09Zm.34-.83a.11.11,0,0,1,.06,0,.13.13,0,0,0,0,.12.45.45,0,0,0,0,.1h0l0-.08a.27.27,0,0,0,.08.09h0a.3.3,0,0,1,0-.11h0a.22.22,0,0,0,.09.06h0A.3.3,0,0,1,11.82,6h0A.18.18,0,0,1,11.9,6l0,0h0l0,0h0L11.81,6l0-.07h0a.14.14,0,0,0-.09.07s.05-.1.05-.1v0l-.1,0a.15.15,0,0,0-.07.06V6a.35.35,0,0,1,.08-.07Zm.06.09A.23.23,0,0,1,11.76,6a.14.14,0,0,0,0,.07.35.35,0,0,0,0,.1.33.33,0,0,1-.08-.09h0ZM11.35,7V7a.13.13,0,0,1,.09,0,.16.16,0,0,1,.1,0s0,0,0,0a.2.2,0,0,0-.09,0,.18.18,0,0,0-.09,0Zm.93-.49,0,0h0l.07-.07,0,0h-.13l0-.07,0-.06,0,0s0,0,0,0a.29.29,0,0,1-.12,0v0l.11,0h.05l0,.06v0h0v0h.14a.28.28,0,0,1-.07.06h0l0-.07v0l0,0h-.07l0,0s0,.05,0,.11l-.08,0h0l0,0a.49.49,0,0,0,0,.14h0a.21.21,0,0,1-.1-.06h0a.4.4,0,0,0,0,.14.26.26,0,0,1-.11-.06l0,0s0,.12,0,.19v0h0a.14.14,0,0,1-.1-.06l0,0a.34.34,0,0,0,.09.17h0a.26.26,0,0,1-.12.05v0l.08.06h0a.21.21,0,0,1-.07,0v0l.08-.06.08,0v0h-.06l.06-.08v0l-.05,0c.08-.05.08-.08.08-.08l0,0a.11.11,0,0,1,0-.05l.13,0h0a.4.4,0,0,1,0-.11l.13,0,0,0a.6.6,0,0,1,0-.11h.15a.36.36,0,0,1,0-.13h.17v0a.32.32,0,0,1-.07-.07Zm-.46.67a.46.46,0,0,1-.06.09h0a.14.14,0,0,1-.06-.06l.11-.07,0,0Zm0-.14-.08.08,0,0s-.08-.09-.08-.16a.1.1,0,0,0,.09,0h0a.14.14,0,0,0,0,.06Zm.09-.11-.12,0v0a.73.73,0,0,1,0-.17.41.41,0,0,0,.11.05l0,.11Zm0-.13a.42.42,0,0,1,0-.13.19.19,0,0,0,.1,0,.65.65,0,0,0,0,.09h-.11Zm.25-.1a.27.27,0,0,1-.12,0v0a1,1,0,0,1,0-.13h0l.09,0h0a.43.43,0,0,0,0,.11Zm0-.14h0s0-.11,0-.11h.07a.17.17,0,0,0,0,.06l0,.05h-.14Zm-.33.81v0a.17.17,0,0,0-.05.06h0l-.09,0v0l.08,0h0l0,.06h0a.25.25,0,0,1,0-.07h.05v0l0,.06h.11l0,0h-.08l0-.05V7.37h0l0,0Zm-.49-.06a.18.18,0,0,1,.1,0v0s0-.06-.09-.06a.21.21,0,0,0-.11.05v.05a.15.15,0,0,1,.1-.06Zm.58.84a.34.34,0,0,1-.12,0l0-.07A.18.18,0,0,0,12,8V8a.21.21,0,0,1-.12.1c0-.05,0-.14,0-.14h0a.24.24,0,0,1-.08.07.33.33,0,0,0,0-.12v0a.17.17,0,0,1-.08,0h0a1.41,1.41,0,0,0,.07-.14v0a.66.66,0,0,1-.08.14v0l-.09,0v0l.08,0-.06.06V8l.13,0a.32.32,0,0,1-.09.09l0,0,.16,0a.41.41,0,0,1-.05.08.36.36,0,0,0,.16,0A.21.21,0,0,0,12,8.08l0,0a.13.13,0,0,1-.07.07ZM11.64,8l.05-.06h0c.07,0,.08,0,.08,0s0,0,0,.1a.36.36,0,0,1-.11,0Zm.06.13L11.76,8h0a.14.14,0,0,0,.1-.06.24.24,0,0,1,0,.12.33.33,0,0,1-.15,0Zm-.08-.43a.64.64,0,0,1,.14,0v0l-.12,0a.16.16,0,0,1,.07-.07h0s0,0-.06.06h0a.19.19,0,0,0-.1,0v0a.3.3,0,0,1,.1,0s0,.1,0,.1v0l0-.13h0Zm-.13-.27v0a.18.18,0,0,0-.12,0,.26.26,0,0,0-.09.08l0,0a.19.19,0,0,1,.08-.08.34.34,0,0,1,.12,0Zm.13.1,0,0a.3.3,0,0,0-.1,0,.16.16,0,0,0,0,.11.07.07,0,0,0,0,0,.22.22,0,0,1,0-.1.45.45,0,0,1,.1-.06Zm-.17,0a.2.2,0,0,1,.08,0l0,0a.22.22,0,0,0-.1,0,.68.68,0,0,0-.08.09l0,0,.08-.1Zm.22-1.94h0s.07,0,.08,0h0a.4.4,0,0,0,0,.1s0,.05,0,.08a.33.33,0,0,0,0,.12s0,.07,0,.07,0,0,0,0,0,0,0,0,0,0,0,0a.32.32,0,0,1,0-.12.25.25,0,0,0,0-.09,1,1,0,0,1,0-.11h-.06a.11.11,0,0,0-.08,0,.19.19,0,0,1-.07,0,.13.13,0,0,0,.09,0Z"/><path class="cls-29" d="M11.88,6h-.11l0,.08Z"/><path class="cls-29" d="M11.76,6l0,0h0l0,0,0,.08h0L11.76,6Z"/><path class="cls-29" d="M11.74,6.17l-.08-.12,0,.1h.12Z"/><path class="cls-29" d="M12.06,8.11h0a.39.39,0,0,1-.2.06.29.29,0,0,1-.15,0,.17.17,0,0,1-.07-.08.7.7,0,0,1,0-.17.47.47,0,0,0,0-.16.75.75,0,0,0-.16-.14.32.32,0,0,1-.12-.23v0a.49.49,0,0,1,0-.2.44.44,0,0,0,0-.15V7a.17.17,0,0,0-.06-.08l-.05,0h0l.06,0a.14.14,0,0,1,0,.07V7a.44.44,0,0,1,0,.14.51.51,0,0,0,0,.2s0,0,0,0a.33.33,0,0,0,.13.24.75.75,0,0,1,.16.14.7.7,0,0,1,.06.21.5.5,0,0,0,0,.11.18.18,0,0,0,.07.08.3.3,0,0,0,.16,0,.4.4,0,0,0,.21-.07h0Z"/><path class="cls-29" d="M12,7.9h-.06a.11.11,0,0,1-.08,0,.18.18,0,0,1-.05-.1.66.66,0,0,0,0-.14.48.48,0,0,0-.15-.16c-.06,0-.12-.1-.13-.15a.14.14,0,0,1,0,0,.4.4,0,0,1,0-.14.46.46,0,0,0,0-.17.34.34,0,0,0,0,0,.28.28,0,0,0-.14-.19l-.12-.06h0a.6.6,0,0,1,.13.08.25.25,0,0,1,.11.17V7a.45.45,0,0,1,0,.17.41.41,0,0,0,0,.14.16.16,0,0,0,0,0c0,.06.07.11.13.15a.48.48,0,0,1,.15.15.65.65,0,0,1,0,.14.19.19,0,0,0,.05.11.12.12,0,0,0,.08,0,.12.12,0,0,0,.06,0h0Z"/><path class="cls-27" d="M12.37,7.57s.08,0,.07.08a.58.58,0,0,1,0,.15l-.1-.09.06-.05,0,0v0Z"/><path class="cls-32" d="M11.07,6.83s-.07,0-.09,0a.13.13,0,0,1,0-.07s0,0,0-.05.06,0,.07,0,0-.07.05-.06.06,0,.06,0l0,.18Z"/><path class="cls-32" d="M11.15,6.85s-.06,0-.08,0,0-.07,0-.08,0,0,0-.06,0,0,.06,0,0-.06.06-.05a.06.06,0,0,1,0,0s0,.15,0,.18Z"/><path class="cls-32" d="M11.26,6.86a.06.06,0,0,1-.06,0s0-.07,0-.09,0,0,0-.06,0,0,.06,0,0-.07.06-.06.06,0,.05.06-.06,0-.07.06a.13.13,0,0,0,0,.09Z"/><path class="cls-33" d="M12.25,7.55l-.1-.12-.1-.12-.1,0-.06-.1V7.05l0-.07,0-.05s-.2.07-.1.46a.24.24,0,0,0,.15.19h.24Z"/><path class="cls-34" d="M12.16,6.27h0a0,0,0,0,1,0,0h0c-.07.15-.21.22-.33.31a.6.6,0,0,0-.17.17.52.52,0,0,0-.07.28v0a.46.46,0,0,0,.18.4.42.42,0,0,0,.23.07h.28l0,0v0a.08.08,0,0,1,0,.05l0,0h0l0,0a.1.1,0,0,0,0-.06,0,0,0,0,0,0,0l0,0H12a.41.41,0,0,1-.22-.07.45.45,0,0,1-.17-.39v0a.5.5,0,0,1,.07-.27A.8.8,0,0,1,12,6.58a.61.61,0,0,0,.24-.25h0a.09.09,0,0,0,0,0,.06.06,0,0,0,0,0l0,0h0Z"/><path class="cls-2" d="M12.43,7.62s0,.09-.06.09,0,0,.05,0v0a.23.23,0,0,0-.09,0v0l0,0a.17.17,0,0,0,0-.07l0,0Z"/><path class="cls-35" d="M12.62,7.67l-.12,0-.06,0s0,0,0-.07l-.07,0h-.11L12,7.32h.08l.13,0h.18l.07,0,0,0,0,0,0,.06,0,.07v.16Z"/><path class="cls-33" d="M12.62,7.67h-.18s0,0,0,0l0,.06V7.9l.11,0,.06,0,0-.15V7.67Z"/><path class="cls-35" d="M12.59,7.61h0v.05h0v0Z"/><path class="cls-35" d="M12.48,6.31V6.21l0-.06,0-.06L12.34,6l0,0V6h-.12l-.06.08a.84.84,0,0,1,.23.25.31.31,0,0,1,.12.07h0l0-.08Z"/><path class="cls-33" d="M12.36,6.41a.34.34,0,0,1,0,.16l.07-.09.05-.1a.31.31,0,0,0-.12-.07.21.21,0,0,1,0,.09Z"/><path class="cls-34" d="M12.54,7.84l-.06-.07-.06,0h0l0,0,0,0,0,0h0Z"/><path class="cls-36" d="M12.61,7.74a.18.18,0,0,1-.05.08l-.1.06.12,0,.08-.08-.05-.11Z"/><path class="cls-37" d="M12.63,7.84h0l0,0,0,0,0-.13h0l0,0v0Z"/><path class="cls-38" d="M11.91,6.17a1.36,1.36,0,0,1-.28,0c-.12,0-.09-.31-.09-.32s-.07-.08-.06-.15.22-.24.25-.25a.13.13,0,0,1,.06,0s.05-.05.07-.05,0,0,0,0-.08.06-.09.09a.22.22,0,0,1,0,.1.46.46,0,0,0-.07.1s0,.05,0,.06a.25.25,0,0,0,.15,0c.06,0,.08-.06.09-.06s0,.07-.1.1-.11.06-.14.05,0,.09.08.09a.4.4,0,0,0,.18,0l-.07.23Z"/></g><g id="eagle"><g id="wings"><path class="cls-39" d="M13.34,4.92s-.3-.06-.3.2c0,.08,0,.11.08.13a.61.61,0,0,1,.3.12.28.28,0,0,1,.12.23.28.28,0,0,1,0,.11l.07.33.07.25.21-.12L14,5.8l-.15-.66-.49-.22Z"/><path class="cls-40" d="M13.64,6.2a.24.24,0,0,0,.13-.13s-.11-.13-.11-.13l.09.06s0,0,.06,0,.06-.12,0-.14a.42.42,0,0,0-.09-.11.19.19,0,0,0-.1,0,.2.2,0,0,1,.12,0s0,0,0,0a.49.49,0,0,0,0-.16.1.1,0,0,0-.09-.07h-.1a.21.21,0,0,1,.12,0c.05,0,.05,0,.06,0a.53.53,0,0,0,0-.13.29.29,0,0,0-.09-.08h-.1a.15.15,0,0,1,.09,0c.05,0,.05,0,.06,0l0,0-.18-.09h-.14a0,0,0,0,1,0,0s.05,0,0,0l-.12,0h-.22a.12.12,0,0,1,0,0l.06,0s0,0,0,0l0-.06h.17l.36.21.17.14.11.27,0,.46-.24.2h-.11l0-.1Z"/><path class="cls-41" d="M13.33,5a.25.25,0,0,1,0-.07s0,0,0,0a.29.29,0,0,0-.2,0,.16.16,0,0,0,0,.18.27.27,0,0,1,.08-.05.45.45,0,0,1,.13,0s0,0,0,0h-.09a.15.15,0,0,1,.1,0c.06,0,.07,0,.07,0Z"/><path class="cls-42" d="M13.68,6.24l-.08,0,0,.32.31.53.16,0,.05-.1,0,0s.08.12.13.14.08,0,.12,0a3.29,3.29,0,0,1,.22.29s0-.11,0-.11l-.05-.15-.06-.1v0h.09l.05,0,.08.07,0,.05,0,.05v0l0,.07,0,.1.05.09,0,0,0-.11-.08-.26-.05-.09.08.05a.52.52,0,0,1,.08.1l0,.09,0,.09,0,.08,0,.08,0,0V7.52l0-.18,0-.2a.08.08,0,0,1,.05,0,.39.39,0,0,1,.05.1l0,.18,0,.16.05.17.05.1,0,.06V7.86l-.07-.69v0s0,0,0,0l0,.08,0,.11v.22l0,.15.07.16,0,.09,0-.11,0-.74,0,0,.05.06,0,0,0,.16,0,.47,0,.12.14-1.22.08,0v0l-.06,0-.14-.22-.09-.21-.16-.3-.29-.35L15,5.38l-.08-.06v0l0-.08h-.14l-.1,0-.19-.13-.2-.1-.12,0-.29-.07-.29,0h-.13l-.12,0a.14.14,0,0,0-.09.18c0,.05,0,.08.12.11a2.48,2.48,0,0,1,.27.16l.09.09,0,0v0l.06.48-.12.26-.09,0Z"/><path class="cls-43" d="M14,7a.08.08,0,0,0,.12,0c.07-.07,0-.26,0-.27s0,0,0,0l.05.1a.22.22,0,0,1,0,.14.31.31,0,0,1-.09.16l-.09,0V7Z"/><path class="cls-40" d="M15.79,8.12l-.07-.2s0-.13,0-.15,0-.34,0-.4,0-.13,0-.14l-.07-.1,0,0h0s0,0,0,0a.56.56,0,0,0,0-.19,2.49,2.49,0,0,0-.17-.36h0l0,0,.08.07.18.06.1,0,.06.12a2,2,0,0,1,0,.32.84.84,0,0,1-.05.3,2.9,2.9,0,0,0-.06.5.48.48,0,0,1,0,.11h0Z"/><path class="cls-42" d="M15.79,7.55a.3.3,0,0,0,.05-.1,1.65,1.65,0,0,0,0-.59.44.44,0,0,0-.18-.1,1.33,1.33,0,0,0,0,.15l0,.06,0,.08a1.43,1.43,0,0,1,0,.26c0,.12,0,.25,0,.25Z"/><path class="cls-40" d="M15.53,7.85a2.73,2.73,0,0,0,0-.39c0-.16,0-.19,0-.21A1.4,1.4,0,0,1,15.39,7a1.17,1.17,0,0,0-.09-.27s-.07-.09-.09-.07a.11.11,0,0,0,0,.05l-.07,0,0,0,0-.07V6.47l.09.07.18.12.09.37.08.23V8l0-.15Z"/><path class="cls-40" d="M15.64,6.78l.07.06s.08,0,.07.05l-.09,0-.05,0v0Z"/><path class="cls-40" d="M15.29,7.76a.42.42,0,0,0,0-.18,2.15,2.15,0,0,0-.07-.37A1,1,0,0,1,15.1,7C15,6.86,15,6.84,15,6.79l-.09-.11V6.54l.16.08.07,0,.08.38.07.11,0,.15,0,.35,0,.28v0l-.09-.18Z"/><path class="cls-40" d="M15.11,7.6a.79.79,0,0,0,0-.21A.57.57,0,0,0,15,7.18,1.51,1.51,0,0,1,14.82,7a2.5,2.5,0,0,0-.17-.22V6.61l.09.06.1.05,0,.16.05.12.08.1.05,0,0,.18,0,.1,0,.14v.07l0,0Z"/><path class="cls-40" d="M15,7.6l0,0a.1.1,0,0,0,0-.08.68.68,0,0,0-.05-.16.53.53,0,0,0,0-.1L14.65,7l-.16-.14-.08,0,0-.17s.06.08.09.09l.09,0L14.7,7l0,.06.11.09,0,.09,0,.11,0,.15v.09h0Z"/><path class="cls-40" d="M14.74,7.55a.44.44,0,0,1-.08-.14c0-.05,0-.05,0-.11a.58.58,0,0,0-.16-.2c-.06,0-.15-.12-.14-.16s0,0,0,0l0,0,.19.21.06.11,0,.13,0,.06,0,.08v0Z"/><path class="cls-40" d="M15.43,6.54s.13.17.17,0a.43.43,0,0,0,0-.2s-.12-.22-.17-.27l-.25-.32L15,5.7l.05.09a1.88,1.88,0,0,1,.26.36.62.62,0,0,1,.12.39h0Z"/><path class="cls-40" d="M14.66,5.55A3,3,0,0,1,15.1,6c.17.24.24.41.2.44s-.15,0-.19-.09A1.7,1.7,0,0,0,14.87,6a.75.75,0,0,0-.24-.21l-.12-.19.15-.05Z"/><path class="cls-40" d="M14.52,6.09a3.4,3.4,0,0,1,.25.24,1.62,1.62,0,0,1,.15.18l.06.06s0-.07,0-.09a0,0,0,0,1,0,0l-.5-.52v.14Z"/><path class="cls-40" d="M14.49,6.1a.8.8,0,0,0,.13.18l.17.17,0,.13s-.23-.17-.23-.13a.37.37,0,0,0,.05.13l-.07,0-.1-.14-.06-.12-.06-.17h.12Z"/><path class="cls-40" d="M13.81,6.64s.12.11.18,0a.26.26,0,0,0,0-.22s.17.25.21,0c0,0-.1-.2-.1-.2l0,0,.08.14a.15.15,0,0,0,.08-.13A.53.53,0,0,0,14.24,6l.08.09s.15,0,.16-.09-.13-.19-.13-.19.11,0,.1-.05-.14-.1-.15-.14a.07.07,0,0,1,.11-.07c.06,0,.15.06.19,0s0-.08,0-.08l-.09,0-.15-.08-.12,0-.12,0,0,.09,0,.25v.11l0,.25-.06.21,0,0,0,0-.05.11L14,6.43l-.09.12-.08.09Z"/><path class="cls-43" d="M14.64,7.1a.27.27,0,0,0-.26-.18l.17.18h.09Z"/><path class="cls-43" d="M14.89,7.15A.89.89,0,0,0,14.76,7c-.07-.07-.11-.16-.13-.16h0l0,.14.12.12s.11.08.14.08Z"/><path class="cls-43" d="M15.09,7.14A1.12,1.12,0,0,0,15,6.88a.54.54,0,0,0-.14-.18l0,.13.05.13L15,7.1l.07,0Z"/><path class="cls-43" d="M15.25,7.06a.89.89,0,0,0,0-.34.19.19,0,0,0-.12-.09l0,0,0,.19L15.2,7l.05.05Z"/><path class="cls-43" d="M15.41,6.62a.26.26,0,0,1,.09.11,2,2,0,0,1,.11.37s0,0,0,0l-.17-.26,0-.24h0Z"/><path class="cls-41" d="M14.28,6.93s.09,0,.09,0-.1-.09-.09-.14.09,0,.09,0-.09-.16-.06-.19.11.15.11.15a.24.24,0,0,1,0,.14c-.05.16-.16.1-.16.1Z"/><path class="cls-41" d="M14.48,6.73s.14,0,.14,0-.12-.13-.12-.13,0-.05,0-.06.09,0,.09,0-.09-.14-.09-.16,0,0,0,0a1.09,1.09,0,0,1,.11.14.28.28,0,0,1,.06.21c0,.11-.21,0-.2,0Z"/><path class="cls-41" d="M15.07,6.54s0-.09,0-.1l0,0a.33.33,0,0,0-.1,0s0,0,0,0,.06.1.06.1l.05.06Z"/><path class="cls-41" d="M14.67,6.61a1,1,0,0,0,.21,0s-.16-.17-.16-.17a.1.1,0,0,1,0,0s.07,0,.09,0,0,0,0,.06.07.11.08.09,0-.13,0-.14.08.07.1.08.13.1.14.06,0,0,0-.07,0,.11,0,.13a.16.16,0,0,1-.11,0l0,0,0,0s0,.11,0,.12h-.16l-.1-.08Z"/><path class="cls-41" d="M15.13,6.47s.21.13.24.11-.06-.33,0-.36.17.34.09.39-.09,0-.09,0l-.11-.06-.09-.1Z"/><path class="cls-41" d="M15.73,7l0,0h0V7Z"/><path class="cls-41" d="M15.52,6.3l0,0h0l0,0Z"/><path class="cls-41" d="M15.46,6.2a.05.05,0,0,0,.05,0s0,0,0,0l-.06,0a0,0,0,0,1,0,0H15.4l.06.1Z"/><path class="cls-41" d="M15.65,6.82l.08,0,0,0a.11.11,0,0,1-.08,0s0,0,0,0l0-.06Z"/><path class="cls-41" d="M15.3,5.84h.05a.07.07,0,0,1,0,.07l0,0-.07-.1h.07Z"/><path class="cls-41" d="M15,5.56h.06l.07,0a.31.31,0,0,1,0,.17S15,5.67,15,5.66l-.07-.11H15Z"/><path class="cls-41" d="M14.85,5.51s.11,0,.1-.06a.14.14,0,0,0-.06-.1l-.13.09.09.07Z"/><path class="cls-41" d="M14.57,5.38a.08.08,0,0,0,.06,0s.11-.12.17-.13.07,0,.08,0a.12.12,0,0,1,0,.09,1.53,1.53,0,0,1-.19.09h-.06l-.06,0v0Z"/><path class="cls-41" d="M14.54,5.19c0-.06-.07-.09-.09-.08s.06.07.07.15a.77.77,0,0,1,0,.15h0V5.19Z"/><path class="cls-41" d="M14.29,5.1a.67.67,0,0,0-.24-.16s.17.11.21.18,0,.16.06.18,0,0,0,0,0,0,0,0v0l0,0,0,0,0,0Z"/><path class="cls-41" d="M14,5a.73.73,0,0,0-.44-.13c-.15,0-.23,0-.2.09s.09.12.22.12a.7.7,0,0,1,.23,0,.42.42,0,0,1,.16.09.56.56,0,0,0-.11-.11L13.78,5s0,0,.08,0a.33.33,0,0,1,.24.14.25.25,0,0,1,0,.13s0,0,0,0v0a.1.1,0,0,0,0-.06A.34.34,0,0,0,14.09,5l0,0Z"/><path class="cls-41" d="M13.63,6.24a.35.35,0,0,0,.23-.29,1.47,1.47,0,0,0-.11-.55s0,0,.07,0a1.09,1.09,0,0,1,.11.46.35.35,0,0,1-.13.32.23.23,0,0,1-.17.08v0Z"/><path class="cls-41" d="M13.85,6.74s0,0,.07,0,.17-.07.17-.17S14,6.49,14,6.46a.13.13,0,0,1,0,0l.07,0,0,.1s0,0,.06,0,.11-.07.1-.13-.09-.13-.1-.16a.1.1,0,0,1,0-.05h.07l0,.08a.05.05,0,0,0,.05,0s.1-.08.09-.11l-.07-.12a.13.13,0,0,1,0,0h0a.13.13,0,0,0,.08,0c.05,0,.1,0,.1-.08s0-.07,0-.09a.08.08,0,0,1,0,0h0l0,.05V6l-.06.07-.06,0h0l0,.07v.09l-.05,0-.07,0v.08l0,.09-.09.05h0v.05l-.06.08-.1.07h-.07l0-.06v0Z"/><path class="cls-41" d="M14.41,5.83s.17,0,.16-.06-.17-.2-.18-.22a.13.13,0,0,1,0-.05l.08.08s.11,0,.14,0,0-.1,0-.1h.07v.1l-.06.24s0,.09-.06.1a.3.3,0,0,1-.16,0Z"/><path class="cls-41" d="M14.57,7.1a.11.11,0,0,0,0-.08.68.68,0,0,0-.12-.07l.12.15h0Z"/><path class="cls-41" d="M14.81,7.11a1.5,1.5,0,0,1-.1-.14s-.06-.11-.1-.12,0,.13,0,.13l.14.13h0Z"/><path class="cls-41" d="M15,7.11,15,6.93a.52.52,0,0,0-.1-.18s0,0,0,0l0,.14.08.12.06,0Z"/><path class="cls-41" d="M15.22,7a1.9,1.9,0,0,0,0-.2.26.26,0,0,0-.08-.15s0,.14,0,.14l.1.2Z"/><path class="cls-41" d="M15.57,7.1l-.08-.21a1,1,0,0,0-.09-.18.91.91,0,0,0,0,.13l.07.21.08.05Z"/><path class="cls-41" d="M15.87,6.73a.52.52,0,0,0-.17-.1.82.82,0,0,0-.23-.05h0l.05,0,.12.06.16,0h.06Z"/><path class="cls-44" d="M14.62,6.8a.29.29,0,0,0,.05.16c.05.06.18.18.2.2a1.66,1.66,0,0,1,.08.25c0,.1,0,.19.06.22s0,.08,0,.07,0,0-.06-.07,0,0,0-.09a1,1,0,0,0-.12-.35,1.7,1.7,0,0,1-.28-.27c-.07-.1-.05-.12-.05-.12h.1Z"/><path class="cls-44" d="M14.9,7.47a.78.78,0,0,1-.05-.19.64.64,0,0,0-.19-.18s-.08,0-.1,0l-.16-.17s0,0,0,0l.2.21a.87.87,0,0,1,.12.25c0,.09,0,.07,0,.11s0,.07.06.07,0,0,0,0a.45.45,0,0,1-.09-.15,1.12,1.12,0,0,0-.11-.26h0a.49.49,0,0,1,.19.17.6.6,0,0,0,.06.18.74.74,0,0,0,.09.16h0l-.09-.16Z"/><path class="cls-44" d="M14.67,6.61l.14.07h.05A.72.72,0,0,0,15,7a.56.56,0,0,0,.14.15,1.2,1.2,0,0,0,.06.35.76.76,0,0,1,.05.34s-.06-.08-.09-.18L15,7.37a.56.56,0,0,0-.11-.19s0,0,0,0a.49.49,0,0,1,.11.19c0,.11,0,.22.07.22a0,0,0,0,0,0,0s0-.08,0-.18a.76.76,0,0,0-.05-.2A.85.85,0,0,1,14.94,7a.86.86,0,0,1-.11-.23c0-.05,0,0,0-.06l-.07,0a.26.26,0,0,1-.09-.1Z"/><path class="cls-44" d="M14.94,6.57l.1.06.09,0a.6.6,0,0,0,.06.3.94.94,0,0,0,.14.19,2.82,2.82,0,0,1,0,.3c0,.25,0,.26,0,.36a2.9,2.9,0,0,1,0,.45c-.05,0,0-.24,0-.32a1.23,1.23,0,0,1-.12-.32c-.05-.23,0-.28-.06-.36s-.09-.09-.09-.09a.14.14,0,0,1,.1.08c0,.07,0,.26.06.36a1.08,1.08,0,0,0,.13.32s0-.27,0-.42a1.8,1.8,0,0,0,0-.34c0-.06-.09-.1-.13-.18s0-.23-.07-.27,0,0-.05,0a.15.15,0,0,1-.09-.09Z"/><path class="cls-44" d="M15.13,6.47a.65.65,0,0,0,.14.11.35.35,0,0,0,.13,0,.77.77,0,0,0,.07.32c.08.15.11.15.11.17s0,.46,0,.6,0,.64,0,.64,0-.37,0-.45a1.08,1.08,0,0,0-.06-.13c0-.07,0-.34-.08-.5s-.07-.14-.07-.14a.21.21,0,0,1,.09.13c0,.1,0,.43.07.48a.7.7,0,0,1,.09.17s0-.63,0-.67a1.81,1.81,0,0,1-.16-.42c0-.14,0-.15,0-.16a.26.26,0,0,1-.12-.06.85.85,0,0,1-.11-.13Z"/><path class="cls-44" d="M15.44,6.55a.53.53,0,0,0,.17.12,1.53,1.53,0,0,0,.25.05,1,1,0,0,1,.1.44,1.4,1.4,0,0,1-.08.43c0,.21,0,.64-.06.71a.37.37,0,0,0,0,.08s0,.12,0,.12,0-.06,0-.09a1.87,1.87,0,0,0,0-.27,1.9,1.9,0,0,0,0-.27c0-.14,0-.59,0-.63a.77.77,0,0,0-.09-.14.28.28,0,0,1,.1.11c0,.06,0,.56,0,.65s0,0,0-.08a3.33,3.33,0,0,0,0-.43,1.26,1.26,0,0,0-.1-.46.36.36,0,0,1,0,.09l0,0,0,0h0l0,0a1,1,0,0,1,.06.35,5,5,0,0,0,0,.71s0-.27.06-.49a1.42,1.42,0,0,0,.07-.43.88.88,0,0,0-.1-.4s-.15,0-.24-.08-.15-.13-.15-.14Z"/><path class="cls-44" d="M13.89,6.79a.1.1,0,0,0,.08,0s.15-.11.15-.14,0-.07,0-.07,0,0,0,0a.18.18,0,0,0,.13-.11.34.34,0,0,0,0-.13s0,0,0,0,.1-.07.1-.13a.2.2,0,0,0,0-.11h.07s.11-.06.11-.11,0-.13-.1-.14a.19.19,0,0,0,.1,0,.09.09,0,0,0,.06-.1.41.41,0,0,0-.11-.18s.1,0,.14,0a.13.13,0,0,0,0-.11.05.05,0,0,0,0,0,.18.18,0,0,0,.12,0,.66.66,0,0,1,.16-.08s-.1.07-.11.11,0,0,.1.09h0a1.11,1.11,0,0,0,.14,0H15a1.48,1.48,0,0,1,.25.23l0,0h0l.14.2,0,0h0c.08.14.14.26.14.26a2.8,2.8,0,0,0-.29-.41c-.16-.18-.2-.21-.21-.19a3,3,0,0,0,.19.29,2.63,2.63,0,0,1,.13.25A2.07,2.07,0,0,0,15,5.76c-.23-.21-.25-.24-.28-.23s0,.16,0,.19.18.16.32.32a4.92,4.92,0,0,1,.32.45A3.06,3.06,0,0,0,15,6.06c-.22-.23-.3-.28-.32-.28s0,0,0,.08-.08,0-.08,0a1.33,1.33,0,0,0,.22.21l.08,0,.06,0-.07,0h-.06a1.39,1.39,0,0,0,.17.2l.07,0,.08,0-.09,0s-.05,0-.05,0,.11.15.11.16-.17-.2-.32-.33-.21-.15-.22-.15,0,0,0,.05-.07,0-.07,0,.13.13.22.24l.17.2-.19-.19c-.1-.1-.15-.13-.16-.13s0,.05,0,.07.2.23.19.24-.22-.27-.24-.27,0,0,0,0-.07,0-.07,0,.3.32.3.33a2.38,2.38,0,0,0-.26-.2s.11.22.1.23-.15-.22-.16-.22,0,0,0,.06-.08,0-.08,0,.21.25.2.25-.21-.22-.22-.21a0,0,0,0,0,0,0c0,.05.06.15.06.16s-.07-.14-.09-.13,0,0,0,.05-.06,0-.06,0,0,0,.05.07a.55.55,0,0,1,0,.1.43.43,0,0,0-.05-.1s-.06-.06-.08-.06a.05.05,0,0,0,0,0l0-.05Z"/><path class="cls-44" d="M15.86,6.72s.07,0,.08,0,0,0-.09-.07-.22-.53-.39-.76a2.45,2.45,0,0,0-.55-.55,1.94,1.94,0,0,1,.56.54c.25.36.31.65.38.72s.14.09.13.11a0,0,0,0,1,0,0h-.09v0Z"/><path class="cls-44" d="M13.78,6.62h0s.1-.08.09-.11a.21.21,0,0,1-.07,0,.16.16,0,0,1,0-.08.25.25,0,0,0,.05.07s.06,0,.08,0,.14-.1.13-.14a.13.13,0,0,1-.08,0,.14.14,0,0,1,0-.08.16.16,0,0,0,.06.06.08.08,0,0,0,.08,0s.09-.13.08-.16a.13.13,0,0,1-.08,0A.21.21,0,0,1,14,6a.13.13,0,0,0,.08.07A.08.08,0,0,0,14.19,6s0-.16,0-.19a.16.16,0,0,1-.11,0A.14.14,0,0,1,14,5.75a.15.15,0,0,0,.09.06.07.07,0,0,0,.08,0,.26.26,0,0,0,0-.13s0,0-.05-.1,0,0-.08,0-.1-.07-.1-.07a.16.16,0,0,0,.1,0,.08.08,0,0,0,.07-.08s0-.06,0-.09,0-.07,0-.07a.08.08,0,0,1-.09,0,.09.09,0,0,1-.08-.06.17.17,0,0,0,.08,0s.06,0,.06,0,0-.07-.1-.14L13.78,5A1.34,1.34,0,0,1,14,5.1a.66.66,0,0,1,.11.11s.08,0,.08,0a.13.13,0,0,0,0-.1A.66.66,0,0,0,14,5a.49.49,0,0,1,.1.11.19.19,0,0,1,0,.11s.15.07.18.05,0-.06,0-.1l0-.08.06.08s0,.07,0,.09,0,0,0,0l.1.06s.1,0,.11,0a.2.2,0,0,0,0-.09.59.59,0,0,0,0-.12.5.5,0,0,1,0,.12s0,.09,0,.1,0,0,0,0a.11.11,0,0,1-.09,0c-.06,0-.33-.15-.34-.14s.13.1.19.16a.48.48,0,0,1,.09.12l-.1-.07a.9.9,0,0,0-.2-.09s.05,0,.06,0,0,.06,0,.07.2.16.2.18a.14.14,0,0,1-.06.05s-.11-.08-.11-.07.06.06.06.07,0,0,0,.06.11.11.11.14-.06.06,0,.07l.07.09-.08-.06S14.24,6,14.23,6a.33.33,0,0,0,0,.11s.05,0,.06.1a.18.18,0,0,1,0,.1s-.07-.09-.08-.09a0,0,0,0,0,0,0s-.05.09,0,.1.07,0,.07.08a.15.15,0,0,1,0,.1L14,6.43l-.1.11s.06.06,0,.07-.05,0-.08,0l-.07,0s0,0,0,0Z"/><path class="cls-44" d="M14.91,5.33a.12.12,0,0,1,0,0s.07-.07,0-.09-.09,0-.13,0-.07,0-.2-.1a2.14,2.14,0,0,0-1-.32c-.2,0-.29.06-.29.1a.32.32,0,0,1,.25-.08,2.16,2.16,0,0,1,1,.31s.12.12.23.1.12,0,.12,0a.74.74,0,0,1,0,.07v0h0Z"/><path class="cls-44" d="M13.82,5.41h0a.52.52,0,0,0-.11-.14,1.65,1.65,0,0,0-.35-.19,2.28,2.28,0,0,1,.34.2l.13.13Z"/><path class="cls-41" d="M13.82,5.86a.23.23,0,0,0-.07-.06l-.11,0,.12,0a.21.21,0,0,1,.05.08Z"/><path class="cls-41" d="M13.79,5.63s0,0-.09,0l-.09,0a.17.17,0,0,1,.12,0,.12.12,0,0,1,.06.07Z"/><path class="cls-41" d="M13.75,5.44a.14.14,0,0,0-.08-.06l-.12,0a.24.24,0,0,1,.14,0,.08.08,0,0,1,.06.08Z"/><path class="cls-41" d="M13.67,5.31s0,0-.15-.06l-.18,0a.9.9,0,0,1,.23,0,.29.29,0,0,1,.09.08Z"/><path class="cls-41" d="M13.43,5.18l-.15,0h-.19a1.43,1.43,0,0,1,.27,0c.06,0,.07,0,.07,0Z"/></g><g id="claws"><path class="cls-32" d="M12.72,7.86a.15.15,0,0,0,.11.07c.08,0,.14.11.14.11l-.08.08h-.2L12.62,8l.1-.17Z"/><path class="cls-32" d="M12.72,7.79a.32.32,0,0,0-.11-.16s0,0,0,.07a.15.15,0,0,0,0,.06s0,.06,0,.08S12.72,7.79,12.72,7.79Z"/><path class="cls-32" d="M12.69,8a.1.1,0,0,0,.06,0,.14.14,0,0,0,.05,0"/><path class="cls-32" d="M12.65,7.94s.11-.08.1-.13,0,0,0,0a.31.31,0,0,0-.09.07.37.37,0,0,0,0,.09Z"/><path class="cls-32" d="M12.57,8s0,.05.06.05.09,0,.09-.05,0-.06-.06-.07-.08,0-.08,0V8Z"/><path class="cls-32" d="M12.67,7.92a.2.2,0,0,1-.1.05s-.07-.06-.05-.07l.06,0,0,0a.05.05,0,0,1,0,0s0,0,0,0Z"/><path class="cls-32" d="M12.6,8s-.11.15-.16.14,0-.21,0-.21l.05,0s.07,0,.08,0Z"/><path class="cls-32" d="M12.4,7.87s.14,0,.15,0-.07.05-.11.05,0-.1,0-.1Z"/><path class="cls-45" d="M12,8.08s0,.07.08.07a.18.18,0,0,0,.12-.06L12.1,8l-.05,0Z"/><path class="cls-46" d="M12,8.08h0l0,0a.09.09,0,0,0,.07,0h0a.19.19,0,0,0,.12-.07h0L12.1,8,12,8.08h0l.05,0,.14.06h0a.17.17,0,0,1-.1.05h0a.08.08,0,0,1-.06,0v0h0Z"/><path class="cls-45" d="M12.09,8.06a.11.11,0,0,0,.11.05.22.22,0,0,0,.14-.06L12.21,8Z"/><path class="cls-46" d="M12.09,8.06h0a.12.12,0,0,0,.11.06h0a.22.22,0,0,0,.14-.07h0l-.13-.11-.13.12h0L12.21,8l.13.1h0a.22.22,0,0,1-.14.06h0a.13.13,0,0,1-.08,0l0,0h0Z"/><path class="cls-46" d="M12.1,8.07a.15.15,0,0,0,.08,0h.09l0,0h-.1l0,0h0Z"/><path class="cls-45" d="M12.2,8s0,.09.11.08.08-.05.08-.05l-.08-.12-.1.1Z"/><path class="cls-46" d="M12.2,8h0l0,0a.1.1,0,0,0,.08,0h0a.1.1,0,0,0,.07,0,0,0,0,0,0,0,0h0L12.3,7.9l-.11.1h0l.1-.09.08.12h0s0,0-.07,0h0a.1.1,0,0,1-.07,0l0,0h0Z"/><path class="cls-46" d="M12.21,8s0,.05.08.05l.06,0h-.09l0,0,0,0Z"/><path class="cls-46" d="M12.06,8.11a.13.13,0,0,0,.07,0,.2.2,0,0,0,.08,0h0l0,0h-.1v0h0Z"/><path class="cls-32" d="M12.4,7.86s.1.09.1.14,0,.12-.06.12A.27.27,0,0,1,12.31,8s0-.06,0-.08a.57.57,0,0,1,.11-.07Z"/><path class="cls-32" d="M12,7.87s-.06,0-.08,0A.12.12,0,0,0,12,8s.08,0,.08,0V7.87Z"/><path class="cls-32" d="M12,7.92S12,7.93,12,8A.14.14,0,0,0,12,8s.08,0,.08,0l0-.09Z"/><path class="cls-32" d="M12.07,8S12,8,12,8s0,.08.06.08,0,0,.05-.06,0-.07,0-.07Z"/><path class="cls-32" d="M12.11,7.76a0,0,0,0,0,0,0,.09.09,0,0,0-.06.1.25.25,0,0,0,0,.09l.12,0,0-.14Z"/><path class="cls-32" d="M12.12,7.85s-.1,0-.1.07a.08.08,0,0,0,0,.08s.11-.07.11-.07l-.06-.08Z"/><path class="cls-32" d="M12.2,8l-.11.06A.09.09,0,0,1,12,8s.07-.06.1-.07.05.09.05.09Z"/><path class="cls-32" d="M12.29,7.65a.13.13,0,0,0-.09,0c-.06,0-.1.08-.11.12s0,.11,0,.12.15-.09.15-.09l0-.13Z"/><path class="cls-32" d="M12.17,7.95a.1.1,0,0,1-.07-.1.16.16,0,0,1,.13-.09s0,.11,0,.11-.05.08-.09.08Z"/><path class="cls-32" d="M12.3,7.94a.15.15,0,0,1-.06.07s-.07,0-.09,0,0,0,0-.07l.07,0,0,.06Z"/><path class="cls-32" d="M12.23,7.81s0,0,0,.08a.11.11,0,0,0,.08.06s.05,0,.08,0,.06,0,.06-.08a.1.1,0,0,0,0-.08.18.18,0,0,0-.16.06Z"/><path class="cls-45" d="M12.36,7.63a.11.11,0,0,0-.08,0,.13.13,0,0,0-.06.1.64.64,0,0,0,0,.1.26.26,0,0,0,.08,0s0,0,0,0a.09.09,0,0,1,0-.05c0-.06,0-.06,0-.06Z"/><path class="cls-46" d="M12.36,7.63a.15.15,0,0,0-.08,0,.14.14,0,0,0-.06.08s0,0,0,0a.14.14,0,0,1,0-.06.12.12,0,0,1,.07-.08.15.15,0,0,1,.07,0Z"/><path class="cls-32" d="M13.78,8.67l.07,0,.09-.05,0,.1-.08.06h-.07l0,0v0Z"/><path class="cls-32" d="M13.67,8.68h0s.05,0,.06,0,0,.05,0,.05l0,0-.07,0-.06,0V8.68h0Z"/><path class="cls-32" d="M14.2,8.65l0,0-.09-.08v.21h.1l0-.07v0Z"/><path class="cls-32" d="M13.67,8.68a.06.06,0,0,0-.06,0,.11.11,0,0,0-.09.07s0,.11,0,.13a.11.11,0,0,0,.1,0,2.73,2.73,0,0,0,.27-.15h-.06a.11.11,0,0,1-.06,0,.14.14,0,0,1-.07,0,0,0,0,0,1-.05,0,.18.18,0,0,1,0-.05Z"/><path class="cls-32" d="M13.82,8.75l0,0-.06,0,0,.07.1,0,.06-.05V8.77l-.07,0Z"/><path class="cls-32" d="M14.28,8.7l0,0a.05.05,0,0,0,0,0l-.05.06v0l.05,0h0l.05,0V8.7Z"/><path class="cls-32" d="M13.94,8.67l-.06,0-.05,0,0,.06h0L14,8.74V8.67h-.08Z"/><path class="cls-32" d="M14.35,8.76l0,0-.05,0s-.05.06-.05.06v0l0,0,.07,0,0,0,0,0Z"/><path class="cls-47" d="M14.18,8.83h0a0,0,0,0,0,0,0h0A.11.11,0,0,0,14.4,9s0,0,0,0l.09-.11a0,0,0,0,0,0,0s0-.07,0-.08a.17.17,0,0,0-.1,0s0,.08-.07.07l0,0,0,0h0a.16.16,0,0,1,0,0l0,0,0,0L14,8.72s0,0,0,.06a.15.15,0,0,1-.08,0s0,.07-.07.06a.16.16,0,0,1-.09-.07.07.07,0,0,0-.06,0s0,0,0,.08a.16.16,0,0,0,0,.09.12.12,0,0,0,.13,0,.07.07,0,0,0,0-.09l0,0L14,8.84"/><path class="cls-32" d="M14.08,8.4v.14s0,.12,0,.16-.12,0-.14,0a.51.51,0,0,1,0-.14l.15-.16Z"/><path class="cls-47" d="M14,8.82s0,0,0,0h0a0,0,0,0,0,0,0,0,0,0,0,0,.05.05.05.05,0,0,0,.06-.06"/><path class="cls-45" d="M13.44,8.94s0-.06,0-.08.06,0,.09,0,0-.06,0-.08l0,0s-.15,0-.15.1a.1.1,0,0,0,.07.11Z"/><path class="cls-45" d="M13.66,9.16s0-.06,0-.1,0,0,.06,0,0,0,0-.07,0-.06-.06-.06a.13.13,0,0,0-.08.14.15.15,0,0,0,.11.11Z"/><path class="cls-45" d="M14.45,9.08s.15.06.16-.09a.14.14,0,0,0-.09-.14s0,0-.06,0,0,.06,0,.07.06,0,.08,0-.06.08-.06.08Z"/><path class="cls-46" d="M13.66,9.16A.15.15,0,0,1,13.55,9c0-.08.09-.11.09-.11s-.08,0-.08.11a.14.14,0,0,0,.11.14Z"/><path class="cls-46" d="M13.45,8.94a.11.11,0,0,1-.08-.11c0-.1.15-.09.15-.09s-.16,0-.15.1S13.45,8.94,13.45,8.94Z"/><path class="cls-46" d="M14.45,9.08h.07A.09.09,0,0,0,14.61,9a.13.13,0,0,0,0-.14s-.05,0-.05,0a.08.08,0,0,1,0,0,.14.14,0,0,1,0,.13.1.1,0,0,1-.11.06h0Z"/></g><g id="body"><path class="cls-48" d="M12.64,5.87h0l0,0,.08,0h.16l0,0h0l0,.1L12.8,6h0V6l0-.06Z"/><path class="cls-44" d="M14.13,8.17h0V7.93l-.64.2.25.24Z"/><path class="cls-41" d="M12.94,7.76l-.05,0-.06,0h-.06v0l.06.07.1.05,0,0h0l0-.12Z"/><path class="cls-41" d="M12.92,7.86h0l0,0,0,0L13,8V8L13,8h0L12.78,8l0,0,0,0h.09Z"/><path class="cls-41" d="M13.06,8h0l0,0V7.68l-.17-.2,0,.12,0,.2,0,.12Z"/><path class="cls-43" d="M12.93,7.57s0,0,0,.09A1.11,1.11,0,0,0,13,8c.06.1-.06-.08-.06-.08a.89.89,0,0,1-.08-.36c0-.15,0,0,0,0Z"/><path class="cls-43" d="M13.06,7.7a.25.25,0,0,0,0,.08.42.42,0,0,0,0,.1s0,0,0-.06,0,.1,0,.11,0-.2,0-.2l0,0Z"/><path class="cls-43" d="M13.08,8.12l-.19,0c-.1,0-.15-.08-.15-.1s.18,0,.2,0L13,8h0l.08,0v.09l-.1,0Z"/><path class="cls-43" d="M12.76,8.08s0,0,0,0a.19.19,0,0,1-.1,0l.18,0,0,0-.14-.07Z"/><path class="cls-41" d="M12.71,8s0,0,.08,0a.15.15,0,0,0,.1,0l0,0h0l0,0-.12,0-.06,0,0,0Z"/><path class="cls-43" d="M13.14,7.94l0,0,0-.11V7.78l-.07,0h0Z"/><path class="cls-40" d="M12.95,7.77l-.06-.09-.07-.13,0-.08.05.08a.26.26,0,0,0,0,.11.94.94,0,0,0,0,.12Z"/><path class="cls-41" d="M12.56,8.11a.11.11,0,0,1,.08,0h.1l.12.06,0,0-.22,0-.11,0Z"/><path class="cls-42" d="M13.13,7.72s0,.13,0,.17,0,.08,0,.1,0,0,0,0H13s.05,0,.06,0,0-.06,0-.11,0-.1,0-.1,0,0,0,0a.69.69,0,0,1,0-.18s.07.07.07.07Z"/><path class="cls-43" d="M12.73,8.07s0,0,0,0a.17.17,0,0,0,.15.06H13s0,.05,0,.06l-.1.06,0,0h0V8.12l-.1,0,0,0Z"/><path class="cls-42" d="M12.95,7.77a1.32,1.32,0,0,1-.19-.24.41.41,0,0,1,0-.23l.13.17a.17.17,0,0,0,0,.09,1.08,1.08,0,0,0,.08.21Z"/><path class="cls-43" d="M12.86,8.29a.08.08,0,0,1,0-.08A.81.81,0,0,1,13.17,8v.13l-.27.13h0Z"/><path class="cls-42" d="M12.87,8.2s.06,0,.06-.06,0,0-.09,0l-.11,0,.1.07s0,0,0,0,0,0,0,0Z"/><path class="cls-42" d="M13.23,8.23a.57.57,0,0,1-.05-.09.65.65,0,0,1,0-.09l0,0L13,8.1s.09,0,.09,0-.13,0-.13,0,.1,0,.1,0-.05,0-.11.05l-.1,0,0,0h.06l.13,0,.17-.06h0Z"/><path class="cls-43" d="M13.23,8.23s0,0-.08-.21a.91.91,0,0,1,0-.25l.08.05.07.13,0,.27Z"/><path class="cls-42" d="M13.26,7.9a.73.73,0,0,0,0,.17.39.39,0,0,0,0,.15.37.37,0,0,0,.08.1l0,0V8.06l-.1-.16Z"/><path class="cls-44" d="M13.37,8.05s0,.27-.05.28-.08-.1-.08-.11.06.1.08.09,0-.28,0-.28l0,0Z"/><path class="cls-44" d="M13.23,8.23l0,0s0,0-.15.08-.2,0-.2,0,0,0,.2,0a.72.72,0,0,0,.15-.06h0Z"/><path class="cls-43" d="M13,7.88A.24.24,0,0,1,13,8l0,.09h0a.56.56,0,0,0,0-.09l-.09-.14,0,.07Z"/><path class="cls-42" d="M12.87,8.22s0-.05,0-.06h-.13l-.18,0a.59.59,0,0,0,.13.06l.15,0h0Z"/><path class="cls-44" d="M12.87,8.22a0,0,0,0,0,0,0s0,0-.15,0a.57.57,0,0,1-.15-.06.38.38,0,0,0,.15.07l.16,0Z"/><path class="cls-43" d="M12.93,7.86a.31.31,0,0,0-.12,0,.49.49,0,0,0-.07.09h.06a.11.11,0,0,1,0-.08.22.22,0,0,1,.11,0Z"/><path class="cls-42" d="M12.75,7.68a.25.25,0,0,0,.07.07l.09,0a.29.29,0,0,1,0,.08.82.82,0,0,1-.16-.09.41.41,0,0,1-.05-.11Z"/><path class="cls-42" d="M12.88,7.71a.11.11,0,0,0,0,0,.08.08,0,0,0-.07,0s0,0,0,0l0,.07h0s-.07,0-.05-.06.11,0,.11,0Z"/><path class="cls-44" d="M13.23,7.55,14,7.17h0l.35.48-.63.17-.34,0-.16-.12Z"/><path class="cls-40" d="M14.22,7.76l.91.79h0l-.1.07-.21-.06-.44-.44-.16-.17Z"/><path class="cls-40" d="M15.39,8.39,14.87,8l-.66-.5,0,.24.75.69.25.12.13,0,.06-.07,0-.05Z"/><path class="cls-49" d="M14.21,7.83a4.19,4.19,0,0,0,.46.45c.2.15.39.32.43.29s0,0,0,0l-.93-.75v.06Z"/><path class="cls-40" d="M14.86,8.59l-.09.07h0l-.11,0L14.1,8l0-.11h.08Z"/><path class="cls-44" d="M15.39,8.39s-.07.16-.22.12a7.9,7.9,0,0,1-1-.8v.08a6.92,6.92,0,0,0,1,.78c.16,0,.29-.11.27-.12l-.08-.06Z"/><path class="cls-49" d="M14.12,8a5,5,0,0,0,.4.46c.14.12.26.22.31.21s0-.07,0-.07l-.39-.39-.2-.2s-.08,0-.08,0Z"/><path class="cls-44" d="M14.19,8s.66.67.71.69.27-.08.27-.08l-.06,0v0s0,.07-.17,0a4.3,4.3,0,0,1-.72-.66l0,0Z"/><path class="cls-40" d="M14.44,8.6l-.24-.28-.05-.09V8.11l.48.48h0l-.07,0-.06,0Z"/><path class="cls-44" d="M14.87,8.61s-.06.09-.14.07a.23.23,0,0,1-.12-.07l-.46-.45V8.08a5,5,0,0,0,.6.56c.07,0,.11-.06.11-.06l0,0Z"/><path class="cls-44" d="M14.62,8.59a.09.09,0,0,1-.09.06.14.14,0,0,1-.09,0l-.28-.34V8.19a2.81,2.81,0,0,0,.36.43.06.06,0,0,0,.08,0l0,0Z"/><path class="cls-50" d="M14.32,7.71l.3.25s.12,0,.12,0-.06,0-.07,0a.55.55,0,0,0,.16.13s.14,0,.14,0-.08,0-.08,0a.45.45,0,0,0,.15.12s.17,0,.17,0-.12,0-.12,0,.2.15.19.17S15,8.34,15,8.35s0,.06,0,.07,0-.07,0-.11-.14-.13-.16-.12,0,.07,0,.07,0-.07,0-.1A.63.63,0,0,0,14.65,8s0,.05,0,.06,0-.06,0-.09a3.62,3.62,0,0,1-.29-.3Z"/><path class="cls-40" d="M13.85,8.47s0,.1,0,.12-.13-.19-.13-.19l0-.19.14.13.06.14Z"/><path class="cls-40" d="M14.21,8.42a.32.32,0,0,0,0-.06V8.19l0-.07,0,0h0L14,8.13l0,.07,0,.13,0,.12.05,0,.07,0Z"/><path class="cls-40" d="M14.12,8.6s0-.15,0-.15L14,8.24l0-.07-.07,0,0,.05v.08s.07.14.1.19.1.14.13.14Z"/><path class="cls-44" d="M14,8.15a.21.21,0,0,1,.06.11.9.9,0,0,1,0,.17s0,0,0,0,.08.08.1.07,0-.09,0-.1,0,0,0,0a.67.67,0,0,1,0-.18.4.4,0,0,1,0-.12.41.41,0,0,1,.06.2l0,0s0-.1,0-.14,0-.09,0-.1a.54.54,0,0,0,0-.06s0,0,0,0l0,0s0,0,0-.08a2.3,2.3,0,0,0,0-.26L14,8l.09.11Z"/><path class="cls-44" d="M14,8.12a.52.52,0,0,0,0,.21.51.51,0,0,0,.06.13.31.31,0,0,1,0,.14S14,8.41,14,8.31s0-.13,0-.14h0l.1,0Z"/><path class="cls-40" d="M14,8.67s0,0,0,0v-.1l-.1-.21-.11-.1-.06-.09V8.3a1.1,1.1,0,0,0,.14.22c.05,0,.14.15.16.15Z"/><path class="cls-44" d="M13.6,8.2a.28.28,0,0,1,0,.08v.06l.08.15c0,.07.07.14.11.12s0-.06,0-.07,0,.06-.05,0a1.71,1.71,0,0,1-.1-.29l0,0,0-.06Z"/><path class="cls-44" d="M13.9,8.43l-.08-.14a.15.15,0,0,0-.06-.07s0-.09,0-.09a.21.21,0,0,0,.07.08s.06,0,.08,0a.41.41,0,0,1,0,.09s0,.11,0,.11Z"/><path class="cls-51" d="M13.71,8.29a.54.54,0,0,0,.06.12l.1.13a1.06,1.06,0,0,1-.11-.12.61.61,0,0,1-.06-.12h0Z"/><path class="cls-44" d="M13.92,8.22s0-.05,0-.05h0a.11.11,0,0,1-.05,0l-.06-.06,0,.08a.59.59,0,0,1,0,.07Z"/><path class="cls-44" d="M13.9,8.24s.08.18.11.24a.48.48,0,0,1,0,.15.77.77,0,0,0,0-.12c0-.05-.09-.2-.1-.22a.12.12,0,0,1,0-.06Z"/><path class="cls-40" d="M14,8.12l0-.26,0-.09-.12-.26s0,0,0,0a.27.27,0,0,1-.14-.08.41.41,0,0,1,0,.12.49.49,0,0,1,0,.09l.23.43.07,0Z"/><path class="cls-52" d="M13.56,8.3s0,0,.06,0,0-.09,0-.13a4,4,0,0,0-.35-.44,5.1,5.1,0,0,0,.3.54Z"/><path class="cls-53" d="M13.75,8.14s0,.14,0,.15-.37-.41-.42-.46-.19-.12-.2-.15.21,0,.21,0l.41.39,0,0Z"/><path class="cls-44" d="M13.56,8.3a.32.32,0,0,1,0-.1.31.31,0,0,0,0-.08s-.23-.34-.25-.36l-.1-.06a.66.66,0,0,1,0,.07.1.1,0,0,0,0,0,1.51,1.51,0,0,0,.17.25l.22.25Z"/><path class="cls-40" d="M13.9,8.24s0-.12,0-.15l-.19-.41-.05,0-.1-.08-.06-.06a.74.74,0,0,1,0,.13v.07l.14.25.24.23Z"/><path class="cls-40" d="M14.1,8l0-.06,0-.19L14,7.35a.08.08,0,0,1-.06,0l-.06-.06,0,.25.12.34V8l.06,0Z"/><path class="cls-44" d="M13.73,8.11a1.9,1.9,0,0,1-.16-.2l-.07-.13a.11.11,0,0,1-.08,0,.39.39,0,0,1-.1-.08s0,.07.14.24.27.16.27.16Z"/><path class="cls-52" d="M14,8.15c.05,0,0-.23,0-.38a1.38,1.38,0,0,0-.13-.27,3,3,0,0,1,.12.33C14,7.92,14,8,14,8s0-.06-.06-.15a.34.34,0,0,0-.07-.11s.14.38.1.37a2.9,2.9,0,0,1-.24-.44s0,0,0,0,.17.53.3.48Z"/><path class="cls-40" d="M14.13,7.12l.09.18,0,.19v.16s0,.32,0,.33a.05.05,0,0,1-.06,0l-.07-.36L14,7.22l0,0V7.14h.09Z"/><path class="cls-52" d="M13.9,8.24s0-.09,0-.09,0,0-.05,0A.74.74,0,0,1,13.79,8l0-.06s0,.07-.06.07-.2-.28-.2-.28l0,0s.23.48.4.46Z"/><path class="cls-44" d="M13.79,8a.27.27,0,0,0,0-.13,1.25,1.25,0,0,0-.1-.22h-.06l-.1-.05a1.62,1.62,0,0,0,.1.2c.05.09.14.21.14.21Z"/><path class="cls-44" d="M13.92,7.93a1.08,1.08,0,0,0-.09-.29.73.73,0,0,0-.11-.18.45.45,0,0,1,0,.09c0,.06,0,.07,0,.07a.23.23,0,0,1,.11.11,1.5,1.5,0,0,1,.09.21Z"/><path class="cls-44" d="M14.11,7.68a1.58,1.58,0,0,0,0-.25c0-.09-.05-.21-.05-.21v0h0s0,.1,0,.1,0-.13,0-.14v0H14s0,0,0,.06,0,0,0,0v0a.52.52,0,0,1,0,.09.29.29,0,0,1,0,.07,1.2,1.2,0,0,0,.05.15,1.38,1.38,0,0,1,.06.17Z"/><path class="cls-44" d="M14.25,7.66a1,1,0,0,0,0-.38.48.48,0,0,0-.1-.19l0,0a.85.85,0,0,1,.1.24c0,.12,0,.29,0,.29Z"/><path class="cls-44" d="M14,7.77a2.89,2.89,0,0,0-.06-.3l0-.16,0,0a1,1,0,0,1,0,.16v.06a.77.77,0,0,0,.06.11,1.11,1.11,0,0,1,.07.17Z"/><path class="cls-48" d="M14.14,8.06s0-.26,0-.33L14,7.35s.13.45.12.47-.07-.14-.07-.13.1.3.06.3S14,7.93,14,7.93V8a.11.11,0,0,0,.09.06Z"/><path class="cls-48" d="M14.2,7.93s0-.25,0-.35-.09-.33-.09-.33a2,2,0,0,1,.1.32c0,.17.06.4,0,.4a.06.06,0,0,1-.05,0v0a.06.06,0,0,0,0,0Z"/><path class="cls-54" d="M13.77,8.22s0,.1,0,.1a.26.26,0,0,1-.14-.13s.1.11.13.11,0-.11,0-.14,0,.07,0,.07Z"/><path class="cls-41" d="M14,7a.11.11,0,0,0,.1,0,.17.17,0,0,0,.08-.13.16.16,0,0,0,0-.1s0,0,0,.1,0,.19-.11.21-.06,0-.06,0L14,7Z"/><path class="cls-42" d="M13.92,6.84a1,1,0,0,1,.1.22c0,.1,0,.14,0,.14s0,0,0,0l-.07-.32Z"/><path class="cls-55" d="M12.7,7h0l.46.67L13.74,7l-.36-.37Z"/><path class="cls-40" d="M13.28,6.57h0l0,.1.06.18.1.1.11.07,0-.08,0-.1h0l.07,0,0-.07.07-.13,0-.05,0,0-.12-.2,0,.08,0,0-.07,0-.08.11-.1,0Z"/><path class="cls-56" d="M13.52,7s0,0,0-.07a1.16,1.16,0,0,0,0-.28.59.59,0,0,0-.06-.18.91.91,0,0,1,.05.3c0,.16,0,.2,0,.22s0,0,0,0Z"/><path class="cls-56" d="M13.55,6.75s.08.11.11.07,0-.18,0-.23,0-.13,0-.13l0,0,0,.15c0,.06.06.23,0,.26s-.12-.06-.12-.06v0Z"/><path class="cls-42" d="M13.3,6.83a.1.1,0,0,1,.06,0s0,0,0,0l0,.09.05.09,0,0,0,0h0L13.36,7l0,0,0-.13Z"/><path class="cls-41" d="M13.48,7.77s-.12,0-.16-.06L13,7.42l0-.14.09,0,.17-.07,0-.06.2-.1L13.6,7h.24l.06-.12a1.22,1.22,0,0,1,.09.2.55.55,0,0,1,0,.25s-.1-.05-.11-.06.06.25,0,.26-.16-.09-.16-.09,0,.23,0,.23a.42.42,0,0,1-.22-.11s.06.19,0,.22Z"/><path class="cls-42" d="M13.43,7.48l.05.08a.37.37,0,0,1,0,.14s-.07,0-.1-.13l-.09-.17s.15.07.15.07Z"/><path class="cls-42" d="M13.91,6.92s.09.35,0,.36-.16-.11-.17-.13l-.18-.28,0,0v0l.07,0,.26.07Z"/><path class="cls-42" d="M13.3,7.6s-.06,0-.07-.06L13.1,7.4a.53.53,0,0,1-.1-.11s0,0,0,0l0,0h0a3,3,0,0,1,.25.22.5.5,0,0,1,0,.19Z"/><path class="cls-42" d="M13.65,7.6a.68.68,0,0,1-.23-.2,1.8,1.8,0,0,1-.15-.22l0-.08h0a5.31,5.31,0,0,1,.36.48Z"/><path class="cls-42" d="M13.71,7.44s-.08,0-.12-.09a.14.14,0,0,1,0-.12,1.73,1.73,0,0,1,.14.22Z"/><path class="cls-42" d="M13.79,7.42s-.11-.1-.18-.22-.07-.1-.08-.11l-.06,0h0l0,0,0-.06.18.37s0,.08,0,.09Z"/><path class="cls-43" d="M13.32,7.71s0,0-.05,0a.91.91,0,0,1-.43-.34l-.13-.22.05-.06.41.47.15.12Z"/><path class="cls-42" d="M13.32,7.71s0,0,0,0A.69.69,0,0,1,13,7.5a1.45,1.45,0,0,1-.23-.32V7.1l0,0,.29.44.25.19Z"/><path class="cls-40" d="M13.6,7.52a.89.89,0,0,1-.14-.13,1,1,0,0,1-.16-.25s0,0,0,0V7l.08,0,.1.12,0,.05s.07.16.05.17-.11-.09-.12-.08.11.19.09.2Z"/><path class="cls-40" d="M13.43,7.48s0,0,0,.07,0,0-.07,0a.66.66,0,0,0-.1-.13s0,.1,0,.1-.09-.08-.13-.14L13,7.2a.39.39,0,0,0,0-.09C13,7,13,7,13,7V7l0,0,.15.18,0,0,.09.18.08.09Z"/><path class="cls-40" d="M12.85,7.22a2.1,2.1,0,0,0,.23.33.75.75,0,0,0,.24.17L13,7.28l-.11-.07Z"/><path class="cls-40" d="M13.77,7.34a.6.6,0,0,1-.13-.15A.48.48,0,0,1,13.56,7s0-.15,0-.15a1,1,0,0,1,.15.19c0,.06.08.14.06.15s-.09-.06-.1,0,.1.21.08.21Z"/><path class="cls-40" d="M13.91,7.21s-.08-.07-.09-.11a.64.64,0,0,1,0-.14l-.05-.13V6.68h.05l.08.11a.4.4,0,0,1,0,.16,1.2,1.2,0,0,1,0,.25Z"/><path class="cls-40" d="M12.93,7.56a1.81,1.81,0,0,1-.18-.27l0-.12,0,0a.71.71,0,0,0,.2.31,1.05,1.05,0,0,0,.21.18s0,.09,0,.13a2.28,2.28,0,0,1-.24-.25Z"/><path class="cls-44" d="M13.12,7.76a2.49,2.49,0,0,1-.26-.28,2,2,0,0,1-.19-.29l.05,0a2,2,0,0,0,.17.32l.24.3Z"/><path class="cls-44" d="M13.32,7.71l-.26-.26a1,1,0,0,1-.13-.19l.07,0a.63.63,0,0,0,.09.15l.23.28Z"/><path class="cls-44" d="M13.29,7.41a2.29,2.29,0,0,1-.14-.18l-.09-.16s.12.14.16.15,0,0,0,0a.2.2,0,0,0,0,.09l0,.1Z"/><path class="cls-44" d="M13.32,6.95a.41.41,0,0,1,0,.13s0,0,0,0l.08.1.1.08-.08-.12s-.06-.08,0-.12.09,0,.11,0l.11.12a.43.43,0,0,0-.08-.15l-.17-.12Z"/><path class="cls-44" d="M13.7,7.19,13.62,7c0-.07-.07-.22-.07-.22s0,.07,0,.12,0,.13,0,.14,0,0-.07,0,0,0,0,0a.1.1,0,0,0,.06,0s0-.07,0-.06,0,.07.06.1l.07.1Z"/><path class="cls-44" d="M13.55,6.78s.09.1.13.06,0-.17,0-.17.05,0,.07,0,0-.06,0-.06.1.14.14.23a1,1,0,0,1,.07.25,1.41,1.41,0,0,1-.12-.25c0-.11-.09-.16-.1-.15a.23.23,0,0,0,0,.13s0,.09.07.15,0,.15,0,.15L13.8,7a.4.4,0,0,0-.07-.07.28.28,0,0,0-.07-.06s-.08,0-.08,0,0,0,0,0v0Z"/><path class="cls-57" d="M13.25,7.21a1.21,1.21,0,0,0,.09.15l.09.12a1.08,1.08,0,0,1-.12-.13.67.67,0,0,1-.06-.15Z"/><path class="cls-42" d="M13.83,7.23s-.05,0-.06,0a.19.19,0,0,0,.05.1s0,0,.05,0,0,0,0-.06,0-.06,0-.08h0Z"/><path class="cls-41" d="M12.78,6.6l-.05,0-.06.13,0,.23.09.13c0,.05.15.18.18.17s.06-.1.07-.15S13,7,13,7a.64.64,0,0,0,.08.1c0,.05.09.1.11.1s.09-.14.09-.16-.17-.44-.17-.44l-.08,0-.29,0Z"/><path class="cls-43" d="M13.17,7l0,.16c0,.05,0,.1,0,.1a.38.38,0,0,0,.1-.17,1.42,1.42,0,0,0,0-.28c0-.17,0-.21,0-.21l-.05,0-.09.18V7Z"/><path class="cls-43" d="M12.87,6.86s0,.16,0,.21,0,.14.06.14A.45.45,0,0,0,13,7a.55.55,0,0,1,0-.24c0-.17,0-.19,0-.19l-.11.27Z"/><path class="cls-58" d="M12.63,6.53a.77.77,0,0,0-.13.3c0,.11,0,.08.05.18a1.7,1.7,0,0,1,0,.25s0,0,0,0,0-.72,0-.72Z"/><path class="cls-43" d="M12.63,6.55a.67.67,0,0,0-.11.28.48.48,0,0,0,.06.19.9.9,0,0,1,0,.24l.08,0a.38.38,0,0,0,.08-.09l0-.09a.34.34,0,0,1,0-.08l0,0V6.73l0-.13v0h-.08Z"/><path class="cls-59" d="M13.27,6.86l-.08,0a.09.09,0,0,1,0,0v0l.1.11Z"/><path class="cls-41" d="M12.66,6.57a.8.8,0,0,0-.08.31.88.88,0,0,0,.09.29s0,0,0,0,0-.38,0-.38l0-.12V6.56h-.06Z"/><path class="cls-42" d="M12.86,6.61a.23.23,0,0,1,0,.08s-.05.05-.07.09a1.06,1.06,0,0,0,0,.12.33.33,0,0,1,0-.08s0-.05,0,0a.33.33,0,0,1,0,.1.34.34,0,0,0,0,.09.18.18,0,0,0,0,.1s0-.06,0-.09a.08.08,0,0,1,0,0l0,.1a.49.49,0,0,1,0-.08s0-.09.06-.09,0,0,0,0a.45.45,0,0,1,0-.19s.08,0,.07,0a.47.47,0,0,0-.07-.1.85.85,0,0,0-.11.09Z"/><path class="cls-59" d="M13.26,7H13.2a0,0,0,0,1,0,0v0l.05,0,0,0Z"/><path class="cls-42" d="M12.72,7a.32.32,0,0,1,0,.06.51.51,0,0,0,0,.07s0-.08,0-.14a.27.27,0,0,0,0-.1s0,0,0,0a.37.37,0,0,1,0-.1s0-.08,0-.08,0,0,0,0l0,.05a.39.39,0,0,1,0-.08s.08-.1.09-.13a.17.17,0,0,0,0-.06h0s0,0,0,.07,0,0,0,0,0,0,0,.14,0,.14,0,.2Z"/><path class="cls-42" d="M13.12,6.63a.4.4,0,0,1,0,.1.85.85,0,0,1,0,.08.31.31,0,0,0,0,.11.24.24,0,0,1,0-.06l0,0a.14.14,0,0,1,0,.07l0,.11s0-.05,0-.05h0l0,0a.09.09,0,0,0,0,0s0,0-.05-.07a.27.27,0,0,1,0-.09s0,0,0,0l.06.06,0,0a.75.75,0,0,1,0-.13s0-.08,0-.09a.1.1,0,0,0,0-.08,1,1,0,0,0-.15.1Z"/><path class="cls-55" d="M13.59,6.46a1,1,0,0,0,0,.14l0,.17a.9.9,0,0,1-.07-.16c0-.07,0-.15-.06-.16s0,0,0,.07a.54.54,0,0,0,0,.18.38.38,0,0,1-.06-.1l0-.09a.2.2,0,0,0,0,.09.4.4,0,0,0,0,.11l0,0,0,0a.26.26,0,0,0,0,.09l0,.07-.05,0,0,0a.64.64,0,0,0,0,.14L13.5,7a.33.33,0,0,1-.09-.12,1.13,1.13,0,0,1,0-.35l.05-.08a1,1,0,0,0,.06-.2.84.84,0,0,0,.06.19l.05,0Z"/><path class="cls-55" d="M13.22,6.42l0,.06,0,0-.1.09c-.05,0-.12.08-.14.06a.08.08,0,0,1,0,0,.59.59,0,0,0,.1-.08.29.29,0,0,0,.07-.09l0,0Z"/><path class="cls-55" d="M12.75,6.57s0,.1,0,.1.16-.12.17-.13a.09.09,0,0,0,0,0v0s-.13.13-.18.14a.06.06,0,0,1-.05,0Z"/><path class="cls-55" d="M12.75,6.44a.51.51,0,0,0,0,.09.14.14,0,0,0,0,0s-.09,0-.11,0a.11.11,0,0,1,0-.07h.07s.05-.05.05-.05Z"/><path class="cls-55" d="M13.63,6.31a1.24,1.24,0,0,0,.06.14l.06.12-.08-.09-.05,0a.18.18,0,0,0,0,0V6.31Z"/><path class="cls-59" d="M12.62,6.5h.09l0-.05a.24.24,0,0,0,0,.11s0,.05,0,.05a.17.17,0,0,0,.1-.05L13,6.47a.24.24,0,0,0,0,.11c0,.06.05.06.1,0a1.05,1.05,0,0,0,.11-.12l0,0,0,0,0-.24,0,0-.06,0-.07,0,0,0,0,.07,0,0H13l0,0v0h0l-.1.11h-.06l-.06.09,0,.06,0,.1v0Z"/><path class="cls-42" d="M13.13,6.26a.4.4,0,0,1,0,.16.86.86,0,0,1-.07.17.44.44,0,0,0,.16-.18.58.58,0,0,0,0-.25l-.1.1Z"/><path class="cls-42" d="M13.26,6.15s0,0,0,.11a1.77,1.77,0,0,1,0,.17l0,.05s0,.08.07.07a.18.18,0,0,0,.09-.1.88.88,0,0,1,.06-.12s0,0,0,0,0,.05,0,.08.06.06.07,0a.07.07,0,0,0,0-.05l-.06-.17-.07-.17,0-.07h-.12l-.09.15Z"/><path class="cls-43" d="M13.47,6a.44.44,0,0,1,0,.15.82.82,0,0,1,0,.16.8.8,0,0,0,0-.16c0-.06,0-.1,0-.12V6Z"/><path class="cls-40" d="M13.64,6.31a.47.47,0,0,1,0,.1s-.06,0-.08-.13a1.76,1.76,0,0,0,0-.19l0-.1h.06l.11.32Z"/><path class="cls-40" d="M13.33,6.51a.33.33,0,0,0,.13-.27A.74.74,0,0,0,13.41,6a.86.86,0,0,1,0,.27l-.08.18,0,0,0,0a.16.16,0,0,1,0,.07l0,.08Z"/><path class="cls-40" d="M13.23,6.16a.13.13,0,0,1-.05.08L13,6.33a.45.45,0,0,0,.09-.11.1.1,0,0,0,0-.09.11.11,0,0,1,0,0,.16.16,0,0,1-.07,0,.11.11,0,0,1,0-.06s0,0,0,0a.61.61,0,0,1,.05-.1.37.37,0,0,0,.06.09l.06.05Z"/><path class="cls-55" d="M13.6,5.92a.76.76,0,0,1,0,.17,1.12,1.12,0,0,1,0,.22,1.25,1.25,0,0,1-.08-.13s0-.1,0-.12l0,0h0a.07.07,0,0,0,0,0,.21.21,0,0,0,0,0l.06,0h.06Z"/><path class="cls-55" d="M13.34,6.34a.52.52,0,0,0,.08-.2.27.27,0,0,0,0-.15l0,0-.06-.08a.42.42,0,0,1,0,.13.32.32,0,0,1-.08.14.08.08,0,0,0,.06,0A.12.12,0,0,0,13.35,6s0,0,0,.1a1.11,1.11,0,0,1,0,.2Z"/><path class="cls-42" d="M12.58,6.5s0-.09.08-.15l.09-.14h0a.16.16,0,0,0,.1-.07.44.44,0,0,0,0-.11.23.23,0,0,0,0,.13s0,0,.06,0a.55.55,0,0,1,0,.12c0,.06,0,.14,0,.14a.42.42,0,0,0,0-.14s0,0,0,0a.19.19,0,0,1,0,.07.76.76,0,0,0,0-.1c0-.05,0-.05,0-.05s0,0,0,0l0,0a.1.1,0,0,0,0,0,.25.25,0,0,1,0-.08.08.08,0,0,0,0,0s0,0,0,0l-.06.05-.05.06,0,.11a.69.69,0,0,1,0,.12l0,0,0-.1a.51.51,0,0,0,0-.15,0,0,0,0,0,0,0l-.09.12c0,.06,0,.13-.05.14h0Z"/><path class="cls-60" d="M13.64,5.86a.06.06,0,0,1,0,.06.15.15,0,0,1-.1,0,.25.25,0,0,1,0-.06h.15Z"/><path class="cls-61" d="M12.78,6a.43.43,0,0,1,0,.09c0,.05-.06.09-.06.1a.08.08,0,0,0,.06,0s0-.21,0-.21h0Z"/><path class="cls-59" d="M13.33,5.88s0,.28-.09.28S13.12,6,13.12,6s0,.19-.11.19-.09-.14-.08-.17a.28.28,0,0,1-.07.14c-.09.07-.15,0-.16,0A.53.53,0,0,0,12.8,6s0,0,0,0,0-.07.06-.06a.5.5,0,0,0,.14,0l.06-.07s0,0,.05,0a.16.16,0,0,0,.06-.07l.12.1v.07Z"/><path class="cls-61" d="M13,5.62l.12.17,0,0s0,0,0,.05-.06.1,0,.16a.13.13,0,0,1,0-.08s0-.06,0-.06,0,.25,0,.25,0-.11,0-.19,0,0,0,0,.08.13.14.11.05-.12,0-.14,0-.16,0-.16l-.26-.17,0,.07s-.15,0-.15,0Z"/><path class="cls-42" d="M13.4,5.59a.25.25,0,0,1,0,.08c0,.07,0,.28,0,.28a.17.17,0,0,1-.11-.07s0-.13,0-.16a.35.35,0,0,1-.05-.12s0-.08,0-.08l.06,0,.08.1Z"/><path class="cls-40" d="M13.38,5.53l.11.17.1.14,0,0a.11.11,0,0,1-.14,0s0-.09-.07-.2a.35.35,0,0,0-.14-.16l0,0,.05,0Z"/><path class="cls-55" d="M13.32,5.43a.46.46,0,0,1,.14.14,2,2,0,0,0,.1.19.44.44,0,0,0,.09.1,0,0,0,0,1-.05,0,.21.21,0,0,1-.06-.07s-.08-.15-.1-.18a.37.37,0,0,0-.1-.08l.07.09a.3.3,0,0,1,.05.13l0-.09c0-.06-.12-.14-.12-.13a.61.61,0,0,0,.06.13.85.85,0,0,1,.06.14l-.08-.13a.33.33,0,0,0-.07-.08l-.06-.08a.1.1,0,0,0,.08,0,.19.19,0,0,0,.06-.07Z"/><path class="cls-42" d="M13.06,5.62h.15a.12.12,0,0,1,0,.06.17.17,0,0,1,0,.1s0-.06,0-.08l-.11-.09Z"/><path class="cls-61" d="M13.09,5.79a.41.41,0,0,1,0,.17.39.39,0,0,1-.09.2S13,6,13,6V6S13,6,13,6s0-.1,0-.11v0l.07-.09h0Z"/><path class="cls-42" d="M13,5.86s0,0-.08,0,0,0,0,0h0s0,0,0,.05a1,1,0,0,1-.09.13A.59.59,0,0,0,12.91,6a.21.21,0,0,0,0-.08.09.09,0,0,1,0,0s0,0,0,0A1.09,1.09,0,0,0,13,6a.47.47,0,0,0,0-.11.82.82,0,0,0,0-.12h0l-.07,0a.19.19,0,0,1,0,.11Z"/><path class="cls-59" d="M13.32,5.36a.1.1,0,0,1,0,.11.09.09,0,0,1-.06,0,.2.2,0,0,1-.08,0L13,5.41l-.09,0h0v0H13l.13,0,.06,0h.13v0Z"/><path class="cls-43" d="M13.32,5.36a.06.06,0,0,1,0,.05.12.12,0,0,1-.09,0l-.16-.06a.49.49,0,0,0-.14,0s0,0,0,0a.46.46,0,0,1,.19,0,.53.53,0,0,0,.17.05c.07,0,.08,0,.08,0Z"/><path class="cls-40" d="M12.86,5.31h.07s0,0,0,0h-.05s0,0,0,0Z"/><path class="cls-59" d="M13.19,5.52s.06.06,0,.11l-.11-.05-.19-.08-.1,0v0l0,0a.06.06,0,0,0,0,0l.12,0,.13,0,.08.08Z"/><path class="cls-59" d="M13.06,5.6s.11.14.08.18l-.25-.16-.09.14-.2-.1.18-.15,0,0,.09,0,.14,0,0,0Z"/><path class="cls-43" d="M13,5.4l.14,0a.42.42,0,0,0,.13,0,.14.14,0,0,1-.09,0s-.06,0-.09-.05l-.11,0,0,0Z"/><path class="cls-40" d="M12.85,5.35l.1,0s0,0,.05,0h0s0,0,0,0a.17.17,0,0,1-.08,0,.07.07,0,0,0-.06,0v0Z"/><path class="cls-43" d="M13.2,5.59s0,0,0,0l-.07,0h-.08s0-.06-.11-.09l-.12,0h-.06l0,0,.14,0,.12,0,.07,0,0,0Z"/><path class="cls-43" d="M13,5.68l0,.11,0,.07,0,0h0v0a0,0,0,0,0,0,0,.28.28,0,0,0-.09-.05s0-.05.06-.07,0-.05,0-.05l.08.05Z"/><path class="cls-40" d="M12.82,5.45a.13.13,0,0,0,.07,0l.09,0h0l0,0,.11,0a.25.25,0,0,1,.08.06l-.08,0-.13,0-.19,0s0,0,0,0a.05.05,0,0,0,0,0Z"/><path class="cls-43" d="M13.13,5.76s0,0,0,0a.16.16,0,0,1-.14,0,.17.17,0,0,0,0-.05l-.1-.07s0,0,0,0l.16.07.1.07Z"/><path class="cls-40" d="M13.14,5.76a.5.5,0,0,0-.21-.14h-.07l-.09,0s0,0,0,0l0,0a.22.22,0,0,1,.11,0s0,0,0,0-.06.09-.05.09,0-.07.08-.06a.09.09,0,0,1,.06,0,.08.08,0,0,0,0,0s-.06-.06,0-.06a.45.45,0,0,1,.14.05.33.33,0,0,1,.11.07Z"/><path class="cls-59" d="M12.88,5.64A.16.16,0,0,1,13,5.8c0,.13-.1.1-.11.06s0,0,0,0,0,0,0-.09a.12.12,0,0,0,0-.1l-.05,0Z"/><path class="cls-62" d="M12.35,5.33s0,0,0,.1a.46.46,0,0,1-.11.18c-.1.11-.14.11-.13.15s0,0,.06,0,.18-.26.18-.26l0-.16v0h0Z"/><path class="cls-59" d="M12.79,5.14a.35.35,0,0,1,0,.22c0,.14-.21.27-.21.27l-.28.19h-.15l0,0s0,0,0,0l0,0,.1-.1.06-.09a.3.3,0,0,0,0-.1.15.15,0,0,0,0-.08l0,0v.16l.07,0,.1,0s0,0,0-.06a.67.67,0,0,0,0-.17s0-.08,0-.08h0a.15.15,0,0,1,0,.07s0,.12,0,.12l0,0,0-.06a.24.24,0,0,0,0-.08Z"/><path class="cls-48" d="M12.82,5.86s0,0,0,.07a.09.09,0,0,1-.07.08V5.94l-.06,0-.07,0h0l.08,0,.1,0Z"/><path class="cls-43" d="M12.77,5.86a.05.05,0,0,0,.08-.07s0,0,0,.05,0,0-.07-.06a.09.09,0,0,0-.08,0s0,0,0,0h0Z"/><path class="cls-48" d="M12.37,5.66h.07l.13,0,.08-.06a.34.34,0,0,0,.15-.22.52.52,0,0,0,0-.2.29.29,0,0,1,0,.36.49.49,0,0,1-.16.16s.15,0,.16,0a.17.17,0,0,1,0,.1s.08,0,.1.06-.09,0-.17,0a.2.2,0,0,0-.11.06s0,0-.08,0-.1,0-.14,0a.36.36,0,0,1-.18-.06l.08-.1c0-.07.09-.05.09-.05Z"/><path class="cls-43" d="M12.69,5.32a.47.47,0,0,0,.08-.1.28.28,0,0,0,0-.08.15.15,0,0,1,0,.1.56.56,0,0,1-.07.09h0Z"/><path class="cls-48" d="M12.67,5.19s0,.19,0,.26a.94.94,0,0,1-.28.18.64.64,0,0,0,.22-.2.44.44,0,0,0,0-.19v0Z"/><path class="cls-55" d="M12.45,5.67a.28.28,0,0,0,.11,0l.1-.08s-.05,0-.07,0,0,0,0,0a.14.14,0,0,1,0,.06l-.08,0Z"/><path class="cls-55" d="M12.62,5.43a.28.28,0,0,0,.06-.19c0-.13-.05-.11-.05-.11s0,0,0,.13a.57.57,0,0,1,0,.17Z"/><path class="cls-55" d="M12.69,5.44a.17.17,0,0,0,.09-.06.28.28,0,0,0,0-.12.26.26,0,0,1,0,.1l-.09.08Z"/><path class="cls-55" d="M12.65,5.86s0-.07.08,0a.06.06,0,0,1,0,.05.07.07,0,0,0-.05,0,.14.14,0,0,0-.07,0Z"/><path class="cls-55" d="M12.52,5.74l.16,0,.13,0a.48.48,0,0,1-.12.1.33.33,0,0,1-.13,0,.62.62,0,0,0,.15-.08.69.69,0,0,1-.18,0Z"/><path class="cls-2" d="M12.36,5.58a.11.11,0,0,1,0,.16.12.12,0,0,1-.14,0"/><path class="cls-63" d="M12.36,5.6a.1.1,0,0,1,0,.14.1.1,0,0,1-.12,0"/><path d="M12.31,5.65a0,0,0,1,1,0,.08l0,0"/><path class="cls-64" d="M12.32,5.7h0v0h0Z"/><path class="cls-43" d="M12.39,5.51a.32.32,0,0,0,.08-.15.42.42,0,0,0,0-.14l0,0v.07l0,.11.07,0a.54.54,0,0,0,0-.27.29.29,0,0,1,0,.16.21.21,0,0,1-.14.19.41.41,0,0,0-.16.18.82.82,0,0,1-.1.13,1.06,1.06,0,0,0,.07-.12.52.52,0,0,1,.07-.12l0-.05Z"/><path class="cls-48" d="M12.36,5.56a.6.6,0,0,0,0-.14.26.26,0,0,0,0-.1s0,0,0,.1,0,.11,0,.14Z"/><path class="cls-40" d="M12.49,5.45a.4.4,0,0,0,0-.13.2.2,0,0,0,0-.1s.05,0,.06.1,0,.09,0,.13Z"/><path class="cls-43" d="M12.18,5.8a.1.1,0,0,1,0-.06s0,0,.06-.09a.56.56,0,0,0,.11-.13s.06-.13,0-.2a.24.24,0,0,1,0,.19.68.68,0,0,1-.14.16s-.05.05-.05.07,0,0,0,0h0Z"/><path class="cls-65" d="M12.76,6a0,0,0,0,0,0,0,.06.06,0,0,0,0-.07.14.14,0,0,0-.07-.05h-.09a.17.17,0,0,0,.06.05s.05,0,.07,0a.15.15,0,0,1,0,.08Z"/><path class="cls-65" d="M12.76,6a.11.11,0,0,0,.07-.09.1.1,0,0,0,0-.05.06.06,0,0,0,0,0h0s0,.12-.13.12Z"/></g><g id="beak"><path class="cls-66" d="M12.3,6l0,0,0,0,.16,0L12.59,6l0-.07h-.12L12.3,6Z"/><path class="cls-67" d="M12.69,5.94l0,0,0,0a.48.48,0,0,0-.12,0h-.07a.06.06,0,0,1-.06,0l-.11,0-.08,0-.07,0-.06.06s0,0,0,0h0a.3.3,0,0,0-.14.19c0,.12.2.3.28.21s-.12-.09-.1-.16A.18.18,0,0,1,12.25,6a.19.19,0,0,0,.14,0,.13.13,0,0,1,.17,0c.06.06-.21.11-.21.11l0,0s.33-.11.31-.18Z"/><path class="cls-68" d="M12.07,6.23s-.14,0-.12-.16a.21.21,0,0,1,.14-.18s0-.07,0-.08a.1.1,0,0,1,.09,0l.06,0S12,6,12,6.12s0,.11,0,.11Z"/><path class="cls-69" d="M12.69,5.93h0a.14.14,0,0,0-.13-.06l-.14,0h-.08s-.15-.08-.18-.07a0,0,0,0,0,0,.05s0,0,0,0,0-.08.08-.08.2.08.25.08.07,0,.15,0,.15,0,.15.09Z"/><path class="cls-70" d="M12.32,6l.1,0,.1,0-.08,0-.09,0h0Z"/><path class="cls-71" d="M12.13,6.3s-.06,0-.13,0a.25.25,0,0,1-.1-.14A.2.2,0,0,1,12,5.95c.08-.08.09-.06.1-.06h0L12,6l0,.06,0,.05v.06l0,.06.11.07.06,0Z"/><path class="cls-72" d="M12.08,5.83h0l0,0v0h0l0,0h0v0h0a0,0,0,0,0,0,0h0Z"/><path class="cls-71" d="M12.31,5.94l-.17,0h.2c.06,0,.19-.07.2,0s-.18.09-.18.09v0l.15,0,.08,0,0,0-.08-.05h-.16l-.07,0Z"/><path class="cls-42" d="M12.08,6.18a.19.19,0,0,0,.07.1h0s0,0-.08,0a.23.23,0,0,1-.18-.18v0l0,.06.05.05.08,0h.1l0,0,0,0-.06-.1a.08.08,0,0,0,0,0Z"/></g></g><g id="snake2"><path class="cls-35" d="M12.62,7.61h0v.05h0V7.6Z"/><path class="cls-35" d="M12.41,6.12h0l-.05-.06h0l.05.08Z"/><path class="cls-34" d="M12.61,7.74l-.07,0-.1,0h0l.09,0,.05,0h0Z"/><path class="cls-34" d="M12.61,7.6h-.12l-.06,0h0l.05,0h.12Z"/><path class="cls-34" d="M12.59,7.49l-.11.06-.07.05h0l0,0,0,0,.07,0,0,0h0Z"/><path class="cls-34" d="M12.52,7.37h0a.11.11,0,0,1,0,.05l0,0-.07.08,0,0h0l.06-.07,0-.05,0,0a.12.12,0,0,0,0-.06h0Z"/><path class="cls-34" d="M12.43,7.32h0a.17.17,0,0,1,0,0,.18.18,0,0,1,0,.06l0,.09,0,0v0h0a1.4,1.4,0,0,0,.07-.15.2.2,0,0,0,0-.07.18.18,0,0,0,0,0h0Z"/><path class="cls-34" d="M12.34,7.31h0v0a.24.24,0,0,1,0,.08l0,.08,0,0h0l0-.12a.26.26,0,0,0,0-.08s0-.05,0-.05h0Z"/><path class="cls-34" d="M12.27,7.31s0,0,0,.05a.54.54,0,0,1,0,.08l0,.11h0V7.44a.87.87,0,0,0,0-.14h0Z"/><path class="cls-34" d="M12.19,7.32v0s0,0,0,0a.24.24,0,0,1,0,.05.88.88,0,0,0,0,.11h0V7.45a.24.24,0,0,0,0-.06s0-.07,0-.07h0Z"/><path class="cls-34" d="M12.13,7.33h0a.38.38,0,0,1,0,.1l0,.08v0h0l0-.13a.39.39,0,0,0,0-.1h0Z"/><path class="cls-34" d="M12.07,7.33h0v0a.2.2,0,0,1,0,.09L12,7.51l0,0h0a.33.33,0,0,0,.1-.1.21.21,0,0,0,0-.1.26.26,0,0,0,0,0h0Z"/><path class="cls-34" d="M12,7.31h0a.29.29,0,0,1,0,.08l-.06,0,0,0h0A.4.4,0,0,0,12,7.41a.31.31,0,0,0,0-.09h0Z"/><path class="cls-34" d="M12,7.28h0l0,0,0,0,0,0,0,0h0l0,0,0,0,0,0v0h0Z"/><path class="cls-34" d="M11.93,7.24h0l0,0,0,0h0l0,0,.07-.07h0Z"/><path class="cls-34" d="M11.92,7.21h0l0,0,0,0h0l.06,0h0Z"/><path class="cls-34" d="M11.9,7.18l0,0h0l.06,0h0Z"/><path class="cls-34" d="M11.89,7.12h0l0,0h0l.05,0,0,0h0Z"/><path class="cls-34" d="M11.89,7l0,0,0,0h0l0,0,0,0h0Z"/><path class="cls-34" d="M12.36,6.47h0Z"/><path class="cls-34" d="M12.36,6.43h0l0,0h0l0,0,0,0h0Z"/><path class="cls-34" d="M12.35,6.37h0l.05,0,0,0h0l-.05,0,0,0h0Z"/><path class="cls-34" d="M12.33,6.31l.07,0,.07-.05h0l-.07.05-.06,0h0Z"/><path class="cls-34" d="M12.28,6.24l.14-.1h0l-.14.1h0Z"/><path class="cls-34" d="M12.22,6.17l.08-.06.07,0h0l-.07,0-.08.06h0Z"/><path class="cls-34" d="M12.18,6.13l.07,0,.05,0,0,0h0l0,0-.12.08h0Z"/><path class="cls-29" d="M12.29,6h0a.75.75,0,0,1,.11.11.31.31,0,0,1,.08.18v0a.41.41,0,0,1-.11.22,3.08,3.08,0,0,1-.31.28.78.78,0,0,0-.13.14.26.26,0,0,0-.05.15h0a.28.28,0,0,0,0,.15.19.19,0,0,0,.14.08h0l.24,0a.24.24,0,0,1,.19.08.37.37,0,0,1,.07.25,1.05,1.05,0,0,1,0,.18v.08h0a1.13,1.13,0,0,0,0-.26.39.39,0,0,0-.08-.26.25.25,0,0,0-.2-.08l-.24,0h0a.18.18,0,0,1-.13-.08.26.26,0,0,1,0-.14h0A.29.29,0,0,1,12,6.9a4,4,0,0,1,.3-.27.55.55,0,0,0,.21-.33v0a.35.35,0,0,0-.1-.21L12.29,6h0Z"/><path class="cls-27" d="M12.18,6.13h0l0,0Z"/><path class="cls-27" d="M12.23,6.17Z"/><path class="cls-29" d="M12.29,6.24Z"/><path class="cls-29" d="M12.33,6.31h0l0,0Z"/><path class="cls-29" d="M12.36,6.37h0v0h0Z"/><path class="cls-29" d="M12.36,6.44h0v0h0v0Z"/><path class="cls-29" d="M12.36,6.48h0v0h0v0Z"/><path class="cls-29" d="M11.83,7.12v0s0,0,0,0v0Z"/><path class="cls-2" d="M11.83,7.16h0v0h0v0Z"/><path class="cls-29" d="M11.83,7.23h0v0h0v0Z"/><path class="cls-2" d="M11.83,7.28h0v0h0v0Z"/><path class="cls-2" d="M11.85,7.34h0v0h0v0Z"/><path class="cls-2" d="M11.86,7.4h0v0h0v0Z"/><path class="cls-27" d="M11.9,7.49h0v0Z"/><path class="cls-27" d="M12,7.55l0,0s0,0,0,0h0Z"/><path class="cls-27" d="M12.39,7.58h0S12.39,7.58,12.39,7.58Z"/><path class="cls-2" d="M12.43,7.61h0s0,0,0,0h0Z"/><path class="cls-27" d="M12.43,7.63s0,0,0,0h0a0,0,0,0,0,0,0Z"/><path class="cls-27" d="M12.44,7.68a.08.08,0,0,0,0,0h0v0h0Z"/><path class="cls-2" d="M12.41,7.75h0v0h0v0Z"/><path class="cls-2" d="M11.77,5.49s0,0,0,0v0h0Z"/></g><g id="eagle2"><path class="cls-71" d="M12.29,6V6h0s0,0,0,0Z"/><path class="cls-42" d="M12.31,6h0Z"/><path class="cls-73" d="M12.57,7.89h0s0,0,0,0h0Z"/></g></g></g></g></g></svg>