<svg xmlns="http://www.w3.org/2000/svg" viewBox="0 0 27.05 16"><defs><style>.cls-1{fill:#fdfefd;}.cls-2{fill:#e71e18;}.cls-3{fill:#17489d;}.cls-4{fill:#d8d8d8;}</style></defs><title>flag_591</title><g id="レイヤー_2" data-name="レイヤー 2"><g id="flag"><rect class="cls-1" x="0.14" y="0.19" width="26.77" height="15.62"/><rect class="cls-2" x="13.16" y="0.19" width="13.75" height="7.69"/><rect class="cls-3" x="0.14" y="7.88" width="12.85" height="7.93"/><polygon class="cls-3" points="5.05 4.91 5.33 3.71 4.5 2.81 5.71 2.7 6.32 1.63 6.8 2.76 8 3 7.08 3.81 7.22 5.03 6.17 4.4 5.05 4.91"/><polygon class="cls-2" points="17.88 12.2 18.22 11.03 17.45 10.08 18.67 10.04 19.34 9.01 19.75 10.16 20.93 10.47 19.96 11.22 20.03 12.45 19.02 11.76 17.88 12.2"/><path class="cls-4" d="M26.85.2V15.8H.2V.2H26.85m.2-.2H0V16H27.05V0Z"/></g></g></svg>