<svg xmlns="http://www.w3.org/2000/svg" viewBox="0 0 27.05 16.03"><defs><style>.cls-1,.cls-6{fill:#e71e18;}.cls-2{fill:#fdfefd;}.cls-3,.cls-7{fill:#17489d;}.cls-4{fill:#fff;}.cls-4,.cls-5,.cls-6,.cls-7{fill-rule:evenodd;}.cls-5{fill:#dfbac6;}.cls-8{fill:#d8d8d8;}</style></defs><title>flag_703
</title><g id="レイヤー_2" data-name="レイヤー 2"><g id="flag"><rect class="cls-1" x="0.1" y="0.12" width="26.89" height="15.9"/><rect class="cls-2" x="0.06" width="26.93" height="5.19"/><rect class="cls-3" x="0.08" y="5.23" width="26.91" height="5.66"/><path class="cls-4" d="M1.88,4.57l5.72,0a22.65,22.65,0,0,1,.06,3.54,4.71,4.71,0,0,1-1.18,2.7A4.31,4.31,0,0,1,4.82,12,5.59,5.59,0,0,1,3.1,10.87,3.91,3.91,0,0,1,1.82,8.13,31.43,31.43,0,0,1,1.88,4.57Z"/><path class="cls-5" d="M2,4.69c1.74-.07,3.76-.07,5.5,0Z"/><path class="cls-6" d="M2,4.69H7.5c0,.67.08,1.31.12,2v.79a5,5,0,0,1-.79,2.71A.69.69,0,0,0,5.65,9.6,1.22,1.22,0,0,0,5.06,9V8h.43a6.07,6.07,0,0,1,1,.12,3,3,0,0,1,0-.87,12,12,0,0,1-1.41.12V6.65a8.46,8.46,0,0,1,1.14.16,1.45,1.45,0,0,1,0-.9A5.65,5.65,0,0,1,5.06,6a8.67,8.67,0,0,1,.12-1,7,7,0,0,1-.86,0c0,.37.13.66.12,1.06a4.71,4.71,0,0,1-1.1-.12c0,.19.11.63,0,.87.27,0,.77-.1,1.14-.12v.71A5.39,5.39,0,0,1,3,7.2a1.76,1.76,0,0,1,0,.9A8.25,8.25,0,0,1,4,8h.43V9a.92.92,0,0,0-.55.59.71.71,0,0,0-1.22.55,5,5,0,0,1-.79-2.71V6.65C1.92,6,2,5.36,2,4.69Z"/><path class="cls-7" d="M4.55,9h.39S5,9,5.06,9a1.22,1.22,0,0,1,.59.59.69.69,0,0,1,1.18.55,4.92,4.92,0,0,1-2,1.73,4.46,4.46,0,0,1-2.12-1.73A.71.71,0,0,1,3.88,9.6.92.92,0,0,1,4.43,9C4.49,9,4.54,9,4.55,9Z"/><path class="cls-8" d="M26.85.21v15.6H.2V.21H26.85m.2-.2H0V16H27.05V0Z"/></g></g></svg>