<svg xmlns="http://www.w3.org/2000/svg" viewBox="0 0 27.05 16"><defs><style>.cls-1{fill:#fdfefd;}.cls-2{fill:#0038b8;}.cls-3{fill:#d8d8d8;}</style></defs><title>flag_376</title><g id="レイヤー_2" data-name="レイヤー 2"><g id="flag"><rect class="cls-1" x="0.09" width="26.88" height="15.9"/><rect class="cls-2" x="0.09" y="1.52" width="26.88" height="2.21"/><rect class="cls-2" x="0.09" y="11.86" width="26.88" height="2.09"/><path class="cls-2" d="M14.42,9.37H16.2L15.29,7.8l.88-1.59-1.8,0-.87-1.5-.88,1.52-1.8,0,.9,1.54L10.81,9.4h1.85l.9,1.54Zm.93-.48h-.66L15,8.3Zm-1.23,0H12.93L12.3,7.79l.63-1.07h1.18l.62,1.09Zm1.24-2.17-.34.6-.35-.6Zm-1.82-1,.3.53h-.62Zm-1.85,1h.66L12,7.3Zm0,2.14L12,8.29l.34.59Zm1.55.51h.61l-.31.54Z"/><path class="cls-3" d="M26.85.2V15.8H.2V.2H26.85m.2-.2H0V16H27.05V0Z"/></g></g></svg>