<svg xmlns="http://www.w3.org/2000/svg" viewBox="0 0 26.95 15.92"><defs><style>.cls-1{fill:#128807;}.cls-2{fill:#f93;}.cls-3{fill:#fdfefd;}.cls-4{fill:#1e2d5d;}</style></defs><title>flag_356</title><g id="レイヤー_2" data-name="レイヤー 2"><g id="flag"><rect class="cls-1" x="0.04" y="0.02" width="26.89" height="15.9"/><rect class="cls-2" width="26.95" height="5.08"/><rect class="cls-3" y="5.08" width="26.93" height="5.66"/><path class="cls-4" d="M13.86,5.41A2.58,2.58,0,1,0,16.45,8,2.58,2.58,0,0,0,13.86,5.41Zm2.21,3c.06.13-.08.29-.08.29-.29,0-.1.25-.1.25a.65.65,0,0,1-.15.29c-.22,0-.2.25-.2.25,0,.18-.21.18-.21.18-.23-.09-.22.19-.22.19a.25.25,0,0,1-.25.14c-.26-.12-.26.13-.26.13a.33.33,0,0,1-.32,0c-.2-.19-.24.07-.24.07a.43.43,0,0,1-.34,0c-.09-.26-.28,0-.28,0s-.29-.1-.29-.1c0-.28-.29-.1-.29-.1a.24.24,0,0,1-.22-.17c0-.29-.22-.16-.22-.16s-.22-.21-.22-.21c.08-.26-.16-.22-.16-.22S11.84,9,11.84,9c.2-.25-.13-.29-.13-.29s-.08-.26-.08-.26c.24-.18,0-.2,0-.29s0-.31,0-.31c.32-.14,0-.29,0-.29a1,1,0,0,1,.08-.31c.27,0,.11-.25.11-.25s.14-.29.14-.29c.29.07.17-.23.17-.23s.2-.19.2-.19c.32,0,.26-.17.26-.17s.21-.15.21-.15c.33.15.29-.12.29-.12a1.12,1.12,0,0,1,.32-.07c.19.2.26,0,.26,0s.32,0,.32,0c.12.23.27,0,.27,0s.29.08.29.08c0,.28.27.13.27.13s.28.14.28.14c-.06.21.2.2.2.2.16,0,.24.22.24.22-.07.21.19.21.19.21s.14.29.14.29c-.1.21.1.22.1.22s.11.3.11.3c-.26.13,0,.29,0,.29a.31.31,0,0,1,0,.33C15.84,8.22,16.08,8.45,16.08,8.45Z"/><ellipse class="cls-4" cx="13.86" cy="7.99" rx="0.44" ry="0.45"/><path class="cls-4" d="M14,7.58a9.39,9.39,0,0,1,.49-1.78A10.31,10.31,0,0,1,14,7.58Z"/><path class="cls-4" d="M13.86,7.55a9.13,9.13,0,0,1,0-1.85A10.46,10.46,0,0,1,13.86,7.55Z"/><path class="cls-4" d="M13.72,7.54a9.31,9.31,0,0,1-.46-1.79A10.52,10.52,0,0,1,13.72,7.54Z"/><path class="cls-4" d="M13.62,7.64A9.24,9.24,0,0,1,12.71,6,10.49,10.49,0,0,1,13.62,7.64Z"/><path class="cls-4" d="M13.52,7.69a9.18,9.18,0,0,1-1.3-1.32A10.64,10.64,0,0,1,13.52,7.69Z"/><path class="cls-4" d="M13.46,7.82a9.16,9.16,0,0,1-1.59-.94A10.43,10.43,0,0,1,13.46,7.82Z"/><path class="cls-4" d="M13.44,7.89a9.19,9.19,0,0,1-1.78-.49A10.5,10.5,0,0,1,13.44,7.89Z"/><path class="cls-4" d="M13.4,8a9.23,9.23,0,0,1-1.85,0A10.5,10.5,0,0,1,13.4,8Z"/><path class="cls-4" d="M13.42,8.13a9.17,9.17,0,0,1-1.79.46A10.39,10.39,0,0,1,13.42,8.13Z"/><path class="cls-4" d="M13.49,8.22a9.21,9.21,0,0,1-1.61.91A10.49,10.49,0,0,1,13.49,8.22Z"/><path class="cls-4" d="M13.56,8.32a9.14,9.14,0,0,1-1.31,1.3A10.59,10.59,0,0,1,13.56,8.32Z"/><path class="cls-4" d="M13.65,8.39A9.28,9.28,0,0,1,12.71,10,10.44,10.44,0,0,1,13.65,8.39Z"/><path class="cls-4" d="M13.77,8.44a9.18,9.18,0,0,1-.49,1.78A10.67,10.67,0,0,1,13.77,8.44Z"/><path class="cls-4" d="M13.87,8.44a9.21,9.21,0,0,1,0,1.85A10.51,10.51,0,0,1,13.87,8.44Z"/><path class="cls-4" d="M14,8.44a9.14,9.14,0,0,1,.46,1.79A10.53,10.53,0,0,1,14,8.44Z"/><path class="cls-4" d="M14.1,8.39A9.28,9.28,0,0,1,15,10,10.37,10.37,0,0,1,14.1,8.39Z"/><path class="cls-4" d="M14.2,8.31a9.25,9.25,0,0,1,1.3,1.32A10.5,10.5,0,0,1,14.2,8.31Z"/><path class="cls-4" d="M14.27,8.21a9.15,9.15,0,0,1,1.59.94A10.54,10.54,0,0,1,14.27,8.21Z"/><path class="cls-4" d="M14.32,8.09a9.17,9.17,0,0,1,1.78.49A10.51,10.51,0,0,1,14.32,8.09Z"/><path class="cls-4" d="M14.32,8a9.25,9.25,0,0,1,1.85,0A10.5,10.5,0,0,1,14.32,8Z"/><path class="cls-4" d="M14.31,7.89a9.13,9.13,0,0,1,1.79-.46A10.54,10.54,0,0,1,14.31,7.89Z"/><path class="cls-4" d="M14.27,7.77a9.15,9.15,0,0,1,1.61-.91A10.44,10.44,0,0,1,14.27,7.77Z"/><path class="cls-4" d="M14.17,7.66a9.21,9.21,0,0,1,1.32-1.3A10.51,10.51,0,0,1,14.17,7.66Z"/><path class="cls-4" d="M14.08,7.62A9.21,9.21,0,0,1,15,6,10.38,10.38,0,0,1,14.08,7.62Z"/></g></g></svg>