<svg xmlns="http://www.w3.org/2000/svg" viewBox="0 0 26.89 15.9"><defs><style>.cls-1{fill:#e30a17;}.cls-2{fill:#fff;}</style></defs><title>flag_792</title><g id="レイヤー_2" data-name="レイヤー 2"><g id="flag"><rect class="cls-1" width="26.89" height="15.9"/><polygon class="cls-2" points="12.34 9.72 12.19 8.51 11.11 7.93 12.22 7.42 12.43 6.21 13.26 7.12 14.48 6.94 13.88 8.01 14.42 9.11 13.21 8.87 12.34 9.72"/><path class="cls-2" d="M11,5.39s-2.08-2.73-5-1.66A4.12,4.12,0,0,0,3.24,7.85a4.33,4.33,0,0,0,4.39,3.94s2.49-.31,3.14-1.79a8,8,0,0,1-3.49.74A3.06,3.06,0,0,1,5,7.83c0-1,.57-3,2.4-3.36A5.54,5.54,0,0,1,11,5.39Z"/></g></g></svg>