<svg xmlns="http://www.w3.org/2000/svg" viewBox="0 0 26.05 15.96"><defs><style>.cls-1{fill:#3e5eb9;}.cls-1,.cls-2,.cls-3,.cls-4,.cls-5,.cls-6,.cls-7,.cls-8{fill-rule:evenodd;}.cls-2{fill:#fff;}.cls-3{fill:#3f5b99;}.cls-4{fill:#ffd900;}.cls-5{fill:#b10c0c;}.cls-6{fill:#a71f24;}.cls-7{fill:#f4d21f;}.cls-8{fill:#040000;}</style></defs><title>flag_748</title><g id="レイヤー_2" data-name="レイヤー 2"><g id="flag"><path class="cls-1" d="M26,0V2.84H0V0Z"/><path class="cls-2" d="M26,0c0,5.3,0,10.66,0,16V13.12h0V2.85h0Z"/><path class="cls-3" d="M0,2.85H0Z"/><path class="cls-4" d="M0,2.85H26V4H0Z"/><path class="cls-5" d="M0,4H26v8H0ZM20.76,6.13c-.21,0-.44.2-.67.23a5.85,5.85,0,0,1-.71,0H17.26a7.08,7.08,0,0,0-1.85-1.3,5.38,5.38,0,0,0-2.66-.51,5.32,5.32,0,0,0-2.18.65,8.44,8.44,0,0,0-1.46,1c-.06.05-.15.15-.2.16a1.94,1.94,0,0,1-.37,0H6.35a1.28,1.28,0,0,0-.36,0,.14.14,0,0,0,0,.25H8.63l-.22.21c-.06.06-.15.19-.23.21a2.15,2.15,0,0,1-.39,0H5.46C5.25,7,5,7,5,7.15s.46.17.65.17H7.93c-.06.08-.15.14-.24.23s-.15.21-.23.23a2.48,2.48,0,0,1-.49,0H4a1.91,1.91,0,0,0-.49,0,.2.2,0,0,0,0,.36c.15.06.28,0,.43,0A1.4,1.4,0,0,0,3.55,9s.08-.1.12-.08a3.55,3.55,0,0,0,.07.38s.08-.13.13-.13l0,.19c0,.06,0,.15.06.18s0-.12.07-.16c.17.15.14.51.39.57,0,0,0-.09.09-.09a1.27,1.27,0,0,0,.29.15s0,0,0-.11a2.3,2.3,0,0,1,.37-.27s0,.07,0,.06a1.28,1.28,0,0,1,.15-.42s.05.11.07.07c0-.23,0-.46,0-.71,0,0,.07.07.09,0a1.28,1.28,0,0,0,0-.48H7.46a17.64,17.64,0,0,0,2.31,2.09,5.42,5.42,0,0,0,6.59.07,13.85,13.85,0,0,0,2-1.88c.07-.08.2-.26.27-.28a1.45,1.45,0,0,1,.29,0H21a1.53,1.53,0,0,0-.45.81c.06,0,.14-.11.2-.11-.06.31.12.53.16.8a.72.72,0,0,0,.26-.18,2.6,2.6,0,0,0,.53.56s0,.06.08,0A1.68,1.68,0,0,1,22,9.72s.07.1.08.06.08-.17.1-.26.11.13.15.1a1.32,1.32,0,0,1,0-.33s.08.09.13.07a1,1,0,0,1,0-.38s.11.12.15.09a2.77,2.77,0,0,1-.08-.4s.09.12.11.09a.72.72,0,0,0-.35-.6c.21,0,.6.08.58-.21s-.36-.18-.63-.18H18.61a5.55,5.55,0,0,1-.42-.47c.37,0,.7-.05,1,0s.44.19.64.23c.33-.13.7-.23,1-.38-.35-.11-.68-.24-1-.36a7,7,0,0,1-.67.24c-.41.05-.82,0-1.26,0-.12-.14-.29-.28-.39-.42h1.92a5,5,0,0,1,.65,0c.23,0,.46.19.66.23.34-.13.71-.23,1-.37Z"/><path class="cls-3" d="M13.22,4.58s.11,0,.13,0S13.24,4.6,13.22,4.58Z"/><path class="cls-6" d="M12.15,6a.9.9,0,0,1-.57-.09c-.1-.05-.31-.15-.19-.25A7.19,7.19,0,0,0,12.15,6Z"/><path class="cls-6" d="M11,5.85a1,1,0,0,1-.23.79c0-.24.1-.52.12-.79l0,0S11,5.84,11,5.85Z"/><path class="cls-6" d="M11.66,6.13c.12,0,.18.15.28.22a1.82,1.82,0,0,1,.28.2.78.78,0,0,1-.41-.15C11.71,6.33,11.55,6.24,11.66,6.13Z"/><path class="cls-6" d="M11.24,7a6.25,6.25,0,0,0,0-.68s.07,0,.09,0A.77.77,0,0,1,11.24,7Z"/><path class="cls-7" d="M8.86,6.4s0,.06-.09.09-.07.08-.11.09a4.13,4.13,0,0,1-.7,0H6.59c-.18,0-.6,0-.63-.06s.26-.13.43-.13Z"/><path class="cls-7" d="M17.3,6.4h1.78a3.47,3.47,0,0,1,.59,0c.08,0,.11.05.1.1s-.33.09-.51.09H18.09a3.36,3.36,0,0,1-.58,0C17.42,6.57,17.34,6.45,17.3,6.4Z"/><path class="cls-7" d="M19.78,6.59s.06-.15,0-.18C19.91,6.37,19.93,6.62,19.78,6.59Z"/><path class="cls-7" d="M19.9,6.4a.09.09,0,1,1,0,.19A.15.15,0,0,0,19.9,6.4Z"/><path class="cls-7" d="M20,6.4c.28-.07.28.26,0,.19A.15.15,0,0,0,20,6.4Z"/><path class="cls-3" d="M9.45,6.77s.24-.05.28,0a.9.9,0,0,1,0,.23c0,.21,0,.53,0,.68V7c0-.06,0-.21,0-.23S9.48,6.81,9.45,6.77Z"/><path class="cls-3" d="M10,6.77a1.8,1.8,0,0,1,.28,0c0,.3,0,.63,0,.92V6.77Z"/><path class="cls-3" d="M12.5,6.77a1.31,1.31,0,0,0-.25,0s0,0,0,0A1.56,1.56,0,0,1,12.5,6.77Z"/><path class="cls-3" d="M14.2,6.77a1.81,1.81,0,0,1,.28,0c0,.3,0,.63,0,.92V7c0-.06,0-.21,0-.23S14.24,6.81,14.2,6.77Z"/><path class="cls-3" d="M15,7.68v-.9a1.41,1.41,0,0,0-.26,0v.91c0-.29,0-.61,0-.92H15C15,7.06,15.05,7.39,15,7.68Z"/><path class="cls-3" d="M15.59,6.77c-.09,0-.2-.05-.26,0s0,.15,0,.21v.69c0-.29,0-.61,0-.92A1.81,1.81,0,0,1,15.59,6.77Z"/><path class="cls-2" d="M9.45,6.77s.23,0,.27,0,0,.18,0,.23v.67H9.45Z"/><path class="cls-2" d="M10,6.77h.27v.91H10Z"/><path class="cls-6" d="M11.92,7.35A.71.71,0,0,1,11.6,7c0-.05-.14-.26,0-.27s.13.25.16.3S11.88,7.24,11.92,7.35Z"/><path class="cls-8" d="M13.65,6.77h.27v.91h-.27Z"/><path class="cls-8" d="M14.2,6.77s.23,0,.27,0,0,.18,0,.23v.67H14.2Z"/><path class="cls-8" d="M15,7.68h-.26V6.77a1.41,1.41,0,0,1,.26,0Z"/><path class="cls-8" d="M15.59,6.77v.91h-.27V7c0-.06,0-.19,0-.21S15.5,6.81,15.59,6.77Z"/><path class="cls-8" d="M15.88,7.68V6.77h.27v.91Z"/><path class="cls-8" d="M16.43,7.68V6.77h.27v.91Z"/><path class="cls-3" d="M12.24,6.93c0,.23,0,.5,0,.75a3,3,0,0,1,0-.38c0-.11,0-.31,0-.37Z"/><path class="cls-3" d="M13.54,7v.31A1,1,0,0,1,13.54,7Z"/><path class="cls-7" d="M8.13,7.09s0,.06-.07.09S8,7.26,8,7.27a1.87,1.87,0,0,1-.37,0H5.71c-.19,0-.65,0-.67-.07s.27-.11.46-.11Z"/><path class="cls-7" d="M18,7.09c.23,0,.55,0,.78,0,.06,0,.11,0,.1.11s-.2.07-.32.07a1.64,1.64,0,0,1-.39,0C18.07,7.25,18,7.13,18,7.09Z"/><path class="cls-7" d="M18.86,7.09a.09.09,0,1,1,0,.19A.14.14,0,0,0,18.86,7.09Z"/><path class="cls-7" d="M19,7.1c.12,0,.16.19,0,.18C19,7.24,19,7.13,19,7.1Z"/><path class="cls-7" d="M19.09,7.27s.06-.15,0-.18C19.34,7,19.41,7.34,19.09,7.27Z"/><path class="cls-3" d="M11.68,7.31a2.8,2.8,0,0,0,0,.37,1,1,0,0,1,0-.37Z"/><path class="cls-6" d="M3.55,7.83c.63,0,1.3,0,1.95,0s1.33,0,1.92,0Z"/><path class="cls-6" d="M18.66,7.83c.88,0,1.89,0,2.83,0,0,0,0,0,0,0Z"/><path class="cls-6" d="M21.54,7.83c.37,0,.81,0,1.18,0Z"/><path class="cls-7" d="M3.55,8.12c-.16,0-.16-.29,0-.29H7.42c0,.05-.09.09-.13.14s.09.09.13.15H5.5C5.45,8.07,5.42,8,5.37,8S5,8,4.85,8s-.32-.12-.49-.11.06.09,0,.11-.1,0-.17,0,0,.07,0,.14a.33.33,0,0,0-.22,0Z"/><path class="cls-7" d="M18.66,7.83h2.82a2.55,2.55,0,0,0-.42.29h-2.4c0-.05.09-.09.13-.14S18.7,7.89,18.66,7.83Z"/><path class="cls-7" d="M22.24,8.12a1.5,1.5,0,0,0-.75-.18.39.39,0,0,1,.06-.11h1.18c.17,0,.17.3,0,.29Z"/><path class="cls-3" d="M21.45,7.89s0,0,0,.07.15,0,.21,0a1,1,0,0,1,1,.72s0-.06-.08-.08,0,.28,0,.4-.07-.1-.11-.14a1.22,1.22,0,0,0,0,.44s-.06-.09-.12-.11a1.74,1.74,0,0,1,0,.35s-.08-.07-.13-.09-.08.18-.1.27,0-.06,0-.09a2.4,2.4,0,0,0-.29.41,2.07,2.07,0,0,1-.59-.65.39.39,0,0,1-.24.21c0-.27-.23-.53-.12-.82a.61.61,0,0,0-.2.12A1.62,1.62,0,0,1,21.45,7.89Zm.28.67c-.11.11.23.28.37.24A2.94,2.94,0,0,1,21.73,8.56Zm-.54.2a5.11,5.11,0,0,1-.31.54.69.69,0,0,0,.39-.49S21.24,8.76,21.19,8.77Zm.72.36c0-.08-.06-.26-.15-.14A.33.33,0,0,0,22,9.3,1.57,1.57,0,0,1,21.91,9.12Zm-.55.1c0,.14,0,.28,0,.43a.36.36,0,0,0,.06-.43Zm.28,0c0,.19.06.4.09.6a.63.63,0,0,0,0-.62S21.66,9.27,21.64,9.28Z"/><path class="cls-3" d="M4.17,9.47A.75.75,0,0,0,4.41,9c0-.08,0-.14-.07-.13s-.05.24-.07.33-.09.21-.09.28A.91.91,0,0,0,4,9.3.28.28,0,0,0,4,9.43c0-.12-.06-.25-.1-.37a1.29,1.29,0,0,0-.11.14.9.9,0,0,1-.06-.38s-.08.07-.1.05a1.42,1.42,0,0,1,.3-.64c.07-.07.22-.16.35-.08s0-.09,0-.11a.14.14,0,0,0,.17,0s0-.07,0-.08c.15,0,.25.09.42.1s.28-.07.41,0,.28.28.26.59c0,0,0-.09-.09-.08s0,.2,0,.32,0,.26,0,.38,0,0,0,0a1.72,1.72,0,0,0-.16.37h0c-.09.18-.36.18-.41.4a.57.57,0,0,1-.23-.13c-.05,0-.08.05-.09.1C4.27,9.84,4.25,9.63,4.17,9.47Zm.47-1.2c-.07,0,0,.12,0,.17a.93.93,0,0,0,.55.33Zm-.42.07A5.57,5.57,0,0,1,3.9,9a.72.72,0,0,0,.37-.66S4.25,8.34,4.22,8.35Zm.71.84a.72.72,0,0,0,.2.09h0C5.06,9.19,5,9.12,4.92,9s-.08-.22-.2-.24A.46.46,0,0,0,4.93,9.19Zm-.35,0c0,.18,0,.44-.07.61a.67.67,0,0,0,.12-.6S4.61,9.17,4.58,9.17Z"/><path class="cls-6" d="M3.55,8.12H4A2.31,2.31,0,0,1,3.55,8.12Z"/><path class="cls-6" d="M5.5,8.12H7.42C6.84,8.14,6.11,8.14,5.5,8.12Z"/><path class="cls-6" d="M18.66,8.12h2.4C20.29,8.14,19.4,8.14,18.66,8.12Z"/><path class="cls-6" d="M22.24,8.12h.49A2.82,2.82,0,0,1,22.24,8.12Z"/><path class="cls-6" d="M5.19,8.77a.93.93,0,0,1-.55-.33s-.07-.13,0-.17Z"/><path class="cls-2" d="M9.72,8.28v.91H9.45V8.28Z"/><path class="cls-3" d="M9.72,8.28c0,.29,0,.61,0,.92a1.81,1.81,0,0,1-.28,0h.27Z"/><path class="cls-2" d="M10.27,8.28v.91H10V8.28Z"/><path class="cls-3" d="M10.27,8.28c0,.29,0,.61,0,.92a1.8,1.8,0,0,1-.28,0h.27Z"/><path class="cls-2" d="M10.84,9.19h-.28V8.28h.28Z"/><path class="cls-3" d="M11.12,8.28V9c0,.06,0,.21,0,.23s.24,0,.27,0a1.79,1.79,0,0,1-.28,0C11.12,8.9,11.1,8.57,11.12,8.28Z"/><path class="cls-2" d="M11.12,8.28h.27v.91s-.23,0-.27,0,0-.18,0-.23Z"/><path class="cls-3" d="M11.67,8.28V9c0,.06,0,.21,0,.23s.24,0,.27,0a1.8,1.8,0,0,1-.28,0C11.67,8.9,11.65,8.57,11.67,8.28Z"/><path class="cls-2" d="M11.67,8.28h.27v.91s-.23,0-.27,0,0-.18,0-.23Z"/><path class="cls-3" d="M12.23,8.28v.91h.27a1.8,1.8,0,0,1-.28,0C12.23,8.9,12.21,8.57,12.23,8.28Z"/><path class="cls-2" d="M12.23,8.28h.27v.91h-.27Z"/><path class="cls-8" d="M13.92,8.28v.91h-.27V8.28Z"/><path class="cls-8" d="M14.48,8.28v.91H14.2V8.28Z"/><path class="cls-3" d="M14.48,8.28c0,.29,0,.61,0,.92a1.81,1.81,0,0,1-.28,0h.27Z"/><path class="cls-3" d="M14.77,8.28v.9a1.57,1.57,0,0,0,.26,0V8.28c0,.29,0,.61,0,.92h-.28C14.76,8.9,14.74,8.57,14.77,8.28Z"/><path class="cls-8" d="M14.77,8.28H15v.91a1.57,1.57,0,0,1-.26,0Z"/><path class="cls-3" d="M15.32,8.28v.91h.27a1.81,1.81,0,0,1-.28,0C15.32,8.9,15.3,8.57,15.32,8.28Z"/><path class="cls-8" d="M15.32,8.28h.27v.91h-.27Z"/><path class="cls-8" d="M15.88,8.28h.27v.91h-.27Z"/><path class="cls-8" d="M16.43,8.28h.27v.91h-.27Z"/><path class="cls-6" d="M4.28,8.36A.72.72,0,0,1,3.9,9a5.57,5.57,0,0,0,.32-.67S4.26,8.36,4.28,8.36Z"/><path class="cls-6" d="M22.1,8.81c-.14,0-.47-.13-.37-.24A2.94,2.94,0,0,0,22.1,8.81Z"/><path class="cls-6" d="M21.27,8.82a.69.69,0,0,1-.39.49,5.11,5.11,0,0,0,.31-.54S21.25,8.79,21.27,8.82Z"/><path class="cls-6" d="M22,9.3A.33.33,0,0,1,21.76,9c.09-.12.11.06.15.14A1.57,1.57,0,0,0,22,9.3Z"/><path class="cls-6" d="M4.64,9.18a.67.67,0,0,1-.12.6c0-.17,0-.43.07-.61C4.61,9.17,4.61,9.18,4.64,9.18Z"/><path class="cls-3" d="M10.56,9.19h.28A.84.84,0,0,1,10.56,9.19Z"/><path class="cls-6" d="M21.42,9.23a.36.36,0,0,1-.06.43c0-.15,0-.29,0-.43Z"/><path class="cls-6" d="M21.69,9.26a.63.63,0,0,1,0,.62c0-.2,0-.41-.09-.6C21.66,9.27,21.66,9.25,21.69,9.26Z"/><path class="cls-4" d="M0,12H26v1.14H0Z"/><path class="cls-3" d="M0,13.12H0Z"/><path class="cls-1" d="M0,13.12H26V16H0Z"/><path class="cls-3" d="M14,11l.09.09Z"/><path class="cls-3" d="M17.25,9.55l.36-.35Z"/><path class="cls-3" d="M17.67,9.11,17.81,9Z"/><path class="cls-3" d="M18.49,8.24l.11-.11Z"/><path class="cls-3" d="M18.69,8l0,0s0,0,0-.06,0,0,.06,0Z"/><path class="cls-3" d="M18.49,7.72l.11.11A.63.63,0,0,1,18.49,7.72Z"/><path class="cls-3" d="M17.67,6.84l.14.14Z"/><path class="cls-3" d="M17.25,6.41l.36.35Z"/><path class="cls-3" d="M11.14,5.21s0,0,0,.07.2,0,.28,0a1,1,0,0,1,1,.89c-.14,0-.25-.11-.38-.16a2.11,2.11,0,0,0,.18.27.78.78,0,0,1,.1.35.67.67,0,0,1-.18-.11c0,.11.07.2.08.31s-.15-.09-.22-.12c.12.21-.1.4-.06.63A.81.81,0,0,1,11.41,7a.13.13,0,0,0-.09.14A.92.92,0,0,1,11,6.79s-.07.09-.08.14-.06,0-.08-.07a.74.74,0,0,1-.22-.36l-.12.15a.67.67,0,0,1,.06-.5c-.05,0-.14.11-.19.12A1.66,1.66,0,0,1,11.14,5.21Zm.67,1.2a.78.78,0,0,0,.41.15,1.82,1.82,0,0,0-.28-.2c-.1-.07-.17-.18-.28-.22S11.71,6.33,11.81,6.4Zm-.41-.78c-.12.11.08.2.19.25a.9.9,0,0,0,.57.09A7.19,7.19,0,0,1,11.39,5.63Zm-.44.2,0,0c0,.27-.09.56-.12.79A1,1,0,0,0,11,5.85S11,5.82,11,5.82Zm.35.51s-.08,0-.09,0a6.25,6.25,0,0,1,0,.68A.77.77,0,0,0,11.3,6.34Zm.44.73s-.09-.3-.16-.3,0,.21,0,.27a.71.71,0,0,0,.32.31C11.88,7.24,11.8,7.18,11.74,7.07Z"/><path class="cls-8" d="M21.79,6.49c-.32.15-.68.25-1,.37-.2,0-.43-.2-.66-.23a5,5,0,0,0-.65,0H17.54c.09.14.27.28.39.42.44,0,.85.05,1.26,0a7,7,0,0,0,.67-.24c.34.12.67.25,1,.36-.32.15-.68.24-1,.38-.2,0-.42-.19-.64-.23s-.67,0-1,0a5.55,5.55,0,0,0,.42.47h3.66c.27,0,.62-.06.63.18s-.38.19-.58.21a.72.72,0,0,1,.35.6s-.08-.07-.11-.09a2.77,2.77,0,0,0,.08.4S22.53,9,22.49,9a1,1,0,0,0,0,.38s-.1,0-.13-.07a1.32,1.32,0,0,0,0,.33s-.1-.09-.15-.1-.07.17-.1.26-.07,0-.08-.06a1.68,1.68,0,0,0-.25.38s-.05,0-.08,0a2.6,2.6,0,0,1-.53-.56.72.72,0,0,1-.26.18c0-.27-.21-.5-.16-.8-.06,0-.14.11-.2.11A1.53,1.53,0,0,1,21,8.17H18.91a1.45,1.45,0,0,0-.29,0c-.07,0-.2.2-.27.28a13.85,13.85,0,0,1-2,1.88,5.42,5.42,0,0,1-6.59-.07A17.64,17.64,0,0,1,7.46,8.17H5.53a1.28,1.28,0,0,1,0,.48s-.06,0-.09,0c0,.25,0,.48,0,.71,0,0,0-.06-.07-.07a1.28,1.28,0,0,0-.15.42s0,0,0-.06a2.3,2.3,0,0,0-.37.27c0,.06.06.07,0,.11a1.27,1.27,0,0,1-.29-.15c-.05,0-.06.1-.09.09-.26-.07-.22-.42-.39-.57,0,0,0,.13-.07.16s0-.12-.06-.18l0-.19s-.1.12-.13.13a3.55,3.55,0,0,1-.07-.38S3.58,9,3.55,9a1.4,1.4,0,0,1,.39-.82c-.16,0-.28,0-.43,0a.2.2,0,0,1,0-.36,1.91,1.91,0,0,1,.49,0H7a2.48,2.48,0,0,0,.49,0c.08,0,.17-.16.23-.23s.18-.16.24-.23H5.65c-.19,0-.69.08-.65-.17s.25-.1.46-.1H7.79a2.15,2.15,0,0,0,.39,0c.08,0,.17-.15.23-.21l.22-.21H6a.14.14,0,0,1,0-.25,1.28,1.28,0,0,1,.36,0h2.2a1.94,1.94,0,0,0,.37,0s.14-.11.2-.16a8.44,8.44,0,0,1,1.46-1,5.32,5.32,0,0,1,2.18-.65,5.38,5.38,0,0,1,2.66.51,7.08,7.08,0,0,1,1.85,1.3h2.13a5.85,5.85,0,0,0,.71,0c.23,0,.46-.19.67-.23ZM10.36,6.25s.14-.11.19-.12a.67.67,0,0,0-.06.5l.12-.15a.74.74,0,0,0,.22.36s0,.09.08.07,0-.15.08-.14a.92.92,0,0,0,.33.36A.13.13,0,0,1,11.41,7a.81.81,0,0,0,.54.37c0-.23.17-.42.06-.63.08,0,.15.12.22.12s-.1-.2-.08-.31a.67.67,0,0,0,.18.11.78.78,0,0,0-.1-.35A2.11,2.11,0,0,1,12.05,6c.14,0,.24.12.38.16a1,1,0,0,0-1-.89c-.08,0-.21,0-.28,0s0-.06,0-.07A1.66,1.66,0,0,0,10.36,6.25Zm2.86-1.67c-.06,0-.13,0-.19,0s-.22.22-.3.33a1.1,1.1,0,0,0-.2.45c0,.34.18.4.25.62s0,.2.07.23.25,0,.32.09.06.21.13.27.14,0,.19.08,0,.23,0,.36a1,1,0,0,0,0,.31.51.51,0,0,0,.22.49c.09,0,.21,0,.23.11s-.08.15-.15.2a.7.7,0,0,0-.36.43,2.45,2.45,0,0,1-.07.36c-.07.15-.46.3-.44.49s.28.21.42.26.44.15.42.27-.4.15-.52.18-.49.08-.48.21.2.15.28.18A3.39,3.39,0,0,1,14,11l.09.09c0,.06.06.14.11.2a6.24,6.24,0,0,0,3-1.71l.36-.35s0,0,.07-.08L17.81,9l.68-.74.11-.11s.06-.06.08-.09L18.74,8s0,0-.06,0-.06-.05-.08-.09l-.11-.11L17.81,7l-.14-.14s0,0-.07-.07l-.36-.35a5.91,5.91,0,0,0-3.9-1.83S13.26,4.59,13.22,4.58Zm8,1.76a1.84,1.84,0,0,0-.47-.16c-.18,0-.36.17-.55.19,0,0,.07.07.07.14s-.06.08-.07.12l.28.09a.94.94,0,0,0,.29.09A1,1,0,0,0,21,6.74l.67-.23A2.6,2.6,0,0,0,21.23,6.34ZM6.39,6.4c-.18,0-.49,0-.43.13s.45.06.63.06H8a4.13,4.13,0,0,0,.7,0s.07-.06.11-.09.11-.06.09-.09Zm11.12.19a3.36,3.36,0,0,0,.58,0h1.17c.18,0,.5,0,.51-.09s0-.09-.1-.1a3.47,3.47,0,0,0-.59,0H17.3S17.42,6.57,17.51,6.59Zm2.27-.18c.06,0,0,.15,0,.18C19.93,6.62,19.91,6.37,19.78,6.41Zm.12.18a.09.09,0,1,0,0-.19A.15.15,0,0,1,19.9,6.59Zm.11,0c.28.07.28-.26,0-.19A.15.15,0,0,1,20,6.59ZM9.45,6.77v.91h.27c0-.15,0-.47,0-.68a.9.9,0,0,0,0-.23S9.47,6.79,9.45,6.77Zm.55,0v.91h.27c0-.29,0-.61,0-.92A1.8,1.8,0,0,0,10,6.77Zm.55,0v.91h.28c0-.22.05-.55,0-.75s-.09-.09-.11-.14S10.59,6.76,10.56,6.77Zm1.69,0s0,.13,0,.16,0,0,0,0h0c0,.07,0,.26,0,.37a3,3,0,0,0,0,.38h.27V6.77a1.56,1.56,0,0,0-.26,0S12.24,6.78,12.25,6.78Zm7.6.09c-.19.07-.39.13-.57.21a.12.12,0,0,1,.08.14c0,.06-.07.07-.07.1.2.06.38.13.57.2.29-.12.61-.21.9-.33Zm-8.73.81h.27c0-.2,0-.42,0-.61,0,0,0,.1,0,.14s-.13-.11-.2-.16,0,0,0,0,0,.07,0,.11A5.21,5.21,0,0,0,11.12,7.68ZM5.5,7.09C5.31,7.09,5,7,5,7.2s.48.07.67.07H7.59a1.87,1.87,0,0,0,.37,0s.07-.06.1-.09.08-.07.07-.09Zm12.65.19a1.64,1.64,0,0,0,.39,0c.12,0,.31,0,.32-.07s0-.1-.1-.11c-.23,0-.55,0-.78,0C18,7.13,18.07,7.25,18.15,7.27Zm.71,0a.09.09,0,1,0,0-.19A.14.14,0,0,1,18.86,7.27Zm.11,0c.16,0,.12-.22,0-.18C19,7.13,19,7.24,19,7.27Zm.11-.18c.06,0,0,.15,0,.18C19.41,7.34,19.34,7,19.09,7.1Zm-7.42.58h.27V7.4a1.25,1.25,0,0,1-.26-.09h0A1,1,0,0,0,11.67,7.68Zm-8.12.16c-.16,0-.16.29,0,.29a2.31,2.31,0,0,0,.44,0,.33.33,0,0,1,.22,0c0-.07-.06-.1,0-.14s.1.11.17,0,0-.09,0-.11.31.1.49.11.36-.09.52,0,.08.08.13.13c.61,0,1.34,0,1.92,0,0-.06-.1-.08-.13-.15s.09-.09.13-.14c-.59,0-1.3,0-1.92,0S4.19,7.81,3.55,7.83Zm15.1,0c0,.06.1.09.13.15s-.09.09-.13.14c.74,0,1.63,0,2.4,0a2.55,2.55,0,0,1,.42-.29s0,0,0,0C20.55,7.83,19.54,7.81,18.66,7.83Zm2.88,0a.39.39,0,0,0-.06.11,1.5,1.5,0,0,1,.75.18,2.82,2.82,0,0,0,.49,0c.17,0,.17-.3,0-.29C22.35,7.82,21.92,7.82,21.54,7.83Zm-.93,1.09a.61.61,0,0,1,.2-.12c-.11.3.08.56.12.82a.39.39,0,0,0,.24-.21,2.07,2.07,0,0,0,.59.65,2.4,2.4,0,0,1,.29-.41s0,.08,0,.09.08-.17.1-.27.09.09.13.09a1.74,1.74,0,0,0,0-.35c.06,0,.07.08.12.11a1.22,1.22,0,0,1,0-.44s0,.12.11.14-.12-.28,0-.4.05.06.08.08a1,1,0,0,0-1-.72c-.06,0-.16,0-.21,0s0-.06,0-.07A1.62,1.62,0,0,0,20.61,8.92ZM4.17,9.46h0c.07.16.1.37.27.43,0,0,0-.09.09-.1a.57.57,0,0,0,.23.13c.05-.22.32-.22.41-.4h0a1.72,1.72,0,0,1,.16-.37s0,0,0,0,0-.26,0-.38,0-.24,0-.32,0,.07.09.08c0-.31,0-.56-.26-.59s-.27.06-.41,0-.28-.12-.42-.1c0,0,0,.05,0,.08a.14.14,0,0,1-.17,0s0,.09,0,.11-.28,0-.35.08a1.42,1.42,0,0,0-.3.64s.07-.08.1-.05a.9.9,0,0,0,.06.38,1.29,1.29,0,0,1,.11-.14c0,.12.07.24.1.37A.28.28,0,0,1,4,9.3.91.91,0,0,1,4.17,9.46Zm5.27-.27a1.81,1.81,0,0,0,.28,0c0-.3,0-.63,0-.92H9.45Zm.55,0a1.8,1.8,0,0,0,.28,0c0-.3,0-.63,0-.92H10Zm.55,0a.84.84,0,0,0,.28,0V8.28h-.28Zm.84,0V8.28h-.27c0,.29,0,.61,0,.92A1.79,1.79,0,0,0,11.39,9.19Zm.56,0V8.28h-.27c0,.29,0,.61,0,.92A1.8,1.8,0,0,0,11.95,9.19Zm.55,0V8.28h-.27c0,.29,0,.61,0,.92A1.8,1.8,0,0,0,12.5,9.19Z"/><path class="cls-2" d="M10.73,6.79s.09.08.11.14,0,.53,0,.75h-.28V6.77C10.61,6.77,10.7,6.75,10.73,6.79Z"/><path class="cls-3" d="M10.56,6.77s.16,0,.17,0S10.61,6.77,10.56,6.77Z"/><path class="cls-3" d="M13.65,6.77s.23,0,.27,0a1.78,1.78,0,0,1,0,.46,3.71,3.71,0,0,1,0,.46V6.77Z"/><path class="cls-3" d="M15.88,7.68c0-.28,0-.63,0-.92a1.7,1.7,0,0,1,.27,0h-.27Z"/><path class="cls-3" d="M16.43,7.68a8.63,8.63,0,0,1,0-.92,1.66,1.66,0,0,1,.27,0h-.27Z"/><path class="cls-2" d="M11.15,7c.07,0,.12.11.2.16s0-.11,0-.14c0,.18,0,.41,0,.61h-.27V7h0Z"/><path class="cls-3" d="M11.12,7.68a5.21,5.21,0,0,1,0-.53s0-.15,0-.11,0,0,0,0h0Z"/><path class="cls-6" d="M4.17,9.46c0-.07.07-.18.09-.28s0-.32.07-.33.07.05.07.13a.75.75,0,0,1-.24.49Z"/><path class="cls-3" d="M13.92,8.28a8.69,8.69,0,0,1,0,.92,1.67,1.67,0,0,1-.27,0h.27Z"/><path class="cls-3" d="M15.88,8.28v.91h.27a1.7,1.7,0,0,1-.27,0C15.86,8.92,15.86,8.57,15.88,8.28Z"/><path class="cls-3" d="M16.43,8.28v.91h.27a1.66,1.66,0,0,1-.27,0A8.6,8.6,0,0,1,16.43,8.28Z"/><path class="cls-6" d="M4.72,8.79c.12,0,.14.16.2.24s.14.16.2.24h0a.72.72,0,0,1-.2-.09A.46.46,0,0,1,4.72,8.79Z"/><path class="cls-2" d="M13.35,4.59a5.91,5.91,0,0,1,3.9,1.83l.36.35s0,0,.07.07l.14.14.68.74a.63.63,0,0,0,.11.11s.06.06.08.09,0,0,0,.06l0,0s-.06.06-.08.09l-.11.11L17.81,9l-.14.14s0,0-.07.08l-.36.35a6.24,6.24,0,0,1-3,1.71c0-.05-.06-.14-.11-.2L14,11a3.39,3.39,0,0,0-.93-.45c-.08,0-.28-.1-.28-.18s.35-.19.48-.21.5-.06.52-.18-.29-.22-.42-.27S13,9.56,13,9.41s.37-.33.44-.49a2.45,2.45,0,0,0,.07-.36.7.7,0,0,1,.36-.43c.07,0,.17-.1.15-.2s-.14-.07-.23-.11a.51.51,0,0,1-.22-.49V7c0-.13,0-.27,0-.36s-.14,0-.19-.08-.07-.21-.13-.27-.23,0-.32-.09,0-.15-.07-.23-.29-.28-.25-.62a1.1,1.1,0,0,1,.2-.45c.08-.11.2-.31.3-.33s.13,0,.19,0S13.31,4.58,13.35,4.59Zm.3,2.18v.91h.27a3.71,3.71,0,0,0,0-.46,1.78,1.78,0,0,0,0-.46S13.68,6.78,13.65,6.77Zm.55,0v.91h.27c0-.29,0-.61,0-.92A1.81,1.81,0,0,0,14.2,6.77Zm.56.91H15c0-.29,0-.61,0-.92h-.28C14.76,7.06,14.74,7.39,14.77,7.68Zm.56,0h.27V6.77a1.81,1.81,0,0,0-.28,0C15.32,7.06,15.3,7.39,15.32,7.68Zm.83-.91a1.7,1.7,0,0,0-.27,0c0,.28,0,.63,0,.92h.27Zm.55,0a1.66,1.66,0,0,0-.27,0,8.63,8.63,0,0,0,0,.92h.27ZM13.65,9.19a1.67,1.67,0,0,0,.27,0,8.69,8.69,0,0,0,0-.92h-.27Zm.55,0a1.81,1.81,0,0,0,.28,0c0-.3,0-.63,0-.92H14.2ZM15,8.28h-.26c0,.29,0,.61,0,.92H15C15,8.9,15.05,8.57,15,8.28Zm.56.91V8.28h-.27c0,.29,0,.61,0,.92A1.81,1.81,0,0,0,15.59,9.19Zm.28-.91c0,.28,0,.63,0,.92a1.7,1.7,0,0,0,.27,0V8.28Zm.56,0a8.6,8.6,0,0,0,0,.92,1.66,1.66,0,0,0,.27,0V8.28Z"/><path class="cls-2" d="M12.24,6.93s0,0,0,0,0-.12,0-.16a1.31,1.31,0,0,1,.25,0v.91h-.27C12.24,7.43,12.22,7.16,12.24,6.93Z"/><path class="cls-2" d="M11.68,7.31a1.25,1.25,0,0,0,.26.09v.27h-.27A2.8,2.8,0,0,1,11.68,7.31Z"/><path class="cls-2" d="M21.67,6.51,21,6.74a1,1,0,0,1-.22.07.94.94,0,0,1-.29-.09l-.28-.09s.06-.06.07-.12-.06-.09-.07-.14c.2,0,.37-.18.55-.19a1.84,1.84,0,0,1,.47.16A2.6,2.6,0,0,1,21.67,6.51Z"/><path class="cls-2" d="M20.76,7.18c-.29.12-.61.21-.9.33-.19-.06-.38-.14-.57-.2,0,0,.06,0,.07-.1a.12.12,0,0,0-.08-.14c.18-.08.38-.14.57-.21Z"/></g></g></svg>