<svg xmlns="http://www.w3.org/2000/svg" viewBox="0 0 27.05 16"><defs><style>.cls-1{fill:#8d1b3d;}.cls-2{fill:#fff;fill-rule:evenodd;}.cls-3{fill:#d8d8d8;}</style></defs><title>flag_634</title><g id="レイヤー_2" data-name="レイヤー 2"><g id="flag"><rect class="cls-1" x="0.07" y="0.02" width="26.92" height="15.96"/><polygon class="cls-2" points="6.94 0.02 9.61 0.91 6.87 1.86 9.64 2.7 6.84 3.58 9.61 4.46 6.81 5.3 9.61 6.25 6.87 7.19 9.61 8 6.87 8.95 9.61 9.79 6.91 10.73 9.68 11.58 6.87 12.53 9.58 13.44 6.91 14.28 9.61 15.16 6.84 15.98 0.07 15.98 0.07 0.02 6.94 0.02"/><path class="cls-3" d="M26.85.2V15.8H.2V.2H26.85m.2-.2H0V16H27.05V0Z"/></g></g></svg>