<svg xmlns="http://www.w3.org/2000/svg" viewBox="0 0 26.92 15.9"><defs><style>.cls-1{fill:#74acdf;}.cls-2{fill:#fdfefd;}.cls-3,.cls-4{fill:#eddd26;}.cls-3,.cls-5{stroke:#a06d24;stroke-width:0.1px;}.cls-5{fill:none;}</style></defs><title>flag_032</title><g id="レイヤー_2" data-name="レイヤー 2"><g id="flag"><rect class="cls-1" width="26.92" height="15.9"/><rect class="cls-2" y="5.62" width="26.92" height="5.35"/><path class="cls-3" d="M13.24,7c0,.05,0,.21.16.16s.1-.21.14-.28.21-.52.25-.65.12-.39.05-.39-.28.52-.34.63S13.24,7,13.24,7Z"/><path class="cls-3" d="M13.63,7.27c-.07,0-.13,0-.16,0s0-.23.21-.39a.72.72,0,0,0,.24-.42c0-.16.34-.42.36-.38s.06,0-.06.22a1.45,1.45,0,0,0-.19.47c-.06.2-.28.32-.31.4A.51.51,0,0,1,13.63,7.27Z"/><path class="cls-3" d="M12.76,6.93c0,.06.1.18.21.09s0-.24,0-.31,0-.56,0-.7,0-.41-.1-.38a3,3,0,0,0-.09.71C12.79,6.46,12.76,6.93,12.76,6.93Z"/><path class="cls-3" d="M12.29,7.06s.17.12.23,0-.09-.22-.11-.29-.23-.5-.3-.63-.21-.36-.25-.3a3,3,0,0,0,.22.68C12.11,6.63,12.29,7.06,12.29,7.06Z"/><path class="cls-3" d="M14,7.59a.13.13,0,0,0,0,.23c.13.07.23-.07.3-.1l.64-.27c.13-.07.37-.19.31-.23a3,3,0,0,0-.69.19Z"/><path class="cls-3" d="M14.14,8.08a.13.13,0,0,0-.09.21c.09.11.24,0,.31,0l.7,0c.14,0,.41,0,.38-.1a3,3,0,0,0-.71-.07Z"/><path class="cls-3" d="M14.09,8.58c-.05,0-.21,0-.16.17s.22.1.29.13.52.2.66.23.4.11.39,0-.52-.27-.64-.33Z"/><path class="cls-3" d="M13.86,9s-.2-.05-.21.09.16.18.21.23.4.38.51.48.32.26.34.19-.37-.46-.45-.56Z"/><path class="cls-3" d="M11.89,7.38s.2,0,.21-.1-.17-.17-.22-.23-.41-.37-.53-.46S11,6.35,11,6.42s.39.44.47.54Z"/><path class="cls-3" d="M13.65,7.21s-.05.2.09.21.18-.16.24-.21.39-.4.48-.51.26-.32.2-.34-.46.37-.56.45Z"/><path class="cls-3" d="M11.65,7.82c.05,0,.21,0,.16-.17s-.22-.1-.29-.13l-.66-.24c-.14,0-.4-.11-.39,0s.52.28.63.33Z"/><path class="cls-3" d="M13.46,9.33s-.17-.12-.23,0,.08.22.11.29.23.51.3.63.2.36.25.3a3,3,0,0,0-.22-.68C13.63,9.77,13.46,9.33,13.46,9.33Z"/><path class="cls-3" d="M13,9.48c0-.05-.1-.18-.21-.1s0,.24,0,.31,0,.56,0,.7,0,.41.08.38a3,3,0,0,0,.11-.71C13,9.95,13,9.48,13,9.48Z"/><path class="cls-3" d="M12.51,9.4c0-.05,0-.2-.17-.16s-.09.22-.12.29-.18.52-.22.66-.1.4,0,.39.26-.53.31-.64S12.51,9.4,12.51,9.4Z"/><path class="cls-3" d="M12.1,9.19S12.15,9,12,9s-.18.16-.24.21-.39.39-.49.5-.27.32-.2.33.46-.36.56-.44Z"/><path class="cls-3" d="M11.77,8.81s.13-.16,0-.23-.23.07-.3.09l-.65.26c-.13.06-.37.18-.32.22A3,3,0,0,0,11.2,9Z"/><path class="cls-3" d="M11.6,8.33c.05,0,.18-.1.1-.21s-.24,0-.31,0h-.7c-.14,0-.41,0-.38.09a3,3,0,0,0,.71.1Z"/><path class="cls-3" d="M13.83,7.42c0,.07,0,.13,0,.16s.23,0,.38-.21a.72.72,0,0,1,.42-.24c.15,0,.42-.34.37-.37s0-.06-.21.06a1.53,1.53,0,0,1-.47.2c-.2.06-.31.29-.39.31A.5.5,0,0,0,13.83,7.42Z"/><path class="cls-3" d="M14.07,8.06S14,8,14,7.91s.2-.13.43-.1a.72.72,0,0,0,.48-.1c.14-.07.54,0,.52,0s0,.06-.2.1a1.51,1.51,0,0,0-.48.17c-.19.09-.43,0-.5,0A.51.51,0,0,1,14.07,8.06Z"/><path class="cls-3" d="M14.09,8.31c-.05,0-.1.09-.09.14s.18.15.41.15a.71.71,0,0,1,.46.15c.14.09.53.09.52,0s0-.06-.19-.12a1.49,1.49,0,0,1-.46-.22c-.18-.11-.42,0-.49-.09A.52.52,0,0,0,14.09,8.31Z"/><path class="cls-3" d="M13.8,9c0-.07,0-.13,0-.16s.23,0,.38.21a.71.71,0,0,0,.42.25c.15,0,.42.34.37.37s0,.06-.21-.06a1.48,1.48,0,0,0-.47-.2c-.2-.07-.31-.29-.39-.32A.45.45,0,0,1,13.8,9Z"/><path class="cls-3" d="M13.64,9.15c-.07,0-.13,0-.16,0s0,.23.21.39a.71.71,0,0,1,.24.42c0,.16.33.42.36.38s.06,0-.06-.21A1.46,1.46,0,0,1,14,9.69c-.06-.2-.28-.32-.31-.4A.47.47,0,0,0,13.64,9.15Z"/><path class="cls-3" d="M13,9.41s.09-.09.14-.09.14.19.13.42a.72.72,0,0,0,.13.47c.08.14.07.53,0,.52s-.06,0-.11-.19a1.45,1.45,0,0,0-.21-.47c-.1-.18,0-.42-.07-.5A.49.49,0,0,1,13,9.41Z"/><path class="cls-3" d="M12.76,9.41s-.09-.09-.14-.09-.15.18-.14.42a.72.72,0,0,1-.14.46c-.09.14-.08.53,0,.52s.06,0,.12-.19a1.44,1.44,0,0,1,.22-.46c.1-.18,0-.42.08-.5A.5.5,0,0,0,12.76,9.41Z"/><path class="cls-3" d="M12.11,9.14c.07,0,.13,0,.17,0s0,.23-.19.4a.72.72,0,0,0-.22.43c0,.16-.31.44-.34.39s-.06,0,.05-.22a1.48,1.48,0,0,0,.17-.48c.05-.2.27-.33.29-.41A.55.55,0,0,1,12.11,9.14Z"/><path class="cls-3" d="M11.93,9c0-.07,0-.13,0-.16s-.23,0-.39.2a.71.71,0,0,1-.42.24c-.15,0-.42.33-.38.36s0,.06.21-.06a1.49,1.49,0,0,1,.47-.19c.2-.06.32-.28.39-.31A.46.46,0,0,0,11.93,9Z"/><path class="cls-3" d="M11.67,8.34s.09.09.08.15-.19.14-.42.13a.72.72,0,0,0-.47.13c-.14.08-.53.06-.52,0s0-.06.19-.11a1.45,1.45,0,0,0,.47-.2c.18-.1.42,0,.5-.06A.49.49,0,0,1,11.67,8.34Z"/><path class="cls-3" d="M11.67,8.07c0-.05.09-.1.08-.15s-.2-.13-.43-.1a.7.7,0,0,1-.48-.1c-.14-.07-.54,0-.52,0s0,.06.2.1A1.45,1.45,0,0,1,11,8c.19.09.43,0,.5,0A.51.51,0,0,0,11.67,8.07Z"/><path class="cls-3" d="M11.94,7.44c0,.07,0,.13,0,.16s-.23,0-.38-.22a.72.72,0,0,0-.41-.25c-.15,0-.41-.35-.37-.38s0-.06.21.07a1.45,1.45,0,0,0,.47.21c.2.07.31.29.38.32A.51.51,0,0,1,11.94,7.44Z"/><path class="cls-3" d="M12.13,7.26c.07,0,.13,0,.16,0s0-.23-.22-.38a.71.71,0,0,1-.25-.41c0-.15-.35-.41-.37-.37s-.06,0,.07.21a1.47,1.47,0,0,1,.2.47c.07.2.29.31.32.39A.51.51,0,0,0,12.13,7.26Z"/><circle class="cls-3" cx="12.86" cy="8.19" r="1.03"/><path class="cls-3" d="M12.75,7s-.09.09-.15.08-.13-.19-.12-.42a.72.72,0,0,0-.11-.47c-.08-.14,0-.54,0-.52s.06,0,.1.2a1.45,1.45,0,0,0,.19.47c.09.19,0,.43,0,.5A.48.48,0,0,1,12.75,7Z"/><path class="cls-3" d="M13,7s.09.09.15.08.13-.2.11-.42a.71.71,0,0,1,.11-.47c.07-.14,0-.54,0-.52s-.06,0-.1.2a1.46,1.46,0,0,1-.18.47c-.09.19,0,.43,0,.5A.51.51,0,0,0,13,7Z"/><path class="cls-3" d="M12.77,7.82a.49.49,0,0,0-.48-.07s-.15,0,0-.1a.63.63,0,0,1,.48.1S12.79,7.84,12.77,7.82Z"/><path class="cls-3" d="M12.92,7.79a.71.71,0,0,1,.54-.14s.2.08,0,.1-.32-.07-.48.05C13,7.8,12.89,7.86,12.92,7.79Z"/><path class="cls-4" d="M12.16,7.94l.12,0s0,.16.15.17a.22.22,0,0,0,.23-.15s.1,0,.1,0A.56.56,0,0,0,12.16,7.94Zm.36.12c-.14,0-.28,0-.18-.16a.44.44,0,0,1,.12,0s.05,0,0,.05,0,.07,0,.07.14,0,.14-.08l0,0A.17.17,0,0,1,12.52,8.06Z"/><path class="cls-5" d="M12.16,7.94l.12,0s0,.16.15.17a.22.22,0,0,0,.23-.15s.1,0,.1,0A.56.56,0,0,0,12.16,7.94Zm.36.12c-.14,0-.28,0-.18-.16a.44.44,0,0,1,.12,0s.05,0,0,.05,0,.07,0,.07.14,0,.14-.08l0,0A.17.17,0,0,1,12.52,8.06Z"/><path class="cls-4" d="M12.94,7.94s.08,0,.1,0a.22.22,0,0,0,.23.15c.17,0,.15-.14.15-.17l.12,0A.57.57,0,0,0,12.94,7.94Zm.25.12a.17.17,0,0,1-.13-.15l0,0s.08.09.13.08,0-.07,0-.07,0,0,0-.05a.43.43,0,0,1,.12,0C13.47,8,13.33,8.1,13.19,8.07Z"/><path class="cls-5" d="M12.94,7.94s.08,0,.1,0a.22.22,0,0,0,.23.15c.17,0,.15-.14.15-.17l.12,0A.57.57,0,0,0,12.94,7.94Zm.25.12a.17.17,0,0,1-.13-.15l0,0s.08.09.13.08,0-.07,0-.07,0,0,0-.05a.43.43,0,0,1,.12,0C13.47,8,13.33,8.1,13.19,8.07Z"/><path class="cls-3" d="M12.51,8.71a1.51,1.51,0,0,1,.21,0,1.08,1.08,0,0,1,.16,0c.05,0,.06,0,.14,0h.17s-.09,0-.15-.05-.1,0-.15,0a.23.23,0,0,0-.21,0Z"/><path class="cls-3" d="M12.7,8.79s.1.11.34,0C13,8.81,12.9,9.08,12.7,8.79Z"/><path class="cls-3" d="M12.69,8.3s0,.09,0,.12a.13.13,0,0,0,.11,0,.11.11,0,0,0,.15,0,.14.14,0,0,0,.12,0s0-.11,0-.12,0,.16-.1.14-.08.1-.15,0S12.64,8.48,12.69,8.3Z"/></g></g></svg>