<svg xmlns="http://www.w3.org/2000/svg" viewBox="0 0 26.93 16.13"><defs><style>.cls-1{fill:#006400;}.cls-2{fill:#ffd200;}.cls-3{fill:#d40000;}.cls-4{fill:#060203;}.cls-5{fill:#fdfefd;stroke:#000;stroke-width:0.1px;}.cls-6{fill:#040000;}.cls-6,.cls-7,.cls-8,.cls-9{fill-rule:evenodd;}.cls-7{fill:#358d39;}.cls-8{fill:#f5c025;}.cls-9{fill:#d1251a;}</style></defs><title>flag_716
</title><g id="レイヤー_2" data-name="レイヤー 2"><g id="flag"><rect class="cls-1" x="0.05" y="0.11" width="26.88" height="15.91"/><rect class="cls-2" x="0.1" y="2.82" width="26.83" height="10.27"/><rect class="cls-3" x="0.07" y="4.6" width="26.86" height="6.27"/><rect class="cls-4" x="0.09" y="6.75" width="26.84" height="2.34"/><polygon class="cls-5" points="0.05 0.11 9.17 7.95 9.17 7.95 0.05 16.02 0.05 0.11"/><path class="cls-6" d="M2.43,6.75c0-.43-.12-.88-.66-.78,0-.17.14-.22.25-.29a.47.47,0,0,1,.51-.4c.29,0,.44.3.57.48s.2.4.33.58a2.36,2.36,0,0,0,.49.4L5.48,7.9a4.36,4.36,0,0,1,.41.34l-.21,0c-.16.59-.3,1.19-.46,1.77H2.33c-.06-.24-.11-.49-.15-.74s0-.23-.07-.34c-.22-.14,0-.51,0-.69A2.28,2.28,0,0,0,2.43,6.75Zm.21-1.43A.47.47,0,0,0,2,5.7.37.37,0,0,0,1.78,6c.56-.09.63.39.67.85.33-.14.64-.3,1-.44C3.2,6.05,3,5.46,2.64,5.32ZM2.46,7.22a2.64,2.64,0,0,1-.38,1.19.51.51,0,0,0,0,.42.47.47,0,0,0,.25,0c-.08-.27.13-.42.24-.6a1.64,1.64,0,0,0,.23-.67,1.24,1.24,0,0,1-.17.6c-.11.2-.38.39-.28.68h.35c.14-.55,1-.42,1.12-.95a.92.92,0,0,1-.74-.65,1.36,1.36,0,0,0,.3.45A3.24,3.24,0,0,0,4.52,8c.44.08.92.15,1.32.19C5.08,7.59,4.2,7,3.42,6.37c-.33.14-.64.29-1,.45v.4Zm1.21,1A.45.45,0,0,0,4,7.95l-.22-.06c0,.16-.19.23-.29.33S3.63,8.23,3.67,8.23ZM4.05,8c0,.13-.16.19-.25.27A.41.41,0,0,0,4.27,8,1.1,1.1,0,0,0,4.05,8Zm-.42.44a14.34,14.34,0,0,1,1.94.2c0-.13.07-.26.1-.39C5.2,8.15,4.73,8.09,4.29,8c-.07.24-.35.27-.69.25a.17.17,0,0,0-.13,0c-.09,0-.16.09-.25.12s.07,0,.11,0h.19S3.6,8.4,3.63,8.4Zm-.48,0c-.2.08-.4.16-.44.4a.77.77,0,0,0,.18,0s.13,0,.19,0h.38s.08,0,.11,0h.15s.07,0,.1,0A11.56,11.56,0,0,1,5.46,9c0-.14.07-.25.09-.38a12.6,12.6,0,0,0-2-.2s-.08,0-.11,0H3.26A.14.14,0,0,0,3.15,8.41Zm0,.65h0c.08-.08.18-.14.25-.23a4.87,4.87,0,0,1-.51,0A.44.44,0,0,0,3,9Zm-.51-.21c-.18,0-.33,0-.5,0,.07.37.15.73.22,1.1H3a10.71,10.71,0,0,1-.12-1.12s-.11,0-.15,0S2.64,8.82,2.62,8.84ZM3.84,9s.12-.07.1-.11l-.46,0a1.53,1.53,0,0,0,.23.25A.92.92,0,0,1,3.84,9Zm-.2.35.05,0A3,3,0,0,1,4,9.13c.1.08.16.19.26.26a2.88,2.88,0,0,1,.29-.23l.23.27a2,2,0,0,1,.29-.21c.1.08.19.18.29.25s0-.12,0-.19A3,3,0,0,0,5.05,9c-.1.06-.19.14-.29.2-.06-.1-.15-.16-.21-.26a3,3,0,0,0-.3.24C4.17,9.05,4.08,9,4,8.87c-.11.07-.2.17-.3.24a2.89,2.89,0,0,1-.24-.26c-.12.07-.2.18-.31.25l0,0L3,9c-.06,0-.08-.1-.14-.12a1.54,1.54,0,0,1,0,.24,2.61,2.61,0,0,0,.27.25c.08,0,.17-.17.26-.24l.07.07ZM4,8.88c.08.07.14.17.23.24s.17-.14.25-.22A2.73,2.73,0,0,0,4,8.88Zm.54,0c.08.07.12.16.21.22S4.95,9,5,9A2,2,0,0,0,4.57,8.92Zm.84.32c0-.08,0-.14,0-.21a1.74,1.74,0,0,0-.36,0C5.21,9,5.29,9.2,5.4,9.24Zm-2-.1a.94.94,0,0,0-.22.22h.07s.12,0,.18,0h.18s0,0,0,0a1.12,1.12,0,0,0-.15-.15Zm-.52,0c0,.08,0,.13,0,.21a.83.83,0,0,0,.21,0A2.91,2.91,0,0,0,2.91,9.15Zm.92.13s-.11.06-.08.09l.43,0A1,1,0,0,0,4,9.15Zm.7-.09a1.37,1.37,0,0,0-.27.21c.16,0,.33,0,.47,0A2.58,2.58,0,0,1,4.53,9.19Zm.5.05c-.08.07-.17.13-.25.2.2,0,.39.05.56.05A3.18,3.18,0,0,0,5,9.24Zm-1.8.14H2.93c0,.2,0,.4.08.59h2.2c0-.16.09-.29.11-.46A15.12,15.12,0,0,0,3.8,9.4s-.08,0-.12,0H3.41S3.28,9.38,3.23,9.38Z"/><path class="cls-6" d="M2.4,5.54a.1.1,0,0,1,.06.18C2.34,5.78,2.25,5.55,2.4,5.54Zm.09.09a.08.08,0,0,0-.14-.05C2.29,5.74,2.49,5.74,2.49,5.63Z"/><path class="cls-7" d="M2.46,7a.67.67,0,0,1,0,.26Z"/><path class="cls-7" d="M3.53,8.22s.11,0,.14,0S3.52,8.24,3.53,8.22Z"/><path class="cls-7" d="M3.48,8.25a.17.17,0,0,1,.13,0Z"/><path class="cls-7" d="M3.23,8.37s.1,0,.11,0S3.15,8.4,3.23,8.37Z"/><path class="cls-7" d="M3.53,8.39s.09,0,.1,0S3.54,8.41,3.53,8.39Z"/><path class="cls-7" d="M3.15,8.41a.14.14,0,0,1,.11,0Z"/><path class="cls-7" d="M3.48,8.41s.09,0,.11,0S3.5,8.44,3.48,8.41Z"/><path class="cls-6" d="M3.68,8.5a.15.15,0,0,1,.12.05c.11.16-.22.3-.22.07A.12.12,0,0,1,3.68,8.5Zm-.08.1a.1.1,0,1,0,.2,0,.1.1,0,0,0-.11-.08A.08.08,0,0,0,3.6,8.6Z"/><path class="cls-6" d="M4.16,8.53a.12.12,0,0,1,.13.12.12.12,0,0,1-.24,0A.12.12,0,0,1,4.16,8.53Zm.11.12a.1.1,0,0,0-.14-.09C3.92,8.64,4.28,8.91,4.27,8.65Z"/><path class="cls-7" d="M2.88,8.81c.06,0,.15,0,.19,0S2.93,8.83,2.88,8.81Z"/><path class="cls-7" d="M3.46,8.82s.1,0,.11,0S3.48,8.84,3.46,8.82Z"/><path class="cls-7" d="M3.72,8.83s.08,0,.1,0S3.73,8.85,3.72,8.83Z"/><path class="cls-7" d="M2.62,8.84s.07,0,.1,0S2.65,8.84,2.62,8.84Z"/><path class="cls-8" d="M3.22,9.36l.22-.22.05,0a1.11,1.11,0,0,0,.15.15s0,0,0,0H3.47s-.12,0-.18,0Z"/><path class="cls-7" d="M3.29,9.36c.06,0,.14,0,.18,0S3.33,9.38,3.29,9.36Z"/><path class="cls-7" d="M3.23,9.38c.06,0,.14,0,.18,0S3.27,9.4,3.23,9.38Z"/><path class="cls-7" d="M3.68,9.39s.1,0,.12,0S3.7,9.41,3.68,9.39Z"/><path class="cls-8" d="M2.46,7V6.82c.32-.15.63-.3,1-.45C4.2,7,5.08,7.59,5.84,8.21a7.23,7.23,0,0,1-2.48-.53,3.25,3.25,0,0,1-.3-.45.92.92,0,0,0,.74.65c-.16.52-1,.39-1.12.95H2.33c-.09-.28.17-.47.28-.68a1.24,1.24,0,0,0,.17-.6,1.64,1.64,0,0,1-.23.67c-.11.19-.33.34-.24.6a.47.47,0,0,1-.25,0,.51.51,0,0,1,0-.42,2.64,2.64,0,0,0,.38-1.19A.67.67,0,0,0,2.46,7Z"/><path class="cls-7" d="M3,9l.1.1Z"/><path class="cls-8" d="M3,9a.44.44,0,0,1-.12-.13,4.87,4.87,0,0,0,.51,0c-.08.09-.17.15-.25.23h0Z"/><path class="cls-8" d="M3.71,9.09a1.53,1.53,0,0,1-.23-.25l.46,0s-.06.07-.1.11A.92.92,0,0,0,3.71,9.09Z"/><path class="cls-7" d="M3,9l.1.1Z"/><path class="cls-7" d="M3.18,9.35c.09-.07.18-.2.26-.24C3.35,9.18,3.26,9.3,3.18,9.35Z"/><path class="cls-7" d="M3.51,9.18a1,1,0,0,1,.14.14Z"/><path class="cls-8" d="M3.12,9.08l0,0c.11-.07.19-.18.31-.25a2.89,2.89,0,0,0,.24.26c.11-.07.19-.17.3-.24.07.1.16.19.24.28a3,3,0,0,1,.3-.24c.06.1.15.16.21.26C4.86,9.11,5,9,5.05,9a3,3,0,0,1,.33.31c0,.07,0,.12,0,.19s-.2-.17-.29-.25a2,2,0,0,0-.29.21l-.23-.27a2.88,2.88,0,0,0-.29.23c-.1-.07-.17-.18-.26-.26a3,3,0,0,0-.27.24l-.05,0a1,1,0,0,0-.14-.14l-.07-.07c-.08,0-.17.17-.26.24A2.61,2.61,0,0,1,2.9,9.1a1.54,1.54,0,0,0,0-.24c.06,0,.09.09.14.12Z"/><path class="cls-8" d="M5.09,9a1.74,1.74,0,0,1,.36,0c0,.07,0,.13,0,.21S5.21,9,5.09,9Z"/><path class="cls-7" d="M3.22,9.36a.94.94,0,0,1,.22-.22Z"/><path class="cls-7" d="M3.49,9.19a1.12,1.12,0,0,1,.15.15A1.11,1.11,0,0,1,3.49,9.19Z"/><path class="cls-8" d="M3.15,9.35a.83.83,0,0,1-.21,0c0-.08,0-.13,0-.21A2.91,2.91,0,0,1,3.15,9.35Z"/><path class="cls-8" d="M4,9.15a1,1,0,0,1,.22.24l-.43,0s0-.06.08-.09Z"/><path class="cls-8" d="M4.73,9.42c-.14,0-.31,0-.47,0a1.37,1.37,0,0,1,.27-.21A2.58,2.58,0,0,0,4.73,9.42Z"/><path class="cls-8" d="M5.33,9.49c-.16,0-.36-.05-.56-.05.08-.07.17-.13.25-.2A3.18,3.18,0,0,1,5.33,9.49Z"/><path class="cls-9" d="M3.1,5.76c.16-.33.33-.66.5-1,.33.64.64,1.31,1,2,.72.09,1.42.21,2.14.3-.4.31-.82.59-1.23.88L3.93,6.75a2.36,2.36,0,0,1-.49-.4C3.31,6.16,3.24,5.95,3.1,5.76Z"/><path class="cls-8" d="M2.35,5.58a.08.08,0,0,1,.14.05C2.49,5.74,2.29,5.74,2.35,5.58Z"/><path class="cls-8" d="M3.53,8.22c.11-.1.25-.17.29-.33L4,7.95a.45.45,0,0,1-.37.28S3.57,8.23,3.53,8.22Z"/><path class="cls-8" d="M2.72,8.84s.12,0,.15,0A10.71,10.71,0,0,0,3,10H2.34c-.07-.37-.15-.73-.22-1.1.17,0,.32,0,.5,0S2.71,8.86,2.72,8.84Z"/><path class="cls-9" d="M2.52,10c-.18.12-.38.22-.56.33.05-.34.14-.73.22-1.08,0,.25.1.5.15.74Z"/><path class="cls-8" d="M3.42,6.36c-.33.14-.64.3-1,.44,0-.46-.11-.94-.67-.85A.37.37,0,0,1,2,5.7a.47.47,0,0,1,.62-.38C3,5.46,3.2,6.05,3.42,6.36Zm-1-.64a.1.1,0,0,0-.06-.18C2.25,5.55,2.34,5.78,2.46,5.72Z"/><path class="cls-8" d="M4.27,8a.41.41,0,0,1-.47.23c.1-.08.21-.14.25-.27A1.1,1.1,0,0,1,4.27,8Z"/><path class="cls-8" d="M3.61,8.25c.33,0,.61,0,.69-.25.43.09.91.15,1.37.21,0,.13-.07.26-.1.39a14.34,14.34,0,0,0-1.94-.2s-.07,0-.1,0H3.34s-.1,0-.11,0,.17-.08.25-.12Z"/><path class="cls-8" d="M2.88,8.81a.77.77,0,0,1-.18,0c0-.24.24-.33.44-.4h.33s.08,0,.11,0a12.6,12.6,0,0,1,2,.2c0,.13-.07.25-.09.38a11.56,11.56,0,0,0-1.64-.17s-.07,0-.1,0H3.57s-.08,0-.11,0H3.07S2.94,8.81,2.88,8.81Zm.69-.18c0,.23.33.09.22-.07a.15.15,0,0,0-.12-.05A.12.12,0,0,0,3.58,8.62Zm.47,0a.12.12,0,0,0,.24,0,.12.12,0,0,0-.13-.12A.12.12,0,0,0,4.05,8.67Z"/><path class="cls-8" d="M3.69,8.52a.1.1,0,0,1,.11.08.1.1,0,1,1-.2,0A.08.08,0,0,1,3.69,8.52Z"/><path class="cls-8" d="M4.13,8.56a.1.1,0,0,1,.14.09C4.28,8.91,3.92,8.64,4.13,8.56Z"/><path class="cls-8" d="M4.51,8.9c-.08.08-.17.14-.25.22S4.11,8.95,4,8.88A2.73,2.73,0,0,1,4.51,8.9Z"/><path class="cls-8" d="M5,9c-.07.07-.16.12-.24.18S4.64,9,4.57,8.92A2,2,0,0,1,5,9Z"/><path class="cls-8" d="M3.8,9.4a15.12,15.12,0,0,1,1.52.11c0,.16-.07.3-.11.46H3c0-.19-.05-.39-.08-.59h.29s.12,0,.18,0h.27S3.76,9.39,3.8,9.4Z"/><path class="cls-9" d="M2.15,8.21C1.6,7.81,1,7.42.48,7c.64-.1,1.29-.2,1.94-.28A2.28,2.28,0,0,1,2.15,8.21Z"/><path class="cls-9" d="M4.68,10h.51c0,.11,0,.22.07.32A5.94,5.94,0,0,1,4.68,10Z"/></g></g></svg>