<svg xmlns="http://www.w3.org/2000/svg" viewBox="0 0 26.95 15.97"><defs><style>.cls-1{fill:#de2910;}.cls-2{fill:#fff;}</style></defs><title>flag_344</title><g id="レイヤー_2" data-name="レイヤー 2"><g id="flag"><rect class="cls-1" width="26.95" height="15.97"/><g id="petal"><path class="cls-2" d="M13.75,8a2.41,2.41,0,0,1,1.12-4.65.82.82,0,0,0-.31,1.28,1.25,1.25,0,0,1-.5,1.62A1,1,0,0,0,13.75,8Z"/><path class="cls-1" d="M13.6,5.35l-.16.25-.06-.29-.28-.07.26-.14,0-.29.22.2.27-.11-.12.27.19.23Z"/><path class="cls-1" d="M13.77,7.95A1.54,1.54,0,0,1,13,7a1.84,1.84,0,0,1,.22-1.46l-.06,0A1.91,1.91,0,0,0,13,7a1.59,1.59,0,0,0,.77,1Z"/></g><g id="petal-2" data-name="petal"><path class="cls-2" d="M13.75,8a2.41,2.41,0,0,1,4.77-.37.82.82,0,0,0-1.31.1,1.25,1.25,0,0,1-1.69,0A1,1,0,0,0,13.75,8Z"/><path class="cls-1" d="M16.21,7l-.28-.07.26-.14,0-.29.22.2.27-.11-.12.27.19.23-.29,0-.16.25Z"/><path class="cls-1" d="M13.79,8a1.54,1.54,0,0,1,.7-1,1.84,1.84,0,0,1,1.46-.25l0-.07a1.91,1.91,0,0,0-1.51.26,1.59,1.59,0,0,0-.73,1Z"/></g><g id="petal-3" data-name="petal"><path class="cls-2" d="M13.75,8a2.41,2.41,0,0,1,1.83,4.42.82.82,0,0,0-.5-1.22,1.25,1.25,0,0,1-.55-1.6A1,1,0,0,0,13.75,8Z"/><path class="cls-1" d="M15.42,10l0-.29.22.2.27-.11-.12.27.19.23-.29,0-.16.25-.06-.29-.28-.07Z"/><path class="cls-1" d="M13.76,8a1.54,1.54,0,0,1,1.16.35,1.84,1.84,0,0,1,.69,1.31h.07A1.91,1.91,0,0,0,15,8.32a1.59,1.59,0,0,0-1.22-.37Z"/></g><g id="petal-4" data-name="petal"><path class="cls-2" d="M13.75,8a2.41,2.41,0,0,1-3.64,3.1.82.82,0,0,0,1-.85,1.25,1.25,0,0,1,1.36-1A1,1,0,0,0,13.75,8Z"/><path class="cls-1" d="M12.32,10.21l.27-.11-.12.27.19.23-.29,0-.16.25-.06-.29-.28-.07.26-.14,0-.29Z"/><path class="cls-1" d="M13.72,8a1.54,1.54,0,0,1,0,1.21,1.84,1.84,0,0,1-1,1.06l0,.06a1.91,1.91,0,0,0,1.07-1.1,1.59,1.59,0,0,0,0-1.27Z"/></g><g id="petal-5" data-name="petal"><path class="cls-2" d="M13.75,8a2.41,2.41,0,0,1-4.08-2.5.82.82,0,0,0,1.12.69,1.25,1.25,0,0,1,1.38,1A1,1,0,0,0,13.75,8Z"/><path class="cls-1" d="M11.2,7.31l.19.23-.29,0-.16.25-.06-.29-.28-.07.26-.14,0-.29.22.2L11.32,7Z"/><path class="cls-1" d="M13.72,8a1.54,1.54,0,0,1-1.15.4,1.84,1.84,0,0,1-1.33-.66l-.05,0a1.91,1.91,0,0,0,1.38.68A1.59,1.59,0,0,0,13.77,8Z"/></g></g></g></svg>