<svg xmlns="http://www.w3.org/2000/svg" viewBox="0 0 26.63 15.74"><defs><style>.cls-1{fill:#d91023;}.cls-2{fill:#fdfefd;}.cls-3{fill:#e71e18;}.cls-4{fill:#135a30;}.cls-10,.cls-11,.cls-4,.cls-5,.cls-6,.cls-7,.cls-8,.cls-9{fill-rule:evenodd;}.cls-5{fill:#e4e126;}.cls-6{fill:#fff;}.cls-7{fill:#c5171e;}.cls-8{fill:#78959f;}.cls-9{fill:#841b20;}.cls-10{fill:#3c9e38;}.cls-11{fill:#2e94cb;}.cls-12{fill:#a2804c;}</style></defs><title>flag_604</title><g id="レイヤー_2" data-name="レイヤー 2"><g id="flag"><rect class="cls-1" x="0.28" y="0.16" width="26.35" height="15.58"/><rect class="cls-2" x="0.12" width="17.59" height="15.71"/><rect class="cls-3" width="9.28" height="15.66"/><path class="cls-4" d="M13.12,5.26c.07.11.12-.1.26,0-.06.24.28.19.24,0,.17,0,.16.13.3,0a.39.39,0,0,1,.14.16s0-.06.08,0h0c.07.15.26.33.24.57s-.14.34-.28.35v.1c-.16.08-.43.26-.58.06s-.07-.15,0-.22.35-.14.42-.31-.27-.26-.44-.3c.05-.08,0-.09,0-.18s-.09.11-.06.18c-.17,0-.41,0-.44.28a.34.34,0,0,0,.3.2c.07.06.19.15.14.26a.41.41,0,0,1,0,.12c-.19.14-.36,0-.54-.08a.14.14,0,0,1,0-.1.5.5,0,0,1-.28-.39c0-.22.17-.39.24-.55,0,0,.07,0,.08,0S13,5.26,13.12,5.26Z"/><path class="cls-5" d="M11.61,7.21s0,0,0,0a3.14,3.14,0,0,1,.5-.55.1.1,0,0,0,.06.06,1.17,1.17,0,0,0,1.35,0,1.2,1.2,0,0,0,1.37,0,.1.1,0,0,0,.06-.06,6.7,6.7,0,0,1,.51.49c0,.09-.11.11-.14.18a1.13,1.13,0,0,0-.12.65c.09.79.62,1.69.06,2.3-.4.44-1.26.32-1.73.71-.73-.46-1.92-.28-2-1.36,0-.64.29-1,.32-1.61C11.84,7.92,11.85,7.35,11.61,7.21Zm.46-.39a1,1,0,0,0-.32.33c.37.34.19,1.22,0,1.65h1.65V6.89A1.42,1.42,0,0,1,12.07,6.82Zm3.06.43h0c0-.05.07-.07.08-.14s-.23-.32-.34-.26a1.25,1.25,0,0,1-.52.18H14a1.89,1.89,0,0,1-.44-.12v0a18,18,0,0,0,0,1.91H15.2s0,0,0,0A3.74,3.74,0,0,1,15,7.94V7.68A1.39,1.39,0,0,1,15.13,7.25Zm-3.12,3c.41.27,1.08.2,1.49.49.39-.26,1-.24,1.41-.47s.52-.76.36-1.36H11.71A1.2,1.2,0,0,0,12,10.28Z"/><path class="cls-6" d="M13.6,6.91c0,.58,0,1.24,0,1.85a12.76,12.76,0,0,0,1.61,0s0,0,0,0H13.56a18,18,0,0,1,0-1.91Z"/><path class="cls-7" d="M16.45,7.19c-.1,0-.12-.12-.08-.2s.28.18.1.2Z"/><path class="cls-6" d="M14,7h.34A.55.55,0,0,1,14,7Z"/><path class="cls-4" d="M14.19,8.07c-.16.08-.25-.07-.36-.1-.07-.41,0-.85.52-.79.06.05.1.13.24.1a.75.75,0,0,1,.14.61.49.49,0,0,1-.4.18s-.08,0-.12,0Z"/><path class="cls-7" d="M16,7.41c-.3.19-.18-.4,0-.1v.06S16,7.39,16,7.41Z"/><path class="cls-8" d="M15,7.68v.27A.37.37,0,0,1,15,7.68Z"/><path class="cls-8" d="M14.19,8.07h0a2.56,2.56,0,0,1,0,.51Z"/><path class="cls-9" d="M14.21,8.07s.07,0,.12,0v.51c-.07,0-.08,0-.14,0v0A2.56,2.56,0,0,0,14.21,8.07Z"/><path class="cls-7" d="M16.12,8.64c-.09,0-.15,0-.18-.06s0-.1,0-.14.13,0,.16,0,0,.09,0,.14S16.13,8.62,16.12,8.64Z"/><path class="cls-7" d="M16.67,8.64c0-.06,0-.11,0-.16a.21.21,0,0,1,.18,0,.18.18,0,0,1,0,.18h-.12S16.69,8.65,16.67,8.64Z"/><path class="cls-4" d="M14.33,8.57s0,0,0,0h0a.21.21,0,0,1-.2,0C14.25,8.6,14.26,8.56,14.33,8.57Z"/><path class="cls-7" d="M15.72,10c-.06,0-.07-.08-.06-.17a.12.12,0,0,1,.22.08S15.82,10,15.72,10Z"/><path class="cls-7" d="M16.49,10.26a.22.22,0,0,1-.16,0C16.28,9.89,16.71,10.11,16.49,10.26Z"/><path class="cls-5" d="M13.89,10.32a.12.12,0,0,1-.1,0c0-.14.09-.18.22-.18S13.95,10.28,13.89,10.32Z"/><path class="cls-8" d="M16,10.63a.55.55,0,0,1,.34,0Z"/><path class="cls-7" d="M12.7,11a1,1,0,0,1,.71.35c-.25-.07-.41-.24-.71-.27h-.06S12.7,11.06,12.7,11Z"/><path class="cls-7" d="M13.42,11.75v0s-.07,0-.1,0,0-.27.06-.32h0C13.43,11.55,13.38,11.64,13.42,11.75Z"/><path class="cls-7" d="M13.6,11.4h0a.12.12,0,0,1,.1,0c0,.12,0,.26-.06.33h0C13.56,11.64,13.59,11.55,13.6,11.4Z"/><path class="cls-7" d="M14.49,11.77h-.06a.44.44,0,0,1,.38-.14h0a.82.82,0,0,0,.62,0s0,0,0,.06,0,0,0,0-.07.05-.14,0h-.2A.85.85,0,0,0,14.49,11.77Z"/><path class="cls-7" d="M14,12.07a2.13,2.13,0,0,0,.36-.1C14.33,12.05,14.11,12.07,14,12.07Z"/><path class="cls-4" d="M13.06,12a.29.29,0,0,1-.24,0Z"/><path class="cls-8" d="M16.12,7.33c.08,0,0,.19,0,.28,0-.09-.11-.13-.16-.2s0,0,0,0,.1.08.1.16S16.14,7.36,16.12,7.33Z"/><path class="cls-8" d="M10.6,10.24s.09.06.1.12-.07,0-.08-.06S10.59,10.27,10.6,10.24Z"/><path class="cls-4" d="M15.38,11.77c0-.09.14,0,.18,0s-.05.06,0,.1h0s0-.05,0-.06h-.12Z"/><path class="cls-8" d="M16.08,10.18v.06c.18-.1.17,0,0,0,0,0,0,0,0,0S16,10.2,16.08,10.18Z"/><path class="cls-4" d="M16.45,8.8s0,.05,0,.08.16-.14.2-.24,0,0,0,0-.16.17-.24.25A.18.18,0,0,1,16.45,8.8Z"/><path class="cls-8" d="M15.64,6.21c.05,0,.13.19.12,0,0,0,0,.07,0,.1S15.68,6.26,15.64,6.21Z"/><path class="cls-4" d="M16.38,10.63a.09.09,0,0,0,.06,0c-.6.58-1.71.62-2.62.88.19.12.53.32.73.12,0,.06-.12,0-.14.12s.09.05.08,0,.06,0,.12,0,.08,0,.12,0c.26.12.62.23.68.49a1.88,1.88,0,0,1-1-.3s0-.06,0-.06l-.06,0h0c-.23,0-.56,0-.72-.12s-.08.07-.14.08,0,0,0,0,0,0,0,0a.88.88,0,0,1-.34,0c.07-.05.19-.05.18-.18,0,.08.15.12.18.08h.16c.08,0,.07-.05.12-.06s.06-.24,0-.33-.08,0-.08,0h-.18v0s0,0,0,0,0-.07,0-.1v0c.08.1.06-.07.14-.08a.65.65,0,0,0-.1.2s0,0,0,0,0,0,0,0v0a2.77,2.77,0,0,1,.6-.29s0,0,.06,0,.17.12.18,0c.06.08-.07.13-.08.2a2.34,2.34,0,0,0,.5-.2,1.37,1.37,0,0,0,.22-.22,2.7,2.7,0,0,0,.38-.65c0-.07.06-.19.16-.2a.64.64,0,0,1,0,.39c.1,0,.19-.2.34-.23,0-.56-.32-1-.14-1.55.17.06.24.23.3.41.09-.12.23-.28.22-.43,0-.37-.7-.51-.61-1a.93.93,0,0,1,.5.29,2.07,2.07,0,0,1-.06-.33c0-.09,0-.26,0-.28-.29-.36-.92-.37-1-.92a.7.7,0,0,1,.42.2A1.79,1.79,0,0,1,15.3,6a1.89,1.89,0,0,1,.34.18s.07.11.14.12,0-.1,0-.1a.43.43,0,0,0,0-.18c.36.12.38.78.46,1.26.05.07.13.11.18.18a.47.47,0,0,1,.1.33c.14-.11.12-.38.32-.43a1.4,1.4,0,0,1-.16.83c-.11.2-.29.3-.22.57a.18.18,0,0,0,0,.12v.3c.07,0,.09-.06.12-.1a2.56,2.56,0,0,0,.26-.2c0,.64-.49.89-.77,1.26,0,0,0,.09,0,.12a1.41,1.41,0,0,1-.16.35c.07,0,.09,0,.16,0Zm-2.62,1.1c0,.16.2.2.36.16C14,11.79,13.88,11.77,13.76,11.73Z"/><path class="cls-9" d="M14.49,11.79s-.07,0-.08,0,.12-.06.14-.12.19-.08.26,0a.44.44,0,0,0-.38.14h.06Z"/><path class="cls-9" d="M13.54,11.81c.15.16.49.14.72.12a.78.78,0,0,1-.66-.06s0,0,0,0,0,0,0,0S13.52,11.87,13.54,11.81Z"/><path class="cls-9" d="M13.62,11.4s0,0,.08,0,0,.24,0,.33,0,.08-.12.06v0h0c.06-.07,0-.2.06-.33A.12.12,0,0,0,13.62,11.4Z"/><path class="cls-9" d="M14.17,11.1a2.77,2.77,0,0,0-.6.29v0h0A1.13,1.13,0,0,1,14.17,11.1Z"/><path class="cls-4" d="M10.42,7.15a2.14,2.14,0,0,1,.08-.51c.06.07,0,.22.08.31.08-.25.16-.52.26-.75,0,.12,0,.3.08.43a3.34,3.34,0,0,0,.24-.39,4.75,4.75,0,0,1-.08.67c.06,0,.06-.05.08-.08,0,.14-.1.35-.1.55,0,0,.13-.11.18-.16a5.16,5.16,0,0,0-.26,1c.08,0,.12-.17.18-.14A5.82,5.82,0,0,0,11,9c.08,0,.07-.13.12-.18s0,.11,0,.16a1,1,0,0,0,0,.45c0,.08,0,.2,0,.24a.4.4,0,0,0,.06-.18,8.6,8.6,0,0,0,.2,1,.21.21,0,0,0,.06.12s0-.15,0-.18v-.08c0-.07,0-.19,0-.22a1.77,1.77,0,0,0,1.09,1.16s-.07-.13,0-.18h0c-.07,0,.07.06.08,0h0a2.87,2.87,0,0,1,.66.29c-.11,0,0,.23-.08.28s-.28.07-.42.08.05,0,.06.08a2.88,2.88,0,0,1-.36-.2.37.37,0,0,0,.2-.06s0,0,.06,0a1.54,1.54,0,0,0-.56,0h0s-.1,0-.14,0a3.87,3.87,0,0,1-1.23-.23.92.92,0,0,1,.32-.08,5.11,5.11,0,0,1-.58-.39c0-.05-.08-.07-.1-.12a.09.09,0,0,1,.06,0,3.59,3.59,0,0,0,.38.16,4.48,4.48,0,0,1-.77-.89,2.83,2.83,0,0,0,.44.3s.05,0,.08.06-.06-.09-.1-.12A2.89,2.89,0,0,1,10,9.18c.09.11.16.24.26.35s.08.12.1.08-.05-.15-.12-.18a3.49,3.49,0,0,1-.34-1.14s0,.11.08.16a.67.67,0,0,0,.14.26,1,1,0,0,0,.12.24.4.4,0,0,0,.1.14.44.44,0,0,0,0-.15,4.35,4.35,0,0,1-.3-1s0-.12,0-.12c0,.17.12.31.18.47,0-.23-.06-.52-.06-.79,0-.08,0-.2,0-.24,0,.18.14.3.18.49A3,3,0,0,0,10.42,7.15ZM13,11.38c.09,0,.25.09.3,0A.48.48,0,0,0,13,11.38Z"/><path class="cls-9" d="M12.7,11.1c.3,0,.46.2.71.27h0v0h-.06c-.07.05,0,.22-.06.32s.07,0,.1,0v0l0,0s-.16,0-.18-.08v0c.1-.06,0-.27.08-.28A2.87,2.87,0,0,0,12.7,11.1Z"/><path class="cls-9" d="M12.56,11.62a2.88,2.88,0,0,0,.36.2.24.24,0,0,0,.18,0,.88.88,0,0,0,.34,0s0,0,0,0,0,0,0,0-.07.08-.1,0a.05.05,0,0,0,.06,0c-.48.12-.68-.23-1-.31h.06C12.45,11.58,12.49,11.62,12.56,11.62Z"/><path class="cls-6" d="M15.13,7.25c.19-.15-.14-.36-.24-.4.1-.06.22.2.34.26s-.06.09-.08.14Z"/><path class="cls-4" d="M16.45,7.19h0C16.42,7.48,16.39,7.42,16.45,7.19Z"/><path class="cls-10" d="M14.39,8.59l.38.1a9,9,0,0,1-1.05.06c.12-.1.35-.07.48-.16A.21.21,0,0,0,14.39,8.59Z"/><path class="cls-8" d="M14.33,8.35c.05,0,0,.2,0,.24s0,0,0,0Z"/><path class="cls-8" d="M16.12,8.64s0,0,0,0S16.25,8.92,16.12,8.64Z"/><path class="cls-7" d="M11.71,8.94h3.55c.16.6.06,1.13-.36,1.36s-1,.21-1.41.47c-.41-.28-1.08-.22-1.49-.49A1.2,1.2,0,0,1,11.71,8.94Zm1.89.18c-.06,0-.1,0-.12,0a.25.25,0,0,0-.32-.1.25.25,0,0,0-.32,0c-.09-.1-.27,0-.32.06-.13-.08-.18.08-.22.16s-.08,0-.12,0a1.57,1.57,0,0,1-.18.59c-.07.06,0,.23.08.17a.19.19,0,0,1,.24.1c.12-.1.17.11.32,0,0,.06,0,.06,0,.1s.07-.07.14-.08a.08.08,0,0,0,0,.1c.11,0,.11-.05.16-.08s.05.06.08.08.12-.08.1-.2a.09.09,0,0,1-.08,0c.06-.12-.08-.13,0-.27s0,0,.06,0c0-.29.59-.12.69,0v0c.12,0,.13.07.22.08a1.25,1.25,0,0,0,.85,0A.23.23,0,0,1,15,9.69c0-.17-.05-.25-.06-.45,0,0-.08-.08-.12,0,0-.12-.39-.21-.4,0,.24,0,.31.21.32.37s-.18.14-.26.1-.22-.1-.28-.08-.08-.13-.18-.06c0-.12-.08-.12-.16-.14a.16.16,0,0,0-.08-.16A.4.4,0,0,1,13.6,9.12Zm-.22,1.06c-.08,0,0-.08,0-.18-.25,0-.09.22-.16.32a.09.09,0,0,0,.12,0s0,0,.06,0,.35.11.38-.08c-.13,0,0-.08,0-.12s-.09,0-.14.06.08,0,.06-.12-.1,0-.16,0S13.41,10.16,13.38,10.18Zm.64-.06c-.13,0-.22,0-.22.18a.12.12,0,0,0,.1,0C14,10.31,14.12,10.19,14,10.12Z"/><path class="cls-5" d="M12,9.92a1.57,1.57,0,0,0,.18-.59s.06,0,.12,0,.09-.24.22-.16c0-.08.23-.16.32-.06a.25.25,0,0,1,.32,0,.25.25,0,0,1,.32.1s.05-.05.12,0,.08.11.22.08a.16.16,0,0,1,.08.16c.07,0,.18,0,.16.14.1-.07.08.07.18.06s.18.11.28.08.17-.08.26-.1-.08-.41-.32-.37c0-.19.39-.1.4,0,0,0,.08,0,.12,0,0,.2.08.28.06.45a.23.23,0,0,0-.14.16,1.25,1.25,0,0,1-.85,0c0-.07-.12,0-.14-.12s0,0-.08,0-.65-.25-.69,0c0,0,0,0-.06,0s.08.15,0,.27a.09.09,0,0,0,.08,0c0,.13,0,.16-.1.2s-.09,0-.08-.08-.05.11-.16.08a.08.08,0,0,1,0-.1c-.06,0-.06.09-.14.08s-.06,0,0-.1c-.15.07-.19-.14-.32,0a.19.19,0,0,0-.24-.1C12,10.08,12,10,12,9.92Z"/><path class="cls-8" d="M15.72,10c.1,0,.12,0,.16-.08s-.06.08,0,.17S15.78,10,15.72,10Z"/><path class="cls-5" d="M13.3,10.34a.09.09,0,0,1-.12,0c.07-.11-.09-.34.16-.32,0,.1,0,.14,0,.18S13.32,10.28,13.3,10.34Z"/><path class="cls-9" d="M13.87,10.9c0-.1.42-.11.34,0C14.13,10.78,14,10.88,13.87,10.9Z"/><path class="cls-7" d="M13.89,10.89c.08,0,.24-.11.32,0a.81.81,0,0,0-.68.45c0-.21.21-.3.34-.43Z"/><path class="cls-9" d="M13.54,11.34s0,0,0,0a.65.65,0,0,1,.1-.2.76.76,0,0,1,.26-.22c-.13.13-.29.22-.34.43Z"/><path class="cls-9" d="M12.78,10.94c-.05-.07.08-.06.12-.06a.94.94,0,0,1,.58.32v0C13.32,11.08,13.07,10.82,12.78,10.94Z"/><path class="cls-9" d="M14.35,11c0-.05,0,0,.06.06s-.19,0-.25,0a1.28,1.28,0,0,1,.23,0A.09.09,0,0,0,14.35,11Z"/><path class="cls-9" d="M12.6,11.08c.06,0,.05-.05.1-.06s-.05,0-.06.08h0S12.53,11.12,12.6,11.08Z"/><path class="cls-9" d="M14.85,11.62c.23,0,.56.11.66-.1,0,0,0,.08,0,.12s0,0-.06,0,0,0,0-.06A.82.82,0,0,1,14.85,11.62Z"/><path class="cls-9" d="M11.45,11.62s0-.05-.08-.06.13,0,.22,0,.24,0,.36,0C11.81,11.69,11.51,11.55,11.45,11.62Z"/><path class="cls-6" d="M15.26,11.75c.07,0,.08,0,.14,0s-.08,0,0,.06h.08c-.24.19-.64-.11-.85.06-.06,0-.08,0-.12,0v0a.85.85,0,0,1,.58,0A.23.23,0,0,0,15.26,11.75Z"/><path class="cls-9" d="M12.21,11.79c.29,0,.5.34.91.2.15,0,0,0-.06,0h-.24c-.09,0-.15-.05-.24-.06s-.18-.18-.36-.18Z"/><path class="cls-9" d="M11.83,11.91l.36-.12A.78.78,0,0,1,11.83,11.91Z"/><path class="cls-9" d="M11.57,11.91a.71.71,0,0,1-.18,0,.68.68,0,0,1,.16-.06C11.48,11.88,11.5,11.88,11.57,11.91Z"/><path class="cls-9" d="M15.5,11.77s0,0,0,.06a.93.93,0,0,1-.72,0C15,11.83,15.35,12,15.5,11.77Z"/><path class="cls-4" d="M12.23,11.79c.18,0,.25.11.36.18a2.16,2.16,0,0,1-1,.3s-.06,0-.06,0a.4.4,0,0,0,.12-.12C11.85,12,12.09,11.91,12.23,11.79Z"/><path class="cls-7" d="M13.62,11.91s0,0,0,0a.78.78,0,0,0,.66.06h0a.73.73,0,0,1-.44.08Z"/><path class="cls-9" d="M13.93,12.09s-.16,0-.2-.08,0,0,.06,0,.13,0,.18,0,.36,0,.36-.1,0,0,0,.06A1.31,1.31,0,0,1,13.93,12.09Z"/><path class="cls-6" d="M15.13,7.25a1.39,1.39,0,0,0-.12.43.37.37,0,0,0,0,.27,3.74,3.74,0,0,0,.18.81,12.76,12.76,0,0,1-1.61,0c0-.61,0-1.28,0-1.85A1.89,1.89,0,0,0,14,7a.55.55,0,0,0,.34,0,1.25,1.25,0,0,0,.52-.18C15,6.89,15.31,7.1,15.13,7.25Zm-.79.82a.49.49,0,0,0,.4-.18.75.75,0,0,0-.14-.61c-.14,0-.18-.05-.24-.1-.5-.06-.59.38-.52.79.11,0,.2.18.36.1v.53c-.12.09-.36.07-.48.16a9,9,0,0,0,1.05-.06l-.38-.1h0c-.05,0,0-.2,0-.24Z"/><path class="cls-7" d="M14.17,11.1a1.13,1.13,0,0,0-.58.27.67.67,0,0,1,.75-.33.09.09,0,0,1,0,.08C14.33,11.12,14.25,11.09,14.17,11.1Z"/><path class="cls-7" d="M13.48,11.22s.05.07,0,.1a.84.84,0,0,0-.7-.38C13.07,10.82,13.32,11.08,13.48,11.22Z"/><path class="cls-6" d="M12.76,11.56a.37.37,0,0,1-.2.06c-.08,0-.12,0-.18-.06A.72.72,0,0,1,12.76,11.56Z"/><path class="cls-6" d="M14.11,11.89c-.16,0-.33,0-.36-.16C13.88,11.77,14,11.79,14.11,11.89Z"/><path class="cls-7" d="M14.79,11.81s-.05,0-.06,0-.12,0-.12,0c.22-.17.62.13.85-.06h0C15.35,12,15,11.83,14.79,11.81Z"/><path class="cls-7" d="M11.83,11.91c-.07.06-.17,0-.26,0s-.09,0,0-.08,0,0,0,0h.08c.26.09.42-.09.62-.08s.47.34.85.27c-.42.14-.62-.22-.91-.2h0Z"/><path class="cls-6" d="M13.44,11.4h.16c0,.14,0,.24,0,.35v0h-.16l0,0c0-.11,0-.2,0-.35Z"/><path class="cls-6" d="M12.92,11.83s-.08,0-.06-.08.3-.12.42-.08v0c0,.13-.11.13-.18.18A.24.24,0,0,1,12.92,11.83Z"/><path class="cls-6" d="M13.83,12a.73.73,0,0,0,.44-.08l.06,0a2.13,2.13,0,0,1-.36.1s-.14,0-.18,0S13.81,12,13.83,12Z"/><path class="cls-7" d="M12.25,11.55h0a.1.1,0,0,0,.06,0c.36.08.55.42,1,.31a.05.05,0,0,1-.06,0c-.4.2-.68-.27-1-.29s-.58.19-.81,0c.06-.07.36.06.5,0A1.05,1.05,0,0,1,12.25,11.55Z"/><path class="cls-11" d="M13.42,6.89V8.8H11.77c.17-.42.35-1.31,0-1.65a1,1,0,0,1,.32-.33A1.42,1.42,0,0,0,13.42,6.89Z"/><path class="cls-5" d="M13.46,10.08c.06,0,.13,0,.16,0s0,.07-.06.12.06-.07.14-.06-.09.14,0,.12c0,.19-.25.13-.38.08s0-.12.1-.12S13.39,10.13,13.46,10.08Z"/><path class="cls-12" d="M12.38,8.09s0,.17,0,.2a.19.19,0,0,0,0,.24l.08.15a.08.08,0,0,1,0,0h-.07v0s0,0,0-.08a1.15,1.15,0,0,0-.11-.16s0-.05,0-.06a.71.71,0,0,0,0-.08s-.07.07-.07.09,0,.22,0,.22,0,0,0,0a.29.29,0,0,1,0,0h0l0,0,0,0V8.42s0,0,0,0a.27.27,0,0,0,.06-.06.39.39,0,0,0,0-.14s0-.14,0-.15a.28.28,0,0,1,0-.11s-.05.06,0,.12,0,0,0,0a.35.35,0,0,1,.07-.23.39.39,0,0,1,.26-.07,2.66,2.66,0,0,1,.36.08s.13,0,.14-.05,0-.31,0-.36,0-.19.1-.26A.38.38,0,0,1,13,7s0,0,0,.07l.06,0s0,.06,0,.08a1.29,1.29,0,0,0,.1.17s.07.11,0,.12a.13.13,0,0,1-.1,0l0,0a.63.63,0,0,0,0,.21,1.18,1.18,0,0,1,.09.35.55.55,0,0,1-.12.24v.44s0,0,0,0,0,0,0,0h0s0,.05,0,.05h0l0,0V8.49a.07.07,0,0,0,0-.06s0-.14,0-.15l0-.09h0a.66.66,0,0,1-.23,0C12.52,8.16,12.41,8.06,12.38,8.09Z"/></g></g></svg>