<svg xmlns="http://www.w3.org/2000/svg" viewBox="0 0 27.01 15.92"><defs><style>.cls-1{fill:#171796;}.cls-2{fill:red;}.cls-3{fill:#fdfefd;}.cls-4{fill:#c91c1d;}.cls-10,.cls-4,.cls-5,.cls-6,.cls-7,.cls-8,.cls-9{fill-rule:evenodd;}.cls-5{fill:#1d2c57;}.cls-6{fill:#efea3a;}.cls-7{fill:#fff;}.cls-8{fill:#e1cad3;}.cls-9{fill:#169ab2;}.cls-10{fill:#d9af34;}</style></defs><title>flag_191</title><g id="レイヤー_2" data-name="レイヤー 2"><g id="flag"><rect class="cls-1" x="0.1" y="0.02" width="26.89" height="15.9"/><rect class="cls-2" x="0.06" width="26.95" height="5.08"/><rect class="cls-3" y="5.08" width="26.99" height="5.66"/><path class="cls-4" d="M16.24,6.39a.39.39,0,0,1,0-.08.46.46,0,0,1,0-.13L15.66,6s0,0-.06,0l-.28-.07-.16,0c-.25,0-.48-.09-.75-.11l-.22,0-.34,0s-.11,0-.13,0h-.46s-.11,0-.16,0l-.6,0s-.07,0-.1,0l-.79.14s0,0-.07,0L11.22,6,11,6.07l-.31.1c0-.07,0,.29,0,.29,0,.4,0,.83,0,1.21V9.78a2.46,2.46,0,0,0,.09.48s0,0,0,.06a3.08,3.08,0,0,0,.33.65h0a2.93,2.93,0,0,0,2.31,1.2A2.82,2.82,0,0,0,15.8,11h0c.1-.15.18-.31.27-.47s0-.06,0-.1,0-.11.06-.16,0-.08,0-.12a1.74,1.74,0,0,0,0-.23s0-.06,0-.1Zm0,2.24c-.34,0-.72,0-1.08,0V9.8h1.08A2.49,2.49,0,0,1,15.75,11a1.7,1.7,0,0,1-.42,0h-.19a.9.9,0,0,0,0,.22v.4a2.22,2.22,0,0,1-1.09.49c0-.34,0-.73,0-1.09-.34,0-.72,0-1.08,0v.66a1.87,1.87,0,0,1,0,.44,2.69,2.69,0,0,1-1.08-.48,4.6,4.6,0,0,1,0-.52V11s0,0,0,0c-.22,0-.43.06-.6,0s-.14-.17-.18-.24a2.37,2.37,0,0,1-.3-.92h1.08c0-.36,0-.77,0-1.16-.34,0-.72,0-1.08,0,0-.36,0-.8,0-1.17h1.07c0-.36,0-.77,0-1.16a7,7,0,0,1,1.08,0h0V7.46c.34,0,.72,0,1.08,0,0-.39,0-.8,0-1.17.34,0,.72,0,1.08,0,0,.37,0,.79,0,1.18.36,0,.74,0,1.08,0A11.43,11.43,0,0,1,16.21,8.62Z"/><path class="cls-5" d="M14.2,4.18,15,3.75c.21.19.39.41.59.62,0,.15-.08.35-.11.51a.74.74,0,0,0,0,.15c0,.14-.08.27-.11.41a.45.45,0,0,0,0,.14c0,.08,0,.16-.07.23a6,6,0,0,0-1.07-.14s0,0,0,0C14.12,5.17,14.13,4.65,14.2,4.18Zm.32.29s0,0,0,.07-.06,0-.08,0,.09.09.13.07,0,0,0-.05,0,0,0,.07.06,0,.1,0,0-.07,0-.08a.07.07,0,0,1,0,.09.86.86,0,0,0,.23.05c0-.06,0-.08-.09-.09s0,.07,0,0,0-.06,0-.09h0c0-.07,0-.08-.09-.08s0,.06,0,.06,0-.06,0-.08h-.08s0,.07,0,.08S14.6,4.45,14.52,4.47Zm.46.06s.06,0,.07,0S15,4.49,15,4.52Zm-.1,0s.09,0,.08,0-.06,0-.08,0Zm.19.95h0c0-.09.1-.13.12-.2s0-.16,0-.23.1-.18.06-.27c-.08.07-.2,0-.32,0s-.35.07-.36-.11c.06,0,.11,0,.11-.09s-.1.1-.16,0,.06,0,.06-.05-.09-.07-.16-.09-.09,0-.17,0,0,.07.06.12a.36.36,0,0,0-.06.16h.1s0,.06,0,.1-.06,0-.07.09a.42.42,0,0,1-.07.37s-.07,0,0,.1a.18.18,0,0,0,.12,0V5.4c0-.06.05-.22.18-.18,0,.07,0,.19-.06.24s0,0,0,0,0,0,0,.08.11,0,.12-.08h0c0-.18.17-.32.29-.23a.27.27,0,0,0-.07.14.06.06,0,0,0-.05.08c.06,0,.15,0,.11-.07s.09-.14.18-.18,0,.18,0,.23-.06,0-.07.08S15.1,5.57,15.07,5.49Zm0-.84s.09,0,.07,0S15.07,4.6,15.08,4.65Zm-.09,0v0s.07,0,.07,0A0,0,0,0,0,15,4.63Z"/><path class="cls-4" d="M12.76,4.18h0c0,.12,0,.25,0,.36a4.42,4.42,0,0,0-1.32.2l-.09-.33h0A2.9,2.9,0,0,1,12.76,4.18Z"/><path class="cls-5" d="M14,4.27l-.08.05s0,0,0,0A.12.12,0,0,1,14,4.27Z"/><path class="cls-5" d="M13.31,4.29s0,0-.07.06h0S13.29,4.31,13.31,4.29Z"/><path class="cls-5" d="M13.61,4.3s.08,0,.08,0Z"/><path class="cls-5" d="M13,4.32s.08,0,.08,0Z"/><path class="cls-6" d="M16.31,4.37s0,.11,0,.16l.16.07c0,.05-.09.07-.12.12s0,.1,0,.17l-.13,0c-.08,0-.08.09-.16.11s0-.11,0-.16l-.18-.06c0-.07.1-.08.13-.14l0-.16a1.12,1.12,0,0,1,.17.05A.69.69,0,0,0,16.31,4.37Z"/><path class="cls-4" d="M14.66,4.52s0-.05,0-.08h.08s0,.06,0,.08,0,0,0-.06.1,0,.09.08h0s0,.06,0,.09,0,0,0,0,.11,0,.09.09a.86.86,0,0,1-.23-.05.07.07,0,0,0,0-.09s0,.05,0,.08-.05,0-.1,0,0,0,0-.07,0,.05,0,.05-.09,0-.13-.07.06,0,.08,0,0,0,0-.07S14.65,4.43,14.66,4.52Z"/><path class="cls-4" d="M15.05,4.48s0,0-.07,0S15,4.49,15.05,4.48Z"/><path class="cls-4" d="M14.89,4.49s0,0,.08,0,0,0-.08,0Z"/><path class="cls-5" d="M13.74,4.5h0s0,0,0,.06h0S13.76,4.54,13.74,4.5Z"/><path class="cls-6" d="M10.72,4.53c.05,0,.08.07.13.1s.11,0,.18-.06c-.06.15,0,.22.09.3L11,4.93c0,.07,0,.1,0,.17S10.86,5,10.8,5a1.31,1.31,0,0,1-.18.07.2.2,0,0,0-.11-.29s.11-.05.16-.08S10.7,4.58,10.72,4.53Z"/><path class="cls-5" d="M12.83,4.55a2.87,2.87,0,0,0,0,.35,3.12,3.12,0,0,0-1.27.15c0-.1-.06-.21-.09-.31A4.42,4.42,0,0,1,12.83,4.55Z"/><path class="cls-4" d="M15.15,4.61s0,0-.07,0S15.14,4.63,15.15,4.61Z"/><path class="cls-4" d="M15.06,4.64s0,0-.07,0v0A0,0,0,0,1,15.06,4.64Z"/><path class="cls-4" d="M13.63,4.65s0,.07,0,.07v0h0Z"/><path class="cls-5" d="M14.41,4.65s.06,0,.08,0S14.41,4.7,14.41,4.65Z"/><path class="cls-5" d="M15.26,4.84s0,.05-.06,0S15.22,4.83,15.26,4.84Z"/><path class="cls-5" d="M13.38,4.91s0,0-.07,0S13.38,4.87,13.38,4.91Z"/><path class="cls-4" d="M12.86,4.91c0,.13,0,.25,0,.37a7.63,7.63,0,0,0-1.2.18c0-.14-.07-.26-.1-.4A3.12,3.12,0,0,1,12.86,4.91Z"/><path class="cls-5" d="M15,4.95S15,5,15,5,15,5,15,4.95Z"/><path class="cls-5" d="M14.71,5s0,0,0,.05S14.73,5,14.71,5Z"/><path class="cls-5" d="M14.67,5s0-.06,0-.09S14.66,5,14.67,5Z"/><path class="cls-5" d="M13.33,5a.66.66,0,0,0,.15.33s.07,0,.07,0,0,.06.05.07,0,0,0,0,0,0,0,0-.1,0-.08,0-.08,0-.07,0,0,0,0-.08-.06,0-.06,0h0c0-.05,0-.15-.06-.16s0,0,0,.08,0-.16.06-.17V5S13.32,5,13.33,5Z"/><path class="cls-4" d="M15.39,5a6.62,6.62,0,0,1,1.19.37,3.29,3.29,0,0,1-.18.39,9,9,0,0,0-1.12-.35C15.31,5.29,15.36,5.16,15.39,5Zm.38.39a.85.85,0,0,0,.2.05h0s0,0,0,0h-.11c0,.07.18.07.22,0s.1,0,.13.07,0,.1,0,.1,0-.14,0-.2.26.08.28,0l-.31,0c-.1-.18-.51-.05-.6-.24-.08,0-.14,0-.16.08s.13,0,.12.07-.09,0-.16,0,.13,0,.18.05-.11,0-.12.06S15.64,5.39,15.77,5.41Z"/><path class="cls-5" d="M14.86,5s0,.08,0,.1S14.86,5.07,14.86,5Z"/><path class="cls-5" d="M13.46,5.09a0,0,0,0,0,0,0,.06.06,0,0,1-.06-.06s0,0,0,0,0,0,0,0S13.46,5.08,13.46,5.09Z"/><path class="cls-5" d="M14.74,5.18s0-.07,0-.11S14.78,5.17,14.74,5.18Z"/><path class="cls-5" d="M14.52,5.2s0-.07,0-.11S14.58,5.2,14.52,5.2Z"/><path class="cls-5" d="M15.17,5.28s-.11-.11-.11-.14S15.11,5.26,15.17,5.28Z"/><path class="cls-5" d="M16,5.47s.06,0,.08,0-.23-.11-.27,0-.23,0-.32,0,.11,0,.12-.06-.17,0-.18-.05.11,0,.16,0-.11,0-.12-.07.07-.08.16-.08c.09.19.5.06.6.24l.31,0c0,.11-.2.05-.28,0s.12.12,0,.2,0-.09,0-.1-.11,0-.13-.07-.18.06-.22,0H16s0,0,0,0Z"/><path class="cls-5" d="M12.9,5.28c0,.13,0,.25,0,.37s0,0,0,0a8.72,8.72,0,0,0-1.11.14c0-.11-.06-.24-.1-.35A7.63,7.63,0,0,1,12.9,5.28Z"/><path class="cls-4" d="M14.27,5.38l.08,0v.06a.18.18,0,0,1-.12,0C14.2,5.43,14.26,5.42,14.27,5.38Z"/><path class="cls-7" d="M16,5.45a.46.46,0,0,1-.22,0C15.87,5.4,16,5.36,16,5.45Z"/><path class="cls-8" d="M10.67,5.4s.1,0,.11,0S10.69,5.43,10.67,5.4Z"/><path class="cls-4" d="M14.79,5.4s0,0,.06,0,0,.08-.11.07A.06.06,0,0,1,14.79,5.4Z"/><path class="cls-4" d="M15,5.47l.07,0c0,.08-.09.07-.13.05S15,5.49,15,5.47Z"/><path class="cls-9" d="M15.24,5.58a.37.37,0,0,0,.11,0h0l.13,0h0l.13,0h0l.13,0h0c.11,0,.23.08.35.12h0a.29.29,0,0,0,.11,0,.93.93,0,0,1-.09.2s0,0-.06,0a5,5,0,0,0-1-.3h0C15.2,5.73,15.22,5.66,15.24,5.58Z"/><path class="cls-8" d="M13.26,5.65a2.24,2.24,0,0,1,.49,0Z"/><path class="cls-8" d="M12.94,5.67a1,1,0,0,1,.25,0A1.29,1.29,0,0,1,12.94,5.67Z"/><path class="cls-8" d="M13.82,5.65c.07,0,.16,0,.21,0S13.87,5.68,13.82,5.65Z"/><path class="cls-8" d="M13.13,5.71a4.33,4.33,0,0,1,.7,0h-.7Z"/><path class="cls-10" d="M13.09,5.72h.16S13.15,5.71,13.09,5.72Z"/><path class="cls-10" d="M13.72,5.71h.13S13.74,5.73,13.72,5.71Z"/><path class="cls-8" d="M14,6.3c.34,0,.72,0,1.08,0v0c-.33,0-.71,0-1.06,0,0,.36,0,.77,0,1.14h1.07c-.34,0-.72,0-1.08,0Z"/><path class="cls-10" d="M15.12,6.29c0,.37,0,.79,0,1.18V9.8c0,.38,0,.8,0,1.17a.9.9,0,0,0,0,.22h0V11c0-.38,0-.8,0-1.17,0,0,0,0,0,0V7.48c-.34,0-.72,0-1.08,0h0c0-.39,0-.8,0-1.17V7.46c.36,0,.74,0,1.08,0V6.29Z"/><path class="cls-7" d="M15.12,6.31V7.45H14c0-.38,0-.78,0-1.14C14.41,6.31,14.79,6.29,15.12,6.31Z"/><path class="cls-7" d="M11.88,6.31h1.06V7.46H11.87C11.88,7.08,11.86,6.67,11.88,6.31Z"/><path class="cls-10" d="M10.74,6.46h0c0,.4,0,.83,0,1.21V6.46Z"/><path class="cls-8" d="M10.74,6.72V9.65h0C10.73,8.68,10.71,7.68,10.74,6.72Z"/><path class="cls-10" d="M10.78,7.47V8.64C10.76,8.27,10.76,7.83,10.78,7.47Z"/><path class="cls-10" d="M11.87,8.64c0-.36,0-.8,0-1.17Z"/><path class="cls-4" d="M11.87,7.47H13V8.62s0,0,0,0H11.87Z"/><path class="cls-4" d="M14,7.47c.36,0,.74,0,1.08,0V8.64H14Z"/><path class="cls-8" d="M15.13,7.47c.36,0,.74,0,1.08,0V8.62c-.34,0-.72,0-1.08,0v0c.33,0,.71,0,1.06,0,0-.36,0-.77,0-1.14-.35,0-.73,0-1.07,0Z"/><path class="cls-7" d="M10.78,8.61V7.49c.33,0,.72,0,1.07,0V8.62C11.5,8.62,11.12,8.64,10.78,8.61Z"/><path class="cls-7" d="M13,7.48H14V8.62H13C13,8.25,12.95,7.84,13,7.48Z"/><path class="cls-7" d="M15.13,8.61V7.49c.33,0,.72,0,1.07,0,0,.38,0,.78,0,1.14C15.84,8.62,15.46,8.64,15.13,8.61Z"/><path class="cls-10" d="M16.21,7.48a11.43,11.43,0,0,1,0,1.14Z"/><path class="cls-4" d="M14,9.8H13V8.65s0,0,0,0H14Z"/><path class="cls-10" d="M14,8.64c0,.36,0,.8,0,1.17Z"/><path class="cls-7" d="M11.88,8.65h1.06V9.79H11.87C11.88,9.41,11.86,9,11.88,8.65Z"/><path class="cls-7" d="M15.12,8.66V9.78c-.33,0-.71,0-1.07,0V8.65C14.4,8.65,14.78,8.63,15.12,8.66Z"/><path class="cls-10" d="M10.73,9.65h0v.13h0Z"/><path class="cls-10" d="M11.85,11c0-.36,0-.8,0-1.17V11h0S11.85,11,11.85,11Z"/><path class="cls-4" d="M11.87,9.8c.36,0,.74,0,1.08,0V11H11.87Z"/><path class="cls-4" d="M15.12,11H14c0-.38,0-.8,0-1.17h1.06C15.13,10.17,15.11,10.58,15.12,11Z"/><path class="cls-7" d="M10.79,9.81h1.06V11c-.19-.05-.53.08-.63,0A2.19,2.19,0,0,1,10.79,9.81Z"/><path class="cls-7" d="M13,9.81H14V11H13C13,10.58,12.95,10.17,13,9.81Z"/><path class="cls-7" d="M15.75,11h-.6V9.81c.34,0,.72,0,1,0v0A2.63,2.63,0,0,1,15.75,11Z"/><path class="cls-10" d="M13,11c.34,0,.73,0,1.09,0v1.11c0-.34,0-.73,0-1.09C13.69,11,13.31,11,13,11Z"/><path class="cls-10" d="M15.33,11h.42A1.7,1.7,0,0,1,15.33,11Z"/><path class="cls-7" d="M11.87,11.08V11c.33,0,.72,0,1.07,0v1.09a2.8,2.8,0,0,1-1.06-.48,2.49,2.49,0,0,0,0-.36Z"/><path class="cls-7" d="M15.12,11v.16c0,.14,0,.26,0,.38s-.16.13-.22.16a2.82,2.82,0,0,1-.85.34V11c.35,0,.73,0,1.06,0C15.11,11,15.11,11,15.12,11Z"/><path class="cls-10" d="M11.86,11.08h0v.52A4.6,4.6,0,0,1,11.86,11.08Z"/><path class="cls-10" d="M13,11.64a1.87,1.87,0,0,1,0,.44Z"/><path class="cls-10" d="M16.25,6.44V9.78C16.26,8.69,16.25,7.55,16.25,6.44Z"/><path class="cls-8" d="M15.77,4.26a.89.89,0,0,1,.24-.1A.94.94,0,0,1,15.77,4.26Z"/><path class="cls-8" d="M16.06,4.14a.89.89,0,0,1,.24-.1A1.06,1.06,0,0,1,16.06,4.14Z"/><path class="cls-8" d="M16.36,4a.22.22,0,0,1,.1,0c.07.11.14.23.2.35-.08-.1-.12-.24-.21-.33S16.4,4,16.36,4Z"/><path class="cls-8" d="M16.39,5.88c.16-.37.35-.72.53-1.08-.07-.14-.16-.26-.22-.41a4,4,0,0,1,.23.4C16.77,5.17,16.58,5.53,16.39,5.88Z"/><path class="cls-7" d="M11.38,4.34h0c.22-.21.38-.47.6-.68.25.16.51.31.78.45.25-.16.46-.37.7-.54.23.19.48.37.71.55.27-.14.52-.3.77-.46.14.12.31.33.47.51s.16.21.23.12a.22.22,0,0,1,.11,0,.94.94,0,0,0,.24-.1s0,0,.06,0a1.06,1.06,0,0,0,.24-.1s0,0,.06,0,0,0,.09,0,.13.23.21.33a.15.15,0,0,1,0,.08c.06.15.15.27.22.41-.17.36-.37.7-.53,1.08a.29.29,0,0,1-.06.11s0,.13-.1.16A5.8,5.8,0,0,0,15.66,6s0,0-.06,0a.54.54,0,0,0-.28-.07l-.16,0a3.06,3.06,0,0,0-.75-.11l-.22,0a1,1,0,0,0-.34,0h0a4.33,4.33,0,0,0-.7,0h0c-.22,0-.41,0-.62,0,0,0,0,0,0,0s-.07,0-.1,0a4,4,0,0,0-.79.14s0,0-.07,0a.81.81,0,0,0-.32.08L11,6.07c-.1,0-.21.07-.32.09-.22-.46-.45-.9-.67-1.35.12-.24.26-.45.38-.69a.22.22,0,0,1,.05-.1c.11,0,.38.16.53.19S11.25,4.31,11.38,4.34Zm4,1.27s-.07,0-.09,0a.31.31,0,0,1,0-.12,8.84,8.84,0,0,1,1.11.36,3.49,3.49,0,0,0,.2-.42A10,10,0,0,0,15.41,5a.3.3,0,0,1,0-.13l.1,0h.05l.13,0A1.58,1.58,0,0,1,16,5a.8.8,0,0,0,.16.06h0s.07,0,.11,0a.91.91,0,0,1,.21.08.34.34,0,0,0,.12.06h0s0,0,0,0,.12-.22.16-.34,0-.2,0-.3a3.27,3.27,0,0,0-.21-.34,1,1,0,0,1-.1-.18l0-.08a.05.05,0,0,0,0,0h0a.37.37,0,0,0-.12.05A1.39,1.39,0,0,1,16,4.2a.35.35,0,0,0-.12.06,1.5,1.5,0,0,1-.23.09l-.1,0c-.21-.21-.4-.45-.62-.65l-.78.45C14.1,4.1,14,4,13.9,4h0a4.75,4.75,0,0,0-.39-.31h0c-.23.13-.44.37-.69.52-.27-.14-.51-.32-.8-.44-.2.22-.37.47-.58.68-.3-.11-.56-.25-.86-.36-.15.24-.29.5-.43.75a.32.32,0,0,0,.06.11s0,0,0,0a.8.8,0,0,0,.09.18s0,0,0,0a.81.81,0,0,0,.08.16s0,0,0,.06a.64.64,0,0,0,.08.15s0,0,0,0a.73.73,0,0,0,.09.18s0,0,0,0a.82.82,0,0,0,.09.18s0,0,0,0,0,.18.11.17a4.88,4.88,0,0,1,1-.3c.38-.07.77-.12,1.18-.16h0a1.29,1.29,0,0,0,.25,0h.63s.14,0,.21,0h0c.39,0,.77.08,1.12.15a5,5,0,0,1,1,.3,0,0,0,0,0,0,0,.41.41,0,0,0,.11-.22s-.08,0-.12,0h0a1.86,1.86,0,0,0-.35-.12h0l-.13,0h0l-.13,0h0a.34.34,0,0,0-.13,0Z"/><path class="cls-8" d="M15.56,4.89l-.1,0a.3.3,0,0,0,0,.13,10,10,0,0,1,1.19.38,3.49,3.49,0,0,1-.2.42,8.84,8.84,0,0,0-1.11-.36.31.31,0,0,0,0,.12s.07,0,.09,0a.37.37,0,0,1-.11,0,.45.45,0,0,1,0-.14,9,9,0,0,1,1.12.35,3.29,3.29,0,0,0,.18-.39A6.62,6.62,0,0,0,15.39,5a.74.74,0,0,1,0-.15S15.53,4.88,15.56,4.89Z"/><path class="cls-8" d="M15.61,4.91a.35.35,0,0,1,.13,0Z"/><path class="cls-8" d="M16,5a.46.46,0,0,1,.16.06A.8.8,0,0,1,16,5Z"/><path class="cls-8" d="M16.19,5.07s.08,0,.11,0S16.21,5.1,16.19,5.07Z"/><path class="cls-8" d="M16.5,5.19a.36.36,0,0,1,.12.06A.34.34,0,0,1,16.5,5.19Z"/><path class="cls-8" d="M16.64,5.25s0,0,0,0,.11-.23.18-.33c0,.12-.11.23-.16.34S16.64,5.26,16.64,5.25Z"/><path class="cls-8" d="M16.58,4.29a3.27,3.27,0,0,1,.21.34A2.89,2.89,0,0,1,16.58,4.29Z"/><path class="cls-8" d="M16.39,4.06a.05.05,0,0,1,0,0l0,.08S16.45,4,16.39,4.06Z"/><path class="cls-8" d="M16.26,4.11a.37.37,0,0,1,.12-.05A.33.33,0,0,1,16.26,4.11Z"/><path class="cls-8" d="M15.91,4.26A.35.35,0,0,1,16,4.2.32.32,0,0,1,15.91,4.26Z"/><path class="cls-8" d="M13.9,4c.09.07.2.14.29.22L15,3.73c.22.2.41.44.62.65l.1,0s-.1.06-.13,0c-.2-.2-.38-.42-.59-.62l-.76.43A1.07,1.07,0,0,1,13.9,4Z"/><path class="cls-8" d="M13.49,3.65a4.75,4.75,0,0,1,.39.31l-.39-.3Z"/><path class="cls-8" d="M11.4,4.41c.22-.21.38-.46.58-.68.29.12.53.3.8.44.25-.15.47-.38.69-.52l-.68.54h0c-.24-.15-.51-.29-.76-.44-.2.21-.38.45-.57.68h0Z"/><path class="cls-8" d="M10.11,4.8a.33.33,0,0,1,.06.11A.32.32,0,0,1,10.11,4.8Z"/><path class="cls-8" d="M10.18,4.94a.84.84,0,0,1,.09.18A.8.8,0,0,1,10.18,4.94Z"/><path class="cls-8" d="M10.27,5.15a.54.54,0,0,1,.08.16A.81.81,0,0,1,10.27,5.15Z"/><path class="cls-8" d="M10.37,5.36a.5.5,0,0,1,.08.15A.64.64,0,0,1,10.37,5.36Z"/><path class="cls-8" d="M10.46,5.54a.84.84,0,0,1,.09.18A.73.73,0,0,1,10.46,5.54Z"/><path class="cls-8" d="M10.56,5.75a.84.84,0,0,1,.09.18A.82.82,0,0,1,10.56,5.75Z"/><path class="cls-8" d="M10.66,6s0,.14.11.17S10.69,6,10.66,6Z"/><path class="cls-8" d="M11.75,5.83s.05,0,0,0a8.72,8.72,0,0,1,1.11-.14h0C12.53,5.71,12.13,5.76,11.75,5.83Z"/><path class="cls-8" d="M14.06,5.67h0a6,6,0,0,1,1.07.14h0C14.83,5.75,14.45,5.7,14.06,5.67Z"/><path class="cls-8" d="M16.19,6.12s0,0,.06,0a.93.93,0,0,0,.09-.2.29.29,0,0,1-.11,0s.07,0,.12,0a.41.41,0,0,1-.11.22A0,0,0,0,1,16.19,6.12Z"/><path class="cls-8" d="M15.82,5.75a1.86,1.86,0,0,1,.35.12C16.06,5.84,15.93,5.8,15.82,5.75Z"/><path class="cls-8" d="M15.65,5.7l.13,0Z"/><path class="cls-8" d="M15.5,5.65l.13,0Z"/><path class="cls-8" d="M15.36,5.61a.34.34,0,0,1,.13,0Z"/><path class="cls-8" d="M15.33,5.92A.54.54,0,0,1,15.6,6Z"/><path class="cls-8" d="M14.41,5.76a3.06,3.06,0,0,1,.75.11C14.91,5.84,14.68,5.78,14.41,5.76Z"/><path class="cls-8" d="M12.5,5.76s0,0,0,0c.21,0,.4,0,.62,0h0Z"/><path class="cls-8" d="M11.61,5.92a4,4,0,0,1,.79-.14Z"/><path class="cls-8" d="M11.22,6a.81.81,0,0,1,.32-.08Z"/><path class="cls-8" d="M10.43,4.11c-.11.24-.26.45-.38.69.22.45.45.9.67,1.35.11,0,.22-.09.32-.09l-.31.1c-.25-.43-.47-.91-.69-1.36C10.17,4.57,10.3,4.34,10.43,4.11Z"/><path class="cls-8" d="M10.49,4s0,0,0,0A4.38,4.38,0,0,1,11,4.2C10.86,4.17,10.6,4,10.49,4Z"/><path class="cls-8" d="M11.38,4.34c.2-.22.39-.46.58-.68.29.13.53.31.8.45.24-.17.45-.37.69-.54.25.17.49.37.73.55.27-.15.52-.31.77-.46.24.2.41.46.64.66,0,0,0,0,.07,0s-.17-.06-.23-.12-.33-.39-.47-.51c-.25.16-.5.32-.77.46-.24-.18-.48-.36-.71-.55-.25.17-.45.38-.7.54-.27-.14-.53-.29-.78-.45-.22.21-.38.47-.6.68Z"/><path class="cls-9" d="M13.9,4a1.07,1.07,0,0,0,.31.22c-.07.47-.09,1-.14,1.47,0,0,0,0,0,0H14s-.14,0-.21,0h-.07a2.24,2.24,0,0,0-.49,0h-.07a1,1,0,0,0-.25,0h0s0,0,0,0,0-.24,0-.37,0-.25,0-.37a2.87,2.87,0,0,1,0-.35c0-.12,0-.24,0-.36l.68-.54h0l.39.3Zm0,.36s0,0,0,0a.09.09,0,0,0-.08-.07.54.54,0,0,1-.05.08h0s-.06-.06-.08,0h0c0,.06.06.05,0,.12s0,0,0,.08-.07.09-.05.16,0,0,0,0,0,.08,0,.07h0s0,0,0,0,0,0,.05,0h0a.13.13,0,0,0,.11,0s0,0,0,0h0s0-.09.09-.07,0-.08.07-.13,0,0,0-.05a.32.32,0,0,0-.1-.15c0-.06.06-.08,0-.12a.12.12,0,0,0-.09,0S13.88,4.31,13.87,4.32Zm-.63,0s0,0,0,0,0,0-.07-.07,0,.05-.05.08h0S13,4.3,13,4.32s0,.06,0,.11-.05,0,0,.09-.05,0-.08.05,0,.08,0,.1.05,0,.06.09.06,0,.09,0,0,0,.07,0,.08,0,.11,0,0,0,0,0h0s0-.08.08-.05.09-.12,0-.19,0-.12-.1-.15,0-.07,0-.12h0s-.08,0-.08.06Zm.41.49s-.1,0-.09.05,0,0,0,0v0s0,0-.08,0,0,.07-.07.08,0,0,0,0,0,0-.07,0h0c0,.06.06.08,0,.12s0,0,0,0v.07c-.08,0-.09.12-.06.17h0s0,.07.08.07h0s0,0,0,0,0,0,.07,0,.05,0,.1,0,0,0,0,0h0s0-.06,0-.07,0,0,0,0,.1-.12,0-.19a.67.67,0,0,0-.1-.16c0-.06,0-.06,0-.11Z"/><path class="cls-5" d="M11.43,4.42c.19-.23.37-.47.57-.68.25.15.51.29.76.44A2.9,2.9,0,0,0,11.43,4.42Z"/><path class="cls-9" d="M15.55,4.37s.1,0,.13,0a1.5,1.5,0,0,0,.23-.09A.32.32,0,0,0,16,4.2a1.39,1.39,0,0,0,.23-.09.33.33,0,0,0,.12-.05h0c.06,0,.05,0,.09.05a1,1,0,0,0,.1.18,2.89,2.89,0,0,0,.21.34c0,.09.13.19,0,.3s-.11.23-.18.33,0,0,0,0h0a.36.36,0,0,0-.12-.06.91.91,0,0,0-.21-.08s-.07,0-.11,0h0A.46.46,0,0,0,16,5a1.58,1.58,0,0,0-.27-.08.35.35,0,0,0-.13,0h-.05s-.09,0-.12,0C15.47,4.71,15.58,4.52,15.55,4.37Zm.63.1A1.12,1.12,0,0,0,16,4.41l0,.16c0,.06-.11.07-.13.14l.18.06c0,.05,0,.11,0,.16s.08-.1.16-.11l.13,0c0-.07,0-.1,0-.17s.09-.07.12-.12l-.16-.07s0-.13,0-.16A.69.69,0,0,1,16.18,4.47Z"/><path class="cls-6" d="M13.87,4.32,14,4.27s0,.06,0,.12,0,.11,0,.18-.1.11-.1.18h-.07c-.06-.11-.15-.19-.13-.32s0-.06,0-.12h0l.08,0h0a.54.54,0,0,0,.05-.08.09.09,0,0,1,.08.07S13.87,4.34,13.87,4.32Zm-.15.23h0s0,0,0-.06h0S13.71,4.52,13.72,4.55Zm.14,0,0,0s-.07,0-.08,0S13.82,4.56,13.86,4.54Z"/><path class="cls-6" d="M13.25,4.34s.05,0,.07-.06h0c0,.05,0,.06,0,.12s0,0,0,0a.29.29,0,0,1,0,.17c-.09,0,0,.18-.17.17a1,1,0,0,0-.13-.2c0-.06,0-.08,0-.13s-.07-.07,0-.11l.08,0h0s0,0,.05-.08.08,0,.07.07S13.25,4.36,13.25,4.34Zm-.13.23a.33.33,0,0,1,0-.05s-.08,0-.09,0S13.08,4.58,13.12,4.58Zm.12,0s0,0,0,0,0,0,0,0v0s0,0,0,0S13.2,4.57,13.24,4.56Z"/><path class="cls-10" d="M13.9,4.8s0,0,0-.05,0-.06.07,0,0-.16.1-.15,0,0,0,.05-.06.07-.07.13-.06,0-.09.07Z"/><path class="cls-5" d="M13.93,4.39a.32.32,0,0,1,.1.15c-.09,0-.1.06-.1.15s-.07,0-.07,0,0,0,0,.05,0,0,0,0,0,0,0,0-.09,0-.09,0h0s-.08,0-.05,0,0-.08,0-.09,0,0,0,0,0-.07,0-.07,0-.09-.07-.08,0,.08,0,.08,0-.13.05-.16,0-.09,0-.08.07.21.13.32h.07c0-.06.09-.11.1-.18S13.89,4.44,13.93,4.39Z"/><path class="cls-5" d="M13.3,4.41c.05,0,.07.1.1.15s-.1.06-.1.15,0,0-.07,0,0,.07,0,.08,0,0,0,0,0,0,0,0-.07,0-.09,0-.07,0-.07,0,0,0,0-.07-.05,0-.08,0,0-.13-.07-.13,0,.07,0,.08,0-.08,0-.1,0-.06.08-.05,0-.08,0-.09,0,.07,0,.13a1,1,0,0,1,.13.2c.13,0,.08-.14.17-.17a.29.29,0,0,0,0-.17S13.3,4.42,13.3,4.41Z"/><path class="cls-10" d="M13.65,4.72s0,0,0,0,0,.08,0,.09,0,0,0,0Z"/><path class="cls-10" d="M12.92,4.67s0-.07,0-.08.06.07.07.13.07,0,.08,0,0,.06,0,.07,0-.06-.09,0S12.94,4.72,12.92,4.67Z"/><path class="cls-5" d="M13.81,4.51s.05,0,.08,0l0,0S13.85,4.5,13.81,4.51Z"/><path class="cls-5" d="M13.18,4.53s0,0,0,0v0s0,0,0,0,0,0,0,0S13.21,4.53,13.18,4.53Z"/><path class="cls-4" d="M14.47,5.47s.06,0,.08,0,0,.09-.12.08,0-.08,0-.08S14.45,5.47,14.47,5.47Z"/><path class="cls-5" d="M13.56,4.89s.07-.07.09-.05S13.6,4.88,13.56,4.89Z"/><path class="cls-5" d="M13.63,4.95a.67.67,0,0,1,.1.16c-.07,0-.14.07-.1.15s-.06,0-.07,0,.15-.2,0-.31S13.64,5,13.63,4.95Z"/><path class="cls-10" d="M13.46,5.37s.05,0,.08,0,0,0,0,0S13.48,5.4,13.46,5.37Z"/><path class="cls-10" d="M13.35,5.31s0,0,.06,0,0,.08,0,.08S13.37,5.32,13.35,5.31Z"/><path class="cls-10" d="M13.25,5.22s0-.07,0-.08.08.1.06.16,0-.06-.08-.07Z"/><path class="cls-5" d="M15.08,5s0,.07.09.08,0,0-.07,0A.19.19,0,0,0,15.08,5Z"/><path class="cls-4" d="M13.47,5.07s0,0,0,0a.28.28,0,0,0,.12,0c0,.07-.06,0-.11,0l0,0S13.47,5.08,13.47,5.07Z"/><path class="cls-8" d="M11.07,5.38a1.25,1.25,0,0,0,.38-.3v.05s0,0,0,0A.78.78,0,0,1,11.07,5.38Z"/><path class="cls-8" d="M10.6,5.39h0c0,.08.13.16.21.21a.39.39,0,0,1-.23-.22h0Z"/><path class="cls-8" d="M11.23,5.57a1.18,1.18,0,0,0,.16-.17A.39.39,0,0,1,11.23,5.57Z"/><path class="cls-8" d="M15.77,5.41c0-.06.28-.05.27,0s0,0-.08,0A.85.85,0,0,1,15.77,5.41Zm0,0a.46.46,0,0,0,.22,0C16,5.36,15.87,5.4,15.8,5.41Z"/><path class="cls-8" d="M10.74,9.78a2.46,2.46,0,0,0,.09.48h0a1.47,1.47,0,0,1-.1-.5Z"/><path class="cls-10" d="M11.86,6.31a7,7,0,0,1,1.08,0C12.58,6.31,12.2,6.29,11.86,6.31Z"/><path class="cls-8" d="M16.15,10.23a.21.21,0,0,1-.06.16C16.11,10.34,16.14,10.29,16.15,10.23Z"/><path class="cls-8" d="M16.23,9.88a.33.33,0,0,1,0,.23A1.74,1.74,0,0,0,16.23,9.88Z"/><path class="cls-8" d="M11.86,6.31c.34,0,.72,0,1.08,0h0V7.46c.34,0,.72,0,1.08,0h0V8.64h1.08v0c-.33,0-.71,0-1.07,0V9.79c.35,0,.74,0,1.07,0,0,0,0,0,0,0H14c0,.37,0,.78,0,1.17h1.08V11s0,0,0,0c-.33,0-.71,0-1.06,0v1.1a2.82,2.82,0,0,0,.85-.34c.06,0,.2-.11.22-.16s0-.24,0-.38h0v.4a2.22,2.22,0,0,1-1.09.49V11c-.36,0-.75,0-1.09,0v1.1a2.69,2.69,0,0,1-1.08-.48v-.38a2.49,2.49,0,0,1,0,.36,2.8,2.8,0,0,0,1.06.48V11c-.35,0-.73,0-1.07,0v.09h0V11H13V9.81c-.34,0-.72,0-1.08,0,0,.36,0,.8,0,1.17-.22,0-.43.06-.6,0s-.14-.17-.18-.24a2.37,2.37,0,0,1-.3-.92h1.08c0-.36,0-.77,0-1.16-.34,0-.72,0-1.08,0v0c.33,0,.72,0,1.07,0V7.48c-.35,0-.73,0-1.07,0v0h1.07C11.87,7.11,11.85,6.7,11.86,6.31Zm0,2.32h1.07s0,0,0,0V7.47H11.87C11.85,7.83,11.85,8.27,11.87,8.64Zm0-1.18h1.07V6.31H11.88C11.86,6.67,11.88,7.08,11.87,7.46ZM14,9.8c0-.36,0-.8,0-1.17H13s0,0,0,0V9.8ZM13,8.62H14V7.48H13C12.95,7.84,13,8.25,13,8.62ZM11.87,9.79h1.07V8.65H11.88C11.86,9,11.88,9.41,11.87,9.79Zm-.65,1.14c.09.1.44,0,.63,0V9.81H10.79A2.19,2.19,0,0,0,11.22,10.94ZM13,11H14V9.81H13C12.95,10.17,13,10.58,13,11Z"/><path class="cls-8" d="M15.13,9.8h1.08A2.49,2.49,0,0,1,15.75,11h-.6C15.11,10.6,15.13,10.19,15.13,9.8Zm1.06.05v0c-.33,0-.7,0-1,0V11h.6A2.63,2.63,0,0,0,16.19,9.86Z"/><path class="cls-9" d="M11.42,4.42l.09.33c0,.1.05.21.09.31s.07.26.1.4.06.24.1.35-.05,0,0,0a4.88,4.88,0,0,0-1,.3c-.07,0-.06-.12-.11-.17s0,0,0,0a.84.84,0,0,0-.09-.18s0,0,0,0a.84.84,0,0,0-.09-.18s0,0,0,0a.5.5,0,0,0-.08-.15s0,0,0-.06a.54.54,0,0,0-.08-.16s0,0,0,0a.84.84,0,0,0-.09-.18s0,0,0,0a.33.33,0,0,0-.06-.11c.14-.25.28-.5.43-.75.29.11.56.25.86.36Zm-.74.28c-.05,0-.13,0-.16.08a.2.2,0,0,1,.11.29A1.31,1.31,0,0,0,10.8,5c.06,0,.09.08.16.1s0-.1,0-.17l.14-.05C11,4.79,11,4.72,11,4.58c-.07,0-.11,0-.18.06s-.08-.07-.13-.1S10.7,4.65,10.68,4.7Zm.76.44V5.08a1.25,1.25,0,0,1-.38.3l-.29,0s-.07,0-.11,0,0,0-.08,0h0a.39.39,0,0,0,.23.22.49.49,0,0,0,.45,0,.39.39,0,0,0,.16-.17A.39.39,0,0,0,11.44,5.14Z"/><path class="cls-6" d="M14.27,5.38A.42.42,0,0,0,14.34,5s.05-.05.07-.09,0-.05,0-.1h-.1a.36.36,0,0,1,.06-.16c0-.05-.07,0-.06-.12s.11.05.17,0,.09.07.16.09-.05,0-.06.05.09,0,.16,0-.05.08-.11.09c0,.18.2.13.36.11s.24,0,.32,0c0,.1,0,.2-.06.27s0,.16,0,.23-.11.11-.12.2h0l-.07,0c0-.06.11-.19,0-.23s-.1.13-.18.18,0,0-.06,0a.27.27,0,0,1,.07-.14c-.12-.09-.3.05-.29.23h0s-.08,0-.08,0,0-.18.06-.24c-.12,0-.13.11-.18.18Zm.22-.71s0,0-.08,0S14.48,4.69,14.49,4.66Zm.71.22s0,0,.06,0S15.2,4.84,15.21,4.88ZM15,5s0-.12,0-.08S15,5.06,15,5Zm-.26,0s0-.09,0-.05S14.72,5.06,14.76,5ZM14.62,5s0,.09,0,.09S14.66,5,14.62,5Zm.48.16s.06,0,.07,0S15.11,5,15.08,5A.19.19,0,0,1,15.11,5.13Zm-.25,0s0-.08,0-.1S14.82,5.11,14.86,5.14Zm-.07-.07s0,.06,0,.11S14.82,5.11,14.79,5.07Zm-.27,0s0,.09,0,.11S14.55,5.1,14.51,5.09Zm.55,0s.06.19.11.14S15.12,5.16,15.06,5.14Z"/><path class="cls-6" d="M13.38,4.91s0,0,0,0,0-.05.07-.08,0,0,.08,0v0s0,0,0,0,0,0,.09-.05h0s0,0,0,.11,0,0,0,0-.06.23,0,.31,0,0,.07,0,0-.18.1-.15,0,.12,0,.19,0,0,0,0,0,0,0,.07h0s0-.06-.05-.07,0,0-.07,0A.66.66,0,0,1,13.33,5s0-.06,0-.12h0S13.34,4.91,13.38,4.91Zm.08.19,0,0s.08.05.11,0a.28.28,0,0,1-.12,0s0,0,0,0,0,0,0,0,0,0,0,0a.06.06,0,0,0,.06.06A0,0,0,0,1,13.46,5.09Z"/><path class="cls-7" d="M11.44,5.14a.39.39,0,0,1,0,.26,1.18,1.18,0,0,1-.16.17.49.49,0,0,1-.45,0c-.08,0-.2-.12-.21-.21h0s.06,0,.08,0,.08,0,.11,0l.29,0a.78.78,0,0,0,.36-.29S11.43,5.13,11.44,5.14Z"/><path class="cls-8" d="M13.85,5.71a1,1,0,0,1,.34,0l-.34,0Z"/><path class="cls-10" d="M13.27,4.81s0,0,0-.08,0,0,.07,0,0-.16.1-.15,0,.13,0,.19-.05,0-.08.05Z"/><path class="cls-10" d="M13.55,4.65s0-.08,0-.08,0,0,.07.08v.09s0,0,0-.07S13.55,4.68,13.55,4.65Z"/><path class="cls-10" d="M13.75,4.8s.07,0,.09,0,0,0,0,0A.13.13,0,0,1,13.75,4.8Z"/><path class="cls-10" d="M13.13,4.82c0-.05.05,0,.09,0s0,0,0,0S13.15,4.84,13.13,4.82Z"/><path class="cls-5" d="M13.06,4.53s.06,0,.09,0a.33.33,0,0,0,0,.05S13.08,4.54,13.06,4.53Z"/></g></g></svg>