<svg xmlns="http://www.w3.org/2000/svg" viewBox="0 0 26.89 16.09"><defs><style>.cls-1{fill:#002395;}.cls-2{fill:#fecb00;}.cls-3{fill:#fff;}</style></defs><title>flag_070</title><g id="レイヤー_2" data-name="レイヤー 2"><g id="flag"><rect class="cls-1" y="0.08" width="26.89" height="15.9"/><polygon class="cls-2" points="20.86 0.04 21.11 15.96 5.49 0.1 20.86 0.04"/><polygon class="cls-3" points="10.16 7.52 10.6 6.58 11.08 7.5 12.11 7.63 11.38 8.37 11.57 9.39 10.64 8.93 9.73 9.43 9.89 8.4 9.13 7.69 10.16 7.52"/><polygon class="cls-3" points="12.45 9.98 12.9 9.04 13.37 9.96 14.4 10.1 13.67 10.83 13.87 11.85 12.94 11.39 12.03 11.89 12.19 10.86 11.43 10.15 12.45 9.98"/><polygon class="cls-3" points="14.91 12.44 15.36 11.5 15.83 12.42 16.86 12.55 16.13 13.29 16.33 14.31 15.4 13.85 14.49 14.35 14.65 13.32 13.89 12.61 14.91 12.44"/><path class="cls-3" d="M16.8,16.05l.56,0a8.15,8.15,0,0,1,1,.07l0-.22.73-.74L18,15l-.47-.92-.44.94-1,.17.76.71Z"/><polygon class="cls-3" points="7.53 4.9 7.98 3.96 8.45 4.88 9.48 5.01 8.76 5.75 8.95 6.77 8.02 6.3 7.11 6.8 7.27 5.78 6.51 5.07 7.53 4.9"/><polygon class="cls-3" points="5.07 2.44 5.52 1.5 5.99 2.42 7.03 2.55 6.29 3.29 6.49 4.31 5.56 3.84 4.65 4.34 4.81 3.32 4.05 2.61 5.07 2.44"/><path class="cls-3" d="M4.16,0c-.25,0-.5,0-.75,0S3,0,2.78,0L1.92.15l.76.71-.16,1,.91-.5.93.47-.2-1L4.89.09Z"/></g></g></svg>