<svg xmlns="http://www.w3.org/2000/svg" viewBox="0 0 27.05 16"><defs><style>.cls-1,.cls-3{fill:#fdfefd;}.cls-2{fill:#e71e18;}.cls-3{fill-rule:evenodd;}.cls-4{fill:#d8d8d8;}</style></defs><title>flag_702</title><g id="レイヤー_2" data-name="レイヤー 2"><g id="flag"><rect class="cls-1" x="0.15" y="0.04" width="26.89" height="15.9"/><rect class="cls-2" x="0.14" y="0.04" width="26.89" height="8.04"/><path class="cls-3" d="M5.22.81a3.66,3.66,0,0,0-2,3.1A3.73,3.73,0,0,0,5.29,7.34s-3.8.22-3.83-3.28S5.22.81,5.22.81Z"/><polygon class="cls-3" points="7.92 2.99 7.4 2.69 6.91 2.99 7.08 2.45 6.7 2.09 7.21 2.07 7.42 1.51 7.61 2.08 8.17 2.07 7.73 2.46 7.92 2.99"/><polygon class="cls-3" points="6.07 4.3 5.55 4 5.06 4.3 5.23 3.76 4.86 3.4 5.37 3.38 5.58 2.82 5.77 3.39 6.32 3.38 5.88 3.77 6.07 4.3"/><polygon class="cls-3" points="6.82 6.47 6.3 6.17 5.81 6.47 5.98 5.93 5.61 5.57 6.11 5.55 6.32 4.99 6.51 5.56 7.07 5.55 6.63 5.94 6.82 6.47"/><polygon class="cls-3" points="9.08 6.49 8.55 6.2 8.06 6.49 8.24 5.95 7.86 5.59 8.37 5.57 8.58 5.01 8.77 5.58 9.32 5.57 8.88 5.97 9.08 6.49"/><polygon class="cls-3" points="9.76 4.46 9.24 4.16 8.75 4.46 8.92 3.92 8.55 3.56 9.05 3.54 9.27 2.98 9.46 3.55 10.01 3.54 9.57 3.94 9.76 4.46"/><path class="cls-4" d="M26.85.2V15.8H.2V.2H26.85m.2-.2H0V16H27.05V0Z"/></g></g></svg>