<svg xmlns="http://www.w3.org/2000/svg" viewBox="0 0 26.5 15.62"><defs><style>.cls-1{fill:#009543;}.cls-2{fill:#00209f;}.cls-3{fill:#fff;}.cls-4{fill-rule:evenodd;}</style></defs><title>flag_426</title><g id="レイヤー_2" data-name="レイヤー 2"><g id="flag"><rect class="cls-1" y="0.06" width="26.5" height="15.56"/><rect class="cls-2" width="26.5" height="5.53"/><rect class="cls-3" y="4.92" width="26.5" height="6.03"/><path class="cls-4" d="M15.7,9.08l-.2.12L14.33,7.63a3.38,3.38,0,0,0,.34-1.4c0-.7-.5-1-.79-1,0,0-.22-.29-.37,0a1.08,1.08,0,0,0-.81,1.07,3.48,3.48,0,0,0,.37,1.33L11.93,9.19l-.19-.09-.43.9a5.26,5.26,0,0,0,2.4.6,5,5,0,0,0,2.42-.65Zm-1.53-1.7L14,7.21V6.6l.26,0-.34-.32,0-.76C14.88,5.69,14.17,7.38,14.17,7.38ZM13.49,5.5l0,.79-.33.32.25,0v.54l-.2.23S12.53,5.89,13.49,5.5Zm-1.64,4,.1.23-.23.05Zm-.09.4L12,9.8,12,10Zm.35-.41.32.14.06.16-.28.06Zm.23.62-.06-.16.26-.07.16.33A1.71,1.71,0,0,1,12.33,10.09Zm.34-.42c0,.05.32,0,.32,0l.08.14-.26.14Zm.25.57-.07-.12.28-.12s.21.31.21.31Zm.37-.47h.51v.1l-.36.16Zm.29.51-.07-.13.38-.14.2.25ZM14,9.76l.37-.05.07.13-.31.16Zm.28.47-.08-.13.33-.15.18.2Zm.34-.53L15,9.59l.08.1-.25.21Zm.28.41L14.89,10l.27-.18.18.21Zm.28-.59.28-.13.07.12-.18.23Zm.28.3.14-.19.09.19-.2.08Z"/></g></g></svg>