<svg xmlns="http://www.w3.org/2000/svg" viewBox="0 0 26.89 15.9"><defs><style>.cls-1{fill:#e70013;}.cls-2{fill:#fff;}</style></defs><title>flag_788</title><g id="レイヤー_2" data-name="レイヤー 2"><g id="flag"><rect class="cls-1" width="26.89" height="15.9"/><ellipse class="cls-2" cx="13.55" cy="7.42" rx="5.41" ry="5.35"/><polygon class="cls-1" points="13.93 8.14 14.56 7.1 14.06 5.98 15.26 6.26 16.17 5.44 16.26 6.66 17.33 7.27 16.2 7.74 15.94 8.94 15.14 8.01 13.93 8.14"/><path class="cls-1" d="M16.93,5.1S15,2.52,12.26,3.44,9.67,6.7,9.61,7.56a4.17,4.17,0,0,0,4.12,3.94s2.34-.31,2.95-1.78a7.08,7.08,0,0,1-3.28.74A3.33,3.33,0,0,1,11,7.5c0-1,.53-3.07,2.5-3.32A5.68,5.68,0,0,1,16.93,5.1Z"/></g></g></svg>