<svg xmlns="http://www.w3.org/2000/svg" viewBox="0 0 26.89 15.9"><defs><style>.cls-1{fill:#c60b1e;}.cls-2{fill:#ffc400;}.cls-3{fill:#bba412;}.cls-10,.cls-11,.cls-12,.cls-13,.cls-14,.cls-3,.cls-4,.cls-5,.cls-6,.cls-7,.cls-8,.cls-9{fill-rule:evenodd;}.cls-4{fill:#cfc3c7;}.cls-5{fill:#20292f;}.cls-6{fill:#a11f24;}.cls-7{fill:#0d886a;}.cls-8{fill:#de6ea1;}.cls-9{fill:#bb1b22;}.cls-10{fill:#1153a4;}.cls-11{fill:#f5be1b;}.cls-12{fill:#ccc;}.cls-13{fill:#f9d290;}.cls-14{fill:#214ea0;}</style></defs><title>flag_724</title><g id="レイヤー_2" data-name="レイヤー 2"><g id="flag"><rect class="cls-1" width="26.89" height="15.9"/><rect class="cls-2" x="0.02" y="3.32" width="26.81" height="9.22"/><path class="cls-3" d="M8.65,4c.06,0,.17,0,.12.09s0-.08,0-.09,0,.06,0,.1.09,0,.11,0v.07H8.75v.29s.09,0,.14,0-.41.11-.36,0h.12a1.34,1.34,0,0,0,0-.28s-.07,0-.1,0V4.09h.1S8.69,4,8.65,4Z"/><path class="cls-4" d="M8.08,4.63s0,0,0-.06a0,0,0,0,1,0,.06A.06.06,0,0,1,8.08,4.63Z"/><path class="cls-4" d="M8,4.67s0,0,0,0,0,0,0,0,0,0,0,0H8S8,4.68,8,4.67Z"/><path class="cls-4" d="M8.44,4.61s0,.07-.06.06,0,0,0-.06Z"/><path class="cls-4" d="M7.79,4.7v0C7.88,4.6,7.88,4.76,7.79,4.7Z"/><path class="cls-4" d="M8.84,4.65h0a.06.06,0,0,1,0,.06C8.82,4.73,8.81,4.67,8.84,4.65Z"/><path class="cls-4" d="M9.61,4.66v0C9.52,4.76,9.52,4.6,9.61,4.66Z"/><path class="cls-3" d="M8.92,5.35c0,.05-.09.13-.14.12s.06-.08.07-.12.07-.67-.21-.62c-.09.13,0,.44-.1.59s.11.09.07.15-.1-.08-.14-.11,0-.57.11-.67a.19.19,0,0,1,.21,0C8.94,4.81,8.8,5.2,8.92,5.35Z"/><path class="cls-3" d="M7.79,5.4s0,.14-.1.12,0-.07,0-.09c-.33-.32,0-.75.46-.74.13,0,.29,0,.35.12s-.16,0-.25-.06C7.81,4.7,7.41,5.1,7.79,5.4Z"/><path class="cls-3" d="M9.71,5.53c-.05,0-.06-.08-.1-.1a.88.88,0,0,0,.15-.2c.08-.5-.56-.55-.89-.38,0-.1.15-.12.23-.14.33,0,.75.1.72.47a.35.35,0,0,1-.14.24S9.74,5.49,9.71,5.53Z"/><path class="cls-5" d="M9.75,4.78a.09.09,0,0,1-.1,0C9.62,4.67,9.78,4.67,9.75,4.78Zm-.09,0a.07.07,0,0,0,.07,0s0-.06,0-.06S9.65,4.73,9.66,4.77Z"/><path class="cls-4" d="M9.69,4.71s.05,0,0,.06a.07.07,0,0,1-.07,0S9.68,4.73,9.69,4.71Z"/><path class="cls-3" d="M8.78,5.39c0-.06,0-.08,0-.14s0-.08-.09-.09c.24-.18-.24-.16,0,0,0,0-.07,0-.09.09s0,.08,0,.15,0-.13,0-.26,0-.5.16-.36a1.19,1.19,0,0,1,0,.21C8.79,5.13,8.87,5.34,8.78,5.39ZM8.66,4.8a.08.08,0,0,0,0,.06s.08,0,.07-.06A.07.07,0,0,0,8.66,4.8Zm0,.12c0,.06,0,.07.06.09s.06,0,.05-.06S8.68,4.89,8.65,4.92Z"/><path class="cls-5" d="M7.36,4.8s0,.09,0,.09S7.28,4.72,7.36,4.8Zm0,0a.06.06,0,0,0-.07,0s0,.06.05.06S7.36,4.85,7.35,4.81Z"/><path class="cls-5" d="M8.75,4.8c0,.06,0,.08-.07.06a.08.08,0,0,1,0-.06A.07.07,0,0,1,8.75,4.8Zm-.07,0s.07,0,.06,0S8.66,4.79,8.67,4.83Z"/><path class="cls-5" d="M10.29,4.83c0,.06-.09.06-.11,0A.06.06,0,1,1,10.29,4.83Zm-.07,0s0,0,.06,0S10.16,4.83,10.22,4.87Z"/><path class="cls-4" d="M7.57,4.86h0s0-.06,0-.06h0v0s0,0,0,0S7.58,4.86,7.57,4.86Z"/><path class="cls-4" d="M9.8,4.8a0,0,0,0,1,0,0s0,0-.06,0,0-.06,0-.06S9.8,4.8,9.8,4.8Z"/><path class="cls-4" d="M10,4.8h0s0,.05,0,.06,0,0-.06,0A0,0,0,0,1,10,4.8Z"/><path class="cls-5" d="M7.06,4.83v.06a.07.07,0,0,1-.1,0C6.94,4.81,7,4.79,7.06,4.83ZM7,4.84v0C7.06,4.95,7.06,4.78,7,4.84Z"/><path class="cls-4" d="M7,4.88v0C7.06,4.78,7.06,4.95,7,4.88Z"/><path class="cls-4" d="M10.35,4.88v0C10.45,4.78,10.45,4.95,10.35,4.88Z"/><path class="cls-4" d="M6.84,4.93v0C6.93,4.83,6.93,5,6.84,4.93Z"/><path class="cls-3" d="M9.93,4.88h0s.07,0,.1,0-.08,0-.11,0S9.93,4.9,9.93,4.88Z"/><path class="cls-4" d="M10.49,4.93v0C10.58,4.83,10.58,5,10.49,4.93Z"/><path class="cls-5" d="M8.76,4.94s0,0-.05.06-.07,0-.06-.09S8.75,4.89,8.76,4.94Zm0,0a.09.09,0,0,0,0-.06C8.67,4.88,8.63,5,8.72,5Z"/><path class="cls-4" d="M8.73,4.92a.09.09,0,0,1,0,.06C8.63,5,8.67,4.88,8.73,4.92Z"/><path class="cls-3" d="M7.47,5c-.35,0-.93.1-.8.54a.24.24,0,0,0,.1.14s-.07.17-.12.16,0-.09,0-.14c-.29-.4.12-.71.55-.74C7.31,4.91,7.42,4.89,7.47,5Z"/><path class="cls-4" d="M7.55,4.92a.06.06,0,0,1,0,.07s0,0-.06,0S7.5,4.92,7.55,4.92Z"/><path class="cls-3" d="M9.93,4.92c.54-.07,1.1.29.78.73,0,.06.09.09,0,.15s-.08-.11-.12-.15c.37-.42-.24-.76-.7-.68Z"/><path class="cls-3" d="M8.52,4.93s0,.11,0,.12S8.49,4.95,8.52,4.93Z"/><path class="cls-4" d="M6.72,5s0,0,0,0,0,0,0,0h0a.08.08,0,0,1,0,.06h0S6.72,5,6.72,5Z"/><path class="cls-4" d="M6.65,5a.06.06,0,0,1,0,.07s0,0-.06,0A0,0,0,0,1,6.65,5Z"/><path class="cls-4" d="M8.76,5.08c0,.07-.09.08-.11,0S8.75,5,8.76,5.08Z"/><path class="cls-4" d="M7.46,5.11v0a.06.06,0,0,1,.08,0s0,0,0,.06,0,0,0,0S7.47,5.1,7.46,5.11Z"/><path class="cls-4" d="M9.92,5.06s0,0,0,0v0s0,0,0,0H9.87S9.87,5,9.92,5.06Z"/><path class="cls-3" d="M9.85,5.11s0,0,.06,0-.08.1,0,.12-.07,0-.09.06,0,0,0,.06-.1,0-.1.07C9.7,5.37,9.88,5.28,9.85,5.11Z"/><path class="cls-4" d="M9.95,5.25s0,0-.07,0,0,0,0,0S10,5.2,9.95,5.25Z"/><path class="cls-4" d="M6.43,5.32v0C6.52,5.21,6.52,5.38,6.43,5.32Z"/><path class="cls-4" d="M10.9,5.32v0C11,5.21,11,5.38,10.9,5.32Z"/><path class="cls-4" d="M7.5,5.37v0C7.59,5.26,7.59,5.43,7.5,5.37Z"/><path class="cls-4" d="M9.83,5.37v0C9.92,5.26,9.92,5.43,9.83,5.37Z"/><path class="cls-4" d="M6.39,5.45v0C6.48,5.35,6.48,5.52,6.39,5.45Z"/><path class="cls-3" d="M8.68,5.4c.07,0,.08.09.1.15s0,0,.07,0a.7.7,0,0,1-.07.21s-.12-.05-.14,0-.06-.14-.1-.2.07,0,.09,0S8.67,5.45,8.68,5.4Z"/><path class="cls-5" d="M6.49,5.56s0,.06-.07.06S6.46,5.47,6.49,5.56Zm-.1,0a0,0,0,0,0,.09,0A0,0,0,0,0,6.39,5.58Z"/><path class="cls-3" d="M7.67,5.54a.13.13,0,0,1,.09.11s0,0,.07,0,0,.11,0,.17a.25.25,0,0,0-.15,0s-.05-.11-.1-.15.05,0,.07,0S7.63,5.56,7.67,5.54Z"/><path class="cls-3" d="M9.77,5.67s0,0,.07,0a.48.48,0,0,1-.09.16.29.29,0,0,0-.15,0,.77.77,0,0,1,0-.17s.05,0,0,0S9.79,5.47,9.77,5.67Z"/><path class="cls-3" d="M8.41,5.67a.67.67,0,0,1,.21.08c0,.14-.07.17-.21.19,0-.09-.1-.07-.14-.12s.1-.05.15-.07S8.4,5.71,8.41,5.67Z"/><path class="cls-3" d="M9,5.67c.05,0,0,0,0,.06a.6.6,0,0,1,.16.06A.2.2,0,0,1,9,5.87s0,0,0,0-.15,0-.21,0a.18.18,0,0,0,0-.12A.71.71,0,0,1,9,5.67Z"/><path class="cls-6" d="M8.78,5.85a.09.09,0,0,1-.16,0C8.62,5.72,8.8,5.68,8.78,5.85Z"/><path class="cls-3" d="M8,5.74s0,0,0,.06a.2.2,0,0,1,.14,0s0,.07-.11.07,0,0,0,.06a.47.47,0,0,1-.17,0,.19.19,0,0,0,0-.12Z"/><path class="cls-3" d="M9.44,5.74c.11,0,.18.05.14.2A.59.59,0,0,1,9.4,6c0-.09-.1-.06-.1-.14S9.47,5.84,9.44,5.74Z"/><path class="cls-6" d="M7.72,5.82c.05,0,.11,0,.11.06S7.53,5.89,7.72,5.82Z"/><path class="cls-6" d="M9.75,5.85a.23.23,0,0,1,0,.1C9.54,6.06,9.58,5.7,9.75,5.85Z"/><path class="cls-3" d="M7.47,5.82a.4.4,0,0,1,.17,0s0,.09,0,.1S7.56,6,7.52,6s0,0,0-.06a.22.22,0,0,1-.14,0c0-.06.07-.07.12-.09S7.46,5.86,7.47,5.82Z"/><path class="cls-3" d="M9.95,5.82c-.07.08.09.06.1.14s-.16,0-.13.09A.42.42,0,0,1,9.75,6s.05-.07,0-.1A.27.27,0,0,1,9.95,5.82Z"/><path class="cls-3" d="M6.57,5.95c0-.11.16-.14.21-.06s0,0,0,0a.24.24,0,0,1,0,.21C6.73,6.09,6.75,5.91,6.57,5.95Z"/><path class="cls-3" d="M10.54,6.06c0-.1,0-.2.07-.21v0c.08-.06.22-.06.24.06C10.67,5.9,10.68,6.09,10.54,6.06Z"/><path class="cls-3" d="M10,6.27a.31.31,0,0,1-.42-.12.32.32,0,0,1-.46,0c-.1.11-.4.1-.45,0-.08.11-.35.19-.46,0-.12.08-.2.16-.37.09s-.08-.07-.09-.07-.08.11-.11.12a.31.31,0,0,1-.31,0c-.08.21-.46.07-.43-.11.1.09.34.26.39,0,0,0,.07,0,.11.06.21,0,.3-.09.27-.26,0,0,0,0,.07,0,0,.27.4.25.43,0,.08.19.47.18.43-.11h.07c0,.3.35.3.43.11,0,.22.45.23.43,0,0,0,0,0,.08,0-.1.25.27.32.37.2.07.23.3.08.41,0C10.49,6.32,10.11,6.49,10,6.27Z"/><path class="cls-3" d="M7.07,6a.46.46,0,0,1,.15,0s-.05.08-.11.09,0,0,0,0-.14,0-.21,0a.09.09,0,0,0-.06-.06C6.9,6,7.07,5.87,7.07,6Z"/><path class="cls-3" d="M10.34,5.92a.28.28,0,0,1,.19.14s-.06,0-.06.07a.67.67,0,0,1-.21,0,.06.06,0,0,1,0,0S10.22,6,10.19,6s.09,0,.15,0Z"/><path class="cls-6" d="M6.81,6.08a.1.1,0,0,1,.12.09C6.89,6.22,6.8,6.17,6.81,6.08Z"/><path class="cls-6" d="M10.6,6.1c0,.08-.09.12-.12.07S10.54,6.06,10.6,6.1Z"/><path class="cls-6" d="M8.7,6.11s.07.08.14.09-.17,0-.25,0S8.68,6.16,8.7,6.11Z"/><path class="cls-6" d="M8.35,6.21s-.14,0-.19,0S8.27,6.15,8.35,6.21Z"/><path class="cls-6" d="M9.25,6.22s-.11,0-.19,0A.11.11,0,0,1,9.25,6.22Z"/><path class="cls-6" d="M7.79,6.17a.32.32,0,0,0,.14.07.89.89,0,0,1-.22,0S7.78,6.23,7.79,6.17Z"/><path class="cls-6" d="M9.61,6.17a.36.36,0,0,0,.1.1c-.06,0-.14,0-.22,0S9.59,6.21,9.61,6.17Z"/><path class="cls-3" d="M7.21,6.47v0a5.87,5.87,0,0,1,2.69-.1.54.54,0,0,1,.31.12,6.77,6.77,0,0,1-.69-.11,7.32,7.32,0,0,0-.78,0,6.28,6.28,0,0,0-1.49.17Z"/><path class="cls-6" d="M7.48,6.32a.38.38,0,0,1-.14,0C7.36,6.27,7.41,6.31,7.48,6.32Z"/><path class="cls-6" d="M10.07,6.34s-.09,0-.14,0S10,6.28,10.07,6.34Z"/><path class="cls-3" d="M5.59,6.33s0,.09,0,.09,0,0-.06,0,0,0,0,0,0-.09,0-.08S5.56,6.32,5.59,6.33Z"/><path class="cls-3" d="M10.11,6.48c0,.06-.13,0-.19.06s.14.06.09.13a2.66,2.66,0,0,1-.42-.06,5.93,5.93,0,0,0-2.18.07c0-.09.06-.09.09-.15s-.15,0-.19-.05A5.91,5.91,0,0,1,10.11,6.48Zm-1.6,0c.06.05.37.08.4,0S8.52,6.32,8.51,6.44Zm-.22,0a.07.07,0,0,0,.11,0,.1.1,0,0,0,0-.09A.07.07,0,0,0,8.29,6.44Zm.83,0c0-.23-.19.1,0,0Zm-1.26,0c0,.11.26,0,.31,0S7.88,6.4,7.85,6.47Zm1.4,0a.43.43,0,0,0,.31,0V6.44C9.49,6.42,9.25,6.34,9.25,6.48Zm-1.66.06s.13,0,.11,0S7.57,6.46,7.59,6.54Zm2.12,0a.1.1,0,0,0,.09,0s0,0,0-.09S9.69,6.47,9.71,6.54Z"/><path class="cls-3" d="M11.85,6.36c.06,0,0,.1,0,.1s0,0-.06,0S11.85,6.4,11.85,6.36Z"/><path class="cls-5" d="M8.91,6.42c0,.1-.33.08-.4,0S8.86,6.35,8.91,6.42Zm-.37,0c.08,0,.3,0,.35,0S8.56,6.35,8.53,6.44Z"/><path class="cls-5" d="M9.12,6.47c-.19.1,0-.23,0,0ZM9,6.42v0C9.12,6.52,9.12,6.35,9,6.42Z"/><path class="cls-6" d="M8.88,6.42c0,.07-.26,0-.35,0S8.82,6.39,8.88,6.42Z"/><path class="cls-7" d="M8.16,6.47s-.29.11-.31,0S8.15,6.36,8.16,6.47Z"/><path class="cls-4" d="M9,6.45v0C9.12,6.35,9.12,6.52,9,6.45Z"/><path class="cls-7" d="M9.56,6.44V6.5a.43.43,0,0,1-.31,0C9.25,6.34,9.49,6.42,9.56,6.44Z"/><path class="cls-5" d="M7.71,6.5c0,.07-.09.08-.11,0S7.69,6.44,7.71,6.5Zm0,0a.06.06,0,0,0,0-.07s-.06,0-.06,0S7.63,6.57,7.67,6.55Z"/><path class="cls-5" d="M9.81,6.48s0,.06,0,.09a.1.1,0,0,1-.09,0C9.69,6.47,9.77,6.45,9.81,6.48Zm-.09,0s0,0,.06,0a.06.06,0,0,0,0-.07S9.73,6.49,9.72,6.53Z"/><path class="cls-6" d="M5.5,6.48a.27.27,0,0,0,0,.17s0,0,0,0a1,1,0,0,1-.16-.17A.87.87,0,0,1,5.5,6.48Z"/><path class="cls-6" d="M5.61,6.55s0-.05,0-.07.12,0,.15,0,0,0,0,0-.11.1-.12.19,0,0,0,0,0-.06,0-.1Z"/><path class="cls-4" d="M9.78,6.48a.06.06,0,0,1,0,.07s0,0-.06,0S9.74,6.48,9.78,6.48Z"/><path class="cls-3" d="M11.9,6.6s0-.07,0-.1S11.92,6.58,11.9,6.6Z"/><path class="cls-6" d="M7.46,6.55s-.05.06-.11.06l0,0C7.32,6.54,7.41,6.53,7.46,6.55Z"/><path class="cls-6" d="M10,6.57s.16,0,.14,0S10,6.58,10,6.57Z"/><path class="cls-3" d="M10,6.75c-.05.1-.21.1-.33.12a7,7,0,0,1-2,0c-.13,0-.28,0-.35-.11a1,1,0,0,1,.46-.14A5,5,0,0,1,10,6.75Zm-2.61,0a6.27,6.27,0,0,0,2.54,0A5.17,5.17,0,0,0,7.43,6.79Z"/><path class="cls-6" d="M12,6.58h0s0,0,0,0,0,0,0,0,0,0,0,0-.07,0-.06,0,0,0,.06,0,0,0-.07,0,0,0,0-.06,0,0,0,.06-.06,0-.06-.05,0,0,.07,0,0,0,0,0,0,0,0,0,0-.06,0-.09Z"/><path class="cls-3" d="M5.54,6.65s0-.05,0,0S5.58,6.66,5.54,6.65Z"/><path class="cls-6" d="M11.53,6.6h0s.05,0,.06,0,0,.05,0,.07,0,0,0,0,0,0,.06,0,0,0,0,0,0,0,0,0,0,.07,0,.06,0,0,0-.06-.06,0-.06,0,0,0,0,0S11.49,6.63,11.53,6.6Z"/><path class="cls-3" d="M11.89,6.64s0,0,0,0h0s0,0,0,0v0s0,0,0,0h0s0,0,0,0Z"/><path class="cls-3" d="M5.32,6.68s0,0,0,0S5.37,6.69,5.32,6.68Z"/><path class="cls-3" d="M5.77,6.63s0,.06,0,0S5.75,6.65,5.77,6.63Z"/><path class="cls-3" d="M11.62,6.63s0,0,0,0S11.6,6.64,11.62,6.63Z"/><path class="cls-6" d="M8.35,6.65h0c0,.07,0,.18,0,.24S8.36,6.72,8.35,6.65Z"/><path class="cls-6" d="M8.4,6.65h0s0,.19,0,.24S8.42,6.72,8.4,6.65Z"/><path class="cls-6" d="M8.46,6.65h.12V6.9s-.07,0-.12,0Z"/><path class="cls-6" d="M9.86,6.76A4.65,4.65,0,0,1,8.6,6.9V6.65A5.49,5.49,0,0,1,9.86,6.76Z"/><path class="cls-6" d="M8.2,6.66s0,.17,0,.21S8.19,6.71,8.2,6.66Z"/><path class="cls-6" d="M8.24,6.66h0c0,.07,0,.16,0,.21S8.25,6.73,8.24,6.66Z"/><path class="cls-6" d="M8.29,6.66h0s0,.18,0,.22S8.3,6.74,8.29,6.66Z"/><path class="cls-6" d="M8.05,6.68s0,.15,0,.19S8,6.71,8.05,6.68Z"/><path class="cls-6" d="M8.09,6.68c.06,0,0,.15,0,.19S8.1,6.73,8.09,6.68Z"/><path class="cls-6" d="M8.14,6.68h0c0,.06,0,.19,0,.2Z"/><path class="cls-6" d="M8,6.69s0,.11,0,.16S7.94,6.72,8,6.69Z"/><path class="cls-6" d="M8,6.69c.05,0,0,.11,0,.16S8,6.74,8,6.69Z"/><path class="cls-6" d="M7.89,6.7c.05,0,0,.1,0,.14S7.91,6.74,7.89,6.7Z"/><path class="cls-6" d="M7.79,6.71s0,.08,0,.11S7.78,6.73,7.79,6.71Z"/><path class="cls-6" d="M7.83,6.71h0v.12C7.81,6.84,7.84,6.76,7.83,6.71Z"/><path class="cls-6" d="M7.73,6.73s0,.1,0,.09Z"/><path class="cls-6" d="M7.68,6.74s0,.08,0,.06Z"/><path class="cls-3" d="M5.49,6.8c-.12,0-.17,0,0,0Z"/><path class="cls-3" d="M11.79,6.8c-.12,0-.17,0,0,0Z"/><path class="cls-3" d="M11.93,6.81s.09,0,.14,0S12,6.81,11.93,6.81Z"/><path class="cls-3" d="M5.85,6.92s0,0,0,0a.74.74,0,0,0-.54,0c0-.07.28-.07.42-.06A1,1,0,0,0,5.85,6.92Z"/><path class="cls-3" d="M11.58,7c0-.09.46-.09.57,0A1,1,0,0,0,11.58,7Z"/><path class="cls-6" d="M5.76,6.94C5.64,7,5.56,7,5.4,7,5.48,6.89,5.65,6.93,5.76,6.94Z"/><path class="cls-6" d="M12.06,6.94c-.1.06-.23,0-.36,0C11.78,6.89,12,6.93,12.06,6.94Z"/><path class="cls-3" d="M5.27,7c.06,0-.13,0-.19,0S5.23,7,5.27,7Z"/><path class="cls-3" d="M6,7s-.25,0-.19,0S6,6.93,6,7Z"/><path class="cls-6" d="M6.6,7H8.7V8.51a.77.77,0,0,0-.43.17c0-.07-.1,0-.15,0V8h.07V7.72s-.13,0-.15,0,0-.09.07-.07V7.44c-.07,0-.08,0-.11,0s-.11-.06-.09,0,0-.05-.11,0,0,.11,0,.16.08,0,.07,0v0c0,.05-.09,0-.12,0V7.38h.07V7.21s-.12,0-.1,0-.12-.06-.11,0,0,0-.1,0,0,.11,0,.16.05,0,.07,0V7.7s-.11,0-.12,0V7.64s0,0,.07,0V7.44s-.11,0-.1,0,0,0-.07,0,0,0-.07,0H7.21s0,.11,0,.16.1,0,.07.07-.1,0-.15,0V8s.05,0,.07,0v.61H7.05V9c.31,0,.68,0,1,0a1.53,1.53,0,0,0,0,.3H6.6Z"/><path class="cls-3" d="M12.33,7h-.21a0,0,0,0,1,0,0s.15,0,.19,0Z"/><path class="cls-6" d="M12.33,7h0a1.12,1.12,0,0,1,0,.26Z"/><path class="cls-3" d="M6,7v.23a7.68,7.68,0,0,0-.91,0V7Z"/><path class="cls-6" d="M6,7H6c0,.08,0,.18,0,.23Z"/><path class="cls-3" d="M12.32,7v.23a7.34,7.34,0,0,0-.92,0V7Z"/><path class="cls-3" d="M7.52,7.23h0s.08.06.1,0,.08.06.12,0,0,0,0,.06H7.52Z"/><path class="cls-3" d="M5.95,7.26a2.35,2.35,0,0,1-.77,0A4.67,4.67,0,0,1,5.95,7.26Z"/><path class="cls-3" d="M12.25,7.26a3.2,3.2,0,0,1-.77,0A3.2,3.2,0,0,1,12.25,7.26Z"/><path class="cls-3" d="M5.23,7.31h.53s.13,0,.12,0-.1,0-.14,0H5.23A.09.09,0,0,0,5.23,7.31Z"/><path class="cls-8" d="M9.91,8.29c-.11-.06-.24-.09-.26-.23s.1-.1.19-.11,0,0,0,.09,0-.09.09-.09c0,.24.4.55.43.22,0-.09-.06-.2-.07-.32a1.12,1.12,0,0,1,.09-.49s0,.05,0,.07.07-.09.12-.11-.06.11-.09.15.05,0,.07,0-.07.19-.17.22c0,.26.27.64-.12.69a.17.17,0,0,0,0,.21c0,.05.1,0,.11.1s-.12.19-.06.3,0,0,0,0,0,0,0,0,0,.07-.07,0,0-.05,0-.06,0,0-.08,0,0,0,0-.06.11,0,.12,0-.05-.09-.09-.12,0,0,0,.06,0,0,0-.06,0,0,0,.06,0-.24,0-.35A.26.26,0,0,0,9.91,8.29Z"/><path class="cls-3" d="M11.53,7.32c.2,0,.45,0,.67,0,0,0,0,.06,0,.06-.2,0-.45,0-.67,0C11.54,7.37,11.56,7.33,11.53,7.32Z"/><path class="cls-3" d="M7.79,7.35c0,.06-.19,0-.27,0v0A.31.31,0,0,1,7.79,7.35Z"/><path class="cls-3" d="M7.59,7.4s.09,0,.12,0S7.63,7.39,7.59,7.4Z"/><path class="cls-3" d="M5.95,7.42v0c-.23,0-.51,0-.76,0a0,0,0,0,1,0,0A4.88,4.88,0,0,1,5.95,7.42Z"/><path class="cls-9" d="M9.49,7.42c.06,0,.09.06.15.06S9.53,7.44,9.49,7.42Z"/><path class="cls-3" d="M12.25,7.44c-.23,0-.51,0-.76,0a.06.06,0,0,1,0,0h.42C12,7.41,12.17,7.38,12.25,7.44Z"/><path class="cls-3" d="M7.59,7.42h0v.05S7.59,7.46,7.59,7.42Z"/><path class="cls-3" d="M7.67,7.42h0v.05S7.66,7.46,7.67,7.42Z"/><path class="cls-8" d="M9.27,7.43c-.11.15.11.2.2.27s0,0,0,.07a.51.51,0,0,0,.15,0c0,.06-.09.1-.14.14a.21.21,0,0,0-.19-.1s0,0,0,0,0,0-.09,0,0-.08,0-.14,0,0-.07,0,0,0,0-.06h.06s0-.06-.06-.07.07-.05.09,0,0,0,0-.07S9.24,7.44,9.27,7.43Z"/><path class="cls-3" d="M5.19,7.47h.73A4.44,4.44,0,0,1,5.19,7.47Z"/><path class="cls-3" d="M7.22,7.47h0s.08.06.1,0,.08.06.12,0,0,0,0,.06H7.22Z"/><path class="cls-3" d="M7.82,7.47h0s.09.06.11,0,.08,0,.11,0,0,0,0,.06H7.82Z"/><path class="cls-3" d="M11.49,7.47h.74A4.58,4.58,0,0,1,11.49,7.47Z"/><path class="cls-3" d="M7.59,7.49h.12v.06H7.59Z"/><path class="cls-3" d="M12.21,7.49c0,.26,0,.56,0,.84C12.19,8.08,12.22,7.77,12.21,7.49Z"/><path class="cls-4" d="M5.74,7.52c.07,0,0,.11,0,.16a2.3,2.3,0,0,1,0,.57c-.07,0,0-.11,0-.15s0-.38,0-.54v0Z"/><path class="cls-4" d="M12,7.52h0c.07,0,0,.12,0,.19a2.72,2.72,0,0,1,0,.61C12,8.23,12,8.08,12,8V7.52Z"/><path class="cls-3" d="M12.11,7.52v.79A5,5,0,0,1,12.11,7.52Z"/><path class="cls-4" d="M12.11,7.52h.09c0,.27,0,.57,0,.82,0,0-.06,0-.07,0Z"/><path class="cls-3" d="M7.5,7.58c0,.06-.19,0-.27,0v0A.32.32,0,0,1,7.5,7.58Z"/><path class="cls-3" d="M7.82,7.55c.08,0,.23,0,.27,0S7.82,7.64,7.82,7.55Z"/><path class="cls-3" d="M7.59,7.57h0v.06h0Z"/><path class="cls-3" d="M7.67,7.57h0v.06h0Z"/><path class="cls-6" d="M9,7.58s0,0,0,0H9S9,7.6,9,7.58Z"/><path class="cls-3" d="M7.3,7.63s.09,0,.12,0S7.33,7.62,7.3,7.63Z"/><path class="cls-3" d="M7.89,7.63s.09,0,.12,0S7.93,7.62,7.89,7.63Z"/><path class="cls-3" d="M7.3,7.65h0v0S7.29,7.7,7.3,7.65Z"/><path class="cls-3" d="M7.37,7.65h0v0S7.36,7.7,7.37,7.65Z"/><path class="cls-3" d="M7.59,7.65s.11,0,.12,0-.08,0-.12,0Z"/><path class="cls-3" d="M7.89,7.65h0v0S7.88,7.7,7.89,7.65Z"/><path class="cls-3" d="M8,7.65H8v0H8Z"/><path class="cls-3" d="M7.15,7.73c.05,0,.12,0,.11,0a.11.11,0,0,1-.11,0Z"/><path class="cls-3" d="M7.27,7.73h.16v.16s-.1,0-.15,0A.81.81,0,0,0,7.27,7.73Z"/><path class="cls-3" d="M7.46,7.73h.1c0,.07-.07.07-.1,0Z"/><path class="cls-3" d="M7.58,7.73h.16s0,.12,0,.17H7.58Z"/><path class="cls-3" d="M7.76,7.73s.1,0,.1,0-.08,0-.1,0Z"/><path class="cls-3" d="M7.87,7.73H8A1.24,1.24,0,0,0,8,7.9s-.12,0-.15,0A.61.61,0,0,0,7.87,7.73Z"/><path class="cls-3" d="M8.06,7.73h.1v.06s-.09,0-.11,0A.06.06,0,0,0,8.06,7.73Z"/><path class="cls-3" d="M7.15,7.8h0v.06h0Z"/><path class="cls-3" d="M7.22,7.8h0s0,.07,0,.06S7.23,7.83,7.22,7.8Z"/><path class="cls-3" d="M7.46,7.8h0v.06C7.43,7.87,7.46,7.85,7.46,7.8Z"/><path class="cls-3" d="M7.52,7.8h0s0,.07,0,.06S7.53,7.83,7.52,7.8Z"/><path class="cls-3" d="M7.79,7.8v.06h0S7.75,7.8,7.79,7.8Z"/><path class="cls-3" d="M7.82,7.8h0s0,.07,0,.06S7.82,7.83,7.82,7.8Z"/><path class="cls-3" d="M8.05,7.8h0s0,.07,0,.06S8.06,7.83,8.05,7.8Z"/><path class="cls-3" d="M8.11,7.8h0v.06h0Z"/><path class="cls-8" d="M9.57,7.85s0,.07,0,.1.12,0,.15-.06c.09.13-.12.15-.19.21s0,0,0,0,0,.08-.09.09,0,0,0-.06-.19,0-.16.15H9.2s0-.08,0,0,0-.06.06-.06a.07.07,0,0,0-.06,0s0,0,0-.06C9.33,8.14,9.47,7.91,9.57,7.85Z"/><path class="cls-3" d="M7.15,7.89s.11,0,.12,0-.08,0-.12,0Z"/><path class="cls-3" d="M7.45,7.89c.06,0,.13,0,.12,0H7.45Z"/><path class="cls-3" d="M7.74,7.89s.11,0,.12,0-.08,0-.12,0Z"/><path class="cls-3" d="M8.16,7.9c0,.07-.08,0-.12,0S8.13,7.88,8.16,7.9Z"/><path class="cls-3" d="M7.3,7.94s.09,0,.12,0S7.33,7.93,7.3,7.94Z"/><path class="cls-3" d="M7.59,7.94s.09,0,.12,0S7.63,7.93,7.59,7.94Z"/><path class="cls-3" d="M7.89,7.94s.09,0,.14,0S7.93,7.93,7.89,7.94Z"/><path class="cls-3" d="M7.15,8h0V8S7.14,8,7.15,8Z"/><path class="cls-3" d="M7.22,8s.11,0,.12,0-.08,0-.12,0Z"/><path class="cls-3" d="M7.37,8s.11,0,.12,0-.08,0-.12,0Z"/><path class="cls-3" d="M7.52,8s.11,0,.12,0-.08,0-.12,0Z"/><path class="cls-3" d="M7.67,8s.11,0,.12,0-.08,0-.12,0Z"/><path class="cls-3" d="M7.82,8s.11,0,.12,0-.08,0-.12,0Z"/><path class="cls-3" d="M8,8s.11,0,.12,0S8,8,8,8Z"/><path class="cls-3" d="M8.11,8h0V8S8.1,8,8.11,8Z"/><path class="cls-3" d="M7.22,8h0V8.1h0Z"/><path class="cls-3" d="M7.3,8h.12V8.1H7.3Z"/><path class="cls-3" d="M7.45,8h.12V8.1H7.45Z"/><path class="cls-3" d="M7.59,8h.12V8.1H7.59Z"/><path class="cls-3" d="M7.74,8h.12V8.1H7.74Z"/><path class="cls-3" d="M7.89,8S8,8,8,8.06s-.09,0-.14,0Z"/><path class="cls-3" d="M8,8h.05V8.1H8Z"/><path class="cls-3" d="M7.22,8.12h.1a.08.08,0,0,1-.1.05Z"/><path class="cls-3" d="M7.52,8.12s.11,0,.12,0-.08,0-.12,0Z"/><path class="cls-3" d="M7.67,8.12s.11,0,.12,0-.08,0-.12,0Z"/><path class="cls-3" d="M8,8.14s.09,0,.1,0S8,8.16,8,8.14Z"/><path class="cls-6" d="M9.13,8.15v0s0,0,0,0S9.12,8.11,9.13,8.15Z"/><path class="cls-3" d="M7.22,8.2h.06v0H7.22Z"/><path class="cls-3" d="M7.51,8.21s0,0,.06,0v0h0S7.52,8.21,7.51,8.21Z"/><path class="cls-3" d="M7.59,8.2s.11,0,.12,0-.08,0-.12,0Z"/><path class="cls-3" d="M7.74,8.2h.06s0,.06-.06,0Z"/><path class="cls-3" d="M8,8.2h.06v0S8,8.23,8,8.2Z"/><path class="cls-6" d="M9.2,8.25h0v0S9.21,8.27,9.2,8.25Z"/><path class="cls-6" d="M6.58,8.35v.39A1.79,1.79,0,0,0,4.87,9c-.08-.17-.21-.32,0-.46A2.42,2.42,0,0,1,6.58,8.35Zm-.78.16a.91.91,0,0,1-.1-.17s-.08,0-.09,0,.09.2.17.26a1.24,1.24,0,0,0,.14-.29h0A.56.56,0,0,1,5.8,8.51ZM6,8.41c0,.08.12.08.14.15s-.13,0-.15,0,.19.05.21,0-.11-.11-.14-.19,0,0,0,0,.09,0,.12,0S6,8.34,6,8.41Zm-.64,0c0,.09,0,.17,0,.26s.16,0,.19-.05-.08,0-.11,0S5.5,8.34,5.37,8.38ZM5,8.48c.05.07,0,.27.16.24s0-.07,0-.12.16-.1.09-.16A.43.43,0,0,0,5,8.48Z"/><path class="cls-6" d="M12.56,9a1.8,1.8,0,0,0-1.71-.25V8.35a2.24,2.24,0,0,1,1.8.23C12.75,8.7,12.61,8.84,12.56,9Zm-1.34-.46a.44.44,0,0,0-.12-.17s0,0-.06,0,.1.19.2.24a.64.64,0,0,0,.09-.3C11.25,8.36,11.28,8.49,11.22,8.53Zm.21.06h.19c0-.06-.1,0-.11,0V8.32h-.07Zm.3-.22a2.3,2.3,0,0,0,0,.24.07.07,0,0,1,.06,0,1.23,1.23,0,0,0,0-.25s.08,0,.09,0a.78.78,0,0,0-.25,0C11.63,8.39,11.73,8.33,11.73,8.37Zm.19.27s0,0,.07,0,0-.1,0-.12a.4.4,0,0,0,.06.15s0,0,.07,0-.06-.09-.06-.16a.09.09,0,0,0,.09,0c0-.12-.13-.09-.21-.12S11.92,8.54,11.91,8.65Zm.27.06c.06,0,.07,0,.12,0s.07,0,.09.06,0,0,0,.07,0,0,.07,0a.9.9,0,0,0,0-.31A.91.91,0,0,0,12.19,8.71Z"/><path class="cls-3" d="M7.22,8.27h.06c0,.05,0,.07-.06.06Z"/><path class="cls-3" d="M7.52,8.27h.12v.06H7.52Z"/><path class="cls-3" d="M7.67,8.27h.12v.06H7.67Z"/><path class="cls-3" d="M8,8.27h.05v.06H8Z"/><path class="cls-8" d="M10,8.36s0,.07,0,.12H9.82c-.09.05,0,.18,0,.26s-.24-.08-.25,0,0,0-.06,0,0,0,0-.06a0,0,0,0,0-.07,0s0,0,0-.06H9.5c0-.06,0-.07,0-.11,0,.12.25.12.2,0s0,0,0,0,0-.08,0-.1a.06.06,0,0,0,0,.06c-.08-.18.18-.18.3-.16A.06.06,0,0,0,10,8.36Z"/><path class="cls-3" d="M5.87,8.32h0a1.24,1.24,0,0,1-.14.29c-.08-.06-.11-.18-.17-.26s.06,0,.09,0a.91.91,0,0,0,.1.17A.56.56,0,0,0,5.87,8.32Z"/><path class="cls-3" d="M11.32,8.32a.64.64,0,0,1-.09.3c-.1,0-.13-.16-.2-.24s0,0,.06,0a.44.44,0,0,1,.12.17C11.28,8.49,11.25,8.36,11.32,8.32Z"/><path class="cls-3" d="M11.43,8.32h.07v.23s.12,0,.11,0h-.19Z"/><path class="cls-3" d="M6.21,8.38s0,0-.12,0,0,0,0,0,.16.06.14.19S6,8.65,6,8.56s.11.07.15,0S6,8.49,6,8.41,6.2,8.29,6.21,8.38Z"/><path class="cls-3" d="M11.64,8.33a.78.78,0,0,1,.25,0c0,.06,0,0-.09,0a1.23,1.23,0,0,1,0,.25.07.07,0,0,0-.06,0,2.3,2.3,0,0,1,0-.24S11.63,8.39,11.64,8.33Z"/><path class="cls-3" d="M7.22,8.35s.07,0,.06.06H7.22Z"/><path class="cls-3" d="M7.52,8.35h0v.06h0Z"/><path class="cls-3" d="M7.59,8.35h.12v.06H7.59Z"/><path class="cls-3" d="M7.74,8.35h0v.06h0Z"/><path class="cls-3" d="M8,8.35h.05v.06H8Z"/><path class="cls-3" d="M5.49,8.61s.09,0,.11,0-.11,0-.19.05,0-.17,0-.26S5.45,8.53,5.49,8.61Z"/><path class="cls-3" d="M12,8.37c.08,0,.22,0,.21.12a.09.09,0,0,1-.09,0c0,.07.05.1.06.16s0,0-.07,0A.4.4,0,0,1,12,8.53s0,.08,0,.12,0,0-.07,0S12,8.47,12,8.37Zm.05.15c.06,0,.09,0,.09-.09l-.07,0S12,8.47,12,8.52Z"/><path class="cls-6" d="M12,8.41l.07,0c0,.06,0,.09-.09.09S12,8.46,12,8.41Z"/><path class="cls-3" d="M5.26,8.43c.07.06,0,.16-.09.16s0,.06,0,.12S5.1,8.56,5,8.48A.43.43,0,0,1,5.26,8.43Zm-.14.06s0,.07,0,.09.06,0,0-.06l0,0S5.12,8.47,5.12,8.5Z"/><path class="cls-3" d="M7.22,8.43s.11,0,.12,0-.09,0-.12,0Z"/><path class="cls-3" d="M7.52,8.43h.12V8.5H7.52Z"/><path class="cls-3" d="M7.67,8.43h.12V8.5H7.67Z"/><path class="cls-3" d="M8.09,8.43V8.5s-.11,0-.12,0S8,8.45,8.09,8.43Z"/><path class="cls-3" d="M7.37,8.45s.11,0,.12,0-.08,0-.12,0Z"/><path class="cls-3" d="M7.82,8.45s.11,0,.12,0-.08,0-.12,0Z"/><path class="cls-6" d="M5.19,8.47l0,0s0,0,0,.06,0-.07,0-.09S5.16,8.47,5.19,8.47Z"/><path class="cls-3" d="M7.22,8.52h0v0S7.21,8.56,7.22,8.52Z"/><path class="cls-3" d="M7.3,8.52s.11,0,.12,0-.08,0-.12,0Z"/><path class="cls-3" d="M7.45,8.52s.11,0,.12,0-.08,0-.12,0Z"/><path class="cls-3" d="M7.59,8.52s.11,0,.12,0-.08,0-.12,0Z"/><path class="cls-3" d="M7.74,8.52s.11,0,.12,0-.08,0-.12,0Z"/><path class="cls-3" d="M7.89,8.52s.11,0,.14,0-.09,0-.14,0Z"/><path class="cls-3" d="M8,8.52h.05v0S8,8.56,8,8.52Z"/><path class="cls-6" d="M9.43,8.53s.05,0,.06,0S9.45,8.55,9.43,8.53Z"/><path class="cls-6" d="M8.63,8.55a.7.7,0,0,1,.75.84.68.68,0,0,1-1.06.53A.79.79,0,0,1,8.63,8.55ZM8.52,9.83c.35.16.7-.17.69-.56a.52.52,0,0,0-.51-.56C8.17,8.74,8,9.61,8.52,9.83Z"/><path class="cls-3" d="M12.47,8.53a.9.9,0,0,1,0,.31s0,0-.07,0,0,0,0-.07-.07,0-.09-.06-.07.07-.12,0A.91.91,0,0,1,12.47,8.53Zm-.14.12s0,0,.07,0,0-.08,0-.09S12.34,8.62,12.33,8.66Z"/><path class="cls-3" d="M7.72,8.59s0,0,0,.08H7.62s0,0,0-.08Z"/><path class="cls-3" d="M7.22,8.59s.11,0,.12,0-.08,0-.12,0Z"/><path class="cls-3" d="M7.37,8.59s.11,0,.12,0-.08,0-.12,0Z"/><path class="cls-3" d="M7.52,8.59h0s0,0,0,0Z"/><path class="cls-3" d="M7.82,8.59s.11,0,.12,0-.08,0-.12,0Z"/><path class="cls-3" d="M8,8.59s.11,0,.12,0-.08,0-.12,0Z"/><path class="cls-6" d="M12.4,8.59s0,.06,0,.09,0,0-.07,0S12.39,8.63,12.4,8.59Z"/><path class="cls-3" d="M7.57,8.63s0,0,0,.06,0,0-.1,0S7.56,8.66,7.57,8.63Z"/><path class="cls-3" d="M7.72,8.65s.06,0,.09,0-.06.05-.1,0S7.72,8.67,7.72,8.65Z"/><path class="cls-3" d="M7.06,8.67h.06v.06H7.06Z"/><path class="cls-3" d="M7.15,8.67h.12v.06H7.15Z"/><path class="cls-3" d="M7.3,8.67h.12v.06H7.3Z"/><path class="cls-3" d="M7.46,8.67s.07,0,.08.07,0,0-.09,0A.25.25,0,0,1,7.46,8.67Z"/><path class="cls-3" d="M7.84,8.67s0,.06,0,.1-.08,0-.09,0S7.82,8.7,7.84,8.67Z"/><path class="cls-3" d="M7.89,8.67H8v.06H7.89Z"/><path class="cls-3" d="M8,8.67h.12v.06H8Z"/><path class="cls-3" d="M8.19,8.67h.06s0,.07-.06.06Z"/><path class="cls-6" d="M9.41,8.67v0s0,0,0,0S9.38,8.66,9.41,8.67Z"/><path class="cls-10" d="M8.71,8.72a.52.52,0,0,1,.51.56c0,.39-.34.72-.69.56S8.17,8.74,8.71,8.72Zm-.25.42s0,0-.1,0a.1.1,0,0,0,0,.1c.08-.05.07.06.15,0a.08.08,0,0,1,.11,0s0-.07,0-.1-.08,0-.1,0,0-.18,0-.21A.23.23,0,0,0,8.46,9.14Zm.45,0a.1.1,0,0,0-.09,0,.08.08,0,0,0,0,.1c.08,0,.08,0,.15,0s.05-.08.11,0,0-.07,0-.1-.08.05-.1,0,0-.18,0-.21A.25.25,0,0,0,8.91,9.13Zm-.5.16h.16v0H8.41Zm.45,0H9v0H8.86Zm-.42,0c.06,0,.07,0,.11,0s0,0,0,0H8.45A.05.05,0,0,1,8.44,9.34Zm.25.19s0,0-.09,0a.1.1,0,0,0,0,.09.17.17,0,0,1,.14.06c.06,0,.08-.1.14,0a.22.22,0,0,0,0-.1s-.1,0-.11,0a.18.18,0,0,0,0-.21A.27.27,0,0,0,8.68,9.52Zm.21-.17s.08,0,.1,0S8.85,9.31,8.89,9.35Zm-.26.32H8.8v0H8.63Zm0,.06s.06,0,.1,0S8.62,9.69,8.67,9.73Z"/><path class="cls-4" d="M12,8.73h0c.07.08,0,.24,0,.38a2.17,2.17,0,0,1,0,.4c-.09,0,0-.22,0-.35V8.73Z"/><path class="cls-3" d="M7.06,8.75s.11,0,.14,0-.09,0-.14,0Z"/><path class="cls-3" d="M7.22,8.75s.11,0,.12,0-.08,0-.12,0Z"/><path class="cls-3" d="M7.37,8.75a.06.06,0,0,1,.07.05H7.37Z"/><path class="cls-3" d="M7.94,8.75v.05H7.87A.06.06,0,0,1,7.94,8.75Z"/><path class="cls-3" d="M8,8.75s.11,0,.12,0-.08,0-.12,0Z"/><path class="cls-3" d="M8.11,8.75H8.2s0,.07-.09.05Z"/><path class="cls-3" d="M12.11,8.75v.77A4.67,4.67,0,0,1,12.11,8.75Z"/><path class="cls-3" d="M7.5,8.79s0,.17,0,.17S7.46,8.8,7.5,8.79Z"/><path class="cls-3" d="M7.82,8.79s0,.17,0,.17S7.78,8.8,7.82,8.79Z"/><path class="cls-3" d="M7.06,8.83h.06v.06S7.05,8.88,7.06,8.83Z"/><path class="cls-3" d="M7.15,8.83h.12v.06H7.15Z"/><path class="cls-3" d="M7.3,8.83s.12,0,.15,0v0c0,.05-.1,0-.15,0Z"/><path class="cls-3" d="M7.87,8.83s.13,0,.16,0-.13.05-.16,0Z"/><path class="cls-3" d="M8,8.83h.11s0,.08-.1.06A.08.08,0,0,1,8,8.83Z"/><path class="cls-6" d="M10,8.84H10S9.94,8.88,10,8.84Z"/><path class="cls-6" d="M12.22,9.18c0-.11,0-.19,0-.31.17,0,.33,0,.32.16S12.36,9.15,12.22,9.18Z"/><path class="cls-3" d="M7.2,8.9V9H7.06v0S7.15,8.91,7.2,8.9Z"/><path class="cls-3" d="M7.22,8.9h.12V9H7.22Z"/><path class="cls-3" d="M7.37,8.9h.07V9H7.37Z"/><path class="cls-3" d="M7.87,8.9h.07V9H7.87Z"/><path class="cls-3" d="M8,8.9h.12V9H8Z"/><path class="cls-3" d="M8.49,8.92c.06,0,.06.14,0,.21s0-.05.1,0,0,.07,0,.1a.08.08,0,0,0-.11,0c-.08,0-.07-.1-.15,0a.1.1,0,0,1,0-.1c.06,0,.07,0,.1,0A.23.23,0,0,1,8.49,8.92Z"/><path class="cls-3" d="M8.93,8.92C9,9,9,9.05,9,9.13s0-.05.1,0,0,.06,0,.1-.09,0-.11,0-.07-.09-.15,0a.08.08,0,0,1,0-.1.1.1,0,0,1,.09,0A.25.25,0,0,1,8.93,8.92Z"/><path class="cls-6" d="M5.91,8.94C6,9,6.1,9,6.15,9s-.15.14-.22.21A1.31,1.31,0,0,1,5.91,8.94Z"/><path class="cls-6" d="M11.51,8.94c0,.1,0,.18,0,.28A.38.38,0,0,1,11.27,9,.64.64,0,0,1,11.51,8.94Z"/><path class="cls-6" d="M10.17,9h0s0,0,0,.06S10.17,9,10.17,9Z"/><path class="cls-6" d="M12.63,9.82c0,.09,0,.2-.06.28s-.1,0-.15-.07c-.37-.21-.94-.31-1.2-.65,0-.1,0-.21,0-.32C11.6,9.43,12.23,9.51,12.63,9.82Z"/><path class="cls-6" d="M4.85,10.13c0-.1-.07-.2-.05-.3s.48-.27.61-.32a3,3,0,0,0,.77-.43c0,.1.06.25,0,.32C6,9.76,5.14,9.87,4.85,10.13Z"/><path class="cls-3" d="M8.41,9.26h.16v0H8.41Z"/><path class="cls-3" d="M8.86,9.26H9v0H8.86Z"/><path class="cls-3" d="M10.85,9.29c0,.45,0,1,0,1.42Z"/><path class="cls-3" d="M8.45,9.3h.09s0,0,0,0-.06,0-.11,0A.05.05,0,0,0,8.45,9.3Z"/><path class="cls-3" d="M8.71,9.3a.18.18,0,0,1,0,.21s.06-.05.11,0a.22.22,0,0,1,0,.1c-.06-.06-.07,0-.14,0a.17.17,0,0,0-.14-.06.1.1,0,0,1,0-.09c.05,0,.06,0,.09,0A.27.27,0,0,1,8.71,9.3Z"/><path class="cls-3" d="M9,9.31c0,.07-.08,0-.1,0S9,9.28,9,9.31Z"/><path class="cls-3" d="M6.81,9.31v2s-.1-.12-.14-.2A7.92,7.92,0,0,1,6.6,9.35C6.61,9.27,6.75,9.33,6.81,9.31Z"/><path class="cls-6" d="M7.05,9.33v2.17c-.06,0-.19-.1-.21-.17a2.36,2.36,0,0,1,0-.5V9.35C6.84,9.28,7,9.32,7.05,9.33Z"/><path class="cls-3" d="M7.09,9.31H7.3v2.33a.55.55,0,0,1-.24-.12V9.35A0,0,0,0,1,7.09,9.31Z"/><path class="cls-6" d="M7.52,9.31v2.38a.54.54,0,0,1-.2,0c0-.76,0-1.56,0-2.3C7.32,9.28,7.45,9.33,7.52,9.31Z"/><path class="cls-3" d="M7.56,9.31h.21V11.7H7.55V9.35S7.54,9.31,7.56,9.31Z"/><path class="cls-6" d="M7.81,9.31H8c0,.78,0,1.59,0,2.35-.07,0-.11,0-.19,0V9.35S7.79,9.31,7.81,9.31Z"/><path class="cls-6" d="M8.94,10c0,.08.05.05.07.09s-.08.18-.09.25.1.07.09.2-.05,0-.07,0a.71.71,0,0,0,0,.19s.06,0,.07,0,0,.16,0,.23.29.07.24.26.11.06.16.1.06,0,.1,0,.15.12.22.12.2-.22.32-.07a1.17,1.17,0,0,0,.16-.09c0-.17.2-.14.25-.26s0-.25.09-.26,0-.22-.06-.23.07-.11.07-.19-.11-.13-.07-.28.06,0,.07,0V9.91s-.06,0-.07,0,.07-.17.07-.23a.11.11,0,0,0-.11-.15c-.08,0-.11.12-.21.09s0,0,0-.07H10s0,.07,0,.07-.13-.08-.2-.09-.09.09-.2.09,0-.06,0-.07H9.39a.43.43,0,0,0,0-.19h1.41c0,.51,0,1,0,1.49a1,1,0,0,1-1.15.9c-.73-.05-1.06-.69-1-1.62A.93.93,0,0,0,8.94,10Z"/><path class="cls-3" d="M8,9.38c0,.07,0,.14,0,.21s.15.19.17.3a10.11,10.11,0,0,1,0,1.23,1.9,1.9,0,0,1,0,.41c0,.07-.17.1-.24.12C8,10.89,8,10.14,8,9.38Z"/><path class="cls-6" d="M9.38,9.57h.1v.06s-.09,0-.11,0h0S9.36,9.57,9.38,9.57Z"/><path class="cls-6" d="M10.17,9.64h-.11V9.58S10.2,9.56,10.17,9.64Z"/><path class="cls-3" d="M8.63,9.65H8.8v0H8.63Z"/><path class="cls-6" d="M9.27,9.78s0-.06,0-.07.14,0,.2,0,0-.05,0-.07.18,0,.17.15,0,0-.07,0V10s.05,0,.07,0v.25c-.07-.05-.1-.13-.17-.17s0,0,0-.07l-.12-.15C9.36,10,9.33,9.82,9.27,9.78Z"/><path class="cls-6" d="M10,9.65l0,.07h.2s0,0,0-.07h.14l-.22.26-.07,0c-.06,0-.08.1-.14.14a.27.27,0,0,0,0,.06c0,.09-.11.12-.15.2a.93.93,0,0,1,0-.25l.07,0V9.82s0,0-.07,0S9.87,9.64,10,9.65Z"/><path class="cls-3" d="M8.77,9.73s-.07,0-.1,0S8.79,9.67,8.77,9.73Z"/><path class="cls-6" d="M9.87,10.34c0-.07.12-.12.16-.2l.08,0c.06,0,.08-.1.13-.14s0,0,0-.09a1.34,1.34,0,0,0,.21-.24s0,.12,0,.17,0,0-.07,0v.19s.06,0,.07,0v.17c-.06,0-.08.09-.19.06s0,0,0-.07H10s0,.06,0,.07S9.89,10.36,9.87,10.34Z"/><path class="cls-4" d="M5.76,9.72a7.06,7.06,0,0,1,0,1.14c-.07,0,0-.17,0-.26V9.74Z"/><path class="cls-6" d="M9.22,9.85s.07.07.1.11a.06.06,0,0,1,0,.06,1.05,1.05,0,0,0,.14.15s.05,0,.06,0a2.57,2.57,0,0,1,.19.2H9.55a.22.22,0,0,0,0-.07h-.2s0,.05,0,.07-.14,0-.19-.07v-.16s.06,0,.07,0,0-.15,0-.19S9.21,9.87,9.22,9.85Z"/><path class="cls-6" d="M9.73,9.86H9.8V10H9.73Z"/><path class="cls-6" d="M8.46,10c0,.35.09,1,0,1.27a.34.34,0,0,1-.21.2V9.92S8.39,10,8.46,10Z"/><path class="cls-3" d="M12.11,9.92v.94A7,7,0,0,1,12.11,9.92Z"/><path class="cls-4" d="M12.11,9.92s0,0,.09,0v.72c0,.06,0,.17,0,.2h0Z"/><path class="cls-6" d="M10.44,9.94h.06V10h-.06Z"/><path class="cls-6" d="M9.09,10V10H9v0S9.07,10,9.09,10Z"/><path class="cls-6" d="M10.14,10s-.05.1-.1.06S10.1,10,10.14,10Z"/><path class="cls-6" d="M9.49,10.06l0,0C9.32,10,9.45,9.91,9.49,10.06Z"/><path class="cls-3" d="M8.49,10a1.72,1.72,0,0,0,.21,0c0,.47,0,1-.19,1.21C8.47,10.91,8.49,10.46,8.49,10Z"/><path class="cls-6" d="M4.86,10.18c0-.06.08-.09.14-.12s.14.27,0,.32C5,10.26,4.91,10.25,4.86,10.18Z"/><path class="cls-5" d="M9.66,10.34c.17-.22.35.23,0,.14a.15.15,0,0,1,0-.12Z"/><path class="cls-6" d="M9.09,10.35s0,.08-.06.07a.08.08,0,0,1,0-.06A.09.09,0,0,1,9.09,10.35Z"/><path class="cls-6" d="M10.44,10.35s.06,0,.07,0v0S10.4,10.4,10.44,10.35Z"/><path class="cls-6" d="M9.36,10.36s.1,0,.11,0-.07,0-.11,0Z"/><path class="cls-6" d="M10.06,10.36s.1,0,.11,0-.07,0-.11,0Z"/><path class="cls-6" d="M9.66,10.43a1.76,1.76,0,0,1-.16.2s0,0-.06,0a1.17,1.17,0,0,0-.14.15s0,0,0,.06-.07.13-.16.15,0-.06,0-.1,0,0,.06,0v-.19s0,0-.07,0,.06-.19.2-.17,0,0,0,.07h.2s0-.06,0-.07Z"/><path class="cls-6" d="M9.88,10.43H10l0,.07h.2a.11.11,0,0,0,0-.07c.14,0,.22,0,.2.17,0,0,0,0-.07,0s0,.14,0,.19.05,0,.07,0,0,.06,0,.11-.12-.1-.2-.14,0,0,0-.06-.09-.08-.11-.15S9.94,10.51,9.88,10.43Z"/><path class="cls-6" d="M9.71,10.5a1.47,1.47,0,0,1,0,.31l-.07,0V11s0,0,.07,0v.24a.11.11,0,0,0-.06,0l-.1,0s0,0,0-.06-.13,0-.17-.1-.05,0-.06.05,0-.27.06-.34,0,0,.06,0a.8.8,0,0,0,.14-.15s0,0,0-.07A.64.64,0,0,0,9.71,10.5Z"/><path class="cls-6" d="M9.81,10.5a1.46,1.46,0,0,1,.15.16c-.06.11.06.15.1.22a.26.26,0,0,1,.09,0c.09.09.19.23.06.32a.05.05,0,0,1-.06,0,.52.52,0,0,1-.19.09s0,0,0,.09-.1,0-.16,0V11s0,0,.07,0v-.2s-.05,0-.07,0Z"/><path class="cls-3" d="M6.58,10.54v.15A.18.18,0,0,1,6.58,10.54Z"/><path class="cls-6" d="M9,10.66h0s0,.06,0,.1H9Z"/><path class="cls-6" d="M10.45,10.66h0v.1h-.06S10.43,10.68,10.45,10.66Z"/><path class="cls-6" d="M9.5,10.71s-.05.09-.1.06S9.46,10.66,9.5,10.71Z"/><path class="cls-6" d="M10.06,10.69s.06,0,.07.09-.09,0-.1-.06S10.05,10.7,10.06,10.69Z"/><path class="cls-3" d="M5.21,10.87h.7A4.12,4.12,0,0,1,5.21,10.87Z"/><path class="cls-6" d="M9.73,10.88H9.8V11C9.73,11,9.73,10.94,9.73,10.88Z"/><path class="cls-3" d="M5.95,10.94a2,2,0,0,1-.77,0A3.15,3.15,0,0,1,5.95,10.94Z"/><path class="cls-3" d="M12.25,10.94c-.08.07-.23,0-.36,0a2.22,2.22,0,0,1-.38,0s0,0,0,0A3.16,3.16,0,0,1,12.25,10.94Z"/><path class="cls-3" d="M5.92,11s0,.09,0,.1c-.24,0-.52,0-.78,0-.05,0,0-.06,0-.11Z"/><path class="cls-3" d="M12.25,11.07s0,0,0,0c-.24,0-.53,0-.79,0,0,0,0-.06,0-.11h.72A.09.09,0,0,0,12.25,11.07Z"/><path class="cls-3" d="M6,11.12v.22h-1v-.22Z"/><path class="cls-3" d="M12.33,11.12v.22h-.94v-.22Z"/><path class="cls-6" d="M9.39,11.24s0,0,.09,0,0,0,0,.06-.06,0-.09,0S9.39,11.27,9.39,11.24Z"/><path class="cls-7" d="M8.86,11.27a.08.08,0,0,0,0,.06.19.19,0,0,1-.09.37s0,0,0,.07a.51.51,0,0,1,.51-.07.58.58,0,0,1-.49.11c0,.05,0,.11-.11.1s0-.05,0-.09a.59.59,0,0,1-.49-.16.61.61,0,0,1,.51.11s0,0,0-.06c-.18,0-.29-.31-.09-.37,0,0,0,0,0-.06S8.74,11.29,8.86,11.27Zm-.1.06s0,0,0,0a.14.14,0,0,1-.12,0,0,0,0,0,1,0,0c-.22,0-.12.38.07.31-.11,0-.07-.33,0-.32s.09.31,0,.34a.17.17,0,0,0,.06-.34s0,0,0,0S8.78,11.33,8.76,11.33Zm0,.32c.06,0,.08-.24,0-.27A.2.2,0,0,0,8.73,11.65Z"/><path class="cls-6" d="M10.16,11.27c0,.06-.07.07-.1.06s0,0,0,0S10.12,11.24,10.16,11.27Z"/><path class="cls-6" d="M8.72,11.38c.09,0,.07.22,0,.27A.2.2,0,0,1,8.72,11.38Z"/><path class="cls-3" d="M4.9,11.39v.51A2.26,2.26,0,0,1,4.9,11.39Z"/><path class="cls-3" d="M8.57,12h.3A.65.65,0,0,1,8.57,12Z"/><path class="cls-3" d="M7.33,4.89s.09,0,.1,0h0s0,0,0,0S7.34,4.92,7.33,4.89Z"/><path class="cls-3" d="M6.8,11.34a1.12,1.12,0,0,1,.15.15A.93.93,0,0,1,6.8,11.34Z"/><path class="cls-3" d="M11.51,8.66c0,.06.06.27,0,.27C11.54,8.9,11.49,8.74,11.51,8.66Z"/><path class="cls-6" d="M12.37,10.39c0-.07-.07-.29,0-.33a.27.27,0,0,1,.14.11c0,.09-.21.15-.15.26Z"/><path class="cls-3" d="M12.22,9.56a.77.77,0,0,1,0-.37A2.3,2.3,0,0,0,12.22,9.56Z"/><path class="cls-3" d="M11.52,7.49v.4c0,.13,0,.38-.06.36.08,0,0-.25,0-.37A2.06,2.06,0,0,1,11.52,7.49Z"/><path class="cls-3" d="M10.81,5.77s0,0,0,.07l0,0s0-.07.06-.09A0,0,0,0,0,10.81,5.77Z"/><path class="cls-3" d="M8.77,4.19s0,.11,0,.14S8.75,4.21,8.77,4.19Z"/><path class="cls-5" d="M8.77,4.08s.08,0,.1,0v.1h-.1s0,.13,0,.14a.18.18,0,0,1,0,.3s-.05,0-.06,0,0,0,.06,0,0,0,.07,0,0,.07,0,.11a.9.9,0,0,1,.89.11s0-.1,0-.06,0,.05,0,.06,0,0,.06,0a0,0,0,0,0,0,0c.06-.07.09.15,0,.07,0,.08.11,0,.2,0s.1,0,.11,0c.51,0,1,.33.75.84,0,0,0,.06-.06.09l0,0s0,0,0-.07,0,0,.07,0,0,0,0,0,0,.09-.07.07a.61.61,0,0,0,0,.09.25.25,0,0,0-.27.22c-.16,0-.2.21-.38.22,0,0,0,.06,0,.09s-.09,0-.11,0,0,.06,0,.07-.08,0-.1.06,0,.07,0,.15a1.78,1.78,0,0,1-.56.12c.43,0,.91,0,1.35,0V8.32a2.6,2.6,0,0,1,.61-.07c.1,0,.06-.23.06-.36v-.4h.69c0,.28,0,.59,0,.84.11.08.45.13.48.31a1.1,1.1,0,0,1-.21.48.81.81,0,0,1-.26.06.77.77,0,0,0,0,.37c.13.09.32.12.42.25s-.05.25-.06.38-.19.12-.16.24h0c-.06-.11.11-.17.15-.26a.27.27,0,0,0-.14-.11c-.12,0-.08.27,0,.33a.27.27,0,0,1,0-.35s-.1-.05-.15-.07h0c-.07,0,0,.14,0,.21s0,.5,0,.71c-.22,0-.48,0-.68,0,0-.4,0-.83,0-1.21-.07-.11-.26-.12-.3-.26s0-.24.05-.38a.61.61,0,0,1,.21-.07c.09,0,0-.21,0-.27a2.59,2.59,0,0,0-.66.1v2c-.08,1-1,1.14-2,1.26h-.3A3.23,3.23,0,0,1,7,11.49a1.12,1.12,0,0,0-.15-.15,1,1,0,0,1-.22-.65V8.77a1.88,1.88,0,0,0-.66-.11.92.92,0,0,0,0,.25C6,9,6.1,9,6.17,9s0,.26,0,.38a.85.85,0,0,1-.31.25v1.24h-.7V10C5.14,10,5.09,10,5,10a.27.27,0,0,1,0,.4.25.25,0,0,0-.16-.21c0-.14-.1-.28-.07-.39s.29-.16.42-.25V9.2a.76.76,0,0,1-.3-.1,1.87,1.87,0,0,0,.28.08,1.36,1.36,0,0,0,0-.3A.24.24,0,0,0,4.88,9s0,0,0,.09h0c0-.15-.2-.3-.17-.45s.33-.24.48-.3V7.49h.7v.76a2,2,0,0,1,.67.09V6.94H7.92c-.18-.06-.43,0-.56-.15s0-.07,0-.12-.06,0-.1-.06,0,0,0-.07-.08,0-.12,0V6.39c-.19,0-.22-.18-.38-.22S6.72,5.94,6.54,6c0,0,0-.09,0-.1s-.1,0-.1,0,0-.07,0-.07h0s0,.09,0,.09,0-.07,0-.09c-.3-.46.23-.89.74-.87,0,0,.07,0,.1,0s.17.06.21,0-.1,0-.06,0,0,0,0,0v0h0s-.05,0,0,.06h0s0-.09,0-.07.05,0,0,.09a.86.86,0,0,1,.89-.1c0-.06-.08,0,0-.11s.11,0,.14,0-.14-.12-.11-.23.19-.11.14-.24-.07,0-.1,0V4.08h.1V4s0,.06,0,.1h-.1v.09s.09,0,.1,0a1.34,1.34,0,0,1,0,.28H8.52c0,.11.39.12.36,0s-.11,0-.14,0V4.18h.11V4.1s-.07,0-.11,0,0-.1,0-.1S8.74,4.08,8.77,4.08ZM10.9,5.84c0-.06,0-.07-.07,0A0,0,0,0,0,10.9,5.84Zm0,.11c0-.13-.16-.12-.24-.06v0c-.08,0-.07.11-.07.21S10.67,5.9,10.85,5.95Zm-.38.21c-.11.1-.34.25-.41,0-.1.12-.47.05-.37-.2,0,0,0,0-.08,0,0,.27-.4.26-.43,0-.08.19-.48.19-.43-.11H8.67c0,.3-.35.3-.43.11,0,.22-.45.24-.43,0,0,0,0,0-.07,0,0,.17-.07.29-.27.26,0,0-.07-.08-.11-.06-.06.24-.29.07-.39,0,0,.18.35.33.43.11a.31.31,0,0,0,.31,0s.08-.12.11-.12.05.06.09.07.25,0,.37-.09c.11.14.38.06.46,0,0,.15.34.16.45,0a.32.32,0,0,0,.46,0,.31.31,0,0,0,.42.12C10.11,6.49,10.49,6.32,10.47,6.16Zm-.37.44c0-.08-.11-.08-.14,0S10,6.64,10.09,6.6Zm2.55,2a2.24,2.24,0,0,0-1.8-.23v.39A1.8,1.8,0,0,1,12.56,9C12.61,8.84,12.75,8.7,12.64,8.58Zm-.43.26s.11,0,.12,0l-.11-.05A.07.07,0,0,0,12.21,8.84Zm-1,.22c0,.11,0,.22,0,.32.26.33.83.43,1.2.65,0,0,.1.08.15.07s0-.2.06-.28C12.23,9.51,11.6,9.43,11.26,9.06ZM6.18,9.4c0-.07,0-.22,0-.32a3,3,0,0,1-.77.43c-.13.05-.57.18-.61.32s.07.2.05.3C5.14,9.87,6,9.76,6.18,9.4ZM4.83,8.53c-.18.14,0,.29,0,.46a1.79,1.79,0,0,1,1.71-.25V8.35A2.42,2.42,0,0,0,4.83,8.53ZM7.25,6.47a6.28,6.28,0,0,1,1.49-.17,7.32,7.32,0,0,1,.78,0,6.77,6.77,0,0,0,.69.11.54.54,0,0,0-.31-.12,5.87,5.87,0,0,0-2.69.1v0Zm-.37-.41a.24.24,0,0,0,0-.21s0,0,0,0-.21-.05-.21.06C6.75,5.91,6.73,6.09,6.88,6.06ZM8.56,4.72s0-.08,0-.07S8.49,4.73,8.56,4.72Zm.32,0a.06.06,0,0,0,0-.06h0S8.82,4.73,8.88,4.72Zm-.07,0a.19.19,0,0,0-.21,0c-.13.1,0,.54-.11.67s.11.15.14.11-.08-.07-.07-.15,0-.46.1-.59c.28-.05.1.46.21.62s-.1.07-.07.12.11-.07.14-.12S8.94,4.81,8.81,4.7Zm-.28.24V4.87c-.21-.18-.77-.11-.85.15,0,.09,0,.31.1.3s0,0,0,0a.6.6,0,0,1,.09.08s0,.09-.09.12,0,0,0,.09,0,0,.09,0,0,.14,0,.19.1-.05.16-.07,0,0,0,.06a.2.2,0,0,1,.15,0s-.05.08-.11.09S8.07,6,8,6a.56.56,0,0,1-.22,0c0,.26.38.27.4.06,0,0,0,0,0-.1s0,0,.06-.05.06.1,0,.16.48.08.36-.15A.54.54,0,0,1,8.39,6s0,0,0-.07a.22.22,0,0,1-.15-.07.2.2,0,0,1,.15-.09s0-.05,0-.06.15.06.2,0a1,1,0,0,1-.07-.2s.07,0,.07,0l-.14-.14a.69.69,0,0,0,0-.21s-.07,0-.07,0h.07V5.06S8.52,5,8.52,4.93Zm-.32,1s0,.11,0,.11S8.29,5.86,8.2,5.88Zm.07-1.12c.09,0,.17.07.25.06S8.3,4.7,8.18,4.7c-.48,0-.79.42-.46.74,0,0-.05.06,0,.09s.07-.08.1-.12C7.41,5.1,7.81,4.7,8.27,4.76Zm1.41.65a.35.35,0,0,0,.14-.24c0-.37-.39-.52-.72-.47-.08,0-.22,0-.23.14.33-.16,1-.12.89.38a.88.88,0,0,1-.15.2s0,.13.1.1S9.68,5.46,9.69,5.41ZM8.78,5a1.19,1.19,0,0,0,0-.21c-.19-.14-.15.2-.16.36s-.09.27,0,.26,0-.08,0-.15.05-.06.09-.09c-.23-.14.25-.16,0,0,.06,0,.07,0,.09.09s0,.07,0,.14S8.79,5.13,8.78,5Zm.84.33h.06c.28-.46-.48-.69-.81-.45a1.37,1.37,0,0,0,0,.27s0,0,.05,0H8.89c0,.09,0,.14,0,.22s-.09.08-.12.14.07,0,.09,0-.07.15-.06.2a.38.38,0,0,1,.2,0s0,0,0,.06a.27.27,0,0,1,.16.09A.5.5,0,0,1,9,5.9S9,6,9,6a.58.58,0,0,1-.25-.09c-.09.25.29.33.37.15s0-.15,0-.16,0,0,.05.06,0,.05,0,.1c0,.2.43.17.4-.07a.64.64,0,0,1-.24,0s0,0,0-.06-.1,0-.11-.1l.15,0s0-.06,0,0a.82.82,0,0,1,.16.07c0-.07,0-.12,0-.19s0,0,.09,0,0-.15-.06-.22a.17.17,0,0,0,.09-.08S9.63,5.33,9.62,5.32Zm-.46.57s0,.12,0,.11S9.25,5.88,9.17,5.88Zm-1.93-1c-.42,0-.83.34-.55.74,0,0-.08.08,0,.14s.08-.11.12-.16a.24.24,0,0,1-.1-.14c-.13-.44.46-.54.8-.54C7.42,4.89,7.31,4.91,7.24,4.92Zm.25,0s0,0,.06,0a.06.06,0,0,0,0-.07S7.49,4.93,7.48,5Zm2.38,0a.06.06,0,0,0,0,.07s0,0,.06,0S9.9,4.91,9.86,4.92Zm.07,0c.46-.08,1.07.27.7.68,0,0,.07.16.12.15s0-.09,0-.15c.33-.45-.24-.8-.78-.73Zm-.09.13s0,0,0-.06-.06-.1-.09-.09S9.82,5,9.85,5.09ZM7.5,5.17a.07.07,0,0,1,0,.12c.08,0,.08.06.06.12s.08,0,.11,0-.11-.17-.12-.3a1,1,0,0,1,0-.22C7.52,5,7.57,5.11,7.5,5.17Zm0-.06s0,0,0,0,.09,0,.07-.08c-.45-.06-1,.09-.82.55,0,0,0,0,.06,0a0,0,0,0,1,0,0c0,.06.05,0,0,.1s-.07.11-.1.17.09,0,.14,0,.07.11.1.17a.53.53,0,0,1,.17-.11v.06a.23.23,0,0,1,.16,0,.49.49,0,0,1-.1.1s0,0,0,0-.14,0-.19,0,.29.21.31,0-.06-.06,0-.15.13,0,.11.12.41,0,.32-.2a2,2,0,0,1-.22.1A.09.09,0,0,1,7.5,6a.23.23,0,0,1-.15,0,.12.12,0,0,1,.11-.09s0-.06,0-.08.15,0,.19,0a.7.7,0,0,1-.1-.16h.08c0-.07,0-.09,0-.14s-.11,0-.1-.11a.67.67,0,0,0-.26-.06c.06,0,.17,0,.18,0s-.05,0,0-.09.05,0,0-.1,0,0,0,0,0,0,0,0,0,0,0-.06a.06.06,0,0,0-.08,0Zm3.12.4.11.06c.18-.45-.35-.63-.8-.56,0,0,.07,0,0,0s-.06,0-.05.06h.05s0,0,0,0v0s0,.1,0,.16-.07,0-.06.07.11,0,.17,0a.66.66,0,0,0-.24.06s0,.05,0,.1-.05,0-.07,0,0,.09,0,.15.08,0,.09,0-.06.11-.1.16l.19,0s0,0,0,.08a.15.15,0,0,1,.11.09.26.26,0,0,1-.15,0s0,.05,0,.06S9.79,6,9.71,6c-.09.22.2.34.32.2S10,6,10.11,6a.05.05,0,0,1,0,0c0,.08,0,.08,0,.16s.25,0,.31-.07l-.2,0s0,0,0-.06a.13.13,0,0,1-.1-.1.4.4,0,0,1,.16,0s0-.06,0-.06l.17.11a.16.16,0,0,1,.1-.17s.06,0,.1,0-.07-.12-.1-.18.06,0,.06-.08A.22.22,0,0,1,10.58,5.5Zm-.69-.31s0,0,0,0,0,0,.07,0S9.93,5.18,9.88,5.19ZM8.65,5.12s.13,0,.11,0S8.62,5,8.65,5.12Zm1.09.36c0-.08.06-.06.1-.07s0,0,0-.06.06,0,.09-.06,0-.1,0-.12,0,0-.06,0C9.88,5.28,9.7,5.37,9.73,5.48Zm-1.1-.26v.07a.1.1,0,0,0,.14,0C8.8,5.18,8.68,5.16,8.63,5.22Zm-1.13,0a.05.05,0,0,0-.06,0C7.47,5.3,7.57,5.23,7.51,5.19Zm-.88.54s0,0,0-.09a.47.47,0,0,1-.07-.41C6.5,5.37,6.49,5.65,6.63,5.74Zm4.18-.47s0,0,0,0a.43.43,0,0,1-.06.4s0,.07.06.08A.43.43,0,0,0,10.81,5.27ZM7.5,5.33v0C7.59,5.43,7.59,5.26,7.5,5.33Zm2.34,0v0C9.92,5.43,9.92,5.26,9.83,5.33Zm-1.2.22s-.07,0-.09,0,0,.16.1.2.11,0,.14,0a.7.7,0,0,0,.07-.21s0,0-.07,0,0-.14-.1-.15S8.63,5.48,8.63,5.55Zm.14-.12c0-.14-.21-.09-.12,0s0-.06.06-.06S8.73,5.43,8.77,5.43Zm-1.19,0s0,0,0,0,0,0,.07,0S7.63,5.42,7.58,5.43Zm2.17,0s.07,0,.09,0A0,0,0,0,0,9.75,5.46Zm-2.12.21s-.06,0-.07,0,.06.11.1.15a.25.25,0,0,1,.15,0c0-.06,0-.11,0-.17s0,0-.07,0a.13.13,0,0,0-.09-.11S7.66,5.64,7.63,5.67Zm2,0s0,0,0,0a.77.77,0,0,0,0,.17.29.29,0,0,1,.15,0,.48.48,0,0,0,.09-.16s0,0-.07,0C9.79,5.47,9.67,5.57,9.64,5.66Zm-1.21.08c-.05,0-.12,0-.15.07s.18,0,.14.12c.14,0,.23,0,.21-.19a.67.67,0,0,0-.21-.08S8.43,5.71,8.42,5.74Zm.37,0a.18.18,0,0,1,0,.12c.06,0,.14.08.21,0s0-.06,0,0a.2.2,0,0,0,.15-.08A.6.6,0,0,0,9,5.74S9,5.67,9,5.67A.71.71,0,0,0,8.8,5.75Zm-.17.06a.09.09,0,0,0,.16,0C8.8,5.68,8.62,5.72,8.62,5.81Zm-.8,0a.19.19,0,0,1,0,.12A.47.47,0,0,0,8,6s0,0,0-.06.08,0,.11-.07A.2.2,0,0,0,8,5.8s0-.06,0-.06Zm1.49,0c0,.08.15,0,.1.14a.59.59,0,0,0,.17,0c0-.15,0-.16-.14-.2S9.33,5.77,9.3,5.82Zm-1.47.06c0-.06-.06-.08-.11-.06S7.84,6.08,7.83,5.88Zm1.9.06a.23.23,0,0,0,0-.1C9.58,5.7,9.54,6.06,9.73,5.95ZM7.5,5.87s-.11,0-.12.09a.22.22,0,0,0,.14,0s0,.07,0,.06.12,0,.15-.1,0-.06,0-.1a.4.4,0,0,0-.17,0S7.5,5.85,7.5,5.87Zm2.26,0s0,.07,0,.1A.42.42,0,0,0,9.91,6c0-.1.11,0,.13-.09s-.16-.05-.1-.14A.27.27,0,0,0,9.76,5.86Zm-2.87.21A.09.09,0,0,1,7,6.13c.07,0,.18,0,.21,0s0,0,0,0S7.19,6,7.22,6a.46.46,0,0,0-.15,0C7.07,5.87,6.9,6,6.89,6.07ZM10.34,6c-.05,0-.13,0-.15,0s.07.05.1.09a.06.06,0,0,0,0,0,.67.67,0,0,0,.21,0s0,0,.06-.07a.28.28,0,0,0-.19-.14Zm-3.06.09c0,.06,0,.11.07.1S7.34,6,7.28,6.06Zm2.77.1c.06,0,.07,0,.07-.07s0,0,0,0A.07.07,0,0,0,10.06,6.16Zm-3.12,0a.1.1,0,0,0-.12-.09C6.8,6.17,6.89,6.22,6.94,6.17Zm3.54,0s.14,0,.12-.07S10.48,6.11,10.48,6.17Zm-1.89,0c.08,0,.19,0,.25,0s-.09-.06-.14-.09S8.62,6.18,8.58,6.21Zm-.42,0s.14,0,.19,0S8.22,6.15,8.16,6.23Zm.9,0c.07,0,.15,0,.19,0A.11.11,0,0,0,9.07,6.22Zm-1.36.06a.89.89,0,0,0,.22,0,.32.32,0,0,1-.14-.07C7.78,6.23,7.73,6.23,7.71,6.28Zm1.78,0c.08,0,.16,0,.22,0a.36.36,0,0,1-.1-.1S9.52,6.22,9.49,6.26Zm-2.14.1a.38.38,0,0,0,.14,0C7.41,6.31,7.36,6.27,7.35,6.36Zm2.59,0s.11,0,.14,0S10,6.3,9.93,6.33Zm-2.62.16s.13,0,.19.05-.14.06-.09.15a5.93,5.93,0,0,1,2.18-.07,2.66,2.66,0,0,0,.42.06c.05-.07-.1-.1-.09-.13s.16,0,.19-.06A5.91,5.91,0,0,0,7.31,6.49Zm0,.1,0,0c.06,0,.08,0,.11-.06S7.32,6.54,7.31,6.59Zm.52,0a1,1,0,0,0-.46.14c.07.09.22.09.35.11a7,7,0,0,0,2,0c.12,0,.28,0,.33-.12A5,5,0,0,0,7.83,6.63ZM6.6,9.29H8a1.53,1.53,0,0,1,0-.3c-.33,0-.7,0-1,0V8.65H7.2V8s-.07,0-.07,0V7.7s.14,0,.15,0,0,0-.07-.07,0-.13,0-.16h.06c.08,0,0,0,.07,0s.06,0,.07,0,.06,0,.1,0v.17s-.09,0-.07,0v.05s.09,0,.12,0V7.38s-.07,0-.07,0,0-.13,0-.16.09,0,.1,0,.12,0,.11,0,.06,0,.1,0v.17H7.74V7.7s.13,0,.12,0v0s-.08,0-.07,0,0-.13,0-.16.08,0,.11,0,.11-.06.09,0,0-.05.11,0v.17c-.06,0-.09,0-.07.07s.13,0,.15,0V8H8.11v.61s.16,0,.15,0a.77.77,0,0,1,.43-.17V7H6.6ZM8.72,7V8.51a.72.72,0,0,1,.69.78h1.41V7H8.75S8.72,7,8.72,7Zm-1.2.31h.27s0-.07,0-.06-.07,0-.12,0-.07,0-.1,0h0Zm0,0v0c.08,0,.23,0,.27,0A.31.31,0,0,0,7.52,7.35Zm.2,0s-.11,0-.12,0S7.7,7.41,7.72,7.38Zm-.08.09V7.42h0S7.6,7.48,7.64,7.47Zm.08,0V7.42h0S7.68,7.48,7.72,7.47Zm-.5.06H7.5s0-.08,0-.06-.07,0-.12,0-.07,0-.1,0h0Zm.59,0h.27s0-.08,0-.06-.07,0-.11,0-.09,0-.11,0h0Zm-.22,0h.12V7.49H7.59ZM5.7,8.25V7.52H5.23v.82A4,4,0,0,1,5.7,8.25Zm0-.73v0c0,.17,0,.38,0,.54s0,.14,0,.15a2.3,2.3,0,0,0,0-.57c0-.05,0-.15,0-.16Zm.07.73h.1c0-.22,0-.49,0-.73H5.79Zm6.22,0V7.52h-.48v.73A3.66,3.66,0,0,1,12,8.29Zm0-.73V8c0,.13,0,.28,0,.36a2.72,2.72,0,0,0,0-.61c0-.06,0-.17,0-.19h0Zm.09.76s.05,0,.07,0c0-.25,0-.55,0-.82h-.09A5,5,0,0,0,12.11,8.31ZM7.22,7.58v0c.08,0,.23,0,.27,0A.32.32,0,0,0,7.22,7.58Zm.87,0c0-.05-.19,0-.27,0S8.05,7.61,8.09,7.58Zm-.5,0h0V7.57h0Zm.07,0h0V7.57h0Zm-.25,0s-.11,0-.12,0S7.41,7.65,7.42,7.62Zm.6,0s-.11,0-.12,0S8,7.65,8,7.62Zm-.67.09v0h0S7.3,7.71,7.35,7.7Zm.07,0v0h0S7.38,7.71,7.42,7.7Zm.17,0s.14,0,.12,0-.09,0-.12,0Zm.34,0v0h0S7.9,7.71,7.94,7.7Zm0,0H8v0H8Zm-.82.07a.11.11,0,0,0,.11,0c0-.06-.06,0-.11,0Zm.14.12s.12,0,.15,0V7.73H7.27A.81.81,0,0,1,7.28,7.9Zm.17-.12s.13,0,.1,0h-.1Zm.12.12h.14s0-.13,0-.17H7.58Zm.17-.12s.11,0,.1,0-.06,0-.1,0Zm.12.11s.1,0,.15,0a1.24,1.24,0,0,1,0-.17H7.87A.61.61,0,0,1,7.88,7.89Zm.17-.11s.07,0,.11,0V7.73h-.1A.06.06,0,0,1,8.05,7.78Zm-.9.09h0V7.8h0Zm.1,0s0,0,0-.06h0S7.21,7.88,7.25,7.86Zm.25,0V7.8h0S7.43,7.87,7.5,7.86Zm0,0s0,0,0-.06h0S7.5,7.88,7.55,7.86Zm.2,0h0V7.8S7.74,7.83,7.74,7.86Zm.1,0s0,0,0-.06h0S7.8,7.88,7.84,7.86Zm.24,0s0,0,0-.06h0S8,7.88,8.08,7.86Zm0,0h0V7.8h0Zm-1,.07s.14,0,.12,0-.08,0-.12,0Zm.3,0h.12c0-.07-.07,0-.12,0Zm.3,0s.14,0,.12,0-.09,0-.12,0Zm.3,0s.14,0,.12,0S8,7.88,8,7.94Zm-.62,0s-.11,0-.12,0S7.41,8,7.42,7.93Zm.3,0s-.11,0-.12,0S7.7,8,7.72,7.93Zm.31,0s-.11,0-.14,0S8,8,8,7.93ZM7.2,8V8h0S7.15,8,7.2,8Zm0,0s.14,0,.12,0-.09,0-.12,0Zm.15,0s.14,0,.12,0-.09,0-.12,0Zm.15,0s.14,0,.12,0-.09,0-.12,0Zm.15,0s.14,0,.12,0-.09,0-.12,0Zm.15,0S8,8,7.94,8s-.08,0-.12,0ZM8,8s.14,0,.12,0S8,8,8,8Zm.2,0V8h0S8.12,8,8.16,8Zm-.94.09h0V8h0Zm.07,0h.12V8H7.3Zm.15,0h.12V8H7.45Zm.15,0h.12V8H7.59Zm.15,0h.12V8H7.74Zm.15,0s.14,0,.14,0-.09,0-.14,0ZM8,8.1h.05V8H8Zm-.82.08a.08.08,0,0,0,.1-.05h-.1Zm.3,0s.14,0,.12,0-.09,0-.12,0Zm.15,0s.14,0,.12,0-.09,0-.12,0Zm.42,0s-.09,0-.1,0S8.1,8.21,8.09,8.14Zm-.27.28a.35.35,0,0,0,.2,0V8.21c-.06,0,0,.17,0,.21s-.13,0-.17,0a.46.46,0,0,1,0-.27C7.79,8.18,7.82,8.32,7.82,8.42Zm-.59-.17h.06v0H7.22Zm.27.18V8.2s0,.15,0,.22-.14,0-.17,0V8.22s0,.13,0,.19S7.43,8.42,7.5,8.43Zm0-.18h0v0s-.07,0-.06,0S7.52,8.23,7.52,8.25Zm.07,0s.14,0,.12,0-.09,0-.12,0Zm.15,0s.06,0,.06,0H7.74Zm.35,0v0H8S8,8.26,8.09,8.25Zm-.87.09s.07,0,.06-.06H7.22Zm.3,0h.12V8.27H7.52Zm.15,0h.12V8.27H7.67Zm.37,0h.05V8.27H8Zm-.82.07h.06s0-.07-.06-.06Zm.3,0h0V8.35h0Zm.07,0h.12V8.35H7.59Zm.15,0h0V8.35h0Zm.3,0h.05V8.35H8Zm-.82.09s.12,0,.12,0-.08,0-.12,0Zm.3,0h.12V8.43H7.52Zm.15,0h.12V8.43H7.67Zm.3,0s.09,0,.12,0V8.43S8,8.42,8,8.48Zm-.6,0s.14,0,.12,0-.09,0-.12,0Zm.45,0s.14,0,.12,0-.08,0-.12,0Zm-.55.07v0h0S7.23,8.58,7.27,8.57Zm0,0s.14,0,.12,0-.09,0-.12,0Zm.15,0s.14,0,.12,0-.09,0-.12,0Zm.15,0s.14,0,.12,0-.09,0-.12,0Zm.15,0s.14,0,.12,0-.09,0-.12,0Zm.15,0s.15,0,.14,0-.09,0-.14,0Zm.2,0v0H8S8,8.58,8.09,8.57Zm.23,1.35a.68.68,0,0,0,1.06-.53.7.7,0,0,0-.75-.84A.79.79,0,0,0,8.32,9.92ZM7.59,8.59s0,0,0,.08h.07s0,0,0-.08Zm-.37.05s.14,0,.12,0-.09,0-.12,0Zm.15,0s.14,0,.12,0-.09,0-.12,0Zm.15,0s.05,0,0,0h0Zm.3,0s.14,0,.12,0-.08,0-.12,0Zm.15,0s.14,0,.12,0S8,8.6,8,8.59Zm-.46,0c.06,0,0,0,.1,0s0-.05,0-.06S7.51,8.65,7.51,8.68Zm.2,0s.07,0,.1,0,0,0-.09,0S7.7,8.67,7.71,8.69Zm-1.93.63a3.42,3.42,0,0,0,0-.67c-.07.07,0,.2,0,.32v.36s0,0,0,0A.06.06,0,0,1,5.77,9.33Zm.12-.67H5.8c0,.19,0,.43,0,.64.05,0,0,0,.1,0C5.88,9.05,5.91,8.87,5.9,8.66Zm5.63,0v.59a4,4,0,0,0,.48.24V8.72A2.06,2.06,0,0,0,11.53,8.66ZM5.7,9.35V8.67a2.62,2.62,0,0,0-.47.1c0,.26,0,.55,0,.79A4,4,0,0,0,5.7,9.35Zm1.36-.62h.06V8.67H7.06Zm.09,0h.12V8.67H7.15Zm.15,0h.12V8.67H7.3Zm.15,0s.08,0,.09,0,0-.06-.08-.07A.25.25,0,0,0,7.45,8.77Zm.33,0s0,0,.09,0,0-.09,0-.1S7.78,8.7,7.78,8.74Zm.11,0H8V8.67H7.89Zm.15,0h.12V8.67H8Zm.15,0c.05,0,.06,0,.06-.06H8.19Zm3.84,0v.4c0,.12,0,.31,0,.35a2.17,2.17,0,0,0,0-.4c0-.14,0-.3,0-.38h0Zm.09,0a4.67,4.67,0,0,0,0,.77l.09,0V8.77S12.12,8.73,12.11,8.75Zm-5,.05s.15,0,.14,0-.1,0-.14,0Zm.16,0s.14,0,.12,0-.09,0-.12,0Zm.15,0h.07a.06.06,0,0,0-.07-.05Zm.5,0h.07V8.75A.06.06,0,0,0,7.87,8.81Zm.1,0s.14,0,.12,0-.09,0-.12,0Zm.15,0c.06,0,.07,0,.09-.05H8.11Zm-3,0h.12s0-.06,0-.06S5.11,8.81,5.08,8.84ZM7.5,9s0-.17,0-.17S7.46,9,7.5,9Zm.32,0s0-.17,0-.17S7.78,9,7.82,9Zm-.69-.07V8.83H7.06S7.07,8.9,7.12,8.89Zm0,0h.12V8.83H7.15Zm.15,0s.14,0,.15,0v0s-.1,0-.15,0Zm.57,0s.18,0,.16,0-.11,0-.16,0Zm.19,0c.07,0,.08,0,.1-.06H8A.08.08,0,0,0,8.05,8.89ZM12.53,9c0-.11-.15-.21-.32-.16,0,.12,0,.2,0,.31S12.53,9.15,12.53,9ZM7.06,8.92V9H7.2V8.9S7.09,8.89,7.06,8.92Zm.16,0h.12V8.9H7.22Zm.15,0h.07V8.9H7.37Zm.5,0h.07V8.9H7.87ZM8,9h.12V8.9H8Zm-2,.27c.07-.07.19-.1.22-.21S6,9,5.91,8.94A1.31,1.31,0,0,0,5.92,9.24ZM11.27,9a.38.38,0,0,0,.25.21c0-.11,0-.18,0-.28A.64.64,0,0,0,11.27,9ZM6.6,9.35a7.92,7.92,0,0,0,.07,1.72c0,.08.09.21.14.2v-2C6.75,9.33,6.61,9.27,6.6,9.35Zm.24,0v1.47a2.36,2.36,0,0,0,0,.5c0,.07.16.19.21.17V9.33S6.84,9.28,6.84,9.35Zm.22,0v2.16a.55.55,0,0,0,.24.12V9.31H7.09A0,0,0,0,0,7.06,9.35Zm.25,0c0,.74,0,1.54,0,2.3a.54.54,0,0,0,.2,0V9.31C7.45,9.33,7.32,9.28,7.31,9.35Zm.24,0V11.7h.22V9.31H7.56S7.54,9.33,7.55,9.35Zm.25,0v2.34c.08,0,.11,0,.19,0,0-.76,0-1.57,0-2.35H7.81S7.79,9.33,7.79,9.35Zm1.6.15s0,0,0,.07,0,0,0,0,0,.07,0,.1,0,.05,0,.07,0,0,0,.06,0,0,0,.06,0,0-.07,0S9,10,9,10,9,10,8.94,10a.93.93,0,0,1-.22,0c-.11.93.22,1.57,1,1.62a1,1,0,0,0,1.15-.9c0-.48,0-1,0-1.49H9.41A.43.43,0,0,1,9.39,9.5ZM8,11.64c.07,0,.21-.05.24-.12a1.9,1.9,0,0,0,0-.41V10.7a4.49,4.49,0,0,0,0-.82c0-.11-.13-.18-.17-.3s0-.14,0-.21C8,10.14,8,10.89,8,11.64Zm.26-1.72V11.5a.34.34,0,0,0,.21-.2c.08-.32-.06-.92,0-1.27C8.39,10,8.3,9.89,8.26,9.92Zm.25,1.37c.22-.25.19-.74.19-1.21a1.72,1.72,0,0,1-.21,0C8.49,10.46,8.47,10.91,8.51,11.29Zm.2-.42a1.07,1.07,0,0,1-1.25.85,3.61,3.61,0,0,0,2.53,0A1.08,1.08,0,0,1,8.71,10.87Zm2.82-1.21v1.2H12v-1A3.43,3.43,0,0,1,11.53,9.66Zm.54.24h0v.77c0,.07,0,.18,0,.21A5.07,5.07,0,0,0,12.07,9.89Zm0,1h0c.07,0,0-.13,0-.2V9.94s0,0-.09,0A7,7,0,0,0,12.11,10.86ZM5,10.38c.11-.05.08-.29,0-.32s-.11.06-.14.12S5,10.26,5,10.38Zm.87-.72s-.06,0-.1,0a10.21,10.21,0,0,0,0,1.15h.07C5.91,10.49,5.91,10,5.89,9.66Zm-.17.09v.86c0,.09,0,.23,0,.26a7.06,7.06,0,0,0,0-1.14Zm-.48.2v.91H5.7V9.76ZM6.56,5.77s-.05,0-.05.06a.06.06,0,0,0,.08,0S6.56,5.8,6.56,5.77Z"/><path class="cls-6" d="M4.9,9.09h0s0,0,0-.09a.24.24,0,0,1,.32-.12,1.36,1.36,0,0,1,0,.3,1.87,1.87,0,0,1-.28-.08S4.9,9.1,4.9,9.09Z"/><path class="cls-5" d="M8.16,4.65a.09.09,0,0,1-.1,0C8,4.53,8.2,4.53,8.16,4.65Zm0,0a0,0,0,0,0,0-.06s0,0,0,.06A.06.06,0,0,0,8.15,4.63Z"/><path class="cls-5" d="M9.2,4.61s0,.05-.1,0A.06.06,0,1,1,9.2,4.61Zm-.1,0s0,0,0,0h0a.07.07,0,0,0,0-.06S9.14,4.58,9.1,4.6Z"/><path class="cls-5" d="M9.34,4.6c0,.06,0,.07-.09.06S9.31,4.51,9.34,4.6Zm-.06,0s0,0,0,0v0h.06S9.33,4.58,9.28,4.57Z"/><path class="cls-5" d="M8.46,4.63a.06.06,0,0,1-.11,0A.06.06,0,0,1,8.46,4.63Zm-.09,0s0,0,0,.06.07,0,.06-.06Z"/><path class="cls-5" d="M9.06,4.63s0,0,0,.06-.07,0-.06-.08S9,4.58,9.06,4.63ZM9,4.67S9,4.66,9,4.61s-.06,0-.07,0S9,4.65,9,4.67Z"/><path class="cls-5" d="M9.49,4.62c0,.07-.09.08-.11,0S9.47,4.56,9.49,4.62Zm-.06,0c-.12.1.14.07,0,0Z"/><path class="cls-5" d="M9.62,4.65v.06l0,0s0,0-.06-.05A.06.06,0,0,1,9.62,4.65Zm0,0v0C9.52,4.6,9.52,4.76,9.61,4.7Z"/><path class="cls-5" d="M7.76,4.73c0,.05,0,.07-.09.06S7.72,4.64,7.76,4.73Zm-.06,0s0,0,0,0v.05a.06.06,0,0,0,.07,0A.05.05,0,0,0,7.69,4.71Z"/><path class="cls-6" d="M8.19,5.19a2.25,2.25,0,0,1,.25-.05s.05,0,.07,0a.69.69,0,0,1,0,.21l.14.14s0,0-.07,0a1,1,0,0,0,.07.2s-.11,0-.2,0,0,0,0,.06a.2.2,0,0,0-.15.09.22.22,0,0,0,.15.07s0,0,0,.07a.54.54,0,0,0,.25-.09c.12.23-.28.35-.36.15s0-.14,0-.16,0,0-.06.05,0,.09,0,.1c0,.21-.44.2-.4-.06A.56.56,0,0,0,8,6s0,0,0-.06.08-.05.11-.09a.2.2,0,0,0-.15,0s0,0,0-.06-.13,0-.16.07,0-.13,0-.19,0,0-.09,0,0,0,0-.09,0-.09.09-.12a.6.6,0,0,0-.09-.08s0,0,0,0l.3-.09Z"/><path class="cls-5" d="M7.2,4.88a.1.1,0,0,1-.09,0C7.09,4.72,7.29,4.81,7.2,4.88Zm-.07-.06s0,0,0,0h0a.07.07,0,0,0,0-.06S7.16,4.8,7.12,4.82Z"/><path class="cls-5" d="M10.13,4.82h0c.05.08-.09.1-.1,0a.05.05,0,0,0,0,0s.13,0,.08,0-.08,0-.06,0A0,0,0,0,0,10.13,4.82Z"/><path class="cls-5" d="M6.72,5c-.1,0,.13-.12.07,0s-.1,0-.06,0h0a.08.08,0,0,0,0-.06h0s0,0,0,0S6.71,5,6.72,5Z"/><path class="cls-3" d="M9.78,4.94s.06.07.09.09,0,0,0,.06S9.82,5,9.78,4.94Z"/><path class="cls-5" d="M10.71,5c0,.07-.08.07-.11,0A.06.06,0,0,1,10.71,5Zm-.07,0a.06.06,0,0,0,0,.07s0,0,.06,0S10.68,4.94,10.64,4.94Z"/><path class="cls-3" d="M7.59,4.94a1,1,0,0,0,0,.22c0,.13.12.22.12.3s-.05-.07-.11,0,0-.13-.06-.12a.07.07,0,0,0,0-.12C7.57,5.11,7.52,5,7.59,4.94Z"/><path class="cls-5" d="M6.68,5a.08.08,0,0,1,0,.09.09.09,0,0,1-.09,0C6.56,5,6.64,5,6.68,5Zm-.09,0s0,0,.06,0a.06.06,0,0,0,0-.07A0,0,0,0,0,6.59,5.08Z"/><path class="cls-5" d="M10.82,5.06c0,.07-.08.08-.11,0S10.81,5,10.82,5.06Zm-.07,0a.06.06,0,0,0,0,.07s.06,0,.06-.05S10.79,5,10.75,5Z"/><path class="cls-5" d="M6.59,5.15c0,.07-.08.07-.11,0A.06.06,0,0,1,6.59,5.15Zm-.09,0v.05a.08.08,0,0,0,.06,0s0,0,0,0S6.54,5.13,6.5,5.14Z"/><path class="cls-5" d="M10.9,5.15h0s0,0,0,.08-.07,0-.09,0,.09-.11.07-.06-.05,0-.06,0S10.92,5.22,10.9,5.15Z"/><path class="cls-5" d="M8.06,5.23a.22.22,0,0,1,.12,0Z"/><path class="cls-3" d="M6.59,5.24a.47.47,0,0,0,.07.41s0,0,0,.09S6.5,5.37,6.59,5.24Z"/><path class="cls-3" d="M10.8,5.74s0-.05-.06-.08a.43.43,0,0,0,.06-.4s0,0,0,0A.43.43,0,0,1,10.8,5.74Z"/><path class="cls-5" d="M6.78,5.51A1,1,0,0,1,7,5.43.72.72,0,0,1,6.78,5.51Z"/><path class="cls-6" d="M7,5.43a1.21,1.21,0,0,1,.32-.09.67.67,0,0,1,.26.06c0,.07,0,.13.1.11s0,.07,0,.14H7.53a.7.7,0,0,0,.1.16s-.13,0-.19,0,0,0,0,.08A.12.12,0,0,0,7.35,6,.23.23,0,0,0,7.5,6a.09.09,0,0,0,0,.06A2,2,0,0,0,7.71,6c.09.22-.2.34-.32.2S7.35,6,7.27,6s0,.1,0,.15-.23.06-.31,0,.14,0,.19,0,0,0,0,0a.49.49,0,0,0,.1-.1.23.23,0,0,0-.16,0V5.88A.53.53,0,0,0,6.91,6c0-.06,0-.15-.1-.17s-.07,0-.14,0,.07-.11.1-.17-.06,0,0-.1a0,0,0,0,0,0,0s0,0,0,0A.72.72,0,0,0,7,5.43Z"/><path class="cls-5" d="M10.44,5.44c.05,0,.07,0,.12,0S10.47,5.46,10.44,5.44Z"/><path class="cls-5" d="M11,5.4c0,.22-.19-.1,0,0Zm0,0c-.1-.1-.06.13,0,0Z"/><path class="cls-5" d="M11,5.54c0,.05,0,.1-.07.09s0,0,0,0S11,5.51,11,5.54Zm0,.06a.07.07,0,0,0,0-.06h0s0,0,0,.05S11,5.61,11,5.6Z"/><path class="cls-5" d="M6.53,5.74a.11.11,0,0,1-.1,0C6.4,5.62,6.56,5.62,6.53,5.74Zm0,0c0-.06,0-.07-.07-.05A0,0,0,0,0,6.52,5.72Z"/><path class="cls-5" d="M11,5.75s-.07,0-.09,0S11,5.65,11,5.75Zm0,0c0-.06,0-.07-.07-.05S10.93,5.75,11,5.72Z"/><path class="cls-3" d="M6.57,5.76s0,0,0,0,.09.05,0,.09S6.6,5.77,6.57,5.76Z"/><path class="cls-3" d="M5.21,6.5s.08,0,.09,0,.14.22.25.21-.08,0-.09,0,0,.05,0,.06-.07,0-.06,0h.06A.33.33,0,0,0,5.21,6.5Z"/><path class="cls-3" d="M5.92,6.82s0,0,0,0-.08,0-.09,0,0,0,0,0,.09,0,.12,0A.11.11,0,0,1,5.92,6.82Z"/><path class="cls-3" d="M5.61,6.57s0,0,0,0,0-.16,0-.17a.06.06,0,0,0,0,0s0,0,0,.09Z"/><path class="cls-3" d="M5.58,6.47v.12s0,0-.06,0,0-.1,0-.15,0,.09,0,.14S5.51,6.45,5.58,6.47Z"/><path class="cls-3" d="M11.41,6.64s-.05,0,0-.07,0,0,.07,0,0-.07.07-.09v.05s0,0,0-.05.15-.07.25,0a0,0,0,0,1,0,.06h-.12s0,0,0,0-.05,0,0,0h0s0,0-.07,0,0,0,0-.07,0,0,0,0,0,0,0,0,0,0-.07,0-.08,0-.07.07Z"/><path class="cls-3" d="M11.37,6.64s0,0,0,.06,0,0,0,0,0,0,0,0S11.35,6.66,11.37,6.64Z"/><path class="cls-3" d="M11.56,6.95s0,0,0,0-.15,0-.22,0,.12,0,.17,0S11.55,7,11.56,6.95Z"/><path class="cls-3" d="M12.22,6.82s0,0,0,0-.08,0-.09,0,0,0,0,0,.09,0,.12,0A.11.11,0,0,1,12.22,6.82Z"/><path class="cls-3" d="M12.17,6.49l.14,0s0,.05,0,.05,0,0,.09,0,0,0,0,0,0,0,0,0-.06,0-.07-.06,0,0,0,0a.07.07,0,0,0,0,0s0,0,0,0S12.17,6.51,12.17,6.49Z"/><path class="cls-5" d="M11.82,6.48h0s0,0,0-.06,0,0,0,0,0,0,0,0,0,0,.07,0,0,0,0,.05.06,0,.09,0h0s0,0-.07,0l0,0v0s.11,0,.12,0h-.12s-.06.07,0,.09,0,0,0,0,0,0,0,0,0,0-.07,0,0,.05.06.05,0-.06,0-.06,0,0,0,.06.08,0,.07,0-.07,0-.06,0,0,0,.06,0,0,0,0,0,0,0,0,0,0,0,0,0,0-.06,0-.05.06,0,.06.05a0,0,0,0,0,0,0s0,0,0,0h0a0,0,0,0,1-.07,0s0,0,0,.07,0,0,0,0,0,0-.07,0,0,0,0,0,0,0,0,0,0,0,0,.06h0s0,0,0-.06.07,0,.1,0,0,0,0-.07h0s0,0,0,0,0,.05,0,0,0,0,0,0,0,0,0,0a.06.06,0,0,1,0,0h0a0,0,0,0,0,0,0c0,.06-.08,0-.07.07s-.09,0-.12,0,0,0,0,0,.07,0,.09,0,0,0,0,0-.05.08-.06.14a0,0,0,0,0,0,0h.21v.26h-.06c0,.05-.1.12,0,.2l0,0h-.74l0,0s.05-.05.07-.09-.09-.06-.06-.11h-.09V7c.07,0,.17,0,.22,0s0,0,0,0,0-.08,0-.13.09-.06.06,0h0c0-.06-.07,0-.1,0s0,0,0,0a1,1,0,0,0-.11-.09s0,0,0,0,0,0,0,0,0,0,0-.06h0s0-.1.07-.07,0,0-.06,0,0,0,.1,0-.11,0-.11.09,0,0,0,0,.05,0,.06,0,0,0,0,.06,0-.05,0-.06,0,.06,0,0,0,0,0,0-.07,0-.06,0,0,0,0,0,0-.05,0-.07,0,0-.06,0,0,0,0,0,0,0,0,0,0,0,0,0,0,0,0,.07,0,0,.07,0,0,0,0,0,0,.08.1.09,0,0-.06,0,0,0,.06,0,0,0,0-.06,0,.06.06.06a0,0,0,0,0,0,0s0,0-.06,0,0-.06.06,0,0,0,0-.09-.11,0-.12,0h.11s0-.05,0-.08,0,.07,0,.11,0,0,.06,0V6.5s0,0,0,.07S11.87,6.48,11.82,6.48Zm.07,0s0,.09,0,.1S11.92,6.51,11.89,6.5Zm0,.11s0,0,0,0h0s0,0,0,0v0s0,0,0,0h0s0,0,0,0Zm-.25.11s0,0,0,.06.24,0,.25,0,.15,0,.09,0l.12,0s.08,0,0,0,0,0-.06,0a.19.19,0,0,1-.21,0C11.82,6.78,11.69,6.77,11.64,6.73Zm.19-.26s.07,0,.06,0,0-.1,0-.1S11.86,6.46,11.83,6.47Zm-.17.21s0-.05,0,0S11.61,6.69,11.65,6.68Zm.49.27c-.11-.08-.52-.08-.57,0A1,1,0,0,1,12.15,6.95Zm-.36-.15c-.17,0-.12,0,0,0Zm.27,0s-.11,0-.14,0S12,6.83,12.06,6.8Zm-.25,0s-.12,0-.15,0,0,0,0,0-.09,0-.1,0,0,0,0,0-.05,0-.1,0,.06,0,0,.06.2,0,.25,0S11.81,6.84,11.82,6.82Zm.33.09s0,0,0-.06-.08,0-.1,0,0,0,0,0-.13,0-.06-.06-.11,0-.14,0,0,0,0,0,0,0,0,0S12.07,6.89,12.15,6.91ZM11.7,7c.13,0,.26,0,.36,0C12,6.93,11.78,6.89,11.7,7Zm-.3,0v.23a7.34,7.34,0,0,1,.92,0V7Zm.07.27a3.2,3.2,0,0,0,.77,0A3.2,3.2,0,0,0,11.48,7.27Zm0,.11c.22,0,.47,0,.67,0,0,0,0-.05,0-.06-.22,0-.47,0-.67,0C11.56,7.33,11.54,7.37,11.53,7.38Zm.37,0h-.42a.06.06,0,0,0,0,0c.25,0,.53,0,.76,0C12.17,7.38,12,7.41,11.9,7.41Z"/><path class="cls-6" d="M11.67,6.58h0s.08,0,.12,0,0,.06,0,.09-.08,0-.06,0,.05,0,.06,0a0,0,0,0,1,0,0s0-.07-.06-.06,0,.06,0,.06-.07,0-.06,0,.07,0,.06,0-.07,0-.1-.09S11.66,6.59,11.67,6.58Z"/><path class="cls-3" d="M11.82,6.48c.06,0,0,.12,0,.1s0-.07,0-.07v.09s0,0-.06,0,0-.11,0-.11,0,0,0,.08,0,0,0-.05,0,0,0,0Z"/><path class="cls-5" d="M8.37,6.38a.1.1,0,0,1,0,.09.07.07,0,0,1-.11,0A.07.07,0,0,1,8.37,6.38Zm-.06,0c0,.07.08.09.07,0S8.35,6.4,8.31,6.4Z"/><path class="cls-5" d="M11.67,6.53s0,0,0,0h.14s0,0,0,0S11.69,6.51,11.67,6.53Z"/><path class="cls-5" d="M5.61,6.55s0-.07,0-.09a.46.46,0,0,1,.15,0s-.09,0-.15,0S5.65,6.54,5.61,6.55Z"/><path class="cls-3" d="M12,6.48s.06,0,.12,0,0,0,0,0,0,0,0,0,0,.08,0,0,0,0,.07,0,0,0,0,0,0,0,0,0,0,0,0,0a0,0,0,0,1,0,0s0-.08-.06-.05-.08,0-.11,0l0,0S11.95,6.51,12,6.48Z"/><path class="cls-5" d="M5.21,6.5a.33.33,0,0,1,.22.2H5.37s0,0,.06,0,0-.06,0-.06.09.11.09,0-.17-.18-.25-.21a.69.69,0,0,1,.22,0s0-.08,0-.07,0,0,0-.05,0,0,0,0,0,0,0,0,0,.06,0,.07v0s0,.13,0,.17,0,0,0,0-.05.07,0,.1,0,0,0,0,.13-.12.12-.19.06,0,.11,0c-.15,0-.18.22-.31.22s0,0,0,.05,0,0,0-.06,0,.06,0,.07-.07,0-.06,0a.15.15,0,0,1-.21,0s0,0,0,.06,0,0,0,0,0,0,0,0,.08,0,.12,0,0,0,0,0a1.56,1.56,0,0,0,.31,0s0,0,0,0a.23.23,0,0,1,.22-.2v0c-.1,0-.1.08-.11.13s0,0,0,0,0,0-.07,0,0,0,0,0,0-.05.07,0v.06h0s0,0,0-.06,0,0,.06,0,0,0,0,0a.14.14,0,0,0-.07-.15c.09,0,.07.12.11.16L6,6.78s-.09,0-.12,0,0,0,0,0,.07,0,.09,0,0,0,0,0,0,.09-.07.14S6,7,6,7v.23H6s-.05.06-.07.09.08,0,.06.12H5.19s0,0,0,0,.06-.05.06-.11-.07,0-.06-.1H5.08V7c.05,0,.25,0,.19,0s0,0,0,0,.19,0,.27,0,0,0,0-.05H5.37s0,0,0,.05-.07,0-.1,0,0,0,0,0-.06,0-.1,0,0,0,0,.06h0s-.08-.1,0-.11l-.14-.07s0,0,0-.06,0,0,0,.06,0,0,.06,0,0,.07,0,.09,0,0,0-.06,0,0,.06,0,0,0,0,0-.06,0-.07,0a0,0,0,0,1,.06,0,.3.3,0,0,0-.09-.16l-.14.06C5.1,6.53,5.2,6.56,5.21,6.5Zm.16.11s-.08-.1-.12-.07S5.32,6.65,5.37,6.61Zm0,0s0,0,0,0S5.37,6.62,5.32,6.63Zm.5.26c-.07,0-.13,0-.06-.06s-.11,0-.14,0,0,0,0,0,0,0,0,0a1.46,1.46,0,0,0,.26,0s0,0,0,0-.11,0-.09,0S5.82,6.86,5.81,6.89Zm-.1,0c-.15,0-.46,0-.42.06a.74.74,0,0,1,.54,0s0,0,0,0A1,1,0,0,1,5.71,6.9Zm0-.17a0,0,0,0,1,0,0c-.21,0,.11,0,.09,0S5.78,6.75,5.76,6.73Zm-.27.07c-.17,0-.12,0,0,0Zm.27,0s.12,0,.1,0S5.47,6.81,5.76,6.81Zm0-.19s.1-.07.09-.1S5.74,6.58,5.77,6.63Zm0,0s0-.06,0,0S5.78,6.64,5.77,6.68Zm0,0s0,0,0,0,.07-.06,0-.06A.05.05,0,0,0,5.75,6.68ZM5.58,6.6s0,0,0,0S5.6,6.62,5.58,6.6Zm-.25-.11a1,1,0,0,0,.16.17s0,0,0,0a.27.27,0,0,1,0-.17A.87.87,0,0,0,5.33,6.49Zm.2.1c0-.05,0-.12,0-.14s0,.08,0,.15,0,0,.06,0V6.47C5.51,6.45,5.57,6.57,5.53,6.59Zm0-.25s0,.05,0,.08,0,0,0,0,.06,0,.06,0,0-.09,0-.09S5.55,6.31,5.53,6.34ZM5.4,7c.15,0,.24,0,.36,0C5.65,6.93,5.48,6.89,5.4,7Zm-.3,0v.23a7.68,7.68,0,0,1,.91,0V7Zm.07.26a2.35,2.35,0,0,0,.77,0A4.67,4.67,0,0,0,5.18,7.26Zm0,.12h.52s.13,0,.14,0-.09,0-.12,0H5.23A.09.09,0,0,1,5.23,7.38Zm0,0a0,0,0,0,0,0,0c.25,0,.53,0,.76,0v0A4.88,4.88,0,0,0,5.18,7.42Z"/><path class="cls-5" d="M12.19,6.55s0,0-.07,0,0,0,0,0h0l0,0s0,0,0,0,0,0,0,0a.07.07,0,0,1,0,0s0,0,0,0Z"/><path class="cls-11" d="M12,6.53s.08.05,0,.05h0s-.09,0-.12,0v0S12,6.5,12,6.53Z"/><path class="cls-6" d="M5.1,6.59l.14-.06a.3.3,0,0,1,.09.16,0,0,0,0,0-.06,0s.06,0,.07,0,0,0,0,0,0-.06-.06,0,0,.06,0,.06,0-.06,0-.09,0,0-.06,0,0,0,0-.06S5.08,6.61,5.1,6.59Z"/><path class="cls-3" d="M5.24,6.54s.08.05.12.07S5.29,6.55,5.24,6.54Z"/><path class="cls-3" d="M5.86,6.53s-.06.07-.09.1S5.84,6.56,5.86,6.53Z"/><path class="cls-6" d="M5.94,6.54A.14.14,0,0,1,6,6.69s0,0,0,0,0,0-.06,0,0,0,0,.06h0V6.73s0,.06-.07,0,0,0,0,0,0,0,.07,0,0,0,0,0,0-.13.11-.13Z"/><path class="cls-11" d="M11.53,6.6s-.08,0-.1,0,0,0,.06,0,.05,0,.07,0,0,0,0,0Z"/><path class="cls-6" d="M12.25,6.61s.06,0,0,.07,0,0-.1,0,0,0,0,.06h0s0-.07,0-.06,0,.06,0,0,0,0,0,0,.08,0,.07,0,0,0,0,0,0,0,0-.07a0,0,0,0,0,.07,0S12.23,6.6,12.25,6.61Z"/><path class="cls-3" d="M5.92,6.52a.23.23,0,0,0-.22.2s.06,0,0,0a1.56,1.56,0,0,1-.31,0s0,0,0,0-.12,0-.12,0,0,0,0,0,0,0,0,0,0,0,0-.06a.15.15,0,0,0,.21,0s0,0,.06,0,.1,0,0-.07,0,.06,0,.06,0,0,0-.05.16-.2.31-.22l0,0Z"/><path class="cls-3" d="M11.85,6.71a.19.19,0,0,0,.21,0s0,0,.06,0-.1,0,0,0l-.12,0c.06-.06-.07,0-.09,0s-.19,0-.25,0,0,0,0-.06S11.82,6.78,11.85,6.71Z"/><path class="cls-3" d="M5.74,6.64s0,.08,0,.06,0,0,0,0A.05.05,0,0,1,5.74,6.64Z"/><path class="cls-3" d="M5.82,6.79s-.3,0-.09,0a0,0,0,0,0,0,0S5.79,6.78,5.82,6.79Z"/><path class="cls-3" d="M11.49,6.81s0,0,0,0,.07,0,.1,0h0s0,0-.06,0S11.49,6.82,11.49,6.81Z"/><path class="cls-3" d="M5.79,6.85s0,0,.09,0-.07,0,0,0a1.46,1.46,0,0,1-.26,0s0,0,0,0,0,0,0,0,.09,0,.14,0,0,.07.06.06S5.81,6.85,5.79,6.85Zm-.1,0v0s-.06,0,0,0S5.66,6.88,5.69,6.88Z"/><path class="cls-3" d="M5.26,6.91h0s0,0,0-.06.07,0,.1,0-.06,0,0,0,.06,0,.1,0,0,0,0-.05h.15s0,0,0,.05-.21,0-.27,0Zm.17,0s0,0,0,0v0S5.43,6.84,5.43,6.86Z"/><path class="cls-3" d="M5.86,6.82s-.09,0-.1,0C5.47,6.81,5.8,6.79,5.86,6.82Z"/><path class="cls-3" d="M11.83,6.86s-.19,0-.25,0,0,0,0-.06.05,0,.1,0,0,0,0,0,.06,0,.1,0,0,0,0,0,.1,0,.15,0S11.79,6.87,11.83,6.86Zm-.1,0s0,0,0,0v0S11.73,6.84,11.73,6.86Z"/><path class="cls-3" d="M11.89,6.88s0,0,0,0,0,0,0,0,.1,0,.14,0,0,.07.06.06,0,0,0,0,.06,0,.1,0,0,0,0,.06S12,6.9,11.89,6.88Zm0,0s0,0,0,0v0S11.94,6.84,11.94,6.86Z"/><path class="cls-5" d="M5.48,6.84v0s0,0,0,0S5.45,6.84,5.48,6.84Z"/><path class="cls-5" d="M5.64,6.86s0,0,0,0v0S5.66,6.87,5.64,6.86Z"/><path class="cls-5" d="M11.78,6.84v0s0,0,0,0S11.75,6.84,11.78,6.84Z"/><path class="cls-5" d="M12,6.84v0s0,0,0,0S12,6.84,12,6.84Z"/><path class="cls-12" d="M8.75,7h2.08V9.29H9.41a.72.72,0,0,0-.69-.78V7S8.73,7,8.75,7Zm1.11.15s0,.08,0,.14a.4.4,0,0,1-.24.09s0,.08,0,.12a.19.19,0,0,1,.1,0c-.15.07-.24-.19-.37-.06.1,0,.14.14.29.14a0,0,0,0,0,0,0s.06,0,0,.06a.34.34,0,0,1-.45-.15c0-.05.06-.19,0-.2s0,.09,0,.15S9,7.39,9,7.46H9c0,.06,0,.05.06.09A.12.12,0,0,0,9,7.67c.05,0,.11,0,.17,0l0,.08s-.06,0-.06,0a.18.18,0,0,1,.11,0,.06.06,0,0,0,0,0,.41.41,0,0,1,.24.12c-.09,0-.1.09-.2.09S9.17,8,9.1,8a.08.08,0,0,0,0,.06c.07,0,.07,0,.12.06s-.15,0-.11.1.09,0,.11,0,0,.14.09.1.05-.07,0-.15.06,0,.1,0v0c.06,0,.06-.06.11-.08s0,0,0,.05a.22.22,0,0,1,.12-.11c0,.13.15.17.24.24-.24-.07-.33.15-.22.29s0,0,0,0,0,0,0,.05-.15,0-.15-.09-.14,0-.16,0,.09.08.09.09-.17,0-.12.11.11,0,.16,0,0,.06,0,.11,0,0,.07,0,0-.08,0-.14l.21,0c.08-.06,0-.16,0-.26s.05,0,.11,0a.19.19,0,0,0,.11.25s0,0,0,0,0,0,0,0,0,0,0,0,0,0,0,.06-.2,0-.21.14a.1.1,0,0,1,.13,0A.13.13,0,0,0,10,9s0,.07,0,.07V9a.09.09,0,0,0,.07,0s.06.13.11.1a.58.58,0,0,1,.07-.4c0-.08-.12-.07-.14-.15s.18-.14.24-.22-.09-.32-.06-.59c.1-.07.14-.2.21-.29s-.06,0-.06,0,.06-.1.07-.16a1,1,0,0,0-.16.1s0-.08,0-.09a3.89,3.89,0,0,0-.09.52c0,.15.11.29.07.41S10,8.17,10,8c0,0,0,0,0,0a.26.26,0,0,0,0-.16s0,.06.07.06,0-.1,0-.11,0,.06.06,0-.07-.1-.07-.17,0,0,0,0a.9.9,0,0,1,0-.21.21.21,0,0,1,.17,0c0-.07-.13-.08-.06,0s-.06-.05,0-.06,0,0,0,0,0,0-.07,0,0,0,0,0,0,0,0,0a0,0,0,0,0,0,0s0-.11,0-.06h0s0,.06,0,.06-.05,0,0,0a0,0,0,0,0,0,0,.09.09,0,0,0,0-.07c-.07,0-.06,0-.11,0s0,0,0-.06S9.89,7.06,9.86,7.11Z"/><path class="cls-5" d="M9.95,7.13s0,0,0,.06,0-.07.11,0a.09.09,0,0,1,0,.07,0,0,0,0,1,0,0s0,0,0,0,0,0,0-.06h0s0,0,0,.06a0,0,0,0,1,0,0s0,0,0,0,0,0,0,0,0,0,.07,0,0,.1,0,0,0,.07,0,.06.09,0,.06,0a.21.21,0,0,0-.17,0,.9.9,0,0,0,0,.21s0,0,0,0,.07.1.07.17,0,0-.06,0,0,.07,0,.11,0-.05-.07-.06A.26.26,0,0,1,10,8s0,0,0,0c0,.22.32.45.38.25s-.07-.26-.07-.41a3.89,3.89,0,0,1,.09-.52s0,0,0,.09a1,1,0,0,1,.16-.1c0,.06,0,.13-.07.16s0,0,.06,0-.11.21-.21.29c0,.28.21.41.06.59s-.27.05-.24.22.11.07.14.15a.58.58,0,0,0-.07.4S10.15,9,10.13,9a.09.09,0,0,1-.07,0v.06S10,9,10,9a.13.13,0,0,1,0-.09.1.1,0,0,0-.13,0c0-.12.16-.07.21-.14s0,0,0-.06,0,0,0,0,0,0,0,0,0,0,0,0a.19.19,0,0,1-.11-.25c-.06,0-.08,0-.11,0s.08.2,0,.26l-.21,0c0,.06-.09.07,0,.14s0,0-.07,0,0-.09,0-.11-.12,0-.16,0,0-.12.12-.11,0-.11-.09-.09.1,0,.16,0,.06.1.15.09,0,0,0-.05,0,0,0,0,0-.35.22-.29c-.09-.07-.2-.11-.24-.24a.22.22,0,0,0-.12.11s0,0,0-.05-.06.07-.11.08v0s-.05,0-.1,0-.07.09,0,.15-.09,0-.09-.1-.09,0-.11,0,.05-.1.11-.1S9.12,8,9.06,8A.08.08,0,0,1,9.1,8c.07,0,.07,0,.14,0s.11,0,.2-.09a.41.41,0,0,0-.24-.12.06.06,0,0,1,0,0,.18.18,0,0,0-.11,0s0,0,.06,0l0-.08c-.07,0-.12,0-.17,0a.12.12,0,0,1,.12-.12S9,7.52,9,7.46H9c0-.07.17-.06.2,0s.06-.07,0-.15.08.15,0,.2a.34.34,0,0,0,.45.15s0,0,0-.06a0,0,0,0,1,0,0c-.15,0-.19-.09-.29-.14.13-.13.22.13.37.06a.19.19,0,0,0-.1,0s0-.08,0-.12a.4.4,0,0,0,.24-.09c0-.06,0-.11,0-.14S9.92,7.13,9.95,7.13Zm0,.08s0,0,0,.06a.34.34,0,0,1,.21.16s0,0,.06,0-.1-.08-.11-.15S10,7.2,9.91,7.21Zm.2.39a.28.28,0,0,0-.24-.32.29.29,0,0,1-.18.07c.06,0,0,0,0,.06s.11.2,0,.17c0,0,0,0,0,.06s-.23,0-.26.1.13,0,.17,0,0,.1,0,.16.08-.07.15-.09,0,.1,0,.12,0-.06.07-.09,0,.08,0,.1,0-.08,0-.1,0,.05.07.07,0-.12,0-.15,0,0,.07.05,0-.06,0-.1,0,0,.07,0-.09-.13-.06-.2A.06.06,0,0,0,10.11,7.6ZM9.2,7.42s0,.07,0,.07-.07-.05-.09,0,.06,0,.06.07H9.08s0,0,0,.06,0,0,.07,0,.14.1,0,.14.07,0,.09,0-.06,0,0,0a.21.21,0,0,1,.19.1s.16-.07.14-.14a.51.51,0,0,1-.15,0s0,0,0-.07-.31-.12-.2-.27C9.24,7.44,9.24,7.41,9.2,7.42Zm.78.94c0,.11-.13.26,0,.35s0-.06,0-.06,0,0,0,.06,0-.06,0-.06.07.06.09.12-.07.07-.12,0,0,0,0,.06.06,0,.08,0-.07,0,0,.06,0,0,.07,0,0,.06,0,0,0,0,0,0,0-.21.06-.3-.08,0-.11-.1a.17.17,0,0,1,0-.21c.39,0,.08-.44.12-.69.1,0,.11-.15.17-.22s-.06,0-.07,0,.11-.09.09-.15-.08.08-.12.11,0-.07,0-.07a1.12,1.12,0,0,0-.09.49c0,.13.08.23.07.32,0,.32-.46,0-.43-.22-.06,0,0,.08-.09.09s0,0,0-.09-.1.1-.19.11.15.18.26.23,0,0,0,0,0,0,0,0-.38,0-.3.16a.06.06,0,0,1,0-.06s0,.08,0,.1,0,0,0,0-.18.16-.2,0c0,0,0,0,0,.11H9.43s0,.05,0,.06a0,0,0,0,1,.07,0s0,0,0,.06,0,0,.06,0,.16,0,.25,0-.08-.21,0-.26h.11s.05-.07,0-.12S10,8.35,10,8.36ZM9.18,8s0,0,0,.06a.07.07,0,0,1,.06,0s-.07,0-.06.06.07,0,0,0h.06c0-.14.12-.08.16-.15s0,0,0,.06.06-.06.09-.09,0,0,0,0,.27-.08.19-.21c0,0-.09,0-.15.06s.05-.08,0-.1S9.33,8.14,9.18,8Zm-.09-.55s-.07,0-.07,0S9.06,7.49,9.09,7.46Zm.36,0c.06.06.21.17.33.09C9.61,7.54,9.57,7.33,9.45,7.41Zm-.24,0s0,0,0,0,0-.07,0-.08S9.22,7.37,9.22,7.4ZM9,7.63h.06s0,0,0,0S9,7.59,9,7.63Zm1.2,1.42s0,0,0-.06h0S10.17,9.06,10.21,9.05ZM10,8.84H10S10,8.88,10,8.84Zm-.53-.31s-.06,0-.06,0S9.48,8.58,9.49,8.53Zm-.12.17s0,0,0,0v0S9.33,8.69,9.36,8.71Zm-.27-.53s0,0,0,0v0S9,8.16,9.09,8.17Zm.15.12v0h0S9.21,8.3,9.24,8.3Z"/><path class="cls-6" d="M9.78,7.49c-.12.08-.27,0-.33-.09C9.57,7.33,9.61,7.54,9.78,7.49Zm-.15,0c-.06,0-.09-.1-.15-.06S9.57,7.52,9.64,7.48Z"/><path class="cls-3" d="M10.06,7.27c0,.07.11.07.11.15s0,0-.06,0a.34.34,0,0,0-.21-.16s0,0,0-.06S10,7.3,10.06,7.27Z"/><path class="cls-8" d="M10.07,7.57c0,.07,0,.14.06.2s0,0-.07,0,0,0,0,.1,0,0-.07-.05,0,.09,0,.15-.07,0-.07-.07,0,.07,0,.1,0-.06,0-.1,0,.07-.07.09,0-.09,0-.12-.07.09-.15.09,0-.12,0-.16-.1,0-.17,0,.24,0,.26-.1,0,0,0-.06c.14,0,.2-.19,0-.17s0,0,0-.06a.29.29,0,0,0,.18-.07.28.28,0,0,1,.24.32A.06.06,0,0,1,10.07,7.57Zm-.14-.2s0-.06-.1,0S9.91,7.4,9.93,7.37Z"/><path class="cls-6" d="M9.91,8.29a.26.26,0,0,1,.07.08s0,0,0,0a.06.06,0,0,1,0,0s0,0,0,0S9.91,8.29,9.91,8.29Z"/><path class="cls-5" d="M9.83,7.32c.06,0,.06,0,.1,0S9.83,7.37,9.83,7.32Z"/><path class="cls-6" d="M9.24,7.33s0,0,0,.08,0,0,0,0S9.25,7.37,9.24,7.33Z"/><path class="cls-3" d="M7.87,8.14a.46.46,0,0,0,0,.27s.14,0,.17,0,0-.16,0-.21v.21a.35.35,0,0,1-.2,0C7.82,8.32,7.79,8.18,7.87,8.14Z"/><path class="cls-3" d="M7.3,8.41c0-.06,0-.15,0-.19v.19s.12,0,.17,0,0-.17,0-.22v.23C7.43,8.42,7.32,8.46,7.3,8.41Z"/><path class="cls-11" d="M12.22,8.78l.11.05s-.09,0-.12,0A.07.07,0,0,1,12.22,8.78Z"/><path class="cls-3" d="M8.94,10S9,10,9,10v0h.06V10s0-.05.07,0,0,.13,0,.19-.06,0-.07,0v.16s.08.09.19.07,0-.06,0-.07h.2a.22.22,0,0,1,0,.07h.11a.15.15,0,0,0,0,.12c.31.09.13-.36,0-.14a2.57,2.57,0,0,0-.19-.2s0,0-.06,0A1.05,1.05,0,0,1,9.28,10a.06.06,0,0,0,0-.06s-.07-.07-.1-.11,0,0,0-.06.09.17.2.1l.12.15s0,0,0,.07.11.12.17.17V10s-.06,0-.07,0V9.81s0,0,.07,0-.06-.16-.17-.15,0,.07,0,.07-.16,0-.2,0,0-.08,0-.1h0s.07,0,.11,0V9.57h-.1s0,0,0-.07h.14s0,.08,0,.07.11-.09.2-.09.09.11.2.09,0-.07,0-.07h.2s0,.08,0,.07.13-.09.21-.09a.11.11,0,0,1,.11.15c0,.07-.13.1-.07.23s.07,0,.07,0v.19s-.06,0-.07,0,.08.19.07.28-.1.07-.07.19.07.13.06.23-.11.16-.09.26-.3.09-.25.26a1.17,1.17,0,0,1-.16.09c-.12-.14-.22.08-.32.07s-.13-.13-.22-.12,0,0-.1,0-.12,0-.16-.1-.21-.12-.24-.26,0-.18,0-.23-.06,0-.07,0a.71.71,0,0,1,0-.19s.08,0,.07,0-.09-.11-.09-.2.14-.11.09-.25S8.92,10.12,8.94,10Zm.6.38s0,.07,0,.07h-.2s0,0,0-.07-.22,0-.2.17.06,0,.07,0v.19s-.07,0-.06,0,0,.09,0,.1.12-.09.16-.15,0,0,0-.06a1.17,1.17,0,0,1,.14-.15s0,0,.06,0a1.76,1.76,0,0,0,.16-.2Zm.43-.07s0-.07,0-.07h.2s0,0,0,.07.12,0,.19-.06v-.17s-.07,0-.07,0V9.89s0,0,.07,0,0-.14,0-.17a1.34,1.34,0,0,1-.21.24s0,0,0,.09-.08.11-.13.14l-.08,0c0,.08-.11.12-.16.2S9.95,10.35,10,10.35Zm.07-.77v.05h.11C10.2,9.56,10.09,9.56,10.06,9.58Zm-.25.21s.06,0,.07,0V10l-.07,0a.93.93,0,0,0,0,.25c0-.08.12-.11.15-.2a.27.27,0,0,1,0-.06c.06,0,.08-.1.14-.14l.07,0,.22-.26h-.14s0,.06,0,.07H10l0-.07C9.87,9.64,9.8,9.68,9.81,9.8ZM9.73,10H9.8v-.1H9.73Zm.71.09h.06v-.1h-.06Zm-.4,0s.09,0,.1-.06S10.05,10,10,10.06Zm-.58,0,0,0C9.45,9.91,9.32,10,9.46,10.08ZM9,10.36a.08.08,0,0,0,0,.06c.06,0,.08,0,.06-.07A.09.09,0,0,0,9,10.36Zm1.5,0v0s0,0-.07,0S10.47,10.45,10.51,10.41Zm-1.15,0s.13,0,.11,0-.08,0-.11,0Zm.69,0s.13,0,.11,0-.08,0-.11,0Zm.06.19c0,.07.09.08.11.15s0,0,0,.06.07.15.2.14,0-.06,0-.11-.07,0-.07,0,0-.13,0-.19,0,0,.07,0c0-.14-.06-.19-.2-.17a.11.11,0,0,1,0,.07H10l0-.07h-.1C9.94,10.51,10,10.64,10.12,10.6Zm-.56.06s0,0,0,.07a.8.8,0,0,1-.14.15s0,0-.06,0-.2.25-.06.34,0,0,.06-.05.12.06.17.1,0,0,0,.06l.1,0a.11.11,0,0,1,.06,0V11s-.07,0-.07,0v-.17l.07,0a1.47,1.47,0,0,0,0-.31A.64.64,0,0,1,9.56,10.66Zm.25.15s.06,0,.07,0V11s0,0-.07,0v.24c.06,0,.07.06.16,0s0,0,0-.09a.52.52,0,0,0,.19-.09.05.05,0,0,0,.06,0c.12-.09,0-.23-.06-.32a.26.26,0,0,0-.09,0c0-.07-.16-.12-.1-.22a1.46,1.46,0,0,0-.15-.16Zm-.78,0h.06s0-.08,0-.1H9Zm1.41,0h.06v-.1h0S10.44,10.72,10.44,10.76Zm-1,0s.09,0,.1-.06S9.4,10.71,9.4,10.77Zm.63-.06s0,.09.1.06,0-.08-.07-.09S10,10.71,10,10.71ZM9.8,11v-.1H9.73C9.73,10.94,9.73,11,9.8,11Zm-.42.32s0,0,.09,0,0,0,0-.06,0,0-.09,0S9.37,11.27,9.38,11.31Zm.67,0s0,0,0,0,.11,0,.1-.06S10.06,11.28,10,11.31Z"/><path class="cls-5" d="M12.25,10.91c0,.05,0,.05,0,.11a.16.16,0,0,0,.12.09v.23a.25.25,0,0,0,.17,0v.53c-.14,0-.23-.09-.38-.07s-.17.07-.27.07-.25-.09-.38-.07-.19.08-.3.07v-.53a.27.27,0,0,0,.17,0v-.22s.1,0,.11-.09,0-.07,0-.12A5.22,5.22,0,0,1,12.25,10.91Zm0,.07h-.72c0,.06,0,.08,0,.11.26,0,.55,0,.79,0,0,0,0,0,0,0A.09.09,0,0,1,12.21,11Zm-.74,0s0,0,0,0a2.22,2.22,0,0,0,.38,0c.13,0,.28,0,.36,0A3.16,3.16,0,0,0,11.47,10.95Zm-.09.17v.22h.94v-.22Zm.51.26c.09,0,0,0-.07,0S11.85,11.38,11.89,11.38Zm.47.1a.58.58,0,0,0-.17,0c-.11,0-.23.08-.35.07s-.27-.1-.42-.06-.22.05-.21.11.23-.06.4,0,.11.05.17.06.33-.08.48-.06.16.1.24,0S12.41,11.49,12.36,11.48Zm0,.21c-.14-.12-.3,0-.47,0s-.31-.08-.47-.06a.72.72,0,0,0-.12,0s-.11,0-.12,0,0,0,0,0,.19-.07.32-.06.22.08.33.07.21-.08.32-.07.2.09.31,0S12.43,11.71,12.39,11.69Z"/><path class="cls-13" d="M8.82,11.31s0,0,0,0a.17.17,0,0,1-.06.34c.08,0,.08-.33,0-.34s-.12.3,0,.32c-.2.07-.29-.28-.07-.31a0,0,0,0,0,0,0,.14.14,0,0,0,.12,0s0,0,0,0S8.79,11.3,8.82,11.31Z"/><path class="cls-5" d="M7.94,4.66s0-.07,0-.07.06.15,0,.09.06,0,0-.06H8s0,0,0,0S7.94,4.64,7.94,4.66Z"/><path class="cls-4" d="M9,4.62s0,0,.07,0,0,.07-.06.06S9,4.65,9,4.62Z"/><path class="cls-4" d="M9.31,4.65H9.25v0s0,0,0,0S9.33,4.61,9.31,4.65Z"/><path class="cls-3" d="M8.83,4.63s0,.06-.06,0,0,0,.06,0Z"/><path class="cls-5" d="M8.23,4.63c-.09,0,.08-.13.09,0s-.08.08-.07,0,0,0,.06,0S8.19,4.58,8.23,4.63Z"/><path class="cls-4" d="M7.74,4.77a.06.06,0,0,1-.07,0V4.72s0,0,0,0A.05.05,0,0,1,7.74,4.77Z"/><path class="cls-4" d="M8.73,4.81s0,0-.06,0S8.71,4.79,8.73,4.81Z"/><path class="cls-4" d="M7.5,4.82a0,0,0,0,1-.06,0,.06.06,0,0,1,0-.07S7.47,4.81,7.5,4.82Z"/><path class="cls-5" d="M10,4.81s0,.07,0,.07h0a.06.06,0,0,1,0,0c0-.06.08-.08.06,0a0,0,0,0,0,0,0s0,0,.06,0S10,4.81,10,4.81Z"/><path class="cls-4" d="M10.28,4.83s0,0-.06,0S10.25,4.77,10.28,4.83Z"/><path class="cls-5" d="M7.43,4.88s0-.07,0-.1.11.08,0,.1Zm0-.09a.06.06,0,0,0,0,.07,0,0,0,0,0,.06,0S7.47,4.78,7.43,4.8Z"/><path class="cls-5" d="M6.93,4.94a.07.07,0,0,1-.1,0C6.8,4.83,7,4.83,6.93,4.94Zm-.09,0v0C6.93,5,6.93,4.83,6.84,4.89Z"/><path class="cls-4" d="M7.32,4.87s-.05,0-.05-.06a.06.06,0,0,1,.07,0S7.33,4.85,7.32,4.87Z"/><path class="cls-4" d="M10.13,4.82a0,0,0,0,1-.07,0s0-.07.06,0S10.12,4.82,10.13,4.82Z"/><path class="cls-5" d="M10.44,4.83v.06C10.31,5,10.31,4.74,10.44,4.83Zm-.09,0v0C10.45,4.95,10.45,4.78,10.35,4.84Z"/><path class="cls-5" d="M10.58,4.94a.07.07,0,0,1-.1,0C10.45,4.83,10.61,4.83,10.58,4.94Zm-.09,0v0C10.58,5,10.58,4.83,10.49,4.89Z"/><path class="cls-4" d="M9.92,4.94s0,.06-.06,0a.06.06,0,0,1,0-.07S9.9,4.94,9.92,4.94Z"/><path class="cls-4" d="M10.81,5.06s0,.05-.06.05a.06.06,0,0,1,0-.07S10.79,5.05,10.81,5.06Z"/><path class="cls-4" d="M6.58,5.15s0,0,0,0a.08.08,0,0,1-.06,0V5.14S6.55,5.14,6.58,5.15Z"/><path class="cls-6" d="M8.94,5.15a2.72,2.72,0,0,1,.68.16s0,0,0,0a.17.17,0,0,1-.09.08c0,.08.12.13.06.22s0,0-.09,0,0,.12,0,.19a.82.82,0,0,0-.16-.07s0,.06,0,0l-.15,0c0,.06.06.08.11.1s0,0,0,.06a.64.64,0,0,0,.24,0c0,.25-.36.28-.4.07,0,0,.05,0,0-.1s0,0-.05-.06-.07.1,0,.16-.46.11-.37-.15A.58.58,0,0,0,9,6s0-.05,0-.06a.5.5,0,0,0,.16-.09A.27.27,0,0,0,9,5.72s0,0,0-.06a.38.38,0,0,0-.2,0c0-.05,0-.14.06-.2s-.06,0-.09,0,.09-.08.12-.14,0-.13,0-.22Z"/><path class="cls-4" d="M7.45,5.23a.05.05,0,0,1,.06,0C7.57,5.23,7.47,5.3,7.45,5.23Z"/><path class="cls-5" d="M11,5.33a.09.09,0,0,1-.1,0C10.85,5.22,11,5.22,11,5.33Zm-.09,0v0C11,5.38,11,5.21,10.9,5.28Z"/><path class="cls-5" d="M6.42,5.33a.09.09,0,0,1,0-.09s0,0,.07,0v.06A.07.07,0,0,1,6.42,5.33Zm0,0v0C6.52,5.38,6.52,5.21,6.43,5.28Z"/><path class="cls-6" d="M10.08,5.34a1.21,1.21,0,0,1,.36.1s.09.07.12,0,0,0,0,0a.22.22,0,0,0,.1.06s0,.05-.06.08.09.1.1.18-.08,0-.1,0a.16.16,0,0,0-.1.17l-.17-.11s0,0,0,.06a.4.4,0,0,0-.16,0,.13.13,0,0,0,.1.1s0,0,0,.06l.2,0c-.06.07-.23.21-.31.07s.05-.08,0-.16a.05.05,0,0,0,0,0C10,6,10,6.1,10,6.17s-.41,0-.32-.2c.08,0,.13.07.21.1s0,0,0-.06a.26.26,0,0,0,.15,0A.15.15,0,0,0,10,5.87s0,0,0-.08l-.19,0s.05-.12.1-.16-.06,0-.09,0,0-.09,0-.15,0,0,.07,0,0-.06,0-.1A.66.66,0,0,1,10.08,5.34Z"/><path class="cls-4" d="M8.71,5.38s0,0-.06.06.17-.15.12,0S8.74,5.38,8.71,5.38Z"/><path class="cls-4" d="M11,5.43c-.06.13-.1-.1,0,0Z"/><path class="cls-4" d="M9.83,5.45c0,.05-.06.06-.09,0A0,0,0,0,1,9.83,5.45Z"/><path class="cls-5" d="M6.38,5.4a.07.07,0,0,1,.1,0C6.51,5.51,6.35,5.51,6.38,5.4Zm0,0v0C6.48,5.52,6.48,5.35,6.39,5.41Z"/><path class="cls-4" d="M6.48,5.56a0,0,0,0,1-.09,0A0,0,0,0,1,6.48,5.56Z"/><path class="cls-4" d="M10.92,5.59s0,0,0-.05h0a.07.07,0,0,1,0,.06S11,5.6,10.92,5.59Z"/><path class="cls-4" d="M6.44,5.67s.08,0,.07.05A0,0,0,0,1,6.44,5.67Z"/><path class="cls-4" d="M10.89,5.67s.08,0,.07.05S10.87,5.74,10.89,5.67Z"/><path class="cls-4" d="M9.2,6c-.08,0-.07-.08,0-.11S9.23,6,9.2,6Z"/><path class="cls-4" d="M8.24,6c-.06,0-.06-.07,0-.11S8.29,6,8.24,6Z"/><path class="cls-4" d="M7.36,6.16c-.07,0-.08,0-.07-.1S7.39,6.1,7.36,6.16Z"/><path class="cls-4" d="M7.61,6.53s0-.05.06,0a.06.06,0,0,1,0,.07S7.63,6.53,7.61,6.53Z"/><path class="cls-11" d="M12.25,6.61s-.06,0-.07,0h0s0,0,0,0,0,0,0,0h0s.08,0,.07.06Z"/><path class="cls-4" d="M5.79,7.52H5.9c0,.24,0,.51,0,.73h-.1Z"/><path class="cls-4" d="M11.53,8.25V7.52H12v.77A3.66,3.66,0,0,0,11.53,8.25Z"/><path class="cls-4" d="M5.23,8.33V7.52H5.7v.73A4,4,0,0,0,5.23,8.33Z"/><path class="cls-4" d="M12,8.72v.77a4,4,0,0,1-.48-.24V8.66A2.06,2.06,0,0,1,12,8.72Z"/><path class="cls-4" d="M12.11,8.75s0,0,.09,0v.79l-.09,0Z"/><path class="cls-4" d="M5.89,9.26s0,0-.1,0c0-.21,0-.45,0-.64h.1C5.91,8.87,5.88,9.05,5.89,9.26Z"/><path class="cls-4" d="M5.72,9.35s0,0,0,0V9c0-.12,0-.25,0-.32a3.42,3.42,0,0,1,0,.67A.06.06,0,0,0,5.72,9.35Z"/><path class="cls-4" d="M5.24,9.56c0-.24,0-.53,0-.79a2.62,2.62,0,0,1,.47-.1v.68A4,4,0,0,1,5.24,9.56Z"/><path class="cls-4" d="M12,9.87v1h-.48V9.66A3.43,3.43,0,0,0,12,9.87Z"/><path class="cls-4" d="M12.06,10.86c-.07,0,0-.14,0-.21V9.88h0A5.07,5.07,0,0,1,12.06,10.86Z"/><path class="cls-12" d="M10,11.72a3.61,3.61,0,0,1-2.53,0,1.07,1.07,0,0,0,1.25-.85A1.08,1.08,0,0,0,10,11.72Zm-1.4-.43s0,0,0,.06c-.21.06-.09.37.09.37,0,0,0,0,0,.06a.61.61,0,0,0-.51-.11.59.59,0,0,0,.49.16s0,.05,0,.09.09,0,.11-.1a.58.58,0,0,0,.49-.11.51.51,0,0,0-.51.07s0,0,0-.07a.19.19,0,0,0,.09-.37.08.08,0,0,1,0-.06C8.74,11.29,8.72,11.27,8.58,11.28Z"/><path class="cls-4" d="M12.51,11.55c-.07.07-.16,0-.24,0s-.31.09-.48.06-.12-.06-.17-.06-.26.08-.4,0,.14-.09.21-.11.28.06.42.06.24-.07.35-.07a.58.58,0,0,1,.17,0S12.52,11.47,12.51,11.55Z"/><path class="cls-4" d="M6.21,11.76c-.11,0-.18,0-.31,0s-.22.07-.33.07-.21-.07-.32-.07-.2.07-.33.07v-.06a1.41,1.41,0,0,1,.25-.09c.16,0,.32.08.47.06s.33-.13.47,0S6.24,11.67,6.21,11.76Z"/><path class="cls-4" d="M12.51,11.76c-.11,0-.19,0-.31,0s-.21.07-.32.07-.22-.07-.33-.07-.2.08-.32.06,0,0,0,0,.09,0,.12,0a.72.72,0,0,1,.12,0c.16,0,.32.08.47.06s.33-.13.47,0S12.53,11.68,12.51,11.76Z"/><path class="cls-11" d="M7.77,5.32c-.12,0-.13-.21-.1-.3.09-.25.64-.32.85-.15v.06s0,.09,0,.12v.09A3.24,3.24,0,0,0,7.77,5.32Z"/><path class="cls-11" d="M8.89,5.14a1.37,1.37,0,0,1,0-.27c.32-.24,1.09,0,.81.45Z"/><path class="cls-11" d="M6.77,5.53s0,0-.06,0c-.15-.46.37-.61.82-.55,0,.06-.09,0-.07.08s0,0,0,0,0,0,0,0,0,0,0,0,0,.05,0,.1.09.05,0,.09a3.28,3.28,0,0,0-.7.2S6.77,5.52,6.77,5.53Z"/><path class="cls-11" d="M9.92,5.06s-.06,0,0,0c.46-.07,1,.11.8.56l-.78-.25c0-.05,0,0,.06-.07s0-.13,0-.16S9.92,5.07,9.92,5.06Z"/><path class="cls-11" d="M11.67,6.53s.07,0,.11,0,0,0,0,.05h-.12C11.61,6.57,11.67,6.55,11.67,6.53Z"/><path class="cls-11" d="M5.19,8.78s0,0,0,.06H5.08S5.16,8.81,5.19,8.78Z"/><path class="cls-6" d="M9,7.44s.09,0,.07,0S9.06,7.44,9,7.44Z"/><path class="cls-5" d="M7.88,4.65v.06s0,0-.09,0A.06.06,0,1,1,7.88,4.65Zm-.09,0v0C7.88,4.76,7.88,4.6,7.79,4.66Z"/><path class="cls-5" d="M10,6.78a6.27,6.27,0,0,1-2.54,0A5.17,5.17,0,0,1,10,6.78Zm-1.6.11c0-.05,0-.16,0-.24h0C8.36,6.72,8.32,6.86,8.37,6.89Zm.06,0s0-.21,0-.24h0C8.42,6.72,8.36,6.88,8.44,6.89Zm0,0c.06,0,.07,0,.12,0V6.65H8.46Zm.14-.24V6.9a4.65,4.65,0,0,0,1.26-.14A5.49,5.49,0,0,0,8.6,6.65Zm-.38.22s0-.19,0-.21S8.17,6.85,8.21,6.88Zm0,0s0-.14,0-.21h0C8.25,6.73,8.21,6.85,8.26,6.88Zm.06,0s0-.2,0-.22h0C8.3,6.74,8.26,6.87,8.32,6.89Zm-.26,0s0-.17,0-.19S8,6.85,8.06,6.86Zm0,0s0-.19,0-.19S8.06,6.85,8.11,6.86Zm0,0c.07,0,0-.14,0-.2h0ZM8,6.85c0-.05,0-.13,0-.16S7.92,6.84,8,6.85Zm0,0s0-.15,0-.16S8,6.84,8,6.85Zm-.21,0s0-.1,0-.11S7.76,6.83,7.81,6.82Zm.06,0V6.71h0S7.81,6.84,7.87,6.84Zm-.14,0s0-.1,0-.09Zm0,0s0-.08,0-.06Z"/><path class="cls-5" d="M4.9,11.36c.06,0,.13,0,.17-.05v-.22s.1,0,.11-.09,0-.08,0-.12a3.42,3.42,0,0,1,.79,0c0,.06,0,0,0,.1s.07.07.12.09h0s0,.2,0,.23a1.4,1.4,0,0,0,.16,0,4.2,4.2,0,0,1,0,.52c-.11,0-.17-.06-.27-.08s-.26.07-.38.08-.18-.06-.27-.08-.29.08-.4.06Zm.29-.45a2,2,0,0,0,.77,0A3.1,3.1,0,0,0,5.18,10.91Zm0,0c0,.06-.08.1,0,.11.25,0,.54,0,.78,0,0,0,0,0,0-.1Zm-.12.14v.22H6v-.22Zm.51.26c.08,0,0,0-.06,0S5.55,11.35,5.59,11.35Zm.48.09a.79.79,0,0,0-.18,0c-.11,0-.22.08-.33.07s-.27-.09-.38-.06-.26,0-.26.13.25-.07.41-.05.11.05.17.06.33-.08.48-.06.16.11.23,0S6.12,11.44,6.07,11.43Zm0,.22c-.15-.12-.3,0-.47,0s-.31-.08-.47-.06a1.41,1.41,0,0,0-.25.09v.06c.13,0,.2-.08.33-.07s.22.07.32.07.22-.08.33-.07.19.09.31,0S6.13,11.68,6.1,11.65Z"/><path class="cls-4" d="M8.23,4.63c0-.05.07-.09.07,0s0,0-.06,0S8.23,4.64,8.23,4.63Z"/><path class="cls-4" d="M9.18,4.59a.07.07,0,0,1,0,.06h0s0,0,0,0S9.14,4.57,9.18,4.59Z"/><path class="cls-4" d="M9.43,4.6c.14.07-.12.1,0,0Z"/><path class="cls-4" d="M8.53,4.65s0,.05,0,.07S8.49,4.66,8.53,4.65Z"/><path class="cls-4" d="M7.2,4.81a.07.07,0,0,1,0,.06h0s0,0,0,0S7.16,4.79,7.2,4.81Z"/><path class="cls-4" d="M10.7,5s0,0-.06,0a.06.06,0,0,1,0-.07S10.7,5,10.7,5Z"/><path class="cls-4" d="M10.9,5.15c0,.06-.08.07-.07,0s0,0,.06,0S10.89,5.15,10.9,5.15Z"/><path class="cls-4" d="M8.77,5.29a.1.1,0,0,1-.14,0V5.22C8.68,5.16,8.8,5.18,8.77,5.29Z"/><path class="cls-4" d="M7.64,5.49s0,0-.07,0,0,0,0,0S7.65,5.44,7.64,5.49Z"/><path class="cls-4" d="M6.58,5.84a.06.06,0,0,1-.08,0s0-.06.05-.06S6.59,5.8,6.58,5.84Z"/><path class="cls-4" d="M10.82,5.79s.08,0,.07,0A0,0,0,0,1,10.82,5.79Z"/><path class="cls-4" d="M10.11,6s0,0,0,0,0,.08-.07.07A.07.07,0,0,1,10.11,6Z"/><path class="cls-4" d="M8.39,6.43c0,.06-.11,0-.07,0S8.39,6.4,8.39,6.43Z"/><path class="cls-4" d="M5.89,10.86H5.81a10.21,10.21,0,0,1,0-1.15s.06,0,.1,0C5.91,10,5.91,10.49,5.89,10.86Z"/><path class="cls-4" d="M5.7,9.76v1.1H5.23V9.94Z"/><path class="cls-4" d="M6.21,11.55c-.07.07-.16,0-.23,0s-.31.09-.48.06-.12-.06-.17-.06-.27.07-.41.05.18-.11.26-.13.26.06.38.06.23-.07.33-.07a.79.79,0,0,1,.18,0S6.22,11.49,6.21,11.55Z"/><path class="cls-14" d="M7.32,8.21v.2h.16V8.2S7.38,8.07,7.32,8.21Z"/><path class="cls-14" d="M7.85,8.19l0,.21H8V8.21S7.92,8,7.85,8.19Z"/><path class="cls-14" d="M7.52,9l0-.21a.13.13,0,0,1,.23,0V9Z"/></g></g></svg>