<svg xmlns="http://www.w3.org/2000/svg" viewBox="0 0 26.89 15.9"><defs><style>.cls-1{fill:#c4272f;}.cls-2{fill:#015197;}.cls-3,.cls-4{fill:#f1e12a;}.cls-4{fill-rule:evenodd;}</style></defs><title>flag_496</title><g id="レイヤー_2" data-name="レイヤー 2"><g id="flag"><rect class="cls-1" width="26.89" height="15.9"/><rect class="cls-2" x="9.22" width="9.47" height="15.9"/><rect class="cls-3" x="1.84" y="7.5" width="1.26" height="5.93"/><rect class="cls-3" x="6.08" y="7.5" width="1.26" height="5.93"/><ellipse class="cls-3" cx="4.6" cy="5.5" rx="0.98" ry="0.96"/><rect class="cls-3" x="3.35" y="8.47" width="2.46" height="0.5"/><rect class="cls-3" x="3.37" y="11.94" width="2.46" height="0.5"/><polygon class="cls-4" points="3.39 7.48 5.77 7.48 4.59 8.22 3.39 7.48"/><polygon class="cls-4" points="3.35 12.68 5.79 12.7 4.57 13.44 3.35 12.68"/><path class="cls-4" d="M4.14,2.91s.12.33,0,.49a.53.53,0,0,0,.39.81,2.53,2.53,0,0,0,.33,0,.74.74,0,0,0,.39-.68C5.19,3.16,5,3.43,5,3c0,0-.19.06,0,.41,0,0-.15.27-.25.21a.28.28,0,0,1,0-.31c.12-.12.06-.52-.08-.66a1,1,0,0,1-.19-.48s.08.56,0,.7a.62.62,0,0,0-.06.5s.08.27-.06.25a.22.22,0,0,1-.12-.33C4.3,3.2,4.26,3.06,4.14,2.91Z"/><path class="cls-4" d="M3.18,5.85s.21,1.38,1.34,1.38a1.45,1.45,0,0,0,1.4-1.34,1.52,1.52,0,0,1-1.36.85A1.57,1.57,0,0,1,3.18,5.85Z"/><path class="cls-4" d="M4.45,9.23a1.08,1.08,0,0,0-1.08,1.12A1.35,1.35,0,0,0,4,11.55a.77.77,0,0,1,.58-1.2c.35-.06.6-.08.58-.54A.64.64,0,0,0,4.45,9.23Zm.13.81A.24.24,0,1,1,4.8,9.8.23.23,0,0,1,4.58,10Z"/><path class="cls-4" d="M5.17,9.34a.75.75,0,0,1-.58,1.2c-.35.05-.54.17-.58.53s.43.58.72.58a1.08,1.08,0,0,0,1.08-1.11A1.35,1.35,0,0,0,5.17,9.34Zm-.58,2a.24.24,0,1,1,.22-.24A.23.23,0,0,1,4.6,11.32Z"/></g></g></svg>