<svg xmlns="http://www.w3.org/2000/svg" viewBox="0 0 27.05 16"><defs><style>.cls-1{fill:#fff;}.cls-2{fill:#ce1126;}.cls-3{fill:#0038a8;}.cls-4{fill:#fcd116;fill-rule:evenodd;}.cls-5{fill:#d8d8d8;}</style></defs><title>flag_608
</title><g id="レイヤー_2" data-name="レイヤー 2"><g id="flag"><path class="cls-1" d="M27.05,0H0V16H27.05V0Z"/><polygon class="cls-2" points="0.06 0.11 11.22 8.09 0.06 16 26.99 16 26.99 0.11 0.06 0.11"/><polygon class="cls-3" points="0.06 0.11 11.19 8.07 26.99 8.07 26.99 0.11 0.06 0.11"/><polygon class="cls-4" points="10.39 4.25 9.87 4.19 9.59 4.63 9.51 4.13 9.02 4.02 9.45 3.76 9.37 3.21 9.78 3.6 10.29 3.36 10.04 3.86 10.39 4.25"/><polygon class="cls-4" points="18.03 8.44 17.53 8.61 17.46 9.12 17.17 8.7 16.69 8.8 16.98 8.39 16.67 7.92 17.21 8.1 17.57 7.67 17.55 8.24 18.03 8.44"/><polygon class="cls-4" points="10.24 13.23 9.77 13 9.36 13.32 9.45 12.82 9.02 12.56 9.52 12.46 9.62 11.91 9.88 12.41 10.44 12.36 10.04 12.75 10.24 13.23"/><polygon class="cls-4" points="12.19 9.62 12.09 10.66 12.28 10.87 12.56 10.6 12.44 9.63 12.19 9.62"/><polygon class="cls-4" points="12.53 9.61 12.67 10.48 12.8 10.35 12.6 9.59 12.53 9.61"/><polygon class="cls-4" points="12.95 9.44 13.34 10.11 13.57 10.12 13.02 9.37 12.95 9.44"/><polygon class="cls-4" points="14.5 8.14 13.53 8.27 13.52 8.51 14.56 8.61 14.77 8.42 14.5 8.14"/><polygon class="cls-4" points="13.53 8.19 14.4 8.04 14.27 7.92 13.5 8.12 13.53 8.19"/><path class="cls-4" d="M13.52,8.36a1.26,1.26,0,0,0-.16-.61L14,7.38l0-.23-.71.52-.07-.09L14,6.91l0-.28h-.38l-.6.76L13,7.33l.51-.7h-.19l-.39.66a1.25,1.25,0,0,0-.32-.15l.19-.69-.15-.18-.13.84-.11,0,.09-1-.19-.21L12,6.17l.12.93H12l-.13-.83-.13.13.19.72a1.25,1.25,0,0,0-.38.16l-.36-.62-.23,0,.51.7-.09.07-.66-.79-.28,0V7l.77.6h0l-.06.09-.71-.52v.18l.68.4a1.31,1.31,0,0,0-.13.34l-.67-.18-.18.15.82.13s0,.08,0,.12l-1-.09-.21.19.27.27L11,8.56a.73.73,0,0,0,0,.1l-.85.14.13.13.74-.19a1.27,1.27,0,0,0,.12.28l-.66.38,0,.23.73-.54.06.08-.77.64,0,.29h.39l.59-.75.08.06-.5.69h.18l.38-.65a1.31,1.31,0,0,0,.37.15l-.2.72.16.18.13-.88h.18a1.26,1.26,0,0,0,.82-.3l.66.79.28,0V9.74l-.77-.6h0l.05-.07.7.51V9.39L13.34,9a1.28,1.28,0,0,0,.14-.32v.05l.74.2.18-.15-.91-.14A1.12,1.12,0,0,0,13.52,8.36Z"/><path class="cls-5" d="M26.85.2V15.8H.2V.2H26.85m.2-.2H0V16H27.05V0Z"/></g></g></svg>