<svg xmlns="http://www.w3.org/2000/svg" viewBox="0 0 26.89 15.9"><defs><style>.cls-1{fill:#e71e18;}.cls-2{fill:#ede93b;}</style></defs><title>flag_156</title><g id="レイヤー_2" data-name="レイヤー 2"><g id="flag"><rect class="cls-1" width="26.89" height="15.9"/><polygon class="cls-2" points="6.21 6.76 4.51 5.93 2.86 6.86 3.12 4.98 1.72 3.7 3.59 3.37 4.38 1.64 5.27 3.32 7.16 3.53 5.84 4.9 6.21 6.76"/><polygon class="cls-2" points="8.85 2.71 8.33 2.45 7.83 2.74 7.91 2.17 7.49 1.78 8.06 1.68 8.3 1.15 8.57 1.66 9.14 1.73 8.74 2.14 8.85 2.71"/><polygon class="cls-2" points="10.41 4.51 9.89 4.26 9.39 4.54 9.47 3.97 9.04 3.58 9.61 3.48 9.85 2.95 10.13 3.46 10.7 3.53 10.3 3.94 10.41 4.51"/><polygon class="cls-2" points="10.59 6.71 10.08 6.46 9.57 6.74 9.65 6.17 9.23 5.78 9.8 5.68 10.04 5.15 10.31 5.66 10.88 5.73 10.48 6.14 10.59 6.71"/><polygon class="cls-2" points="8.69 8.59 8.17 8.34 7.67 8.63 7.75 8.05 7.32 7.66 7.89 7.56 8.13 7.04 8.4 7.55 8.98 7.61 8.57 8.03 8.69 8.59"/></g></g></svg>