<svg xmlns="http://www.w3.org/2000/svg" viewBox="0 0 26.91 15.97"><defs><style>.cls-1{fill:#da121a;}.cls-2{fill:#078930;}.cls-3{fill:#fcdd09;}.cls-4{fill:#0f47af;}.cls-5{fill:#f5e928;}</style></defs><title>flag_231</title><g id="レイヤー_2" data-name="レイヤー 2"><g id="flag"><rect class="cls-1" width="26.91" height="15.97"/><rect class="cls-2" width="26.91" height="5.62"/><rect class="cls-3" y="5.58" width="26.91" height="5.2"/><ellipse class="cls-4" cx="13.54" cy="8.76" rx="4.52" ry="4.49"/><polygon class="cls-5" points="13.3 5.83 12.72 7.64 10.07 7.64 10.47 7.92 12.58 7.94 12.36 8.77 12.62 8.94 13.47 6.32 13.3 5.83"/><polygon class="cls-5" points="10.67 8.08 12.2 9.21 11.36 11.71 11.76 11.43 12.44 9.43 13.16 9.91 13.4 9.71 11.19 8.08 10.67 8.08"/><polygon class="cls-5" points="12.02 11.23 13.55 10.11 15.69 11.66 15.54 11.2 13.84 9.95 14.51 9.41 14.39 9.12 12.17 10.74 12.02 11.23"/><polygon class="cls-5" points="15.45 10.98 14.87 9.16 17.01 7.63 16.52 7.63 14.79 8.84 14.5 8.04 14.18 8.05 15.02 10.68 15.45 10.98"/><polygon class="cls-5" points="16.25 7.62 14.35 7.61 13.54 5.1 13.39 5.56 14.02 7.58 13.16 7.62 13.08 7.92 15.84 7.92 16.25 7.62"/><rect class="cls-5" x="15.98" y="8.62" width="0.17" height="1.98" transform="translate(1.81 21.74) rotate(-71.28)"/><rect class="cls-5" x="14.11" y="6.55" width="1.98" height="0.17" transform="translate(0.46 14.23) rotate(-51.14)"/><polygon class="cls-5" points="11.32 5.84 11.46 5.74 12.62 7.34 12.48 7.45 11.32 5.84"/><polygon class="cls-5" points="10.09 9.99 10.04 9.83 11.93 9.22 11.98 9.39 10.09 9.99"/><polygon class="cls-5" points="13.62 12.45 13.45 12.45 13.45 10.47 13.62 10.47 13.62 12.45"/></g></g></svg>