<svg xmlns="http://www.w3.org/2000/svg" viewBox="0 0 26.76 16.06"><defs><style>.cls-1{fill:#fff;}.cls-2{fill:#de3831;}.cls-3{fill:#002395;}.cls-4{fill:#007a4d;}.cls-5{fill:#ffb612;}</style></defs><title>flag_710</title><g id="レイヤー_2" data-name="レイヤー 2"><g id="flag"><rect class="cls-1" y="0.04" width="26.76" height="15.9"/><polygon class="cls-2" points="6.02 0.08 13.56 5.37 26.76 5.35 26.76 0.18 6.02 0.08"/><polygon class="cls-3" points="26.76 15.94 6.22 16.07 14.05 10.74 26.76 10.74 26.76 15.94"/><polygon class="cls-4" points="4.38 0.12 13.4 6.52 26.76 6.6 26.76 9.84 13.48 9.84 4.34 15.98 0 16.07 0 13.07 7.78 8.4 0 3.36 0 0 4.38 0.12"/><polygon class="cls-5" points="10.12 8.19 0 14.75 0 13.07 7.95 8.36 0 3.36 0 1.92 10.12 8.19"/><polygon points="0 3.36 8.15 8.36 0 13.07 0 3.36"/></g></g></svg>