<svg xmlns="http://www.w3.org/2000/svg" viewBox="0 0 27.05 16"><defs><style>.cls-1{fill:#fff;}.cls-2{fill:#1e2d5d;}.cls-3{fill:#e71e18;}.cls-4{fill:#d8d8d8;}</style></defs><title>flag_410</title><g id="レイヤー_2" data-name="レイヤー 2"><g id="flag"><rect class="cls-1" width="27.05" height="16"/><ellipse class="cls-2" cx="13.61" cy="7.81" rx="3.49" ry="3.42"/><polygon points="20.07 5.59 19.61 5.9 17.71 2.99 18.17 2.68 20.07 5.59"/><rect x="17.35" y="3.21" width="0.56" height="1.54" transform="translate(0.68 10.26) rotate(-33.05)"/><rect x="18.39" y="4.75" width="0.56" height="1.54" transform="translate(0.01 11.07) rotate(-33.05)"/><rect x="18.77" y="2.21" width="0.56" height="1.54" transform="translate(1.47 10.91) rotate(-33.17)"/><rect x="19.81" y="3.83" width="0.56" height="1.54" transform="translate(0.76 11.73) rotate(-33.15)"/><rect x="7.32" y="10.09" width="0.56" height="3.48" transform="translate(-5.23 6.09) rotate(-33.17)"/><rect x="7.48" y="9.75" width="0.56" height="1.54" transform="translate(-4.5 5.99) rotate(-33.29)"/><rect x="8.52" y="11.36" width="0.56" height="1.54" transform="translate(-5.2 6.78) rotate(-33.13)"/><polygon points="18.52 11.34 18.99 11.63 18.16 12.93 17.69 12.63 18.52 11.34"/><rect x="18.61" y="10.24" width="1.54" height="0.56" transform="translate(0.13 21.27) rotate(-57.67)"/><rect x="8.77" y="9.13" width="0.56" height="3.48" transform="translate(-4.47 6.72) rotate(-33.17)"/><rect x="16.87" y="11.38" width="1.54" height="0.56" transform="translate(-1.65 20.32) rotate(-57.64)"/><rect x="17.91" y="9.77" width="1.54" height="0.56" transform="translate(0.18 20.42) rotate(-57.55)"/><polygon points="19.27 11.81 19.75 12.1 18.92 13.4 18.45 13.11 19.27 11.81"/><rect x="19.37" y="10.71" width="1.54" height="0.56" transform="translate(0.08 22.12) rotate(-57.66)"/><rect x="5.86" y="3.5" width="3.48" height="0.56" transform="translate(0.2 7.94) rotate(-55.76)"/><polygon points="7.59 5.87 7.13 5.55 9.09 2.67 9.55 2.99 7.59 5.87"/><rect x="7.29" y="4.46" width="3.48" height="0.56" transform="translate(0.04 9.54) rotate(-55.77)"/><path class="cls-3" d="M16.48,9.8a7.93,7.93,0,0,0,.65-2,3.46,3.46,0,0,0-3.49-3.42,3.49,3.49,0,0,0-3.2,2.05s-.16,1.59,1.14,2a1.62,1.62,0,0,0,1.92-.56,1.74,1.74,0,0,1,2.08-.75C17,7.6,16.9,8.94,16.48,9.8Z"/><path class="cls-4" d="M26.85.2V15.8H.2V.2H26.85m.2-.2H0V16H27.05V0Z"/></g></g></svg>