<svg xmlns="http://www.w3.org/2000/svg" viewBox="0 0 26.93 16.03"><defs><style>.cls-1{fill:#003580;}.cls-2{fill:#fdfefd;}.cls-3{fill:#d21034;}.cls-4{fill:#009543;}.cls-5,.cls-6{fill:#ffce00;}.cls-5{fill-rule:evenodd;}</style></defs><title>flag_516</title><g id="レイヤー_2" data-name="レイヤー 2"><g id="flag"><rect class="cls-1" width="26.89" height="15.9"/><polygon class="cls-2" points="0 11.56 22.5 0 26.89 0 26.93 4.18 4.06 16.03 0 15.9 0 11.56"/><polygon class="cls-3" points="25.5 0 0 13.36 0 15.9 1.44 15.86 26.85 2.62 26.89 0 25.5 0"/><polygon class="cls-4" points="4.06 15.95 26.93 4.18 26.89 15.9 4.7 15.95 4.06 15.95"/><path class="cls-5" d="M3.9,2.44,3.69,1.15l1,.82A1.84,1.84,0,0,0,3.9,2.44Z"/><path class="cls-5" d="M3.45,3.23l-.83-1,1.28.21A1.85,1.85,0,0,0,3.45,3.23Z"/><path class="cls-5" d="M3.46,4.15,2.24,3.7l1.22-.46A1.85,1.85,0,0,0,3.46,4.15Z"/><path class="cls-5" d="M3.88,4.91,2.6,5.13l.82-1A1.85,1.85,0,0,0,3.88,4.91Z"/><path class="cls-5" d="M4.69,5.37l-1,.83L3.9,4.91A1.84,1.84,0,0,0,4.69,5.37Z"/><path class="cls-5" d="M5.61,5.36,5.16,6.58,4.7,5.36A1.84,1.84,0,0,0,5.61,5.36Z"/><path class="cls-5" d="M6.38,4.91,6.6,6.19l-1-.82A1.85,1.85,0,0,0,6.38,4.91Z"/><path class="cls-5" d="M6.84,4.11l.83,1L6.38,4.91A1.85,1.85,0,0,0,6.84,4.11Z"/><path class="cls-5" d="M6.83,3.21l1.22.45-1.22.46A1.85,1.85,0,0,0,6.83,3.21Z"/><path class="cls-5" d="M6.38,2.45l1.29-.22-.82,1A1.85,1.85,0,0,0,6.38,2.45Z"/><path class="cls-5" d="M5.59,2l1-.83L6.39,2.43A1.86,1.86,0,0,0,5.59,2Z"/><path class="cls-5" d="M4.69,2,5.14.77,5.6,2A1.85,1.85,0,0,0,4.69,2Z"/><ellipse class="cls-6" cx="5.14" cy="3.66" rx="1.43" ry="1.45"/></g></g></svg>