<svg xmlns="http://www.w3.org/2000/svg" xmlns:xlink="http://www.w3.org/1999/xlink" viewBox="0 0 31.68 15.84"><defs><style>.cls-1{fill:none;}.cls-2{clip-path:url(#clip-path);}.cls-3{fill:#0073cf;}.cls-4{fill:#fff;}</style><clipPath id="clip-path" transform="translate(0 -0.09)"><rect class="cls-1" x="2.38" width="26.89" height="15.9"/></clipPath></defs><title>flag_340</title><g id="レイヤー_2" data-name="レイヤー 2"><g id="flag"><g class="cls-2"><rect class="cls-3" width="31.68" height="15.84"/><rect class="cls-4" y="5.28" width="31.68" height="5.28"/><g id="star"><g id="cone"><polygon id="triangle" class="cls-3" points="15.84 7.04 15.57 7.88 15.99 8.01 15.84 7.04"/><g id="use12"><polygon class="cls-3" points="15.84 7.04 16.11 7.88 15.69 8.01 15.84 7.04"/></g></g><g id="use14"><polygon class="cls-3" points="16.68 7.65 15.8 7.65 15.8 8.09 16.68 7.65"/><polygon class="cls-3" points="16.68 7.65 15.97 8.17 15.71 7.81 16.68 7.65"/></g><g id="use16"><polygon class="cls-3" points="15 7.65 15.72 8.17 15.97 7.81 15 7.65"/><polygon class="cls-3" points="15 7.65 15.88 7.65 15.88 8.09 15 7.65"/></g><g id="use18"><polygon class="cls-3" points="16.36 8.63 16.09 7.79 15.67 7.93 16.36 8.63"/><polygon class="cls-3" points="16.36 8.63 15.65 8.12 15.9 7.76 16.36 8.63"/></g><g id="use20"><polygon class="cls-3" points="15.32 8.63 16.04 8.12 15.78 7.76 15.32 8.63"/><polygon class="cls-3" points="15.32 8.63 15.6 7.79 16.01 7.93 15.32 8.63"/></g></g><polygon class="cls-3" points="20.24 5.63 19.97 6.47 20.39 6.61 20.24 5.63"/><polygon class="cls-3" points="20.24 5.63 20.51 6.47 20.09 6.61 20.24 5.63"/><polygon class="cls-3" points="21.08 6.24 20.2 6.24 20.2 6.68 21.08 6.24"/><polygon class="cls-3" points="21.08 6.24 20.37 6.76 20.11 6.4 21.08 6.24"/><polygon class="cls-3" points="19.4 6.24 20.12 6.76 20.38 6.4 19.4 6.24"/><polygon class="cls-3" points="19.4 6.24 20.28 6.24 20.28 6.68 19.4 6.24"/><polygon class="cls-3" points="20.76 7.22 20.49 6.39 20.07 6.52 20.76 7.22"/><polygon class="cls-3" points="20.76 7.22 20.05 6.71 20.3 6.35 20.76 7.22"/><polygon class="cls-3" points="19.72 7.22 20.44 6.71 20.18 6.35 19.72 7.22"/><polygon class="cls-3" points="19.72 7.22 20 6.39 20.41 6.52 19.72 7.22"/><polygon class="cls-3" points="20.24 8.27 19.97 9.11 20.39 9.24 20.24 8.27"/><polygon class="cls-3" points="20.24 8.27 20.51 9.11 20.09 9.24 20.24 8.27"/><polygon class="cls-3" points="21.08 8.88 20.2 8.88 20.2 9.32 21.08 8.88"/><polygon class="cls-3" points="21.08 8.88 20.37 9.4 20.11 9.04 21.08 8.88"/><polygon class="cls-3" points="19.4 8.88 20.12 9.4 20.38 9.04 19.4 8.88"/><polygon class="cls-3" points="19.4 8.88 20.28 8.88 20.28 9.32 19.4 8.88"/><polygon class="cls-3" points="20.76 9.86 20.49 9.03 20.07 9.16 20.76 9.86"/><polygon class="cls-3" points="20.76 9.86 20.05 9.35 20.3 8.99 20.76 9.86"/><polygon class="cls-3" points="19.72 9.86 20.44 9.35 20.18 8.99 19.72 9.86"/><polygon class="cls-3" points="19.72 9.86 20 9.03 20.41 9.16 19.72 9.86"/><polygon class="cls-3" points="11.44 5.63 11.17 6.47 11.59 6.61 11.44 5.63"/><polygon class="cls-3" points="11.44 5.63 11.71 6.47 11.29 6.61 11.44 5.63"/><polygon class="cls-3" points="12.28 6.24 11.4 6.24 11.4 6.68 12.28 6.24"/><polygon class="cls-3" points="12.28 6.24 11.57 6.76 11.31 6.4 12.28 6.24"/><polygon class="cls-3" points="10.6 6.24 11.32 6.76 11.57 6.4 10.6 6.24"/><polygon class="cls-3" points="10.6 6.24 11.48 6.24 11.48 6.68 10.6 6.24"/><polygon class="cls-3" points="11.96 7.22 11.69 6.39 11.27 6.52 11.96 7.22"/><polygon class="cls-3" points="11.96 7.22 11.25 6.71 11.51 6.35 11.96 7.22"/><polygon class="cls-3" points="10.92 7.22 11.63 6.71 11.38 6.35 10.92 7.22"/><polygon class="cls-3" points="10.92 7.22 11.2 6.39 11.61 6.52 10.92 7.22"/><polygon class="cls-3" points="11.44 8.27 11.17 9.11 11.59 9.24 11.44 8.27"/><polygon class="cls-3" points="11.44 8.27 11.71 9.11 11.29 9.24 11.44 8.27"/><polygon class="cls-3" points="12.28 8.88 11.4 8.88 11.4 9.32 12.28 8.88"/><polygon class="cls-3" points="12.28 8.88 11.57 9.4 11.31 9.04 12.28 8.88"/><polygon class="cls-3" points="10.6 8.88 11.32 9.4 11.57 9.04 10.6 8.88"/><polygon class="cls-3" points="10.6 8.88 11.48 8.88 11.48 9.32 10.6 8.88"/><polygon class="cls-3" points="11.96 9.86 11.69 9.03 11.27 9.16 11.96 9.86"/><polygon class="cls-3" points="11.96 9.86 11.25 9.35 11.51 8.99 11.96 9.86"/><polygon class="cls-3" points="10.92 9.86 11.63 9.35 11.38 8.99 10.92 9.86"/><polygon class="cls-3" points="10.92 9.86 11.2 9.03 11.61 9.16 10.92 9.86"/></g></g></g></svg>