<svg xmlns="http://www.w3.org/2000/svg" viewBox="0 0 26.99 15.69"><defs><style>.cls-1{fill:#f7df4b;}.cls-2{fill:#1eb43a;}</style></defs><title>flag_388</title><g id="レイヤー_2" data-name="レイヤー 2"><g id="flag"><g id="レイヤー_5" data-name="レイヤー 5"><path class="cls-1" d="M.57,15.69,13.21,9.36a.22.22,0,0,1,.22,0l12.65,6.33H27V13.2L16.38,7.89l-.09,0s.06,0,.09-.06L27,2.47V0h-.94L13.43,6.31a.22.22,0,0,1-.22,0L.6,0H0V2.65L10.27,7.78l.09,0a.16.16,0,0,1-.09.06L0,13v2.67Z"/><path class="cls-2" d="M13.43,6.31,26.05,0H.6L13.21,6.31A.22.22,0,0,0,13.43,6.31Z"/><path d="M10.36,7.83l-.09,0L0,2.65V13L10.27,7.89A.16.16,0,0,0,10.36,7.83Z"/><path d="M16.29,7.84l.09,0L27,13.2V2.47L16.38,7.78S16.31,7.8,16.29,7.84Z"/><path class="cls-2" d="M13.43,9.36a.22.22,0,0,0-.22,0L.57,15.69H26.08Z"/></g></g></g></svg>