<svg xmlns="http://www.w3.org/2000/svg" xmlns:xlink="http://www.w3.org/1999/xlink" viewBox="0 0 26.99 16.87"><defs><style>.cls-1,.cls-15,.cls-5{fill:none;}.cls-2{clip-path:url(#clip-path);}.cls-3{fill:#4997d0;}.cls-4{fill:#fff;}.cls-5,.cls-6,.cls-7{stroke:#24420e;}.cls-5{stroke-width:0.44px;}.cls-6{fill:#406325;}.cls-15,.cls-20,.cls-21,.cls-22,.cls-23,.cls-24,.cls-25,.cls-26,.cls-27,.cls-28,.cls-29,.cls-6,.cls-7{stroke-width:0.16px;}.cls-7{fill:#67923d;}.cls-8,.cls-9{fill:#ba1f3e;stroke:#511124;}.cls-8{stroke-width:0.19px;}.cls-13,.cls-14,.cls-16,.cls-31,.cls-32,.cls-33,.cls-9{stroke-width:0.22px;}.cls-10,.cls-11{fill:#8c959d;}.cls-10,.cls-14,.cls-15{stroke:#485654;}.cls-10,.cls-17{stroke-width:0.11px;}.cls-12{fill:#485654;}.cls-13,.cls-19{fill:#6c301e;}.cls-13{stroke:#351710;stroke-linejoin:round;}.cls-14{fill:#b2b6ba;}.cls-16,.cls-17,.cls-18{fill:#fab81c;}.cls-16,.cls-17{stroke:#6c301e;}.cls-20,.cls-21,.cls-22,.cls-23,.cls-24,.cls-25,.cls-26,.cls-27,.cls-28,.cls-29{stroke:#999270;}.cls-20{fill:url(#名称未設定グラデーション_7);}.cls-21{fill:url(#名称未設定グラデーション_7-2);}.cls-22{fill:url(#名称未設定グラデーション_7-3);}.cls-23{fill:url(#名称未設定グラデーション_7-4);}.cls-24{fill:#f9f0aa;}.cls-25{fill:url(#名称未設定グラデーション_6);}.cls-26{fill:url(#名称未設定グラデーション_6-2);}.cls-27{fill:url(#名称未設定グラデーション_7-5);}.cls-28{fill:url(#名称未設定グラデーション_9);}.cls-29{fill:url(#名称未設定グラデーション_9-2);}.cls-30{fill:#b07e09;}.cls-31{stroke:#4c0505;fill:url(#名称未設定グラデーション_10);}.cls-32,.cls-38{fill:#448127;}.cls-32{stroke:#34541f;}.cls-33{fill:#eac102;stroke:#a08307;}.cls-34{fill:#a08307;}.cls-35{stroke:#000;stroke-width:0.1px;}.cls-36{fill:url(#名称未設定グラデーション_11);}.cls-37{fill:#34541f;}</style><clipPath id="clip-path"><rect class="cls-1" x="0.03" y="0.43" width="26.89" height="15.9"/></clipPath><radialGradient id="名称未設定グラデーション_7" cx="-616.82" cy="3394.2" r="0.46" gradientTransform="matrix(1, 0, 0, -1, 629.4, 3402.87)" gradientUnits="userSpaceOnUse"><stop offset="0.22" stop-color="#f9f0aa"/><stop offset="1" stop-color="#b07e09"/></radialGradient><radialGradient id="名称未設定グラデーション_7-2" cx="-616.7" cy="3394.07" r="0.31" xlink:href="#名称未設定グラデーション_7"/><radialGradient id="名称未設定グラデーション_7-3" cx="-616.63" cy="3394.19" r="0.27" xlink:href="#名称未設定グラデーション_7"/><radialGradient id="名称未設定グラデーション_7-4" cx="-616.51" cy="3394.24" r="0.49" xlink:href="#名称未設定グラデーション_7"/><linearGradient id="名称未設定グラデーション_6" x1="-616.08" y1="3395.58" x2="-616.12" y2="3396.35" gradientTransform="matrix(1, 0, 0, -1, 629.4, 3402.87)" gradientUnits="userSpaceOnUse"><stop offset="0.22" stop-color="#b07e09" stop-opacity="0"/><stop offset="1" stop-color="#b07e09"/></linearGradient><linearGradient id="名称未設定グラデーション_6-2" x1="-615.82" y1="3394.53" x2="-615.75" y2="3393.69" xlink:href="#名称未設定グラデーション_6"/><radialGradient id="名称未設定グラデーション_7-5" cx="-616.86" cy="3395.78" r="0.37" xlink:href="#名称未設定グラデーション_7"/><linearGradient id="名称未設定グラデーション_9" x1="-616.7" y1="3395.86" x2="-616.6" y2="3396.11" gradientTransform="matrix(1, 0, 0, -1, 629.4, 3402.87)" xlink:href="#名称未設定グラデーション_7"/><linearGradient id="名称未設定グラデーション_9-2" x1="-616.09" y1="3396.2" x2="-616.02" y2="3395.27" gradientTransform="matrix(1, 0, 0, -1, 629.4, 3402.87)" xlink:href="#名称未設定グラデーション_7"/><radialGradient id="名称未設定グラデーション_10" cx="-615.96" cy="3396.82" r="0.01" gradientTransform="matrix(1, 0, 0, -1, 629.4, 3402.87)" gradientUnits="userSpaceOnUse"><stop offset="0.26" stop-color="#a50a0a"/><stop offset="1" stop-color="#4c0505"/></radialGradient><radialGradient id="名称未設定グラデーション_11" cx="-628.59" cy="3350.7" r="0.01" gradientTransform="matrix(0.98, 0, 0, -1.02, 627.61, 3435.36)" gradientUnits="userSpaceOnUse"><stop offset="0" stop-color="#fff"/><stop offset="1" stop-color="#fff" stop-opacity="0"/></radialGradient></defs><title>flag_320</title><g id="レイヤー_2" data-name="レイヤー 2"><g id="flag"><g class="cls-2"><path class="cls-3" d="M0,0H27V16.87H0Z"/><path class="cls-4" d="M9,0h9V16.87H9Z"/><path class="cls-5" d="M12.71,10.61a.58.58,0,0,0,.17,0m.06-.11a.38.38,0,0,1,.09.13m-.23-.14a.31.31,0,0,1,.09.11m-1.4-3.84a.22.22,0,0,1-.13.1m0,0a.48.48,0,0,1,0-.12m0,.14a.21.21,0,0,0,0,.06m0,0h0m-.12,0a1.5,1.5,0,0,0,0,.22m-.05,0,0,.06m-.13.18a.23.23,0,0,1,0,.11m.1-.13-.05,0m.05.13-.1.06M11,8.66a.36.36,0,0,0,.11.13m0,.05a.1.1,0,0,1-.08,0m.12.24.05,0m0,.09.1.11m0,.08.09,0m0,.07h.06m0-.15a.41.41,0,0,1,0,.12m0,.05V9.43m.13.17v.09m1.1.78,0,0m-.07-.11,0-.05"/><path class="cls-6" d="M13.67,10.82a.31.31,0,0,0-.09-.07,1.84,1.84,0,0,0-.68-.2c-.06,0-.12-.07-.17-.09s-.3-.1-.43-.16-.05,0-.06-.05-.15-.08-.21-.14a2.25,2.25,0,0,1-.62-.72,2.46,2.46,0,0,1-.32-1.13,3.88,3.88,0,0,1,0-.76,2.88,2.88,0,0,1,.43-1l0,0a2.87,2.87,0,0,0-.44,1,4.72,4.72,0,0,0,0,.76,2.53,2.53,0,0,0,.32,1.13,2.48,2.48,0,0,0,.62.72c.06,0,.16.07.21.14l.06,0c.13.07.29.09.43.16a.7.7,0,0,0,.17.09,2.31,2.31,0,0,1,.68.2.23.23,0,0,1,.09.08l0,0"/><path class="cls-7" d="M11.43,9.32a1.34,1.34,0,0,1,0-.66C11.61,9,11.54,9.33,11.43,9.32Zm1.28,1.28a1.39,1.39,0,0,0-.61.32C12.52,10.92,12.78,10.72,12.71,10.6Zm.21-.12a1.77,1.77,0,0,1-.39-.74C13,10,13.06,10.42,12.92,10.48Z"/><path class="cls-7" d="M12.78,10.48a1.64,1.64,0,0,1-.45-.64C12.76,10.07,12.9,10.41,12.78,10.48Zm-.43-.19a1.54,1.54,0,0,0-.22-.73C12.05,10,12.22,10.34,12.35,10.29Zm-.77-.68a1.14,1.14,0,0,1,0-.59C11.75,9.35,11.68,9.61,11.58,9.61Zm-.39-2.16A1.47,1.47,0,0,1,11.78,7C11.59,7.41,11.27,7.56,11.19,7.45Z"/><path class="cls-7" d="M11.21,7.29a1.46,1.46,0,0,1,.49-.56C11.59,7.17,11.32,7.38,11.21,7.29ZM12,10.08a1.52,1.52,0,0,1-.2-.74C12.11,9.69,12.13,10.05,12,10.08Zm-.8-1a1.3,1.3,0,0,1-.65-.17C11,8.79,11.23,8.93,11.19,9.05Zm-.06-.27a1.15,1.15,0,0,1,.29-.47C11.39,8.65,11.21,8.84,11.13,8.78Zm1.44,1.65a1.65,1.65,0,0,0-.74.38C12.34,10.82,12.64,10.57,12.57,10.43Z"/><path class="cls-6" d="M11.43,9.32c.12,0,.18-.29,0-.66A2.8,2.8,0,0,1,11.43,9.32Zm.31.56a1.3,1.3,0,0,0-.61-.31C11.38,9.91,11.69,10,11.74,9.88Zm-.68-1.49a1.64,1.64,0,0,0-.42-.67C10.68,8.2,10.94,8.47,11.06,8.39Zm.23,1a1.24,1.24,0,0,0-.59-.14C11,9.46,11.27,9.46,11.29,9.36ZM11,8.66a1.23,1.23,0,0,0-.48-.39C10.71,8.62,11,8.75,11,8.66Zm.07-1.34a1.5,1.5,0,0,0-.2-.71C10.82,7.06,11,7.36,11.1,7.32Zm.13-.42a1.5,1.5,0,0,0,0-.68c-.18.38-.11.69,0,.68Z"/><path class="cls-6" d="M11.37,6.69a1.12,1.12,0,0,0,.1-.55C11.27,6.41,11.27,6.67,11.37,6.69Zm.17-.18A1,1,0,0,0,11.79,6C11.52,6.22,11.45,6.47,11.54,6.51Zm-.45,1.22a1.19,1.19,0,0,0-.29-.52C10.82,7.63,11,7.79,11.09,7.73ZM12,10.14a1.48,1.48,0,0,0-.72-.17C11.63,10.27,12,10.27,12,10.14Zm.34.15c-.13,0-.29-.27-.21-.73A2.63,2.63,0,0,0,12.34,10.29Zm.38.31c.06.12-.19.32-.62.32A2.46,2.46,0,0,0,12.72,10.6Zm.2-.12c.14-.07,0-.44-.39-.74A2.53,2.53,0,0,1,12.92,10.48Z"/><path class="cls-6" d="M12.78,10.48c.12-.08,0-.41-.45-.64A2.41,2.41,0,0,1,12.78,10.48Zm-1.2-.87c.1,0,.17-.26,0-.59A2.28,2.28,0,0,1,11.58,9.61Zm-.39-2.16c.08.11.4,0,.59-.45A2.64,2.64,0,0,1,11.19,7.45Z"/><path class="cls-6" d="M11.22,7.29c.1.09.38-.12.48-.56A2.46,2.46,0,0,1,11.22,7.29ZM12,10.08c.14,0,.12-.39-.2-.74A2.27,2.27,0,0,1,12,10.08Zm-.81-1c0-.12-.23-.26-.64-.17A2.28,2.28,0,0,1,11.18,9.05Zm0-.27c.08.06.26-.13.29-.46A2,2,0,0,1,11.13,8.78Zm1.44,1.65c.07.14-.23.39-.73.38A2.56,2.56,0,0,0,12.57,10.43Z"/><path class="cls-6" d="M11.23,9.17a1.35,1.35,0,0,0-.48-.44C10.89,9.11,11.15,9.27,11.23,9.17Z"/><path class="cls-7" d="M11,7.7a1.33,1.33,0,0,1,.56-.25C11.36,7.75,11.08,7.8,11,7.7Zm.71,2.18c-.05.11-.36,0-.61-.31A2.43,2.43,0,0,0,11.74,9.88Zm-.69-1.49c-.11.08-.37-.19-.41-.67A3,3,0,0,0,11.05,8.39Zm.24,1c0,.1-.3.1-.59-.13A2.16,2.16,0,0,0,11.29,9.36ZM11,8.66c-.06.09-.31,0-.47-.39A2.19,2.19,0,0,0,11,8.66Zm.08-1.34c-.12,0-.28-.26-.2-.7A2.2,2.2,0,0,0,11.1,7.32Zm.13-.42c-.12,0-.2-.3,0-.68A2.26,2.26,0,0,0,11.23,6.9Zm.14-.21c-.1,0-.11-.28.1-.55A1.71,1.71,0,0,0,11.37,6.69Zm.17-.18c-.09,0,0-.29.25-.48A1.9,1.9,0,0,0,11.54,6.51Z"/><path class="cls-7" d="M11.09,7.73c-.11.06-.27-.1-.29-.52A1.64,1.64,0,0,0,11.09,7.73ZM12,10.14c0,.13-.37.13-.72-.16A2.44,2.44,0,0,0,12,10.14Zm-.23-.26a1.24,1.24,0,0,1-.19-.55C11.84,9.58,11.87,9.85,11.77,9.88Zm-.47-.71a1.32,1.32,0,0,1-.09-.64C11.45,8.86,11.42,9.16,11.3,9.17Zm-.08,0c-.07.09-.33-.07-.47-.45A2.52,2.52,0,0,0,11.22,9.18Z"/><path class="cls-6" d="M11,7.7c.05.11.32,0,.55-.25C11.24,7.65,11.11,7.73,11,7.7Zm.27,1.47c.12,0,.15-.31-.09-.64A2.13,2.13,0,0,1,11.3,9.17Zm.47.7c.1,0,.07-.29-.19-.53A1.53,1.53,0,0,1,11.77,9.87Z"/><path class="cls-6" d="M11.08,8.2A1.07,1.07,0,0,0,11,7.49C10.83,7.92,11,8.23,11.08,8.2Z"/><path class="cls-7" d="M11.08,8.26c-.17,0-.25-.34-.12-.76A2.73,2.73,0,0,0,11.08,8.26Z"/><path class="cls-7" d="M11,8.26a1.66,1.66,0,0,1,.25-.7C11.35,8,11.17,8.3,11,8.26Z"/><path class="cls-6" d="M11.05,8.26c.12,0,.3-.25.24-.69A2.85,2.85,0,0,1,11.05,8.26Z"/><path class="cls-7" d="M11.08,8.53a1.4,1.4,0,0,1,.3-.67C11.4,8.32,11.2,8.59,11.08,8.53Z"/><path class="cls-6" d="M11.08,8.53c.12.06.32-.21.3-.66A2.61,2.61,0,0,1,11.08,8.53Z"/><circle class="cls-8" cx="11.16" cy="7.07" r="0.03"/><circle class="cls-8" cx="11.39" cy="6.89" r="0.03"/><circle class="cls-8" cx="11.29" cy="6.8" r="0.03"/><circle class="cls-9" cx="11.04" cy="8.8" r="0.04"/><circle class="cls-9" cx="11.11" cy="8.35" r="0.04"/><circle class="cls-9" cx="11.48" cy="9.4" r="0.04"/><circle class="cls-9" cx="11.31" cy="9.46" r="0.04"/><circle class="cls-9" cx="12.56" cy="10.34" r="0.04"/><circle class="cls-9" cx="12.64" cy="10.54" r="0.04"/><path class="cls-5" d="M15.78,7.28a.33.33,0,0,1,.06.06m-.18-.54a.7.7,0,0,0,0-.14m.1.09a.4.4,0,0,1,0,.15m-.12,0,.15.11m.11,0a1,1,0,0,1,0,.17m0,0,0-.06m0,.34a.16.16,0,0,1,.1.1m0,0L16,7.52m0,.86a.86.86,0,0,1-.07.1m-.11,0a.41.41,0,0,0,.07.11m.07.17a.33.33,0,0,1-.13.11m0,.13a.81.81,0,0,0-.11.13M16,8.56l-.06,0m0-.21,0,0m-.26,1.05h-.06m-.06-.05,0,0m-.22.15a.38.38,0,0,0,0,.15m.12-.25,0,.06m.1,0h-.07m-.87.71,0,.05m.33-.11h-.11m-.16.17-.08,0m-.41.08a.53.53,0,0,0-.09.11m0-.13c-.07,0-.09.11-.13.17m.08.08-.15-.06m.47,0a.65.65,0,0,0-.2,0m.3,0a.71.71,0,0,0-.29,0m.22-.08h0m-.15.15-.07,0m1.63-1.39-.1.11M15.74,7l-.06,0"/><path class="cls-6" d="M13.34,10.82a.2.2,0,0,1,.09-.07,2,2,0,0,1,.68-.21.7.7,0,0,0,.17-.09c.14-.06.3-.09.43-.16l.06,0c.05-.06.15-.08.21-.14a2.19,2.19,0,0,0,.61-.72,2.39,2.39,0,0,0,.33-1.13,4.72,4.72,0,0,0,0-.76,3.1,3.1,0,0,0-.44-1l0,0a3.1,3.1,0,0,1,.44,1,4.84,4.84,0,0,1,0,.76,2.55,2.55,0,0,1-.33,1.14,2.43,2.43,0,0,1-.61.71c-.06.06-.16.08-.21.14l-.06.05c-.14.07-.29.09-.43.16s-.12.08-.17.09a2.23,2.23,0,0,0-.68.2.22.22,0,0,0-.09.07l0,0"/><path class="cls-6" d="M15.57,9.41a1.63,1.63,0,0,0,0-.76C15.34,9.08,15.43,9.42,15.57,9.41Z"/><path class="cls-6" d="M15.37,9.61a1.23,1.23,0,0,0,0-.59C15.2,9.34,15.26,9.61,15.37,9.61Zm.47-2.09a1.33,1.33,0,0,0-.54-.41C15.47,7.49,15.76,7.62,15.84,7.52Z"/><path class="cls-6" d="M15.8,7.3a1.15,1.15,0,0,0-.41-.47C15.48,7.19,15.71,7.37,15.8,7.3Zm.13.42a1,1,0,0,0-.48-.22C15.65,7.75,15.89,7.81,15.93,7.72ZM15.85,9a1.14,1.14,0,0,0,.57-.16C16.06,8.78,15.82,8.91,15.85,9Zm0-.16a1.11,1.11,0,0,0-.23-.5C15.61,8.69,15.76,8.9,15.85,8.86Z"/><path class="cls-6" d="M15.86,8.48a1.4,1.4,0,0,0-.3-.67C15.54,8.27,15.74,8.54,15.86,8.48Zm-1.49,2.11a1.28,1.28,0,0,0,.62.31C14.74,10.56,14.43,10.48,14.37,10.59Z"/><path class="cls-7" d="M15.56,9.4c-.13,0-.22-.32,0-.75A2.52,2.52,0,0,0,15.56,9.4Zm-1.5,1.23a1.38,1.38,0,0,1,.62.32C14.25,11,14,10.75,14.06,10.63Zm0-.22a1.51,1.51,0,0,1,.5-.62c-.1.48-.39.71-.5.62Zm.6-.12a1.43,1.43,0,0,1,.22-.73C15,10,14.79,10.33,14.66,10.29Zm.61-.41a1.3,1.3,0,0,1,.61-.31C15.63,9.91,15.32,10,15.27,9.88ZM16,8.38a1.24,1.24,0,0,1,.33-.53C16.28,8.23,16.08,8.44,16,8.38Z"/><path class="cls-7" d="M15.66,9.45a1.43,1.43,0,0,1,.69-.15C16,9.57,15.69,9.58,15.66,9.45ZM16,8.76a1.28,1.28,0,0,1,.5-.4C16.29,8.72,16,8.86,16,8.76Zm0-1.28a1.49,1.49,0,0,1,.28-.68c0,.45-.16.74-.28.68Zm-.2-.73a1.16,1.16,0,0,1,0-.56C15.87,6.5,15.82,6.76,15.71,6.75Zm-.11-.06a1.45,1.45,0,0,1-.3-.62C15.63,6.33,15.71,6.64,15.6,6.69Z"/><path class="cls-7" d="M15.92,7.66a1.35,1.35,0,0,1,.4-.43C16.21,7.63,16,7.75,15.92,7.66Zm-1,2.53a1.86,1.86,0,0,1,.83-.19C15.38,10.33,15,10.34,15,10.19Zm.41-.58c-.11,0-.17-.27,0-.59A1.72,1.72,0,0,0,15.37,9.61Zm.47-2.09c-.08.1-.36,0-.54-.41A2.22,2.22,0,0,0,15.84,7.52Zm-.05-.22c-.08.07-.31-.1-.4-.47A2.34,2.34,0,0,0,15.79,7.3Zm.14.42c0,.09-.28,0-.48-.22C15.75,7.67,15.86,7.74,15.93,7.72ZM15.85,9c0-.11.21-.24.57-.16A2.2,2.2,0,0,0,15.85,9Zm0-.16c-.09,0-.23-.17-.22-.5A2.13,2.13,0,0,0,15.84,8.86Z"/><path class="cls-7" d="M15.85,8.48c-.11.06-.31-.21-.29-.66A2.39,2.39,0,0,0,15.85,8.48Zm-1.48,2.11c.06-.12.37,0,.62.31A2.26,2.26,0,0,0,14.37,10.59Z"/><path class="cls-6" d="M14.66,10.29c.13,0,.3-.27.22-.73A2.61,2.61,0,0,1,14.66,10.29Z"/><path class="cls-6" d="M15,10.14a1.44,1.44,0,0,0,.13-.76C14.8,9.76,14.82,10.12,15,10.14Zm-.89.49c-.06.12.19.32.62.32A2.46,2.46,0,0,1,14.06,10.63Zm0-.22c.1.09.39-.14.49-.62A3.28,3.28,0,0,1,14.07,10.41Zm1.2-.53c.05.11.36,0,.61-.31A2.43,2.43,0,0,1,15.27,9.88ZM16,8.38c.1.06.29-.15.33-.53A1.89,1.89,0,0,1,16,8.38Zm-.33,1.07c0,.13.35.12.69-.15A2.4,2.4,0,0,1,15.66,9.45ZM16,8.76c.07.1.34,0,.5-.4A2.2,2.2,0,0,1,16,8.76Zm0-1.28c.12.06.31-.22.28-.68A2.31,2.31,0,0,1,15.91,7.48Zm-.19-.73c.1,0,.15-.25,0-.56A2,2,0,0,1,15.72,6.75Zm-.12-.06c.11-.05,0-.36-.3-.62A2.22,2.22,0,0,1,15.6,6.69Zm.32,1c.09.09.29,0,.4-.43C16.1,7.52,16,7.66,15.92,7.66ZM15,10.19c0,.15.41.14.81-.19A2.55,2.55,0,0,1,15,10.19Z"/><path class="cls-6" d="M15.16,10a1.14,1.14,0,0,0,.1-.56C15.05,9.69,15.06,10,15.16,10Zm.55-.8a1.23,1.23,0,0,0,.08-.65C15.56,8.86,15.59,9.16,15.71,9.17Z"/><path class="cls-7" d="M15,10.14c-.13,0-.15-.38.13-.76A2.94,2.94,0,0,0,15,10.14Zm1-1.92a1,1,0,0,1,.19-.64C16.2,8,16.05,8.26,15.94,8.22ZM15.16,10c-.1,0-.11-.28.1-.56A1.79,1.79,0,0,0,15.16,10ZM15.82,7a1.18,1.18,0,0,1,0-.61C16,6.77,15.92,7.05,15.82,7Zm-1.64,3.38a1.7,1.7,0,0,1,.53-.62C14.59,10.29,14.29,10.52,14.18,10.42Zm1.54-1.17a1.25,1.25,0,0,1,.47-.44C16.05,9.19,15.79,9.34,15.72,9.25Zm0-.08c-.12,0-.15-.31.08-.65A2.39,2.39,0,0,0,15.71,9.17Z"/><path class="cls-6" d="M15.94,8.27c.15.05.26-.28.19-.67A2.6,2.6,0,0,1,15.94,8.27Z"/><path class="cls-6" d="M16,8.26a1.43,1.43,0,0,0-.25-.7C15.66,8,15.84,8.3,16,8.26ZM15.82,7c.11,0,.18-.26,0-.61A2.47,2.47,0,0,1,15.82,7Zm-1.63,3.38c.1.1.4-.13.52-.62a3.3,3.3,0,0,1-.52.62Zm1.53-1.17c.08.09.34-.06.48-.44A2.22,2.22,0,0,1,15.72,9.25Z"/><path class="cls-7" d="M16,8.25c-.12.05-.3-.24-.25-.69A2.36,2.36,0,0,0,16,8.25Z"/><circle class="cls-9" cx="15.88" cy="7.17" r="0.03"/><circle class="cls-9" cx="15.98" cy="7.5" r="0.03"/><circle class="cls-9" cx="16.02" cy="8.56" r="0.04"/><circle class="cls-9" cx="15.88" cy="8.36" r="0.04"/><circle class="cls-9" cx="15.46" cy="9.48" r="0.04"/><circle class="cls-9" cx="15.64" cy="9.56" r="0.04"/><circle class="cls-9" cx="14.45" cy="10.47" r="0.04"/><circle class="cls-9" cx="14.25" cy="10.61" r="0.04"/><circle class="cls-9" cx="15.66" cy="7.01" r="0.03"/><g id="b"><path class="cls-10" d="M12.21,9.46a0,0,0,0,0,.06,0s0,0,0,0h0a0,0,0,0,1,0-.05l0,0Z"/><path class="cls-11" d="M12.29,9.51s-.07.05-.09,0a.07.07,0,0,1,0-.06l0,0a.2.2,0,0,0,0,.05.11.11,0,0,0,.11-.05.09.09,0,0,0,0-.1l-.05-.05,0,0h0s0,.07,0,.1Z"/><path class="cls-12" d="M12.29,9.51l0,0H12.2s0,0,0,0,0,0,0,0v0h0l0,0h0l0,0,0,0h.07l0,0,0,0s0,0,0-.05v0l0,0,0,0h0l0,0h0s0,0,0,0,0,0,0,0l0,0Zm0,0,0,0v0l0,0h0l0,0h0l0,0v0a.07.07,0,0,1,0,.05l0,0,0,0h-.09l0,0h0l0,0h0v.06h.06l0,0Z"/><path class="cls-13" d="M14.49,7,13.36,8.12,12.2,9.23l-.13.15c-.06.06-.12.15-.2.22s0,0,0,0a.57.57,0,0,0-.14.13l-.34.38s0,0,0,0l.18.25s.08.05.09,0A6.31,6.31,0,0,0,12,9.88a2.1,2.1,0,0,1,.16-.36l.33-.36,0,0,0,0c.66-.68,1.43-1.5,2-2.07l0,0Z"/><path class="cls-10" d="M12.14,9.23s-.05,0-.08,0a.18.18,0,0,0,.1,0l0,0Z"/><path class="cls-14" d="M15.66,6.19l-.89.74s0,0,0,0l-.08-.07h0v0l0,0h0l0,0h0l0,.05s0,0,0,0c-.54.53-1,1-1.54,1.52L12.4,9a1.06,1.06,0,0,1-.18.13.11.11,0,0,0-.05,0l-.05.15a.48.48,0,0,1-.08.12l.11.11.32-.34,0,0,0-.05,0,0,0,0h0c.74-.72,1.55-1.51,2.2-2.16,0,0,0,0,0,0l.08.09s0,0,0,0l.89-.8Z"/><path class="cls-12" d="M12.12,9.29h0l0-.07,0-.07h0l0,.07,0,.07h0Z"/><circle class="cls-15" cx="12.32" cy="9.23" r="0.02"/><circle class="cls-15" cx="12.22" cy="9.33" r="0.02"/><path class="cls-12" d="M12.4,9.06l0,0,0,0,0,0A0,0,0,0,0,12.4,9.06Z"/><path class="cls-10" d="M14.12,7.28l.1.1,0,0-.1-.09Z"/></g><path class="cls-10" d="M14.71,9.5s0,.07-.06.06,0,0,0,0h0a.07.07,0,0,0,0-.06l0,0Z"/><path class="cls-11" d="M14.62,9.56s.07,0,.1,0a.07.07,0,0,0,0-.06l0,0a.11.11,0,0,1,0,0s-.08,0-.11,0a.11.11,0,0,1,0-.11s0,0,.06,0l0,0s0,0,0,0,0,.07,0,.1Z"/><path class="cls-12" d="M14.62,9.56l0,0h.06l0,0v0a0,0,0,0,0,0,0h0l0,0h0l0,0h0l0,0,0,0,0,0v0a0,0,0,0,0,0,0h0l0,0h0l0,0h0l0,0s0,0,0,0a.05.05,0,0,0,0,0Zm0,0s0,0,0,0,0,0,0,0l0,0h.05l0,0h0l-.05,0s0,0,0,0v0a.07.07,0,0,0,0,0,.05.05,0,0,0,0,0l0,0h.09l0,0h0l0,0h0v0l0,0h-.06l0,0Z"/><path class="cls-13" d="M12.55,7l1.08,1.16,1.1,1.17.12.15a1.8,1.8,0,0,0,.19.24s0,0,.05,0a.53.53,0,0,1,.13.13l.33.4s0,0,0,0l-.2.24s-.08.05-.09,0-.29-.4-.37-.59a2.55,2.55,0,0,0-.13-.37c-.06-.06-.19-.23-.32-.37l0,0,0,0L12.52,7l0,0Z"/><path class="cls-10" d="M14.79,9.28s.05,0,.08,0a.18.18,0,0,1-.1,0l0,0Z"/><path class="cls-14" d="M11.42,6.07l.86.78s0,0,0,0l.09-.06h0v0l0,0s0,0,0,0l0,0h0l0,0a0,0,0,0,1,0,0l1.46,1.59.61.63s.12.09.18.14l0,0,0,.16.07.12-.12.1-.29-.35,0,0,.05,0,0,0,0,0h0L12.44,6.83h0l-.08.09a.05.05,0,0,1-.05,0l-.86-.85Z"/><path class="cls-12" d="M14.81,9.34h0l0-.07,0-.07h0l0,.07v.07h0Z"/><circle class="cls-15" cx="14.61" cy="9.27" r="0.02"/><circle class="cls-15" cx="14.71" cy="9.38" r="0.02"/><path class="cls-12" d="M14.54,9.1l0,0,0,0,0,0Z"/><path class="cls-10" d="M12.91,7.24l-.1.09,0,0,.1-.09Z"/><path class="cls-7" d="M12.2,10.27a1.54,1.54,0,0,0-.82,0C11.84,10.52,12.21,10.43,12.2,10.27Zm2.5.1a1.6,1.6,0,0,1,.83,0C15.07,10.62,14.69,10.52,14.7,10.37Z"/><path class="cls-6" d="M12.2,10.28c0,.15-.36.25-.82,0A2.84,2.84,0,0,0,12.2,10.28Zm2.51.09c0,.15.36.25.82,0A2.46,2.46,0,0,1,14.71,10.37Z"/><g id="c"><path class="cls-14" d="M14.3,10.12a6.85,6.85,0,0,0-2.14-1.91,1.12,1.12,0,0,1,.41.17,9,9,0,0,1,1.85,1.68l-.1.09,0,0Z"/><path class="cls-11" d="M14.36,10.12l0,0a7.8,7.8,0,0,0-2.15-1.94,7.31,7.31,0,0,1,2.19,1.9Z"/><path class="cls-12" d="M14.36,10.12l0,0h0a6,6,0,0,0-.47-.55c-.16-.18-.34-.35-.52-.52s-.36-.32-.55-.47l-.3-.21-.31-.19h0a4,4,0,0,1,.63.37,5,5,0,0,1,.56.47l.52.52c.16.18.33.36.49.55Zm0,0-.49-.55-.52-.52c-.18-.16-.37-.32-.56-.46a4.06,4.06,0,0,0-.63-.38h0a2,2,0,0,1,.31.19,2,2,0,0,1,.3.21l.56.47c.18.17.35.34.51.52s.33.36.48.55h0l0,0Z"/><path class="cls-16" d="M14.55,10l-.15.07s-.05.08-.1.09v0h0s0,0,0,0a.1.1,0,0,0,0,.09s0,0,.07,0a.16.16,0,0,0,.06,0,1.47,1.47,0,0,0,.31.3c.06,0,.09,0,.07-.08s0,0,0,0,0,0,0,0a.19.19,0,0,0,0-.27c-.06-.12-.13-.16-.2-.16Zm.18.13,0,.06a.17.17,0,0,1-.07.22h0s0-.06,0-.05,0-.06,0-.05a0,0,0,0,0,0,0,0,0,0,0,0,0-.05s0,0,0,0a.05.05,0,0,0,0,0l.1-.08c.08,0,.12,0,.16.07Z"/><path class="cls-17" d="M14.76,10.2s0,0,0,0h0s0,0,0,0a0,0,0,0,1,0,0Z"/><path class="cls-17" d="M14.75,10.17l0,0h0s0,0,0,0Z"/><path class="cls-17" d="M14.73,10.14s0,0,0,0h0s0,0,0,0,0,0,0,0Z"/><path class="cls-17" d="M14.71,10.11l0,0h0s0,0,0,0Z"/><path class="cls-17" d="M14.68,10.08a0,0,0,0,1,0,0h0s0,0,0,0Z"/><path class="cls-18" d="M14.38,10.22a.13.13,0,0,1,.09-.1m-.09.11a.11.11,0,0,0,.11-.07m-.07.11s.09,0,.11-.07m-.07.12a.11.11,0,0,0,.1-.07m-.06.11a.11.11,0,0,0,.1-.07m-.06.11a.11.11,0,0,0,.1-.06m-.05.1a.11.11,0,0,0,.09,0m0,.09a.13.13,0,0,0,.09-.05"/><path class="cls-19" d="M14.38,10.22a0,0,0,0,1,0,0l0,0,0,0h0l0,0,0,.06Zm0,0h0l0,0,0,0,0,0,0,0,0,0,0,0Zm0,0h0l0,0,0,0,0,0,0,0,0,0h-.06Zm0,.05h.06l0,0,0,0a.1.1,0,0,1,0,.05h-.06Zm0,0,.06,0,0,0s0,0,0,0,0,0,0,0l0,0H14.5Zm0,0h.06l0,0a0,0,0,0,0,0,0v0h0l-.06,0Zm.05,0h.08v0l0,0h-.05Zm.05,0h0l.05,0,0,0s0,0,0,0h0Z"/></g><path class="cls-14" d="M12.66,10.05a6.59,6.59,0,0,1,2.25-1.78,1.1,1.1,0,0,0-.42.14,9,9,0,0,0-2,1.57l.09.09,0,0Z"/><path class="cls-11" d="M12.6,10l0,0a7.78,7.78,0,0,1,2.27-1.81A7.25,7.25,0,0,0,12.6,10Z"/><path class="cls-12" d="M12.6,10l0,0h0c.16-.18.33-.36.5-.52l.55-.49c.19-.15.38-.3.58-.44l.31-.19.33-.17h0a4.41,4.41,0,0,0-.65.33,6,6,0,0,0-.59.44l-.54.48L12.6,10Zm0,0c.17-.17.34-.35.52-.51s.36-.34.55-.49a4.94,4.94,0,0,1,.59-.43,3.64,3.64,0,0,1,.65-.34h0a2.48,2.48,0,0,0-.32.17l-.31.19c-.2.14-.39.28-.58.44s-.37.32-.55.48-.34.35-.5.53h0l0,0Z"/><path class="cls-16" d="M12.41,9.9a.35.35,0,0,1,.15.07s0,.08.09.1l0,0h0s0,0,0,0,0,.06,0,.08a.08.08,0,0,1-.08,0,.11.11,0,0,1,0,0,1.81,1.81,0,0,1-.33.28c-.06,0-.09,0-.07-.09s0,0,0,0h0a.21.21,0,0,1,0-.28c.07-.11.15-.15.21-.14Zm-.18.11,0,.06a.16.16,0,0,0,.05.22h0s0-.06,0,0,0-.06,0-.05,0,0,.05,0,0-.05,0,0a0,0,0,0,1,0,0s0,0,0,0L12.39,10c-.08,0-.13,0-.16.06Z"/><path class="cls-17" d="M12.19,10.1s0,0,0,0h0s0,0,0,0a0,0,0,0,0,0,0Z"/><path class="cls-17" d="M12.2,10.07s0,0,0,0h0s0,0,0,0Z"/><path class="cls-17" d="M12.22,10s0,0,0,0h0s0,0,0,0a0,0,0,0,0,0,0Z"/><path class="cls-17" d="M12.25,10a0,0,0,0,0,0,0h0s0,0,0,0Z"/><path class="cls-17" d="M12.28,10s0,0,0,0h0s0,0,0,0h0l0,0s0,0,0,0Z"/><path class="cls-18" d="M12.57,10.15a.19.19,0,0,0-.09-.12m.09.12s-.09,0-.11-.08m.07.12s-.09,0-.11-.07m.07.11a.1.1,0,0,1-.1-.07m0,.11a.11.11,0,0,1-.1-.07m.06.11a.11.11,0,0,1-.1-.06m0,.1a.09.09,0,0,1-.09-.06m0,.1a.09.09,0,0,1-.09-.06"/><path class="cls-19" d="M12.57,10.15s0,0,0,0l0,0,0,0,0,0,0,0,0,0,0,.07Zm0,0h0l0,0,0,0s0,0,0,0l0,0s0,0,0,0l0,0Zm0,0h0l0,0,0,0,0,0,0,0,0,0,0,0Zm0,0h0l0,0,0,0v0a.09.09,0,0,0,0,.05l0,0Zm-.05,0-.06,0,0,0,0,0,0,0s0,0,0,0l0,0Zm0,0h-.06l0,0,0,0v0l0,0a.07.07,0,0,0,.06,0Zm-.05,0h-.06l0,0a0,0,0,0,1,0,0,0,0,0,0,0,0,0h0l0,0Zm0,0h0s0,0,0,0l0,0,0,0h.06Z"/><path class="cls-6" d="M11.51,6.75a1.56,1.56,0,0,0,.54-.5c-.43.11-.64.4-.54.5Zm4.09.13a1.39,1.39,0,0,0-.43-.56C15.24,6.75,15.5,7,15.6,6.88Z"/><path class="cls-7" d="M11.51,6.75c-.1-.1.1-.39.54-.5a2,2,0,0,0-.54.5Zm4.09.13c-.1.08-.35-.13-.43-.55A2.42,2.42,0,0,0,15.6,6.88Z"/><path class="cls-20" d="M12.72,8.94s-.18,0-.23-.22.15-.28.15-.28l.37,0,.07.5-.36,0Z"/><path class="cls-21" d="M12.74,8.87s-.11,0-.14-.16.06-.14.06-.14l.26,0v.23l-.19,0Z"/><path class="cls-22" d="M12.66,8.57l.26,0,0,.16-.2,0s0-.15-.09-.15Z"/><path class="cls-23" d="M12.63,8.45a.19.19,0,0,1,.24.18.25.25,0,0,1-.13.24l.39,0,0-.43-.13,0a2.35,2.35,0,0,0-.33,0Z"/><path class="cls-24" d="M12.71,8.94l1.61-.09c.45-.24,0-1.19-.37-1.73,0-.12-.84-.39-1.24-.36h-.14c-.22,0-.22.3-.14.47s.86,1.55.32,1.7Z"/><path class="cls-25" d="M14.28,7.69A4.29,4.29,0,0,0,14,7.12c0-.12-.84-.39-1.24-.36h-.15c-.21,0-.21.3-.13.47s.13.23.23.44"/><path class="cls-26" d="M12.79,8c.16.41.25.85,0,.93h0l1.6-.09c.24-.13.22-.47.09-.84"/><path class="cls-27" d="M12.58,6.85c-.1,0-.13.1-.13.16s.13.17.13.17h.17l.08-.34Z"/><path class="cls-28" d="M12.58,6.85l.25,0,0,.26h-.21s.07-.21-.06-.25Z"/><path class="cls-29" d="M14,7.12c.19,0,.19-.28.06-.38a13.57,13.57,0,0,0-1.43,0,.19.19,0,0,1,.2.19.25.25,0,0,1-.09.19.17.17,0,0,1-.11.05h.19a8.89,8.89,0,0,1,1.18,0Z"/><path class="cls-30" d="M12.89,7.52a0,0,0,0,0,0,0h.05s0,0,0,0,0,0,0,0a.59.59,0,0,0,0,.08,0,0,0,0,0,0,0h0s0,0,0,0h0a.06.06,0,0,0,0,0h-.1s0,0,0,0,0,0,0,0v0l0-.08Zm.14,0,0,0h0s0,0,0,0h.05s0,0,0,0,0,0,0,0a.42.42,0,0,1,0,.1h0a0,0,0,0,0,0,0l0-.08Zm.12,0h0s0,0,0,0,0,0,0,0h0Zm0,0s0,0,0,0,0,0,0,0v0s0,0,0,0h0Zm-.06-.06s0,0,0,0h.08a0,0,0,0,1,0,0l0,0h0s0,0,0,0,0,0,0,0h-.1s0,0,0,0,0,0,0,0l0-.08Zm.21-.06,0,0s0,0,0,0,0,0,0,0h-.06s0,0,0,0v0h0s0,0,0,0a0,0,0,0,1,0,0l0,0s0,0,0,0h0s0,0,0,0h0s0,0,0,0,0,0,0,0v0a0,0,0,0,1,0,0h-.12l0,0v0l0-.08s0,0,0,0h.09Zm.07,0s0,0,0,0,0,0,0,0h.09s.05,0,.05,0,0,0,0,0h0s0,0,0,0h0l0,0s0,0,0,0,0,0,0,0h0l0,0h0s0,0,0,0,0,0-.05,0,0,0,0,0,0,0,0,0l0-.07v0Zm0,0s0,0,0,0,0,0,0,0,0,0,0,0h0a.08.08,0,0,0,0,0Zm.2,0a0,0,0,0,0,0,0h-.05s0,0,0,0a0,0,0,0,0,0,0l0-.08h0s0,0,0,0h0s0,0,0,0h.14a0,0,0,0,1,0,0h0l0,0h0v0l0,.08Zm.1,0h0v0h0s0,0,0,0h0s0,0,0,0h0a0,0,0,0,0,0,0V7.43a0,0,0,0,1,0,0,.64.64,0,0,1,.1.13h0s0,0,0,0H13.8s0,0,0,0l0,0h0Zm0,0h0l0,0h0v0h0Zm.08,0,0,0s0,0,0,0h.1a.11.11,0,0,1,.08.09,0,0,0,0,1,0,0h-.11s0,0,0,0,0,0,0,0l0-.09Zm.06.07s0,0,0,0h0a0,0,0,0,0,0,0,.14.14,0,0,0,0-.06s0,0,0,0h0Zm-.59.35a0,0,0,0,0,0,0h-.07s0,0,0,0l0,0s0,0,0,0l0-.08h0a0,0,0,0,1,0,0l.05.11Zm0-.12h.05v0s0,0,0,0,0,0,0,0h-.05l0,0h0a.09.09,0,0,1,.08,0s0,0,0,0,0,0-.05,0a0,0,0,0,1,0,0,0,0,0,0,1,0,0s0,0,0,0h0s0,0,0,0a.06.06,0,0,0,0,0l0,0h0s0,0,0,0l0-.05Zm.19,0,0,0,0,0h.11a.12.12,0,0,1,.08.09s0,0,0,.05h-.1s0,0,0,0,0,0,0,0Zm.06.07a0,0,0,0,0,0,0h0l0,0a.08.08,0,0,0,0-.06.07.07,0,0,0-.05,0h0l0,.08Zm.18-.12s0,0,0,0v0s0,0,0,0h0s0,0,0,0l0,0h0s0,0,0,0l0,0s0,0,0,0,0,0,0,0h0l0,0h.06s0,0,0,0,0,0,0,0v0a0,0,0,0,1,0,0h-.11s0,0,0,0v0l0-.08a0,0,0,0,0,0,0s0,0,0,0h.11ZM13,8.15l0,0s.05,0,.06,0a.05.05,0,0,1,0,0l0,0H13s0,0,0,0,0,0,0,0v0h0a.07.07,0,0,0,.05,0l0,0s0,0,0,0l-.06,0s0,0,0,0,0,0,0,0h.06v0h0l0,0h0v0Zm.19-.05h0v0h0a0,0,0,0,0,0,0h0s0,0,0,0v0h0s0,0,0,0,0,0,0,0l0,0s0,0,0,0h0l0,0h.05s0,0,0,0,0,0,0,0v0h-.12l0,0v0l0-.08,0,0h.1Zm.12.12h-.05l0,0v0l0-.08s0,0,0,0h.07a0,0,0,0,1,0,0,0,0,0,0,1,0,0,0,0,0,0,1,0,0s0,0,0,0v0Zm0-.05h0s0,0,0,0l0,0h0Zm.17,0,0,0h0v0l0-.08h0v0s0,0,0,0v0h.14a0,0,0,0,1,0,0s0,0,0,0,0,0,0,0h0v0l0,.09Zm.06-.1s0,0,0,0h.05s0,0,0,0,0,0,0,0,0,0,0,0a.64.64,0,0,0,0,.07h0s0,0,0,0h0a0,0,0,0,0,0,0l0-.07Zm.16,0h0v0h0l0,0h0l0,0h0a0,0,0,0,0,0,0l0,0v0h0l0,0h0l0,0s0,0,0,0h0s0,0,0,0h0v0h-.13l0,0a0,0,0,0,0,0,0s0-.06,0-.08l0,0s0,0,0,0h.1Zm.06,0,0,0s0,0,0,0h0l0,0,.06.08h0v-.1h0s0,0,0,0,0,0,0,0l0,.1h0s0,0,0,0h-.07a0,0,0,0,0,0,0l0-.09h0s0,.06,0,.09v0h0l-.08-.1h0l0,.09s0,0,0,0,0,0,0,0h0s0,0,0,0,0,0,0,0l0-.09Zm.25,0s0,0,0,0h0s0,0,0,0h0l0,0Zm0,.05s0,0,0,0h0v0a.05.05,0,0,0,0,0h0v0ZM14,8.1l0,0H14s0,0,0,0,0,0,0,0h0l0,0v0H14s0,0,0,0,0,0,0,0l0-.08Zm.14,0,0,0s0,0,0,0h.08a.07.07,0,0,1,0,0,.06.06,0,0,1,0,0h0l0,0v0h0s0,0,0,0h0a0,0,0,0,1,0,0l0,0h0a0,0,0,0,0,0,0l0,0s0,0,0,0H14.1s0,0,0,0v0l0-.08Zm0,0s0,0,0,0h0s0,0,0,0h0s0,0,0,0Zm.19-.07h0v0h0s0,0,0,0h0s0,0,0,0v0h0s0,0,0,0,0,0,0,0v0h0a.09.09,0,0,0,0,0h0s0,0,0,0,0,0,0,0v0h-.1s0,0,0,0h0v0l0-.09,0,0h.1Zm-.92.37s0,0,0,0,0,0,0,0h0s0,0,.07,0a.09.09,0,0,1,.08.06.17.17,0,0,1,0,.07l-.06,0h-.05s0,0,0,0h0s0,0,0,0V8.42Zm0,.06,0,0h0l0,0s0-.05,0-.07l0,0h0Zm.2-.12h0v0h-.07v0h0s0,0,0,0,0,0,0,0,0,0,0,0H13.6s0,0,0,0h.05s0,0,0,0h0v0h-.12s0,0,0,0,0,0,0,0a.29.29,0,0,0,0-.09s0,0,0,0,0,0,0,0h.11Zm.19.12h0s0,0,0,0h0a0,0,0,0,0,0,0V8.39h0s0,0,0,0h.06Zm.1-.1a0,0,0,0,0,0,0h0s0,0,0,0h0v0Zm0,.08s0,0,0,0h0a0,0,0,0,0,0,0,0,0,0,0,0,0,0h0Zm0,0s0,0,0,0,0,0-.05,0,0,0,0,0a.05.05,0,0,1,0,0s0,0,0,0l0,0a.05.05,0,0,1,0,0,.06.06,0,0,1,.07,0,0,0,0,0,1,0,0h0l0,0s0,0,0,0Zm.09,0h0s0,0,0,0a0,0,0,0,1,0,0s0,0,0,0H14a0,0,0,0,1,0,0s0,0,0-.05,0,0,0,0a0,0,0,0,0,0,0s0,0,0,0a0,0,0,0,0,0,0h0s0,0,0,0l0,0s0,0,0,0h0a.08.08,0,0,1,0,0v0s0,0-.05.05,0,0,0,0h.05Zm.11,0,0,0h-.07s0,0,0,0h0v0l0-.08h0s0,0,0,0h.05l0,.11Z"/><path class="cls-31" d="M13.38,6.17l-.11.13c0,.14.05.25.22.35a.55.55,0,0,0,.46,0l-.39-.37-.18-.15Z"/><path class="cls-32" d="M14.16,10l-.06-.07a2.84,2.84,0,0,1-.91.81A2.1,2.1,0,0,0,14.16,10Zm-.43,1a9.12,9.12,0,0,1,.51-.91L14.18,10a2.69,2.69,0,0,0-.45,1ZM14.9,7.75a2.65,2.65,0,0,0-.12-.37,2.21,2.21,0,0,0-.34-.47,3.32,3.32,0,0,0-.89-.77h0v0h0l0,0h0V6h0v0h0v0h0v0l0,0v0h0v0h0V6h0V6h0V6h0V6h0a.31.31,0,0,0,0,.1l0,0s0,0,0,0a.45.45,0,0,0-.08.22s.07-.11.12-.11,0,.18,0,.2l0,0a.35.35,0,0,0,0,.06l0,0a.2.2,0,0,0,0,.09l.05,0a.11.11,0,0,0,0,.08.18.18,0,0,1,0-.07.3.3,0,0,0,0,.13c0-.06,0-.07,0-.09s0,.1,0,.13,0,0,.05-.07a.57.57,0,0,0,0,.13.11.11,0,0,1,.06-.07c0,.06,0,0,0,.1s.07,0,.1,0,0,.06,0,.08a.27.27,0,0,0,.08-.07s0,.08,0,.12a.07.07,0,0,1,.06-.07.1.1,0,0,1,0,.08c.07,0,.1,0,.13-.08a.17.17,0,0,0,0,.13c0-.07,0-.06,0-.1a.24.24,0,0,0,.09.17.19.19,0,0,1,0-.14s.05.09.06.13a.35.35,0,0,1,0-.11.75.75,0,0,1,0,.16l0-.09A1.48,1.48,0,0,1,14.35,9c.22-.15.27-.39.4-.58a2.76,2.76,0,0,1-.38.77,2.18,2.18,0,0,0,.36-.51,4.85,4.85,0,0,1-.55,1.09l.13.15.11-.19a2.45,2.45,0,0,0,.48-2Z"/><path class="cls-33" d="M13.3,6.05l-.06,0h.08s0,0,0,0v0h0Z"/><path class="cls-34" d="M13.24,6.09h0Z"/><circle class="cls-35" cx="13.43" cy="6.06" r="0.02"/><circle class="cls-36" cx="13.44" cy="6.05" r="0.01"/><path class="cls-37" d="M13.73,11a.65.65,0,0,1,0-.13l.05-.12a1.34,1.34,0,0,1,.12-.24l.13-.23.07-.11.07-.11-.07.11-.07.12-.13.23-.12.23a.61.61,0,0,1-.05.12l0,.13Zm-.53-.27.13-.07.14-.07.24-.18.22-.21L14,10l.1-.12L14,10l-.1.12-.21.21a1.44,1.44,0,0,1-.25.18l-.13.08-.14.06Zm1-.82a.61.61,0,0,0,.07-.1l.06-.09.11-.19c0-.07.07-.13.1-.2l.11-.2,0,.1-.05.1-.11.2-.11.19a2.14,2.14,0,0,1-.13.19Zm.17-.71L14.54,9a1.28,1.28,0,0,0,.11-.2,1.88,1.88,0,0,0,.14-.42v0a1.11,1.11,0,0,0,0-.17.81.81,0,0,0,0-.22,1.43,1.43,0,0,0,0-.22.79.79,0,0,0-.06-.22,1.72,1.72,0,0,1,.07.21.91.91,0,0,1,0,.23,1.55,1.55,0,0,1,0,.22c0,.06,0,.11,0,.17v0a2.19,2.19,0,0,1-.15.43,1.74,1.74,0,0,1-.1.19l-.14.18Z"/><path class="cls-37" d="M14.36,9a1,1,0,0,0,.14-.16l.11-.19a1.67,1.67,0,0,0,.08-.2.42.42,0,0,0,0-.1v0l0-.05h0a1.17,1.17,0,0,0,0-.43,1.6,1.6,0,0,0,0-.21,1.72,1.72,0,0,0-.07-.21,1.8,1.8,0,0,1,.08.21c0,.06,0,.14,0,.21a1.48,1.48,0,0,1,0,.21.78.78,0,0,1,0,.22h0a.43.43,0,0,1,0,.05v0l0,.1-.09.2a.72.72,0,0,1-.11.19.7.7,0,0,1-.14.16Z"/><path class="cls-37" d="M14.2,9.82l.1-.14,0-.07.05-.07a1.09,1.09,0,0,0,.08-.15c0-.06,0-.11.08-.16a3.09,3.09,0,0,0,.14-.32,1.59,1.59,0,0,0,.09-.33,3.43,3.43,0,0,0,.06-.34,1.93,1.93,0,0,0,0-.34,1.3,1.3,0,0,0-.08-.34,2.92,2.92,0,0,0-.14-.31,1.23,1.23,0,0,1,.14.31,1.49,1.49,0,0,1,.08.68c0,.12,0,.23,0,.35a2.07,2.07,0,0,1-.1.33c0,.1-.09.21-.14.31l-.08.16a1.09,1.09,0,0,1-.08.15l-.05.07,0,.07-.1.14Z"/><path class="cls-37" d="M14.28,9.9l.19-.32c.07-.11.13-.22.19-.33s.1-.24.14-.36,0-.12,0-.18,0-.06,0-.09,0-.07,0-.1a2.34,2.34,0,0,0,0-.38,1.55,1.55,0,0,0,0-.37,1.58,1.58,0,0,0-.11-.37,1.5,1.5,0,0,0-.19-.32,2.14,2.14,0,0,1,.2.32,1.58,1.58,0,0,1,.11.37,2.31,2.31,0,0,1,0,.37c0,.13,0,.26,0,.38a.34.34,0,0,0,0,.1.29.29,0,0,0,0,.09,1.21,1.21,0,0,1,0,.18,2.24,2.24,0,0,1-.14.36l-.18.33c-.07.11-.13.22-.2.32ZM13.5,6.21h.08l.07,0,.14.08.12.1.05.06a.18.18,0,0,1,0,.07l0-.06-.05-.06-.12-.11-.14-.08-.08,0Z"/><path class="cls-38" d="M14,6.51a.46.46,0,0,1,.13.13.53.53,0,0,1-.23-.13"/><path class="cls-37" d="M14,6.51l0,0,0,0,0,0,0,0h0l-.06,0-.06,0-.11-.08.11.08.06,0,.06,0h0l0,0,0,0,0,0,0,0Z"/><path class="cls-38" d="M13.77,6.49l.23.14a.33.33,0,0,0-.14-.14"/><path class="cls-37" d="M13.77,6.49l.11.07.06,0,0,0h0l0,0,0,0,0,0,0,0,0,0,0,0,0,0,0,0h0l-.06,0-.06,0-.11-.07Z"/><path class="cls-38" d="M13.85,6.42a.31.31,0,0,1,.13.12,1.29,1.29,0,0,1-.23-.12"/><path class="cls-37" d="M13.85,6.42l.08,0,0,0s0,0,0,0h0l-.06,0-.06,0-.06,0,0,0,0,0,0,0,0,0,.06,0,.12,0h0a.05.05,0,0,0,0,0l0,0,0,0a.05.05,0,0,1,0,0Z"/><path class="cls-38" d="M13.69,6.5s.18.14.24.14a.39.39,0,0,0-.15-.14"/><path class="cls-37" d="M13.69,6.5l.05,0,.06,0,.06,0h.07l0,0,0,0,0,0,0,0a.24.24,0,0,1,.08.06l0,0,0,0h-.07l-.06,0-.06,0-.05,0Z"/><path class="cls-38" d="M13.69,6.54s.09.09.15.09a.39.39,0,0,0-.15-.14"/><path class="cls-37" d="M13.69,6.54l0,0,0,0a.05.05,0,0,0,0,0h0l0,0,0,0,0,0,0,0a.24.24,0,0,1,.08.06l0,0,0,0h0l0,0,0,0,0,0Z"/><path class="cls-38" d="M13.64,6.36s.2.14.22.22a1,1,0,0,1-.21-.12"/><path class="cls-37" d="M13.64,6.36l.06,0,.06,0,.06,0,0,0,0,0h0l0,0-.06,0-.05,0,0,0,0,0,0,0h0l.05,0,.12.06h0l0,0,0,0-.06-.06-.06,0-.06,0Z"/><path class="cls-6" d="M12.51,10.41a1.07,1.07,0,0,1-.57.14C12.22,10.32,12.49,10.31,12.51,10.41Zm2,.13a1.5,1.5,0,0,0,.66.21C14.84,10.44,14.51,10.41,14.47,10.54Z"/><path class="cls-7" d="M12.51,10.41c0-.1-.29-.09-.57.14A1.85,1.85,0,0,1,12.51,10.41Zm2,.13c0-.13.36-.1.65.21A1.88,1.88,0,0,0,14.48,10.54Z"/></g></g></g></svg>