<svg xmlns="http://www.w3.org/2000/svg" viewBox="0 0 26.53 15.95"><defs><style>.cls-1{fill:#00247d;}.cls-2{fill:#fff;}.cls-3{fill:#cf142b;}</style></defs><title>flag_826</title><g id="レイヤー_2" data-name="レイヤー 2"><g id="flag"><rect class="cls-1" x="0.04" y="0.04" width="26.43" height="15.68"/><rect class="cls-2" x="10.5" y="0.04" width="4.7" height="15.67"/><rect class="cls-2" x="0.02" y="5.7" width="26.49" height="4.88"/><rect class="cls-3" x="11.23" y="0.16" width="3.31" height="15.54"/><rect class="cls-3" y="6.31" width="26.53" height="3.43"/><polygon class="cls-2" points="20.03 10.53 26.47 13.66 26.5 15.74 23.45 15.69 15.17 11.46 15.11 10.44 20.03 10.53"/><polygon class="cls-2" points="6.23 5.7 0.12 2.53 0.16 0.12 2.71 0.18 10.6 4.76 10.6 5.73 6.23 5.7"/><polygon class="cls-2" points="19.75 5.73 26.49 2.24 26.47 0.08 23.7 0 15.12 4.76 15.12 5.84 19.75 5.73"/><polygon class="cls-2" points="6.08 10.46 0.06 13.6 0.06 15.95 2.65 15.95 10.54 11.37 10.54 10.28 6.08 10.46"/><polygon class="cls-3" points="26.47 0.08 25.53 0.07 15.14 5.81 17.59 5.79 26.47 1.25 26.47 0.08"/><polygon class="cls-3" points="15.1 10.51 25 15.69 26.47 15.68 26.5 14.8 18.04 10.53 15.1 10.51"/><polygon class="cls-3" points="10.56 10.44 1.28 15.87 0.08 15.87 0.08 14.48 7.67 10.38 10.56 10.44"/><polygon class="cls-3" points="7.57 5.62 0.16 1.47 0.08 0.08 0.88 0.32 9.92 5.62 7.57 5.62"/></g></g></svg>